<?xml version="1.0" encoding="UTF-8"?>
<!DOCTYPE svg  PUBLIC '-//W3C//DTD SVG 1.1//EN'  'http://www.w3.org/Graphics/SVG/1.1/DTD/svg11.dtd'>
<svg enable-background="new 0 0 595.28 841.89" version="1.1" viewBox="0 0 595.28 841.89" xml:space="preserve" xmlns="http://www.w3.org/2000/svg">
		<linearGradient id="bn" x1="271.09" x2="372.05" y1="489.19" y2="489.19" gradientTransform="matrix(1.0859 -.0105 .0113 1.1669 -40.51 -64.257)" gradientUnits="userSpaceOnUse">
		<stop stop-color="#583C1D" offset="0"/>
		<stop stop-color="#F3E94F" offset=".5"/>
		<stop stop-color="#583C1D" offset="1"/>
	</linearGradient>
	<path d="m369.05 506.42l-9.684 11.736-38.514 5.367c-8.571-23.291-41.004-23.689-40.519 0.387l-20.95-20.193 42.287-20.807 41.507 6.107 25.86 17.39z" fill="url(#bn)"/>
		<linearGradient id="bb" x1="234.22" x2="342.61" y1="567.11" y2="567.11" gradientTransform="matrix(1.0859 -.0105 .0113 1.1669 -40.51 -64.257)" gradientUnits="userSpaceOnUse">
		<stop stop-color="#583C1D" offset="0"/>
		<stop stop-color="#F3E94F" offset=".5"/>
		<stop stop-color="#583C1D" offset="1"/>
	</linearGradient>
	<path d="m220.15 586.58l15.111-8.191 42.891-3.67c4.664 33.178 44.908 27.35 47.753-0.461l12.082 25.488-16.52 14.05-69.5-4.309-31.81-22.91z" fill="url(#bb)"/>
	<path d="m351.71 407.57c-5.432-3.641-8.416-9.307-9.059-15.767-4.846 1.746-9.566 4.962-13.297 9.433-0.387 0.476-0.754 0.968-1.098 1.457 9.736 6.591 15.436 15.823 14.539 25.582-0.156 1.545-0.467 3.043-0.92 4.51 6.559-0.896 13.445-4.641 18.479-10.703 2.818-3.379 4.684-7.048 5.652-10.667-5.23 0.13-10.19-1.09-14.29-3.84z" fill="none"/>
	<path d="m360.36 393.03c-2.361-1.57-5.146-2.431-8.066-2.645 0.766 3.746 2.771 7.002 6.037 9.196 2.355 1.59 5.121 2.448 8.074 2.653-0.78-3.75-2.78-7-6.04-9.2z" fill="none"/>
	<path d="m316.04 407.82c-5.066-2.849-11.33-4.769-18.261-5.281-7.803-0.573-15.168 0.736-21.11 3.391 4.661 12.501 1.943 25.131-7.469 31.37 5.604 5.266 14.324 8.992 24.403 9.742 11.998 0.885 22.861-2.668 29.241-8.693-0.031-0.039-0.076-0.051-0.115-0.07-9.29-6.26-11.49-18.49-6.68-30.46z" fill="none"/>
	<path d="m399.17 340.31c-4.85-2.082-8.455-5.724-10.748-10.245-2.826 1.962-5.428 4.463-7.586 7.477-3.162 4.41-4.814 9.189-5.088 13.652 7.346-1.527 14.578-0.619 20.223 3.163 3.916 2.642 6.568 6.359 7.973 10.67 3.576-2.098 6.863-5.011 9.48-8.687 3.715-5.188 5.375-10.89 5.129-15.97-6.54 2.36-13.4 2.54-19.37-0.05z" fill="none"/>
	<path d="m389.34 362.34c-3.438-2.308-7.732-3.085-12.184-2.553 1.232 2.792 3.248 5.127 6.023 6.728 3.299 1.891 7.201 2.487 11.201 1.934-1.06-2.43-2.73-4.55-5.04-6.11z" fill="none"/>
	<path d="m377.19 374.88c-4.758-2.716-7.92-6.965-9.529-12.013-3.404 1.844-6.643 4.42-9.332 7.667-2.805 3.369-4.686 7.053-5.639 10.674 5.232-0.136 10.211 1.075 14.324 3.851 5.395 3.632 8.395 9.301 9.023 15.761 4.854-1.743 9.576-4.968 13.297-9.435 3.711-4.467 5.813-9.464 6.299-14.155-6.56 1.42-13.07 0.77-18.44-2.34z" fill="none"/>
	<path d="m323.33 413.46c-1.203 6.334 0.453 12.288 4.955 15.977 0.189-0.717 0.313-1.461 0.395-2.207 0.45-4.98-1.58-9.75-5.35-13.77z" fill="none"/>
	<path d="m209.11 372.6c5.401-1.891 8.99-6.441 10.36-12.093-2.16-0.093-4.294 0.16-6.346 0.875-5.374 1.898-8.978 6.451-10.333 12.099 2.15 0.1 4.28-0.15 6.32-0.88z" fill="none"/>
	<path d="m269.19 410.64c-3.678 3.241-6.047 7.241-6.466 11.695-0.202 2.197 0.097 4.365 0.794 6.418 5.31-3.88 7.27-10.82 5.68-18.12z" fill="none"/>
	<path d="m209.12 352.1c3.399-1.196 6.994-1.536 10.589-1.14-0.363-2.104-0.993-4.237-1.9-6.365-1.793-4.129-4.438-7.629-7.529-10.321-1.758 9.549-7.653 17.239-16.578 19.901-4.256 1.283-8.734 1.251-13.087 0.14 0.312 1.013 0.672 2.004 1.085 2.995 2.655 6.134 7.173 10.9 12.312 13.638 1.61-8.81 6.91-15.97 15.11-18.86z" fill="none"/>
	<path d="m228.88 381.86c3.75-2.12 8.059-3.029 12.54-2.916-0.254-0.752-0.541-1.523-0.876-2.279-2.646-6.126-7.164-10.9-12.284-13.626-1.655 8.791-6.952 15.948-15.135 18.835-3.405 1.189-6.987 1.525-10.58 1.14 0.361 2.093 0.985 4.244 1.9 6.356 2.85 6.594 7.878 11.619 13.462 14.232-0.4-9.21 3.31-17.42 10.98-21.73z" fill="none"/>
	<path d="m242.79 388.26c-2.875 0.025-5.611 0.675-8.077 2.041-5.335 3.023-7.953 8.8-7.651 15.241 1.636-0.064 3.247-0.32 4.805-0.866 6.71-2.36 10.65-8.81 10.93-16.41z" fill="none"/>
	<path d="m248.6 421.29c0.814-8.68 6.736-16.18 15.635-21.302-3.431-4.647-7.957-8.063-12.699-9.983-0.268 11.077-5.932 20.504-15.659 23.93-2.06 0.717-4.185 1.109-6.3 1.233 0.643 1.38 1.426 2.756 2.36 4.088 4.613 6.648 11.429 10.961 18.107 12.16-1.24-3.24-1.77-6.65-1.45-10.13z" fill="none"/>
	<path d="m411.1 327.36c-3.953-2.279-8.787-2.672-13.65-1.479 1.609 2.362 3.797 4.254 6.514 5.451 3.707 1.597 7.859 1.685 11.938 0.558-1.22-1.82-2.8-3.37-4.8-4.53z" fill="none"/>
	<path d="m469.61 165.14c-5.26-1.874-9.309-5.513-11.908-10.23-1.162 1.613-2.18 3.326-3.006 5.194-1.502 3.384-2.238 6.809-2.375 10.067 6.975-3.643 14.66-4.673 21.563-2.211 5.779 2.079 10.061 6.298 12.658 11.723 1.605-1.981 3.039-4.217 4.137-6.696 1.66-3.758 2.408-7.577 2.377-11.153-7.45 4.51-15.94 6.01-23.45 3.31z" fill="none"/>
	<path d="m482.27 144.94c-5.59-1.985-11.916-0.728-17.334 2.884 1.787 3.728 4.766 6.636 8.756 8.062 5.58 2.003 11.938 0.724 17.367-2.881-1.81-3.72-4.8-6.62-8.8-8.06z" fill="none"/>
	<path d="m469.77 177.21c-5.094-1.818-10.805-0.922-15.885 1.996 1.742 4.152 4.895 7.388 9.201 8.934 5.094 1.817 10.811 0.913 15.877-1.992-1.75-4.15-4.88-7.39-9.19-8.94z" fill="none"/>
	<path d="m492.89 112.69c-3.773-1.351-7.893-1.198-11.84 0.154 1.451 1.333 3.154 2.403 5.119 3.102 3.801 1.365 7.922 1.204 11.859-0.139-1.46-1.33-3.17-2.4-5.14-3.11z" fill="none"/>
	<path d="m482.08 125.2c-4.012-1.431-7.283-3.897-9.785-7.074-2.834 2.593-5.291 5.896-6.979 9.727-1.676 3.751-2.445 7.565-2.396 11.138 7.436-4.497 15.943-5.994 23.473-3.3 5.232 1.878 9.266 5.53 11.898 10.23 1.15-1.591 2.145-3.318 2.998-5.191 2.648-6.017 3.016-12.199 1.459-17.316-6.75 3.28-14.06 4.14-20.67 1.78z" fill="none"/>
	<path d="m458.97 197.39c-5.781-2.061-10.066-6.298-12.654-11.714-1.615 1.981-3.02 4.221-4.137 6.694-2.123 4.794-2.771 9.686-2.145 14.069 6.521-3.017 13.582-3.729 19.957-1.456 5.047 1.799 8.926 5.236 11.555 9.658 2.691-2.557 4.986-5.721 6.613-9.396 1.496-3.374 2.242-6.79 2.359-10.062-6.97 3.64-14.67 4.69-21.56 2.21z" fill="none"/>
	<path d="m455.9 214.24c-4.061-1.45-8.518-1.154-12.74 0.485 1.807 2.578 4.311 4.565 7.414 5.679 4.061 1.451 8.527 1.152 12.73-0.475-1.81-2.56-4.32-4.57-7.4-5.68z" fill="none"/>
	<path d="m190.23 344.74c6.649-1.994 10.887-7.976 11.8-15.294-3.87-1.294-7.902-1.442-11.646-0.128-6.308 2.216-10.165 8.057-10.851 15.072 3.53 1.17 7.2 1.38 10.7 0.35z" fill="none"/>
	<path d="m496.99 103.43c4.004 1.432 7.277 3.914 9.779 7.092 2.85-2.604 5.283-5.905 6.969-9.735 5.322-11.932 1.553-24.482-8.367-28.044-9.938-3.548-22.311 3.23-27.578 15.173-2.674 6.021-3.025 12.201-1.473 17.301 6.73-3.27 14.08-4.15 20.67-1.78z" fill="none"/>
	<path d="m418.01 304.6c-5.592-2.001-9.789-6.021-12.404-11.181-3.092 2.438-5.865 5.62-7.871 9.41-2.684 5.025-3.678 10.262-3.16 14.924 7.885-2.714 16.029-2.532 22.527 1.215 3.473 2.005 6.076 4.838 7.865 8.17 3.027-2.411 5.695-5.542 7.66-9.239 2.498-4.647 3.494-9.465 3.242-13.859-5.94 2.24-12.18 2.61-17.87 0.57z" fill="none"/>
	<path d="m432.59 266.69c-4.977-1.774-8.818-5.146-11.443-9.48-3.045 2.642-5.635 6.078-7.422 10.098-1.996 4.487-2.707 9.055-2.287 13.197 6.656-2.477 13.66-2.708 19.764-0.081 4.826 2.094 8.414 5.694 10.693 10.182 3.197-2.689 5.947-6.227 7.816-10.417 2.193-4.989 2.813-10.078 2.08-14.585-6.32 2.72-13.06 3.28-19.2 1.09z" fill="none"/>
	<path d="m446.45 229.67c-5.006-1.806-8.9-5.239-11.527-9.646-2.709 2.542-4.986 5.722-6.605 9.387-2.229 4.984-2.832 10.07-2.1 14.572 6.328-2.71 13.064-3.281 19.203-1.086 4.928 1.78 8.799 5.147 11.434 9.49 3.035-2.658 5.629-6.067 7.424-10.106 2.125-4.788 2.764-9.677 2.164-14.054-6.51 3.01-13.58 3.73-19.98 1.45z" fill="none"/>
	<path d="m441.3 252.15c-3.693-1.328-7.75-1.229-11.652 0.074 1.787 2.336 4.152 4.169 7.076 5.213 3.691 1.326 7.729 1.212 11.633-0.082-1.78-2.33-4.14-4.16-7.06-5.2z" fill="none"/>
	<path d="m426.38 289.4c-3.74-1.61-8.006-1.674-12.115-0.472 1.822 2.926 4.457 5.209 7.838 6.426 3.568 1.265 7.43 1.193 11.18 0.061-1.63-2.63-3.9-4.73-6.9-6.02z" fill="none"/>
	<path d="m145.17 231.78c3.237-0.866 5.932-2.653 8.016-5.087-3.302-1.121-6.779-1.359-10.119-0.477-3.23 0.855-5.941 2.645-8.028 5.079 3.33 1.13 6.79 1.37 10.13 0.49z" fill="none"/>
	<path d="m139.97 216.66c5.711-1.518 11.715-0.723 17.259 1.8 0.998-4.231 0.841-9.059-0.745-13.901-2.101-6.476-6.303-11.66-11.283-14.764-3.128 5.095-7.814 8.883-13.724 10.465-4.21 1.111-8.573 0.965-12.782-0.183-1.121 4.344-1.013 9.329 0.636 14.354 1.516 4.721 4.177 8.753 7.44 11.804 3.12-4.65 7.61-8.09 13.19-9.57z" fill="none"/>
	<path d="m173.58 308.38c4.318-1.142 7.695-3.981 9.902-7.773-3.167-0.842-6.396-0.888-9.486 0.027-4.088 1.233-7.274 3.985-9.337 7.623 2.96 0.8 5.99 0.9 8.93 0.12z" fill="none"/>
	<path d="m170.53 291.18c5.104-1.528 10.504-1.181 15.65 0.63 0.284-3.377-0.078-7.01-1.272-10.655-1.808-5.583-5.184-10.211-9.286-13.363-3.067 6.147-8.201 10.771-14.911 12.544-4.678 1.257-9.535 0.954-14.187-0.577-0.419 3.544-0.06 7.407 1.204 11.271 1.702 5.229 4.801 9.627 8.557 12.748 2.87-6.04 7.75-10.65 14.25-12.6z" fill="none"/>
	<path d="m155.94 254.24c4.673-1.238 9.549-0.947 14.197 0.594 0.394-3.559 0.043-7.403-1.211-11.278-1.542-4.718-4.203-8.748-7.46-11.802-3.122 4.658-7.622 8.096-13.189 9.575-5.725 1.521-11.706 0.723-17.268-1.809-1.012 4.251-0.857 9.07 0.73 13.921 1.824 5.579 5.202 10.208 9.297 13.369 3.07-6.16 8.2-10.78 14.9-12.56z" fill="none"/>
	<path d="m157.58 270.8c4.066-1.073 7.305-3.653 9.486-7.119-2.647-0.584-5.386-0.577-8.01 0.123-4.066 1.083-7.286 3.644-9.488 7.111 2.68 0.58 5.39 0.58 8.01-0.11z" fill="none"/>
	<path d="m186.38 320.04c4.774-1.69 9.908-1.673 14.917-0.315-0.224-0.844-0.482-1.7-0.785-2.558-1.85-5.033-4.991-9.223-8.695-12.229-3.063 6.374-8.25 11.161-15.107 12.992-4.834 1.279-9.868 0.905-14.64-0.759-0.253 3.504 0.269 7.273 1.637 11.017 1.645 4.456 4.29 8.263 7.475 11.169 1.53-9.01 6.85-16.37 15.2-19.31z" fill="none"/>
		<linearGradient id="aq" x1="135.62" x2="188.06" y1="257.48" y2="257.48" gradientTransform="matrix(1.0859 -.0105 .0113 1.1669 -40.51 -64.257)" gradientUnits="userSpaceOnUse">
		<stop stop-color="#583C1D" offset="0"/>
		<stop stop-color="#F3E94F" offset=".5"/>
		<stop stop-color="#583C1D" offset="1"/>
	</linearGradient>
	<path d="m148.28 241.33c5.567-1.479 10.067-4.917 13.189-9.575-2.485-2.323-5.317-4.055-8.28-5.065-2.084 2.434-4.779 4.221-8.016 5.087-3.343 0.881-6.8 0.642-10.13-0.485-1.91 2.263-3.272 5.093-4.03 8.23 5.56 2.52 11.54 3.32 17.27 1.8z" fill="url(#aq)"/>
		<linearGradient id="af" x1="146.74" x2="199.19" y1="274.95" y2="274.95" gradientTransform="matrix(1.0859 -.0105 .0113 1.1669 -40.51 -64.257)" gradientUnits="userSpaceOnUse">
		<stop stop-color="#583C1D" offset="0"/>
		<stop stop-color="#F3E94F" offset=".5"/>
		<stop stop-color="#583C1D" offset="1"/>
	</linearGradient>
	<path d="m131.74 253.44c-1.587-4.852-1.743-9.67-0.73-13.921-2.803-1.288-5.478-3.033-7.946-5.157-1.794 6.359-1.706 13.763 0.726 21.205 2.766 8.5 8.09 15.468 14.496 19.979 0.488-3.142 1.432-6.08 2.752-8.736-4.1-3.15-7.48-7.78-9.3-13.36z" fill="url(#af)"/>
		<linearGradient id="t" x1="146.73" x2="199.18" y1="248.16" y2="248.16" gradientTransform="matrix(1.0859 -.0105 .0113 1.1669 -40.51 -64.257)" gradientUnits="userSpaceOnUse">
		<stop stop-color="#583C1D" offset="0"/>
		<stop stop-color="#F3E94F" offset=".5"/>
		<stop stop-color="#583C1D" offset="1"/>
	</linearGradient>
	<path d="m143.07 226.21c3.34-0.882 6.817-0.644 10.119 0.477 1.928-2.254 3.292-5.076 4.039-8.231-5.543-2.523-11.548-3.318-17.259-1.8-5.576 1.48-10.073 4.927-13.199 9.576 2.496 2.323 5.318 4.055 8.272 5.057 2.09-2.44 4.8-4.23 8.03-5.09z" fill="url(#t)"/>
		<linearGradient id="i" x1="146.73" x2="199.17" y1="290.15" y2="290.15" gradientTransform="matrix(1.0859 -.0105 .0113 1.1669 -40.51 -64.257)" gradientUnits="userSpaceOnUse">
		<stop stop-color="#583C1D" offset="0"/>
		<stop stop-color="#F3E94F" offset=".5"/>
		<stop stop-color="#583C1D" offset="1"/>
	</linearGradient>
	<path d="m160.71 280.34c6.709-1.773 11.843-6.397 14.911-12.544-2.63-2.04-5.537-3.445-8.549-4.117-2.181 3.466-5.42 6.046-9.486 7.119-2.624 0.691-5.337 0.694-8.012 0.115-1.614 2.542-2.672 5.557-3.05 8.85 4.66 1.52 9.51 1.83 14.19 0.57z" fill="url(#i)"/>
		<linearGradient id="dq" x1="146.72" x2="199.17" y1="263.62" y2="263.62" gradientTransform="matrix(1.0859 -.0105 .0113 1.1669 -40.51 -64.257)" gradientUnits="userSpaceOnUse">
		<stop stop-color="#583C1D" offset="0"/>
		<stop stop-color="#F3E94F" offset=".5"/>
		<stop stop-color="#583C1D" offset="1"/>
	</linearGradient>
	<path d="m168.93 243.56c1.254 3.875 1.605 7.719 1.211 11.278 2.866 0.938 5.646 2.369 8.265 4.209 0.867-5.491 0.47-11.519-1.514-17.591-2.36-7.262-6.589-13.371-11.726-17.828-0.844 2.976-2.078 5.718-3.696 8.129 3.26 3.05 5.93 7.08 7.47 11.8z" fill="url(#dq)"/>
		<linearGradient id="df" x1="135.63" x2="188.03" y1="256.02" y2="256.02" gradientTransform="matrix(1.0859 -.0105 .0113 1.1669 -40.51 -64.257)" gradientUnits="userSpaceOnUse">
		<stop stop-color="#583C1D" offset="0"/>
		<stop stop-color="#F3E94F" offset=".5"/>
		<stop stop-color="#583C1D" offset="1"/>
	</linearGradient>
	<path d="m135.04 231.29c-2.954-1.002-5.777-2.734-8.272-5.057-1.606 2.41-2.867 5.156-3.704 8.13 2.468 2.125 5.143 3.869 7.946 5.157 0.75-3.14 2.11-5.97 4.02-8.23z" fill="url(#df)"/>
		<linearGradient id="a" x1="135.66" x2="188.06" y1="249.61" y2="249.61" gradientTransform="matrix(1.0859 -.0105 .0113 1.1669 -40.51 -64.257)" gradientUnits="userSpaceOnUse">
		<stop stop-color="#583C1D" offset="0"/>
		<stop stop-color="#F3E94F" offset=".5"/>
		<stop stop-color="#583C1D" offset="1"/>
	</linearGradient>
	<path d="m153.19 226.69c2.963 1.011 5.795 2.742 8.28 5.065 1.619-2.411 2.853-5.153 3.696-8.129-2.474-2.123-5.133-3.871-7.938-5.167-0.75 3.15-2.11 5.97-4.04 8.23z" fill="url(#a)"/>
		<linearGradient id="cn" x1="146.75" x2="199.16" y1="249.61" y2="249.61" gradientTransform="matrix(1.0859 -.0105 .0113 1.1669 -40.51 -64.257)" gradientUnits="userSpaceOnUse">
		<stop stop-color="#583C1D" offset="0"/>
		<stop stop-color="#F3E94F" offset=".5"/>
		<stop stop-color="#583C1D" offset="1"/>
	</linearGradient>
	<path d="m153.19 226.69c2.963 1.011 5.795 2.742 8.28 5.065 1.619-2.411 2.853-5.153 3.696-8.129-2.474-2.123-5.133-3.871-7.938-5.167-0.75 3.15-2.11 5.97-4.04 8.23z" fill="url(#cn)"/>
		<linearGradient id="cb" x1="161.12" x2="213.55" y1="308.66" y2="308.66" gradientTransform="matrix(1.0859 -.0105 .0113 1.1669 -40.51 -64.257)" gradientUnits="userSpaceOnUse">
		<stop stop-color="#583C1D" offset="0"/>
		<stop stop-color="#F3E94F" offset=".5"/>
		<stop stop-color="#583C1D" offset="1"/>
	</linearGradient>
	<path d="m147.73 291.03c-1.263-3.864-1.623-7.727-1.204-11.271-2.866-0.946-5.645-2.388-8.237-4.214-0.888 5.478-0.502 11.523 1.478 17.596 2.697 8.263 7.797 15.073 13.948 19.585 0.417-3.194 1.302-6.21 2.571-8.949-3.76-3.13-6.86-7.53-8.56-12.76z" fill="url(#cb)"/>
		<linearGradient id="bv" x1="161.12" x2="213.56" y1="281.36" y2="281.36" gradientTransform="matrix(1.0859 -.0105 .0113 1.1669 -40.51 -64.257)" gradientUnits="userSpaceOnUse">
		<stop stop-color="#583C1D" offset="0"/>
		<stop stop-color="#F3E94F" offset=".5"/>
		<stop stop-color="#583C1D" offset="1"/>
	</linearGradient>
	<path d="m159.06 263.8c2.624-0.699 5.363-0.707 8.01-0.123 1.635-2.535 2.698-5.552 3.067-8.843-4.647-1.541-9.523-1.832-14.197-0.594-6.706 1.783-11.83 6.403-14.903 12.57 2.623 2.014 5.523 3.429 8.535 4.101 2.2-3.48 5.42-6.04 9.48-7.12z" fill="url(#bv)"/>
		<linearGradient id="bu" x1="161.11" x2="213.57" y1="322.21" y2="322.21" gradientTransform="matrix(1.0859 -.0105 .0113 1.1669 -40.51 -64.257)" gradientUnits="userSpaceOnUse">
		<stop stop-color="#583C1D" offset="0"/>
		<stop stop-color="#F3E94F" offset=".5"/>
		<stop stop-color="#583C1D" offset="1"/>
	</linearGradient>
	<path d="m176.71 317.94c6.857-1.831 12.044-6.619 15.107-12.992-2.579-2.057-5.42-3.549-8.334-4.341-2.207 3.792-5.584 6.631-9.902 7.773-2.943 0.781-5.978 0.682-8.921-0.123-1.465 2.6-2.371 5.637-2.59 8.924 4.77 1.66 9.8 2.03 14.63 0.76z" fill="url(#bu)"/>
		<linearGradient id="bt" x1="161.11" x2="213.54" y1="294.83" y2="294.83" gradientTransform="matrix(1.0859 -.0105 .0113 1.1669 -40.51 -64.257)" gradientUnits="userSpaceOnUse">
		<stop stop-color="#583C1D" offset="0"/>
		<stop stop-color="#F3E94F" offset=".5"/>
		<stop stop-color="#583C1D" offset="1"/>
	</linearGradient>
	<path d="m184.91 281.16c1.195 3.645 1.557 7.278 1.272 10.655 2.866 1.016 5.651 2.483 8.275 4.366 0.782-5.366 0.351-11.24-1.579-17.144-2.78-8.523-8.083-15.486-14.471-19.991-0.538 3.142-1.448 6.083-2.783 8.751 4.09 3.14 7.47 7.76 9.28 13.35z" fill="url(#bt)"/>
		<linearGradient id="bs" x1="146.76" x2="199.14" y1="290.77" y2="290.77" gradientTransform="matrix(1.0859 -.0105 .0113 1.1669 -40.51 -64.257)" gradientUnits="userSpaceOnUse">
		<stop stop-color="#583C1D" offset="0"/>
		<stop stop-color="#F3E94F" offset=".5"/>
		<stop stop-color="#583C1D" offset="1"/>
	</linearGradient>
	<path d="m149.57 270.91c-3.012-0.672-5.912-2.087-8.535-4.101-1.32 2.657-2.265 5.595-2.752 8.736 2.592 1.827 5.372 3.268 8.237 4.214 0.37-3.29 1.43-6.31 3.04-8.85z" fill="url(#bs)"/>
		<linearGradient id="br" x1="161.13" x2="213.51" y1="290.77" y2="290.77" gradientTransform="matrix(1.0859 -.0105 .0113 1.1669 -40.51 -64.257)" gradientUnits="userSpaceOnUse">
		<stop stop-color="#583C1D" offset="0"/>
		<stop stop-color="#F3E94F" offset=".5"/>
		<stop stop-color="#583C1D" offset="1"/>
	</linearGradient>
	<path d="m149.57 270.91c-3.012-0.672-5.912-2.087-8.535-4.101-1.32 2.657-2.265 5.595-2.752 8.736 2.592 1.827 5.372 3.268 8.237 4.214 0.37-3.29 1.43-6.31 3.04-8.85z" fill="url(#br)"/>
		<linearGradient id="bq" x1="146.61" x2="199.19" y1="280.75" y2="280.75" gradientTransform="matrix(1.0859 -.0105 .0113 1.1669 -40.51 -64.257)" gradientUnits="userSpaceOnUse">
		<stop stop-color="#583C1D" offset="0"/>
		<stop stop-color="#F3E94F" offset=".5"/>
		<stop stop-color="#583C1D" offset="1"/>
	</linearGradient>
	<path d="m167.07 263.68c3.012 0.672 5.919 2.078 8.549 4.117 1.335-2.668 2.245-5.609 2.783-8.751-2.619-1.84-5.399-3.271-8.265-4.209-0.37 3.28-1.43 6.3-3.07 8.84z" fill="url(#bq)"/>
		<linearGradient id="bp" x1="175.18" x2="227.95" y1="322.76" y2="322.76" gradientTransform="matrix(1.0859 -.0105 .0113 1.1669 -40.51 -64.257)" gradientUnits="userSpaceOnUse">
		<stop stop-color="#583C1D" offset="0"/>
		<stop stop-color="#F3E94F" offset=".5"/>
		<stop stop-color="#583C1D" offset="1"/>
	</linearGradient>
	<path d="m200.52 317.17c0.303 0.858 0.562 1.714 0.785 2.558 3.19 0.874 6.315 2.284 9.266 4.19-0.358-2.987-1.067-6.047-2.178-9.109-2.91-7.856-7.951-14.306-13.936-18.632-0.479 3.142-1.37 6.097-2.632 8.765 3.71 3.01 6.85 7.2 8.7 12.23z" fill="url(#bp)"/>
		<linearGradient id="bo" x1="175.15" x2="227.96" y1="313.23" y2="313.23" gradientTransform="matrix(1.0859 -.0105 .0113 1.1669 -40.51 -64.257)" gradientUnits="userSpaceOnUse">
		<stop stop-color="#583C1D" offset="0"/>
		<stop stop-color="#F3E94F" offset=".5"/>
		<stop stop-color="#583C1D" offset="1"/>
	</linearGradient>
	<path d="m174 300.63c3.09-0.916 6.32-0.87 9.486-0.027 1.461-2.565 2.391-5.561 2.691-8.79-5.146-1.811-10.546-2.159-15.65-0.63-6.498 1.944-11.38 6.558-14.245 12.597 2.548 2.139 5.411 3.666 8.38 4.474 2.07-3.63 5.25-6.39 9.34-7.62z" fill="url(#bo)"/>
		<linearGradient id="bm" x1="175.15" x2="227.98" y1="340.73" y2="340.73" gradientTransform="matrix(1.0859 -.0105 .0113 1.1669 -40.51 -64.257)" gradientUnits="userSpaceOnUse">
		<stop stop-color="#583C1D" offset="0"/>
		<stop stop-color="#F3E94F" offset=".5"/>
		<stop stop-color="#583C1D" offset="1"/>
	</linearGradient>
	<path d="m171.19 339.36c-3.185-2.906-5.83-6.713-7.475-11.169-1.368-3.744-1.89-7.513-1.637-11.017-2.914-1.009-5.729-2.514-8.362-4.448-0.73 5.585-0.117 11.713 2.132 17.817 3.1 8.434 8.696 15.24 15.272 19.543-0.58-3.71-0.51-7.33 0.07-10.72z" fill="url(#bm)"/>
		<linearGradient id="bl" x1="175.14" x2="227.95" y1="350.32" y2="350.32" gradientTransform="matrix(1.0859 -.0105 .0113 1.1669 -40.51 -64.257)" gradientUnits="userSpaceOnUse">
		<stop stop-color="#583C1D" offset="0"/>
		<stop stop-color="#F3E94F" offset=".5"/>
		<stop stop-color="#583C1D" offset="1"/>
	</linearGradient>
	<path d="m193.7 354.18c8.924-2.663 14.819-10.352 16.578-19.901-2.521-2.195-5.339-3.858-8.249-4.833-0.913 7.318-5.15 13.301-11.8 15.294-3.495 1.035-7.166 0.824-10.696-0.351-0.311 3.153 0.052 6.542 1.08 9.931 4.35 1.11 8.83 1.14 13.09-0.14z" fill="url(#bl)"/>
		<linearGradient id="bk" x1="161.14" x2="213.56" y1="312.65" y2="312.65" gradientTransform="matrix(1.0859 -.0105 .0113 1.1669 -40.51 -64.257)" gradientUnits="userSpaceOnUse">
		<stop stop-color="#583C1D" offset="0"/>
		<stop stop-color="#F3E94F" offset=".5"/>
		<stop stop-color="#583C1D" offset="1"/>
	</linearGradient>
	<path d="m183.49 300.6c2.914 0.792 5.755 2.284 8.334 4.341 1.263-2.668 2.154-5.623 2.632-8.765-2.625-1.883-5.409-3.35-8.275-4.366-0.3 3.23-1.23 6.23-2.69 8.79z" fill="url(#bk)"/>
		<linearGradient id="bj" x1="175.16" x2="227.95" y1="312.65" y2="312.65" gradientTransform="matrix(1.0859 -.0105 .0113 1.1669 -40.51 -64.257)" gradientUnits="userSpaceOnUse">
		<stop stop-color="#583C1D" offset="0"/>
		<stop stop-color="#F3E94F" offset=".5"/>
		<stop stop-color="#583C1D" offset="1"/>
	</linearGradient>
	<path d="m183.49 300.6c2.914 0.792 5.755 2.284 8.334 4.341 1.263-2.668 2.154-5.623 2.632-8.765-2.625-1.883-5.409-3.35-8.275-4.366-0.3 3.23-1.23 6.23-2.69 8.79z" fill="url(#bj)"/>
		<linearGradient id="bi" x1="161.12" x2="213.54" y1="322.77" y2="322.77" gradientTransform="matrix(1.0859 -.0105 .0113 1.1669 -40.51 -64.257)" gradientUnits="userSpaceOnUse">
		<stop stop-color="#583C1D" offset="0"/>
		<stop stop-color="#F3E94F" offset=".5"/>
		<stop stop-color="#583C1D" offset="1"/>
	</linearGradient>
	<path d="m164.66 308.25c-2.97-0.808-5.832-2.334-8.38-4.474-1.27 2.739-2.154 5.755-2.571 8.949 2.633 1.934 5.448 3.439 8.362 4.448 0.22-3.29 1.13-6.33 2.59-8.93z" fill="url(#bi)"/>
		<linearGradient id="bh" x1="190.83" x2="244.25" y1="375.79" y2="375.79" gradientTransform="matrix(1.0859 -.0105 .0113 1.1669 -40.51 -64.257)" gradientUnits="userSpaceOnUse">
		<stop stop-color="#583C1D" offset="0"/>
		<stop stop-color="#F3E94F" offset=".5"/>
		<stop stop-color="#583C1D" offset="1"/>
	</linearGradient>
	<path d="m213.12 381.88c8.183-2.887 13.48-10.045 15.135-18.835-2.835-1.521-5.823-2.397-8.794-2.541-1.37 5.652-4.958 10.202-10.36 12.093-2.032 0.732-4.166 0.983-6.318 0.88-0.717 2.946-0.818 6.192-0.243 9.543 3.59 0.39 7.17 0.06 10.57-1.13z" fill="url(#bh)"/>
		<linearGradient id="bg" x1="190.85" x2="244.23" y1="341.06" y2="341.06" gradientTransform="matrix(1.0859 -.0105 .0113 1.1669 -40.51 -64.257)" gradientUnits="userSpaceOnUse">
		<stop stop-color="#583C1D" offset="0"/>
		<stop stop-color="#F3E94F" offset=".5"/>
		<stop stop-color="#583C1D" offset="1"/>
	</linearGradient>
	<path d="m190.38 329.31c3.744-1.314 7.775-1.167 11.646 0.128 0.364-3.083 0.15-6.368-0.724-9.711-5.009-1.358-10.143-1.375-14.917 0.315-8.355 2.93-13.674 10.292-15.199 19.318 2.517 2.292 5.379 4.001 8.344 5.022 0.69-7.01 4.54-12.85 10.85-15.07z" fill="url(#bg)"/>
		<linearGradient id="bf" x1="190.85" x2="244.24" y1="347.42" y2="347.42" gradientTransform="matrix(1.0859 -.0105 .0113 1.1669 -40.51 -64.257)" gradientUnits="userSpaceOnUse">
		<stop stop-color="#583C1D" offset="0"/>
		<stop stop-color="#F3E94F" offset=".5"/>
		<stop stop-color="#583C1D" offset="1"/>
	</linearGradient>
	<path d="m210.27 334.27c3.091 2.692 5.735 6.192 7.529 10.321 0.907 2.128 1.537 4.261 1.9 6.365 2.994 0.323 5.984 1.14 8.875 2.434-0.4-3.779-1.353-7.662-3.041-11.508-3.343-7.706-8.741-13.921-14.97-17.966 0.41 3.61 0.31 7.09-0.3 10.36z" fill="url(#bf)"/>
		<linearGradient id="be" x1="190.85" x2="244.26" y1="369.97" y2="369.97" gradientTransform="matrix(1.0859 -.0105 .0113 1.1669 -40.51 -64.257)" gradientUnits="userSpaceOnUse">
		<stop stop-color="#583C1D" offset="0"/>
		<stop stop-color="#F3E94F" offset=".5"/>
		<stop stop-color="#583C1D" offset="1"/>
	</linearGradient>
	<path d="m194.01 370.95c-5.139-2.738-9.656-7.504-12.312-13.638-0.413-0.991-0.773-1.982-1.085-2.995-3.26-0.82-6.503-2.256-9.494-4.227 0.463 3.287 1.406 6.627 2.853 9.94 4.15 9.597 11.525 16.902 19.699 20.555-0.37-3.34-0.25-6.58 0.33-9.63z" fill="url(#be)"/>
		<linearGradient id="bd" x1="175.12" x2="227.95" y1="337.31" y2="337.31" gradientTransform="matrix(1.0859 -.0105 .0113 1.1669 -40.51 -64.257)" gradientUnits="userSpaceOnUse">
		<stop stop-color="#583C1D" offset="0"/>
		<stop stop-color="#F3E94F" offset=".5"/>
		<stop stop-color="#583C1D" offset="1"/>
	</linearGradient>
	<path d="m202.03 329.44c2.909 0.976 5.728 2.639 8.249 4.833 0.608-3.275 0.705-6.755 0.293-10.355-2.951-1.906-6.076-3.316-9.266-4.19 0.88 3.34 1.09 6.63 0.73 9.71z" fill="url(#bd)"/>
		<linearGradient id="ba" x1="175.17" x2="227.9" y1="354.06" y2="354.06" gradientTransform="matrix(1.0859 -.0105 .0113 1.1669 -40.51 -64.257)" gradientUnits="userSpaceOnUse">
		<stop stop-color="#583C1D" offset="0"/>
		<stop stop-color="#F3E94F" offset=".5"/>
		<stop stop-color="#583C1D" offset="1"/>
	</linearGradient>
	<path d="m179.53 344.38c-2.964-1.021-5.827-2.729-8.344-5.022-0.576 3.392-0.645 7.008-0.07 10.726 2.991 1.971 6.233 3.407 9.494 4.227-1.03-3.39-1.39-6.78-1.08-9.94z" fill="url(#ba)"/>
		<linearGradient id="az" x1="190.84" x2="244.18" y1="354.06" y2="354.06" gradientTransform="matrix(1.0859 -.0105 .0113 1.1669 -40.51 -64.257)" gradientUnits="userSpaceOnUse">
		<stop stop-color="#583C1D" offset="0"/>
		<stop stop-color="#F3E94F" offset=".5"/>
		<stop stop-color="#583C1D" offset="1"/>
	</linearGradient>
	<path d="m179.53 344.38c-2.964-1.021-5.827-2.729-8.344-5.022-0.576 3.392-0.645 7.008-0.07 10.726 2.991 1.971 6.233 3.407 9.494 4.227-1.03-3.39-1.39-6.78-1.08-9.94z" fill="url(#az)"/>
		<linearGradient id="ay" x1="211.5" x2="264.91" y1="371.84" y2="371.84" gradientTransform="matrix(1.0859 -.0105 .0113 1.1669 -40.51 -64.257)" gradientUnits="userSpaceOnUse">
		<stop stop-color="#583C1D" offset="0"/>
		<stop stop-color="#F3E94F" offset=".5"/>
		<stop stop-color="#583C1D" offset="1"/>
	</linearGradient>
	<path d="m228.26 363.04c5.12 2.727 9.638 7.5 12.284 13.626 0.336 0.756 0.622 1.527 0.876 2.279 2.98 0.079 6.052 0.629 9.081 1.599-0.542-2.189-1.259-4.399-2.205-6.602-4.16-9.602-11.534-16.892-19.717-20.551 0.35 3.33 0.24 6.58-0.32 9.64z" fill="url(#ay)"/>
		<linearGradient id="ax" x1="211.5" x2="264.9" y1="401.59" y2="401.59" gradientTransform="matrix(1.0859 -.0105 .0113 1.1669 -40.51 -64.257)" gradientUnits="userSpaceOnUse">
		<stop stop-color="#583C1D" offset="0"/>
		<stop stop-color="#F3E94F" offset=".5"/>
		<stop stop-color="#583C1D" offset="1"/>
	</linearGradient>
	<path d="m251.54 390.01c-2.889-1.171-5.881-1.775-8.75-1.749-0.279 7.597-4.224 14.054-10.923 16.415-1.558 0.546-3.169 0.802-4.805 0.866 0.132 3.126 0.964 6.424 2.519 9.631 2.116-0.124 4.241-0.517 6.3-1.233 9.73-3.44 15.39-12.86 15.66-23.94z" fill="url(#ax)"/>
		<linearGradient id="aw" x1="211.5" x2="264.88" y1="367.46" y2="367.46" gradientTransform="matrix(1.0859 -.0105 .0113 1.1669 -40.51 -64.257)" gradientUnits="userSpaceOnUse">
		<stop stop-color="#583C1D" offset="0"/>
		<stop stop-color="#F3E94F" offset=".5"/>
		<stop stop-color="#583C1D" offset="1"/>
	</linearGradient>
	<path d="m213.12 361.38c2.052-0.715 4.186-0.968 6.346-0.875 0.698-2.938 0.813-6.199 0.237-9.541-3.595-0.396-7.189-0.056-10.589 1.14-8.192 2.887-13.499 10.049-15.108 18.849 2.814 1.498 5.811 2.382 8.782 2.526 1.35-5.65 4.96-10.21 10.33-12.1z" fill="url(#aw)"/>
		<linearGradient id="av" x1="211.49" x2="264.92" y1="397.55" y2="397.55" gradientTransform="matrix(1.0859 -.0105 .0113 1.1669 -40.51 -64.257)" gradientUnits="userSpaceOnUse">
		<stop stop-color="#583C1D" offset="0"/>
		<stop stop-color="#F3E94F" offset=".5"/>
		<stop stop-color="#583C1D" offset="1"/>
	</linearGradient>
	<path d="m204.45 389.37c-0.916-2.112-1.539-4.263-1.9-6.356-2.989-0.324-5.997-1.146-8.877-2.434 0.402 3.779 1.377 7.667 3.033 11.528 4.771 11.001 13.755 18.953 23.365 21.875-1.298-3.498-2.009-7.006-2.159-10.381-5.58-2.61-10.6-7.63-13.45-14.23z" fill="url(#av)"/>
		<linearGradient id="au" x1="190.85" x2="244.24" y1="363.17" y2="363.17" gradientTransform="matrix(1.0859 -.0105 .0113 1.1669 -40.51 -64.257)" gradientUnits="userSpaceOnUse">
		<stop stop-color="#583C1D" offset="0"/>
		<stop stop-color="#F3E94F" offset=".5"/>
		<stop stop-color="#583C1D" offset="1"/>
	</linearGradient>
	<path d="m219.47 360.5c2.971 0.144 5.959 1.02 8.794 2.541 0.562-3.067 0.672-6.311 0.319-9.648-2.891-1.294-5.881-2.11-8.875-2.434 0.58 3.34 0.46 6.6-0.23 9.54z" fill="url(#au)"/>
		<linearGradient id="at" x1="211.5" x2="264.89" y1="363.17" y2="363.17" gradientTransform="matrix(1.0859 -.0105 .0113 1.1669 -40.51 -64.257)" gradientUnits="userSpaceOnUse">
		<stop stop-color="#583C1D" offset="0"/>
		<stop stop-color="#F3E94F" offset=".5"/>
		<stop stop-color="#583C1D" offset="1"/>
	</linearGradient>
	<path d="m219.47 360.5c2.971 0.144 5.959 1.02 8.794 2.541 0.562-3.067 0.672-6.311 0.319-9.648-2.891-1.294-5.881-2.11-8.875-2.434 0.58 3.34 0.46 6.6-0.23 9.54z" fill="url(#at)"/>
		<linearGradient id="as" x1="190.83" x2="244.26" y1="380.08" y2="380.08" gradientTransform="matrix(1.0859 -.0105 .0113 1.1669 -40.51 -64.257)" gradientUnits="userSpaceOnUse">
		<stop stop-color="#583C1D" offset="0"/>
		<stop stop-color="#F3E94F" offset=".5"/>
		<stop stop-color="#583C1D" offset="1"/>
	</linearGradient>
	<path d="m202.79 373.48c-2.971-0.144-5.968-1.028-8.782-2.526-0.58 3.05-0.693 6.291-0.338 9.635 2.88 1.288 5.888 2.11 8.877 2.434-0.58-3.34-0.48-6.59 0.24-9.53z" fill="url(#as)"/>
		<linearGradient id="ar" x1="233.76" x2="289.84" y1="418.94" y2="418.94" gradientTransform="matrix(1.0859 -.0105 .0113 1.1669 -40.51 -64.257)" gradientUnits="userSpaceOnUse">
		<stop stop-color="#583C1D" offset="0"/>
		<stop stop-color="#F3E94F" offset=".5"/>
		<stop stop-color="#583C1D" offset="1"/>
	</linearGradient>
	<path d="m276.67 405.93c-2.872 1.284-5.384 2.873-7.486 4.714 1.597 7.299-0.369 14.242-5.672 18.113 1.014 3.109 2.996 6.004 5.689 8.543 9.42-6.23 12.13-18.86 7.47-31.36z" fill="url(#ar)"/>
		<linearGradient id="ap" x1="233.74" x2="289.82" y1="393.45" y2="393.45" gradientTransform="matrix(1.0859 -.0105 .0113 1.1669 -40.51 -64.257)" gradientUnits="userSpaceOnUse">
		<stop stop-color="#583C1D" offset="0"/>
		<stop stop-color="#F3E94F" offset=".5"/>
		<stop stop-color="#583C1D" offset="1"/>
	</linearGradient>
	<path d="m234.71 390.3c2.466-1.366 5.202-2.015 8.077-2.041 0.125-2.986-0.291-6.137-1.369-9.312-4.481-0.113-8.79 0.796-12.54 2.916-7.667 4.302-11.382 12.521-10.972 21.742 2.961 1.372 6.091 2.062 9.153 1.936-0.3-6.45 2.32-12.23 7.65-15.25z" fill="url(#ap)"/>
		<linearGradient id="ao" x1="233.77" x2="289.83" y1="391.96" y2="391.96" gradientTransform="matrix(1.0859 -.0105 .0113 1.1669 -40.51 -64.257)" gradientUnits="userSpaceOnUse">
		<stop stop-color="#583C1D" offset="0"/>
		<stop stop-color="#F3E94F" offset=".5"/>
		<stop stop-color="#583C1D" offset="1"/>
	</linearGradient>
	<path d="m251.54 390.01c4.743 1.92 9.268 5.335 12.699 9.983 2.297-1.319 4.78-2.458 7.43-3.451-5.522-7.861-13.234-13.412-21.167-15.995 0.77 3.23 1.11 6.42 1.04 9.47z" fill="url(#ao)"/>
		<linearGradient id="an" x1="233.75" x2="289.82" y1="423.73" y2="423.73" gradientTransform="matrix(1.0859 -.0105 .0113 1.1669 -40.51 -64.257)" gradientUnits="userSpaceOnUse">
		<stop stop-color="#583C1D" offset="0"/>
		<stop stop-color="#F3E94F" offset=".5"/>
		<stop stop-color="#583C1D" offset="1"/>
	</linearGradient>
	<path d="m231.94 419.26c-0.934-1.333-1.717-2.708-2.36-4.088-3.167 0.19-6.362-0.227-9.513-1.186 1.148 3.123 2.733 6.239 4.823 9.221 7.849 11.344 20.218 17.938 31.354 17.871-2.781-2.961-4.889-6.215-6.196-9.658-6.67-1.19-13.49-5.5-18.1-12.15z" fill="url(#an)"/>
		<linearGradient id="am" x1="211.47" x2="264.9" y1="386.9" y2="386.9" gradientTransform="matrix(1.0859 -.0105 .0113 1.1669 -40.51 -64.257)" gradientUnits="userSpaceOnUse">
		<stop stop-color="#583C1D" offset="0"/>
		<stop stop-color="#F3E94F" offset=".5"/>
		<stop stop-color="#583C1D" offset="1"/>
	</linearGradient>
	<path d="m242.79 388.26c2.868-0.026 5.86 0.578 8.75 1.749 0.072-3.048-0.27-6.237-1.038-9.462-3.029-0.969-6.101-1.52-9.081-1.599 1.08 3.17 1.5 6.32 1.37 9.31z" fill="url(#am)"/>
		<linearGradient id="al" x1="211.43" x2="264.97" y1="408.07" y2="408.07" gradientTransform="matrix(1.0859 -.0105 .0113 1.1669 -40.51 -64.257)" gradientUnits="userSpaceOnUse">
		<stop stop-color="#583C1D" offset="0"/>
		<stop stop-color="#F3E94F" offset=".5"/>
		<stop stop-color="#583C1D" offset="1"/>
	</linearGradient>
	<path d="m229.58 415.17c-1.555-3.207-2.387-6.505-2.519-9.631-3.062 0.126-6.192-0.563-9.153-1.936 0.15 3.375 0.86 6.883 2.159 10.381 3.15 0.97 6.34 1.38 9.51 1.19z" fill="url(#al)"/>
		<linearGradient id="ak" x1="233.74" x2="289.96" y1="408.07" y2="408.07" gradientTransform="matrix(1.0859 -.0105 .0113 1.1669 -40.51 -64.257)" gradientUnits="userSpaceOnUse">
		<stop stop-color="#583C1D" offset="0"/>
		<stop stop-color="#F3E94F" offset=".5"/>
		<stop stop-color="#583C1D" offset="1"/>
	</linearGradient>
	<path d="m229.58 415.17c-1.555-3.207-2.387-6.505-2.519-9.631-3.062 0.126-6.192-0.563-9.153-1.936 0.15 3.375 0.86 6.883 2.159 10.381 3.15 0.97 6.34 1.38 9.51 1.19z" fill="url(#ak)"/>
		<linearGradient id="aj" x1="321.73" x2="379.53" y1="394.08" y2="394.08" gradientTransform="matrix(1.0859 -.0105 .0113 1.1669 -40.51 -64.257)" gradientUnits="userSpaceOnUse">
		<stop stop-color="#583C1D" offset="0"/>
		<stop stop-color="#F3E94F" offset=".5"/>
		<stop stop-color="#583C1D" offset="1"/>
	</linearGradient>
	<path d="m367.02 385.06c-4.113-2.776-9.092-3.987-14.324-3.851-0.85 3.185-0.986 6.32-0.395 9.177 2.92 0.213 5.705 1.074 8.066 2.645 3.262 2.193 5.262 5.444 6.045 9.204 3.098 0.225 6.398-0.249 9.631-1.413-0.64-6.47-3.64-12.14-9.03-15.77z" fill="url(#aj)"/>
		<linearGradient id="ai" x1="321.73" x2="379.53" y1="420.59" y2="420.59" gradientTransform="matrix(1.0859 -.0105 .0113 1.1669 -40.51 -64.257)" gradientUnits="userSpaceOnUse">
		<stop stop-color="#583C1D" offset="0"/>
		<stop stop-color="#F3E94F" offset=".5"/>
		<stop stop-color="#583C1D" offset="1"/>
	</linearGradient>
	<path d="m323.33 413.46c-1.967-2.118-4.424-4.044-7.286-5.646-4.811 11.967-2.611 24.198 6.688 30.458 0.039 0.02 0.084 0.031 0.115 0.07 2.723-2.58 4.635-5.586 5.438-8.904-4.5-3.69-6.15-9.64-4.95-15.98z" fill="url(#ai)"/>
		<linearGradient id="ah" x1="321.73" x2="379.51" y1="394.73" y2="394.73" gradientTransform="matrix(1.0859 -.0105 .0113 1.1669 -40.51 -64.257)" gradientUnits="userSpaceOnUse">
		<stop stop-color="#583C1D" offset="0"/>
		<stop stop-color="#F3E94F" offset=".5"/>
		<stop stop-color="#583C1D" offset="1"/>
	</linearGradient>
	<path d="m329.35 401.24c3.73-4.471 8.451-7.687 13.297-9.433-0.273-2.888-0.051-5.911 0.609-9-7.465 2.339-14.826 7.106-20.535 13.957-0.531 0.645-1.021 1.308-1.498 1.966 2.506 1.179 4.869 2.497 7.029 3.967 0.35-0.5 0.72-1 1.1-1.47z" fill="url(#ah)"/>
		<linearGradient id="ag" x1="321.71" x2="379.54" y1="423.38" y2="423.38" gradientTransform="matrix(1.0859 -.0105 .0113 1.1669 -40.51 -64.257)" gradientUnits="userSpaceOnUse">
		<stop stop-color="#583C1D" offset="0"/>
		<stop stop-color="#F3E94F" offset=".5"/>
		<stop stop-color="#583C1D" offset="1"/>
	</linearGradient>
	<path d="m360.35 422.08c-5.033 6.063-11.92 9.807-18.479 10.703-1.041 3.371-2.895 6.523-5.404 9.354 10.516-0.053 22.254-5.641 30.539-15.586 4.408-5.299 7.193-11.093 8.443-16.732-3.18 0.981-6.365 1.523-9.447 1.595-0.96 3.64-2.83 7.3-5.65 10.68z" fill="url(#ag)"/>
		<linearGradient id="ae" x1="348.71" x2="406.47" y1="394.38" y2="394.38" gradientTransform="matrix(1.0859 -.0105 .0113 1.1669 -40.51 -64.257)" gradientUnits="userSpaceOnUse">
		<stop stop-color="#583C1D" offset="0"/>
		<stop stop-color="#F3E94F" offset=".5"/>
		<stop stop-color="#583C1D" offset="1"/>
	</linearGradient>
	<path d="m389.34 391.39c-3.721 4.466-8.443 7.692-13.297 9.435 0.277 2.868 0.074 5.909-0.586 8.998 7.447-2.325 14.82-7.096 20.527-13.962 5.811-6.987 8.828-14.845 9.098-22.061-3.078 1.612-6.27 2.753-9.443 3.435-0.49 4.68-2.59 9.68-6.3 14.15z" fill="url(#ae)"/>
		<linearGradient id="ad" x1="348.67" x2="406.47" y1="366.65" y2="366.65" gradientTransform="matrix(1.0859 -.0105 .0113 1.1669 -40.51 -64.257)" gradientUnits="userSpaceOnUse">
		<stop stop-color="#583C1D" offset="0"/>
		<stop stop-color="#F3E94F" offset=".5"/>
		<stop stop-color="#583C1D" offset="1"/>
	</linearGradient>
	<path d="m395.97 354.35c-5.645-3.781-12.877-4.69-20.223-3.163-0.219 3.094 0.262 6.048 1.408 8.597 4.451-0.532 8.746 0.245 12.184 2.553 2.309 1.563 3.977 3.678 5.041 6.109 3.223-0.434 6.486-1.611 9.563-3.426-1.4-4.31-4.05-8.03-7.97-10.67z" fill="url(#ad)"/>
		<linearGradient id="ac" x1="348.66" x2="406.46" y1="374.21" y2="374.21" gradientTransform="matrix(1.0859 -.0105 .0113 1.1669 -40.51 -64.257)" gradientUnits="userSpaceOnUse">
		<stop stop-color="#583C1D" offset="0"/>
		<stop stop-color="#F3E94F" offset=".5"/>
		<stop stop-color="#583C1D" offset="1"/>
	</linearGradient>
	<path d="m358.33 370.54c2.689-3.247 5.928-5.823 9.332-7.667-0.842-2.629-1.223-5.479-1.186-8.454-5.416 2.642-10.547 6.571-14.771 11.648-4.41 5.298-7.213 11.102-8.445 16.74 3.172-0.987 6.348-1.539 9.432-1.593 0.95-3.63 2.83-7.31 5.64-10.68z" fill="url(#ac)"/>
		<linearGradient id="aa" x1="348.66" x2="406.48" y1="401.88" y2="401.88" gradientTransform="matrix(1.0859 -.0105 .0113 1.1669 -40.51 -64.257)" gradientUnits="userSpaceOnUse">
		<stop stop-color="#583C1D" offset="0"/>
		<stop stop-color="#F3E94F" offset=".5"/>
		<stop stop-color="#583C1D" offset="1"/>
	</linearGradient>
	<path d="m352.3 390.39c-3.098-0.221-6.408 0.254-9.646 1.417 0.643 6.46 3.627 12.126 9.059 15.767 4.1 2.751 9.061 3.968 14.297 3.845 0.838-3.194 0.994-6.319 0.402-9.18-2.953-0.205-5.719-1.063-8.074-2.653-3.27-2.2-5.28-5.46-6.04-9.2z" fill="url(#aa)"/>
		<linearGradient id="z" x1="321.7" x2="379.53" y1="406.48" y2="406.48" gradientTransform="matrix(1.0859 -.0105 .0113 1.1669 -40.51 -64.257)" gradientUnits="userSpaceOnUse">
		<stop stop-color="#583C1D" offset="0"/>
		<stop stop-color="#F3E94F" offset=".5"/>
		<stop stop-color="#583C1D" offset="1"/>
	</linearGradient>
	<path d="m376.04 400.82c-3.232 1.164-6.533 1.638-9.631 1.413 0.592 2.86 0.436 5.985-0.402 9.18 3.082-0.071 6.268-0.613 9.447-1.595 0.65-3.09 0.86-6.13 0.58-9z" fill="url(#z)"/>
		<linearGradient id="y" x1="348.66" x2="406.48" y1="406.48" y2="406.48" gradientTransform="matrix(1.0859 -.0105 .0113 1.1669 -40.51 -64.257)" gradientUnits="userSpaceOnUse">
		<stop stop-color="#583C1D" offset="0"/>
		<stop stop-color="#F3E94F" offset=".5"/>
		<stop stop-color="#583C1D" offset="1"/>
	</linearGradient>
	<path d="m366 411.42c3.082-0.071 6.268-0.613 9.447-1.595 0.66-3.089 0.863-6.13 0.586-8.998" fill="url(#y)"/>
		<linearGradient id="x" x1="321.71" x2="379.53" y1="389.48" y2="389.48" gradientTransform="matrix(1.0859 -.0105 .0113 1.1669 -40.51 -64.257)" gradientUnits="userSpaceOnUse">
		<stop stop-color="#583C1D" offset="0"/>
		<stop stop-color="#F3E94F" offset=".5"/>
		<stop stop-color="#583C1D" offset="1"/>
	</linearGradient>
	<path d="m342.65 391.8c3.238-1.163 6.549-1.638 9.646-1.417-0.592-2.856-0.455-5.992 0.395-9.177-3.084 0.055-6.26 0.606-9.432 1.593-0.67 3.1-0.89 6.13-0.62 9.01z" fill="url(#x)"/>
		<linearGradient id="w" x1="348.66" x2="406.49" y1="389.48" y2="389.48" gradientTransform="matrix(1.0859 -.0105 .0113 1.1669 -40.51 -64.257)" gradientUnits="userSpaceOnUse">
		<stop stop-color="#583C1D" offset="0"/>
		<stop stop-color="#F3E94F" offset=".5"/>
		<stop stop-color="#583C1D" offset="1"/>
	</linearGradient>
	<path d="m342.65 391.8c3.238-1.163 6.549-1.638 9.646-1.417-0.592-2.856-0.455-5.992 0.395-9.177-3.084 0.055-6.26 0.606-9.432 1.593-0.67 3.1-0.89 6.13-0.62 9.01z" fill="url(#w)"/>
		<linearGradient id="v" x1="371.02" x2="427.64" y1="336.35" y2="336.35" gradientTransform="matrix(1.0859 -.0105 .0113 1.1669 -40.51 -64.257)" gradientUnits="userSpaceOnUse">
		<stop stop-color="#583C1D" offset="0"/>
		<stop stop-color="#F3E94F" offset=".5"/>
		<stop stop-color="#583C1D" offset="1"/>
	</linearGradient>
	<path d="m417.1 318.97c-6.498-3.747-14.643-3.929-22.527-1.215 0.338 3.024 1.32 5.791 2.871 8.125 4.863-1.193 9.697-0.8 13.65 1.479 2.006 1.166 3.582 2.709 4.801 4.53 3.156-0.88 6.268-2.491 9.07-4.749-1.78-3.33-4.38-6.17-7.86-8.17z" fill="url(#v)"/>
		<linearGradient id="u" x1="371.03" x2="427.66" y1="348.33" y2="348.33" gradientTransform="matrix(1.0859 -.0105 .0113 1.1669 -40.51 -64.257)" gradientUnits="userSpaceOnUse">
		<stop stop-color="#583C1D" offset="0"/>
		<stop stop-color="#F3E94F" offset=".5"/>
		<stop stop-color="#583C1D" offset="1"/>
	</linearGradient>
	<path d="m380.84 337.54c2.158-3.014 4.76-5.515 7.586-7.477-1.227-2.451-2.08-5.183-2.52-8.062-4.504 2.904-8.678 6.784-12.045 11.512-4.826 6.776-7.25 14.134-7.383 20.905 3.053-1.497 6.17-2.583 9.273-3.227 0.27-4.46 1.93-9.24 5.09-13.65z" fill="url(#u)"/>
		<linearGradient id="s" x1="371.02" x2="427.64" y1="362.77" y2="362.77" gradientTransform="matrix(1.0859 -.0105 .0113 1.1669 -40.51 -64.257)" gradientUnits="userSpaceOnUse">
		<stop stop-color="#583C1D" offset="0"/>
		<stop stop-color="#F3E94F" offset=".5"/>
		<stop stop-color="#583C1D" offset="1"/>
	</linearGradient>
	<path d="m413.42 356.34c-2.617 3.676-5.904 6.589-9.48 8.687 0.896 2.724 1.271 5.691 1.133 8.777 5.775-3.02 11.154-7.587 15.324-13.438 5.809-8.116 8.107-17.067 7.154-24.819-2.857 2.054-5.889 3.697-9.002 4.823 0.26 5.07-1.4 10.78-5.12 15.97z" fill="url(#s)"/>
		<linearGradient id="r" x1="371.02" x2="427.64" y1="374.66" y2="374.66" gradientTransform="matrix(1.0859 -.0105 .0113 1.1669 -40.51 -64.257)" gradientUnits="userSpaceOnUse">
		<stop stop-color="#583C1D" offset="0"/>
		<stop stop-color="#F3E94F" offset=".5"/>
		<stop stop-color="#583C1D" offset="1"/>
	</linearGradient>
	<path d="m383.18 366.52c-2.775-1.601-4.791-3.936-6.023-6.728-3.164 0.4-6.404 1.434-9.496 3.083 1.609 5.048 4.771 9.297 9.529 12.013 5.365 3.109 11.883 3.754 18.443 2.351 0.326-3.155-0.111-6.158-1.252-8.786-4 0.56-7.9-0.04-11.2-1.92z" fill="url(#r)"/>
		<linearGradient id="q" x1="348.64" x2="406.47" y1="376.73" y2="376.73" gradientTransform="matrix(1.0859 -.0105 .0113 1.1669 -40.51 -64.257)" gradientUnits="userSpaceOnUse">
		<stop stop-color="#583C1D" offset="0"/>
		<stop stop-color="#F3E94F" offset=".5"/>
		<stop stop-color="#583C1D" offset="1"/>
	</linearGradient>
	<path d="m403.94 365.02c-3.076 1.815-6.34 2.992-9.563 3.426 1.141 2.628 1.578 5.631 1.252 8.786 3.174-0.682 6.365-1.823 9.443-3.435 0.15-3.09-0.23-6.05-1.13-8.78z" fill="url(#q)"/>
		<linearGradient id="p" x1="371.01" x2="427.65" y1="376.73" y2="376.73" gradientTransform="matrix(1.0859 -.0105 .0113 1.1669 -40.51 -64.257)" gradientUnits="userSpaceOnUse">
		<stop stop-color="#583C1D" offset="0"/>
		<stop stop-color="#F3E94F" offset=".5"/>
		<stop stop-color="#583C1D" offset="1"/>
	</linearGradient>
	<path d="m403.94 365.02c-3.076 1.815-6.34 2.992-9.563 3.426 1.141 2.628 1.578 5.631 1.252 8.786 3.174-0.682 6.365-1.823 9.443-3.435 0.15-3.09-0.23-6.05-1.13-8.78z" fill="url(#p)"/>
		<linearGradient id="o" x1="348.65" x2="406.49" y1="364.42" y2="364.42" gradientTransform="matrix(1.0859 -.0105 .0113 1.1669 -40.51 -64.257)" gradientUnits="userSpaceOnUse">
		<stop stop-color="#583C1D" offset="0"/>
		<stop stop-color="#F3E94F" offset=".5"/>
		<stop stop-color="#583C1D" offset="1"/>
	</linearGradient>
	<path d="m377.16 359.79c-1.146-2.549-1.627-5.503-1.408-8.597-3.104 0.645-6.221 1.73-9.273 3.227-0.037 2.974 0.344 5.824 1.186 8.454 3.08-1.65 6.32-2.68 9.49-3.08z" fill="url(#o)"/>
		<linearGradient id="n" x1="388.92" x2="443.63" y1="344.98" y2="344.98" gradientTransform="matrix(1.0859 -.0105 .0113 1.1669 -40.51 -64.257)" gradientUnits="userSpaceOnUse">
		<stop stop-color="#583C1D" offset="0"/>
		<stop stop-color="#F3E94F" offset=".5"/>
		<stop stop-color="#583C1D" offset="1"/>
	</linearGradient>
	<path d="m403.96 331.33c-2.717-1.196-4.904-3.089-6.514-5.451-3.059 0.754-6.174 2.198-9.023 4.183 2.293 4.521 5.898 8.163 10.748 10.245 5.967 2.594 12.832 2.419 19.383 0.059-0.162-3.153-1.053-6.063-2.656-8.478-4.08 1.13-8.23 1.05-11.94-0.55z" fill="url(#n)"/>
		<linearGradient id="m" x1="388.91" x2="443.63" y1="330.98" y2="330.98" gradientTransform="matrix(1.0859 -.0105 .0113 1.1669 -40.51 -64.257)" gradientUnits="userSpaceOnUse">
		<stop stop-color="#583C1D" offset="0"/>
		<stop stop-color="#F3E94F" offset=".5"/>
		<stop stop-color="#583C1D" offset="1"/>
	</linearGradient>
	<path d="m432.63 317.9c-1.965 3.697-4.633 6.828-7.66 9.239 1.352 2.537 2.234 5.364 2.588 8.403 4.973-3.594 9.387-8.48 12.547-14.415 3.967-7.387 5.352-15.097 4.436-21.908-2.732 2.062-5.662 3.673-8.668 4.821 0.24 4.41-0.75 9.22-3.25 13.87z" fill="url(#m)"/>
		<linearGradient id="l" x1="388.92" x2="443.6" y1="318.76" y2="318.76" gradientTransform="matrix(1.0859 -.0105 .0113 1.1669 -40.51 -64.257)" gradientUnits="userSpaceOnUse">
		<stop stop-color="#583C1D" offset="0"/>
		<stop stop-color="#F3E94F" offset=".5"/>
		<stop stop-color="#583C1D" offset="1"/>
	</linearGradient>
	<path d="m397.74 302.83c2.006-3.79 4.779-6.971 7.871-9.41-1.273-2.549-2.158-5.364-2.613-8.364-5.057 3.588-9.523 8.534-12.742 14.545-4.057 7.56-5.375 15.47-4.348 22.398 2.799-1.802 5.719-3.236 8.672-4.246-0.52-4.66 0.47-9.89 3.16-14.92z" fill="url(#l)"/>
		<linearGradient id="k" x1="388.93" x2="443.62" y1="304.86" y2="304.86" gradientTransform="matrix(1.0859 -.0105 .0113 1.1669 -40.51 -64.257)" gradientUnits="userSpaceOnUse">
		<stop stop-color="#583C1D" offset="0"/>
		<stop stop-color="#F3E94F" offset=".5"/>
		<stop stop-color="#583C1D" offset="1"/>
	</linearGradient>
	<path d="m431.2 280.42c-6.104-2.628-13.107-2.396-19.764 0.081 0.305 3.125 1.295 5.996 2.822 8.421 4.109-1.202 8.375-1.138 12.115 0.472 3.006 1.295 5.277 3.395 6.902 6.015 3.047-0.926 5.971-2.57 8.617-4.806-2.28-4.47-5.87-8.07-10.7-10.17z" fill="url(#k)"/>
		<linearGradient id="j" x1="371.06" x2="427.58" y1="336.2" y2="336.2" gradientTransform="matrix(1.0859 -.0105 .0113 1.1669 -40.51 -64.257)" gradientUnits="userSpaceOnUse">
		<stop stop-color="#583C1D" offset="0"/>
		<stop stop-color="#F3E94F" offset=".5"/>
		<stop stop-color="#583C1D" offset="1"/>
	</linearGradient>
	<path d="m397.45 325.88c-1.551-2.333-2.533-5.1-2.871-8.125-2.953 1.009-5.873 2.443-8.672 4.246 0.439 2.879 1.293 5.61 2.52 8.062 2.84-1.99 5.96-3.44 9.02-4.19z" fill="url(#j)"/>
		<linearGradient id="h" x1="388.92" x2="443.54" y1="336.2" y2="336.2" gradientTransform="matrix(1.0859 -.0105 .0113 1.1669 -40.51 -64.257)" gradientUnits="userSpaceOnUse">
		<stop stop-color="#583C1D" offset="0"/>
		<stop stop-color="#F3E94F" offset=".5"/>
		<stop stop-color="#583C1D" offset="1"/>
	</linearGradient>
	<path d="m397.45 325.88c-1.551-2.333-2.533-5.1-2.871-8.125-2.953 1.009-5.873 2.443-8.672 4.246 0.439 2.879 1.293 5.61 2.52 8.062 2.84-1.99 5.96-3.44 9.02-4.19z" fill="url(#h)"/>
		<linearGradient id="g" x1="371.05" x2="427.64" y1="344.89" y2="344.89" gradientTransform="matrix(1.0859 -.0105 .0113 1.1669 -40.51 -64.257)" gradientUnits="userSpaceOnUse">
		<stop stop-color="#583C1D" offset="0"/>
		<stop stop-color="#F3E94F" offset=".5"/>
		<stop stop-color="#583C1D" offset="1"/>
	</linearGradient>
	<path d="m415.9 331.89c1.604 2.415 2.494 5.325 2.656 8.478 3.113-1.126 6.145-2.77 9.002-4.823-0.354-3.04-1.236-5.866-2.588-8.403-2.81 2.25-5.92 3.86-9.07 4.74z" fill="url(#g)"/>
		<linearGradient id="f" x1="404.92" x2="458.7" y1="299" y2="299" gradientTransform="matrix(1.0859 -.0105 .0113 1.1669 -40.51 -64.257)" gradientUnits="userSpaceOnUse">
		<stop stop-color="#583C1D" offset="0"/>
		<stop stop-color="#F3E94F" offset=".5"/>
		<stop stop-color="#583C1D" offset="1"/>
	</linearGradient>
	<path d="m449.71 280.19c-1.869 4.19-4.619 7.728-7.816 10.417 1.357 2.608 2.229 5.513 2.643 8.614 5.307-3.981 9.885-9.533 12.854-16.27 3.434-7.697 4.189-15.563 2.699-22.352-2.607 2.089-5.412 3.769-8.299 5.005 0.74 4.51 0.12 9.6-2.07 14.59z" fill="url(#f)"/>
		<linearGradient id="e" x1="404.94" x2="458.69" y1="272.83" y2="272.83" gradientTransform="matrix(1.0859 -.0105 .0113 1.1669 -40.51 -64.257)" gradientUnits="userSpaceOnUse">
		<stop stop-color="#583C1D" offset="0"/>
		<stop stop-color="#F3E94F" offset=".5"/>
		<stop stop-color="#583C1D" offset="1"/>
	</linearGradient>
	<path d="m445.42 242.89c-6.139-2.195-12.875-1.624-19.203 1.086 0.523 3.111 1.682 5.94 3.422 8.247 3.902-1.303 7.959-1.402 11.652-0.074 2.922 1.035 5.287 2.868 7.057 5.205 3.02-0.983 5.926-2.704 8.506-4.974-2.64-4.35-6.51-7.72-11.44-9.5z" fill="url(#e)"/>
		<linearGradient id="d" x1="404.93" x2="458.72" y1="313.75" y2="313.75" gradientTransform="matrix(1.0859 -.0105 .0113 1.1669 -40.51 -64.257)" gradientUnits="userSpaceOnUse">
		<stop stop-color="#583C1D" offset="0"/>
		<stop stop-color="#F3E94F" offset=".5"/>
		<stop stop-color="#583C1D" offset="1"/>
	</linearGradient>
	<path d="m422.1 295.35c-3.381-1.217-6.016-3.5-7.838-6.426-3.02 0.861-5.975 2.414-8.654 4.496 2.615 5.16 6.813 9.179 12.404 11.181 5.686 2.041 11.928 1.665 17.859-0.561-0.203-3.192-1.08-6.157-2.592-8.629-3.75 1.13-7.61 1.21-11.18-0.06z" fill="url(#d)"/>
		<linearGradient id="c" x1="404.94" x2="458.71" y1="287.62" y2="287.62" gradientTransform="matrix(1.0859 -.0105 .0113 1.1669 -40.51 -64.257)" gradientUnits="userSpaceOnUse">
		<stop stop-color="#583C1D" offset="0"/>
		<stop stop-color="#F3E94F" offset=".5"/>
		<stop stop-color="#583C1D" offset="1"/>
	</linearGradient>
	<path d="m413.73 267.31c1.787-4.021 4.377-7.457 7.422-10.098-1.48-2.458-2.584-5.216-3.24-8.204-4.898 3.907-9.09 9.225-11.877 15.551-3.135 6.997-4.018 14.146-3.037 20.501 2.676-1.907 5.521-3.443 8.445-4.553-0.42-4.15 0.29-8.72 2.29-13.2z" fill="url(#c)"/>
		<linearGradient id="b" x1="388.94" x2="443.63" y1="313.81" y2="313.81" gradientTransform="matrix(1.0859 -.0105 .0113 1.1669 -40.51 -64.257)" gradientUnits="userSpaceOnUse">
		<stop stop-color="#583C1D" offset="0"/>
		<stop stop-color="#F3E94F" offset=".5"/>
		<stop stop-color="#583C1D" offset="1"/>
	</linearGradient>
	<path d="m433.28 295.41c1.512 2.472 2.389 5.437 2.592 8.629 3.006-1.148 5.936-2.759 8.668-4.821-0.414-3.101-1.285-6.006-2.643-8.614-2.65 2.23-5.58 3.87-8.62 4.8z" fill="url(#b)"/>
		<linearGradient id="dt" x1="404.96" x2="458.69" y1="313.81" y2="313.81" gradientTransform="matrix(1.0859 -.0105 .0113 1.1669 -40.51 -64.257)" gradientUnits="userSpaceOnUse">
		<stop stop-color="#583C1D" offset="0"/>
		<stop stop-color="#F3E94F" offset=".5"/>
		<stop stop-color="#583C1D" offset="1"/>
	</linearGradient>
	<path d="m433.28 295.41c1.512 2.472 2.389 5.437 2.592 8.629 3.006-1.148 5.936-2.759 8.668-4.821-0.414-3.101-1.285-6.006-2.643-8.614-2.65 2.23-5.58 3.87-8.62 4.8z" fill="url(#dt)"/>
		<linearGradient id="ds" x1="388.9" x2="443.69" y1="304.68" y2="304.68" gradientTransform="matrix(1.0859 -.0105 .0113 1.1669 -40.51 -64.257)" gradientUnits="userSpaceOnUse">
		<stop stop-color="#583C1D" offset="0"/>
		<stop stop-color="#F3E94F" offset=".5"/>
		<stop stop-color="#583C1D" offset="1"/>
	</linearGradient>
	<path d="m414.26 288.92c-1.527-2.425-2.518-5.296-2.822-8.421-2.924 1.11-5.77 2.646-8.445 4.553 0.455 3 1.34 5.815 2.613 8.364 2.68-2.07 5.63-3.63 8.65-4.49z" fill="url(#ds)"/>
		<linearGradient id="dr" x1="418.71" x2="472.49" y1="256.33" y2="256.33" gradientTransform="matrix(1.0859 -.0105 .0113 1.1669 -40.51 -64.257)" gradientUnits="userSpaceOnUse">
		<stop stop-color="#583C1D" offset="0"/>
		<stop stop-color="#F3E94F" offset=".5"/>
		<stop stop-color="#583C1D" offset="1"/>
	</linearGradient>
	<path d="m428.32 229.41c1.619-3.665 3.896-6.845 6.605-9.387-1.469-2.477-2.566-5.271-3.189-8.271-4.559 3.856-8.48 8.908-11.133 14.883-3.426 7.696-4.174 15.569-2.697 22.37 2.598-2.088 5.418-3.787 8.314-5.024-0.72-4.5-0.12-9.59 2.11-14.57z" fill="url(#dr)"/>
		<linearGradient id="dp" x1="418.73" x2="472.47" y1="240.67" y2="240.67" gradientTransform="matrix(1.0859 -.0105 .0113 1.1669 -40.51 -64.257)" gradientUnits="userSpaceOnUse">
		<stop stop-color="#583C1D" offset="0"/>
		<stop stop-color="#F3E94F" offset=".5"/>
		<stop stop-color="#583C1D" offset="1"/>
	</linearGradient>
	<path d="m459.99 204.98c-6.375-2.273-13.436-1.561-19.957 1.456 0.426 3.101 1.473 5.936 3.123 8.292 4.223-1.639 8.68-1.935 12.74-0.485 3.084 1.108 5.592 3.113 7.404 5.689 2.953-1.158 5.752-2.942 8.244-5.294-2.61-4.42-6.49-7.86-11.54-9.66z" fill="url(#dp)"/>
		<linearGradient id="do" x1="418.7" x2="472.47" y1="266.43" y2="266.43" gradientTransform="matrix(1.0859 -.0105 .0113 1.1669 -40.51 -64.257)" gradientUnits="userSpaceOnUse">
		<stop stop-color="#583C1D" offset="0"/>
		<stop stop-color="#F3E94F" offset=".5"/>
		<stop stop-color="#583C1D" offset="1"/>
	</linearGradient>
	<path d="m464.28 242.28c-1.795 4.04-4.389 7.448-7.424 10.106 1.49 2.457 2.594 5.214 3.232 8.214 4.893-3.931 9.072-9.231 11.904-15.555 3.387-7.612 4.143-15.398 2.75-22.142-2.584 2.191-5.393 3.977-8.299 5.322 0.61 4.38-0.03 9.27-2.16 14.06z" fill="url(#do)"/>
		<linearGradient id="dn" x1="418.72" x2="472.48" y1="281.92" y2="281.92" gradientTransform="matrix(1.0859 -.0105 .0113 1.1669 -40.51 -64.257)" gradientUnits="userSpaceOnUse">
		<stop stop-color="#583C1D" offset="0"/>
		<stop stop-color="#F3E94F" offset=".5"/>
		<stop stop-color="#583C1D" offset="1"/>
	</linearGradient>
	<path d="m436.72 257.44c-2.924-1.043-5.289-2.876-7.076-5.213-3.002 0.991-5.908 2.703-8.496 4.981 2.625 4.334 6.467 7.706 11.443 9.48 6.135 2.196 12.875 1.633 19.201-1.085-0.514-3.097-1.68-5.915-3.439-8.246-3.89 1.3-7.93 1.42-11.62 0.09z" fill="url(#dn)"/>
		<linearGradient id="dm" x1="404.95" x2="458.67" y1="273.65" y2="273.65" gradientTransform="matrix(1.0859 -.0105 .0113 1.1669 -40.51 -64.257)" gradientUnits="userSpaceOnUse">
		<stop stop-color="#583C1D" offset="0"/>
		<stop stop-color="#F3E94F" offset=".5"/>
		<stop stop-color="#583C1D" offset="1"/>
	</linearGradient>
	<path d="m429.64 252.23c-1.74-2.306-2.898-5.135-3.422-8.247-2.896 1.237-5.717 2.936-8.314 5.024 0.656 2.988 1.76 5.746 3.24 8.204 2.59-2.27 5.49-3.98 8.49-4.97z" fill="url(#dm)"/>
		<linearGradient id="dl" x1="418.71" x2="472.42" y1="273.65" y2="273.65" gradientTransform="matrix(1.0859 -.0105 .0113 1.1669 -40.51 -64.257)" gradientUnits="userSpaceOnUse">
		<stop stop-color="#583C1D" offset="0"/>
		<stop stop-color="#F3E94F" offset=".5"/>
		<stop stop-color="#583C1D" offset="1"/>
	</linearGradient>
	<path d="m429.64 252.23c-1.74-2.306-2.898-5.135-3.422-8.247-2.896 1.237-5.717 2.936-8.314 5.024 0.656 2.988 1.76 5.746 3.24 8.204 2.59-2.27 5.49-3.98 8.49-4.97z" fill="url(#dl)"/>
		<linearGradient id="dk" x1="404.97" x2="458.69" y1="281.1" y2="281.1" gradientTransform="matrix(1.0859 -.0105 .0113 1.1669 -40.51 -64.257)" gradientUnits="userSpaceOnUse">
		<stop stop-color="#583C1D" offset="0"/>
		<stop stop-color="#F3E94F" offset=".5"/>
		<stop stop-color="#583C1D" offset="1"/>
	</linearGradient>
	<path d="m448.35 257.36c1.76 2.331 2.926 5.149 3.439 8.246 2.887-1.237 5.691-2.917 8.299-5.005-0.639-3-1.742-5.757-3.232-8.214-2.58 2.26-5.49 3.98-8.51 4.97z" fill="url(#dk)"/>
		<linearGradient id="dj" x1="431.83" x2="485.57" y1="225.32" y2="225.32" gradientTransform="matrix(1.0859 -.0105 .0113 1.1669 -40.51 -64.257)" gradientUnits="userSpaceOnUse">
		<stop stop-color="#583C1D" offset="0"/>
		<stop stop-color="#F3E94F" offset=".5"/>
		<stop stop-color="#583C1D" offset="1"/>
	</linearGradient>
	<path d="m442.18 192.37c1.117-2.473 2.521-4.712 4.137-6.694-1.332-2.832-2.217-5.952-2.57-9.29-3.775 3.604-6.979 8.074-9.279 13.228-3.377 7.601-4.158 15.408-2.73 22.138 2.59-2.184 5.373-3.982 8.299-5.313-0.63-4.4 0.02-9.29 2.14-14.08z" fill="url(#dj)"/>
		<linearGradient id="di" x1="431.8" x2="485.59" y1="210.46" y2="210.46" gradientTransform="matrix(1.0859 -.0105 .0113 1.1669 -40.51 -64.257)" gradientUnits="userSpaceOnUse">
		<stop stop-color="#583C1D" offset="0"/>
		<stop stop-color="#F3E94F" offset=".5"/>
		<stop stop-color="#583C1D" offset="1"/>
	</linearGradient>
	<path d="m473.88 167.96c-6.902-2.462-14.588-1.432-21.563 2.211-0.094 3.253 0.418 6.349 1.566 9.04 5.08-2.917 10.791-3.814 15.885-1.996 4.311 1.546 7.443 4.791 9.193 8.937 2.795-1.583 5.369-3.789 7.576-6.469-2.61-5.43-6.89-9.64-12.67-11.72z" fill="url(#di)"/>
		<linearGradient id="dh" x1="431.81" x2="485.58" y1="235.86" y2="235.86" gradientTransform="matrix(1.0859 -.0105 .0113 1.1669 -40.51 -64.257)" gradientUnits="userSpaceOnUse">
		<stop stop-color="#583C1D" offset="0"/>
		<stop stop-color="#F3E94F" offset=".5"/>
		<stop stop-color="#583C1D" offset="1"/>
	</linearGradient>
	<path d="m480.52 195.18c-0.117 3.272-0.863 6.688-2.359 10.062-1.627 3.675-3.922 6.839-6.613 9.396 1.475 2.468 2.564 5.253 3.197 8.262 4.543-3.855 8.443-8.903 11.125-14.883 2.869-6.486 3.863-13.065 3.244-19.042-2.66 2.52-5.55 4.61-8.6 6.2z" fill="url(#dh)"/>
		<linearGradient id="dg" x1="431.83" x2="485.57" y1="250.1" y2="250.1" gradientTransform="matrix(1.0859 -.0105 .0113 1.1669 -40.51 -64.257)" gradientUnits="userSpaceOnUse">
		<stop stop-color="#583C1D" offset="0"/>
		<stop stop-color="#F3E94F" offset=".5"/>
		<stop stop-color="#583C1D" offset="1"/>
	</linearGradient>
	<path d="m450.57 220.41c-3.104-1.114-5.607-3.101-7.414-5.679-2.936 1.138-5.744 2.932-8.232 5.292 2.627 4.406 6.521 7.839 11.527 9.646 6.395 2.28 13.461 1.564 19.992-1.444-0.43-3.101-1.49-5.943-3.143-8.29-4.21 1.62-8.68 1.92-12.74 0.47z" fill="url(#dg)"/>
		<linearGradient id="de" x1="418.67" x2="472.48" y1="249.03" y2="249.03" gradientTransform="matrix(1.0859 -.0105 .0113 1.1669 -40.51 -64.257)" gradientUnits="userSpaceOnUse">
		<stop stop-color="#583C1D" offset="0"/>
		<stop stop-color="#F3E94F" offset=".5"/>
		<stop stop-color="#583C1D" offset="1"/>
	</linearGradient>
	<path d="m463.3 219.93c1.652 2.347 2.713 5.189 3.143 8.29 2.906-1.346 5.715-3.131 8.299-5.322-0.633-3.009-1.723-5.794-3.197-8.262-2.48 2.35-5.28 4.14-8.24 5.29z" fill="url(#de)"/>
		<linearGradient id="dd" x1="431.79" x2="485.6" y1="249.03" y2="249.03" gradientTransform="matrix(1.0859 -.0105 .0113 1.1669 -40.51 -64.257)" gradientUnits="userSpaceOnUse">
		<stop stop-color="#583C1D" offset="0"/>
		<stop stop-color="#F3E94F" offset=".5"/>
		<stop stop-color="#583C1D" offset="1"/>
	</linearGradient>
	<path d="m463.3 219.93c1.652 2.347 2.713 5.189 3.143 8.29 2.906-1.346 5.715-3.131 8.299-5.322-0.633-3.009-1.723-5.794-3.197-8.262-2.48 2.35-5.28 4.14-8.24 5.29z" fill="url(#dd)"/>
		<linearGradient id="dc" x1="418.73" x2="472.44" y1="241.74" y2="241.74" gradientTransform="matrix(1.0859 -.0105 .0113 1.1669 -40.51 -64.257)" gradientUnits="userSpaceOnUse">
		<stop stop-color="#583C1D" offset="0"/>
		<stop stop-color="#F3E94F" offset=".5"/>
		<stop stop-color="#583C1D" offset="1"/>
	</linearGradient>
	<path d="m443.16 214.73c-1.65-2.356-2.697-5.191-3.123-8.292-2.926 1.332-5.709 3.129-8.299 5.313 0.623 3 1.721 5.794 3.189 8.271 2.49-2.36 5.29-4.15 8.23-5.29z" fill="url(#dc)"/>
		<linearGradient id="db" x1="443.64" x2="497.45" y1="197.15" y2="197.15" gradientTransform="matrix(1.0859 -.0105 .0113 1.1669 -40.51 -64.257)" gradientUnits="userSpaceOnUse">
		<stop stop-color="#583C1D" offset="0"/>
		<stop stop-color="#F3E94F" offset=".5"/>
		<stop stop-color="#583C1D" offset="1"/>
	</linearGradient>
	<path d="m452.32 170.17c0.137-3.258 0.873-6.683 2.375-10.067 0.826-1.869 1.844-3.582 3.006-5.194-1.537-2.72-2.568-5.813-3.084-9.126-3.059 3.292-5.682 7.168-7.625 11.553-2.883 6.48-3.875 13.066-3.244 19.051 2.62-2.52 5.51-4.6 8.56-6.21z" fill="url(#db)"/>
		<linearGradient id="da" x1="443.64" x2="497.38" y1="182.53" y2="182.53" gradientTransform="matrix(1.0859 -.0105 .0113 1.1669 -40.51 -64.257)" gradientUnits="userSpaceOnUse">
		<stop stop-color="#583C1D" offset="0"/>
		<stop stop-color="#F3E94F" offset=".5"/>
		<stop stop-color="#583C1D" offset="1"/>
	</linearGradient>
	<path d="m486.4 135.69c-7.529-2.694-16.037-1.197-23.473 3.3 0.023 3.228 0.734 6.226 2.018 8.835 5.418-3.612 11.744-4.869 17.334-2.884 3.996 1.442 6.988 4.341 8.789 8.064 2.717-1.798 5.199-4.219 7.23-7.084-2.64-4.7-6.67-8.36-11.9-10.23z" fill="url(#da)"/>
		<linearGradient id="cz" x1="443.62" x2="497.38" y1="221.15" y2="221.15" gradientTransform="matrix(1.0859 -.0105 .0113 1.1669 -40.51 -64.257)" gradientUnits="userSpaceOnUse">
		<stop stop-color="#583C1D" offset="0"/>
		<stop stop-color="#F3E94F" offset=".5"/>
		<stop stop-color="#583C1D" offset="1"/>
	</linearGradient>
	<path d="m463.09 188.14c-4.307-1.545-7.459-4.782-9.201-8.934-2.785 1.587-5.367 3.779-7.568 6.467 2.588 5.416 6.873 9.653 12.654 11.714 6.889 2.482 14.584 1.432 21.549-2.208 0.115-3.248-0.418-6.333-1.557-9.032-5.06 2.9-10.78 3.81-15.87 1.99z" fill="url(#cz)"/>
		<linearGradient id="cy" x1="443.66" x2="497.39" y1="206.9" y2="206.9" gradientTransform="matrix(1.0859 -.0105 .0113 1.1669 -40.51 -64.257)" gradientUnits="userSpaceOnUse">
		<stop stop-color="#583C1D" offset="0"/>
		<stop stop-color="#F3E94F" offset=".5"/>
		<stop stop-color="#583C1D" offset="1"/>
	</linearGradient>
	<path d="m493.05 161.83c0.031 3.576-0.717 7.395-2.377 11.153-1.098 2.479-2.531 4.714-4.137 6.696 1.322 2.822 2.207 5.951 2.574 9.297 3.746-3.619 6.957-8.081 9.25-13.232 3.146-7.077 4.037-14.297 3.018-20.699-2.51 2.71-5.35 4.97-8.32 6.78z" fill="url(#cy)"/>
		<linearGradient id="cd" x1="431.74" x2="485.58" y1="220.02" y2="220.02" gradientTransform="matrix(1.0859 -.0105 .0113 1.1669 -40.51 -64.257)" gradientUnits="userSpaceOnUse">
		<stop stop-color="#583C1D" offset="0"/>
		<stop stop-color="#F3E94F" offset=".5"/>
		<stop stop-color="#583C1D" offset="1"/>
	</linearGradient>
	<path d="m478.96 186.15c1.139 2.698 1.672 5.784 1.557 9.032 3.047-1.593 5.943-3.68 8.594-6.204-0.367-3.346-1.252-6.475-2.574-9.297-2.21 2.68-4.78 4.88-7.58 6.47z" fill="url(#cd)"/>
		<linearGradient id="bc" x1="431.82" x2="485.59" y1="211.58" y2="211.58" gradientTransform="matrix(1.0859 -.0105 .0113 1.1669 -40.51 -64.257)" gradientUnits="userSpaceOnUse">
		<stop stop-color="#583C1D" offset="0"/>
		<stop stop-color="#F3E94F" offset=".5"/>
		<stop stop-color="#583C1D" offset="1"/>
	</linearGradient>
	<path d="m453.89 179.21c-1.148-2.691-1.66-5.787-1.566-9.04-3.045 1.609-5.943 3.688-8.572 6.217 0.354 3.338 1.238 6.458 2.57 9.29 2.2-2.69 4.78-4.89 7.57-6.47z" fill="url(#bc)"/>
		<linearGradient id="ab" x1="443.63" x2="497.4" y1="211.58" y2="211.58" gradientTransform="matrix(1.0859 -.0105 .0113 1.1669 -40.51 -64.257)" gradientUnits="userSpaceOnUse">
		<stop stop-color="#583C1D" offset="0"/>
		<stop stop-color="#F3E94F" offset=".5"/>
		<stop stop-color="#583C1D" offset="1"/>
	</linearGradient>
	<path d="m453.89 179.21c-1.148-2.691-1.66-5.787-1.566-9.04-3.045 1.609-5.943 3.688-8.572 6.217 0.354 3.338 1.238 6.458 2.57 9.29 2.2-2.69 4.78-4.89 7.57-6.47z" fill="url(#ab)"/>
		<linearGradient id="cx" x1="453.71" x2="507.42" y1="193.97" y2="193.97" gradientTransform="matrix(1.0859 -.0105 .0113 1.1669 -40.51 -64.257)" gradientUnits="userSpaceOnUse">
		<stop stop-color="#583C1D" offset="0"/>
		<stop stop-color="#F3E94F" offset=".5"/>
		<stop stop-color="#583C1D" offset="1"/>
	</linearGradient>
	<path d="m473.7 155.88c-3.99-1.425-6.969-4.333-8.756-8.062-2.742 1.812-5.217 4.223-7.24 7.085 2.6 4.717 6.648 8.356 11.908 10.23 7.514 2.706 16.002 1.202 23.445-3.305-0.029-3.201-0.717-6.219-1.99-8.83-5.44 3.62-11.79 4.89-17.37 2.89z" fill="url(#cx)"/>
		<linearGradient id="cw" x1="453.7" x2="507.44" y1="169.08" y2="169.08" gradientTransform="matrix(1.0859 -.0105 .0113 1.1669 -40.51 -64.257)" gradientUnits="userSpaceOnUse">
		<stop stop-color="#583C1D" offset="0"/>
		<stop stop-color="#F3E94F" offset=".5"/>
		<stop stop-color="#583C1D" offset="1"/>
	</linearGradient>
	<path d="m462.92 138.99c-0.049-3.573 0.721-7.387 2.396-11.138 1.688-3.831 4.145-7.134 6.979-9.727-1.742-2.193-3.109-4.721-4.053-7.51-4.338 3.808-8.061 8.701-10.65 14.475-3.125 7.084-4.01 14.293-2.979 20.694 2.49-2.69 5.31-4.97 8.3-6.78z" fill="url(#cw)"/>
		<linearGradient id="cv" x1="453.69" x2="507.44" y1="152.85" y2="152.85" gradientTransform="matrix(1.0859 -.0105 .0113 1.1669 -40.51 -64.257)" gradientUnits="userSpaceOnUse">
		<stop stop-color="#583C1D" offset="0"/>
		<stop stop-color="#F3E94F" offset=".5"/>
		<stop stop-color="#583C1D" offset="1"/>
	</linearGradient>
	<path d="m492.89 112.69c1.967 0.709 3.68 1.785 5.139 3.117 3.111-1.069 6.121-2.881 8.744-5.28-2.502-3.178-5.775-5.66-9.779-7.092-6.588-2.366-13.941-1.488-20.67 1.787 0.932 3.001 2.531 5.618 4.727 7.623 3.95-1.36 8.07-1.51 11.84-0.16z" fill="url(#cv)"/>
		<linearGradient id="cu" x1="453.68" x2="507.45" y1="176.59" y2="176.59" gradientTransform="matrix(1.0859 -.0105 .0113 1.1669 -40.51 -64.257)" gradientUnits="userSpaceOnUse">
		<stop stop-color="#583C1D" offset="0"/>
		<stop stop-color="#F3E94F" offset=".5"/>
		<stop stop-color="#583C1D" offset="1"/>
	</linearGradient>
	<path d="m501.29 140.72c-0.854 1.873-1.848 3.6-2.998 5.191 1.525 2.742 2.553 5.826 3.088 9.128 3.049-3.283 5.652-7.174 7.6-11.551 3.969-8.903 4.352-18.045 1.852-25.461-2.533 2.183-5.258 3.991-8.082 5.376 1.56 5.12 1.19 11.3-1.46 17.31z" fill="url(#cu)"/>
		<linearGradient id="ct" x1="443.6" x2="497.39" y1="191.36" y2="191.36" gradientTransform="matrix(1.0859 -.0105 .0113 1.1669 -40.51 -64.257)" gradientUnits="userSpaceOnUse">
		<stop stop-color="#583C1D" offset="0"/>
		<stop stop-color="#F3E94F" offset=".5"/>
		<stop stop-color="#583C1D" offset="1"/>
	</linearGradient>
	<path d="m491.06 153c1.273 2.61 1.961 5.628 1.99 8.83 2.961-1.808 5.809-4.07 8.328-6.786-0.535-3.303-1.563-6.386-3.088-9.128-2.03 2.87-4.51 5.29-7.23 7.09z" fill="url(#ct)"/>
		<linearGradient id="cs" x1="453.67" x2="507.46" y1="191.36" y2="191.36" gradientTransform="matrix(1.0859 -.0105 .0113 1.1669 -40.51 -64.257)" gradientUnits="userSpaceOnUse">
		<stop stop-color="#583C1D" offset="0"/>
		<stop stop-color="#F3E94F" offset=".5"/>
		<stop stop-color="#583C1D" offset="1"/>
	</linearGradient>
	<path d="m491.06 153c1.273 2.61 1.961 5.628 1.99 8.83 2.961-1.808 5.809-4.07 8.328-6.786-0.535-3.303-1.563-6.386-3.088-9.128-2.03 2.87-4.51 5.29-7.23 7.09z" fill="url(#cs)"/>
		<linearGradient id="cr" x1="443.63" x2="497.43" y1="185.13" y2="185.13" gradientTransform="matrix(1.0859 -.0105 .0113 1.1669 -40.51 -64.257)" gradientUnits="userSpaceOnUse">
		<stop stop-color="#583C1D" offset="0"/>
		<stop stop-color="#F3E94F" offset=".5"/>
		<stop stop-color="#583C1D" offset="1"/>
	</linearGradient>
	<path d="m464.94 147.82c-1.283-2.609-1.994-5.607-2.018-8.835-2.996 1.814-5.814 4.091-8.307 6.794 0.516 3.313 1.547 6.406 3.084 9.126 2.03-2.86 4.51-5.27 7.25-7.08z" fill="url(#cr)"/>
		<linearGradient id="cq" x1="453.7" x2="507.5" y1="185.13" y2="185.13" gradientTransform="matrix(1.0859 -.0105 .0113 1.1669 -40.51 -64.257)" gradientUnits="userSpaceOnUse">
		<stop stop-color="#583C1D" offset="0"/>
		<stop stop-color="#F3E94F" offset=".5"/>
		<stop stop-color="#583C1D" offset="1"/>
	</linearGradient>
	<path d="m464.94 147.82c-1.283-2.609-1.994-5.607-2.018-8.835-2.996 1.814-5.814 4.091-8.307 6.794 0.516 3.313 1.547 6.406 3.084 9.126 2.03-2.86 4.51-5.27 7.25-7.08z" fill="url(#cq)"/>
		<linearGradient id="cp" x1="465.54" x2="519.3" y1="161.99" y2="161.99" gradientTransform="matrix(1.0859 -.0105 .0113 1.1669 -40.51 -64.257)" gradientUnits="userSpaceOnUse">
		<stop stop-color="#583C1D" offset="0"/>
		<stop stop-color="#F3E94F" offset=".5"/>
		<stop stop-color="#583C1D" offset="1"/>
	</linearGradient>
	<path d="m486.17 115.94c-1.965-0.698-3.668-1.768-5.119-3.102-3.115 1.06-6.111 2.863-8.752 5.281 2.502 3.177 5.773 5.643 9.785 7.074 6.607 2.362 13.916 1.509 20.668-1.786-0.926-2.994-2.518-5.602-4.723-7.606-3.94 1.36-8.06 1.52-11.86 0.15z" fill="url(#cp)"/>
		<linearGradient id="co" x1="453.62" x2="507.46" y1="159.81" y2="159.81" gradientTransform="matrix(1.0859 -.0105 .0113 1.1669 -40.51 -64.257)" gradientUnits="userSpaceOnUse">
		<stop stop-color="#583C1D" offset="0"/>
		<stop stop-color="#F3E94F" offset=".5"/>
		<stop stop-color="#583C1D" offset="1"/>
	</linearGradient>
	<path d="m498.03 115.8c2.205 2.004 3.797 4.613 4.723 7.606 2.824-1.385 5.549-3.194 8.082-5.376-0.951-2.788-2.303-5.327-4.061-7.51-2.62 2.4-5.63 4.21-8.74 5.28z" fill="url(#co)"/>
		<linearGradient id="cm" x1="465.48" x2="519.33" y1="159.81" y2="159.81" gradientTransform="matrix(1.0859 -.0105 .0113 1.1669 -40.51 -64.257)" gradientUnits="userSpaceOnUse">
		<stop stop-color="#583C1D" offset="0"/>
		<stop stop-color="#F3E94F" offset=".5"/>
		<stop stop-color="#583C1D" offset="1"/>
	</linearGradient>
	<path d="m498.03 115.8c2.205 2.004 3.797 4.613 4.723 7.606 2.824-1.385 5.549-3.194 8.082-5.376-0.951-2.788-2.303-5.327-4.061-7.51-2.62 2.4-5.63 4.21-8.74 5.28z" fill="url(#cm)"/>
		<linearGradient id="cl" x1="453.66" x2="507.5" y1="155.02" y2="155.02" gradientTransform="matrix(1.0859 -.0105 .0113 1.1669 -40.51 -64.257)" gradientUnits="userSpaceOnUse">
		<stop stop-color="#583C1D" offset="0"/>
		<stop stop-color="#F3E94F" offset=".5"/>
		<stop stop-color="#583C1D" offset="1"/>
	</linearGradient>
	<path d="m481.05 112.84c-2.195-2.005-3.795-4.622-4.727-7.623-2.828 1.385-5.555 3.194-8.078 5.394 0.943 2.79 2.311 5.317 4.053 7.51 2.65-2.42 5.65-4.22 8.76-5.28z" fill="url(#cl)"/>
		<linearGradient id="ck" x1="261.71" x2="348.67" y1="416.22" y2="416.22" gradientTransform="matrix(1.0859 -.0105 .0113 1.1669 -40.51 -64.257)" gradientUnits="userSpaceOnUse">
		<stop stop-color="#583C1D" offset="0"/>
		<stop stop-color="#F3E94F" offset=".5"/>
		<stop stop-color="#583C1D" offset="1"/>
	</linearGradient>
	<path d="m328.26 402.7c-2.566 3.465-4.217 7.174-4.926 10.771 3.77 4.014 5.801 8.782 5.35 13.77-0.082 0.746-0.205 1.49-0.395 2.207 0.35 0.291 0.699 0.584 1.076 0.846 3.527 2.365 7.941 3.107 12.514 2.498 0.453-1.467 0.764-2.965 0.92-4.51 0.9-9.77-4.8-19-14.53-25.59z" fill="url(#ck)"/>
		<linearGradient id="cj" x1="261.79" x2="348.64" y1="413.92" y2="413.92" gradientTransform="matrix(1.0859 -.0105 .0113 1.1669 -40.51 -64.257)" gradientUnits="userSpaceOnUse">
		<stop stop-color="#583C1D" offset="0"/>
		<stop stop-color="#F3E94F" offset=".5"/>
		<stop stop-color="#583C1D" offset="1"/>
	</linearGradient>
	<path d="m262.72 422.34c0.419-4.454 2.788-8.454 6.466-11.695-0.71-3.315-2.137-6.685-4.364-9.88-0.178-0.258-0.379-0.509-0.583-0.77-8.899 5.122-14.821 12.622-15.635 21.302-0.324 3.479 0.208 6.887 1.444 10.127 4.253 0.77 8.454 0.285 11.986-1.701 0.519-0.295 1.006-0.615 1.48-0.965-0.71-2.06-1.01-4.23-0.81-6.42z" fill="url(#cj)"/>
		<linearGradient id="ci" x1="261.78" x2="348.68" y1="400.96" y2="400.96" gradientTransform="matrix(1.0859 -.0105 .0113 1.1669 -40.51 -64.257)" gradientUnits="userSpaceOnUse">
		<stop stop-color="#583C1D" offset="0"/>
		<stop stop-color="#F3E94F" offset=".5"/>
		<stop stop-color="#583C1D" offset="1"/>
	</linearGradient>
	<path d="m276.67 405.93c5.942-2.654 13.308-3.964 21.11-3.391 6.931 0.513 13.195 2.433 18.261 5.281 1.264-3.086 2.997-6.146 5.183-9.091-6.55-3.068-14.235-5.101-22.548-5.722-9.829-0.729-19.128 0.622-27.009 3.536 0.066 0.093 0.138 0.173 0.202 0.264 2.07 2.96 3.66 6.04 4.81 9.12z" fill="url(#ci)"/>
		<linearGradient id="ch" x1="261.79" x2="348.67" y1="440.82" y2="440.82" gradientTransform="matrix(1.0859 -.0105 .0113 1.1669 -40.51 -64.257)" gradientUnits="userSpaceOnUse">
		<stop stop-color="#583C1D" offset="0"/>
		<stop stop-color="#F3E94F" offset=".5"/>
		<stop stop-color="#583C1D" offset="1"/>
	</linearGradient>
	<path d="m322.85 438.35c-6.38 6.025-17.243 9.578-29.241 8.693-10.08-0.75-18.8-4.477-24.403-9.742-0.429 0.301-0.858 0.605-1.321 0.863-3.517 1.975-7.5 2.895-11.638 2.918 7.869 8.355 21.099 14.35 36.477 15.5 18.417 1.367 35.035-4.613 43.75-14.439-5 0.02-9.7-1.19-13.63-3.79z" fill="url(#ch)"/>
		<linearGradient id="cg" x1="233.7" x2="289.84" y1="403.48" y2="403.48" gradientTransform="matrix(1.0859 -.0105 .0113 1.1669 -40.51 -64.257)" gradientUnits="userSpaceOnUse">
		<stop stop-color="#583C1D" offset="0"/>
		<stop stop-color="#F3E94F" offset=".5"/>
		<stop stop-color="#583C1D" offset="1"/>
	</linearGradient>
	<path d="m264.82 400.76c2.227 3.196 3.654 6.565 4.364 9.88 2.102-1.841 4.614-3.43 7.486-4.714-1.15-3.076-2.737-6.16-4.801-9.123-0.064-0.091-0.136-0.171-0.202-0.264-2.65 0.993-5.133 2.132-7.43 3.451 0.2 0.25 0.4 0.5 0.58 0.76z" fill="url(#cg)"/>
		<linearGradient id="cf" x1="261.77" x2="348.73" y1="403.48" y2="403.48" gradientTransform="matrix(1.0859 -.0105 .0113 1.1669 -40.51 -64.257)" gradientUnits="userSpaceOnUse">
		<stop stop-color="#583C1D" offset="0"/>
		<stop stop-color="#F3E94F" offset=".5"/>
		<stop stop-color="#583C1D" offset="1"/>
	</linearGradient>
	<path d="m264.82 400.76c2.227 3.196 3.654 6.565 4.364 9.88 2.102-1.841 4.614-3.43 7.486-4.714-1.15-3.076-2.737-6.16-4.801-9.123-0.064-0.091-0.136-0.171-0.202-0.264-2.65 0.993-5.133 2.132-7.43 3.451 0.2 0.25 0.4 0.5 0.58 0.76z" fill="url(#cf)"/>
		<linearGradient id="ce" x1="233.77" x2="289.82" y1="430.24" y2="430.24" gradientTransform="matrix(1.0859 -.0105 .0113 1.1669 -40.51 -64.257)" gradientUnits="userSpaceOnUse">
		<stop stop-color="#583C1D" offset="0"/>
		<stop stop-color="#F3E94F" offset=".5"/>
		<stop stop-color="#583C1D" offset="1"/>
	</linearGradient>
	<path d="m267.88 438.16c0.463-0.258 0.892-0.563 1.321-0.863-2.693-2.539-4.675-5.434-5.689-8.543-0.474 0.35-0.962 0.67-1.48 0.965-3.533 1.986-7.733 2.471-11.986 1.701 1.308 3.443 3.416 6.697 6.196 9.658 4.14-0.02 8.12-0.94 11.64-2.92z" fill="url(#ce)"/>
		<linearGradient id="cc" x1="321.72" x2="379.52" y1="431.59" y2="431.59" gradientTransform="matrix(1.0859 -.0105 .0113 1.1669 -40.51 -64.257)" gradientUnits="userSpaceOnUse">
		<stop stop-color="#583C1D" offset="0"/>
		<stop stop-color="#F3E94F" offset=".5"/>
		<stop stop-color="#583C1D" offset="1"/>
	</linearGradient>
	<path d="m329.36 430.29c-0.377-0.262-0.727-0.555-1.076-0.846-0.803 3.318-2.715 6.324-5.438 8.904 3.934 2.605 8.637 3.809 13.623 3.793 2.51-2.83 4.363-5.982 5.404-9.354-4.56 0.62-8.97-0.13-12.5-2.49z" fill="url(#cc)"/>
		<linearGradient id="ca" x1="261.8" x2="348.67" y1="431.59" y2="431.59" gradientTransform="matrix(1.0859 -.0105 .0113 1.1669 -40.51 -64.257)" gradientUnits="userSpaceOnUse">
		<stop stop-color="#583C1D" offset="0"/>
		<stop stop-color="#F3E94F" offset=".5"/>
		<stop stop-color="#583C1D" offset="1"/>
	</linearGradient>
	<path d="m329.36 430.29c-0.377-0.262-0.727-0.555-1.076-0.846-0.803 3.318-2.715 6.324-5.438 8.904 3.934 2.605 8.637 3.809 13.623 3.793 2.51-2.83 4.363-5.982 5.404-9.354-4.56 0.62-8.97-0.13-12.5-2.49z" fill="url(#ca)"/>
		<linearGradient id="bz" x1="321.71" x2="379.59" y1="406.06" y2="406.06" gradientTransform="matrix(1.0859 -.0105 .0113 1.1669 -40.51 -64.257)" gradientUnits="userSpaceOnUse">
		<stop stop-color="#583C1D" offset="0"/>
		<stop stop-color="#F3E94F" offset=".5"/>
		<stop stop-color="#583C1D" offset="1"/>
	</linearGradient>
	<path d="m323.33 413.46c0.709-3.597 2.359-7.306 4.926-10.771-2.16-1.471-4.523-2.788-7.029-3.967-2.186 2.946-3.919 6.005-5.183 9.091 2.85 1.61 5.31 3.54 7.28 5.65z" fill="url(#bz)"/>
			<linearGradient id="by" x1="511.66" x2="195.8" y1="846.42" y2="431.08" gradientTransform="matrix(.9899 -.1417 .1417 .9899 -56.958 55.305)" gradientUnits="userSpaceOnUse">
			<stop stop-color="#583C1D" offset="0"/>
			<stop stop-color="#F3E94F" offset=".5"/>
			<stop stop-color="#583C1D" offset="1"/>
		</linearGradient>
		<path d="m309.32 529.7l-0.316-31.047c5.453 2.115 10.513 6.459 14.177 13.887l45.865-6.121c-6.965-24.137-32.729-37.873-60.356-40.92l-0.225-23.09-20.73 0.209 0.218 22.613c-30.73 2.557-58.55 18.551-59.854 48.342-1.178 30.783 16.018 40.264 60.835 52.803l0.375 38.449c-7.409-3.5-13.707-10.906-16.477-23.965l-52.684 5.713c3.303 29.986 35.1 48.084 69.479 51.354l0.204 19.584 20.719-0.201-0.18-19.242c27.302-2.232 52.978-14.16 63.948-37.352 18.35-48.42-33.07-63.83-65.01-71.01zm-22.24-5.42c-17.089-5.799-10.971-18.896 1.214-24.547l0.239 25.143c-0.56-0.19-1.06-0.39-1.45-0.59zm22.98 81.8l-0.338-34.082c30.87 8.82 18.8 28.78 0.34 34.08z" fill="url(#by)"/>
			<linearGradient id="bx" x1="543.5" x2="260.51" y1="778.91" y2="406.79" gradientTransform="matrix(1.0859 -.0105 .0113 1.1669 -40.51 -64.257)" gradientUnits="userSpaceOnUse">
			<stop stop-color="#583C1D" offset="0"/>
			<stop stop-color="#F3E94F" offset=".5"/>
			<stop stop-color="#583C1D" offset="1"/>
		</linearGradient>
		<polygon points="323.18 512.54 323.18 512.54 322.32 512.66" fill="url(#bx)"/>
		<linearGradient id="bw" x1="295.36" x2="320.64" y1="442.3" y2="442.3" gradientTransform="matrix(1.0859 -.0105 .0113 1.1669 -40.51 -64.257)" gradientUnits="userSpaceOnUse">
		<stop stop-color="#583C1D" offset="0"/>
		<stop stop-color="#F3E94F" offset=".5"/>
		<stop stop-color="#583C1D" offset="1"/>
	</linearGradient>
	<path d="m312.66 448.49c0.061 6.189-6.025 11.246-13.605 11.318-7.589 0.068-13.787-4.873-13.842-11.055-0.063-6.18 6.033-11.256 13.623-11.328 7.57-0.07 13.76 4.88 13.82 11.06z" fill="url(#bw)"/>
</svg>
