<?xml version="1.0" encoding="UTF-8"?>
<svg version="1.1" viewBox="0 0 512 512" xmlns="http://www.w3.org/2000/svg" xmlns:xlink="http://www.w3.org/1999/xlink">
 <defs>
  <linearGradient id="ah">
   <stop stop-color="#ad0303" offset="0"/>
   <stop stop-color="#fb1c1c" offset=".085856"/>
   <stop stop-color="#ad0303" offset=".21946"/>
   <stop stop-color="#be1515" offset=".28288"/>
   <stop stop-color="#d00" offset=".3716"/>
   <stop stop-color="#b10909" offset=".47224"/>
   <stop stop-color="#ff0a0a" offset=".66348"/>
   <stop stop-color="#c01b1b" offset=".77684"/>
   <stop stop-color="#ff0808" offset=".88637"/>
   <stop stop-color="#fc6363" offset="1"/>
  </linearGradient>
  <linearGradient id="ag">
   <stop stop-color="#ad0303" offset="0"/>
   <stop stop-color="#fb1c1c" offset=".085856"/>
   <stop stop-color="#ad0303" offset=".18258"/>
   <stop stop-color="#be1515" offset=".25908"/>
   <stop stop-color="#d00" offset=".27271"/>
   <stop stop-color="#b10909" offset=".35047"/>
   <stop stop-color="#ff0a0a" offset=".43312"/>
   <stop stop-color="#c01b1b" offset=".43701"/>
   <stop stop-color="#ff0808" offset=".4651"/>
   <stop stop-color="#fc6363" offset="1"/>
  </linearGradient>
  <linearGradient id="af">
   <stop stop-color="#ad0303" offset="0"/>
   <stop stop-color="#fb1c1c" offset=".085856"/>
   <stop stop-color="#ad0303" offset=".21946"/>
   <stop stop-color="#be1515" offset=".33861"/>
   <stop stop-color="#d00" offset=".44008"/>
   <stop stop-color="#b10909" offset=".55539"/>
   <stop stop-color="#ff0a0a" offset=".66348"/>
   <stop stop-color="#c01b1b" offset=".77684"/>
   <stop stop-color="#ff0808" offset=".97803"/>
   <stop stop-color="#fc6363" offset="1"/>
  </linearGradient>
  <linearGradient id="ae">
   <stop stop-color="#b30019" offset="0"/>
   <stop stop-color="#900014" offset=".088869"/>
   <stop stop-color="#cf001d" offset=".15485"/>
   <stop stop-color="#900014" offset=".25019"/>
   <stop stop-color="#e0001f" offset=".36312"/>
   <stop stop-color="#930115" offset=".47938"/>
   <stop stop-color="#d80420" offset=".5838"/>
   <stop stop-color="#9d0719" offset=".69198"/>
   <stop stop-color="#eb1e32" offset=".7942"/>
   <stop stop-color="#c71f29" offset=".90236"/>
   <stop stop-color="#ff3e3e" offset="1"/>
  </linearGradient>
  <linearGradient id="ad">
   <stop stop-color="#ad0303" offset="0"/>
   <stop stop-color="#fb1c1c" offset=".085856"/>
   <stop stop-color="#ad0303" offset=".21946"/>
   <stop stop-color="#be1515" offset=".33861"/>
   <stop stop-color="#d00" offset=".44008"/>
   <stop stop-color="#b10909" offset=".55539"/>
   <stop stop-color="#ff0a0a" offset=".66348"/>
   <stop stop-color="#c01b1b" offset=".77684"/>
   <stop stop-color="#ff0808" offset=".88637"/>
   <stop stop-color="#fc6363" offset="1"/>
  </linearGradient>
  <linearGradient id="a">
   <stop stop-color="#990202" offset="0"/>
   <stop stop-color="#d30303" offset=".11724"/>
   <stop stop-color="#990202" offset=".20696"/>
   <stop stop-color="#d80404" offset=".31361"/>
   <stop stop-color="#9b0404" offset=".43729"/>
   <stop stop-color="#cb0808" offset=".55652"/>
   <stop stop-color="#a40b0b" offset=".67662"/>
   <stop stop-color="#b01414" offset=".79261"/>
   <stop stop-color="#c72626" offset=".88958"/>
   <stop stop-color="#f54b4b" offset="1"/>
  </linearGradient>
  <radialGradient id="ai" cx="413.08" cy="671.38" r="79.008" gradientTransform="matrix(1.2269 .94439 -2.3289 3.0257 1439.2 -1750.6)" gradientUnits="userSpaceOnUse">
   <stop stop-color="#990202" offset="0"/>
   <stop stop-color="#d30303" offset=".11724"/>
   <stop stop-color="#990202" offset=".33693"/>
   <stop stop-color="#d80404" offset=".47258"/>
   <stop stop-color="#9b0404" offset=".61133"/>
   <stop stop-color="#cb0808" offset=".72499"/>
   <stop stop-color="#a40b0b" offset=".84843"/>
   <stop stop-color="#b01414" offset=".93541"/>
   <stop stop-color="#c72626" offset=".95149"/>
   <stop stop-color="#f54b4b" offset="1"/>
  </radialGradient>
  <radialGradient id="aj" cx="260.21" cy="541.97" r="124.98" gradientTransform="matrix(2.5725 .68743 -.358 1.3397 -208.66 -267.12)" gradientUnits="userSpaceOnUse" xlink:href="#a"/>
  <radialGradient id="ak" cx="298.36" cy="655.6" r="107.19" gradientTransform="matrix(.28773 -.48658 1.2019 .71074 -583.16 312.79)" gradientUnits="userSpaceOnUse" xlink:href="#a"/>
  <radialGradient id="al" cx="302.43" cy="640.63" r="64.261" gradientTransform="matrix(-1.5061 2.0879 -4.2469 -3.0635 3455.9 1986.1)" gradientUnits="userSpaceOnUse" xlink:href="#ae"/>
  <radialGradient id="am" cx="399.12" cy="666.24" r="27.886" gradientTransform="matrix(1.0902 1.1038 -1.8679 1.8449 1205 -1009.3)" gradientUnits="userSpaceOnUse">
   <stop stop-color="#ad0303" offset="0"/>
   <stop stop-color="#fb1c1c" offset=".055617"/>
   <stop stop-color="#ad0303" offset=".21946"/>
   <stop stop-color="#be1515" offset=".28288"/>
   <stop stop-color="#d00" offset=".3716"/>
   <stop stop-color="#b10909" offset=".47224"/>
   <stop stop-color="#ff0a0a" offset=".66348"/>
   <stop stop-color="#c01b1b" offset=".77684"/>
   <stop stop-color="#ff0808" offset=".88637"/>
   <stop stop-color="#fc6363" offset="1"/>
  </radialGradient>
  <radialGradient id="an" cx="425.02" cy="606.26" r="41.666" gradientTransform="matrix(.94589 .68511 -2.3418 3.2332 1435 -1649.2)" gradientUnits="userSpaceOnUse" xlink:href="#a"/>
  <radialGradient id="ao" cx="361.74" cy="608.16" r="43.839" gradientTransform="matrix(2.3099 2.3412 -5.1485 5.0796 2639.3 -3338.2)" gradientUnits="userSpaceOnUse" xlink:href="#a"/>
  <radialGradient id="ap" cx="400.49" cy="526.58" r="45.071" gradientTransform="matrix(1 0 0 1.9081 0 -478.21)" gradientUnits="userSpaceOnUse" xlink:href="#ah"/>
  <radialGradient id="aq" cx="370.73" cy="543.88" r="37.534" gradientTransform="matrix(5.0123 .29808 -.29321 4.9304 -1377.2 -2235.6)" gradientUnits="userSpaceOnUse">
   <stop stop-color="#900014" offset="0"/>
   <stop stop-color="#ff0326" offset=".052926"/>
   <stop stop-color="#900014" offset=".10952"/>
   <stop stop-color="#ff0729" offset=".17828"/>
   <stop stop-color="#900115" offset=".24177"/>
   <stop stop-color="#fc0e2f" offset=".29775"/>
   <stop stop-color="#930418" offset=".38179"/>
   <stop stop-color="#e00000" offset=".50855"/>
   <stop stop-color="#9d1327" offset=".59106"/>
   <stop stop-color="#ff1536" offset=".6945"/>
   <stop stop-color="#c74f60" offset=".84034"/>
   <stop stop-color="#ff5d73" offset="1"/>
  </radialGradient>
  <radialGradient id="ar" cx="375.76" cy="490.9" r="20.92" gradientTransform="matrix(6.1122 -.27932 .22245 4.8678 -2030.2 -1793.7)" gradientUnits="userSpaceOnUse" xlink:href="#ae"/>
  <radialGradient id="as" cx="329.72" cy="558.91" r="50.246" gradientTransform="matrix(1.8296 -2.3997 1.8171 1.3854 -1261.8 608.65)" gradientUnits="userSpaceOnUse" xlink:href="#af"/>
  <radialGradient id="at" cx="329.92" cy="488.18" r="52.668" gradientTransform="matrix(-1.2604 -.13058 .12784 -1.2339 683.35 1133.6)" gradientUnits="userSpaceOnUse" xlink:href="#ad"/>
  <radialGradient id="au" cx="314.03" cy="513.26" r="18.615" gradientTransform="matrix(2.4649 -.023603 .022015 2.2991 -471.34 -659.38)" gradientUnits="userSpaceOnUse" xlink:href="#a"/>
  <radialGradient id="av" cx="317.39" cy="511.1" r="42.725" gradientTransform="matrix(1.7538 -.24022 .21471 1.5675 -348.21 -219.09)" gradientUnits="userSpaceOnUse" xlink:href="#a"/>
  <radialGradient id="aw" cx="290.04" cy="497.35" r="55.939" gradientTransform="matrix(.93434 .35638 -.52369 1.373 279.5 -288.87)" gradientUnits="userSpaceOnUse" xlink:href="#af"/>
  <radialGradient id="ax" cx="262.51" cy="547.52" r="68.384" gradientTransform="matrix(3.289 1.8095 -1.2857 2.3369 102.71 -1208.2)" gradientUnits="userSpaceOnUse" xlink:href="#a"/>
  <radialGradient id="ay" cx="222.24" cy="488.44" r="64.477" gradientTransform="matrix(.41462 2.6625 -2.3169 .3608 1290.5 -240.53)" gradientUnits="userSpaceOnUse" xlink:href="#ad"/>
  <radialGradient id="az" cx="193.24" cy="627.99" r="67.376" gradientTransform="matrix(1.5099 -1.8266 2.0861 1.7244 -1373.2 -131.98)" gradientUnits="userSpaceOnUse" xlink:href="#a"/>
  <radialGradient id="ba" cx="191.54" cy="675.91" r="47.639" gradientTransform="matrix(-1.3922 -2.2226 2.223 -1.3925 -1046.3 2004)" gradientUnits="userSpaceOnUse" xlink:href="#ah"/>
  <linearGradient id="bb" x1="373.1" x2="463.56" y1="648.39" y2="806.19" gradientUnits="userSpaceOnUse" xlink:href="#a"/>
  <linearGradient id="bc" x1="269.86" x2="303.71" y1="761.76" y2="577.1" gradientUnits="userSpaceOnUse" xlink:href="#ag"/>
  <linearGradient id="bd" x1="135.96" x2="292.29" y1="507.2" y2="541.89" gradientUnits="userSpaceOnUse" xlink:href="#ag"/>
  <filter id="b" x="-.63889" y="-.67647" width="2.2778" height="2.3529">
   <feGaussianBlur stdDeviation="6.8452381"/>
  </filter>
 </defs>
 <g transform="translate(0 -540.36)">
  <g transform="translate(-49.469 213.73)" fill="none">
   <g transform="matrix(1.2765 0 0 1.2765 -80.299 -180.59)" stroke="#540007" stroke-linecap="round" stroke-linejoin="round" stroke-width=".3">
    <path d="m339.69 765.01s13.399 4.028 35.033-1.975c12.604-3.495 24.35-8.064 34.755-12.701 0 0 21.831-10.653 33.636-16.748 18.007-9.295 26.611-1.276 42.293-5.164 9.564-2.373 13.816-5.024 13.816-5.024s-13.679 17.726-29.58 32.098c-12.488 11.286-29.125 20.992-48.082 25.538-8.7278 2.0927-17.948 3.0917-27.481 2.6475-20.96-1-54.4-18.69-54.4-18.69z" fill="url(#bb)"/>
    <path d="m460.58 575.59s23.262 24.658 26.772 41.183c3.585 16.885 2.556 45.229 1.232 64.783-1.325 19.553 6.109 36.848 11.635 39.654 0 0-15.973 8.896-33.686 6.141-16.751-2.604-26.595 7.39-46.899 16.564-20.302 9.175-38.883 16.68-54.526 19.355-16.377 2.802-22.705 0.278-22.705 0.278 1e-3 0 17.62-8.173 29.684-15.354 11.724-6.978 15.125-16.493 17.679-22.796 7.336-18.104 2.047-38.244 2.047-38.244s24.983-12.273 35.266-27.82c9.102-13.76 6.05-20.287 6.05-20.287s19.177-17.61 24.101-35.451c3.72-13.49 4.09-19.07 3.35-28z" fill="url(#ai)"/>
    <path d="m144.67 728.75s59.808 35.816 83.077 41.744 48.839 8.767 76.521 3.899c27.681-4.868 57.484-22.007 57.484-22.007-15.999 3.238-40.287 3.162-54.683-3.326-31.57-14.229-34.421-15.725-58.091-14.449-19.037 1.026-32.382 8.376-54.569 5.492-13.3-1.72-49.74-11.34-49.74-11.34z" fill="url(#bc)"/>
    <path d="m143.95 726.79s42.112 13.263 61.944 12.534c20.588-0.758 41.908-10.246 70.253-4.719 10.951 2.139 32.753 15.912 47.656 17.784 16.025 2.013 44.644 3.035 57.716-13.498 10.887-13.77 14.941-28.29 10.289-51.739 0 0-5.041 2.874-10.793 3.63-3.176 0.417-4.836 3.905-15.181 7.486-10.638 3.682-29.002 6.752-52.095 4.412-21.03-2.131-34.695-14.132-47.544-23.909-18.336-13.953-24.066-26.057-41.06-15.466-18.556 11.563-29.131 18.081-37.643 33.873-11.75 21.82-43.55 29.63-43.55 29.63z" fill="url(#aj)"/>
    <path d="m161.51 606.01s29.223 3.76 49.146 23.55c19.923 19.792 34.347 29.342 48.313 40.503 13.966 11.163 34.239 29.209 55.467 30.666 21.229 1.456 44.062 0.384 61.183-9.104 0 0-18.051 2.512-43.454-12.657-22.246-13.282-37.516-25.326-50.849-35.207-13.333-9.882-25.815-28.584-52.008-38.29-26.192-9.704-47.126-10.047-58.181-4.694-11.06 5.35-9.62 5.23-9.62 5.23z" fill="url(#ak)"/>
    <path d="m247.86 579.68s3.257 30.892 10.793 39.455c8.685 9.866 18.419 19.292 32.412 29.234 13.992 9.943 36.732 26.829 50.497 33.669 15.167 7.536 23.263 8.188 34.618 7.711 0 0-0.228-8.289-13.587-29.985-13.358-21.694-27.023-39.327-45.103-49.098-18.079-9.771-29.307-13.696-43.482-19.54-14.18-5.84-26.15-11.44-26.15-11.44z" fill="url(#al)"/>
    <path d="m377.86 689.75s14.987-2.774 28.779-12.309c6.197-4.286 14.361-11.203 18.477-16.618 7.102-9.339 8.841-15.632 8.15-21.216 0 0-7.622 6.875-21.176 16.935-13.174 9.774-22.426 18.424-28.494 25.372-6.45 7.39-5.74 7.84-5.74 7.84z" fill="url(#am)"/>
    <path d="m377.86 685.98s11.922-14.828 24.168-23.828 25.59-18.735 34.166-27.066c8.277-8.044 17.586-19.163 21.862-34.841 3.907-14.332 5.955-31.835-7.444-54.714-7.337-12.532-8.467-21.495-8.467-21.495s-0.581 23.078-1.676 40.662c-1.056 16.97-4.652 26.334-17.12 41.828-12.933 16.066-20.565 26.194-29.312 40.337-6.92 11.19-16.18 39.11-16.18 39.11z" fill="url(#an)"/>
    <path d="m376.88 684.92s7.992-26.986 17.147-41.162c9.154-14.176 18.374-25.542 28.035-37.555 9.663-12.013 16.36-25.067 17.063-40.73 0.704-15.662 1.912-37.342 1.912-37.342s-11.537 17.959-23.551 26.986c-12.458 9.358-14.627 11.248-26.641 20.663-11.895 9.321-26.541 27.585-31.787 34.167-6.119 7.678-6.643 12.936-3.953 28.772 0.878 5.169 1.256 7.398 10.27 21.894 7.23 11.63 11.51 24.31 11.51 24.31z" fill="url(#ao)"/>
    <path d="m355.52 612.48s20.661-28.892 46.042-47.006c14.029-10.012 31.954-23.252 39.015-40.813 7.063-17.56 5.938-30.063 0-52.004-5.936-21.942-6.588-25.501-6.588-25.501s-4.294 1.706-13.736-1.455c-9.439-3.16-16.863-6.58-24.44-4.25-7.576 2.33-6.682 2.054-6.682 2.054s4.075 12.093 19.009 23.817c11.387 8.94 15.771 16.47 14.099 30.698-1.351 11.493-7.399 31.553-17.866 47.045-4.044 5.985-15.46 21.724-28.321 36.01-13.56 15.07-20.53 31.41-20.53 31.41z" fill="url(#ap)"/>
    <path d="m354.03 640.89s-5.245-20.283 2.71-35.279c7.955-14.994 20.434-27.707 28.72-38.679 8.476-11.223 20.742-26.238 25.89-38.897 9.702-23.866 13.318-41.208 3.149-52.516-10.168-11.308-17.919-14.341-23.527-25.787-0.635-1.293-3.63-16.058-3.63-16.058 0 14.051 4.327 25.828 6.745 33.814 1.928 6.363 6.794 20.681 3.118 39.271-3.467 17.534-4.141 27.975-20.979 47.615-15.612 18.21-20.021 22.744-26.151 36.748-5.54 12.655-5.164 24.304-2.373 34.764 2.8 10.48 6.33 15.02 6.33 15.02z" fill="url(#aq)"/>
    <path d="m384.46 541.12s8.744-11.543 11.096-33.875c1.807-17.157 1.742-26.084-4.517-42.354-3.42-8.889-4.764-12.275-4.974-15.91-0.211-3.637 0.717-8.294 0.717-8.294s-11.215 3.055-15.632 1.376-13.883 0.583-15.632 2.234-0.091 9.631 12.98 21.354c15.604 13.995 18.564 21.355 16.331 36.848-1.999 13.87-2.679 19.758-2.337 25.821 0.3 5.41 1.96 12.8 1.96 12.8z" fill="url(#ar)"/>
    <path d="m344.19 620.44s-0.929-15.602 3.805-27.621c4.733-12.019 9.781-18.16 17.016-27.372s18.335-22.273 18.335-22.273-2.775-10.667-2.599-17.925c0.175-7.258 3.211-30.846 3.211-30.846s-7.555 24.146-19.506 32.521c-9.718 6.809-16.894 10.607-29.346 12.422-18.272 2.663-20.065-4.543-20.238-4.537-5.688 0.244-10.677-2.826-14.76-7.955-3.726-4.682-5.005-9.59-6.467-14.261-2.938-9.385-2.883-12.283-2.884-12.283 0 0-3.699 4.561-5.095 12.957-0.871 5.243-1.594 11.078-1.884 15.4-0.907 13.539 4.002 35.952 4.002 35.952s0.995 2.517 14.17 13.352c13.176 10.834 22.834 21.897 30.803 29.717s11.44 12.74 11.44 12.74z" fill="url(#as)"/>
    <path d="m354.03 437.58s-3.095 12.951 7.719 24.176c10.815 11.224 24.615 20.456 19.73 35.859-1.209 3.813-9.003 21.485-16.544 26.89-11.214 8.037-22.033 13.698-35.879 14.239-11.873 0.465-12.93-3.908-12.93-3.908s13.711-0.883 24.738-6.515c13.449-6.867 18.145-17.028 17.26-29.483-0.815-11.489-9.165-22.578-15.306-25.023-7.985-3.179-21.164-0.369-33.384 7.158s-13.711 10.239-20.88 10.523c-7.168 0.283-11.198-4.837-11.198-4.837s1.695-8.065 8.618-12.518c6.923-4.454 16.457-8.979 33.167-15.956 16.711-6.977 26.549-9.783 29.879-14.702 3.32-4.92 5-5.9 5-5.9z" fill="url(#at)"/>
    <path d="m313.79 509.75s9.875 2.896 14.725-1.954c6.259-6.26 5.199-13.714-2.931-14.725-6.893-0.857-17.343 0.08-22.96 6.071s-9.792 11.369-5.025 21.635c7.258 15.632 18.232 12.738 18.232 12.738s-2.705-3.492-3.263-12.145c-0.4-6.14 1.22-11.63 1.22-11.63z" fill="url(#au)"/>
    <path d="m314.68 511.01s6.884 1.938 12.72-1.255c4.936-2.701 6.961-9.533 6.01-11.865-1.519-3.722-4.806-8.055-19.933-5.338-10.806 1.941-17.412 10.643-18.994 18.18-0.228 1.084-3.35-9.306-2.698-14.237 0 0-4.374 4.536-6.177 12.081-2.269 9.49-3.531 21.466-3.082 28.327 1.144 17.478 3.705 27.163 3.705 27.163s-13.712-21.878-14.661-38.189c-0.243-4.181 0.16-12.254 0.698-17.168 1.047-9.561 4.327-20.936 4.327-20.936s8.514 7.886 17.377 4.131c10.723-4.545 15.468-10.933 24.565-14.25 5.821-2.122 21.646-8.547 30.208 2.669 5.995 7.853 9.293 17.708 7.526 27.433-1.575 8.67-7.306 15.074-16.378 19.446-12.235 5.896-22.937 6.235-22.937 6.235s-2.838-3.862-3.304-11.494c-0.4-6.03 1-10.94 1-10.94z" fill="url(#av)"/>
    <path d="m345.72 443.04s-6.9-6.34-20.907-9.351c-14.006-3.012-25.811-4.816-34.149-3.536-8.338 1.281-16.017 6.321-26.892 22.52-11.119 16.563-18.656 14.143-25.495 31.451s-3.933 32.336 0.456 42.384c4.389 10.05 14.805 19.96 24.906 26.998 9.735 6.782 21.885 11.454 21.885 11.454s-13.131-20.797-14.935-35.382c-1.604-12.981 0.905-30.847 4.476-41.391 4.124-12.18 11.993-19.351 27.292-25.192 15.299-5.84 27.099-11.035 36.208-15.07 9.09-4.03 7.14-4.88 7.14-4.88z" fill="url(#aw)"/>
    <path d="m245.26 469.28s-10.189 11.027-12.076 28.068c-1.885 17.037 3.143 31.88 10.122 39.696 7.574 8.483 12.696 14.573 29.521 23.1 16.339 8.281 9.491 1.605 41.854 31.962 10.994 10.314 14.211 13.621 23.816 24.064 9.307 10.117 11.166 21.299 11.166 21.299s-11.383-16.481-25.263-24.985c-13.88-8.503-22.881-12.296-37.686-18.284s-25.296-10.064-37.267-16.051c-8.095-4.047-11.715-6.128-20.657-16.749-7.451-8.85-18.424-27.483-15.075-47.1 3.35-19.617 12.126-28.942 15.903-32.445 3.79-3.51 15.66-12.58 15.66-12.58z" fill="url(#ax)"/>
    <path d="m246.1 578.76s-0.123 3.989 2.167 15.294c2.29 11.306 6.756 23.589 6.756 23.589s-1.285-1.047-11.351-7.631c-5.64-3.689-25.081-11.638-45.316-14.143-15.202-1.883-15.353-0.745-15.353-0.745s-12.9-19.05-10.149-45.582c2.751-26.533 4.061-48.688 8.271-62.24s4.108-34.918 0.062-51.108c-4.046-16.191-3.349-13.364-7.676-20.64 0 0 13.818 9.901 32.661 5.57s39.5-9.357 58.622-7.961 25.68 4.607 36.429 15.214c0 0-12.703-1.906-22.193 4.327-8.507 5.587-13.652 15.959-19.68 23.029-6.188 7.258-20.398 16.128-29.206 22.976-5.862 4.558-12.006 13.653-16.156 26.898-4.188 13.367-3.097 25.058 1.396 36.29 5.397 13.493 11.083 20.972 20.285 29.778 6.52 6.23 10.44 7.08 10.44 7.08z" fill="url(#ay)"/>
    <path d="m180.49 595.31c1.784 3.219-10.119-17.866-10.092-36.155 0.024-15.853 2.807-25.475 3.881-42.636 1.256-20.075 7.935-33.309 8.165-50.456 0.211-15.777-1.598-32.253-6.141-42.151-4.544-9.899-3.35-6.073-7.258-11.865 0 0-2.283 2.591-10.868 28.613-8.583 26.023-12.861 36.643-13.977 60.995-1.115 24.352 1.396 39.282 9.212 52.721 7.83 13.46 27.09 40.95 27.09 40.95z" fill="url(#bd)"/>
    <path d="m178.26 595.87s-2.38-1.73-9.631-13.291c-7.251-11.56-11.535-16.219-15.823-25.032-4.289-8.812-9.227 2.709-14.358 15.979-5.131 13.271-2.755 35.6-13.367 45.652-6.629 6.281-18.902 8.49-20.238 9.352 3.588 4.828 18.952 23.427 36.29 24.007 22.959 0.768 20.167-14.669 37.964 4.621 11.586 12.558 14.351 14.924 21.133 20.714 0 0 6.733-5.506 15.576-11.168 8.843-5.661 14.237-9.979 23.589-9.562 0 0-9.904-5.78-19.002-14.521-9.099-8.741-14.218-17.747-27.477-23.944-13.26-6.198-23.31-8.99-32.801-9.548s-6.281-0.278-6.281-0.278-0.279-2.095 8.654-7.258c8.94-5.16 15.78-5.72 15.78-5.72z" fill="url(#az)"/>
    <path d="m180.7 703.97s2.594-1.892 7.606-11.725c4.414-8.655 10.983-13.469 10.983-13.469s-2.346-1.468-7.854-6.421c-27.907-25.094-17.227-25.682-40.605-19.122-10.499 2.946-25.271-4.642-27.776-6.35-7.972-5.429-10.974-8.355-18.843-16.68 0 0 8.781 22 16.818 32.382 8.038 10.381 21.041 20.704 27.916 25.473 6.875 4.767 19.82 12.404 24.984 13.146 5.16 0.75 6.76 2.77 6.76 2.77z" fill="url(#ba)"/>
    <path transform="matrix(.78341 0 0 .78341 101.66 397.36)" d="m177.14 79.857a12.857 12.143 0 1 1 -25.714 0 12.857 12.143 0 1 1 25.714 0z" fill="#fff" filter="url(#b)" opacity=".6921"/>
    <path transform="matrix(.44123 0 0 .44123 126.54 402.06)" d="m177.14 79.857a12.857 12.143 0 1 1 -25.714 0 12.857 12.143 0 1 1 25.714 0z" fill="#fff" filter="url(#b)" opacity=".7621"/>
    <path transform="matrix(1.1198 0 0 1.1198 211.39 509.68)" d="m177.14 79.857a12.857 12.143 0 1 1 -25.714 0 12.857 12.143 0 1 1 25.714 0z" fill="#fff" filter="url(#b)" opacity=".56452"/>
    <path transform="matrix(.44123 0 0 .44123 119.83 461.38)" d="m177.14 79.857a12.857 12.143 0 1 1 -25.714 0 12.857 12.143 0 1 1 25.714 0z" fill="#fff" filter="url(#b)" opacity=".7621"/>
    <path transform="matrix(.71062 0 0 .55775 186.45 398.35)" d="m177.14 79.857a12.857 12.143 0 1 1 -25.714 0 12.857 12.143 0 1 1 25.714 0z" fill="#fff" filter="url(#b)" opacity=".7621"/>
   </g>
  </g>
 </g>
</svg>
