<?xml version="1.0" encoding="UTF-8"?>
<svg viewBox="0 0 167.25 207.15" xmlns="http://www.w3.org/2000/svg">
 <g transform="rotate(-19.55 73.625 100.58)">
  <g fill-rule="evenodd">
   <path d="m73.5-2.1879c-13.698 0-24.812 11.114-24.812 24.812 0 11.298 7.5715 20.816 17.906 23.812v10.156h-3.0625c-2.301 0-4.2149 1.595-4.6875 3.75h-32.031c-1.5893-5.8234-5.5216-9.9688-10.125-9.9688-6.0069 0-10.906 7.032-10.906 15.688 0 8.6555 4.8994 15.688 10.906 15.688 4.6688 0 8.6437-4.264 10.188-10.219h31.969c0.48254 2.1414 2.3962 3.75 4.6875 3.75h1.125c-3.3922 38.936 0.0289 93.703-11.875 95.219-13.376 1.0909-40.054-27.202-38.25-29.312 1.7882-0.8941 7.266-0.61035 8.5625-0.53125l8.125-6.5625-40.406-20.688 2.2812 51.5 0.8438-0.6875c4.024-5.5696 9.219-14.469 9.9688-15.719 3.5193 10.274 11.588 21.256 18.344 30.562 11.364 14.9 42.516 32.046 72.719 20.469 28.712-8.2788 35.267-35.115 48.594-50.781 0.67078 1.1179 4.8901 8.3705 8.6562 13.875l3.0312 2.3438 1.1875-51.562-39.969 21.562 7.3437 5.6875c1.1768-0.073425 6.8096-0.37646 8.625 0.53125 2.9152 4.9343-20.15 22.683-24.594 25.5-17.678 8.5863-19.201 2.0474-20.969-5.7812-1.5572-6.8962-4.3284-69.979-5-85.625h1.5938c2.2914 0 4.205-1.6086 4.6875-3.75h31.969c1.5438 5.9547 5.5187 10.219 10.188 10.219 6.0069 0 10.906-7.0319 10.906-15.688 0-8.6555-4.8994-15.688-10.906-15.688-4.6034 0-8.5357 4.1453-10.125 9.9688h-32.031c-0.47253-2.155-2.3865-3.75-4.6875-3.75h-3.0625v-10.156c10.335-2.9967 17.906-12.515 17.906-23.812 0-13.698-11.114-24.812-24.812-24.812zm0 11c7.6239 0 13.812 6.1887 13.812 13.812 0 7.6238-6.1886 13.812-13.812 13.812-7.6239 0-13.812-6.1887-13.812-13.812 0-7.6238 6.1886-13.812 13.812-13.812z" fill="#2c416b" stroke="#000" stroke-width="1.624"/>
   <path d="m73.625 0.625c-2.9681 0.078491-6.317 0.57141-10 1.6875-0.35715 0.35718 0.35268 2.8304 6.7812 0.6875 6.4286-2.1429 18.562 2.8616 16.062 0.71875-1.7188-1.4732-6.314-3.2664-12.844-3.0938zm4.2188 46.25l-0.75 0.09375c-0.13089 0.017822-0.22479 0.60217-0.21875 1.2812l0.25 7.8125c0.005997 0.67914 0.11914 1.2053 0.25 1.1875l0.71875-0.09375c0.13086-0.017822 0.22479-0.60217 0.21875-1.2812l-0.21875-7.8125c-0.005997-0.67908-0.11914-1.2053-0.25-1.1875zm-57.094 6.8438c-2.0089 0-4.3425 1.2623-4.625 1.125-1.7472 3.1915 2.4816 3.875 3.9062 3.875 1.4286 0 2.8616-5 0.71875-5zm110.34 0c-2.1429 0-0.74107 5 0.6875 5s5.7232-0.69196 3.9375-3.9062c0 0.35712-2.4821-1.0938-4.625-1.0938zm-47.875 5.125l-19.719 0.15625c-0.72171 0.005981-1.2689 0.1206-1.25 0.25v0.0625l-0.28125 0.0625c-0.12942 0.018921-0.22472 0.59082-0.21875 1.3125l0.03125 3.125c0.005997 0.72168 0.12058 1.3002 0.25 1.2812l0.9375-0.15625c0.12942-0.018921 0.22472-0.62207 0.21875-1.3438l-0.03125-3.0938c-8.24e-4 -0.099915-0.026749-0.15717-0.03125-0.25 0.18161 0.015076 0.34616 0.03302 0.5625 0.03125l19.719-0.15625c0.18721-0.002014 0.31-0.048523 0.46875-0.0625-0.013901 0.16473-0.033051 0.30609-0.03125 0.5l0.09375 10.938c-0.22891-0.030884-0.49956-0.065125-0.8125-0.0625l-3.125 0.03125c-0.72171 0.005981-1.2689 0.1206-1.25 0.25l0.125 0.9375c0.01889 0.12946 0.62207 0.22473 1.3438 0.21875l3.0938-0.03125c0.3132-0.002991 0.59308-0.059143 0.8125-0.09375 0.020294 0.025696 0.04071 0.065491 0.0625 0.0625l0.875-0.125c0.13089-0.017822 0.22479-0.57092 0.21875-1.25l-0.09375-11.062c-0.005997-0.67914-0.11914-1.2053-0.25-1.1875l-0.34375 0.0625-0.03125-0.1875c-0.01889-0.1294-0.62207-0.22473-1.3438-0.21875zm34.469 3.2188l-26.75 0.21875c-0.67911 0.005981-1.2053 0.11914-1.1875 0.25l0.09375 0.75c0.017792 0.13086 0.57089 0.22479 1.25 0.21875l26.75-0.25c0.67911-0.005981 1.2053-0.11914 1.1875-0.25l-0.09375-0.71875c-0.017807-0.13086-0.57091-0.22479-1.25-0.21875zm-62.875 0.34375l-26.719 0.25c-0.67909 0.005981-1.2365 0.11914-1.2188 0.25l0.125 0.71875c0.017792 0.13086 0.57091 0.22479 1.25 0.21875l26.75-0.21875c0.67911-0.005981 1.2053-0.11914 1.1875-0.25l-0.09375-0.75c-0.017792-0.13086-0.60214-0.22479-1.2812-0.21875zm23.312 12.469c-0.076233-0.00354-0.13849 0.017761-0.21875 0.03125l-0.15625 0.03125c-0.64197 0.10791-1.1524 0.72766-1.125 1.4062l3.4062 84.344c0.027405 0.67859 0.57678 1.1392 1.2188 1.0312l0.15625-0.03125c0.64198-0.10791 1.1211-0.72766 1.0938-1.4062l-3.4062-84.344c-0.023972-0.59375-0.43518-1.0375-0.96875-1.0625zm-82.188 45.594c-0.32434 0.073181-0.61339 0.25616-0.8125 0.53125-0.39822 0.55011-0.25211 1.2679 0.34375 1.5938l22.625 12.375c0.59587 0.32581 1.4143 0.14386 1.8125-0.40625 0.39822-0.55011 0.22086-1.2679-0.375-1.5938l-22.625-12.375c-0.29794-0.1629-0.64441-0.19818-0.96875-0.125zm153.78 0c-0.16504 0.020264-0.31978 0.043518-0.46875 0.125l-22.625 12.375c-0.59587 0.32581-0.74197 1.0436-0.34375 1.5938 0.39822 0.55011 1.1854 0.73206 1.7812 0.40625l22.625-12.375c0.59587-0.32581 0.74197-1.0436 0.34375-1.5938-0.29866-0.4126-0.81737-0.5921-1.3125-0.53125z" fill="#fff" stroke-width=".638"/>
  </g>
 </g>
</svg>
