<?xml version="1.0" encoding="UTF-8"?>
<svg version="1.1" viewBox="0 0 502.5 436.22" xmlns="http://www.w3.org/2000/svg">
 <g transform="translate(-109.41 -315.94)">
  <path d="m171.41 315.94-0.25 0.6875c-0.21924 0.60065-1.4382 1.9242-2.5 3.9062-1.0618 1.9821-1.9117 4.7317-1.4062 8.5312 1.0051 7.555 7.2166 19.244 26.812 38.5-0.67182 4.237-2.1243 8.2321-0.8125 14.156 1.3361 6.0336 5.5373 13.98 16 26.469-1.7522 6.0828-0.43315 12.562 3.0938 19.25 3.5578 6.7472 9.3474 13.756 16.469 20.938-1.8024 7.4768 0.76767 14.111 5.5 20.062 4.7454 5.9678 11.621 11.356 18.469 16.75-1.5401 7.2254 0.77311 13.542 5.4375 19.031 4.7299 5.5661 11.826 10.409 19.75 15 5.5652 12.226 11.903 24.154 26.469 28.969 5.4644 14.796 13.642 18.419 21.469 22 1.149 5.0469 3.8519 8.8294 7.5 11.75 3.5389 2.8332 7.952 4.8656 12.594 6.6562-10.594 19.651-18.78 29.622-28.188 44.406-40.671-1.6137-75.963-1.9445-100.53 0.3125-12.327 1.1324-21.961 2.8793-28.281 5.5312-3.16 1.326-5.5095 2.892-6.9375 4.7812-1.3828 1.8294-1.7772 4.0104-1.1562 6.3125-0.10254 5.1593 1.15 10.317 7.0938 14.344-3.5495 4.2531-6.3544 8.6748-6.7812 13.531-0.43689 4.9701 1.6748 10.244 7.4062 15.875-3.0897 6.793-3.5304 12.209-1.5312 16.344 1.9883 4.1127 6.2628 6.7841 11.969 8.5312 0.23988 6.0134 1.9024 11.08 5.5625 14.688 3.7141 3.661 9.3804 5.7776 17.281 6.0938 5.3794 7.0591 11.741 11.355 19.094 12.5 7.3754 1.1488 15.679-0.8672 24.906-6.0625 9.8837 3.6232 18.993 2.3856 27-1.7812 8.1015-4.2162 15.127-11.352 21-19.438 11.607-15.98 18.703-35.496 20.594-43.719 16.425-8.4108 29.809-16.182 54.406-26.25 0.0238-0.01 0.0387-0.0214 0.0625-0.0313l95.844-31.312 0.0937-0.0313 0.0625-0.0313c19.147-10.462 30.475-31.032 37.656-50.906 7.1686-19.839 10.216-39.079 12.594-46.938 9e-3 -0.0234 0.0217-0.0393 0.0313-0.0625 1.6187-3.9912 3.8251-6.2262 6.5-7.375 2.6904-1.1555 5.9073-1.2166 9.4688-0.625 7.1228 1.1831 15.496 4.9675 23.219 7.0312l1.3438 0.375-0.40625-1.3438c-4.5245-14.312-8.7141-26.904-12.25-36.25-1.768-4.6731-3.3618-8.5213-4.7812-11.406-1.397-2.8392-2.533-4.709-3.7812-5.5938-0.0249-0.0213-0.0377-0.0413-0.0625-0.0625-9.833-8.3963-16.499-11.846-21.844-13.062-4.9266-1.1216-8.653-0.33546-12.406 0.0937 4.0389-24.948 7.1125-46.959 8.125-62.625 0.51351-7.9454 0.51173-14.263-0.1875-18.625-0.34961-2.181-0.8603-3.8588-1.6562-5.0625-0.78311-1.1843-1.9863-1.8972-3.3125-1.75-0.0217 2e-3 -0.0407-3e-3 -0.0625 0-4.613 0.10978-7.9241 2.2612-10.281 5.5-2.2571 3.1014-3.7003 7.1979-4.875 11.594-1.4331-0.0986-2.897-0.40006-4.5625-0.375-1.8827 0.0283-3.979 0.5878-6.3125 2.5-4.6432 3.805-10.432 12.821-19.469 33.875-3.4724 1.5341-7.1548 2.9202-10.5 6.6562-3.3712 3.7652-6.3439 9.8776-8.6562 20.719-3.5552 0.66378-7.0357 2.1857-9.9688 5.8438-3.0242 3.7716-5.4957 9.7371-7.1875 19.156-1.8777 0.20923-3.6065 1.0783-5.125 2.5312-1.7004 1.627-3.2002 3.8593-4.625 6.4688-2.77 5.073-5.201 11.554-7.6875 17.719-7.6859-0.28945-13.357-3.2832-18.406-7.375-5.1205-4.1494-9.6039-9.3901-14.75-13.812-18.355-31.972-29.97-47.084-40.625-59.781l-0.0625-0.0625-0.06-0.09c-33.02-25.17-76.12-42.29-111.03-61.56-32.35-17.85-50.1-37.7-66.88-42.41l-0.6875-0.1875z" color="#000000" fill="#fff" style="block-progression:tb;text-indent:0;text-transform:none"/>
  <path d="m263.86 387.48c-4.7994 0.37579-7.4484 7.3416-8.5008 11.003-1.2952 4.5068-0.18091 16.106 8.1433 18.114l5.4818 15.373-2.1848 9.891-24.907 84.73c-13.274-8.2583-28.936-13.029-45.722-13.029-47.904 0-86.756 38.852-86.756 86.756s38.852 86.716 86.756 86.716 86.716-38.812 86.716-86.716c0-24.092-9.8075-45.889-25.661-61.611l4.8065-16.366 95.336 65.385c-2.2526 4.7631-3.4956 10.073-3.4956 15.691 0 20.314 16.47 36.784 36.784 36.784 2.5392 0 5.0339-0.26478 7.4283-0.75481l3.3765 5.5216h-2.1848v19.742h10.964c1.3419 6.3656 13.322 6.345 16.128 0h9.1364v-19.027h-14.261l-5.7996-15.055c5.7137-5.2089 9.7806-12.205 11.321-20.1l12.275-0.0394c5.0278 43.119 41.689 76.547 86.16 76.547 47.904 0 86.716-38.812 86.716-86.716s-38.812-86.756-86.716-86.756c-11.584 0-22.628 2.3127-32.732 6.4352l-28.402-54.381-5.879-3.6545 5.4818-11.718c42.722-4.3424 38.06-24.388 40.279-44.252h-91.125c-22.003-1.1788-21.399 20.846-9.8911 28.521l41.352 11.718-5.4818 14.261-157.03-1.43 4.4093-17.2c0.42213-1.6466 2.0285-6.4701 1.8199-12.942-0.20857-6.4714-2.9973-14.217-1.5418-14.626 2.6267-0.7386 23.874-0.27806 23.874-0.27806l-0.35751-23.397-42.464-2.2245c-1.3442-0.73729-2.547-1.0004-3.6545-0.91363zm12.076 91.324 154.44 1.1123-34.122 87.153c-1.8264-0.27902-3.6966-0.43689-5.601-0.43689-2.1525 0-4.2648 0.20122-6.316 0.55612l-4.3298-11.679 4.6079 1.2314v-19.385l-14.62 0.01c-3.0111-5.6858-11.608-5.1562-14.261 0.35757h-8.0638v18.67l11.321 0.35745 5.5215 13.188-97.004-66.616zm175.66 2.9395 24.43 47.112c-20.516 14.147-34.658 36.902-37.181 63.041h-13.268c-2.372-7.1844-6.8752-13.415-12.791-17.876zm-255.42 56.129c14.489 0 27.818 4.949 38.412 13.228l-8.0638 19.941c-4.8797 6.0288-8.318 9.5655-13.161 12.069-11.33 5.8567-12-0.95374-16.821 0.35859-16.689 4.5433-7.6287 20.431 1.4613 21.973 16.915 1.8231 23.806-4.6482 35.808-15.468 5.198-4.7493 10.284-11.175 15.038-22.586l0.0596-0.19856 0.0596-0.19868c6.1025 9.6466 9.6528 21.068 9.6528 33.328 0 34.491-27.954 62.445-62.445 62.445s-62.485-27.954-62.485-62.445 27.994-62.445 62.485-62.445zm329.03 0c34.491 0 62.445 27.954 62.445 62.445s-27.954 62.445-62.445 62.445c-31.063 0-56.87-22.654-61.69-52.355l56.526-0.19868c11.476 1.437 14.645-4.8918 12.473-16.128l-28.402-52.514c6.5889-2.3615 13.694-3.6942 21.093-3.6942zm-37.856 12.791 21.371 41.233h-45.404c2.2719-16.777 11.182-31.438 24.033-41.233z" fill-opacity="0"/>
  <path d="m171.41 315.94-0.25 0.6875c-0.21924 0.60065-1.4382 1.9242-2.5 3.9062-1.0618 1.9821-1.9117 4.7317-1.4062 8.5312 1.0051 7.555 7.2166 19.244 26.812 38.5-0.67182 4.237-2.1243 8.2321-0.8125 14.156 1.3361 6.0336 5.5373 13.98 16 26.469-1.7522 6.0828-0.43315 12.562 3.0938 19.25 3.5578 6.7472 9.3474 13.756 16.469 20.938-1.8024 7.4768 0.76767 14.111 5.5 20.062 4.7454 5.9678 11.621 11.356 18.469 16.75-1.5401 7.2254 0.77311 13.542 5.4375 19.031 4.7299 5.5661 11.826 10.409 19.75 15 5.5652 12.226 11.903 24.154 26.469 28.969 5.4644 14.796 13.642 18.419 21.469 22 1.149 5.0469 3.8519 8.8294 7.5 11.75 3.5389 2.8332 7.952 4.8656 12.594 6.6562-10.594 19.651-18.78 29.622-28.188 44.406-40.671-1.6137-75.963-1.9445-100.53 0.3125-12.327 1.1324-21.961 2.8793-28.281 5.5312-3.16 1.326-5.5095 2.892-6.9375 4.7812-1.3828 1.8294-1.7772 4.0104-1.1562 6.3125-0.10254 5.1593 1.15 10.317 7.0938 14.344-3.5495 4.2531-6.3544 8.6748-6.7812 13.531-0.43689 4.9701 1.6748 10.244 7.4062 15.875-3.0897 6.793-3.5304 12.209-1.5312 16.344 1.9883 4.1127 6.2628 6.7841 11.969 8.5312 0.23988 6.0134 1.9024 11.08 5.5625 14.688 3.7141 3.661 9.3804 5.7776 17.281 6.0938 5.3794 7.0591 11.741 11.355 19.094 12.5 7.3754 1.1488 15.679-0.8672 24.906-6.0625 9.8837 3.6232 18.993 2.3856 27-1.7812 8.1015-4.2162 15.127-11.352 21-19.438 11.607-15.98 18.703-35.496 20.594-43.719 16.425-8.4108 29.809-16.182 54.406-26.25 0.0238-0.01 0.0387-0.0214 0.0625-0.0313l95.844-31.312 0.0937-0.0313 0.0625-0.0313c19.147-10.462 30.475-31.032 37.656-50.906 7.1686-19.839 10.216-39.079 12.594-46.938 9e-3 -0.0234 0.0217-0.0393 0.0313-0.0625 1.6187-3.9912 3.8251-6.2262 6.5-7.375 2.6904-1.1555 5.9073-1.2166 9.4688-0.625 7.1228 1.1831 15.496 4.9675 23.219 7.0312l1.3438 0.375-0.40625-1.3438c-4.5245-14.312-8.7141-26.904-12.25-36.25-1.768-4.6731-3.3618-8.5213-4.7812-11.406-1.397-2.8392-2.533-4.709-3.7812-5.5938-0.0249-0.0213-0.0377-0.0413-0.0625-0.0625-9.833-8.3963-16.499-11.846-21.844-13.062-4.9266-1.1216-8.653-0.33546-12.406 0.0937 4.0389-24.948 7.1125-46.959 8.125-62.625 0.51351-7.9454 0.51173-14.263-0.1875-18.625-0.34961-2.181-0.8603-3.8588-1.6562-5.0625-0.78311-1.1843-1.9863-1.8972-3.3125-1.75-0.0217 2e-3 -0.0407-3e-3 -0.0625 0-4.613 0.10978-7.9241 2.2612-10.281 5.5-2.2571 3.1014-3.7003 7.1979-4.875 11.594-1.4331-0.0986-2.897-0.40006-4.5625-0.375-1.8827 0.0283-3.979 0.5878-6.3125 2.5-4.6432 3.805-10.432 12.821-19.469 33.875-3.4724 1.5341-7.1548 2.9202-10.5 6.6562-3.3712 3.7652-6.3439 9.8776-8.6562 20.719-3.5552 0.66378-7.0357 2.1857-9.9688 5.8438-3.0242 3.7716-5.4957 9.7371-7.1875 19.156-1.8777 0.20923-3.6065 1.0783-5.125 2.5312-1.7004 1.627-3.2002 3.8593-4.625 6.4688-2.77 5.073-5.201 11.554-7.6875 17.719-7.6859-0.28945-13.357-3.2832-18.406-7.375-5.1205-4.1494-9.6039-9.3901-14.75-13.812-18.355-31.972-29.97-47.084-40.625-59.781l-0.0625-0.0625-0.06-0.09c-33.02-25.17-76.12-42.29-111.03-61.56-32.35-17.85-50.1-37.7-66.88-42.41l-0.6875-0.1875zm0.78125 1.875c15.823 4.7322 33.803 24.275 66.031 42.062 34.996 19.315 77.961 36.408 110.72 61.344 10.636 12.674 22.175 27.64 40.531 59.625l0.0625 0.125 0.0937 0.0937c5.0741 4.3362 9.5883 9.6281 14.906 13.938 5.318 4.3094 11.5 7.6068 19.844 7.7812l0.53125 0.0313 0.1875-0.5c2.5735-6.3503 5.0807-13.065 7.8438-18.125 1.3815-2.5302 2.8261-4.6416 4.3438-6.0938s3.0748-2.2308 4.75-2.25h0.625l0.125-0.625c1.6685-9.5703 4.103-15.402 6.9375-18.938 2.8345-3.5351 6.029-4.8382 9.5312-5.4062l0.53125-0.0937 0.125-0.53125c2.2965-11.021 5.2333-16.925 8.4062-20.469 3.173-3.5437 6.6082-4.7979 10.219-6.4062l0.28125-0.125 0.125-0.28125c9.0839-21.21 14.967-30.104 19.188-33.562 2.1103-1.7293 3.7319-2.132 5.3438-2.1562s3.2404 0.40536 5.0938 0.4375h0.59375l0.15625-0.5625c1.1879-4.5722 2.6198-8.7488 4.7812-11.719 2.1614-2.9699 4.9551-4.7616 9.1562-4.8438h0.0625l0.0313-0.0313c0.79961-0.10509 1.321 0.17739 1.9062 1.0625 0.58527 0.88511 1.0752 2.4036 1.4062 4.4688 0.6621 4.1304 0.69749 10.39 0.1875 18.281-1.02 15.782-4.1592 38.095-8.2812 63.469l-0.15625 1 1-0.0937c4.2611-0.39328 7.8926-1.3914 12.906-0.25 5.0136 1.1414 11.48 4.4276 21.25 12.781l0.0313 0.0313 0.0625 0.0313c0.65325 0.44473 1.8993 2.2538 3.2812 5.0625 1.382 2.8087 2.9919 6.6343 4.75 11.281 0.69874 1.8469 1.4381 3.9001 2.1875 6-3.3364 9.5176-11.037 15.016-18.812 21.844-1.3594 0.15996-2.6764 0.47179-3.9062 1-3.0788 1.3223-5.6422 3.9365-7.375 8.25v0.0313l-0.0313 0.0313c-2.4754 8.1475-5.4735 27.263-12.594 46.969-7.1045 19.662-18.262 39.802-36.812 50-0.0205 0.0113-0.042 0.0199-0.0625 0.0313l-95.844 31.312h-0.0313l-0.0313 0.0313c-24.88 10.15-38.36 17.99-54.89 26.44l-0.3125 0.15625-0.0625 0.34375c-1.7115 7.7078-8.9015 27.606-20.469 43.531-5.7836 7.9628-12.679 14.946-20.469 19-7.7899 4.054-16.435 5.2288-26.062 1.5938l-0.34375-0.15625-0.3125 0.1875c-9.1594 5.2184-17.203 7.124-24.219 6.0312-7.0154-1.0928-13.086-5.1695-18.344-12.188l-0.21875-0.28125-0.375-0.0313c-7.8503-0.25641-13.172-2.2837-16.594-5.6562-3.4215-3.3725-5.038-8.1529-5.1875-14.156v-0.5625l-0.53-0.15c-5.7529-1.6747-9.7162-4.2477-11.5-7.9375s-1.5129-8.6934 1.6875-15.5l0.25-0.5-0.40625-0.375c-5.8359-5.579-7.6832-10.459-7.2812-15.031 0.40195-4.5726 3.1341-8.947 6.8438-13.281l0.59375-0.6875-0.78125-0.46875c-6.1441-3.8184-7.0707-8.4019-6.9688-13.531v-0.125l-0.0313-0.125c-0.59618-1.9941-0.30023-3.6327 0.875-5.1875s3.2986-2.9853 6.3125-4.25c6.0278-2.5294 15.56-4.3119 27.812-5.4375 24.505-2.2512 59.928-1.9395 100.75-0.3125l0.3125 0.0313 0.21875-0.1875 0.0937-0.0937 0.0625-0.0937c9.5978-15.139 17.941-25.102 28.906-45.594l0.40625-0.78125-0.8125-0.3125c-4.8892-1.842-9.4294-3.9164-12.969-6.75-3.5394-2.8336-6.0812-6.3789-7.0938-11.281l-0.0937-0.40625-0.34375-0.15625c-8.0163-3.6734-15.739-6.6909-21.125-21.594l-0.125-0.375-0.375-0.0937c-14.291-4.5772-20.33-16.158-25.938-28.5l-0.12-0.23-0.22-0.12c-7.9535-4.5935-14.965-9.4079-19.531-14.781-4.5661-5.3734-6.714-11.201-5.0625-18.156l0.125-0.5-0.375-0.28125c-6.9651-5.4862-13.907-10.958-18.562-16.812-4.6556-5.8548-7.037-11.991-5.1562-19.125l0.125-0.4375-0.3125-0.3125c-7.2057-7.2314-13.007-14.251-16.5-20.875-3.4929-6.624-4.6968-12.786-2.9062-18.5l0.125-0.40625-0.25-0.34375c-10.58-12.57-14.65-20.4-15.91-26.09-1.2619-5.6986 0.23065-9.3618 0.90625-13.938l0.0313-0.375-0.28125-0.28125c-19.76-19.352-25.697-30.931-26.625-37.906-0.46396-3.4876 0.27129-5.825 1.2188-7.5938 0.79739-1.4886 1.6192-2.4212 2.1875-3.4688z" color="#000000" fill="#59f" style="block-progression:tb;text-indent:0;text-transform:none"/>
  <g fill="#59f">
   <path d="m535.22 489.66a8.7572 9.1459 0 0 1 -17.514 0 8.7572 9.1459 0 1 1 17.514 0z"/>
   <path d="m517.94 379.78c-4.2768-0.43908-21.162 36.563-26.188 46.344l8.3125-33.938c-15.163 7.6948-22.977 42.435-30.469 78.281-1.4242-13.943-3.3799-28.087 2.7812-39.5-11.086-0.2419-15.304 23.123-17.312 54.031-4.0011-9.006-5.9712-17.995-3.4688-27-7.9504 4.3543-9.1566 22.21-10.844 36.594l-5.06-12.34c-3.8136 4.1056-7.633 8.207-7.625 18.688 43.028 3.1346 56.467-39.21 84.25-43.356 5.1908-33.152 12.996-77.044 5.625-77.801zm-304.44 30.13c4.172 28.253 43.722 41.465 76.812 57.438-21.282-3.8659-40.314-9.9707-56.062-19.375 13.427 34.008 50.133 42.516 71.969 48.812-12.662-0.10031-26.055 0.46345-45.688-10.719 10.464 29.073 50.797 31.715 83.75 40.875-18.562 2.5368-38.172 0.45496-59.5-9 14.235 21.693 44.579 26.276 74.031 31.844-17.14 1.8893-31.986 1.1023-43.594-3.4688 10.507 20.493 34.831 17.921 58.812 15.938-11.766 5.3105-24.904 6.9218-39.438 4.8438 5.2094 10.445 19.478 16.709 62.281 9.7188 17.952-5.9952 29.805-19.654 36.688-39.5-34.74 1.68-73.16-26.23-79.06-35.56-28.37-52.55-43.63-57.59-62.81-62.78-52.23-8.53-63.35-15.83-78.19-29.06zm313.5 106.97c-19.724 19.972-35.462 62.611-52.969 76.562-16.875 14.886-55.811 25.661-97.219 36-12.763 5.0477-40.928 16.404-60.906 41.906-9.454 25.701-22.082 48.509-42.562 64.094 34.154-19.274 45.627-30.872 53.902-60.033 19.822-12.754 23.496-17.136 40.566-26.217 24.614-10.968 45.479-12.597 68.156-18.719 24.132-7.4319 44.732-19.586 60.562-38.094 16.089-19.966 20.954-49.776 30.469-75.5zm-334.97 144.4c-3.6947 3.4294-4.2715 7.7286-3.4688 12.469 29.271 0.10801 58.479-0.45302 86.844-12.125-27.562 2.016-54.935 5.5754-83.375-0.34375zm82.875 16.281c-28.388 8.2225-56.839 16.523-79.781 13.844-1.9345 2.8861-1.1435 6.662 0 9.375 35.103 0.38093 57.384-11.792 79.781-23.219zm-1.75 12.281c-18.217 14.418-42.224 22.654-68 23.75 1.2841 3.2324 2.12 6.8118 6.9375 8.3125 50.483-13.743 48.668-21.072 61.062-32.062zm15.75 8.8438c-21.893 17.918-42.358 30.091-60.562 33.25 3.8731 3.615 7.0418 5.2781 9.6875 6.75 22.73-12.254 40.12-24.98 50.875-40z"/>
  </g>
 </g>
</svg>
