<?xml version="1.0" encoding="UTF-8"?>
<svg enable-background="new 0 0 595.3 841.9" version="1.1" viewBox="0 0 595.3 841.9" xml:space="preserve" xmlns="http://www.w3.org/2000/svg"><style type="text/css">
	.st0{fill:#030104;}
</style><path d="m164.07 607.82c-16.459-0.0377-33.03-0.33161-49.422-0.16189 5.4836 10.383 12.676 19.838 19.294 29.542 15.177 21.339 33.084 42.141 57.111 53.668 15.135 7.3026 32.408 8.8454 48.928 6.817 19.382-1.7721 38.858-4.9858 58.345-2.5806 21.675 2.1372 44.066 6.1623 65.488 0.17728 17.954-5.7926 32.688-18.437 45.966-31.406 15.905-15.949 30.401-36.728 41.534-56.27-95.344-0.72946-191.9 0.84375-287.24 0.21526z" fill="#800000"/><path d="m373.05 202.72c-18.217 0.29029-36.285 4.9265-52.398 13.432-10.735 5.0014-21.523 10.306-30.258 18.477-16.183 14.036-26.352 34.352-28.698 55.579-1.049 8.4654-1.3774 17.087-1.0693 25.57 2.963 8.4144 5.408 17.147 8.6938 25.363 10.147 11.273 22.997 20.564 37.934 24.115 14.274 3.4732 29.155 1.0562 43.422-1.238 20.085-3.4507 40.063-12.099 53.941-27.401 5.3498-5.5845 8.983-12.599 14.043-18.341 4.9532-2.8588 9.0845-7.2581 14.214-10.009 12.524-7.7346 26.687-12.674 41.212-14.842 2.0385-1.198 2.2242-4.9258 5.3488-4.2468 1.216-0.0715 3.7979 0.22359 2.9794-1.7307 0.20886-2.6672 3.539-4.6902 1.409-7.3291-13.137-37.355-46.307-67.284-85.337-75.028-8.3558-1.7369-16.906-2.5198-25.438-2.3702zm-40.727 28.88c-0.6813 2.2224-2.7496 4.4676-3.5166 6.9092-2.6942 5.5789-3.4971 11.736-4.7627 17.711-0.0697 0.97048-2.1255 3.4453-1.8428 0.97071 0.18623-9.1644 1.1403-20.648 10.122-25.591zm-45.11 17.957c-1.1997 4.8097-3.8368 9.4482-4.674 14.483-1.8688 6.8094-1.2201 13.967-2.4031 20.842-0.38781 1.3008-2.8241 2.7783-2.7305 0.38282-0.3791-10.608-0.45276-22.3 6.081-31.283 1.1746-1.4784 2.18-3.3379 3.7266-4.4248zm153.21 9.6602c3.2719 0.50073 7.542 1.2204 9.459 4.083-3.4195 0.76919-7.0368-1.5491-10.178-2.8389-1.856-0.73216-0.55582-1.394 0.71875-1.2442zm-78.926 12.399c9.1885 5.1845 19.925 6.05 30.254 6.6094 3.0299 0.0376 0.53803 0.95745-0.9045 1.1516-9.9638 2.355-21.451 1.0179-29.686-5.341-0.51778-0.52159-0.83119-2.5621 0.33691-2.4199zm116.57 11.532c2.7521 0.21907 0.29474 2.945-0.99903 3.498-3.9767 2.2621-8.5808 2.7174-13.104 2.916 4.6892-2.0264 9.0913-5.3274 14.103-6.4141zm-107.46 28.149c-0.96346 1.7319-3.993 2.2428-5.7904 3.2061-7.6869 3.1084-16.698 4.0796-24.583 1.2334-1.5332-0.62417-1.0065-1.9928 0.67432-1.5284 9.9462-0.062 19.916-0.72932 29.635-2.9178l0.0635 7e-3zm-90.673 11.825c-1.7011 7.212-1.9986 15.502 2.3856 21.974 7.5625 12.589 23.25 17.485 37.256 16.168 5.9859-0.17379 12.156-1.8256 17.938-1.9854-9.0364 5.248-19.95 5.0621-30.04 4.1582-12.794-2.3725-25.409-10.225-30.69-22.471-2.1736-5.8612-0.9139-13.194 3.1504-17.844z" fill="#87de87"/><path d="m229.93 313.76c-13.865-0.1702-27.761 0.94354-41.239 4.3296-19.244 4.324-37.629 12.474-53.764 23.805-30.474 21.872-49.977 56.657-56.968 93.138-3.8042 17.162-3.731 34.835-3.0143 52.304 3.6375 40.96 19.149 80.042 40.261 115.04 1.6798 2.5103 8.7104 2.1471 11.475 2.7662l325.1-1.5936c20.089-37.571 32.93-79.389 35.08-122.05 2.1303-39.721-7.0234-80.735-29.84-113.72-9.5336-14.08-21.744-26.159-35.304-36.353-2.1942-1.9477-4.6311-3.9584-5.5069-6.8818-11.855 21.255-34.209 35.04-57.516 40.395-6.1447 1.2136-12.568 0.61819-18.487 3.0322-9.7273 2.3294-19.995 2.2722-29.851 0.83608-15.944-3.1504-31.456-11.115-41.673-23.961-3.7049-8.7856-6.2179-18.065-9.8506-26.902-0.21707-2.4792-1.9441-3.3037-4.2297-3.1744-8.1647-1.1382-16.451-0.94687-24.674-1.0102z" fill="#d40000"/><path d="m278.57 207.18c-10.376 0.3072-19.765 7.8135-23.656 17.203-1.9689 7.5876-0.0555 15.543 0.16525 23.246 1.1283 13.389 2.0629 26.798 3.4236 40.166 3.4932-28.265 20.831-54.764 45.983-68.35-8.325-4.4676-15.784-12.701-25.916-12.266z" fill="#501616"/><path d="m484.56 281.47c-0.052 1.6444-1.2826 2.9429-1.914 4.4079-0.30459 0.60468-0.90284 1.2938-0.69272 1.9479-0.62121 0.50173-0.59098 0.72886-1.2604 0.72537-0.94107 0.10658-1.6306 0.47639-2.5724 0.42199-1.0951 0.0303-2.6305 0.57687-3.1701 1.4096-0.72746 0.90248-0.0145 1.7089-1.563 2.924-1.6027 0.3857-3.2646 0.52462-4.8827 0.85531-3.3392 0.6178-6.6713 1.3179-9.9364 2.22 0.52766-0.0251 1.124-0.2401 1.672-0.34547 4.3552-1.0554 9.8919-2.0945 14.348-2.6339 1.3894-0.75476 0.58015-0.66885 2.4222-1.2296 0.85765-0.39606 1.2846-0.73712 1.8352-0.99485 0.51575-0.24139 1.156-0.40174 1.905-0.69336 0.90787-0.32823 1.4209 0.10272 2.1305-0.49455 0.26142-0.17635 0.16914-1.1177 0.29769-1.5461 0.21371-0.71228 0.32284-1.6154 0.59032-2.1858 0.33973-0.85565 0.4311-1.618 0.57785-2.5177 0.22224-0.45325 0.36698-0.85313 0.53468-1.3245-0.0892-0.31564-0.17116-0.66218-0.32158-0.94641z" fill="#87de87"/><path class="st0" d="m425.46 440.12c4.8044 23.726 3.4088 48.854-3.7439 72.041-0.99637 2.9797 0.89063 6.4984 3.9232 7.2926 9.7135-25.541 14.262-56.108-0.17937-79.334" fill="#fff"/><path class="st0" d="m156.31 650.67c28.289 16.298 47.076 18.554 54.308 7.063 0.79622-1.6554 18.742 15.642 19.371 30.033-24.328 2.1373-29.207 1.3956-73.678-37.096" fill="#fff" opacity=".23"/></svg>
