<?xml version="1.0" encoding="UTF-8"?>
<svg width="512" height="512" version="1.1" viewBox="0 0 512.00001 512.00001" xmlns="http://www.w3.org/2000/svg">
 <defs>
  <style type="text/css"/>
  <style type="text/css"/>
  <linearGradient id="c" x1="-163.06" x2="-192.62" y1="973.87" y2="870.6" gradientTransform="matrix(.74116 -.37297 .33 .76127 21.612 -402.9)" gradientUnits="userSpaceOnUse">
   <stop stop-color="#e33a4b" offset="0"/>
   <stop stop-color="#d22436" stop-opacity=".54902" offset="1"/>
  </linearGradient>
  <linearGradient id="d" x1="284.75" x2="119.19" y1="974.63" y2="810.63" gradientTransform="matrix(.82972 0 0 .82972 25.849 -429.38)" gradientUnits="userSpaceOnUse">
   <stop stop-color="#6f0102" offset="0"/>
   <stop stop-color="#6f0102" stop-opacity="0" offset="1"/>
  </linearGradient>
 </defs>
 <g transform="scale(1.1243)">
  <circle transform="scale(-1,1)" cx="-227.69" cy="227.69" r="227.69" fill="#212121"/>
  <path d="m225.53 353.87a242 190 0 0 0 -142.68 37.279 227.69 227.69 0 0 0 144.85 52.242 227.69 227.69 0 0 0 142.94 -50.697 242 190 0 0 0 -145.1 -38.824z" fill="#fff"/>
  <path d="m117.76 257.21c20.59 109.16 82.145 171.52 194.59 154.41-34.266-62.385-0.65613-93.016 21.327-133.53l-63.419-97.259c-34.645 37.894-60.108 77.752-152.5 76.38z" fill="#212121"/>
  <path d="m124.4 256.04c22.705 100.42 72.354 162.49 176.2 147.44-32.159-58.549 5.8085-89.827 26.44-127.85l-52.104-26.132c-32.515 35.564-63.828 7.8242-150.53 6.537z" fill="#ffb928"/>
  <path d="m138.48 261.9c28.164 96.324 57.1 141.96 149.21 135.71-32.159-58.549 9.3287-91.001 29.96-129.02l-51.078-10.235c-32.515 35.564-41.386 4.8337-128.09 3.5465z" fill="#212121"/>
  <path d="m145.12 263.15c30.149 94.008 48.269 131.38 135.94 130.32-32.159-58.549 10.573-88.926 31.204-126.95l-42.188-11.664c-32.515 35.564-38.245 9.5824-124.95 8.2952z" fill="url(#d)"/>
  <path d="m114.37 257.2c97.482 59.511 195.96 61.37 291.52 44.867-164.43-114.68-204.12-60.247-291.52-44.867z" fill="#212121"/>
  <path d="m124.4 256.04c91.812 53.232 185.46 53.241 279.46 43.01-157.62-109.93-195.67-57.754-279.46-43.01z" fill="#ffb928"/>
  <path d="m168.78 322.69c-0.80036-0.0218-1.5514 1e-3 -2.2734 0.0488 17.058 39.229 36.898 60.656 75.799 67.9 1.6798-8.2341-0.66573-19.04-9.9883-32.443-13.605-19.561-46.755-35.049-63.537-35.506z" fill="url(#c)"/>
  <path d="m306.92 67.331a85.511 98.766 0 0 0 -85.51 98.766 85.511 98.766 0 0 0 11.604 49.436h147.84a85.511 98.766 0 0 0 11.574 -49.436 85.511 98.766 0 0 0 -85.512 -98.766z" fill="#212121"/>
  <path d="m298.63 68.991a85.511 98.766 0 0 0 -85.512 98.766 85.511 98.766 0 0 0 10.783 47.775h149.54a85.511 98.766 0 0 0 10.695 -47.775 85.511 98.766 0 0 0 -85.512 -98.766z" fill="#fff"/>
  <circle cx="303.82" cy="161.56" r="32.855" fill="#212121"/>
  <path d="m163.86 67.331a85.511 98.766 0 0 0 -85.51 98.766 85.511 98.766 0 0 0 11.604 49.436h147.84a85.511 98.766 0 0 0 11.574 -49.436 85.511 98.766 0 0 0 -85.512 -98.766z" fill="#212121"/>
  <path d="m155.56 68.991a85.511 98.766 0 0 0 -85.512 98.766 85.511 98.766 0 0 0 10.783 47.775h149.54a85.511 98.766 0 0 0 10.695 -47.775 85.511 98.766 0 0 0 -85.512 -98.766z" fill="#fff"/>
  <circle cx="160.76" cy="161.56" r="32.855" fill="#212121"/>
 </g>
</svg>
