<?xml version="1.0" encoding="utf-8"?>
<!-- Generator: Adobe Illustrator 24.0.2, SVG Export Plug-In . SVG Version: 6.00 Build 0)  -->
<svg version="1.1" id="Warstwa_2_1_" xmlns="http://www.w3.org/2000/svg" xmlns:xlink="http://www.w3.org/1999/xlink" x="0px"
	 y="0px" viewBox="0 0 2433.6799316 2160" style="enable-background:new 0 0 2433.6799316 2160;" xml:space="preserve">
<style type="text/css">
	.st0{fill:#F6DA73;stroke:#1D1D1B;stroke-width:6.0111051;stroke-miterlimit:10;}
	.st1{fill:none;stroke:#1D1D1B;stroke-width:6.0111051;stroke-miterlimit:10;}
	.st2{fill:#1D1D1B;}
	.st3{fill:#F6F5F0;stroke:#1D1D1B;stroke-width:6.0037999;stroke-miterlimit:10;}
</style>
<g>
	<path class="st0" d="M232.3379059,199.1226501l27.827652,102.4720459l49.4866943,141.3905029
		c0,0,50.5946655,124.5722961,37.6297913,258.7245178c0,0-315.3507996,782.3894043,718.520813,981.9785156
		c0,0,834.2824707,167.6547852,1173.5841064-522.923584l-56.0969238-119.2391357
		c0,0-534.1090088,129.1407471-705.4674072,135.364502c-109.2495117,3.9678955-218.5072021-9.8267822-324.2927246-37.4060059
		c-488.9262695-127.4678955-678.0905762-452.0144043-678.0905762-452.0144043l-83.4411011-417.4602356L232.3379059,199.1226501z"/>
	<g>
		<path class="st1" d="M396.3659973,257.7283936"/>
		<path class="st2" d="M2262.7084961,1111.9157715c0,41.2972412-22.7758789,70.7679443-57.574707,70.7679443
			c-34.798584,0-63.0085449-33.4780273-63.0085449-74.7752686s28.2099609-74.7752686,63.0085449-74.7752686
			C2239.9326172,1033.1331787,2262.7084961,1070.6185303,2262.7084961,1111.9157715z"/>
		<path class="st3" d="M390.608429,295.2988281c-19.967926,25.2349243-68.7738037,8.8110657-114.8231201-27.6268921
			s-60.144577-66.8503723-40.176651-92.0852966s49.8427582-14.4779663,95.8920746,21.9599915
			S410.5763245,270.0639038,390.608429,295.2988281z"/>
		<g>
			<path class="st1" d="M373.124115,710.2758179c0,0,37.3153992-39.7071533,102.3152466-22.8062134"/>
			<line class="st1" x1="424.2817383" y1="560.6763916" x2="449.8922119" y2="683.28125"/>
			<path class="st1" d="M437.0869751,683.4851074c0,0-28.8565674,308.822937,451.1783447,553.8408203
				c0,0,527.128479,291.0393066,1259.6818848-116.4902344"/>
			<path class="st1" d="M388.2628784,698.6639404c0,0-118.9996338,659.2758789,674.3795776,855.30896
				c0,0,586.1287842,125.112793,1113.1988525-385.7470703"/>
			<line class="st1" x1="417.9619751" y1="525.8927612" x2="375.1200867" y2="330.0392151"/>
		</g>
	</g>
</g>
</svg>
