<?xml version="1.0" encoding="UTF-8"?>
<svg viewBox="0 0 309 317" xmlns="http://www.w3.org/2000/svg" xmlns:xlink="http://www.w3.org/1999/xlink">
 <defs>
  <linearGradient id="b">
   <stop stop-color="#fcfcfc" offset="0"/>
   <stop stop-color="#fcfcfc" stop-opacity="0" offset="1"/>
  </linearGradient>
  <radialGradient id="d" cx="410.37" cy="416.03" r="214.27" gradientTransform="matrix(.99588 .13685 -.13123 .95501 585.57 -213.35)" gradientUnits="userSpaceOnUse">
   <stop stop-color="#fff" offset="0"/>
   <stop stop-color="#e9e9de" offset=".5"/>
   <stop stop-color="#c2b7ae" offset=".715"/>
   <stop stop-color="#756559" offset="1"/>
  </radialGradient>
  <radialGradient id="a" cx="379.28" cy="408.74" r="153.9" gradientTransform="matrix(-1 0 0 -.18383 1385.9 411.41)" gradientUnits="userSpaceOnUse">
   <stop stop-color="#b9b9b9" offset="0"/>
   <stop stop-color="#525252" offset="1"/>
  </radialGradient>
  <radialGradient id="e" cx="978.69" cy="256" r="160.15" gradientTransform="matrix(1.3427 .035694 -.004684 .17619 -334.16 295.31)" gradientUnits="userSpaceOnUse" xlink:href="#b"/>
  <radialGradient id="c" cx="978.69" cy="256" r="160.15" gradientTransform="matrix(1.3427 .035694 -.004684 .17619 -334.16 295.31)" gradientUnits="userSpaceOnUse" xlink:href="#b"/>
 </defs>
 <path transform="matrix(.72368 0 0 .72368 -552.8 -53.589)" d="m1190.4 287.32c0 47.133-15.315 90.71-41.237 126.02-2.5559 3.4819-2.6335 9.5916-7.9724 10.2-1.3224 7.1459-5.1681 6.4443-9.7998 11.078-38.604 38.623-95.38 65.967-154.26 65.967-59.416 0-113.18-24.337-151.87-63.58-3.5875-3.6393-10.632-4.6102-8.4812-8.924-4.3108 2.0909-7.9553-9.7238-10.806-13.551-26.454-35.523-42.116-79.55-42.116-127.21 0-45.907 14.529-88.768 39.236-123.58 2.978-4.1958-1.5532-9.4051 6.7932-11.344 0.15417-9.874 8.6249-10.11 13.289-14.809 38.645-38.93 94.805-63.536 153.95-63.536 59.261 0 112.9 24.21 151.56 63.274 2.7848 2.8136 7.1006 3.5106 8.1177 8.6686 4.4877 1.0562 5.6603 6.5884 8.3394 10.011 28.347 36.209 45.249 81.801 45.249 131.32z" fill="url(#d)" fill-rule="evenodd" stroke="#52392b" stroke-linecap="round" stroke-width=".5"/>
 <path transform="matrix(.72368 0 0 .72368 -552.8 -53.589)" d="m1136.1 148.87c-0.5531 3.3459-5.2538 6.1722-6.7432 5.1761m-2.4851 1.8605c-0.71814 3.3168-5.583 5.8848-7.0211 4.8214m-2.5392 1.7054c-0.96314 3.2586-5.9316 5.6189-7.3154 4.4905m-2.634 1.5659c-1.1235 3.2106-6.2159 5.3193-7.5422 4.1287m-2.7205 1.4229c-1.2804 3.1557-6.4712 5.0057-7.7069 3.7278m-2.8389 1.3097c-1.4332 3.0942-6.7262 4.669-7.8989 3.3372m-2.8989 1.1812c-1.5809 3.0267-6.9584 4.3288-8.0666 2.9467m-2.952 1.0523c-1.7229 2.9539-7.1674 3.9884-8.21 2.5598m-2.9563 0.89704c-1.9246 2.836-7.3955 3.6774-8.3718 2.206m-2.9985 0.75952c-2.0508 2.7528-7.5568 3.3554-8.4667 1.8449m-3.0326 0.62663c-2.1702 2.6665-7.6991 3.0383-8.5426 1.4924m-3.0591 0.49921c-2.2829 2.5779-7.8235 2.7278-8.601 1.1501m-3.079 0.37785c-2.3884 2.4876-7.931 2.4253-8.643 0.81934m-3.0934 0.26302c-2.487 2.3962-8.0228 2.132-8.6704 0.50087m-3.1027 0.15492c-2.579 2.3043-8.1006 1.8485-8.685 0.19543m-3.1076 0.05358c-2.6647 2.212-8.1654 1.5721-8.6867-0.10042m-3.1067-0.04746c-2.7479 2.1155-8.2202 1.285-8.6758-0.4053m-3.1016-0.15514c-2.83 2.0127-8.2651 0.98308-8.6522-0.72293m-3.0919-0.26954c-2.9102 1.9036-8.2985 0.66687-8.6143-1.0527m-3.0767-0.39045c-2.9879 1.7884-8.3185 0.337-8.5607-1.3936m-3.0552-0.51743c-3.0626 1.6669-8.3237-0.00566-8.4898-1.7446m-3.0265-0.64984c-3.1339 1.5393-8.3126-0.35975-8.4004-2.104m-2.99-0.78692c-3.2007 1.4058-8.2834-0.72368-8.2912-2.4699m-2.9451-0.92772c-3.2628 1.2669-8.2294-1.0818-8.1143-2.8246m-2.9385-1.0868c-3.319 1.1229-8.1539-1.4764-7.9555-3.2122m-2.8834-1.216c-3.3692 0.97444-8.0554-1.8751-7.7732-3.6001m-2.8214-1.3441c-3.4127 0.82216-7.9337-2.2744-7.5676-3.9847m-2.7021-1.4561c-3.4644 0.58816-7.8397-2.6848-7.3901-4.3766m-2.6148-1.5965c-3.4894 0.42974-7.6857-3.0578-7.1536-4.7272m-2.5198-1.7323c-3.5065 0.27034-7.5076-3.4119-6.8542-5.0408" fill="none" stroke="#fff" stroke-linecap="round" stroke-width="1.0023"/>
 <g transform="matrix(-.72866 0 0 -.69943 864.43 353.1)">
  <path d="m809.46 416.98c-1.1133-0.2533-1.9373-1.0171-2.2741-2.1081s0.23395-2.4613 1.0305-3.2793 1.6195-0.91938 2.7311-0.65882 1.9321 1.027 2.2634 2.1197 0.24798 2.0468-0.54853 2.8649-2.0894 1.3165-3.2024 1.0616m9.6008-7.5967c-1.1-0.30606-1.8867-1.1083-2.1711-2.2141s0.36676-2.429 1.2015-3.2081 1.6616-0.84095 2.7595-0.52759 1.8809 1.1181 2.1595 2.2254 0.14996 2.0563-0.68469 2.8354-2.1651 1.1966-3.2647 0.88904m10.249-7.2499c-1.0752-0.3841-1.8024-1.2407-2.0068-2.364s0.17431-2.1812 1.0453-2.9195 2.0455-0.99975 3.1182-0.60852 1.7959 1.2501 1.9944 2.3744-0.22889 2.2263-1.0999 2.9646-1.9765 0.93866-3.0512 0.55298m10.357-6.5302c-1.0557-0.43497-1.7411-1.3253-1.8917-2.4571s0.2782-2.1704 1.1835-2.8662 2.1013-0.87875 3.1542-0.43689 1.7343 1.3341 1.8792 2.4667-0.34576 2.1909-1.251 2.8868-2.0191 0.84326-3.0742 0.40674m10.677-5.9854c-1.0338-0.48462-1.6763-1.4064-1.773-2.5441s0.38093-2.1547 1.3181-2.8068 2.1485-0.75558 3.1792-0.26443 1.6694 1.4146 1.7605 2.5528-0.19324 2.0527-1.1456 2.6826-2.3062 0.86615-3.3393 0.38007m10.964-5.4298c-1.0099-0.53269-1.6082-1.4837-1.6513-2.6247s0.85223-2.319 1.833-2.9036 1.8021-0.46994 2.8086 0.06887 1.6014 1.4912 1.6392 2.6323-0.28894 2.0414-1.2697 2.626-2.3506 0.73526-3.3598 0.20111m11.216-4.8686c-0.98407-0.57904-1.5376-1.5568-1.5276-2.6986s0.96118-2.2556 1.9679-2.7943 1.8218-0.38632 2.8025 0.19834 1.5309 1.5634 1.516 2.7051-0.38287 2.0259-1.3895 2.5647-2.386 0.6052-3.3693 0.02475m11.711-4.4006c-0.9422-0.6449-1.7413-1.5318-1.6791-2.6719s1.0626-2.1898 2.0926-2.6824 1.8375-0.30328 2.7906 0.32523 1.4584 1.6312 1.3918 2.7711-0.47436 2.0065-1.5044 2.4991-2.1503 0.40521-3.0916-0.24103m11.621-3.7202c-0.9126-0.68616-1.3525-1.7201-1.214-2.8534s0.81433-2.0309 1.8653-2.4772 1.8491-0.22128 2.7734 0.449c0.92529 0.66898 1.6985 1.6263 1.5565 2.7592s-0.85242 2.0544-1.9034 2.5007-2.1661 0.30921-3.0778-0.37826m11.768-3.1744c-0.88196-0.72519-1.2765-1.7772-1.0889-2.9035s0.90186-1.9936 1.9712-2.3938 2.2217-0.22974 3.1006 0.49905 1.2717 1.7806 1.0811 2.9064-0.93634 2.0034-2.0057 2.4035-2.1776 0.21472-3.0584-0.51172m11.885-2.6415c-0.85034-0.76196-1.1999-1.8298-0.96466-2.9471s0.9856-1.9536 2.071-2.308 2.2212-0.12597 3.0689 0.63898 1.196 1.8323 0.95844 2.9491-1.0143 1.9536-2.0997 2.308-2.1847 0.12216-3.034-0.64102m11.974-2.1246c-0.81818-0.79642-1.1234-1.8778-0.84217-2.9844s1.0654-1.9112 2.1646-2.2205 2.2149-0.02878 3.0307 0.77002 1.1205 1.8795 0.83765 2.9857-1.0867 1.9056-2.1858 2.215-2.1879 0.03183-3.0049-0.76577m12.036-1.626c-0.78558-0.82862-1.0471-1.9214-0.72174-3.0158s1.1413-1.8669 2.2519-2.1319 2.2038 0.06134 2.9874 0.89176 1.0453 1.9223 0.71893 3.0165-1.1541 1.8602-2.2647 2.1251-2.1874-0.05597-2.9718-0.88568m12.076-1.1478c-0.75274-0.85852-0.97156-1.9606-0.60388-3.0416s1.2131-1.8211 2.3332-2.0426 2.1888 0.14423 2.94 1.0041 0.97089 1.9609 0.60291 3.0418-1.217 1.8175-2.3372 2.0391-2.1835-0.14105-2.9351-1.0007m12.095-0.69092c-0.71985-0.88629-0.89698-1.9958-0.48877-3.0622s1.2808-1.7741 2.4084-1.9532 2.1708 0.21979 2.8896 1.1069 0.89758 1.9956 0.48981 3.062-1.2761 1.7779-2.4038 1.9571-2.1768-0.22321-2.8953-1.1105m12.097-0.25622c-0.68702-0.91199-0.82349-2.0273-0.37665-3.078s1.3448-1.7262 2.4782-1.864 1.8381 0.29926 2.5407 1.1992 1.1306 2.0296 0.68414 3.0804-1.3402 1.74-2.4736 1.8779-2.1671-0.30255-2.8528-1.2155m12.105 0.16778c-0.65271-0.93682-0.7478-2.0564-0.26239-3.0898s1.4078-1.6751 2.5456-1.7709 1.8258 0.36716 2.4946 1.2926c0.6701 0.92444 1.0637 2.0638 0.578 3.0972s-1.4122 1.6956-2.55 1.7914-2.1544-0.38266-2.8058-1.3204m12.106 0.60944c-0.61639-0.96109-0.66858-2.0835-0.14398-3.0976s1.4708-1.6201 2.6114-1.6723 1.8104 0.43671 2.4433 1.387 0.70752 2.0706 0.2019 3.0944-1.2187 1.663-2.3592 1.7152-2.1382-0.46476-2.7534-1.4267m12.09 1.0729c-0.57813-0.98465-0.586-2.1082-0.02179-3.1009s1.5335-1.5609 2.6753-1.5681 1.7917 0.50772 2.3867 1.4822c0.59644 0.97369 0.62531 2.0969 0.07971 3.0999s-1.2833 1.6137-2.4251 1.6209-2.1182-0.54867-2.6948-1.5341m12.052 1.5572c-0.53772-1.0073-0.5-2.1303 0.104-3.0992s1.5956-1.4973 2.7367-1.4582 1.7697 0.57999 2.3247 1.5778 0.83765 2.1805 0.23169 3.1482-1.6256 1.5127-2.7667 1.4735-2.0942-0.63416-2.6304-1.6422m11.99 2.0608c-0.49512-1.0288-0.41065-2.1492 0.23315-3.0922s1.6567-1.4295 2.7952-1.3429 1.7439 0.65329 2.2568 1.6734 0.7522 2.2226 0.10584 3.1638-1.6929 1.4349-2.8313 1.3482-2.0659-0.72091-2.5597-1.7504m11.903 2.5818c-0.45081-1.049-0.31848-2.1648 0.36511-3.0794s1.7162-1.3574 2.85-1.2221 2.0863 0.81665 2.5323 1.8677 0.31177 2.1658-0.37463 3.0782-1.7566 1.3491-2.8903 1.2138-2.0333-0.8086-2.4825-1.8583m11.787 3.1175c-0.40454-1.0678-0.22351-2.1767 0.49939-3.0605s1.7739-1.2811 2.9008-1.0964 2.0522 0.92234 2.4513 1.9921 0.21594 2.1774-0.51001 3.0587-1.8158 1.2558-2.9426 1.0711-1.996-0.89667-2.3988-1.965m11.64 3.6647c-0.35645-1.0847-0.12622-2.1845 0.63537-3.0352s1.8292-1.2006 2.9467-0.96582 2.0104 1.0309 2.361 2.1175 0.11768 2.185-0.64722 3.0326c-0.76501 0.84765-1.8696 1.1557-2.9871 0.92096s-1.954-0.98484-2.3087-2.0701m11.461 4.2197c-0.30676-1.0998-0.02685-2.188 0.77271-3.0032s2.2688-0.9866 3.3676-0.676 1.5798 0.98594 1.8804 2.0875 0.01758 2.188-0.7854 2.9998-1.6814 1.1932-2.7802 0.8826-2.1498-1.1905-2.4551-2.2907m11.249 4.7781c-0.25574-1.1128 0.0741-2.1869 0.91016-2.9644s2.3082-0.86059 3.3914-0.49939 1.5325 1.0581 1.7815 2.1724-0.08386 2.1865-0.92358 2.9602-1.735 1.1139-2.8181 0.75272-2.087-1.3084-2.3413-2.4215m11.004 5.3354c-0.20361-1.1235 0.17578-2.1811 1.0474-2.9187s2.339-0.73093 3.4039-0.31943c1.0652 0.4115 1.4813 1.1287 1.678 2.2534s-0.18628 2.1802-1.0613 2.9137c-0.87488 0.73353-1.7852 1.0315-2.8502 0.61997s-2.0157-1.4252-2.2178-2.549m10.981 6.0543c-0.1239-1.135 0.3291-2.1632 1.2506-2.8376s2.0383-0.79545 3.0829-0.33423 1.7893 1.4006 1.9059 2.5364-0.33997 2.1615-1.2646 2.8313-2.1007 0.76895-3.145 0.30771-1.7075-1.3684-1.8297-2.5036m10.395 6.4589c-0.06995-1.1396 0.43127-2.1452 1.3835-2.7752s2.0737-0.69819 3.0952-0.18808 1.7082 1.5029 1.7711 2.643-0.4419 2.143-1.3972 2.7683-2.1218 0.64945-3.1433 0.13934-1.6409-1.4476-1.7094-2.5873m10.051 6.9812c-0.01612-1.1417 0.53222-2.1224 1.5132-2.7068s2.1044-0.59931 3.1006-0.04148 1.6208 1.5995 1.6298 2.7413-0.5426 2.1198-1.5264 2.6992-1.9307 0.72354-2.9134 0.14233-1.7892-1.693-1.8037-2.8346" fill="#434343" fill-rule="evenodd" stroke="url(#a)" stroke-linecap="round" stroke-width=".5"/>
  <path d="m830.93 437.69c-1.1069-0.27972-1.9125-1.063-2.2233-2.1616s0.13111-2.3353 0.91224-3.1681 1.6511-0.95694 2.7562-0.66989 1.907 1.0728 2.2121 2.1731c0.30499 1.1003 0.02337 2.188-0.77741 3.0019s-1.7732 1.1059-2.8798 0.82464m8.6027-6.5767c-1.0923-0.33227-1.8596-1.1531-2.1176-2.2654s-0.0025-2.1808 0.83624-2.9556 1.9348-1.022 3.0249-0.68246 1.8536 1.1628 2.1056 2.2764-0.08123 2.1866-0.91998 2.9613-1.8373 0.99951-2.9293 0.66568m8.9342-6.117c-1.0753-0.38413-1.8024-1.2407-2.0068-2.364s0.11548-2.1578 0.99023-2.8915 1.9814-0.92837 3.0541-0.53711 1.7959 1.2501 1.9945 2.3744-0.18573 2.1802-1.0606 2.914-1.8968 0.88996-2.9714 0.50431m9.2437-5.6422c-1.0557-0.435-1.7411-1.3253-1.8917-2.4571s0.23162-2.1293 1.1404-2.8206 2.0234-0.83298 3.0762-0.39109 1.4319 1.5163 1.5499 2.6519 0.03997 1.9837-0.86878 2.6749-1.951 0.77838-3.006 0.34189m9.1888-4.957c-1.0222-0.50885-1.6426-1.4456-1.7125-2.5852s0.62506-2.2539 1.5654-2.9015 1.8084-0.61243 2.8273-0.09723c1.0197 0.5137 1.6357 1.4534 1.7001 2.5933s-0.06714 1.9642-1.0076 2.6118-2.3514 0.88916-3.3728 0.37885m9.793-4.6604c-0.99725-0.55609-1.5732-1.5208-1.5897-2.6625s0.7298-2.2222 1.6995-2.8251 1.8468-0.50889 2.8407 0.05307 1.5664 1.5278 1.5778 2.6696-0.17169 1.9414-1.1414 2.5442-2.3904 0.77823-3.3868 0.2207m10.025-4.1651c-0.97046-0.6015-1.5013-1.5918-1.4652-2.733s0.83148-2.1862 1.8279-2.7437 1.8792-0.40689 2.8463 0.19998 1.4949 1.5979 1.454 2.7389-0.63739 2.0932-1.6463 2.6279-2.0471 0.51279-3.0168-0.09009m10.23-3.671c-0.9422-0.64492-1.4277-1.6582-1.3397-2.7966s0.67243-2.0793 1.7043-2.5681 2.1517-0.39734 3.0906 0.25235 1.4216 1.6634 1.3295 2.8015-0.73077 2.0625-1.7626 2.5513-2.0808 0.40585-3.022-0.24039m10.409-3.1816c-0.91266-0.68618-1.3525-1.7201-1.2141-2.8534s0.77356-2.0349 1.826-2.4778 2.1671-0.30231 3.0765 0.38806 1.347 1.7244 1.205 2.8573-0.8208 2.0283-1.8732 2.4712-2.1086 0.30215-3.0202-0.38532m10.561-2.7004c-0.8819-0.72521-1.2764-1.7772-1.0888-2.9035s0.86981-1.99 1.9403-2.3873 2.1781-0.20892 3.057 0.51987 1.2717 1.7806 1.0811 2.9064-0.90716 1.9912-1.9776 2.3885-2.1311 0.20246-3.012-0.52399m10.689-2.2301c-0.85035-0.76193-1.1999-1.8298-0.96466-2.9471s0.9613-1.9452 2.0474-2.2973 2.185-0.11756 3.0326 0.6474 1.196 1.8323 0.9585 2.9491-0.98981 1.9515-2.0759 2.3036-2.1487 0.10746-2.998-0.65573m10.793-1.7732c-0.81818-0.79642-1.1233-1.8778-0.84217-2.9844s1.0482-1.9012 2.1478-2.2088 2.188-0.0285 3.0038 0.77033 1.1204 1.8795 0.83759 2.9857-1.0684 1.9096-2.1679 2.2172-2.162 0.01757-2.9791-0.78m10.876-1.3317c-0.78559-0.82861-1.0471-1.9214-0.7218-3.0158s1.1307-1.8584 2.2416-2.1223 2.1874 0.05798 2.971 0.88843 1.0454 1.9223 0.719 3.0164-1.143 1.8659-2.2538 2.1298-2.1716-0.06687-2.9559-0.89658m10.94-0.90695c-0.75274-0.85852-0.97155-1.9606-0.60388-3.0416s1.2092-1.8172 2.3294-2.0384 2.1836 0.1417 2.9348 1.0016 0.97095 1.9609 0.60297 3.0418-1.2136 1.8207-2.3338 2.0419-2.1779-0.14566-2.9294-1.0053m10.987-0.49997c-0.71979-0.88629-0.89691-1.9958-0.48877-3.0622s1.2839-1.7779 2.4116-1.9574 2.1768 0.22253 2.8956 1.1096 0.89752 1.9956 0.48974 3.062-1.2803 1.7745-2.4079 1.954-2.1817-0.21878-2.9003-1.1061m11.017-0.11114c-0.68695-0.91199-0.82342-2.0273-0.37664-3.078s1.3483-1.7397 2.4817-1.8779 2.1672 0.30188 2.8532 1.2147 0.82409 2.027 0.37762 3.0779-1.3442 1.7265-2.4776 1.8648-2.1725-0.28839-2.8582-1.2014m11.005 0.27453c-0.65277-0.93683-0.7478-2.0564-0.26239-3.0898s1.405-1.6962 2.5428-1.7917 2.1543 0.38324 2.8054 1.3212 0.74719 2.0566 0.26153 3.0899-1.4083 1.6748-2.5461 1.7702-2.1499-0.36206-2.8013-1.2998m10.968 0.67682c-0.6164-0.96109-0.66864-2.0835-0.14405-3.0976s1.4622-1.6456 2.6028-1.6968 2.1378 0.46661 2.752 1.4291c0.6156 0.9616 0.66681 2.084 0.14136 3.0977s-1.4724 1.6188-2.6129 1.67-2.1241-0.44046-2.7392-1.4024m10.914 1.0967c-0.57812-0.98465-0.586-2.1082-0.02179-3.1009s1.5191-1.5877 2.6608-1.5933 2.1175 0.55176 2.6927 1.5381 0.58282 2.1091 0.01721 3.1009-1.5358 1.5586-2.6775 1.5642-2.0947-0.52347-2.6714-1.5089m10.841 1.5332c-0.5376-1.0073-0.5-2.1302 0.10401-3.0992s1.5752-1.5226 2.7162-1.4811 2.0929 0.6384 2.6271 1.6476c0.53564 1.0084 0.4956 2.1313-0.11035 3.099s-1.5986 1.4941-2.7396 1.4526-2.0612-0.61078-2.5973-1.6188m10.749 1.9851c-0.49511-1.0288-0.41064-2.1492 0.23316-3.0922s1.6295-1.4501 2.7678-1.3605 2.0641 0.7262 2.5552 1.757 0.40515 2.1503-0.24109 3.0916-1.6603 1.4252-2.7985 1.3357-2.0228-0.70203-2.5166-1.7316m10.634 2.4505c-0.45068-1.049-0.31848-2.1648 0.36512-3.0794s1.6816-1.3705 2.8151-1.2318 2.0306 0.81479 2.4768 1.8658 0.31176 2.1658-0.37464 3.0782-1.7203 1.3521-2.8536 1.2134-1.9794-0.79667-2.4287-1.8464m10.496 2.9272c-0.40454-1.0678-0.22351-2.1767 0.49939-3.0605s1.7307-1.2842 2.8568-1.0955 1.9928 0.90369 2.392 1.9734-0.10425 2.0827-0.84985 2.9474-1.4387 1.3861-2.5648 1.1974-1.9306-0.89398-2.3335-1.9623m9.973 3.2989c-0.33178-1.0925-0.07666-2.1868 0.70398-3.02s2.0679-1.093 3.1843-0.85388 1.6978 0.88797 2.0234 1.9823 0.06775 2.1871-0.71619 3.0171-1.4879 1.3058-2.6045 1.0666-2.2609-1.0992-2.5911-2.1922m10.137 3.9024c-0.28149-1.1066 0.02332-2.188 0.84131-2.9846s2.1157-0.99728 3.2201-0.70727 1.6442 0.98098 1.9192 2.0892-0.03321 2.1879-0.85462 2.9809-1.5336 1.2203-2.6379 0.9303-2.2082-1.2015-2.488-2.3084m9.9216 4.3966c-0.22974-1.1184 0.12475-2.1846 0.97876-2.9424s2.1598-0.89813 3.2495-0.55725 1.5848 1.074 1.8079 2.1938-0.13501 2.184-0.99268 2.9378-1.9592 0.97409-3.0406 0.60787-1.7745-1.1211-2.0028-2.2398m9.6799 4.8888c-0.17725-1.1279 0.22693-2.1763 1.1155-2.8933s1.9652-0.95035 3.0282-0.53369 1.7638 1.295 1.934 2.424-0.23755 2.1752-1.1295 2.8879-2.0029 0.88095-3.066 0.46429-1.7066-1.221-1.8821-2.3492m9.4127 5.375c-0.1239-1.1351 0.32922-2.1632 1.2506-2.8376s1.9948-0.83771 3.037-0.37128 1.7006 1.3768 1.8171 2.5126-0.33984 2.1615-1.2645 2.8313-2.0424 0.78537-3.0846 0.31897-1.6334-1.3188-1.7556-2.4541m9.1213 5.8513c-0.07006-1.1396 0.43128-2.1452 1.3834-2.7752s2.019-0.72342 3.0378-0.20822 1.6337 1.4558 1.6964 2.5958-0.7356 1.9488-1.7053 2.5513-1.769 0.90488-2.7881 0.38968-1.5558-1.4136-1.6243-2.5533m8.4821 6.0921c0.01086-1.1417 0.58203-2.1092 1.5765-2.6703s2.3004-0.42309 3.2939 0.13965 1.3429 1.3552 1.3248 2.4969-0.59228 2.1064-1.5896 2.6626-1.7971 0.80181-2.7906 0.23907-1.8276-1.7262-1.8151-2.8679" fill="#434343" fill-rule="evenodd" stroke="url(#a)" stroke-linecap="round" stroke-width=".5"/>
  <path d="m809.32373,412.93774c-.53369.53873-.96857,1.59073-.66138,2.28406l5.46985,12.84079 .57184,1.35715 1.46295-.25232 .33588-.0379c-.00745.07772-.03003.35229-.03003.35229l-.12756,1.49713 1.37902.47235 12.96888,4.80475c.64087.28141 1.37078.17978 1.91754-.25726s.52991-.90244.41302-1.59253-.61047-1.24649-1.276-1.46329l-1.07898-.43384c-.67505.44584-1.00909.51331-1.13836.35233-2.18805.40292-6.94074-1.05441-10.96204-4.28772-.31116-.36908.57678-1.61258 2.05695-2.90915l.13-.98608-.79041.11368-.56042.45001c-1.82343,1.4642-3.55188,2.34009-3.92914,1.89258-2.5957-4.52973-3.0498-9.62128-2.41894-11.94422l-.62757-1.58008c-.22235-.6044-.72949-1.05685-1.35888-1.1932s-1.29364.06231-1.74622.52047m9.80951-7.58038c-.55878.51264-.75537,1.31058-.49854,2.02411l4.56501,13.29428 .50647,1.38287 1.47339-.18228c0,0 .26525-.01382.33728-.02185l-.04676.35044-.19885,1.48934 1.35498.53757 12.73853,5.43778c.62671.31167 1.03363.46292 1.61023.06619s.90319-1.08725.81945-1.78214-.55023-1.27426-1.20459-1.52264l-1.057-.48492c-.69562.41305-1.04602.44421-1.16748.27725-2.20478.29797-6.89624-1.4043-10.75891-4.82559-.29316-.38349.66729-1.56394 2.2077-2.78836l.17694-.97873-.79492.0758-.5813.42273c-1.89124,1.37543-3.67383,2.14881-4.0293,1.68381-2.37689-4.64832-2.57257-9.737-1.83148-12.02716l-.55139-1.60825c-.19324-.61432-.67822-1.09048-1.30036-1.25674s-1.29516.00046-1.7691.43649m10.18939-7.06311c-.5827.48532-.81714,1.27292-.59479,1.99793l3.91028,13.47699 .43976,1.40551 1.48041-.11163 .33795-.00571-.06348.34781-.26977,1.47815 1.3277.60172 12.4776,6.06118c.61108.34128 1.02404.53244 1.61895.1637s.95417-1.04282.90369-1.74094-.48865-1.2991-1.13043-1.57846l-1.03266-.53488c-.71453.37933-1.31573.54733-1.42486.3721-2.22046.13916-6.72302-1.80908-10.33051-5.49847-.26495-.40354.78791-1.538 2.38513-2.68735l.22352-.96915-.79767.03772-.60083.39444c-1.95484,1.28342-3.78614,1.95023-4.11896,1.46875-2.15198-4.75662-2.09021-9.82843-1.24048-12.08056l-.47381-1.63279c-.16364-.62283-.62531-1.12164-1.23877-1.31747s-1.29371-.06146-1.78797.35141m10.53998-6.52539c-.60516.45697-.87695,1.23251-.68945,1.96729l3.24987,13.62692 .37207,1.42492 1.48407-.04077 .33783.01047-.08001.34436-.34015,1.46356 1.29742.66449 11.87671,6.86652c.58515.38409 1.32178.4053 1.9336.06531s1.00268-.99622.98553-1.69593-.42627-1.32089-1.05402-1.63049l-1.00598-.58343c-.73181.34484-1.34033.48403-1.44104.3038-2.22455.03329-6.64233-2.14832-10.06964-6.00568-.24536-.41568.86041-1.49859 2.51062-2.57043l.26758-.95264-.79657-.00513-.61896.3653c-2.01385,1.18866-3.88769,1.74612-4.19714,1.2493-1.92218-4.85404-1.40906-10.0604-.40051-12.24601l-.35596-1.66247c-.11871-.63297-.54352-1.16348-1.14148-1.40265s-1.61096.05457-2.12439.44339m10.85858-5.97195c-.62622.42773-.93451,1.18948-.78204,1.93234l2.58801,13.74426 .30383,1.44101 1.47016.03882 .33624.03451c-.0238.07434-.10437.3378-.10437.3378l-.38654,1.43122 1.26435.72552 11.56292,7.46311c.56635.41131 1.30115.46734 1.92835.15664s1.04864-.94772 1.06457-1.64746-.36334-1.33957-.9757-1.67847l-.97736-.63037c-.74725.30991-1.36169.42017-1.45373.23539-2.2237-.07187-6.54566-2.48081-9.78602-6.49646-.2254-.42691.89405-1.47852 2.61622-2.43045l.33685-.93583-.79651-.05709-.64532.3287c-2.06806,1.09174-3.9535,1.54752-4.22675,1.02991-1.57135-4.9787-.94586-10.07486.16479-12.21039l-.27697-1.67743c-.08869-.63788-.48792-1.18787-1.07392-1.45505s-1.61981-.04425-2.15106.31977m11.49066-5.55271c-.65472.38263-1.33709,1.28891-1.21972,2.03809l1.96148,13.81878 .20282,1.46473 1.47687.12893 .33423.05027c-.02728.07315-.12012.33251-.12012.33251l-.46405,1.39075 1.16333.83548 11.28803,7.98636c.54651.43735 1.27789.52765 1.91888.24664s.7525-.7464.81732-1.44333-.26886-1.36166-.85602-1.74255c0,0-.53228-.71466-.66375-.80765-.76093.27463-1.37982.35605-1.4632.16715-2.21783-.17581-6.43353-2.80423-9.4815-6.96784-.20502-.43701.97229-1.41424 2.73706-2.2846l.38024-.91907-.79296-.09427-.65766.29001c-2.13965.94363-4.03344,1.34762-4.28204.81772-1.33545-5.04706-.46423-10.08655.74506-12.16779l-.19825-1.68854c-.05871-.64132-.43182-1.20941-1.00464-1.50366s-1.26586-.27386-1.82141.05188m11.40107-4.8017c-.67164.35203-1.39795,1.20456-1.31556,1.95841l1.31739,13.89499 .13317,1.46664 1.47065.20334 .33154.06577-.1355.32657-.57568,1.3879 1.17084.86838 10.91693,8.5185c.52569.46209 1.25213.58606 1.90545.3349s.79847-.69486.89508-1.38807-.20623-1.37259-.77539-1.77993l-.89801-.73896c-.77807.22156-1.13403.17728-1.20849-.01526-2.2074-.27789-6.30732-3.11642-9.15851-7.41717-.18451-.44605 1.04486-1.34845 2.84796-2.13651l.42218-.90054-.78778-.13074-.67029.25937c-2.18091.84394-4.09918,1.13996-4.32287.59909-1.09955-5.10366.00909-10.07696 1.31317-12.10022l-.12018-1.69589c-.02905-.64334-.37555-1.22803-.93421-1.5484s-1.25189-.33197-1.82189-.03217m11.61041-4.2344c-.68695.3212-1.11402,1.02331-1.08332,1.78104l.36005,14.03717 .06598,1.47122 1.45978.27038c0,0 .25708.06681.32818.08088l-.15026.32003-.63862,1.36011 1.12989.92105 10.52716,9.02295c.50421.48544.87359.75076 1.54242.5444s1.1867-.76779 1.31439-1.45596-.14441-1.38046-.6947-1.81296l-.86389-.77856c-.78724.18637-1.41138.19693-1.47272-.00018-2.18353-.42667-5.91217-3.49967-8.5636-7.92634-.16388-.45404 1.11182-1.28231 2.94873-1.98779l.46265-.88046-.78107-.16635-.68134.22873c-2.21698.74417-4.15277.9346-4.3515.38406-.86487-5.14865.47199-10.04785 1.86646-12.00989-.00861-.33081-.04309-1.69958-.04309-1.69958 .00012-.64401-.31952-1.24381-.8631-1.5892s-1.23554-.3884-1.81848-.11475m11.78509-3.6727c-.70056.29034-1.15838.97275-1.16137,1.73108l-.2688,14.02274-.00019,1.47271 1.44611.3357c0,0 .25385.07827.32428.09552l-.16449.31295-.6991,1.33005 1.08734.97089 10.12189,9.4978c.48218.50739.85077.80054 1.52802.62378s1.21936-.71484 1.37713-1.39673-.08349-1.38547-.61425-1.84177l-.8288-.81579c-.79468.15155-1.4187.13467-1.47125-.06497-2.16266-.52231-5.90467-3.71402-8.25354-8.30844-.13306-.46399 1.20923-1.23453 3.07568-1.85761l.50134-.85904-.77289-.2009-.69085.19819c-2.24787.64483-4.19458.73324-4.36835.17431-.63269-5.18228.92242-10.00104 2.40271-11.89914 .00617-.3309.03253-1.69983.03253-1.69983 .02875-.64337-.26385-1.25677-.7915-1.626s-1.2171-.44294-1.81165-.1955m11.92682-3.12094c-.71252.25961-1.19958.92148-1.23559,1.67895l-.88099,13.9841-.065,1.47126 1.42999.39898 .31971.10971-.1781.30542-.75684,1.29801 1.04358,1.01776 9.70435,9.9418c.45959.52787.82586.84537 1.51007.69788s1.24902-.66177 1.43597-1.33627-.02399-1.38779-.53461-1.86646l-.79303-.85065c-.80041.11728-1.42309.07358-1.4671-.12811-2.13824-.61475-5.74609-3.97626-7.89294-8.66846-.1128-.46936 1.26172-1.18081 3.15356-1.72213l.53821-.83643-.76343-.23431-.69879.16793c-2.2738.54651-4.2254.53736-4.37445-.02865-.40411-5.20511 1.35907-9.93863 2.92053-11.77054l.10639-1.69681c.0567-.64151-.20899-1.26706-.7201-1.65887s-1.19665-.49545-1.80139-.27411m12.03736-2.58276c-.72291.22912-1.23761.86975-1.30567,1.62503l-1.47479,13.9237-.12811,1.46713 1.41149.46003 .3147.12335-.19104.29748-.81195,1.26429 .9989,1.06167 8.96381,10.41983c.42535.55585 1.11359.81931 1.8034.70059s1.27558-.60891 1.49061-1.27499c.21496-.66608.03418-1.38757-.456-1.88718l-.75671-.88314c-.80463.08368-1.42499.01397-1.46045-.1894-2.11066-.7037-5.58014-4.2221-7.526-9.00116-.09284-.47372 1.31067-1.12622 3.22375-1.58682l.57318-.81283-.75274-.26651-.70533.13818c-2.29492.44955-4.24597.34811-4.37054-.22379-.18018-5.21768 1.7807-9.86245 3.41846-11.62649 .03448-.32913.45898-1.73645.45898-1.73645 .09711-.63666-.43579-1.22913-.92981-1.64227s-1.17456-.54575-1.78814-.35025m12.11926-2.06125c-.73175.19909-1.27246.8179-1.37171,1.56973l-2.04876,13.84402-.18946,1.46045 1.39106.51874 .30926.13641-.20337.28922-.86413,1.22922 .95355,1.10254 8.53839,10.78991c.40234.5727 1.07935.86396 1.77338.77341s1.29931-.55646 1.54126-1.21326 .09063-1.38501-.37879-1.90417l-.72009-.91321c-.80737.05087-1.42438-.04407-1.45154-.24872-2.0802-.78903-5.40851-4.45114-7.15533-9.30649-.07318-.47714 1.35601-1.07113 3.28656-1.45233l.60296-.78671-.73785-.29913-.71045.10894c-2.31146.35441-4.24225.16767-4.33093-.41088 .14544-5.21878 2.36694-9.84308 4.11004-11.50309l.28192-1.67663c.12299-.63214-.07635-1.28189-.54406-1.72464s-1.46076-.55335-2.08191-.38333m12.17505-1.55884c-.73914.16959-1.30426.7662-1.4336,1.51343l-2.60205,13.74746-.24872,1.45154 1.36872.57495 .30346.14887-.2149.2807-.91351,1.19302 .90789,1.14044 8.11029,11.12561c.3794.58817 1.04432.90595 1.74146.8429s1.32025-.5047 1.58795-1.1514 .14533-1.38034-.30316-1.91766l-.68347-.94095c-.80878.01892-1.42157-.10031-1.44061-.30588-2.04743-.87063-5.23273-4.6633-6.78339-9.58481-.05396-.4797 1.39795-1.0159 3.34216-1.31933l.63422-.76145-.7254-.32891-.71424.08032c-2.32385.26138-4.2456-.00263-4.31103-.58429 .35473-5.20874 2.75378-9.73795 4.56109-11.32779l.34796-1.66419c.14783-.6268-.02563-1.28393-.47552-1.74478s-1.42816-.61273-2.0556-.4678m12.20752-1.0773c-.74512.14071-1.33307.7149-1.49134,1.45654l-3.13409,13.63623-.30591,1.44061 1.34497.62857 .29736.16074-.22589.272-.9599,1.15598 .86213,1.17544 7.68249,11.42765c.35657.60226 1.00885.94528 1.70783.90899s1.33868-.45379 1.63098-1.08975 .19806-1.37378-.22962-1.92788l-.64691-.96644c-.8089-.01205-1.41663-.15469-1.42779-.3608-2.01258-.94843-5.05445-4.85871-6.41242-9.83686-.03528-.48141 1.4364-.96069 3.39093-1.18826l.66663-.73813-.71527-.35498-.71686.05249c-2.33228.17078-4.24225-.16782-4.28498-.75159 .55713-5.19098 2.92487-9.57266 4.76258-11.12732 .07379-.3226.63965-1.66687.63965-1.66687 .17175-.62069.02356-1.28396-.40833-1.76171s-1.39355-.66504-2.02624-.54465m12.21966-.61783c-.74994.11252-1.35907.66415-1.54516,1.39929l-3.64472,13.51257-.36084,1.42783 1.31995.67963c0,0 .22693.13809.29095.17202l-.23608.26316-1.00354,1.11834 .81647,1.20762 7.25769,11.69711c.33398.61508.97308.98205 1.67297.97168s1.35455-.40384 1.67023-1.02857 .24884-1.36547-.15796-1.93505l-.61066-.98975c-.80786-.04205-1.40991-.20709-1.41345-.41351-1.97608-1.02234-4.875-5.03769-6.04443-10.06348-.01709-.48242 1.47161-.90588 3.43334-1.05963l.69397-.7125-.70141-.38165-.71832.02542c-2.33704.08277-4.24616-.32602-4.27784-.91049 .6557-5.17947 3.30774-9.4577 5.20276-10.94199l.44214-1.64166c.18329-.61737.04755-1.28329-.3753-1.76904s-1.07404-.72385-1.71076-.62735m12.21521-.18094c-.75354.08505-1.38238.61408-1.59521,1.34192l-4.13495,13.3783-.41351,1.41348 1.29382.72809c0,0 .22162.14639.28436.18267l-.24573.25422-1.04425,1.08041 .77118,1.23703 7.11084,11.94827c.32282.62104.65338,1.00495 1.35315,1.02014s1.36841-.35412 1.70667-.96688 .29858-1.35547-.08716-1.93952l-.5741-1.01138c-.80585-.07153-1.40149-.25845-1.39746-.46484-1.93738-1.09385-4.68793-5.20252-5.67297-10.26764 .00055-.48273 1.50366-.85154 3.46972-.93354l.71955-.68667-.68701-.40702-.71875-.00082c-2.33857-.00265-4.23102-.4722-4.24097-1.0574 .84723-5.15165 3.65021-9.3393 5.59814-10.75342l.50183-1.62439c.20575-.61026.09436-1.28073-.31048-1.78159s-1.04688-.76257-1.68671-.68942m12.22241.24854c-.75622.05706-1.40423.56243-1.64392,1.28189l-4.62872,13.2261-.46484,1.39743 1.26635.77484 .27753.19297-.25482.24505-1.08301,1.04157 .72546,1.26437 6.66187,12.19354c.29956.63257.60614,1.02097 1.30487,1.0625s1.38074-.30236 1.74182-.90194 .34937-1.3433-.0141-1.94144l-.53558-1.03229c-.80261-.1018-1.39075-.311-1.37897-.51712-1.89483-1.16598-4.48504-5.36539-5.28186-10.46353 .01843-.48239 1.53418-.79526 3.50195-.80438l.74445-.65955-.67145-.43219-.7182-.02743c-2.33685-.0893-4.21124-.61927-4.19983-1.20447 1.03473-5.11722 3.99457-9.207 5.99353-10.54794l.56171-1.60471c.22821-.60223.14172-1.27634-.24426-1.79187s-1.01789-.80081-1.65998-.7514m12.22419.69729c-.75782.02811-1.42469.5083-1.69159,1.21811l-5.13251,13.04627-.51709,1.37893 1.23627.82196 .27014.20325-.26392.23532-1.12146,1.00003 .67737,1.2908 6.18897,12.43268c.2752.64356.55731,1.03903 1.2539,1.10767s1.39142-.24851 1.77551-.83362 .40131-1.32871.06128-1.94052l-.49505-1.05231c-.79804-.1329-1.37763-.36478-1.35779-.57028-1.84815-1.23868-4.26984-5.52902-4.87103-10.6539 .0368-.48132 1.56347-.73602 3.53009-.66986l.76922-.63059-.65454-.45758-.71655-.05487c-2.33173-.17859-4.1853-.77392-4.15192-1.35827 1.22669-5.07468 4.34491-9.05341 6.39368-10.31693l.62262-1.58206c.2511-.59305.19049-1.26999-.17548-1.7999s-.98651-.83917-1.63012-.81433m12.20739,1.16809c-.7583-.00177-1.4436.45175-1.7384,1.15045l-5.64386,12.83707-.57031,1.35779 1.20337.86935 .26202.2136-.27283.22488-1.15948.95575 .62683,1.31613 5.69238,12.66376c.24958.6539.50641,1.05905 1.19959,1.15549s1.40033-.19266 1.80749-.76191 .4541-1.31161.13892-1.93652l-.4527-1.07126c-.79199-.16473-1.36182-.41961-1.33392-.62417-1.79706-1.31162-4.04151-5.69239-4.44019-10.83698 .05579-.47949 1.59131-.6738 3.55377-.53015l.7934-.59979-.63586-.483-.71393-.0831c-2.32288-.27036-4.15216-.93598-4.09607-1.51859 1.42279-5.02319 4.6994-8.87738 6.79639-10.05917l.6845-1.55625c.2743-.5827.24042-1.2615-.10443-1.80542s-.95269-.87741-1.59668-.87796m12.16901,1.65992c-.75769-.03254-1.46082.39279-1.78369,1.07897l-6.16089,12.59705-.62415,1.33392 1.16761.91681c0,0 .19684.17847.25329.22391l-.28155.21378-1.19684.90857 .57361,1.34014 5.17175,12.88465c.2229.66348.45337,1.08078 1.14209,1.20566s1.40698-.13486 1.83728-.68692 .50769-1.29181.21838-1.92917l-.4082-1.08896c-.78454-.19718-1.34338-.47528-1.30713-.6785-1.74157-1.38443-3.7998-5.85431-3.9895-11.01086 .0752-.47681 1.61731-.60868 3.57239-.38553l.81701-.56711-.61572-.50839-.70996-.112c-2.30994-.36438-4.11096-1.10492-4.03162-1.68482 1.62269-4.96225 5.05628-8.67807 7.19959-9.7738l.74707-1.52722c.29773-.57108.29138-1.2507-.03113-1.80814s-.91626-.91537-1.55969-.94204m12.10632,2.17123c-.75561-.06409-1.47595.33157-1.82715,1.00369l-6.68066,12.32523-.67847,1.30713 1.12891.96405c0,0 .18933.1864.2439.23413l-.29016.20202-1.23316.85859 .51795,1.36257 4.62756,13.09287c.19495.67224.3977,1.104 1.08044,1.25784s1.4115-.07534 1.86475-.60873 .56177-1.2692.29968-1.91821l-.36194-1.10526c-.77551-.2301-1.32214-.53155-1.27722-.73306-1.68164-1.45673-3.54468-6.01352-3.51929-11.17346 .0951-.4733 1.64136-.54074 3.58545-.2363l.83997-.53253-.59412-.53363-.70459-.14151c-2.29272-.46036-4.06091-1.28015-3.95764-1.8563 1.82532-4.89129 5.41345-8.45486 7.60047-9.46029l.81005-1.49472c.32129-.5582.34327-1.23746.04432-1.8079s-.87732-.95272-1.51905-1.00622m12.01685,2.69995c-.7522-.09634-1.48865.26816-1.86829.92465l-7.20044,12.02094-.73303,1.27728 1.08716,1.01089 .23376.24421-.29846.18957-1.26819.80576 .45996,1.38324 4.06006,13.28592c.16614.67993.3396,1.12823 1.01514,1.31146s1.41333-.01425 1.88916-.52753 .61621-1.24374.38245-1.90347l-.31372-1.11984c-.7649-.26343-1.29798-.58826-1.24439-.78763-1.61706-1.52808-3.276-6.16846-3.02991-11.32263 .11512-.46878 1.66285-.47007 3.59217-.0828l.86206-.49615-.5708-.55854-.698-.17147c-2.271-.55796-4.00073-1.46082-3.87341-2.03208 2.03027-4.80987 5.76867-8.20743 7.9967-9.11847l.87329-1.45874c.3446-.54394.39575-1.22168.12146-1.80435s-.83582-.98935-1.47473-1.07022m11.89807,3.24329c-.74719-.12912-1.4989.20282-1.90686.8421l-7.7168,11.68384-.78772,1.24438 1.04261,1.05695 .2229.25409-.30628.17651-1.302.75015 .39966,1.40186 3.1394,13.3735c.12097.68943.61011,1.24066 1.27674,1.45355s1.41272.04825 1.91076-.44351 .67041-1.2153.46607-1.88473c0,0-.22669-.97592-.26392-1.1326-.75244-.29697-1.27075-.64502-1.20837-.84183-1.54798-1.59805-2.99366-6.31759-2.52259-11.45608 .1355-.46329 1.68189-.39692 3.59241.07434l.87866-.45749-.54162-.58344-.68982-.20184c-2.24439-.65671-3.9303-1.64575-3.77832-2.211 2.23645-4.71756 6.35791-7.90808 8.64111-8.67032l.96741-1.39801c.37988-.52005.47546-1.19293.24011-1.79242s-1.11865-1.12927-1.75354-1.238m11.74817,3.798c-.74085-.16235-1.50659.13574-1.94263.75617l-8.22656,11.31423-.8418,1.20838 .99475,1.10199 .19178.25983c-.07044.03363-.29419.16665-.29419.16665l-1.33374.6919 .3374,1.41815 2.52222,13.52685c.08972.69413.55346,1.26685 1.20996,1.50956s1.40905.11178 1.92871-.35706 .72448-1.18387.55053-1.86182c0,0-.18261-.98517-.21276-1.14334-.73841-.33056-1.24036-.70157-1.16919-.89538-1.47437-1.66611-2.69849-6.45917-1.99854-11.57148 .15601-.45678 1.6919-.36892 3.56641.22962l.91174-.39761-.50525-.61832-.68445-.23645c-2.21277-.75617-3.83764-1.81568-3.64843-2.36954 2.54541-4.55823 6.67578-7.60831 8.99096-8.26697l1.02942-1.35305c.40296-.50239.52869-1.17029.32068-1.77976s-1.06775-1.19562-1.69702-1.33255m11.90808,4.50058c-.72803-.21259-1.85425-.07324-2.31799.52673l-8.72632,10.91294-.89539,1.16925 .92444,1.15262c0,0 .14893.21991.19312.27743l-.3241.14115-1.33423.62704 .19702,1.41058 1.96192,13.6799c.05798.69754.49499,1.29087 1.13977,1.56336s1.06469.02298 1.61535-.40897 1.10559-1.00897.96277-1.69415l-.16015-1.15189c-.72254-.36398-1.20704-.75759-1.12696-.94793-1.39673-1.73184-2.39135-6.5914-1.46008-11.66666 .17676-.44922 1.7002-.27527 3.54529.40842l.92883-.35547-.47644-.64078-.66272-.27835c-2.156-.90564-3.75464-1.99426-3.5404-2.53894 2.74975-4.43796 7.01086-7.27914 9.35376-7.83118l1.09033-1.30453c.42553-.48343.58166-1.14487.40173-1.76322s-.67114-1.10772-1.28955-1.28735m11.33667,4.96152c-.71729-.2461-1.84448-.17914-2.33533.39883l-9.18713,10.5073-.97376,1.10485 .86316,1.20789c0,0 .13868.22656.18006.28604l-.3302.12607-1.40381.53577 .17395,1.44729 1.31677,13.77298c.02564.69946.43469,1.31244 1.06616,1.6145s1.04944.08951 1.61975-.31631 .85608-1.09247.76148-1.78595c0,0-.06799-.99963-.07959-1.16025-.69531-.41345-.90601-.68963-.81738-.87607-1.31482-1.7947-2.07288-6.71249-.90882-11.73944 .19727-.44061 1.70227-.17849 3.51367.59l.94446-.31204-.44629-.6622-.64917-.30875c-2.11169-1.00461-3.65014-2.18375-3.41101-2.71802 2.9513-4.30652 7.33301-6.92862 9.69898-7.37146l1.14953-1.25259c.44751-.4632.63416-1.11667.48304-1.74271s-.61902-1.13763-1.22852-1.34573m11.08093,5.52527c-.70495-.27942-1.50879-.10843-2.03894.43377l-9.97217,9.90229-1.02417,1.05825 .80591,1.24683 .16663.2941-.33582.11053-1.42737.46979 .10645,1.45383 .66016,13.8378c-.00721.69989.03918,1.13549.64782,1.4812s1.37244.33832 1.96106-.04026 .9065-1.05105.84461-1.74819c0,0-.02088-1.00174-.0249-1.16272-.6753-.44565-.86011-.74988-.7627-.93195-1.22949-1.85428-1.74512-6.82077-.34802-11.78803 .2174-.43096 1.69848-.07968 3.47192.77277l.95801-.26749-.41492-.68234-.63379-.33883c-2.06237-1.10236-3.5343-2.37113-3.2705-2.89365 3.1488-4.16431 7.63977-6.55878 10.0238-6.89035l1.20703-1.19739c.46863-.44174.68567-1.08578.56397-1.7182s-.56507-1.16537-1.16407-1.40176m10.79138,6.08123c-.69091-.31231-1.50183-.17938-2.05712.33722l-10.41675,9.40189-1.07276,1.00897 .74634,1.28333c0,0 .11707.23852.15259.3016l-.34058.09464-1.44775.40219 .03784,1.45721-.00427,13.87262c-.04016.69876-.02771,1.15482.56384,1.5289s1.35486.40274 1.96069.0524 .9552-1.00705.92615-1.70636c0,0 .02661-1.00159.03015-1.16257-.65344-.47708-1.06714-.94452-.95727-1.11923-1.09509-1.93664-1.31091-6.83868.4331-11.69498 .24744-.41452 1.72779.03736 3.45899.97248l.96948-.22205-.38208-.70114-.61719-.36832c-2.00818-1.19836-3.40747-2.55456-3.1195-3.06414 3.34106-4.01172 7.92932-6.17185 10.32641-6.39069l1.26209-1.13919c.48889-.41916.73608-1.05225.64441-1.68967s-.50953-1.19073-1.09681-1.45511m10.46985,6.62449c-.67541-.34467-1.49182-.25025-2.07068.23953l-10.8374,8.87939-1.11926.95716 .68494,1.31716 .13818.30848-.34473.07843-1.46509.33337-.031,1.45737-.98193,13.68136c-.0896.69413.21325,1.36597.78649,1.76761s1.33423.4664 1.95606.14511 1.00183-.96072 1.00586-1.66064c0,0 .07385-.99921.08508-1.15985-.63013-.50742-1.02136-.99393-.9032-1.16327-1.00232-1.98624-.9729-6.91205.9989-11.68042 .26661-.40234 1.724.11902 3.40918,1.13495l.9751-.17761-.34485-.71677-.59912-.39707c-1.94909-1.29199-3.27026-2.7323-2.95849-3.22766 3.52673-3.84945 8.19983-5.77053 10.60449-5.87576 .25586-.21005 1.5758-.88711 1.5758-.88711 .51746-.38346.80896-.99741.7627-1.63974s-.75293-1.42219-1.32703-1.71402m10.11841,7.15008c-.65857-.37622-1.47827-.32049-2.07983.14133l-11.23169,8.33829-1.16333.90313 .62195,1.34806c0,0 .07544.23953.10351.30639-.07739.01105-.32812.07034-.32812.07034l-1.47937.26368-.09986,1.45425-1.65405,13.65711c-.12219.68914.14856,1.37451.70215,1.80279s1.31079.52887 1.94714.23734 1.04602-.91236 1.08301-1.6113c0,0 .12109-.9946.13977-1.15454-.60547-.53662-.97314-1.04105-.84717-1.20462-.90747-2.03138-.63208-6.96884 1.56311-11.63864 .2854-.38929 1.72254.15512 3.33155,1.28793l.98889-.10617-.29676-.74133-.57971-.43409c-1.88598-1.38269-3.12011-2.87921-2.77405-3.35122 3.7909-3.58969 8.64991-5.25745 11.05616-5.19205l1.38757-.98236c.53491-.35858.85498-.9581.83923-1.6019s-.67053-1.47375-1.2301-1.79242" fill="#740000" fill-rule="evenodd"/>
  <path d="m819.03 428.61c0.54163-3.4017 5.1444-6.275 6.6026-5.2624m2.4334-1.8915c0.70318-3.372 5.4664-5.9829 6.8746-4.9017m2.4863-1.7338c0.94311-3.3129 5.8082-5.7125 7.163-4.5653m2.5792-1.592c1.1001-3.2641 6.0862-5.408 7.3849-4.1975m2.6638-1.4466c1.2538-3.2083 6.3364-5.0891 7.5464-3.7899m2.7796-1.3315c1.4033-3.1458 6.5861-4.7468 7.7344-3.3928m2.8384-1.2009c1.548-3.0772 6.8134-4.4009 7.8985-2.9958m2.8904-1.0698c1.6871-3.0031 7.018-4.0549 8.0389-2.6024m2.8947-0.91199c1.8845-2.8833 7.2413-3.7387 8.1973-2.2427m2.936-0.77218c2.0082-2.7986 7.3994-3.4113 8.2903-1.8756m2.9694-0.63706c2.1251-2.7109 7.5388-3.0889 8.3646-1.5173m2.9954-0.50751c2.2352-2.6209 7.6604-2.7732 8.4216-1.1693m3.015-0.38415c2.3385-2.5291 7.7656-2.4658 8.4627-0.83298m3.0289-0.2674c2.4352-2.4362 7.8556-2.1675 8.4898-0.50924m3.038-0.1575c2.5253-2.3427 7.9318-1.8793 8.504-0.1987m3.0428-0.05445c2.6091-2.2489 7.9952-1.5983 8.5057 0.10211m3.0419 0.04822c2.6907-2.1507 8.0489-1.3064 8.495 0.41208m3.037 0.15772c2.771-2.0462 8.0929-0.99946 8.4719 0.73498m3.0274 0.27402c2.8495-1.9354 8.1255-0.67798 8.4348 1.0702m3.0126 0.39694c2.9257-1.8182 8.1451-0.34259 8.3822 1.4169m2.9916 0.52603c2.9988-1.6946 8.1502 0.00574 8.3127 1.7736m2.9634 0.66065c3.0686-1.5649 8.1393 0.36575 8.2253 2.139m2.9277 0.80002c3.1339-1.4292 8.1107 0.73574 8.1183 2.5111m2.8838 0.94318c3.1947-1.288 8.0579 1.0998 7.9451 2.8716m2.8773 1.1049c3.2498-1.1416 7.984 1.501 7.7897 3.2657m2.8234 1.2363c3.299-0.99067 7.8874 1.9063 7.6111 3.6601m2.7627 1.3665c3.3416-0.83585 7.7683 2.3122 7.4099 4.0511m2.6458 1.4804c3.3922-0.59796 7.6763 2.7296 7.2361 4.4496m2.5603 1.6231c3.4168-0.43689 7.5255 3.1087 7.0045 4.8059m2.4673 1.7611c3.4335-0.27484 7.3512 3.4687 6.7114 5.1248" fill="none" stroke="url(#e)" stroke-linecap="round"/>
  <path d="m815.53 426.85c3.9566-0.8403 7.7673-3.8681 8.848-6.2149m0.27582-1.1041c3.9921-0.65078 7.9716-3.4538 9.1632-5.7463m0.32831-1.0897c4.0187-0.45917 8.1547-3.0274 9.4545-5.2603m0.41058-1.0905c4.0413-0.17026 8.2511-2.6142 9.7067-4.7488m0.45544-1.043c4.0448 0.02173 8.3868-2.1781 9.9412-4.2418m0.50403-1.0204c4.0393 0.21192 8.4975-1.742 10.146-3.7313m0.5509-0.99588c4.0251 0.39938 8.5833-1.3098 10.321-3.2216m0.59589-0.96961c4.0026 0.5831 8.6449-0.88519 10.467-2.717m0.63885-0.94186c3.9724 0.76233 8.6835-0.47125 10.584-2.2211m0.67963-0.91287c3.935 0.93634 8.7007-0.0708 10.675-1.7374m0.74927-0.88696c3.867 1.1863 8.6674 0.31799 10.71-1.2645m0.78589-0.84893c3.8147 1.345 8.6475 0.67798 10.752-0.82004m0.81916-0.81409c3.7577 1.4969 8.6135 1.023 10.776-0.39071m0.84961-0.78266c3.6966 1.642 8.5671 1.3522 10.782 0.0224m0.87786-0.75479c3.6322 1.7801 8.5101 1.6653 10.773 0.41855m0.8775-0.7247c3.5988 1.8466 8.4706 1.9593 10.778 0.79596m0.90338-0.6922c3.5289 1.9768 8.3932 2.2565 10.742 1.1809m0.92877-0.65769c3.452 2.1082 8.302 2.5676 10.691 1.584m0.95362-0.62116c3.3675 2.2407 8.195 2.8917 10.622 2.0045m0.97766-0.58249c3.2753 2.3736 8.0707 3.2278 10.532 2.4412m1.0008-0.54178c3.1748 2.5063 7.927 3.5744 10.419 2.8923m1.0228-0.49903c3.0662 2.6382 7.7627 3.9295 10.282 3.3558m1.0739-0.44196c2.8876 2.8324 7.546 4.2784 10.088 3.8166m1.0881-0.37964c2.7583 2.9584 7.345 4.5901 9.9126 4.3017m1.0878-0.33481c2.6211 3.0806 7.1136 4.9547 9.6918 4.7848m1.1019-0.28436c2.4764 3.1981 6.8594 5.3157 9.4425 5.2662m1.114-0.23269c2.3247 3.31 6.5825 5.6696 9.1653 5.7416m1.1237-0.18008c2.1666 3.4156 6.2847 6.0129 8.8611 6.2068m1.1309-0.1268c2.0029 3.5142 5.9905 6.2928 8.5465 6.6689m1.1371-0.04629c1.7488 3.6473 5.6295 6.5852 8.1652 7.0814" fill="none" stroke="#000" stroke-linecap="round"/>
 </g>
 <path transform="matrix(.72368 0 0 .72368 -552.8 -53.589)" d="m809.46 416.98c-1.1133-0.2533-1.9374-1.0171-2.2742-2.1081s0.23401-2.4613 1.0305-3.2793 1.6195-0.91938 2.7312-0.65882 1.9321 1.027 2.2633 2.1197 0.24798 2.0468-0.54853 2.8649-2.0894 1.3165-3.2023 1.0616m9.6008-7.5967c-1.1-0.30606-1.8867-1.1083-2.1711-2.2141s0.36676-2.429 1.2015-3.2081 1.6616-0.84095 2.7595-0.52759 1.8809 1.1181 2.1595 2.2254 0.1499 2.0563-0.68475 2.8354-2.1651 1.1966-3.2646 0.88904m10.249-7.2499c-1.0752-0.3841-1.8024-1.2407-2.0068-2.364s0.17431-2.1812 1.0454-2.9195 2.0455-0.99975 3.1181-0.60852 1.7959 1.2501 1.9945 2.3744-0.22895 2.2263-1.0999 2.9646-1.9766 0.93866-3.0513 0.55298m10.357-6.5302c-1.0557-0.43497-1.7412-1.3253-1.8917-2.4571s0.27826-2.1704 1.1835-2.8662 2.1014-0.87875 3.1542-0.43689 1.7343 1.3341 1.8792 2.4667-0.34576 2.1909-1.251 2.8868-2.0191 0.84326-3.0741 0.40674m10.677-5.9854c-1.0338-0.48462-1.6762-1.4064-1.773-2.5441s0.38093-2.1547 1.3182-2.8068 2.1484-0.75558 3.1792-0.26443 1.6693 1.4146 1.7604 2.5528-0.19324 2.0527-1.1456 2.6826-2.3062 0.86615-3.3393 0.38007m10.964-5.4298c-1.0099-0.53269-1.6082-1.4837-1.6513-2.6247s0.85223-2.319 1.833-2.9036 1.8021-0.46994 2.8087 0.06887 1.6013 1.4912 1.6392 2.6323-0.289 2.0414-1.2698 2.626-2.3506 0.73526-3.3598 0.20111m11.216-4.8686c-0.98407-0.57904-1.5376-1.5568-1.5276-2.6986s0.96112-2.2556 1.9678-2.7943 1.8218-0.38632 2.8026 0.19834 1.5308 1.5634 1.516 2.7051-0.38287 2.0259-1.3895 2.5647-2.386 0.6052-3.3693 0.02475m11.711-4.4006c-0.94226-0.6449-1.7413-1.5318-1.6791-2.6719s1.0625-2.1898 2.0926-2.6824 1.8375-0.30328 2.7906 0.32523 1.4584 1.6312 1.3918 2.7711-0.4743 2.0065-1.5044 2.4991-2.1503 0.40521-3.0916-0.24103m11.621-3.7202c-0.9126-0.68616-1.3525-1.7201-1.214-2.8534s0.81433-2.0309 1.8653-2.4772 1.8491-0.22128 2.7734 0.449c0.92529 0.66898 1.6985 1.6263 1.5565 2.7592s-0.85236 2.0544-1.9033 2.5007-2.1662 0.30921-3.0778-0.37826m11.768-3.1744c-0.88196-0.72519-1.2765-1.7772-1.0889-2.9035s0.90192-1.9936 1.9712-2.3938 2.2217-0.22974 3.1006 0.49905 1.2717 1.7806 1.0811 2.9064-0.93634 2.0034-2.0057 2.4035-2.1776 0.21472-3.0584-0.51172m11.885-2.6415c-0.85034-0.76196-1.1999-1.8298-0.96466-2.9471s0.98566-1.9536 2.071-2.308 2.2212-0.12597 3.0688 0.63898 1.196 1.8323 0.95844 2.9491-1.0143 1.9536-2.0997 2.308-2.1847 0.12216-3.034-0.64102m11.974-2.1246c-0.81818-0.79642-1.1234-1.8778-0.84217-2.9844s1.0654-1.9112 2.1646-2.2205 2.2149-0.02878 3.0307 0.77002 1.1205 1.8795 0.83765 2.9857-1.0867 1.9056-2.1858 2.215-2.1879 0.03183-3.0049-0.76577m12.036-1.626c-0.78552-0.82862-1.0471-1.9214-0.72174-3.0158s1.1413-1.8669 2.2519-2.1319 2.2038 0.06134 2.9874 0.89176 1.0453 1.9223 0.71899 3.0165-1.1541 1.8602-2.2648 2.1251-2.1874-0.05597-2.9718-0.88568m12.076-1.1478c-0.75274-0.85852-0.97156-1.9606-0.60388-3.0416s1.2131-1.8211 2.3332-2.0426 2.1888 0.14423 2.94 1.0041 0.97095 1.9609 0.60291 3.0418-1.217 1.8175-2.3372 2.0391-2.1835-0.14105-2.9351-1.0007m12.095-0.69092c-0.71985-0.88629-0.89698-1.9958-0.48883-3.0622s1.2808-1.7741 2.4084-1.9532 2.1708 0.21979 2.8896 1.1069 0.89752 1.9956 0.48975 3.062-1.2761 1.7779-2.4038 1.9571-2.1767-0.22321-2.8953-1.1105m12.097-0.25622c-0.68702-0.91199-0.82349-2.0273-0.37665-3.078s1.3448-1.7262 2.4782-1.864 1.8381 0.29926 2.5407 1.1992 1.1306 2.0296 0.68414 3.0804-1.3402 1.74-2.4736 1.8779-2.1671-0.30255-2.8528-1.2155m12.105 0.16778c-0.65271-0.93682-0.7478-2.0564-0.26233-3.0898s1.4078-1.6751 2.5455-1.7709 1.8258 0.36716 2.4946 1.2926c0.6701 0.92444 1.0637 2.0638 0.578 3.0972s-1.4122 1.6956-2.55 1.7914-2.1544-0.38266-2.8058-1.3204m12.106 0.60944c-0.61639-0.96109-0.66858-2.0835-0.14398-3.0976s1.4708-1.6201 2.6114-1.6723 1.8104 0.43671 2.4433 1.387 0.70752 2.0706 0.2019 3.0944-1.2187 1.663-2.3592 1.7152-2.1382-0.46476-2.7534-1.4267m12.09 1.0729c-0.57813-0.98465-0.586-2.1082-0.02179-3.1009s1.5335-1.5609 2.6753-1.5681 1.7917 0.50772 2.3867 1.4822c0.59644 0.97369 0.62531 2.0969 0.07971 3.0999s-1.2833 1.6137-2.4251 1.6209-2.1182-0.54867-2.6948-1.5341m12.052 1.5572c-0.53772-1.0073-0.5-2.1303 0.104-3.0992s1.5956-1.4973 2.7367-1.4582 1.7697 0.57999 2.3247 1.5778 0.83765 2.1805 0.23169 3.1482-1.6256 1.5127-2.7667 1.4735-2.0942-0.63416-2.6304-1.6422m11.99 2.0608c-0.49512-1.0288-0.41065-2.1492 0.23315-3.0922s1.6567-1.4295 2.7952-1.3429 1.7439 0.65329 2.2568 1.6734 0.7522 2.2226 0.10584 3.1638-1.6929 1.4349-2.8313 1.3482-2.0659-0.72091-2.5597-1.7504m11.903 2.5818c-0.45081-1.049-0.31848-2.1648 0.36511-3.0794s1.7162-1.3574 2.85-1.2221 2.0863 0.81665 2.5323 1.8677 0.31177 2.1658-0.37463 3.0782-1.7566 1.3491-2.8903 1.2138-2.0333-0.8086-2.4825-1.8583m11.787 3.1175c-0.40454-1.0678-0.22351-2.1767 0.49939-3.0605s1.7739-1.2811 2.9008-1.0964 2.0522 0.92234 2.4513 1.9921 0.21594 2.1774-0.51001 3.0587-1.8158 1.2558-2.9426 1.0711-1.996-0.89667-2.3988-1.965m11.64 3.6647c-0.35645-1.0847-0.12622-2.1845 0.63537-3.0352s1.8292-1.2006 2.9467-0.96582 2.0104 1.0309 2.361 2.1175 0.11768 2.185-0.64722 3.0326c-0.76501 0.84765-1.8696 1.1557-2.9871 0.92096s-1.954-0.98484-2.3087-2.0701m11.461 4.2197c-0.30676-1.0998-0.02685-2.188 0.77271-3.0032s2.2688-0.9866 3.3676-0.676 1.5798 0.98594 1.8804 2.0875 0.01758 2.188-0.7854 2.9998-1.6814 1.1932-2.7802 0.8826-2.1498-1.1905-2.4551-2.2907m11.249 4.7781c-0.25574-1.1128 0.0741-2.1869 0.91016-2.9644s2.3082-0.86059 3.3914-0.49939 1.5325 1.0581 1.7815 2.1724-0.08386 2.1865-0.92358 2.9602-1.735 1.1139-2.8181 0.75272-2.087-1.3084-2.3413-2.4215m11.004 5.3354c-0.20361-1.1235 0.17578-2.1811 1.0474-2.9187s2.339-0.73093 3.4039-0.31943c1.0652 0.4115 1.4813 1.1287 1.678 2.2534s-0.18628 2.1802-1.0613 2.9137c-0.87488 0.73353-1.7852 1.0315-2.8502 0.61997s-2.0157-1.4252-2.2178-2.549m10.981 6.0543c-0.1239-1.135 0.3291-2.1632 1.2506-2.8376s2.0383-0.79545 3.0829-0.33423 1.7893 1.4006 1.9059 2.5364-0.33997 2.1615-1.2646 2.8313-2.1007 0.76895-3.145 0.30771-1.7075-1.3684-1.8297-2.5036m10.395 6.4589c-0.06995-1.1396 0.43127-2.1452 1.3835-2.7752s2.0737-0.69819 3.0952-0.18808 1.7082 1.5029 1.7711 2.643-0.4419 2.143-1.3972 2.7683-2.1218 0.64945-3.1433 0.13934-1.6409-1.4476-1.7094-2.5873m10.051 6.9812c-0.01612-1.1417 0.53222-2.1224 1.5132-2.7068s2.1044-0.59931 3.1006-0.04148 1.6208 1.5995 1.6298 2.7413-0.5426 2.1198-1.5264 2.6992-1.9307 0.72354-2.9134 0.14233-1.7892-1.693-1.8037-2.8346" fill="#434343" fill-rule="evenodd" stroke="url(#a)" stroke-linecap="round" stroke-width=".5"/>
 <path transform="matrix(.72368 0 0 .72368 -552.8 -53.589)" d="m830.93 437.69c-1.107-0.27972-1.9126-1.063-2.2233-2.1616s0.13111-2.3353 0.91224-3.1681 1.6511-0.95694 2.7562-0.66989 1.907 1.0728 2.2121 2.1731 0.02337 2.188-0.77741 3.0019-1.7732 1.1059-2.8798 0.82464m8.6026-6.5767c-1.0923-0.33227-1.8596-1.1531-2.1176-2.2654s-0.0025-2.1808 0.83624-2.9556 1.9348-1.022 3.0249-0.68246 1.8536 1.1628 2.1056 2.2764-0.08123 2.1866-0.91998 2.9613-1.8373 0.99951-2.9293 0.66568m8.9342-6.117c-1.0753-0.38413-1.8024-1.2407-2.0068-2.364s0.11548-2.1578 0.99029-2.8915 1.9814-0.92837 3.054-0.53711 1.7959 1.2501 1.9945 2.3744-0.18567 2.1802-1.0605 2.914-1.8968 0.88996-2.9715 0.50431m9.2438-5.6422c-1.0557-0.435-1.7412-1.3253-1.8917-2.4571s0.23162-2.1293 1.1404-2.8206 2.0234-0.83298 3.0762-0.39109 1.432 1.5163 1.5499 2.6519 0.03997 1.9837-0.86878 2.6749-1.951 0.77838-3.006 0.34189m9.1888-4.957c-1.0222-0.50885-1.6426-1.4456-1.7125-2.5852s0.62506-2.2539 1.5654-2.9015 1.8084-0.61243 2.8273-0.09723c1.0197 0.5137 1.6357 1.4534 1.7001 2.5933s-0.06714 1.9642-1.0076 2.6118-2.3514 0.88916-3.3728 0.37885m9.793-4.6604c-0.99719-0.55609-1.5732-1.5208-1.5897-2.6625s0.7298-2.2222 1.6995-2.8251 1.8468-0.50889 2.8407 0.05307 1.5664 1.5278 1.5778 2.6696-0.17175 1.9414-1.1414 2.5442-2.3904 0.77823-3.3868 0.2207m10.025-4.1651c-0.97052-0.6015-1.5014-1.5918-1.4652-2.733s0.83148-2.1862 1.8279-2.7437 1.8792-0.40689 2.8463 0.19998 1.4949 1.5979 1.454 2.7389-0.63739 2.0932-1.6463 2.6279-2.0471 0.51279-3.0167-0.09009m10.23-3.671c-0.9422-0.64492-1.4277-1.6582-1.3397-2.7966s0.67243-2.0793 1.7043-2.5681 2.1517-0.39734 3.0907 0.25235 1.4216 1.6634 1.3295 2.8015-0.73083 2.0625-1.7627 2.5513-2.0808 0.40585-3.022-0.24039m10.409-3.1816c-0.91266-0.68618-1.3525-1.7201-1.214-2.8534s0.77356-2.0349 1.8259-2.4778 2.1671-0.30231 3.0765 0.38806 1.347 1.7244 1.205 2.8573-0.8208 2.0283-1.8732 2.4712-2.1086 0.30215-3.0202-0.38532m10.561-2.7004c-0.88196-0.72521-1.2765-1.7772-1.0889-2.9035s0.86987-1.99 1.9403-2.3873 2.1781-0.20892 3.057 0.51987 1.2717 1.7806 1.0811 2.9064-0.90716 1.9912-1.9776 2.3885-2.1311 0.20246-3.012-0.52399m10.688-2.2301c-0.85035-0.76193-1.1999-1.8298-0.96466-2.9471s0.9613-1.9452 2.0475-2.2973 2.1849-0.11756 3.0326 0.6474 1.196 1.8323 0.9585 2.9491-0.98975 1.9515-2.0759 2.3036-2.1487 0.10746-2.998-0.65573m10.793-1.7732c-0.81818-0.79642-1.1233-1.8778-0.84217-2.9844s1.0482-1.9012 2.1478-2.2088 2.1879-0.0285 3.0037 0.77033 1.1205 1.8795 0.83765 2.9857-1.0684 1.9096-2.168 2.2172-2.162 0.01757-2.9791-0.78m10.876-1.3317c-0.78559-0.82861-1.0471-1.9214-0.72174-3.0158s1.1307-1.8584 2.2416-2.1223 2.1874 0.05798 2.971 0.88843 1.0454 1.9223 0.719 3.0164-1.143 1.8659-2.2538 2.1298-2.1716-0.06687-2.9559-0.89658m10.94-0.90695c-0.75274-0.85852-0.97155-1.9606-0.60388-3.0416s1.2092-1.8172 2.3294-2.0384 2.1835 0.1417 2.9348 1.0016 0.97095 1.9609 0.60291 3.0418-1.2136 1.8207-2.3337 2.0419-2.178-0.14566-2.9294-1.0053m10.987-0.49997c-0.71985-0.88629-0.89697-1.9958-0.48883-3.0622s1.2839-1.7779 2.4116-1.9574 2.1768 0.22253 2.8956 1.1096 0.89758 1.9956 0.48974 3.062-1.2803 1.7745-2.4078 1.954-2.1817-0.21878-2.9003-1.1061m11.017-0.11114c-0.68702-0.91199-0.82349-2.0273-0.37665-3.078s1.3482-1.7397 2.4816-1.8779 2.1672 0.30188 2.8532 1.2147 0.82409 2.027 0.37762 3.0779-1.3442 1.7265-2.4776 1.8648-2.1725-0.28839-2.8582-1.2014m11.005 0.27453c-0.65271-0.93683-0.7478-2.0564-0.26239-3.0898s1.405-1.6962 2.5428-1.7917 2.1543 0.38324 2.8054 1.3212 0.74713 2.0566 0.26147 3.0899-1.4083 1.6748-2.5461 1.7702-2.1499-0.36206-2.8013-1.2998m10.968 0.67682c-0.6164-0.96109-0.66864-2.0835-0.14405-3.0976s1.4622-1.6456 2.6028-1.6968 2.1378 0.46661 2.752 1.4291c0.6156 0.9616 0.66681 2.084 0.14136 3.0977s-1.4724 1.6188-2.6129 1.67-2.1241-0.44046-2.7392-1.4024m10.914 1.0967c-0.57812-0.98465-0.586-2.1082-0.02179-3.1009s1.5191-1.5877 2.6608-1.5933 2.1175 0.55176 2.6927 1.5381 0.58282 2.1091 0.01721 3.1009-1.5358 1.5586-2.6775 1.5642-2.0947-0.52347-2.6714-1.5089m10.841 1.5332c-0.5376-1.0073-0.5-2.1302 0.10401-3.0992s1.5752-1.5226 2.7162-1.4811 2.0929 0.6384 2.6271 1.6476c0.53564 1.0084 0.4956 2.1313-0.11035 3.099s-1.5986 1.4941-2.7396 1.4526-2.0612-0.61078-2.5973-1.6188m10.749 1.9851c-0.49511-1.0288-0.41064-2.1492 0.23316-3.0922s1.6295-1.4501 2.7678-1.3605 2.0641 0.7262 2.5552 1.757 0.40515 2.1503-0.24109 3.0916-1.6603 1.4252-2.7985 1.3357-2.0228-0.70203-2.5166-1.7316m10.634 2.4505c-0.45068-1.049-0.31848-2.1648 0.36512-3.0794s1.6816-1.3705 2.8151-1.2318 2.0306 0.81479 2.4768 1.8658 0.31176 2.1658-0.37464 3.0782-1.7203 1.3521-2.8536 1.2134-1.9794-0.79667-2.4287-1.8464m10.496 2.9272c-0.40454-1.0678-0.22351-2.1767 0.49939-3.0605s1.7307-1.2842 2.8568-1.0955 1.9928 0.90369 2.392 1.9734-0.10425 2.0827-0.84985 2.9474-1.4387 1.3861-2.5648 1.1974-1.9306-0.89398-2.3335-1.9623m9.973 3.2989c-0.33178-1.0925-0.07666-2.1868 0.70398-3.02s2.0679-1.093 3.1843-0.85388 1.6978 0.88797 2.0234 1.9823 0.06775 2.1871-0.71619 3.0171-1.4879 1.3058-2.6045 1.0666-2.2609-1.0992-2.5911-2.1922m10.137 3.9024c-0.28149-1.1066 0.02332-2.188 0.84131-2.9846s2.1157-0.99728 3.2201-0.70727 1.6442 0.98098 1.9192 2.0892-0.03321 2.1879-0.85462 2.9809-1.5336 1.2203-2.6379 0.9303-2.2082-1.2015-2.488-2.3084m9.9216 4.3966c-0.22974-1.1184 0.12475-2.1846 0.97876-2.9424s2.1598-0.89813 3.2495-0.55725 1.5848 1.074 1.8079 2.1938-0.13501 2.184-0.99268 2.9378-1.9592 0.97409-3.0406 0.60787-1.7745-1.1211-2.0028-2.2398m9.6799 4.8888c-0.17725-1.1279 0.22693-2.1763 1.1155-2.8933s1.9652-0.95035 3.0282-0.53369 1.7638 1.295 1.934 2.424-0.23755 2.1752-1.1295 2.8879-2.0029 0.88095-3.066 0.46429-1.7066-1.221-1.8821-2.3492m9.4127 5.375c-0.1239-1.1351 0.32922-2.1632 1.2506-2.8376s1.9948-0.83771 3.037-0.37128 1.7006 1.3768 1.8171 2.5126-0.33984 2.1615-1.2645 2.8313-2.0424 0.78537-3.0846 0.31897-1.6334-1.3188-1.7556-2.4541m9.1213 5.8513c-0.07006-1.1396 0.43128-2.1452 1.3834-2.7752s2.019-0.72342 3.0378-0.20822 1.6337 1.4558 1.6964 2.5958-0.7356 1.9488-1.7053 2.5513-1.769 0.90488-2.7881 0.38968-1.5558-1.4136-1.6243-2.5533m8.4821 6.0921c0.01086-1.1417 0.58203-2.1092 1.5765-2.6703s2.3004-0.42309 3.2939 0.13965 1.3429 1.3552 1.3248 2.4969-0.59228 2.1064-1.5896 2.6626-1.7971 0.80181-2.7906 0.23907-1.8276-1.7262-1.8151-2.8679" fill="#434343" fill-rule="evenodd" stroke="url(#a)" stroke-linecap="round" stroke-width=".5"/>
 <path transform="matrix(.72368 0 0 .72368 -552.8 -53.589)" d="m809.32373,412.93774c-.53369.53873-.96857,1.59073-.66138,2.28406l5.46985,12.84079 .57184,1.35715 1.46295-.25232 .33594-.0379c-.00751.07772-.03003.35229-.03003.35229l-.12762,1.49713 1.37902.47235 12.96894,4.80475c.64087.28141 1.37072.17978 1.91748-.25726s.52991-.90244.41302-1.59253-.61047-1.24649-1.276-1.46329l-1.07898-.43384c-.67505.44584-1.00909.51331-1.13836.35233-2.18805.40292-6.94074-1.05441-10.96204-4.28772-.31116-.36908.57678-1.61258 2.05701-2.90915l.12994-.98608-.79041.11368-.56042.45001c-1.82343,1.4642-3.55188,2.34009-3.92914,1.89258-2.5957-4.52973-3.04974-9.62128-2.41894-11.94422l-.62757-1.58008c-.22235-.6044-.72949-1.05685-1.35888-1.1932s-1.29364.06231-1.74622.52047m9.80951-7.58038c-.55878.51264-.75531,1.31058-.49854,2.02411l4.56507,13.29428 .50647,1.38287 1.47333-.18228c0,0 .26525-.01382.33728-.02185l-.04676.35044-.19885,1.48934 1.35498.53757 12.73853,5.43778c.62671.31167 1.03363.46292 1.61023.06619s.90319-1.08725.81945-1.78214-.55017-1.27426-1.20459-1.52264l-1.057-.48492c-.69562.41305-1.04602.44421-1.16748.27725-2.20478.29797-6.89624-1.4043-10.75891-4.82559-.29316-.38349.66729-1.56394 2.20776-2.78836l.17688-.97873-.79492.0758-.5813.42273c-1.89124,1.37543-3.67383,2.14881-4.0293,1.68381-2.37689-4.64832-2.57251-9.737-1.83148-12.02716l-.55139-1.60825c-.19324-.61432-.67816-1.09048-1.30036-1.25674s-1.29516.00046-1.7691.43649m10.18939-7.06311c-.58264.48532-.81714,1.27292-.59479,1.99793l3.91028,13.47699 .43976,1.40551 1.48041-.11163 .33795-.00571-.06348.34781-.26977,1.47815 1.3277.60172 12.4776,6.06118c.61108.34128 1.02404.53244 1.61895.1637s.95417-1.04282.90369-1.74094-.48865-1.2991-1.13037-1.57846l-1.03265-.53488c-.71454.37933-1.3158.54733-1.42493.3721-2.22046.13916-6.72302-1.80908-10.33051-5.49847-.26495-.40354.78791-1.538 2.38513-2.68735l.22352-.96915-.79767.03772-.60083.39444c-1.95484,1.28342-3.78614,1.95023-4.11896,1.46875-2.15198-4.75662-2.09021-9.82843-1.24048-12.08056l-.47381-1.63279c-.16364-.62283-.62531-1.12164-1.23877-1.31747s-1.29371-.06146-1.78797.35141m10.54004-6.52539c-.60522.45697-.87701,1.23251-.68951,1.96729l3.24987,13.62692 .37214,1.42492 1.484-.04077 .33783.01047-.08001.34436-.34015,1.46356 1.29742.66449 11.87671,6.86652c.58515.38409 1.32178.4053 1.9336.06531s1.00268-.99622.98553-1.69593-.42627-1.32089-1.05395-1.63049l-1.00605-.58343c-.73181.34484-1.34033.48403-1.44104.3038-2.22455.03329-6.64233-2.14832-10.06964-6.00568-.24536-.41568.86041-1.49859 2.51068-2.57043l.26752-.95264-.79657-.00513-.61896.3653c-2.01385,1.18866-3.88769,1.74612-4.19714,1.2493-1.92218-4.85404-1.409-10.0604-.40051-12.24601l-.35596-1.66247c-.11871-.63297-.54352-1.16348-1.14148-1.40265s-1.61096.05457-2.12433.44339m10.85852-5.97195c-.62622.42773-.93451,1.18948-.78204,1.93234l2.58801,13.74426 .30383,1.44101 1.47022.03882 .33618.03451c-.0238.07434-.10431.3378-.10431.3378l-.3866,1.43122 1.26435.72552 11.56292,7.46311c.56635.41131 1.30115.46734 1.92835.15664s1.04864-.94772 1.06457-1.64746-.36334-1.33957-.9757-1.67847l-.97736-.63037c-.74725.30991-1.36169.42017-1.45373.23539-2.2237-.07187-6.54566-2.48081-9.78602-6.49646-.22534-.42691.89405-1.47852 2.61622-2.43045l.33685-.93583-.79651-.05709-.64532.3287c-2.06806,1.09174-3.9535,1.54752-4.22675,1.02991-1.57135-4.9787-.94586-10.07486.16479-12.21039l-.27697-1.67743c-.08863-.63788-.48792-1.18787-1.07386-1.45505s-1.61987-.04425-2.15112.31977m11.49066-5.55271c-.65466.38263-1.33709,1.28891-1.21972,2.03809l1.96148,13.81878 .20282,1.46473 1.47687.12893 .33423.05027c-.02728.07315-.12012.33251-.12012.33251l-.46405,1.39075 1.16333.83548 11.28803,7.98636c.54651.43735 1.27789.52765 1.91894.24664s.7525-.7464.81726-1.44333-.2688-1.36166-.85602-1.74255c0,0-.53222-.71466-.66369-.80765-.76099.27463-1.37988.35605-1.4632.16715-2.21789-.17581-6.43359-2.80423-9.48156-6.96784-.20502-.43701.97229-1.41424 2.73706-2.2846l.38024-.91907-.79296-.09427-.65766.29001c-2.13965.94363-4.03344,1.34762-4.28204.81772-1.33545-5.04706-.46423-10.08655.74506-12.16779l-.19819-1.68854c-.05877-.64132-.43188-1.20941-1.0047-1.50366s-1.26586-.27386-1.82141.05188m11.40113-4.8017c-.6717.35203-1.39801,1.20456-1.31562,1.95841l1.31739,13.89499 .13317,1.46664 1.47065.20334 .33154.06577-.1355.32657-.57568,1.3879 1.17084.86838 10.91693,8.5185c.52569.46209 1.25219.58606 1.90545.3349s.79853-.69486.89514-1.38807-.20629-1.37259-.77545-1.77993l-.89801-.73896c-.77801.22156-1.13397.17728-1.20849-.01526-2.2074-.27789-6.30732-3.11642-9.15851-7.41717-.18451-.44605 1.04492-1.34845 2.84796-2.13651l.42218-.90054-.78772-.13074-.67035.25937c-2.18091.84394-4.09912,1.13996-4.32287.59909-1.09949-5.10366.00915-10.07696 1.31317-12.10022l-.12012-1.69589c-.02911-.64334-.37561-1.22803-.93427-1.5484s-1.25189-.33197-1.82183-.03217m11.61035-4.2344c-.68695.3212-1.11402,1.02331-1.08332,1.78104l.36005,14.03717 .06598,1.47122 1.45978.27038c0,0 .25708.06681.32818.08088l-.15026.32003-.63855,1.36011 1.12982.92105 10.52716,9.02295c.50421.48544.87359.75076 1.54242.5444s1.18676-.76779 1.31439-1.45596-.14441-1.38046-.69464-1.81296l-.86395-.77856c-.78724.18637-1.41138.19693-1.47266-.00018-2.18353-.42667-5.91223-3.49967-8.56366-7.92634-.16388-.45404 1.11182-1.28231 2.94873-1.98779l.46265-.88046-.78107-.16635-.68134.22873c-2.21698.74417-4.15277.9346-4.3515.38406-.86487-5.14865.47199-10.04785 1.86646-12.00989-.00861-.33081-.04309-1.69958-.04309-1.69958 .00012-.64401-.31952-1.24381-.8631-1.5892s-1.23554-.3884-1.81848-.11475m11.78509-3.6727c-.70056.29034-1.15838.97275-1.16137,1.73108l-.2688,14.02274-.00019,1.47271 1.44611.3357c0,0 .25391.07827.32428.09552l-.16449.31295-.69904,1.33005 1.08728.97089 10.12195,9.4978c.48212.50739.85071.80054 1.52796.62378s1.21936-.71484 1.37719-1.39673-.08355-1.38547-.61431-1.84177l-.8288-.81579c-.79468.15155-1.41864.13467-1.47125-.06497-2.16266-.52231-5.90467-3.71402-8.25348-8.30844-.13312-.46399 1.20917-1.23453 3.07568-1.85761l.50128-.85904-.77289-.2009-.69085.19819c-2.24787.64483-4.19458.73324-4.36835.17431-.63269-5.18228.92242-10.00104 2.40277-11.89914 .00611-.3309.03247-1.69983.03247-1.69983 .02875-.64337-.26385-1.25677-.7915-1.626s-1.21704-.44294-1.81165-.1955m11.92682-3.12094c-.71252.25961-1.19958.92148-1.23559,1.67895l-.88099,13.9841-.065,1.47126 1.42999.39898 .31971.10971-.17804.30542-.7569,1.29801 1.04358,1.01776 9.70435,9.9418c.45959.52787.82586.84537 1.51013.69788s1.24896-.66177 1.43591-1.33627-.02393-1.38779-.53461-1.86646l-.79297-.85065c-.80047.11728-1.42315.07358-1.46716-.12811-2.13818-.61475-5.74609-3.97626-7.89294-8.66846-.1128-.46936 1.26172-1.18081 3.15356-1.72213l.53821-.83643-.76343-.23431-.69879.16793c-2.2738.54651-4.22534.53736-4.37445-.02865-.40411-5.20511 1.35907-9.93863 2.92053-11.77054l.10639-1.69681c.0567-.64151-.20899-1.26706-.7201-1.65887s-1.19665-.49545-1.80139-.27411m12.03736-2.58276c-.72284.22912-1.23761.86975-1.30567,1.62503l-1.47479,13.9237-.12811,1.46713 1.41149.46003 .3147.12335-.19104.29748-.81195,1.26429 .9989,1.06167 8.96381,10.41983c.42535.55585 1.11359.81931 1.8034.70059s1.27558-.60891 1.49061-1.27499c.21496-.66608.03418-1.38757-.456-1.88718l-.75671-.88314c-.80463.08368-1.42499.01397-1.46045-.1894-2.1106-.7037-5.58014-4.2221-7.526-9.00116-.09284-.47372 1.31067-1.12622 3.22375-1.58682l.57318-.81283-.75274-.26651-.70533.13818c-2.29492.44955-4.24597.34811-4.37054-.22379-.18011-5.21768 1.7807-9.86245 3.41846-11.62649 .03448-.32913.45898-1.73645.45898-1.73645 .09711-.63666-.43573-1.22913-.92981-1.64227s-1.1745-.54575-1.78814-.35025m12.11926-2.06125c-.73175.19909-1.27246.8179-1.37171,1.56973l-2.04876,13.84402-.18946,1.46045 1.39106.51874 .30926.13641-.20331.28922-.86419,1.22922 .95355,1.10254 8.53839,10.78991c.40234.5727 1.07935.86396 1.77338.77341s1.29931-.55646 1.54126-1.21326 .09069-1.38501-.37873-1.90417l-.72015-.91321c-.80737.05087-1.42438-.04407-1.45154-.24872-2.0802-.78903-5.40845-4.45114-7.15533-9.30649-.07318-.47714 1.35608-1.07113 3.28656-1.45233l.60296-.78671-.73785-.29913-.71039.10894c-2.31152.35441-4.24231.16767-4.33099-.41088 .1455-5.21878 2.36694-9.84308 4.1101-11.50309l.28186-1.67663c.12299-.63214-.07635-1.28189-.54406-1.72464s-1.46076-.55335-2.08191-.38333m12.17505-1.55884c-.73914.16959-1.30426.7662-1.4336,1.51343l-2.60205,13.74746-.24872,1.45154 1.36878.57495 .30347.14887-.21497.2807-.91351,1.19302 .90789,1.14044 8.11029,11.12561c.37946.58817 1.04438.90595 1.74146.8429s1.32025-.5047 1.58801-1.1514 .14527-1.38034-.30322-1.91766l-.68347-.94095c-.80878.01892-1.42157-.10031-1.44061-.30588-2.04743-.87063-5.23273-4.6633-6.78339-9.58481-.05396-.4797 1.39795-1.0159 3.34216-1.31933l.63422-.76145-.7254-.32891-.71424.08032c-2.32385.26138-4.2456-.00263-4.31097-.58429 .35473-5.20874 2.75372-9.73795 4.56109-11.32779l.3479-1.66419c.14783-.6268-.02563-1.28393-.47552-1.74478s-1.42816-.61273-2.0556-.4678m12.20752-1.0773c-.74512.14071-1.33307.7149-1.49134,1.45654l-3.13409,13.63623-.30591,1.44061 1.34497.62857 .29736.16074-.22589.272-.9599,1.15598 .86213,1.17544 7.68249,11.42765c.35657.60226 1.00885.94528 1.70783.90899s1.33868-.45379 1.63098-1.08975 .19806-1.37378-.22956-1.92788l-.64697-.96644c-.8089-.01205-1.41663-.15469-1.42779-.3608-2.01258-.94843-5.05445-4.85871-6.41242-9.83686-.03528-.48141 1.4364-.96069 3.39099-1.18826l.66663-.73813-.71533-.35498-.71686.05249c-2.33228.17078-4.24225-.16782-4.28498-.75159 .55713-5.19098 2.92487-9.57266 4.76258-11.12732 .07379-.3226.63971-1.66687.63971-1.66687 .17169-.62069.0235-1.28396-.40839-1.76171s-1.39355-.66504-2.02624-.54465m12.21966-.61783c-.74994.11252-1.35907.66415-1.54516,1.39929l-3.64466,13.51257-.36084,1.42783 1.31989.67963c0,0 .22693.13809.29095.17202l-.23608.26316-1.00348,1.11834 .81641,1.20762 7.25769,11.69711c.33404.61508.97314.98205 1.67297.97168s1.35455-.40384 1.67023-1.02857 .24884-1.36547-.15796-1.93505l-.61066-.98975c-.80786-.04205-1.40991-.20709-1.41345-.41351-1.97601-1.02234-4.87494-5.03769-6.04443-10.06348-.01703-.48242 1.47161-.90588 3.43334-1.05963l.69397-.7125-.70141-.38165-.71826.02542c-2.3371.08277-4.24622-.32602-4.27784-.91049 .65564-5.17947 3.30768-9.4577 5.2027-10.94199l.44214-1.64166c.18335-.61737.04755-1.28329-.3753-1.76904s-1.07404-.72385-1.71076-.62735m12.21527-.18094c-.7536.08505-1.38244.61408-1.59527,1.34192l-4.13495,13.3783-.41351,1.41348 1.29382.72809c0,0 .22168.14639.28436.18267l-.24567.25422-1.04431,1.08041 .77118,1.23703 7.11084,11.94827c.32288.62104.65338,1.00495 1.35315,1.02014s1.36841-.35412 1.70667-.96688 .29858-1.35547-.08716-1.93952l-.5741-1.01138c-.80585-.07153-1.40143-.25845-1.39746-.46484-1.93738-1.09385-4.68787-5.20252-5.67297-10.26764 .00055-.48273 1.50366-.85154 3.46972-.93354l.71955-.68667-.68701-.40702-.71875-.00082c-2.33857-.00265-4.23102-.4722-4.24097-1.0574 .84723-5.15165 3.65021-9.3393 5.59814-10.75342l.50183-1.62439c.20575-.61026.09436-1.28073-.31048-1.78159s-1.04682-.76257-1.68665-.68942m12.22235.24854c-.75616.05706-1.40423.56243-1.64386,1.28189l-4.62878,13.2261-.46484,1.39743 1.26635.77484 .27753.19297-.25482.24505-1.08301,1.04157 .72546,1.26437 6.66187,12.19354c.29956.63257.60614,1.02097 1.30487,1.0625s1.38074-.30236 1.74182-.90194 .34943-1.3433-.0141-1.94144l-.53558-1.03229c-.80261-.1018-1.39075-.311-1.37897-.51712-1.89483-1.16598-4.48504-5.36539-5.28186-10.46353 .01843-.48239 1.53418-.79526 3.50195-.80438l.74445-.65955-.67145-.43219-.7182-.02743c-2.33685-.0893-4.21124-.61927-4.19983-1.20447 1.03479-5.11722 3.99457-9.207 5.99359-10.54794l.56165-1.60471c.22821-.60223.14172-1.27634-.24426-1.79187s-1.01789-.80081-1.65998-.7514m12.22419.69729c-.75782.02811-1.42469.5083-1.69159,1.21811l-5.13245,13.04627-.51715,1.37893 1.23627.82196 .27014.20325-.26392.23532-1.12146,1.00003 .67737,1.2908 6.18897,12.43268c.2752.64356.55731,1.03903 1.2539,1.10767s1.39142-.24851 1.77551-.83362 .40131-1.32871.06128-1.94052l-.49505-1.05231c-.79804-.1329-1.37763-.36478-1.35779-.57028-1.84815-1.23868-4.26984-5.52902-4.87103-10.6539 .0368-.48132 1.56347-.73602 3.53009-.66986l.76922-.63059-.65454-.45758-.71655-.05487c-2.33173-.17859-4.1853-.77392-4.15192-1.35827 1.22669-5.07468 4.34491-9.05341 6.39368-10.31693l.62262-1.58206c.2511-.59305.19049-1.26999-.17548-1.7999s-.98651-.83917-1.63012-.81433m12.20739,1.16809c-.7583-.00177-1.4436.45175-1.7384,1.15045l-5.64386,12.83707-.57031,1.35779 1.20337.86935 .26202.2136-.27283.22488-1.15948.95575 .62683,1.31613 5.69238,12.66376c.24958.6539.50641,1.05905 1.19959,1.15549s1.40033-.19266 1.80749-.76191 .4541-1.31161.13892-1.93652l-.4527-1.07126c-.79199-.16473-1.36182-.41961-1.33392-.62417-1.79706-1.31162-4.04151-5.69239-4.44019-10.83698 .05579-.47949 1.59131-.6738 3.55377-.53015l.7934-.59979-.63586-.483-.71393-.0831c-2.32288-.27036-4.15216-.93598-4.09607-1.51859 1.42279-5.02319 4.6994-8.87738 6.79639-10.05917l.6845-1.55625c.2743-.5827.24042-1.2615-.10443-1.80542s-.95269-.87741-1.59668-.87796m12.16901,1.65992c-.75769-.03254-1.46082.39279-1.78369,1.07897l-6.16089,12.59705-.62415,1.33392 1.16761.91681c0,0 .19684.17847.25329.22391l-.28155.21378-1.19684.90857 .57361,1.34014 5.17175,12.88465c.2229.66348.45337,1.08078 1.14209,1.20566s1.40698-.13486 1.83728-.68692 .50769-1.29181.21838-1.92917l-.4082-1.08896c-.78454-.19718-1.34338-.47528-1.30713-.6785-1.74157-1.38443-3.7998-5.85431-3.9895-11.01086 .0752-.47681 1.61731-.60868 3.57239-.38553l.81701-.56711-.61572-.50839-.70996-.112c-2.30994-.36438-4.11096-1.10492-4.03162-1.68482 1.62269-4.96225 5.05628-8.67807 7.19959-9.7738l.74707-1.52722c.29773-.57108.29138-1.2507-.03113-1.80814s-.91626-.91537-1.55969-.94204m12.10632,2.17123c-.75561-.06409-1.47595.33157-1.82715,1.00369l-6.68066,12.32523-.67847,1.30713 1.12891.96405c0,0 .18933.1864.2439.23413l-.29016.20202-1.23316.85859 .51795,1.36257 4.62756,13.09287c.19495.67224.3977,1.104 1.08044,1.25784s1.4115-.07534 1.86475-.60873 .56177-1.2692.29968-1.91821l-.36194-1.10526c-.77551-.2301-1.32214-.53155-1.27722-.73306-1.68164-1.45673-3.54468-6.01352-3.51929-11.17346 .0951-.4733 1.64136-.54074 3.58545-.2363l.83997-.53253-.59412-.53363-.70459-.14151c-2.29272-.46036-4.06091-1.28015-3.95764-1.8563 1.82532-4.89129 5.41345-8.45486 7.60047-9.46029l.81005-1.49472c.32129-.5582.34327-1.23746.04432-1.8079s-.87732-.95272-1.51905-1.00622m12.01685,2.69995c-.7522-.09634-1.48865.26816-1.86829.92465l-7.20044,12.02094-.73303,1.27728 1.08716,1.01089 .23376.24421-.29846.18957-1.26819.80576 .45996,1.38324 4.06006,13.28592c.16614.67993.3396,1.12823 1.01514,1.31146s1.41333-.01425 1.88916-.52753 .61621-1.24374.38245-1.90347l-.31372-1.11984c-.7649-.26343-1.29798-.58826-1.24439-.78763-1.61706-1.52808-3.276-6.16846-3.02991-11.32263 .11512-.46878 1.66285-.47007 3.59217-.0828l.86206-.49615-.5708-.55854-.698-.17147c-2.271-.55796-4.00073-1.46082-3.87341-2.03208 2.03027-4.80987 5.76867-8.20743 7.9967-9.11847l.87329-1.45874c.3446-.54394.39575-1.22168.12146-1.80435s-.83582-.98935-1.47473-1.07022m11.89807,3.24329c-.74719-.12912-1.4989.20282-1.90686.8421l-7.7168,11.68384-.78772,1.24438 1.04261,1.05695 .2229.25409-.30628.17651-1.302.75015 .39966,1.40186 3.1394,13.3735c.12097.68943.61011,1.24066 1.27674,1.45355s1.41272.04825 1.91076-.44351 .67041-1.2153.46607-1.88473c0,0-.22669-.97592-.26392-1.1326-.75244-.29697-1.27075-.64502-1.20837-.84183-1.54798-1.59805-2.99366-6.31759-2.52259-11.45608 .1355-.46329 1.68189-.39692 3.59241.07434l.87866-.45749-.54162-.58344-.68982-.20184c-2.24439-.65671-3.9303-1.64575-3.77832-2.211 2.23645-4.71756 6.35791-7.90808 8.64111-8.67032l.96741-1.39801c.37988-.52005.47546-1.19293.24011-1.79242s-1.11865-1.12927-1.75354-1.238m11.74817,3.798c-.74085-.16235-1.50659.13574-1.94263.75617l-8.22656,11.31423-.8418,1.20838 .99475,1.10199 .19178.25983c-.07044.03363-.29419.16665-.29419.16665l-1.33374.6919 .3374,1.41815 2.52222,13.52685c.08972.69413.55346,1.26685 1.20996,1.50956s1.40905.11178 1.92871-.35706 .72448-1.18387.55053-1.86182c0,0-.18261-.98517-.21276-1.14334-.73841-.33056-1.24036-.70157-1.16919-.89538-1.47437-1.66611-2.69849-6.45917-1.99854-11.57148 .15601-.45678 1.6919-.36892 3.56641.22962l.91174-.39761-.50525-.61832-.68445-.23645c-2.21277-.75617-3.83764-1.81568-3.64843-2.36954 2.54541-4.55823 6.67578-7.60831 8.99096-8.26697l1.02942-1.35305c.40296-.50239.52869-1.17029.32068-1.77976s-1.06775-1.19562-1.69702-1.33255m11.90808,4.50058c-.72803-.21259-1.85425-.07324-2.31799.52673l-8.72632,10.91294-.89539,1.16925 .92444,1.15262c0,0 .14893.21991.19312.27743l-.3241.14115-1.33423.62704 .19702,1.41058 1.96192,13.6799c.05798.69754.49499,1.29087 1.13977,1.56336s1.06469.02298 1.61535-.40897 1.10559-1.00897.96277-1.69415l-.16015-1.15189c-.72254-.36398-1.20704-.75759-1.12696-.94793-1.39673-1.73184-2.39135-6.5914-1.46008-11.66666 .17676-.44922 1.7002-.27527 3.54529.40842l.92883-.35547-.47644-.64078-.66272-.27835c-2.156-.90564-3.75464-1.99426-3.5404-2.53894 2.74975-4.43796 7.01086-7.27914 9.35376-7.83118l1.09033-1.30453c.42553-.48343.58166-1.14487.40173-1.76322s-.67114-1.10772-1.28955-1.28735m11.33667,4.96152c-.71729-.2461-1.84448-.17914-2.33533.39883l-9.18713,10.5073-.97376,1.10485 .86316,1.20789c0,0 .13868.22656.18006.28604l-.3302.12607-1.40381.53577 .17395,1.44729 1.31677,13.77298c.02564.69946.43469,1.31244 1.06616,1.6145s1.04944.08951 1.61975-.31631 .85608-1.09247.76148-1.78595c0,0-.06799-.99963-.07959-1.16025-.69531-.41345-.90601-.68963-.81738-.87607-1.31482-1.7947-2.07288-6.71249-.90882-11.73944 .19727-.44061 1.70227-.17849 3.51367.59l.94446-.31204-.44629-.6622-.64917-.30875c-2.11169-1.00461-3.65014-2.18375-3.41101-2.71802 2.9513-4.30652 7.33301-6.92862 9.69898-7.37146l1.14953-1.25259c.44751-.4632.63416-1.11667.48304-1.74271s-.61902-1.13763-1.22852-1.34573m11.08093,5.52527c-.70495-.27942-1.50879-.10843-2.03894.43377l-9.97217,9.90229-1.02417,1.05825 .80591,1.24683 .16663.2941-.33582.11053-1.42737.46979 .10645,1.45383 .66016,13.8378c-.00721.69989.03918,1.13549.64782,1.4812s1.37244.33832 1.96106-.04026 .9065-1.05105.84461-1.74819c0,0-.02088-1.00174-.0249-1.16272-.6753-.44565-.86011-.74988-.7627-.93195-1.22949-1.85428-1.74512-6.82077-.34802-11.78803 .2174-.43096 1.69848-.07968 3.47192.77277l.95801-.26749-.41492-.68234-.63379-.33883c-2.06237-1.10236-3.5343-2.37113-3.2705-2.89365 3.1488-4.16431 7.63977-6.55878 10.0238-6.89035l1.20703-1.19739c.46863-.44174.68567-1.08578.56397-1.7182s-.56507-1.16537-1.16407-1.40176m10.79138,6.08123c-.69091-.31231-1.50183-.17938-2.05712.33722l-10.41675,9.40189-1.07276,1.00897 .74634,1.28333c0,0 .11707.23852.15259.3016l-.34058.09464-1.44775.40219 .03784,1.45721-.00427,13.87262c-.04016.69876-.02771,1.15482.56384,1.5289s1.35486.40274 1.96069.0524 .9552-1.00705.92615-1.70636c0,0 .02661-1.00159.03015-1.16257-.65344-.47708-1.06714-.94452-.95727-1.11923-1.09509-1.93664-1.31091-6.83868.4331-11.69498 .24744-.41452 1.72779.03736 3.45899.97248l.96948-.22205-.38208-.70114-.61719-.36832c-2.00818-1.19836-3.40747-2.55456-3.1195-3.06414 3.34106-4.01172 7.92932-6.17185 10.32641-6.39069l1.26209-1.13919c.48889-.41916.73608-1.05225.64441-1.68967s-.50953-1.19073-1.09681-1.45511m10.46985,6.62449c-.67541-.34467-1.49182-.25025-2.07068.23953l-10.8374,8.87939-1.11926.95716 .68494,1.31716 .13818.30848-.34473.07843-1.46509.33337-.031,1.45737-.98193,13.68136c-.0896.69413.21325,1.36597.78649,1.76761s1.33423.4664 1.95606.14511 1.00183-.96072 1.00586-1.66064c0,0 .07385-.99921.08508-1.15985-.63013-.50742-1.02136-.99393-.9032-1.16327-1.00232-1.98624-.9729-6.91205.9989-11.68042 .26661-.40234 1.724.11902 3.40918,1.13495l.9751-.17761-.34485-.71677-.59912-.39707c-1.94909-1.29199-3.27026-2.7323-2.95849-3.22766 3.52673-3.84945 8.19983-5.77053 10.60449-5.87576 .25586-.21005 1.5758-.88711 1.5758-.88711 .51746-.38346.80896-.99741.7627-1.63974s-.75293-1.42219-1.32703-1.71402m10.11841,7.15008c-.65857-.37622-1.47827-.32049-2.07983.14133l-11.23169,8.33829-1.16333.90313 .62195,1.34806c0,0 .07544.23953.10351.30639-.07739.01105-.32812.07034-.32812.07034l-1.47937.26368-.09986,1.45425-1.65405,13.65711c-.12219.68914.14856,1.37451.70215,1.80279s1.31079.52887 1.94714.23734 1.04602-.91236 1.08301-1.6113c0,0 .12109-.9946.13977-1.15454-.60547-.53662-.97314-1.04105-.84717-1.20462-.90747-2.03138-.63208-6.96884 1.56311-11.63864 .2854-.38929 1.72254.15512 3.33155,1.28793l.98889-.10617-.29676-.74133-.57971-.43409c-1.88598-1.38269-3.12011-2.87921-2.77405-3.35122 3.7909-3.58969 8.64991-5.25745 11.05616-5.19205l1.38757-.98236c.53491-.35858.85498-.9581.83923-1.6019s-.67053-1.47375-1.2301-1.79242" fill="#740000" fill-rule="evenodd"/>
 <path transform="matrix(.72368 0 0 .72368 -552.8 -53.589)" d="m819.03 428.61c0.54163-3.4017 5.1444-6.275 6.6026-5.2624m2.4334-1.8915c0.70318-3.372 5.4664-5.9829 6.8746-4.9017m2.4863-1.7338c0.94311-3.3129 5.8082-5.7125 7.1631-4.5653m2.5792-1.592c1.1002-3.2641 6.0862-5.408 7.3849-4.1975m2.6638-1.4466c1.2538-3.2083 6.3364-5.0891 7.5464-3.7899m2.7796-1.3315c1.4033-3.1458 6.5861-4.7468 7.7344-3.3928m2.8384-1.2009c1.548-3.0772 6.8134-4.4009 7.8985-2.9958m2.8904-1.0698c1.6871-3.0031 7.018-4.0549 8.0389-2.6024m2.8946-0.91199c1.8845-2.8833 7.2413-3.7387 8.1973-2.2427m2.936-0.77218c2.0081-2.7986 7.3994-3.4113 8.2902-1.8756m2.9694-0.63706c2.1251-2.7109 7.5388-3.0889 8.3646-1.5173m2.9954-0.50751c2.2352-2.6209 7.6604-2.7732 8.4216-1.1693m3.015-0.38415c2.3386-2.5291 7.7656-2.4658 8.4627-0.83298m3.0289-0.2674c2.4352-2.4362 7.8556-2.1675 8.4898-0.50924m3.038-0.1575c2.5253-2.3427 7.9318-1.8793 8.504-0.1987m3.0428-0.05445c2.6091-2.2489 7.9952-1.5983 8.5057 0.10211m3.0419 0.04822c2.6907-2.1507 8.0489-1.3064 8.495 0.41208m3.037 0.15772c2.771-2.0462 8.0929-0.99946 8.4719 0.73498m3.0274 0.27402c2.8495-1.9354 8.1255-0.67798 8.4348 1.0702m3.0126 0.39694c2.9257-1.8182 8.1451-0.34259 8.3822 1.4169m2.9916 0.52603c2.9988-1.6946 8.1502 0.00574 8.3127 1.7736m2.9634 0.66065c3.0686-1.5649 8.1393 0.36575 8.2253 2.139m2.9277 0.80002c3.1339-1.4292 8.1107 0.73574 8.1183 2.5111m2.8838 0.94318c3.1947-1.288 8.0579 1.0998 7.9451 2.8716m2.8773 1.1049c3.2498-1.1416 7.984 1.501 7.7897 3.2657m2.8234 1.2363c3.299-0.99067 7.8874 1.9063 7.6111 3.6601m2.7627 1.3665c3.3416-0.83585 7.7683 2.3122 7.4099 4.0511m2.6458 1.4804c3.3922-0.59796 7.6763 2.7296 7.2361 4.4496m2.5603 1.6231c3.4168-0.43689 7.5255 3.1087 7.0045 4.8059m2.4673 1.7611c3.4335-0.27484 7.3512 3.4687 6.7114 5.1248" fill="none" stroke="url(#c)" stroke-linecap="round"/>
 <path transform="matrix(.72368 0 0 .72368 -552.8 -53.589)" d="m815.53 426.85c3.9566-0.8403 7.7673-3.8681 8.848-6.2149m0.27582-1.1041c3.9921-0.65078 7.9716-3.4538 9.1632-5.7463m0.32825-1.0897c4.0187-0.45917 8.1547-3.0274 9.4545-5.2603m0.41058-1.0905c4.0413-0.17026 8.2511-2.6142 9.7067-4.7488m0.45544-1.043c4.0448 0.02173 8.3868-2.1781 9.9412-4.2418m0.50397-1.0204c4.0393 0.21192 8.4975-1.742 10.146-3.7313m0.5509-0.99588c4.0251 0.39938 8.5833-1.3098 10.321-3.2216m0.59589-0.96961c4.0026 0.5831 8.645-0.88519 10.467-2.717m0.63885-0.94186c3.9724 0.76233 8.6835-0.47125 10.584-2.2211m0.67963-0.91287c3.935 0.93634 8.7007-0.0708 10.675-1.7374m0.74927-0.88696c3.867 1.1863 8.6674 0.31799 10.71-1.2645m0.78589-0.84893c3.8147 1.345 8.6475 0.67798 10.752-0.82004m0.81916-0.81409c3.7578 1.4969 8.6135 1.023 10.776-0.39071m0.84967-0.78266c3.6966 1.642 8.5671 1.3522 10.782 0.0224m0.8778-0.75479c3.6322 1.7801 8.5101 1.6653 10.773 0.41855m0.8775-0.7247c3.5988 1.8466 8.4706 1.9593 10.778 0.79596m0.90338-0.6922c3.5289 1.9768 8.3932 2.2565 10.742 1.1809m0.92877-0.65769c3.452 2.1082 8.302 2.5676 10.691 1.584m0.95362-0.62116c3.3675 2.2407 8.195 2.8917 10.622 2.0045m0.97766-0.58249c3.2753 2.3736 8.0707 3.2278 10.532 2.4412m1.0008-0.54178c3.1748 2.5063 7.927 3.5744 10.419 2.8923m1.0228-0.49903c3.0662 2.6382 7.7627 3.9295 10.282 3.3558m1.0739-0.44196c2.8876 2.8324 7.546 4.2784 10.088 3.8166m1.0881-0.37964c2.7583 2.9584 7.345 4.5901 9.9126 4.3017m1.0878-0.33481c2.6211 3.0806 7.1136 4.9547 9.6918 4.7848m1.1019-0.28436c2.4764 3.1981 6.8594 5.3157 9.4425 5.2662m1.114-0.23269c2.3247 3.31 6.5825 5.6696 9.1653 5.7416m1.1237-0.18008c2.1666 3.4156 6.2847 6.0129 8.8611 6.2068m1.1309-0.1268c2.0029 3.5142 5.9905 6.2928 8.5465 6.6689m1.1371-0.04629c1.7488 3.6473 5.6295 6.5852 8.1652 7.0814" fill="none" stroke="#000" stroke-linecap="round"/>
 <path transform="matrix(.72368 0 0 .72368 -552.8 -53.589)" d="m812.05 146.32-1.4028 6.488-5.6113 2.981" fill="none" stroke="#740000" stroke-linecap="round"/>
 <path transform="matrix(.72368 0 0 .72368 -552.8 -53.589)" d="m1138.4 429.24 1.6277-6.4353 5.7117-2.784" fill="none" stroke="#740000" stroke-linecap="round"/>
</svg>
