<?xml version="1.0" encoding="UTF-8"?>
<svg viewBox="0 0 370 370" xmlns="http://www.w3.org/2000/svg" xmlns:xlink="http://www.w3.org/1999/xlink">
 <defs>
  <linearGradient id="c">
   <stop stop-color="#fc9f59" offset="0"/>
   <stop stop-color="#fc9f59" stop-opacity="0" offset="1"/>
  </linearGradient>
  <linearGradient id="a">
   <stop stop-color="#a1420e" offset="0"/>
   <stop stop-color="#a1420e" stop-opacity="0" offset="1"/>
  </linearGradient>
  <linearGradient id="b">
   <stop stop-color="#a1420d" offset="0"/>
   <stop stop-color="#a1420d" stop-opacity="0" offset="1"/>
  </linearGradient>
  <linearGradient id="s" x1="153.49" x2="233.78" y1="94.794" y2="86.97" gradientUnits="userSpaceOnUse">
   <stop stop-color="#f57936" offset="0"/>
   <stop stop-color="#f57936" stop-opacity="0" offset="1"/>
  </linearGradient>
  <linearGradient id="r" x1="161.96" x2="169.77" y1="71.499" y2="34.026" gradientUnits="userSpaceOnUse">
   <stop stop-color="#f3813b" offset="0"/>
   <stop stop-color="#f3813b" stop-opacity="0" offset="1"/>
  </linearGradient>
  <linearGradient id="q" x1="133.18" x2="137.83" y1="106.68" y2="50.835" gradientUnits="userSpaceOnUse">
   <stop stop-color="#f9a465" offset="0"/>
   <stop stop-color="#f9a465" stop-opacity="0" offset="1"/>
  </linearGradient>
  <linearGradient id="p" x1="113.47" x2="53.135" y1="129.07" y2="112.21" gradientUnits="userSpaceOnUse">
   <stop stop-color="#faa668" offset="0"/>
   <stop stop-color="#faa668" stop-opacity="0" offset="1"/>
  </linearGradient>
  <linearGradient id="o" x1="86.781" x2="48.835" y1="149.02" y2="176.1" gradientUnits="userSpaceOnUse">
   <stop stop-color="#f17e39" offset="0"/>
   <stop stop-color="#f17e39" stop-opacity="0" offset="1"/>
  </linearGradient>
  <linearGradient id="n" x1="105.62" x2="100.83" y1="158.68" y2="210.31" gradientUnits="userSpaceOnUse">
   <stop stop-color="#f67a34" offset="0"/>
   <stop stop-color="#f67a34" stop-opacity="0" offset="1"/>
  </linearGradient>
  <linearGradient id="k" x1="353.19" x2="205.58" y1="256.25" y2="137.09" gradientUnits="userSpaceOnUse">
   <stop stop-color="#9f410d" offset="0"/>
   <stop stop-color="#9f410d" stop-opacity="0" offset="1"/>
  </linearGradient>
  <linearGradient id="d" x1="6.1333" x2="48.835" y1="218.23" y2="179.93" gradientUnits="userSpaceOnUse">
   <stop stop-color="#a3430e" offset="0"/>
   <stop stop-color="#a3430e" stop-opacity="0" offset="1"/>
  </linearGradient>
  <linearGradient id="m" x1="122.8" x2="164.94" y1="136.04" y2="179.97" gradientUnits="userSpaceOnUse" xlink:href="#c"/>
  <linearGradient id="l" x1="152.3" x2="201.74" y1="104.79" y2="136.69" gradientUnits="userSpaceOnUse" xlink:href="#c"/>
  <linearGradient id="j" x1="329.96" x2="221.54" y1="89.499" y2="87.796" gradientUnits="userSpaceOnUse" xlink:href="#a"/>
  <linearGradient id="i" x1="212.81" x2="190.4" y1="6.1826" y2="38.841" gradientUnits="userSpaceOnUse" xlink:href="#a"/>
  <linearGradient id="h" x1="89.548" x2="108.73" y1="14.649" y2="43.588" gradientUnits="userSpaceOnUse" xlink:href="#a"/>
  <linearGradient id="g" x1="16.051" x2="55.066" y1="94.34" y2="112.21" gradientUnits="userSpaceOnUse" xlink:href="#a"/>
  <linearGradient id="f" x1="249.79" x2="152.59" y1="337.79" y2="175.22" gradientUnits="userSpaceOnUse" xlink:href="#b"/>
  <linearGradient id="e" x1="111.78" x2="104.43" y1="344.28" y2="217.46" gradientUnits="userSpaceOnUse" xlink:href="#b"/>
 </defs>
 <g transform="matrix(-1 0 0 1 369.17 0)">
  <path transform="matrix(1.0459 0 0 1.0459 -141.15 -305.75)" d="m482.08 468.87a170.62 170.62 0 1 1 -341.25 0 170.62 170.62 0 1 1 341.25 0z"/>
  <path d="m129.41 119.31-23.469 28.906c57.198 41.896 32.864 187.63 96.281 214 44.873-4.4103 84.894-25.47 113.78-56.906-57.831-69.465-117.64-135.6-186.59-186z" fill="#d65a1e" fill-rule="evenodd"/>
  <path d="m163.13 86.808-25.281 25.281c83.763 71.008 136.76 130.5 182.34 187.19l0.75 0.4375c26.265-31.078 42.094-71.248 42.094-115.09 0-3.5452-0.10825-7.0682-0.3125-10.562-31.716-63.998-150.87-43.02-199.59-87.25z" fill="#d65a1e" fill-rule="evenodd"/>
  <path d="m268.66 37.745c-39.814 0.39787-90.396 26.012-95.314 40.656 1.6183 36.76 170.6 25.988 188.38 86.656l0.25 0.03125c-5.5858-51.195-32.841-95.909-72.406-124.75-6.4612-1.8769-13.548-2.6673-20.906-2.5938z" fill="#d65a1e" fill-rule="evenodd"/>
  <path d="m184.6 6.1826c-8.9543 0-17.774 0.66237-26.375 1.9375-26.545 28.735-12.38 54.549 1.875 62.438 12.166 8.6638 43.543-45.581 122.22-35.219-28.08-18.426-61.647-29.156-97.719-29.156z" fill="#d65a1e" fill-rule="evenodd"/>
  <path d="m103.26 158.68c-1.6266 0.03156-3.3309 0.35874-5.125 0.96875-23.257 18.249-65.801 106.07-40.938 149.84 0.00526 0.00536-0.00526 0.02589 0 0.03125 32.392 33.03 77.525 53.531 127.41 53.531 1.3716 0 2.7295-4.1e-4 4.0938-0.03125-53.736-38.835-42.038-193.68-85.437-204.34z" fill="#d65a1e" fill-rule="evenodd"/>
  <path d="m60.321 136.15c-19.536 0.62007-42.334 10.859-53.062 33.125l-0.5625 1.3438c-0.35941 4.622-0.5625 9.2863-0.5625 14 0 44.145 16.068 84.554 42.656 115.72-24.608-77.249 50.267-145.17 42.125-152.72-5.3816-7.8001-17.227-11.893-30.594-11.469z" fill="#d65a1e" fill-rule="evenodd"/>
  <path d="m54.665 62.37c-25.212 26.784-42.28 61.337-47.125 99.688 18.967-31.721 47.261-43.234 93-19.25l23.469-29.5c-15.324-13.826-47.641-37.7-69.344-50.938z" fill="#d65a1e" fill-rule="evenodd"/>
  <path d="m150.51 9.4326c-34.957 6.7681-66.283 23.757-90.75 47.719l0.4375 0.78125c25.738 11.719 47.751 30.929 70.437 48.75l27.062-25.281c-17.633-17.785-31.238-37.202-7.1875-71.969z" fill="#d65a1e" fill-rule="evenodd"/>
  <path d="m268.66 37.745c-39.814 0.39787-90.396 26.012-95.314 40.656 1.6183 36.76 170.6 25.988 188.38 86.656l0.25 0.03125c-5.5858-51.195-32.841-95.909-72.406-124.75-6.4612-1.8769-13.548-2.6673-20.906-2.5938z" fill="url(#s)" fill-rule="evenodd"/>
  <path d="m184.6 6.1826c-8.9543 0-17.774 0.66237-26.375 1.9375-26.545 28.735-12.38 54.549 1.875 62.438 12.166 8.6638 43.543-45.581 122.22-35.219-28.08-18.426-61.647-29.156-97.719-29.156z" fill="url(#r)" fill-rule="evenodd"/>
  <path d="m150.51 9.4326c-34.957 6.7681-66.283 23.757-90.75 47.719l0.4375 0.78125c25.738 11.719 47.751 30.929 70.437 48.75l27.062-25.281c-17.633-17.785-31.238-37.202-7.1875-71.969z" fill="url(#q)" fill-rule="evenodd"/>
  <path d="m54.665 62.37c-25.212 26.784-42.28 61.337-47.125 99.688 18.967-31.721 47.261-43.234 93-19.25l23.469-29.5c-15.324-13.826-47.641-37.7-69.344-50.938z" fill="url(#p)" fill-rule="evenodd"/>
  <path d="m60.321 136.15c-19.536 0.62007-42.334 10.859-53.062 33.125l-0.5625 1.3438c-0.35941 4.622-0.5625 9.2863-0.5625 14 0 44.145 16.068 84.554 42.656 115.72-24.608-77.249 50.267-145.17 42.125-152.72-5.3816-7.8001-17.227-11.893-30.594-11.469z" fill="url(#o)" fill-rule="evenodd"/>
  <path d="m103.26 158.68c-1.6266 0.03156-3.3309 0.35874-5.125 0.96875-23.257 18.249-65.801 106.07-40.938 149.84 0.00526 0.00536-0.00526 0.02589 0 0.03125 32.392 33.03 77.525 53.531 127.41 53.531 1.3716 0 2.7295-4.1e-4 4.0938-0.03125-53.736-38.835-42.038-193.68-85.437-204.34z" fill="url(#n)" fill-rule="evenodd"/>
  <path d="m129.41 119.31-23.469 28.906c57.198 41.896 32.864 187.63 96.281 214 44.873-4.4103 84.894-25.47 113.78-56.906-57.831-69.465-117.64-135.6-186.59-186z" fill="url(#m)" fill-rule="evenodd"/>
  <path d="m163.13 86.808-25.281 25.281c83.763 71.008 136.76 130.5 182.34 187.19l0.75 0.4375c26.265-31.078 42.094-71.248 42.094-115.09 0-3.5452-0.10825-7.0682-0.3125-10.562-31.716-63.998-150.87-43.02-199.59-87.25z" fill="url(#l)" fill-rule="evenodd"/>
  <path d="m163.13 86.808-25.281 25.281c83.763 71.008 136.76 130.5 182.34 187.19l0.75 0.4375c26.265-31.078 42.094-71.248 42.094-115.09 0-3.5452-0.10825-7.0682-0.3125-10.562-31.716-63.998-150.87-43.02-199.59-87.25z" fill="url(#k)" fill-rule="evenodd"/>
  <path d="m268.66 37.745c-39.814 0.39787-90.396 26.012-95.314 40.656 1.6183 36.76 170.6 25.988 188.38 86.656l0.25 0.03125c-5.5858-51.195-32.841-95.909-72.406-124.75-6.4612-1.8769-13.548-2.6673-20.906-2.5938z" fill="url(#j)" fill-rule="evenodd"/>
  <path d="m184.6 6.1826c-8.9543 0-17.774 0.66237-26.375 1.9375-26.545 28.735-12.38 54.549 1.875 62.438 12.166 8.6638 43.543-45.581 122.22-35.219-28.08-18.426-61.647-29.156-97.719-29.156z" fill="url(#i)" fill-rule="evenodd"/>
  <path d="m150.51 9.4326c-34.957 6.7681-66.283 23.757-90.75 47.719l0.4375 0.78125c25.738 11.719 47.751 30.929 70.437 48.75l27.062-25.281c-17.633-17.785-31.238-37.202-7.1875-71.969z" fill="url(#h)" fill-rule="evenodd"/>
  <path d="m54.665 62.37c-25.212 26.784-42.28 61.337-47.125 99.688 18.967-31.721 47.261-43.234 93-19.25l23.469-29.5c-15.324-13.826-47.641-37.7-69.344-50.938z" fill="url(#g)" fill-rule="evenodd"/>
  <path d="m129.41 119.31-23.469 28.906c57.198 41.896 32.864 187.63 96.281 214 44.873-4.4103 84.894-25.47 113.78-56.906-57.831-69.465-117.64-135.6-186.59-186z" fill="url(#f)" fill-rule="evenodd"/>
  <path d="m103.26 158.68c-1.6266 0.03156-3.3309 0.35874-5.125 0.96875-23.257 18.249-65.801 106.07-40.938 149.84 0.00526 0.00536-0.00526 0.02589 0 0.03125 32.392 33.03 77.525 53.531 127.41 53.531 1.3716 0 2.7295-4.1e-4 4.0938-0.03125-53.736-38.835-42.038-193.68-85.437-204.34z" fill="url(#e)" fill-rule="evenodd"/>
  <path d="m60.321 136.15c-19.536 0.62007-42.334 10.859-53.062 33.125l-0.5625 1.3438c-0.35941 4.622-0.5625 9.2863-0.5625 14 0 44.145 16.068 84.554 42.656 115.72-24.608-77.249 50.267-145.17 42.125-152.72-5.3816-7.8001-17.227-11.893-30.594-11.469z" fill="url(#d)" fill-rule="evenodd"/>
 </g>
</svg>
