<?xml version="1.0" encoding="UTF-8"?>
<svg viewBox="0 0 48 48" xmlns="http://www.w3.org/2000/svg" xmlns:xlink="http://www.w3.org/1999/xlink">
 <defs>
  <linearGradient id="a">
   <stop stop-color="#fff" offset="0"/>
   <stop stop-color="#fff" stop-opacity="0" offset="1"/>
  </linearGradient>
  <linearGradient id="c">
   <stop offset="0"/>
   <stop stop-opacity="0" offset="1"/>
  </linearGradient>
  <linearGradient id="j" x1="9.303" x2="38.826" gradientUnits="userSpaceOnUse">
   <stop stop-color="#7e807a" offset="0"/>
   <stop stop-color="#babbb8" offset=".25"/>
   <stop stop-color="#a5a6a3" offset=".5"/>
   <stop stop-color="#333432" offset="1"/>
  </linearGradient>
  <linearGradient id="b" x2="0" y1="16.525" y2="13.285" gradientUnits="userSpaceOnUse">
   <stop stop-color="#fff" offset="0"/>
   <stop stop-color="#e7e6ae" offset="1"/>
  </linearGradient>
  <linearGradient id="i" x1="10.116" x2="38.013" gradientUnits="userSpaceOnUse">
   <stop stop-color="#f79403" offset="0"/>
   <stop stop-color="#fdb343" offset=".18692"/>
   <stop stop-color="#fdb74f" offset=".43008"/>
   <stop stop-color="#8f5601" offset="1"/>
  </linearGradient>
  <linearGradient id="g" x1="25.065" x2="25.208" y1="20.143" y2="23.714" gradientUnits="userSpaceOnUse">
   <stop stop-color="#7d4b01" offset="0"/>
   <stop stop-color="#535353" offset="1"/>
  </linearGradient>
  <linearGradient id="h" x1="17.16" x2="37.969" y1="12.29" y2="54.862" gradientUnits="userSpaceOnUse" xlink:href="#a"/>
  <linearGradient id="f" x1="15.929" x2="15.643" y1="20.429" y2="30.929" gradientUnits="userSpaceOnUse" xlink:href="#a"/>
  <radialGradient id="e" cx="23.857" cy="40" r="17.143" gradientTransform="matrix(1 0 0 .5 -7.259e-15 20)" gradientUnits="userSpaceOnUse" xlink:href="#c"/>
  <radialGradient id="d" cx="23.857" cy="40" r="17.143" gradientTransform="matrix(1 0 0 .5 -4.4036e-15 20)" gradientUnits="userSpaceOnUse" xlink:href="#c"/>
 </defs>
 <path transform="matrix(1.0588 0 0 1.1513 -1.1159 -10.277)" d="m41 40a17.143 8.5714 0 1 1 -34.286 0 17.143 8.5714 0 1 1 34.286 0z" display="block" fill="url(#e)"/>
 <path d="m23.938 7.192c-7.8594 0-14.25 2.8025-14.25 6.25v23.125c0 3.4475 6.3906 6.25 14.25 6.25s14.504-2.8025 14.504-6.25v-23.125c0-3.4475-6.645-6.25-14.504-6.25z" display="block" fill="url(#j)" stroke="url(#g)" stroke-miterlimit="10"/>
 <path d="m23.941 7.4485c-7.6251 0-13.825 2.719-13.825 6.0637v6.5578c0 3.3447 6.2001 5.6479 13.825 5.6479s14.072-2.3032 14.072-5.6479v-6.5578c0-3.3447-6.447-6.0637-14.072-6.0637z" display="block" fill="url(#i)"/>
 <path d="m23.946 7.9713c-7.3278 0-13.286 2.6129-13.286 5.8272v22.126c0 3.2143 5.9583 5.8272 13.286 5.8272s13.523-2.6129 13.523-5.8272v-22.126c0-3.2143-6.1955-5.8272-13.523-5.8272z" display="block" fill="none" opacity=".5443" stroke="url(#h)" stroke-miterlimit="10"/>
 <path transform="matrix(1.0373 0 0 .95462 -.89498 -.075721)" d="m36.857 14.071a12.857 5.5 0 1 1 -25.714 0 12.857 5.5 0 1 1 25.714 0z" display="block" fill="#fed496" stroke="url(#b)" stroke-miterlimit="10" stroke-width="1.0049"/>
 <path transform="matrix(.36343 0 0 .36343 15.472 -4.1186)" d="m41 40a17.143 8.5714 0 1 1 -34.286 0 17.143 8.5714 0 1 1 34.286 0z" display="block" fill="url(#d)" opacity=".65823"/>
 <path d="m23.889 6.4654c-2.0028 0-4.6313 0.71415-4.6313 1.5927v2.6297c0 0.87852 2.6285 1.5927 4.6313 1.5927s4.4104-0.71415 4.4104-1.5927v-2.6297c0-0.87852-2.4076-1.5927-4.4104-1.5927z" display="block" fill="#fcaf3e" stroke="#b46c02" stroke-miterlimit="10"/>
 <path d="m13.643 18 0.35714 16.786 4.5714 1.2857-0.14286-16.714s2.0714 0 5.4286-0.21429c-5.2157-0.23307-11.183-2.4747-13.214-3.9286 1.4169 2.0922 3 2.7857 3 2.7857z" display="block" fill="url(#f)" opacity=".49367"/>
 <path transform="matrix(.27198 0 0 .21662 17.27 5.4097)" d="m36.857 14.071a12.857 5.5 0 1 1 -25.714 0 12.857 5.5 0 1 1 25.714 0z" display="block" fill="#fed496" stroke="url(#b)" stroke-miterlimit="10" stroke-width="4.1199"/>
</svg>
