<?xml version="1.0" encoding="UTF-8" standalone="no"?>
<!DOCTYPE svg PUBLIC "-//W3C//DTD SVG 1.1//EN" "http://www.w3.org/Graphics/SVG/1.1/DTD/svg11.dtd">
<svg width="100%" height="100%" viewBox="0 0 2481 3508" version="1.1" xmlns="http://www.w3.org/2000/svg" xmlns:xlink="http://www.w3.org/1999/xlink" xml:space="preserve" xmlns:serif="http://www.serif.com/" style="fill-rule:evenodd;clip-rule:evenodd;stroke-linecap:round;stroke-linejoin:round;stroke-miterlimit:1.5;">
    <g transform="matrix(1,0,0,1,-1620.96,-812.598)">
        <g transform="matrix(1.07667,0,0,0.622486,947.938,476.456)">
            <ellipse cx="1029.81" cy="1739.22" rx="326.257" ry="532.314" style="fill:rgb(133,18,49);"/>
        </g>
        <g transform="matrix(0.901548,0,0,0.564843,1132.52,543.909)">
            <ellipse cx="1029.81" cy="1739.22" rx="326.257" ry="532.314" style="fill:rgb(247,0,48);fill-opacity:0.29;"/>
        </g>
        <g transform="matrix(0.636163,-0.0786819,0.0430123,0.347765,1349.26,891.112)">
            <ellipse cx="1029.81" cy="1739.22" rx="326.257" ry="532.314" style="fill:rgb(240,14,7);"/>
        </g>
        <g transform="matrix(1,0,0,1,1284.5,457.087)">
            <path d="M916.76,746.892C916.76,737.256 908.938,729.434 899.302,729.434L678.165,729.434C668.53,729.434 660.707,737.256 660.707,746.892L660.707,781.808C660.707,791.444 668.53,799.266 678.165,799.266L899.302,799.266C908.938,799.266 916.76,791.444 916.76,781.808L916.76,746.892Z" style="fill:rgb(121,103,102);"/>
        </g>
        <g transform="matrix(1,0,0,1,1204.08,186.22)">
            <path d="M863.857,888.144C914.078,888.144 954.851,929.391 954.851,980.196C954.851,1031 914.078,1072.25 863.857,1072.25C813.636,1072.25 772.863,1031 772.863,980.196C772.863,929.391 813.636,888.144 863.857,888.144ZM863.857,934.17C888.967,934.17 909.354,954.794 909.354,980.196C909.354,1005.6 888.967,1026.22 863.857,1026.22C838.746,1026.22 818.36,1005.6 818.36,980.196C818.36,954.794 838.746,934.17 863.857,934.17Z" style="fill:rgb(121,103,102);"/>
        </g>
        <g transform="matrix(1,0,0,1,1683.39,179.872)">
            <g>
                <g transform="matrix(0.587192,0,0,0.587192,56.3971,662.446)">
                    <g transform="matrix(0.474186,0,0,0.474186,207.975,636.839)">
                        <g transform="matrix(0.5,0,0,1.35092,374.195,-341.374)">
                            <rect x="717.843" y="553.794" width="21.161" height="922.638" style="fill:none;stroke:white;stroke-width:3.53px;"/>
                        </g>
                        <g transform="matrix(-0.00171587,0.444406,-1.62383,-0.00626968,2447.87,686.123)">
                            <rect x="717.843" y="553.794" width="21.161" height="922.638" style="fill:none;stroke:white;stroke-width:3.02px;"/>
                        </g>
                        <g transform="matrix(1,0,0,1,17.8506,-147.269)">
                            <g transform="matrix(1,0,0,1,-2.11615,44.439)">
                                <path d="M605.688,594.001L730.54,710.388L861.741,610.93L880.786,610.93L730.54,740.014L588.758,598.233L605.688,594.001Z" style="fill:none;stroke:white;stroke-width:3.59px;"/>
                            </g>
                            <g transform="matrix(1,0,0,1,-2.11615,-42.3228)">
                                <path d="M605.688,594.001L728.424,714.621L853.276,600.349L880.786,610.93L730.54,740.014L588.758,598.233L605.688,594.001Z" style="fill:none;stroke:white;stroke-width:3.59px;"/>
                            </g>
                        </g>
                        <g transform="matrix(-0.999648,0.0265396,-0.0265396,-0.999648,1489.59,2204.21)">
                            <g transform="matrix(1,0,0,1,-2.11615,44.439)">
                                <path d="M605.688,594.001L730.54,710.388L861.741,610.93L880.786,610.93L730.54,740.014L588.758,598.233L605.688,594.001Z" style="fill:none;stroke:white;stroke-width:3.59px;"/>
                            </g>
                            <g transform="matrix(1,0,0,1,-2.11615,-42.3228)">
                                <path d="M605.688,594.001L728.424,714.621L853.276,600.349L880.786,610.93L730.54,740.014L588.758,598.233L605.688,594.001Z" style="fill:none;stroke:white;stroke-width:3.59px;"/>
                            </g>
                        </g>
                        <g transform="matrix(0.0021174,0.999998,-0.999998,0.0021174,2050.94,278.928)">
                            <g transform="matrix(1,0,0,1,-2.11615,44.439)">
                                <path d="M605.688,594.001L730.54,710.388L861.741,610.93L880.786,610.93L730.54,740.014L588.758,598.233L605.688,594.001Z" style="fill:none;stroke:white;stroke-width:3.59px;"/>
                            </g>
                            <g transform="matrix(1,0,0,1,-2.11615,-42.3228)">
                                <path d="M605.688,594.001L728.424,714.621L853.276,600.349L880.786,610.93L730.54,740.014L588.758,598.233L605.688,594.001Z" style="fill:none;stroke:white;stroke-width:3.59px;"/>
                            </g>
                        </g>
                        <g transform="matrix(-0.00833352,-0.999965,0.999965,-0.00833352,-506.987,1736.38)">
                            <g transform="matrix(1,0,0,1,-2.11615,44.439)">
                                <path d="M605.688,594.001L730.54,710.388L861.741,610.93L880.786,610.93L730.54,740.014L588.758,598.233L605.688,594.001Z" style="fill:none;stroke:white;stroke-width:3.59px;"/>
                            </g>
                            <g transform="matrix(1,0,0,1,-2.11615,-42.3228)">
                                <path d="M605.688,594.001L728.424,714.621L853.276,600.349L880.786,610.93L730.54,740.014L588.758,598.233L605.688,594.001Z" style="fill:none;stroke:white;stroke-width:3.59px;"/>
                            </g>
                        </g>
                    </g>
                    <g transform="matrix(0.356863,0.312251,-0.312251,0.356863,613.571,522.008)">
                        <g transform="matrix(0.5,0,0,1.35092,382.483,-314.437)">
                            <rect x="717.843" y="553.794" width="21.161" height="922.638" style="fill:none;stroke:white;stroke-width:3.53px;"/>
                        </g>
                        <g transform="matrix(0.000982255,-0.254401,-1.53231,-0.00591632,2395.2,1202.35)">
                            <rect x="717.843" y="553.794" width="21.161" height="922.638" style="fill:none;stroke:white;stroke-width:3.27px;"/>
                        </g>
                        <g transform="matrix(1,0,0,1,8.81678,-132.241)">
                            <g transform="matrix(1,0,0,1,-2.11615,44.439)">
                                <path d="M605.688,594.001L730.54,710.388L861.741,610.93L880.786,610.93L730.54,740.014L588.758,598.233L605.688,594.001Z" style="fill:none;stroke:white;stroke-width:3.59px;"/>
                            </g>
                            <g transform="matrix(1,0,0,1,-2.11615,-42.3228)">
                                <path d="M605.688,594.001L728.424,714.621L853.276,600.349L880.786,610.93L730.54,740.014L588.758,598.233L605.688,594.001Z" style="fill:none;stroke:white;stroke-width:3.59px;"/>
                            </g>
                        </g>
                        <g transform="matrix(-0.999648,0.0265396,-0.0265396,-0.999648,1489.91,2161.03)">
                            <g transform="matrix(1,0,0,1,-2.11615,44.439)">
                                <path d="M605.688,594.001L730.54,710.388L861.741,610.93L880.786,610.93L730.54,740.014L588.758,598.233L605.688,594.001Z" style="fill:none;stroke:white;stroke-width:3.59px;"/>
                            </g>
                            <g transform="matrix(1,0,0,1,-2.11615,-42.3228)">
                                <path d="M605.688,594.001L728.424,714.621L853.276,600.349L880.786,610.93L730.54,740.014L588.758,598.233L605.688,594.001Z" style="fill:none;stroke:white;stroke-width:3.59px;"/>
                            </g>
                        </g>
                        <g transform="matrix(0.0021174,0.999998,-0.999998,0.0021174,1943.47,278.088)">
                            <g transform="matrix(1,0,0,1,-2.11615,44.439)">
                                <path d="M605.688,594.001L730.54,710.388L861.741,610.93L880.786,610.93L730.54,740.014L588.758,598.233L605.688,594.001Z" style="fill:none;stroke:white;stroke-width:3.59px;"/>
                            </g>
                            <g transform="matrix(1,0,0,1,-2.11615,-42.3228)">
                                <path d="M605.688,594.001L728.424,714.621L853.276,600.349L880.786,610.93L730.54,740.014L588.758,598.233L605.688,594.001Z" style="fill:none;stroke:white;stroke-width:3.59px;"/>
                            </g>
                        </g>
                        <g transform="matrix(-0.00833352,-0.999965,0.999965,-0.00833352,-399.095,1730.92)">
                            <g transform="matrix(1,0,0,1,-2.11615,44.439)">
                                <path d="M605.688,594.001L730.54,710.388L861.741,610.93L880.786,610.93L730.54,740.014L588.758,598.233L605.688,594.001Z" style="fill:none;stroke:white;stroke-width:3.59px;"/>
                            </g>
                            <g transform="matrix(1,0,0,1,-2.11615,-42.3228)">
                                <path d="M605.688,594.001L728.424,714.621L853.276,600.349L880.786,610.93L730.54,740.014L588.758,598.233L605.688,594.001Z" style="fill:none;stroke:white;stroke-width:3.59px;"/>
                            </g>
                        </g>
                    </g>
                </g>
                <g transform="matrix(1,0,0,0.914286,-241.24,791.262)">
                    <path d="M638.743,468.832L645.54,469.732L631.947,556.81L671.624,476.787L677.87,479.414L638.192,559.438L700.741,492.952L705.93,497.093L643.382,563.579L723.733,516.017L727.445,521.337L647.094,568.899L738.739,544.114L740.673,550.183L649.029,574.968L744.542,574.968L744.542,581.292L649.029,581.292L740.673,606.077L738.739,612.145L647.094,587.36L727.445,634.922L723.733,640.242L643.382,592.68L705.93,659.166L700.741,663.308L638.192,596.822L677.87,676.845L671.624,679.473L631.947,599.449L645.54,686.527L638.743,687.427L625.15,600.349L611.557,687.427L604.76,686.527L618.354,599.449L578.676,679.473L572.43,676.845L612.108,596.822L549.559,663.308L544.37,659.166L606.918,592.68L526.567,640.242L522.855,634.922L603.206,587.36L511.561,612.145L509.627,606.077L601.272,581.292L505.758,581.292L505.758,574.968L601.272,574.968L509.627,550.183L511.561,544.114L603.206,568.899L522.855,521.337L526.567,516.017L606.918,563.579L544.37,497.093L549.559,492.952L612.108,559.438L572.43,479.414L578.676,476.787L618.354,556.81L604.76,469.732L611.557,468.832L625.15,555.91L638.743,468.832Z" style="fill:none;stroke:white;stroke-width:1.91px;"/>
                </g>
                <g transform="matrix(1.26316,0,0,1.15625,-1489.78,-101.542)">
                    <ellipse cx="1483.69" cy="1228.84" rx="20.103" ry="16.929" style="fill:white;stroke:white;stroke-width:1.51px;"/>
                </g>
            </g>
        </g>
    </g>
</svg>
