<?xml version="1.0" encoding="UTF-8" standalone="no"?>
<!-- Created with Inkscape (http://www.inkscape.org/) -->

<svg
   xmlns:dc="http://purl.org/dc/elements/1.1/"
   xmlns:cc="http://creativecommons.org/ns#"
   xmlns:rdf="http://www.w3.org/1999/02/22-rdf-syntax-ns#"
   xmlns:svg="http://www.w3.org/2000/svg"
   xmlns="http://www.w3.org/2000/svg"
   xmlns:sodipodi="http://sodipodi.sourceforge.net/DTD/sodipodi-0.dtd"
   xmlns:inkscape="http://www.inkscape.org/namespaces/inkscape"
   width="210mm"
   height="297mm"
   viewBox="0 0 210 297"
   version="1.1"
   id="svg8"
   inkscape:version="0.92.4 (5da689c313, 2019-01-14)"
   sodipodi:docname="medved.svg">
  <defs
     id="defs2" />
  <sodipodi:namedview
     id="base"
     pagecolor="#ffffff"
     bordercolor="#666666"
     borderopacity="1.0"
     inkscape:pageopacity="0.0"
     inkscape:pageshadow="2"
     inkscape:zoom="0.12374369"
     inkscape:cx="-49.77897"
     inkscape:cy="1334.8866"
     inkscape:document-units="mm"
     inkscape:current-layer="layer1"
     showgrid="false"
     inkscape:window-width="1920"
     inkscape:window-height="986"
     inkscape:window-x="-11"
     inkscape:window-y="-11"
     inkscape:window-maximized="1" />
  <metadata
     id="metadata5">
    <rdf:RDF>
      <cc:Work
         rdf:about="">
        <dc:format>image/svg+xml</dc:format>
        <dc:type
           rdf:resource="http://purl.org/dc/dcmitype/StillImage" />
        <dc:title></dc:title>
      </cc:Work>
    </rdf:RDF>
  </metadata>
  <g
     inkscape:label="Vrstva 1"
     inkscape:groupmode="layer"
     id="layer1">
    <g
       id="g5037"
       transform="matrix(15.062095,0,0,15.062095,967.98392,-2077.1314)">
      <path
         transform="scale(0.26458333)"
         inkscape:connector-curvature="0"
         id="path4971"
         d="m -69.252995,613.59058 c -15.248678,-11.35601 -20.662779,-16.34134 -24.929318,-22.95502 -1.718142,-2.66333 -4.605235,-6.09549 -7.395647,-8.79189 l -4.57727,-4.42306 0.55324,-2.45444 c 1.08802,-4.82701 1.16241,-6.99253 0.37028,-10.77863 -1.36421,-6.52045 -5.10583,-11.18046 -11.89609,-14.81601 l -2.65576,-1.42191 0.31966,-2.11362 c 1.06465,-7.03971 8.63011,-16.19565 16.46643,-19.92813 5.19792,-2.4758 10.21279,-3.65123 15.577594,-3.65123 7.889521,0 14.20126,3.1472 19.739578,9.84269 1.72778,2.08878 3.546433,4.01454 4.041448,4.27947 1.027073,0.54967 2.361328,-0.6711 4.959076,-4.53728 8.452134,-12.57914 26.957093,-14.09446 41.363666,-3.38717 5.499301,4.08721 10.5961368,13.057 10.1854391,17.9251 -0.1380172,1.63595 -0.4279865,1.97564 -2.667328,3.12474 -3.3248971,1.70614 -7.2564661,5.77178 -9.3941961,9.71454 -1.657964,3.0579 -1.730387,3.41343 -1.730387,8.49477 0,2.91682 0.171039,6.07328 0.38009,7.01435 0.346887,1.56158 0.214522,1.84837 -1.515228,3.28299 -4.767127,3.95379 -9.304622,9.11416 -12.299981,13.98845 -3.692664,6.009 -6.954875,9.42026 -17.141723,17.92495 -7.768816,6.48595 -10.1726,8.29689 -11.013017,8.29689 -0.287504,0 -3.320755,-2.08374 -6.740556,-4.63055 z"
         style="opacity:1;fill:#ff0000;fill-opacity:1;stroke:#ff0000;stroke-width:3.81354332;stroke-miterlimit:4;stroke-dasharray:none;stroke-dashoffset:0;stroke-opacity:1" />
      <path
         transform="scale(0.26458333)"
         inkscape:connector-curvature="0"
         id="path4975"
         d="m -78.198229,507.54506 c -6.089737,-2.09126 -11.746374,-7.47827 -13.400248,-12.7615 -0.924928,-2.95464 -0.322289,-7.16166 1.378383,-9.62249 4.358107,-6.30606 20.457798,-8.3455 29.823299,-3.77789 8.166529,3.98287 8.931135,12.9122 1.741939,20.34291 -2.892788,2.98997 -5.008202,4.38062 -8.829449,5.80436 -3.635596,1.35458 -6.799382,1.35889 -10.713924,0.0146 z m -1.835514,-10.60928 c 2.150289,-1.58134 2.151999,-1.58166 2.891938,-0.52524 1.944531,2.7762 9.802716,1.40456 9.802716,-1.71106 0,-1.22826 -2.316357,-2.01983 -3.717009,-1.27022 -1.483341,0.79386 -3.553905,0.53445 -3.727906,-0.46705 -0.07574,-0.43594 0.887085,-1.40096 2.267684,-2.27284 2.366268,-1.49436 2.401404,-1.55546 2.551294,-4.43644 l 0.151982,-2.92122 -2.172287,-0.95987 c -6.642663,-2.93518 -14.546656,-0.75158 -14.546656,4.01873 0,2.28 0.672544,3.23553 3.023446,4.29564 1.587408,0.71582 2.039454,1.18192 1.924725,1.98458 -0.132341,0.92587 -0.550229,1.06657 -3.559212,1.19838 -3.232838,0.14162 -3.409265,0.21287 -3.409265,1.3769 0,0.90402 0.499181,1.49107 1.894036,2.22744 2.659767,1.40414 4.148275,1.28331 6.624514,-0.53773 z"
         style="opacity:1;fill:#ab612f;fill-opacity:1;stroke:#ab612f;stroke-width:2.67968512;stroke-miterlimit:4;stroke-dasharray:none;stroke-dashoffset:0;stroke-opacity:1" />
      <path
         transform="scale(0.26458333)"
         inkscape:connector-curvature="0"
         id="path4977"
         d="m -14.682872,443.59618 c -0.424566,-0.67984 -0.375648,-0.8562 0.449804,-1.6216 1.403961,-1.30183 1.215867,-2.46325 -0.680964,-4.20473 -1.340393,-1.23061 -1.607143,-1.69137 -1.607143,-2.77602 0,-1.04788 -0.21598,-1.4543 -1.111836,-2.0922 -0.611509,-0.43544 -1.33688,-1.33031 -1.611935,-1.98861 -0.451884,-1.08151 -0.641107,-1.19691 -1.962596,-1.19691 -1.385054,0 -1.450526,-0.0477 -1.236435,-0.9007 0.296614,-1.1818 -0.279376,-1.38168 -2.698948,-0.93659 -3.530549,0.64947 -4.709829,-0.78811 -3.016621,-3.67735 1.106511,-1.88812 3.013144,-3.45141 5.804123,-4.75893 1.75836,-0.82375 2.558905,-0.97643 5.119962,-0.97643 2.662116,0 3.32683,0.13794 5.401207,1.12079 7.5614717,3.58268 9.8640963,11.13771 5.6517581,18.5437 -1.3753268,2.41806 -3.2241525,4.264 -5.3491531,5.34082 -2.138685,1.08375 -2.542338,1.09974 -3.151223,0.12476 z"
         style="opacity:1;fill:#ffbdea;fill-opacity:1;stroke:#ffbdea;stroke-width:1.69322836;stroke-miterlimit:4;stroke-dasharray:none;stroke-dashoffset:0;stroke-opacity:1" />
      <path
         transform="scale(0.26458333)"
         inkscape:connector-curvature="0"
         id="path4979"
         d="m -109.96254,444.41213 c -4.61645,-3.34414 -6.51026,-9.0569 -4.83298,-14.57895 1.93304,-6.36412 7.00725,-10.03619 13.40376,-9.69994 3.104161,0.16318 4.88548,0.96889 8.216353,3.71635 2.324941,1.91772 2.398871,2.02674 1.81323,2.67387 -1.159839,1.2816 -3.471778,2.12122 -5.840907,2.12122 -1.945812,0 -2.266925,0.0949 -2.429917,0.7182 -0.107188,0.40989 -0.591099,0.80279 -1.127279,0.91526 -0.51671,0.10839 -1.30107,0.27041 -1.74304,0.36004 -0.6472,0.13126 -0.80357,0.40356 -0.80357,1.39936 0,1.0606 -0.13964,1.26577 -0.98214,1.44304 -1.61493,0.33979 -2.05357,0.72419 -2.05357,1.79962 0,0.70293 0.25078,1.14699 0.80334,1.42247 0.76421,0.381 0.73085,0.42224 -0.68469,0.84634 -2.11789,0.63454 -3.65698,2.25319 -3.34069,3.51338 0.32241,1.28457 0.84045,1.86801 1.65862,1.86801 0.74294,0 0.86767,0.75009 0.30085,1.80919 -0.48537,0.90692 -0.69322,0.87805 -2.35737,-0.32746 z"
         style="opacity:1;fill:#ffbdea;fill-opacity:1;stroke:#ffbdea;stroke-width:2.44913387;stroke-miterlimit:4;stroke-dasharray:none;stroke-dashoffset:0;stroke-opacity:1" />
      <path
         transform="scale(0.26458333)"
         inkscape:connector-curvature="0"
         id="path4981"
         d="m -128.40172,631.47038 c -4.96144,-1.1689 -8.87386,-5.10801 -10.82636,-10.9002 -0.86085,-2.55375 -0.91424,-3.01271 -0.56873,-4.8885 1.45788,-7.9149 8.27436,-13.6176 16.22597,-13.57473 2.38294,0.0129 3.09963,0.17636 5.1091,1.16562 3.11775,1.53486 6.84793,5.26369 8.38116,8.37812 1.0846,2.20314 1.13918,2.50377 0.99245,5.46625 -0.13027,2.63018 -0.34767,3.5358 -1.35032,5.62506 -3.164,6.59292 -10.95629,10.37921 -17.96327,8.72838 z"
         style="opacity:1;fill:#ffbdea;fill-opacity:1;stroke:#ffbdea;stroke-width:2.07118106;stroke-miterlimit:4;stroke-dasharray:none;stroke-dashoffset:0;stroke-opacity:1" />
      <path
         transform="scale(0.26458333)"
         inkscape:connector-curvature="0"
         id="path4983"
         d="m -9.0595781,629.91273 c -4.1146159,-1.13469 -8.0919239,-4.48034 -9.8916379,-8.32067 -0.845686,-1.80458 -0.962379,-2.48899 -0.959218,-5.62595 0.0032,-3.21244 0.108206,-3.78681 1.044307,-5.71428 2.20845,-4.54728 7.611958,-8.62805 12.5793497,-9.50001 4.9414742,-0.86742 11.0815189,1.91419 14.020895,6.35184 3.7846103,5.71371 3.1569953,13.52219 -1.4922647,18.56605 -3.6369771,3.94565 -9.9908118,5.70754 -15.3014311,4.24302 z"
         style="opacity:1;fill:#ffbdea;fill-opacity:1;stroke:#ffbdea;stroke-width:1.69322836;stroke-miterlimit:4;stroke-dasharray:none;stroke-dashoffset:0;stroke-opacity:1" />
      <path
         transform="scale(0.26458333)"
         inkscape:connector-curvature="0"
         id="path4985"
         d="m -1.8795263,593.34128 c -2.8779923,-2.87799 -0.5781507,-7.90342 3.3938508,-7.41596 3.1046757,0.38101 4.9615971,4.4987 2.9853496,6.61995 -1.8529339,1.98889 -4.81651644,2.35869 -6.3792004,0.79601 z"
         style="opacity:1;fill:#ffbdea;fill-opacity:1;stroke:#ffbdea;stroke-width:1.69322836;stroke-miterlimit:4;stroke-dasharray:none;stroke-dashoffset:0;stroke-opacity:1" />
      <path
         transform="scale(0.26458333)"
         inkscape:connector-curvature="0"
         id="path4987"
         d="m 13.012597,602.89071 c -1.054867,-0.61366 -1.384468,-1.97059 -0.811662,-3.3415 0.891991,-2.13484 3.450917,-2.69254 5.044124,-1.09933 1.179447,1.17945 1.120961,2.50541 -0.167333,3.79371 -1.108274,1.10827 -2.807465,1.37876 -4.065129,0.64712 z"
         style="opacity:1;fill:#ffbdea;fill-opacity:1;stroke:#ffbdea;stroke-width:1.31527567;stroke-miterlimit:4;stroke-dasharray:none;stroke-dashoffset:0;stroke-opacity:1" />
      <path
         transform="scale(0.26458333)"
         inkscape:connector-curvature="0"
         id="path4989"
         d="m -18.706049,594.75813 c -0.762605,-0.7626 -1.386555,-1.70342 -1.386555,-2.09071 0,-0.78374 1.159359,-2.16729 2.615725,-3.12154 0.900131,-0.58979 1.009356,-0.59105 1.878392,-0.0216 1.122118,0.73524 2.051607,2.81741 1.731507,3.87879 -0.341464,1.13222 -1.963441,2.74164 -2.76303,2.74164 -0.379217,0 -1.313434,-0.62394 -2.076039,-1.38655 z"
         style="opacity:1;fill:#ffbdea;fill-opacity:1;stroke:#ffbdea;stroke-width:1.69322836;stroke-miterlimit:4;stroke-dasharray:none;stroke-dashoffset:0;stroke-opacity:1" />
      <path
         transform="scale(0.26458333)"
         inkscape:connector-curvature="0"
         id="path4991"
         d="m -114.60123,595.51422 c -0.74689,-0.48813 -1.91727,-2.75653 -1.91861,-3.71861 -0.002,-1.17445 1.47741,-2.43664 2.85527,-2.43664 1.1505,0 2.83818,1.5352 2.9,2.63799 0.0802,1.43128 -0.081,1.82955 -1.13697,2.80844 -1.05456,0.97759 -1.93481,1.2087 -2.69969,0.70882 z"
         style="opacity:1;fill:#ffbdea;fill-opacity:1;stroke:#ffbdea;stroke-width:2.07118106;stroke-miterlimit:4;stroke-dasharray:none;stroke-dashoffset:0;stroke-opacity:1" />
      <path
         transform="scale(0.26458333)"
         inkscape:connector-curvature="0"
         id="path4993"
         d="m -132.78888,595.99947 c -1.28476,-0.5596 -2.9278,-2.40674 -3.23714,-3.63924 -0.54807,-2.18369 2.06074,-4.78697 4.79714,-4.78697 1.21442,0 1.7607,0.23533 2.83795,1.22255 1.16281,1.06564 1.33404,1.42936 1.33404,2.8337 0,1.30166 -0.2058,1.82756 -1.07143,2.73789 -1.02725,1.08031 -2.68465,2.14988 -3.28583,2.12045 -0.15708,-0.008 -0.77571,-0.22746 -1.37473,-0.48838 z"
         style="opacity:1;fill:#ffbdea;fill-opacity:1;stroke:#ffbdea;stroke-width:1.31527567;stroke-miterlimit:4;stroke-dasharray:none;stroke-dashoffset:0;stroke-opacity:1" />
      <path
         transform="scale(0.26458333)"
         inkscape:connector-curvature="0"
         id="path4995"
         d="m -146.44171,605.94586 c -0.43656,-0.30578 -0.79375,-0.78792 -0.79375,-1.07143 0,-0.2835 -0.16072,-0.51546 -0.35714,-0.51546 -0.19643,0 -0.35715,-0.6952 -0.35715,-1.54489 0,-1.94996 1.19976,-3.24082 3.01211,-3.24082 1.4461,0 2.28609,0.62998 2.94647,2.20983 0.42444,1.01541 0.41618,1.33134 -0.0611,2.33712 -0.54504,1.1486 -2.15271,2.38162 -3.10526,2.38162 -0.26973,0 -0.84762,-0.25019 -1.28418,-0.55597 z"
         style="opacity:1;fill:#ffbdea;fill-opacity:1;stroke:#ffbdea;stroke-width:2.44913387;stroke-miterlimit:4;stroke-dasharray:none;stroke-dashoffset:0;stroke-opacity:1" />
      <path
         transform="scale(0.26458333)"
         inkscape:connector-curvature="0"
         id="path4997"
         d="m -57.758748,469.32197 c -1.511275,-1.32691 -1.607689,-2.35502 -0.359916,-3.83791 1.636357,-1.9447 4.35132,-1.71297 5.520238,0.47117 0.441451,0.82486 0.43322,1.06344 -0.06574,1.90547 -0.621938,1.04958 -2.610563,2.5697 -3.361686,2.5697 -0.25876,0 -1.038564,-0.49879 -1.732899,-1.10843 z"
         style="opacity:1;fill:#000000;fill-opacity:1;stroke:#000000;stroke-width:1.69322836;stroke-miterlimit:4;stroke-dasharray:none;stroke-dashoffset:0;stroke-opacity:1" />
      <path
         transform="scale(0.26458333)"
         inkscape:connector-curvature="0"
         id="path4999"
         d="m -92.80689,469.57326 c -1.501246,-1.50125 -1.627258,-3.04807 -0.352186,-4.32314 1.240546,-1.24055 2.473465,-1.4518 3.834377,-0.65698 1.995303,1.16532 2.216196,3.59991 0.483805,5.3323 -1.220119,1.22012 -2.508062,1.10575 -3.965996,-0.35218 z"
         style="opacity:1;fill:#000000;fill-opacity:1;stroke:#000000;stroke-width:2.07118106;stroke-miterlimit:4;stroke-dasharray:none;stroke-dashoffset:0;stroke-opacity:1" />
      <path
         transform="scale(0.26458333)"
         inkscape:connector-curvature="0"
         id="path5001"
         d="m -81.164032,487.66199 c -2.770403,-1.38397 -0.958165,-3.29745 3.392857,-3.5824 1.806427,-0.1183 2.339108,-0.007 3.392857,0.70679 1.757581,1.19112 1.837747,2.29522 0.215857,2.97289 -1.752945,0.73242 -5.443324,0.68115 -7.001571,-0.0973 z"
         style="opacity:1;fill:#b3b3b3;fill-opacity:1;stroke:#b3b3b3;stroke-width:2.07118106;stroke-miterlimit:4;stroke-dasharray:none;stroke-dashoffset:0;stroke-opacity:1" />
      <path
         inkscape:connector-curvature="0"
         d="m -37.516202,160.81549 c 0.105095,-0.12032 0.219067,-0.23246 0.325922,-0.35108 0.07392,-0.0791 0.156078,-0.1507 0.228235,-0.23136 0.06574,-0.0675 0.137633,-0.1296 0.200263,-0.20008 0.04931,-0.0462 0.03154,-0.026 0.05711,-0.0569 0.157699,-0.1759 0.406447,0.0471 0.248748,0.22302 v 0 c -0.04275,0.0463 -0.02231,0.0266 -0.06007,0.0602 -0.06461,0.0688 -0.13307,0.13402 -0.200335,0.20016 -0.07348,0.0784 -0.151508,0.15247 -0.226496,0.22946 -0.102955,0.1129 -0.210619,0.22143 -0.312502,0.33534 -0.147574,0.18447 -0.408453,-0.0242 -0.260877,-0.20871 z"
         id="path5003"
         style="opacity:1;fill:#deaa87;fill-opacity:1;stroke:#deaa87;stroke-width:0.648;stroke-miterlimit:4;stroke-dasharray:none;stroke-dashoffset:0;stroke-opacity:1" />
      <path
         inkscape:connector-curvature="0"
         d="m 4.9184903,156.81226 c 0.058803,0.15867 0.1256716,0.31404 0.1854677,0.47228 0.025794,0.10524 0.074112,0.19894 0.1330695,0.28867 0.04961,0.0959 0.1363686,0.16118 0.204075,0.24416 0.1902325,0.21456 0.1549146,0.0973 -0.1387743,0.35696 -0.07849,-0.096 -0.1380315,-0.20493 -0.1965605,-0.31376 -0.068333,-0.12072 -0.1543738,-0.22887 -0.235013,-0.34115 -0.080583,-0.0919 -0.1516851,-0.19003 -0.2247307,-0.28757 -0.011142,-0.017 -0.022283,-0.0339 -0.033423,-0.0509 -0.1288388,-0.19801 0.1511885,-0.38021 0.2800271,-0.18221 v 0 c 0.00748,0.0117 0.014957,0.0233 0.022434,0.035 0.072624,0.0998 0.1474555,0.19679 0.227408,0.29127 0.088522,0.12432 0.1835145,0.24391 0.2578624,0.3779 0.042201,0.0793 0.096305,0.15302 0.1384594,0.23138 0.00238,0.004 -0.00851,-0.005 -0.012761,-0.008 -0.2745091,0.3249 -0.1592794,0.30292 -0.3460623,0.0996 -0.071304,-0.093 -0.1728824,-0.16152 -0.2231281,-0.27058 -0.070859,-0.11003 -0.1328235,-0.22532 -0.1655966,-0.35306 -0.060677,-0.16237 -0.1301295,-0.32133 -0.1896949,-0.4842 -0.074704,-0.22412 0.2422385,-0.32976 0.3169425,-0.10565 z"
         id="path5005"
         style="opacity:1;fill:#deaa87;fill-opacity:1;stroke:#deaa87;stroke-width:0.648;stroke-miterlimit:4;stroke-dasharray:none;stroke-dashoffset:0;stroke-opacity:1" />
      <path
         transform="scale(0.26458333)"
         inkscape:connector-curvature="0"
         id="path4973"
         d="m -129.31046,635.9288 c -6.17881,-0.98447 -14.17801,-7.42038 -17.55334,-14.12289 -1.78761,-3.54972 -3.30817,-8.50741 -4.00022,-13.04243 l -0.32566,-2.13404 1.86108,1.26296 c 2.59529,1.76121 3.9601,1.99295 6.3073,1.07094 1.897,-0.74516 2.00825,-0.74099 1.67903,0.063 -1.55936,3.80807 -1.56914,11.52066 -0.02,15.76078 2.11912,5.80009 9.43236,10.08953 17.20208,10.08953 8.58458,0 15.16466,-4.54387 17.71968,-12.23632 1.16349,-3.50293 0.7816,-10.23479 -0.78726,-13.87779 -2.47265,-5.74168 -10.22029,-10.23939 -17.63811,-10.23939 h -2.26122 l 1.29547,-1.38896 c 2.95296,-3.16605 3.23671,-6.09397 0.9173,-9.46513 -1.79035,-2.60218 -3.97624,-3.51159 -7.25775,-3.0195 -4.67732,0.70141 -7.61993,3.85605 -7.22362,7.74411 0.2784,2.73127 1.46905,4.39283 4.66378,6.50829 1.36343,0.90282 2.21786,1.6415 1.89874,1.6415 -0.31912,0 -1.73704,0.91442 -3.15095,2.03205 l -2.57073,2.03205 v -2.04982 c 0,-1.1274 -0.37565,-2.62313 -0.83477,-3.32384 -1.26388,-1.92892 -4.51227,-3.39714 -6.82866,-3.08645 -1.06316,0.1426 -1.93302,0.074 -1.93302,-0.15239 0,-1.63958 9.13651,-10.73279 12.99425,-12.93265 5.30088,-3.02281 5.79495,-4.62742 3.04192,-9.87926 -2.98434,-5.69308 -2.35668,-13.61171 1.87917,-23.708 5.44255,-12.9725 14.13411,-24.35667 26.62541,-34.87384 5.829176,-4.90793 7.482103,-6.63488 7.482103,-7.81716 0,-0.33027 -1.966969,-3.5185 -4.371043,-7.08495 -5.13861,-7.62312 -6.89319,-11.25319 -8.33189,-17.2379 -0.95062,-3.95439 -1.02498,-5.31741 -0.73599,-13.49021 0.17681,-5.00026 0.54174,-10.34144 0.81095,-11.86929 0.26921,-1.52786 0.36277,-3.18036 0.20793,-3.67222 -0.15485,-0.49186 -1.4571,-1.48999 -2.89388,-2.21807 -3.35649,-1.70086 -7.78529,-6.30566 -9.70098,-10.08649 -1.35207,-2.66847 -1.5016,-3.44139 -1.5016,-7.76181 0,-4.28668 0.15839,-5.1213 1.48574,-7.82868 3.85394,-7.86084 11.88193,-12.29651 20.48508,-11.31854 4.56975,0.51947 7.358054,2.16449 12.448102,7.34405 l 4.619422,4.70065 5.229565,-1.76172 c 12.09745,-4.07534 17.981337,-4.21427 32.207668,-0.76049 6.70315,1.62735 9.058634,2.01533 9.902127,1.63101 0.608723,-0.27735 1.797344,-1.72791 2.641377,-3.22346 1.702526,-3.0167 5.566415,-6.30066 9.41789,-8.00435 2.062201,-0.91221 3.180061,-1.04523 7.550198,-0.89844 4.264546,0.14325 5.611316,0.3979 7.9860083,1.51002 9.18000874,4.2992 13.3559642,16.62579 8.74349152,25.80902 -2.04159912,4.06473 -3.87271272,5.99893 -8.48562992,8.96337 -2.3774749,1.52786 -4.5573789,3.28948 -4.8442369,3.91472 -0.38059,0.82956 -0.290757,2.2629 0.332396,5.3033 0.585454,2.85649 0.860008,6.70737 0.873226,12.24772 0.01692,7.09304 -0.12536,8.54444 -1.163559,11.8693 -1.488591,4.76728 -4.865451,11.82238 -7.856871,16.41498 -1.894294,2.90823 -2.304809,3.95591 -2.313699,5.90483 -0.01192,2.61447 0.04662,2.67808 3.929918,4.27013 4.425872,1.8145 8.050315,4.25624 12.5455996,8.45181 6.61475159,6.17373 10.3706149,12.05229 12.9469282,20.2641 4.1626522,13.26816 3.8440042,29.11915 -0.7286231,36.24497 -2.4770758,3.86019 -2.2355585,5.09926 1.6420333,8.42413 3.747944,3.2137 10.059437,9.63189 10.059437,10.22948 0,0.224 -0.703606,0.40727 -1.563569,0.40727 -0.859963,0 -2.19286,0.37173 -2.96199,0.82607 -1.59746,0.94364 -4.0607372,4.48685 -4.0607372,5.84102 0,1.23504 -0.6886462,1.14709 -3.6535349,-0.46661 -2.1796465,-1.18631 -2.4056833,-1.44701 -1.6421847,-1.89403 3.7067699,-2.1703 6.0893864,-5.86793 5.6250092,-8.72956 -0.5288099,-3.25866 -4.1224679,-6.69272 -6.9964681,-6.68575 -2.18554585,0.005 -4.869708,1.03252 -6.3768506,2.4404 -1.1837624,1.1058 -1.5818383,2.0083 -1.8569129,4.20995 -0.3951464,3.16266 0.3397395,5.17349 2.5164819,6.88572 1.7435789,1.37149 1.6135621,1.61245 -0.873792,1.6194 -7.2265557,0.0202 -13.8770567,4.35354 -16.9510967,11.04506 -1.88995,4.11401 -2.136564,10.28609 -0.576394,14.42544 3.362233,8.92045 14.675032,13.13256 25.0043418,9.30991 5.0514496,-1.86944 8.1403602,-5.17567 9.8497652,-10.54275 1.156428,-3.63087 1.419886,-9.91158 0.515158,-12.28098 -0.814446,-2.13296 -0.752716,-2.20859 2.108738,-2.58375 1.458408,-0.1912 3.423625,-0.80068 4.367147,-1.35438 l 1.715492,-1.00673 -0.276312,3.94096 c -0.807587,11.51842 -9.445835,22.89393 -20.07473127,26.43596 -2.68766743,0.89565 -4.10729543,1.05423 -7.82868223,0.87449 -3.9465295,-0.19061 -5.3215085,-0.53004 -10.4316935,-2.57519 -9.15222,-3.66281 -12.62069,-3.91387 -28.711718,-2.07824 -12.294107,1.40248 -26.481957,0.69794 -40.852392,-2.02865 -10.94818,-2.07727 -13.781552,-1.70968 -21.015422,2.72647 -2.29277,1.40603 -5.14871,2.90219 -6.34653,3.32481 -2.59288,0.91482 -11.2772,1.36578 -14.97023,0.77737 z m 70.332232,-15.42564 c 2.871778,-1.44089 15.438691,-11.85786 20.726002,-17.1802 2.156059,-2.17034 4.865879,-5.70072 6.811418,-8.87397 3.610664,-5.88915 9.546133,-12.32126 12.967848,-14.05292 2.491466,-1.26089 2.544716,-1.55793 1.33123,-7.42573 -1.992945,-9.63687 1.852453,-17.05443 10.7264107,-20.69068 l 3.5976128,-1.47417 -0.2402546,-2.02633 c -1.1182995,-9.43169 -3.5758441,-14.83847 -9.4308249,-20.74849 -3.289506,-3.32043 -4.930509,-4.53287 -8.383286,-6.1939 -6.321499,-3.0411 -10.032103,-3.76274 -17.930208,-3.48708 -4.855217,0.16946 -7.444081,0.51304 -9.936133,1.31866 -4.109962,1.32864 -8.753729,4.70967 -11.943281,8.69563 l -2.332634,2.91507 -4.37537,-4.21787 c -6.647541,-6.40825 -10.29452,-7.835 -20.027314,-7.835 -7.595181,0 -12.433852,1.01843 -18.190668,3.82874 -8.66262,4.22884 -14.81789,12.27878 -17.08771,22.34751 -1.07802,4.78202 -0.68057,5.74076 2.8686,6.91961 3.21822,1.06892 8.04974,5.68676 10.29775,9.8423 1.97327,3.64769 1.98505,6.83544 0.0465,12.58318 l -1.43548,4.25611 1.02757,0.79465 c 5.24752,4.05815 6.85419,5.51531 9.17618,8.32225 1.472912,1.78054 3.359806,4.45178 4.193096,5.9361 0.833295,1.48432 2.569439,3.80708 3.858106,5.1617 2.394667,2.51722 23.74705,19.87894 26.551309,21.58899 2.097885,1.2793 4.152222,1.19171 7.133551,-0.30416 z m 45.828914,-22.30987 c 2.172454,-1.39198 2.884672,-2.84764 2.881955,-5.8902 -0.0025,-2.56416 -1.423538,-5.06313 -3.486229,-6.12978 -4.717351,-2.43944 -9.578372,1.5364 -9.017328,7.37529 0.251189,2.6142 1.170529,4.00981 3.64613,5.53502 1.757756,1.08294 3.24065,0.86199 5.975472,-0.89033 z m -97.301606,0.009 c 3.06475,-1.45433 4.1134,-5.4533 2.38508,-9.09546 -2.13984,-4.50939 -9.13078,-4.30851 -10.98096,0.31554 -1.60318,4.00674 -0.78781,7.21378 2.21726,8.72097 2.20043,1.10362 4.13937,1.12154 6.37862,0.0589 z m 44.374522,-87.66062 c 3.913017,-1.34822 7.748253,-3.90062 10.55971,-7.02763 9.035698,-10.04988 5.731222,-23.37746 -6.709039,-27.05881 -3.475602,-1.02851 -14.202993,-1.14119 -19.595909,-0.20584 -8.80403,1.52698 -14.419104,8.42077 -13.661758,16.77293 0.392288,4.32624 2.293446,7.9672 6.138354,11.75575 6.761476,6.66235 14.847232,8.66518 23.268642,5.7636 z m -20.283338,-37.80984 c 3.250943,-2.55719 2.549004,-9.05259 -1.218815,-11.2783 -2.651307,-1.56617 -5.745303,-0.72681 -8.237183,2.23462 -2.474788,2.94112 -1.422067,8.24217 1.903633,9.5859 2.107329,0.85146 6.149525,0.56125 7.552365,-0.54222 z m 33.715275,0.2551 c 4.14251,-2.14218 4.744919,-9.63639 0.933058,-11.60758 -1.464741,-0.75745 -5.357894,-0.9765 -7.440425,-0.41864 -1.555766,0.41676 -2.631422,2.65878 -2.631422,5.48475 0,5.50396 4.674592,8.84999 9.138789,6.54147 z m -52.781399,-25.74897 c 1.87836,-1.99164 2.69937,-4.92037 1.78829,-6.37924 -0.51216,-0.8201 -0.41333,-0.92977 0.83785,-0.92977 1.71006,0 2.63067,-0.81882 2.63067,-2.33982 0,-0.6949 0.399175,-1.25433 1.040193,-1.45778 1.233871,-0.39162 8.216338,-5.31948 10.197757,-7.19705 0.763928,-0.72389 1.38896,-1.75821 1.38896,-2.29848 0,-2.73346 -4.682926,-7.13633 -9.540037,-8.9695 -2.253151,-0.85038 -3.611083,-1.02476 -6.622403,-0.85046 -4.69382,0.2717 -8.09597,1.87674 -11.02045,5.19912 -2.78582,3.16486 -3.85732,6.49301 -3.81669,11.85487 0.0485,6.40462 2.23421,10.55592 7.22368,13.72015 2.93177,1.85927 3.85888,1.80388 5.89218,-0.35204 z m 95.7783202,-0.81811 c 2.7426551,-1.37365 5.3899619,-4.23955 6.8885737,-7.45737 1.78864176,-3.84058 1.9140724,-11.15991 0.2528159,-14.75271 -2.329139,-5.03724 -7.1824674,-8.62765 -12.5915768,-9.31504 -7.758573,-0.98597 -17.391099,5.43793 -17.391099,11.59806 0,1.85993 0.265518,2.28105 2.891087,4.58537 1.590096,1.39554 4.147045,3.81118 5.682108,5.36809 1.535063,1.55692 3.28193,3.08812 3.881935,3.40268 0.706516,0.3704 1.206582,1.25656 1.419174,2.51487 0.896555,5.30667 3.825104,6.63135 8.9669822,4.05605 z"
         style="opacity:1;fill:#deaa87;fill-opacity:1;stroke:#deaa87;stroke-width:2.67968512;stroke-miterlimit:4;stroke-dasharray:none;stroke-dashoffset:0;stroke-opacity:1" />
      <g
         id="g4969">
        <path
           id="path4758"
           transform="scale(0.26458333)"
           style="fill:#000000;stroke-width:1.00000012"
           d="m -15.517578,408.66211 c -4.963079,0 -8.205057,0.59891 -11.410156,2.10547 -4.177429,1.96361 -10.5,7.87916 -10.5,9.82422 0,0.47319 -2.812501,-0.0758 -6.25,-1.22071 -8.60897,-2.86741 -24.842419,-2.91054 -32.867188,-0.0859 l -5.617187,1.97656 -3.289063,-3.91797 c -4.43932,-5.28771 -9.921416,-7.6337 -17.912108,-7.66016 -10.35923,-0.0353 -17.98145,4.84174 -21.84961,13.97852 -2.27165,5.36568 -2.00591,15.67153 0.53125,20.56836 1.94366,3.75129 8.53941,10.65738 11.03125,11.55078 0.71365,0.25587 0.77466,1.85516 0.18555,4.88086 -2.73706,14.0572 1.36716,32.35878 9.5625,42.63672 l 2.12109,2.6582 -11.18945,11.10352 c -12.24809,12.15261 -17.85182,20.44001 -22.17578,32.79687 -3.21396,9.18478 -4.05823,19.01046 -2.04688,23.82422 l 1.46875,3.51563 -3.99609,2.48242 c -5.48637,3.4094 -11.36602,11.0904 -13.18946,17.23047 -0.83561,2.81393 -1.51757,8.33611 -1.51757,12.27343 0,6.04362 0.49474,8.15046 3.17968,13.52344 1.8629,3.728 4.61291,7.41665 8.27735,11.16602 0.0344,0.0243 0.0692,0.0478 0.10351,0.0723 0.21426,0.1527 0.42297,0.31411 0.63281,0.47266 0.18184,0.13682 0.36441,0.27056 0.54688,0.40625 0.17892,0.13153 0.35879,0.26283 0.53906,0.39258 0.18505,0.1319 0.37019,0.26248 0.55664,0.39258 0.20527,0.14548 0.4133,0.28895 0.61914,0.43359 0.20198,0.14173 0.40343,0.28225 0.60547,0.42383 0.19465,0.13379 0.39012,0.26799 0.58594,0.40039 0.20134,0.13946 0.40684,0.27342 0.61133,0.4082 0.19619,0.12737 0.39553,0.25065 0.59375,0.375 0.23535,0.14589 0.46812,0.29399 0.70117,0.44336 0.22209,0.14098 0.44468,0.28153 0.66602,0.42383 0.20825,0.13606 0.41579,0.27281 0.62695,0.4043 0.0574,0.0357 0.1174,0.0672 0.17578,0.10156 0.11979,0.0567 0.23917,0.11443 0.35937,0.16992 0.24446,0.11187 0.49075,0.2228 0.73633,0.33203 0.24363,0.10696 0.48706,0.21323 0.73243,0.31641 0.26131,0.1096 0.52294,0.21688 0.78515,0.32422 0.0319,0.0129 0.0638,0.0261 0.0957,0.0391 0.16693,0.0486 0.33472,0.0924 0.50391,0.13281 0.21158,0.0503 0.42534,0.0909 0.63867,0.13281 0.25905,0.0495 0.51866,0.10095 0.77735,0.15235 0.21902,0.0435 0.43763,0.0891 0.65625,0.13476 0.17511,0.0191 0.3503,0.0384 0.52539,0.0547 0.27367,0.0265 0.54638,0.0484 0.82031,0.0703 0.27553,0.0227 0.55232,0.0447 0.82812,0.0625 0.2778,0.0151 0.55606,0.0291 0.83399,0.0449 0.28804,0.0151 0.57516,0.0305 0.86328,0.043 h 0.002 l 6.78125,-0.5664 c 7.11991,-0.59486 9.15294,-1.20877 14.08008,-4.25 3.67963,-2.27121 6.054628,-3.3405 9.152345,-3.40821 2.409336,-0.0527 5.256837,0.50156 9.494141,1.56641 8.041285,2.0208 42.93008,2.43558 50.0625,0.5957 4.829461,-1.24577 9.989835,-0.42306 17.667968,2.81641 2.820458,1.18995 7.375461,2.13302 10.681641,2.20898 1.2197431,0.0281 2.1752997,0.0644 2.8886719,0.12891 0.041668,-5.8e-4 0.083332,-7.5e-4 0.125,-0.002 0.2757278,-10e-4 0.5504417,-0.002 0.8261719,-0.002 0.2577253,10e-4 0.5157545,-0.002 0.7734374,-0.004 0.2423245,-0.004 0.4844828,-0.014 0.7265626,-0.0254 0.244387,-0.0113 0.4884641,-0.0304 0.7324218,-0.0508 0.2475787,-0.0189 0.4952728,-0.0423 0.7421875,-0.0684 0.2670274,-0.0265 0.53222349,-0.0592 0.79882815,-0.0899 0.26070765,-0.034 0.52267331,-0.0648 0.78320312,-0.0996 0.26853223,-0.0378 0.53644661,-0.0712 0.80468751,-0.10937 0.27300812,-0.0378 0.54580512,-0.0783 0.81835932,-0.11914 0.082081,-0.0131 0.1640042,-0.0276 0.2460938,-0.041 0.1392575,-0.042 0.2789967,-0.0822 0.4179688,-0.12695 0.2445754,-0.0779 0.4876503,-0.16257 0.7304687,-0.2461 0.2296789,-0.0797 0.4597818,-0.16105 0.6875,-0.24609 0.2208045,-0.0824 0.4402193,-0.16861 0.6582031,-0.25781 0.2172473,-0.0884 0.4321013,-0.18015 0.6464844,-0.27539 0.2273726,-0.0998 0.4523203,-0.20623 0.6777344,-0.31055 0.2168844,-0.10053 0.4317924,-0.20547 0.6464844,-0.31055 0.2100884,-0.10355 0.4191365,-0.2103 0.6269531,-0.31835 0.2075792,-0.10886 0.4118083,-0.22136 0.6171875,-0.33399 0.2147981,-0.11679 0.4300829,-0.23452 0.6425781,-0.35547 0.215811,-0.12245 0.4302759,-0.24404 0.6445313,-0.36914 0.2068607,-0.12019 0.4129841,-0.24246 0.6171874,-0.36719 0.1318016,-0.0798 0.2619994,-0.16227 0.3925782,-0.24414 0.056099,-0.0468 0.1116986,-0.0941 0.1679686,-0.14062 0.19804,-0.16403 0.394432,-0.32917 0.591797,-0.49414 0.01733,-0.0147 0.03533,-0.0284 0.05273,-0.043 1.362916,-1.57228 3.022231,-3.39834 4.609375,-5.03516 7.122221,-7.34506 9.557009,-14.2521 8.949219,-25.39453 -0.325119,-5.96035 -1.098073,-9.7548 -2.570312,-12.64062 -2.213473,-4.33879 -7.122107,-9.89015 -10.939453,-12.36914 l -2.2675786,-1.47266 2.2675786,-4.5 c 2.001407,-3.97289 2.255969,-5.90568 2.171874,-16.5 -0.152727,-19.23545 -3.9946964,-30.07935 -14.5468745,-41.06836 -3.2360994,-3.37005 -8.2403898,-7.38869 -11.1210935,-8.93164 -2.880711,-1.54299 -5.375637,-2.9122 -5.544922,-3.04297 -0.169281,-0.13085 1.074544,-2.48528 2.763672,-5.23047 5.33176,-8.66521 7.2532545,-15.60077 7.4062498,-26.72656 0.07564,-5.50001 -0.2207833,-11.68751 -0.6582032,-13.75 -0.648189,-3.05628 -0.5090429,-3.75 0.7480469,-3.75 0.8483301,0 3.375769,-1.65665 5.6171875,-3.68164 12.468873,-11.26488 11.6161024,-28.71004 -1.9082031,-39.02539 -3.9218533,-2.99131 -4.9504844,-3.29297 -11.2499999,-3.29297 z m -1.666016,4 c 8.6887432,0 14.8155529,4.11374 18.2011721,12.21875 3.4848908,8.34255 0.073875,19.23627 -7.4589843,23.82031 -7.9005508,4.80779 -7.4492578,4.0383 -6.1542968,10.48633 1.429935,7.11995 1.463973,16.47079 0.08203,22.46875 -1.12193,4.86947 -5.934934,14.94609 -9.003906,18.84766 -2.410579,3.06455 -2.492817,7.04766 -0.160156,7.74218 9.4911,2.82588 20.6953196,12.86883 25.2753902,22.65625 6.9015078,14.74817 7.8263988,35.54119 1.9492188,43.79493 -2.7530685,3.86634 -2.3730193,5.04693 2.9199219,9.09961 2.4169811,1.85042 5.9966361,5.39024 7.9550781,7.86523 1.958434,2.47499 2.927218,3.9375 2.154297,3.25 -2.286569,-2.03388 -5.71316,-1.43559 -7.931641,1.38477 -1.1399138,1.44892 -2.0722654,3.24915 -2.0722654,4 0,1.71897 0.1622589,1.74217 -4.5,-0.63477 -2.1580514,-1.09999 -3.13230451,-2 -2.1660156,-2 2.7674609,0 6.6660156,-4.54924 6.6660156,-7.7793 0,-3.3614 -3.6167786,-7.2207 -6.7675781,-7.2207 -3.4110312,0 -7.015354,2.06493 -7.6347656,4.37305 -1.1050507,4.11775 -0.5746866,6.50122 1.8769531,8.42968 l 2.4765625,1.94727 -4.9511719,0.47656 c -17.6429106,1.69523 -23.3339786,25.38361 -8.0410156,33.47071 7.2968784,3.85848 18.2563723,2.28402 23.2519531,-3.3418 4.1786339,-4.70578 5.9143479,-13.26075 3.8124999,-18.78906 -0.918799,-2.41656 -0.792495,-2.56641 2.171875,-2.56641 1.730582,0 3.968802,-0.74404 4.97461,-1.6543 1.723688,-1.55992 1.827742,-1.51684 1.804687,0.75 -0.133368,13.12131 -9.294582,26.1984 -20.671875,29.50586 -6.8063372,1.97866 -11.128654,1.48575 -19.339844,-2.19922 -7.34999,-3.29847 -13.091153,-3.60939 -28.628906,-1.55468 -11.323733,1.49744 -28.650422,0.46927 -41.550781,-2.46485 -8.325317,-1.89354 -12.837848,-1.27167 -18.283198,2.51953 -2.19999,1.53169 -5.53103,3.30547 -7.40039,3.94141 -4.22091,1.4358 -14.75103,1.39206 -18.09961,-0.0742 -10.81187,-4.73579 -16.52091,-12.64779 -18.55079,-25.71094 -0.6373,-4.10139 -0.56606,-4.31606 0.93555,-2.81445 2.62953,2.62957 5.48612,3.06963 8.23047,1.27148 l 2.51758,-1.64843 -1.6836,2.56836 c -2.35974,3.60143 -1.65181,14.47058 1.19141,18.30468 6.77601,9.13731 22.4749,9.85361 29.62891,1.35157 4.69239,-5.57662 5.56594,-12.49352 2.5625,-20.30274 -2.13113,-5.54109 -11.8677,-10.48044 -18.69141,-9.48242 -2.97993,0.43582 -3.25363,0.34737 -1.50586,-0.48828 2.1275,-1.01722 4.36524,-4.72324 4.36524,-7.23047 0,-0.72495 -0.95285,-2.52615 -2.11524,-4.00391 -1.77075,-2.25105 -2.76636,-2.63761 -6.14844,-2.38476 -8.43144,0.63069 -10.37162,9.83073 -2.90429,13.77539 2.01649,1.06522 3.13945,1.95974 2.49414,1.98242 -0.64532,0.0243 -2.51758,1.17451 -4.16016,2.55664 -2.72285,2.2913 -2.94048,2.33574 -2.46094,0.50195 1.17234,-4.48297 -5.07023,-9.07049 -9.19922,-6.75976 -1.43622,0.80387 -1.53102,0.65916 -0.65039,-0.98633 2.26353,-4.2294 10.22567,-12.00262 14.07032,-13.73633 4.65214,-2.09779 5.06714,-3.85213 2.07617,-8.75781 -3.64864,-5.98428 -2.0985,-16.68015 4.24219,-29.27539 6.02203,-11.96224 14.90391,-22.60905 26.00586,-31.17773 3.162426,-2.44098 5.749995,-5.08299 5.749995,-5.8711 0,-0.78807 -1.600509,-3.52916 -3.556641,-6.0918 -8.097634,-10.60849 -10.957684,-19.91252 -10.080074,-32.79882 0.33936,-4.98278 0.88722,-10.45213 1.21679,-12.15235 0.53326,-2.74972 0.25845,-3.23066 -2.48046,-4.36523 -4.08862,-1.69357 -9.55894,-7.8748 -11.09766,-12.53711 -4.02701,-12.20198 5.85878,-25.50951 18.94336,-25.50195 6.554788,0.004 10.824273,2.16072 16.193357,8.17773 l 3.638671,4.07813 6.361329,-2.17969 c 9.985036,-3.42172 17.911035,-3.73256 27.890624,-1.0918 13.805891,3.65322 13.287093,3.66785 15.238282,-0.42383 1.027888,-2.15554 3.60152,-4.7927 6.419922,-6.58008 3.840249,-2.43541 5.777583,-2.98437 10.55664,-2.98437 z m 0.332032,2.38867 c -4.450452,-0.007 -9.012997,1.79508 -12.302735,5.2832 -4.793019,5.08211 -4.378691,7.97967 1.761719,12.32813 2.718281,1.92499 4.947078,4.03314 4.953125,4.68359 0.006,0.65042 0.911717,1.46718 2.011719,1.81641 1.100001,0.34911 2,1.51163 2,2.58203 0,1.0704 0.557935,2.83909 1.240234,3.93164 1.627911,2.60682 4.689766,2.51443 8.7597656,-0.26367 4.4452989,-3.03432 7,-8.15464 7,-14.0332 0,-5.62111 -1.7593684,-9.49478 -5.8925781,-12.97266 -2.6752991,-2.25112 -6.0698105,-3.35003 -9.5312495,-3.35547 z m -86.496098,1.81445 c -7.95919,0.2908 -15.08007,6.54676 -15.08007,16.16602 0,5.87494 1.34207,9.21426 5.125,12.74805 1.69723,1.58547 3.91318,2.88281 4.92382,2.88281 3.46398,0 6.63885,-7.15252 3.70118,-8.33789 -0.6875,-0.27757 -0.0125,-0.53857 1.5,-0.58203 2.057,-0.059 2.75,-0.58407 2.75,-2.08008 0,-1.10003 0.34588,-1.88758 0.769527,-1.75 0.423609,0.1375 1.436116,-0.32056 2.25,-1.01758 0.813846,-0.69702 3.013358,-2.27203 4.886719,-3.5 5.956044,-3.90406 6.165014,-5.29352 1.466796,-9.70117 -3.725794,-3.49536 -8.123778,-4.98045 -12.292972,-4.82813 z m 86.777348,1.23047 c 5.930778,0.32745 11.5052385,4.65758 12.6679682,10.85547 0.8875124,4.7308 -2.5399637,12.15006 -6.5781252,14.23828 -3.43957,1.77854 -3.633887,1.79012 -4.566406,0.28125 -0.40484,-0.65503 -0.205974,-1.36622 0.441406,-1.58203 1.837603,-0.61255 1.383722,-3.0463 -0.785156,-4.20703 -1.147332,-0.61402 -1.727647,-1.66241 -1.396484,-2.52539 0.320299,-0.83467 -0.130371,-1.7437 -1.03711,-2.0918 -0.882062,-0.33845 -1.603515,-1.29471 -1.603515,-2.125 0,-0.99866 -0.653392,-1.33845 -1.925782,-1.00586 -1.407473,0.36809 -1.770229,0.10005 -1.349609,-0.99609 0.467161,-1.21739 -0.01758,-1.37057 -2.576172,-0.80859 -6.60198,1.45001 -4.351808,-5.71838 2.808594,-8.94727 1.905703,-0.85935 3.923457,-1.19509 5.900391,-1.08594 z m -85.226568,1.69532 c 3.043826,0.0102 5.474406,1.09074 8.388677,3.54296 l 3.175781,2.67188 -2.210937,1.66797 c -1.232164,0.92954 -3.267792,1.46725 -4.597657,1.21289 -1.363048,-0.2606 -2.386718,0.0225 -2.386718,0.66016 0,0.61391 -0.948586,1.11523 -2.107426,1.11523 -1.46222,0 -1.93063,0.45916 -1.53125,1.5 0.39153,1.02028 -0.0536,1.5 -1.39257,1.5 -2.4333,0 -2.64302,2.96474 -0.21875,3.08984 0.96253,0.0496 0.28749,0.51317 -1.5,1.0293 -2.2503,0.64974 -3.25,1.54518 -3.25,2.91016 0,1.08427 0.66098,1.9707 1.46875,1.9707 0.89499,0 1.24331,0.58626 0.89257,1.5 -0.78856,2.05489 -1.64599,1.89295 -4.63476,-0.87695 -7.62826,-7.06965 -3.57902,-21.24573 6.61523,-23.15821 1.19098,-0.22342 2.27471,-0.33934 3.28906,-0.33593 z m -23.26757,16.21679 c 0.0909,0.0138 0.19859,0.16766 0.31836,0.4668 0.28875,0.72189 0.25343,1.58575 -0.0781,1.91797 -0.33245,0.33229 -0.56885,-0.25832 -0.52539,-1.3125 0.03,-0.72808 0.13359,-1.09522 0.28516,-1.07227 z m 34.638669,24.6543 c -0.755882,-7e-5 -1.511548,0.34394 -2.740235,1.03125 -3.844119,2.15036 -5.06538,6.09732 -2.90625,9.39258 1.998766,3.05049 7.509,3.56916 10.125,0.95312 2.610709,-2.61071 1.630552,-8.474 -1.730468,-10.3457 -1.234602,-0.68753 -1.992165,-1.03118 -2.748047,-1.03125 z m 34.558593,0.0508 c -1.907046,-0.004 -3.770529,0.49785 -4.605468,1.50391 -2.095094,2.52442 -1.580758,7.52127 0.988281,9.60156 2.782031,2.2529 4.916352,2.33265 7.833984,0.28906 2.671147,-1.87094 3.040511,-7.48313 0.650391,-9.87304 -1.009574,-1.00997 -2.960119,-1.51774 -4.867188,-1.52149 z m 0.521485,3.125 c 0.979227,0.0255 1.926234,0.4836 2.59375,1.39649 1.097817,1.50112 1.042375,2.08007 -0.339844,3.60742 v 0.002 c -2.025551,2.23801 -3.684479,2.309 -5.40625,0.23437 -0.952868,-1.14792 -1.026206,-2.04217 -0.265625,-3.25 0.845223,-1.34204 2.158963,-2.02297 3.417969,-1.99023 z m -35.367188,0.0625 c 1.704102,0.0381 3.285157,1.35502 3.285157,3.29492 0,3.25535 -3.308113,5.01806 -5.431641,2.89453 -1.959156,-1.95904 -1.999468,-3.82456 -0.117187,-5.38672 0.689316,-0.57187 1.48908,-0.82004 2.263671,-0.80273 z m 18.572266,11.82227 c -6.122737,0.0459 -12.646842,0.96633 -15.246094,2.48828 -6.670072,3.90553 -9.527241,11.42008 -7.117187,18.72265 1.488113,4.50898 7.28958,10.4685 12.49414,12.83203 8.925884,4.05393 18.943657,1.56738 26.4375,-6.5625 8.95471,-9.71448 5.436683,-23.22588 -6.916015,-26.55859 -2.449162,-0.66078 -5.978702,-0.94943 -9.652344,-0.92187 z m 62.076172,1.28515 c 0.090944,0.0138 0.1986544,0.16765 0.3183592,0.4668 0.2889071,0.72185 0.2541711,1.58575 -0.078125,1.91797 -0.3322772,0.33229 -0.5687792,-0.25832 -0.5253902,-1.3125 0.02999,-0.72808 0.133582,-1.09522 0.285156,-1.07227 z m -62.863281,1.69922 c 12.942267,0 19.5,4.36102 19.5,12.9707 0,5.2551 -4.527719,11.60819 -10.5,14.73243 -1.650029,0.86316 -4.35001,1.86404 -6,2.22461 -9.718337,2.12477 -22.5,-7.50807 -22.5,-16.95704 0,-8.60968 6.557763,-12.9707 19.5,-12.9707 z m -4.894532,2.49609 c -3.988213,-0.12597 -7.556332,1.40738 -8.191406,3.9375 -0.742526,2.95854 0.06481,4.37248 3.164063,5.55079 1.636233,0.62207 2.187633,1.41346 1.761718,2.52343 -0.474633,1.23689 -1.41039,1.47044 -3.980468,0.98828 -3.992278,-0.74873 -4.755637,1.47975 -1.109375,3.23829 3.084737,1.48766 3.151636,1.48001 6.011718,-0.76953 2.137512,-1.68137 2.620341,-1.75915 3.103516,-0.5 0.770721,2.00833 7.010462,1.94573 8.697266,-0.0859 1.082456,-1.30439 1.066602,-1.72623 -0.09375,-2.44336 -0.83297,-0.5147 -1.918928,-0.43712 -2.673828,0.18945 -1.410256,1.17041 -4.294922,0.44196 -4.294922,-1.08398 0,-0.53726 1.237508,-1.57001 2.75,-2.29493 2.09057,-1.00177 2.75,-2.03175 2.75,-4.29882 0,-2.57583 -0.52723,-3.15446 -3.859375,-4.2461 -1.329837,-0.43567 -2.705752,-0.66301 -4.035157,-0.70508 z m 0.878907,2.51954 c 1.498115,0.0926 2.822975,0.6057 3.578125,1.51562 1.084308,1.30628 1.06288,1.73149 -0.126954,2.48438 -2.212589,1.40008 -7.554559,1.10552 -8.878906,-0.49024 -0.947905,-1.14213 -0.78367,-1.64575 0.8125,-2.5 1.445953,-0.77384 3.11712,-1.10237 4.615235,-1.00976 z m 4.43164,12.0625 c 0.347405,0.0143 0.64639,0.10732 0.8125,0.27343 0.332296,0.33245 -0.258352,0.56886 -1.3125,0.52539 -1.164964,-0.048 -1.401222,-0.28609 -0.603515,-0.60546 0.360945,-0.14438 0.756111,-0.20768 1.103515,-0.19336 z m -10.916015,0.008 c 0.453127,0 0.906252,0.0683 1.25,0.20703 0.687496,0.27727 0.124992,0.50391 -1.25,0.50391 -1.375106,0 -1.937496,-0.22649 -1.25,-0.50391 0.343748,-0.13871 0.796872,-0.20703 1.25,-0.20703 z m 46.90039,22.46094 c -0.614441,-0.0134 -1.230157,-0.0145 -1.845703,0.004 -4.476699,0.11867 -8.961635,1.02758 -13.138672,2.78516 -3.622371,1.52421 -10.916015,8.69398 -10.916015,10.73047 0,0.6079 -2.038967,-1.16182 -4.529297,-3.93164 -5.725229,-6.36783 -11.35659,-8.66152 -20.955078,-8.53907 -12.793511,0.16305 -22.152911,4.48797 -28.925781,13.36915 -3.5181,4.61303 -6.98946,14.78459 -5.96094,17.46484 0.29605,0.77148 1.84176,1.69103 3.43555,2.04101 3.87734,0.85161 10.6989,8.71247 11.56445,13.32618 0.45608,2.43114 0.0981,5.24579 -1.09375,8.60156 l -1.77148,4.98828 2.36718,1.48828 c 4.24362,2.66699 10.589412,9.77552 12.410161,13.90235 1.35961,3.08141 4.732497,6.35929 14.263672,13.85742 6.866154,5.40162 13.432137,10.5929 14.589844,11.53711 1.050904,0.85706 2.076406,1.38065 3.166015,1.56054 0.262309,0.0143 0.524831,0.0287 0.78711,0.0371 0.170685,0.007 0.341236,0.007 0.511719,0.01 2.208681,-0.17799 4.778401,-1.65802 8.347656,-4.60742 15.898061,-13.13726 19.524079,-16.80604 22.798828,-23.07227 3.014959,-5.76915 10.186254,-13.04128 14.169922,-14.36914 0.964361,-0.32149 0.935048,-1.63851 -0.132813,-6.08984 -2.292313,-9.55541 1.611186,-17.73018 10.0859379,-21.1211 l 4.1386719,-1.65429 -0.5800782,-4.88672 c -0.7224188,-6.09971 -3.8118979,-12.37641 -8.5449216,-17.35938 -6.025522,-6.34369 -15.02557,-9.87117 -24.242188,-10.07226 z m -0.921875,2.75586 c 13.728969,0.20516 28.2879103,9.20391 30.683594,23.96679 0.4908586,3.0248 0.2383294,3.48422 -2.5488281,4.63867 -4.4167519,1.82948 -9.8093969,8.2112 -11.1874999,13.24024 -0.847877,3.09403 -0.892895,5.71446 -0.164063,9.30664 0.856759,4.22264 0.767851,5.14115 -0.568359,5.9082 -4.1703,2.39407 -10.663041,9.57745 -13.201172,14.60547 -2.118697,4.19709 -5.124554,7.56459 -12.085937,13.53711 -5.09638,4.37246 -10.623198,8.96173 -12.28125,10.19922 -1.65806,1.23749 -3.313388,2.25 -3.677735,2.25 -0.935546,0 -13.090743,-9.14337 -21.783203,-16.38672 -4.626293,-3.85508 -8.204755,-7.81447 -9.693359,-10.7207 -1.298041,-2.53418 -4.645169,-6.66133 -7.437499,-9.17188 l -5.07813,-4.56445 1.02735,-4.57813 c 2.09881,-9.36517 -2.26219,-18.79633 -10.55274,-22.82421 -3.84582,-1.86857 -4.30586,-2.43576 -3.79687,-4.68946 2.30857,-10.22226 10.75649,-18.90986 21.585936,-22.19922 12.837937,-3.89937 23.65421,-1.0242 30.597656,8.13477 1.876309,2.47499 3.922497,4.61772 4.546875,4.76172 0.624378,0.14415 2.169361,-1.55424 3.431641,-3.77539 4.414523,-7.76805 12.395881,-11.40461 20.857421,-11.63086 0.440706,-0.0118 0.883302,-0.0102 1.326172,-0.008 z m 20.908203,64.65234 c -5.634009,0 -8.40511,8.54336 -3.943359,12.15625 2.662991,2.15637 3.433966,2.24129 6.371094,0.69531 2.959891,-1.55799 3.65178,-2.79181 3.669922,-6.54492 0.01605,-3.34821 -2.845018,-6.30664 -6.097657,-6.30664 z m 17.6132816,0 c 4.3927296,0 6.3112328,5.95961 2.5644532,7.96484 -3.85474021,2.06298 -7.0644532,0.48836 -7.0644532,-3.46484 0,-2.68048 1.8195424,-4.5 4.5,-4.5 z m -114.6777356,0.31836 c -1.11488,0.0416 -2.28662,0.4114 -3.42969,1.16015 -3.02007,1.97885 -3.44007,8.81202 -0.64257,10.44141 4.63952,2.70225 10.25,0.20832 10.25,-4.55664 0,-4.34801 -2.8331,-7.1697 -6.17774,-7.04492 z m -17.81641,1.2793 c 3.6148,-0.11662 6.40132,4.18884 3.42774,7.47461 -2.19262,2.42279 -4.6442,2.45886 -6.7793,0.0996 -2.32494,-2.56902 -2.06029,-4.85944 0.77735,-6.71875 0.86176,-0.56464 1.74025,-0.82855 2.57421,-0.85546 z m 115.048833,1.63085 c 0.08642,8e-4 0.166122,0.0131 0.238281,0.0371 2.100465,0.70016 3.254507,3.64132 2.128907,5.42579 -0.586481,0.92976 -1.544535,1.85027 -2.128907,2.04492 -1.154547,0.38487 -4.292968,-2.34732 -4.292968,-3.73633 0,-1.30217 2.75839,-3.78324 4.054687,-3.77149 z m -97.597653,0.16797 c 1.76941,-0.11218 3.54297,1.60484 3.54297,3.69141 0,1.01333 -0.87396,2.30958 -1.94141,2.88086 -1.55675,0.83316 -2.23572,0.61901 -3.42578,-1.08008 -1.66364,-2.37521 -1.24866,-4.43827 1.07031,-5.32812 0.24742,-0.095 0.50113,-0.14804 0.75391,-0.16407 z m 129.052731,8.16407 c 1.075924,0.01 2.153645,0.5457 2.822266,1.60546 0.762716,1.20915 0.690209,2.10087 -0.263672,3.25 -2.885851,3.47725 -7.7560509,0.48325 -5.369141,-3.30078 0.660866,-1.04766 1.734623,-1.56464 2.810547,-1.55468 z m -159.791011,2.07812 c 2.72478,0.1536 4.51278,3.72937 2.08007,6.16211 -0.66002,0.66002 -1.6938,1.19922 -2.29882,1.19922 -3.31091,0 -4.66963,-5.24687 -1.77735,-6.86523 0.6882,-0.38514 1.3673,-0.53154 1.9961,-0.4961 z m -7.62305,0.38086 c 0.0749,-0.006 0.35364,0.41988 0.89844,1.26953 0.63178,0.98321 0.92491,2.33322 0.65429,3 -0.35497,0.87511 -0.51324,0.88549 -0.57031,0.043 -0.0434,-0.64252 -0.33795,-1.99249 -0.6543,-3 -0.27352,-0.87067 -0.403,-1.3067 -0.32812,-1.3125 z m 148.003905,0.66992 c 1.1352504,-0.0107 2.2668268,0.12532 3.36914062,0.42969 7.63836638,2.10905 12.15576438,8.63462 11.29101538,16.30664 -0.607692,5.3915 -3.6122773,9.80142 -8.1425779,11.95117 -10.5125964,4.98856 -22.6122741,-2.05966 -22.6171871,-13.17578 -0.0038,-8.1053 8.152856,-15.4366 16.099609,-15.51172 z m -119.628905,1.47461 c 0.99176,-0.01 1.99166,0.0767 2.98828,0.26367 4.84683,0.90928 11.199,7.23908 12.10352,12.06055 0.99035,5.2789 -1.76531,11.69992 -6.35547,14.81055 -9.00529,6.10257 -20.04868,2.92474 -23.7793,-6.84375 -1.47564,-3.86385 -1.54509,-5.1204 -0.48633,-8.6543 2.05387,-6.85513 8.58694,-11.56794 15.5293,-11.63672 z m 147.066405,2.06836 c 0.0518,0.0404 0.108384,0.20821 0.167969,0.51758 0.238375,1.23749 0.238375,3.26251 0,4.5 -0.238345,1.23753 -0.433594,0.22499 -0.433594,-2.25 0,-1.85615 0.110224,-2.88884 0.265625,-2.76758 z M -152.96289,606.125 c 0.0603,0.0225 0.12791,0.11523 0.19727,0.28711 0.27719,0.6875 0.27719,1.8125 0,2.5 -0.27723,0.6875 -0.50586,0.12503 -0.50586,-1.25 0,-1.0313 0.12772,-1.60452 0.30859,-1.53711 z m 168.343749,21.53711 c 0.275003,0 -0.3131,0.90001 -1.308593,2 -0.99549,1.09999 -2.035549,2 -2.310547,2 -0.274999,0 0.315057,-0.90001 1.310547,-2 0.995489,-1.09999 2.033595,-2 2.308593,-2 z m -84.892578,6.12305 c 0.347405,0.0143 0.64639,0.10732 0.8125,0.27343 0.332296,0.33249 -0.258352,0.56886 -1.3125,0.52539 -1.164964,-0.048 -1.401222,-0.28609 -0.603515,-0.60546 0.360945,-0.14438 0.756111,-0.20768 1.103515,-0.19336 z m 72.0000002,3 c 0.3473967,0.0143 0.6463542,0.10732 0.8125,0.27343 0.3322923,0.33211 -0.2583368,0.56886 -1.3125,0.52539 -1.16494729,-0.048 -1.40124446,-0.28609 -0.6035156,-0.60546 0.3609355,-0.14438 0.7561212,-0.20768 1.1035156,-0.19336 z"
           inkscape:connector-curvature="0" />
        <path
           style="opacity:1;fill:#000000;fill-opacity:1;stroke:#000000;stroke-width:0.41407293;stroke-miterlimit:4;stroke-dasharray:none;stroke-dashoffset:0;stroke-opacity:1"
           id="path4911"
           d="m -39.812457,158.00827 c -0.01132,0.1289 -0.03252,0.25543 -0.05899,0.38194 -0.01902,0.0882 -0.02442,0.17816 -0.02748,0.26802 -0.0013,0.0983 -0.025,0.19445 -0.03668,0.29183 -0.004,0.0949 -0.02172,0.18788 -0.05363,0.27723 -0.02432,0.0681 -0.05158,0.13521 -0.07466,0.20379 -0.01331,0.0747 -0.03072,0.14802 -0.04917,0.22172 -0.0196,0.0826 -0.04489,0.16309 -0.0578,0.24724 -0.02302,0.0787 -0.04332,0.15698 -0.05244,0.23853 -0.0056,0.0829 -0.03177,0.16216 -0.04342,0.24426 -0.0043,0.0922 -0.02684,0.18171 -0.04139,0.2725 -0.01291,0.0883 -0.01519,0.17763 -0.0168,0.26671 -0.0011,0.0938 -7.94e-4,0.18756 -7.94e-4,0.28134 0.0053,0.0129 0.0028,0.0735 0.02328,0.0696 0.101812,0.13243 -0.08547,0.27642 -0.187285,0.14399 v 0 c -0.0446,-0.0666 -0.0701,-0.13185 -0.07224,-0.21328 -1.27e-4,-0.0953 -5.29e-4,-0.19067 7.94e-4,-0.286 0.0019,-0.10022 0.0048,-0.20069 0.01976,-0.29997 0.01453,-0.0896 0.03667,-0.1778 0.04082,-0.26881 0.01177,-0.0798 0.03565,-0.15709 0.04252,-0.23732 0.0099,-0.0845 0.02646,-0.16739 0.05374,-0.24812 0.01453,-0.0912 0.04021,-0.17888 0.06209,-0.26829 0.02024,-0.0802 0.03689,-0.16015 0.05486,-0.24086 0.02474,-0.071 0.05231,-0.14069 0.07748,-0.21153 0.03124,-0.0686 0.03202,-0.14765 0.03971,-0.22114 0.01106,-0.0907 0.03278,-0.18024 0.03511,-0.27156 0.0036,-0.10338 0.01045,-0.20687 0.03235,-0.30827 0.02545,-0.12159 0.0456,-0.24302 0.05636,-0.36696 0.02363,-0.16536 0.257484,-0.13195 0.23386,0.0334 z"
           inkscape:connector-curvature="0" />
        <path
           style="opacity:1;fill:#000000;fill-opacity:1;stroke:#000000;stroke-width:0.41407293;stroke-miterlimit:4;stroke-dasharray:none;stroke-dashoffset:0;stroke-opacity:1"
           id="path4913"
           d="m -39.800376,159.36597 c 0.03151,0.10274 0.0718,0.20278 0.115901,0.30074 0.03971,0.066 0.08255,0.12969 0.125706,0.19341 0.06552,0.10261 0.02898,0.2576 -0.115986,0.25542 -0.02125,-2.6e-4 -0.04177,-0.008 -0.06265,-0.0116 -0.06884,-0.0266 -0.130966,-0.069 -0.194252,-0.1068 -0.05752,-0.0251 -0.109101,-0.0642 -0.168087,-0.0861 -0.05359,-0.0242 0.0376,0.0191 0.06264,-5.3e-4 0.133533,-0.10441 0.03353,-0.21012 0.123592,-0.0839 0.0477,0.062 0.101754,0.11823 0.153403,0.17679 0.02461,0.0215 0.04783,0.0439 0.07013,0.0678 0.111525,0.12435 -0.06434,0.28208 -0.175871,0.15772 v 0 c -0.02082,-0.0265 -0.05107,-0.0435 -0.07216,-0.0701 -0.05614,-0.0652 -0.1168,-0.12642 -0.168267,-0.19565 -0.01669,-0.0238 -0.08481,-0.0932 -0.07858,-0.12188 0.02561,-0.11798 0.05925,-0.20117 0.178398,-0.14732 0.06715,0.0303 0.130874,0.067 0.196403,0.10055 0.0466,0.0281 0.09331,0.0585 0.140417,0.083 -0.05156,0.006 -0.122653,0.0755 -0.08152,0.12626 0.0026,0.003 -0.0024,-0.008 -0.0034,-0.0116 -0.0504,-0.075 -0.101732,-0.1493 -0.145325,-0.22861 -0.04737,-0.10521 -0.09032,-0.21282 -0.124606,-0.32302 -0.05282,-0.15847 0.171289,-0.23317 0.224113,-0.0747 z"
           inkscape:connector-curvature="0" />
        <path
           style="opacity:1;fill:#000000;fill-opacity:1;stroke:#000000;stroke-width:0.41407293;stroke-miterlimit:4;stroke-dasharray:none;stroke-dashoffset:0;stroke-opacity:1"
           id="path4915"
           d="m -19.242876,167.61402 c 0.106264,0.007 0.210269,-0.0129 0.31493,-0.0273 0.100263,-0.0137 0.201439,-0.0172 0.302486,-0.0193 0.09925,-0.003 0.197162,-0.004 0.294869,0.0148 0.08608,0.0134 0.168354,0.0422 0.253544,0.0596 0.07598,0.0272 0.152069,0.0489 0.232189,0.0587 0.08663,0.008 0.173757,0.008 0.260687,0.008 0.09431,9e-5 0.188621,-2.1e-4 0.282931,-2.7e-4 0.06308,-9e-5 0.126159,-1.2e-4 0.189239,-1.4e-4 0.167044,-8e-5 0.167143,0.23616 10e-5,0.23623 v 0 c -0.06299,3e-5 -0.125986,6e-5 -0.188979,1.5e-4 -0.09476,1.4e-4 -0.189516,5.3e-4 -0.284275,2.6e-4 -0.09649,-5.3e-4 -0.193201,-5.3e-4 -0.289294,-0.0103 -0.08589,-0.0111 -0.16994,-0.0295 -0.250628,-0.0618 -0.08456,-0.0177 -0.166349,-0.0454 -0.251708,-0.0592 -0.08059,-0.0166 -0.161945,-0.0111 -0.244001,-0.0103 -0.09179,0.002 -0.183719,0.005 -0.274814,0.0171 -0.115301,0.0159 -0.230267,0.037 -0.347276,0.0296 -0.167044,0 -0.167044,-0.23624 0,-0.23624 z"
           inkscape:connector-curvature="0" />
        <path
           style="opacity:1;fill:#000000;fill-opacity:1;stroke:#000000;stroke-width:0.41407293;stroke-miterlimit:4;stroke-dasharray:none;stroke-dashoffset:0;stroke-opacity:1"
           id="path4917"
           d="m 0.15623201,168.60217 c 0.11219034,-0.0369 0.23059771,-0.0486 0.34423979,-0.0786 0.0853982,-0.0339 0.17935546,-0.0334 0.26674292,-0.0568 0.0727946,-0.0147 0.14185468,-0.0386 0.21241109,-0.0608 0.072778,-0.0185 0.14236019,-0.0482 0.21254879,-0.0749 0.067811,-0.0342 0.1339858,-0.0718 0.2032982,-0.103 0.00676,-0.004 0.013529,-0.008 0.020293,-0.0122 0.1452653,-0.0825 0.2618973,0.12297 0.116632,0.20544 v 0 c -0.013963,0.008 -0.027927,0.0154 -0.04189,0.0231 -0.073603,0.0311 -0.1413873,0.0751 -0.2144972,0.10757 -0.074541,0.0282 -0.1487214,0.0592 -0.2258279,0.0795 -0.075867,0.0235 -0.15058513,0.0489 -0.22851641,0.0653 -0.0875057,0.0194 -0.17781039,0.0255 -0.2630158,0.0559 -0.12058452,0.0298 -0.24432982,0.0465 -0.36358195,0.0826 -0.16477064,0.0275 -0.20360746,-0.20556 -0.0388368,-0.23302 z"
           inkscape:connector-curvature="0" />
        <path
           style="opacity:1;fill:#000000;fill-opacity:1;stroke:#000000;stroke-width:0.41407293;stroke-miterlimit:4;stroke-dasharray:none;stroke-dashoffset:0;stroke-opacity:1"
           id="path4919"
           d="m 2.9782799,166.90859 c 0.092628,-0.0704 0.1877097,-0.13686 0.2855163,-0.19994 0.059581,-0.041 0.1117931,-0.0889 0.1552631,-0.14686 0.050222,-0.0647 0.1066832,-0.12403 0.1593072,-0.18663 0.046552,-0.0514 0.099259,-0.0971 0.1453089,-0.14887 0.049709,-0.0413 0.088467,-0.0902 0.1270016,-0.1411 0.038386,-0.0583 0.086058,-0.10951 0.1299625,-0.16363 0.045236,-0.0727 0.1022636,-0.13564 0.1633165,-0.19515 0.013785,-0.0109 0.02757,-0.0217 0.041355,-0.0326 0.1328325,-0.10129 0.2760742,0.0866 0.1432418,0.18786 v 0 c -0.00662,0.005 -0.01324,0.009 -0.019862,0.0141 -0.054725,0.0531 -0.1041154,0.10964 -0.1446012,0.17467 -0.04259,0.0525 -0.089111,0.10171 -0.1259379,0.15852 -0.043535,0.0557 -0.085629,0.11166 -0.1405274,0.15721 -0.045434,0.0486 -0.093627,0.0944 -0.1395859,0.14241 -0.051043,0.0592 -0.1039366,0.11658 -0.1523331,0.17806 -0.06146,0.0777 -0.1313947,0.14581 -0.2141855,0.20079 -0.091176,0.0584 -0.1794624,0.12026 -0.2656655,0.18568 -0.130439,0.10435 -0.2780138,-0.0801 -0.1475748,-0.18447 z"
           inkscape:connector-curvature="0" />
        <path
           style="opacity:1;fill:#000000;fill-opacity:1;stroke:#000000;stroke-width:0.41407293;stroke-miterlimit:4;stroke-dasharray:none;stroke-dashoffset:0;stroke-opacity:1"
           id="path4921"
           d="m 6.0280398,159.85638 c 0.020161,0.12327 0.030711,0.24777 0.037703,0.3724 -0.00198,0.0995 0.00923,0.19616 0.025588,0.29389 0.017105,0.099 0.022527,0.19937 0.025646,0.29963 0.00217,0.0956 0.00188,0.19124 0.00183,0.28686 0.016055,0.077 0.029588,0.15425 0.037795,0.23255 2.91e-4,0.0823 0.011316,0.161 0.028198,0.24111 0.00915,0.0796 0.025429,0.15621 0.044704,0.23378 0.00303,0.0148 0.00605,0.0295 0.00908,0.0443 0.033147,0.16372 -0.1983907,0.2106 -0.2315374,0.0469 v 0 c -0.00228,-0.0114 -0.00456,-0.0229 -0.00683,-0.0343 -0.019817,-0.0801 -0.037339,-0.15977 -0.04657,-0.24192 -0.018537,-0.088 -0.031412,-0.17538 -0.032024,-0.26555 -0.00877,-0.0865 -0.029135,-0.1707 -0.039045,-0.25699 6.73e-5,-0.0931 3.44e-4,-0.18629 -0.00172,-0.27941 -0.00273,-0.0896 -0.00723,-0.17938 -0.022513,-0.26791 -0.017772,-0.10616 -0.029993,-0.21181 -0.028463,-0.31973 -0.00644,-0.11603 -0.016171,-0.23194 -0.034856,-0.34672 -0.027462,-0.16477 0.2055593,-0.20361 0.2330209,-0.0388 z"
           inkscape:connector-curvature="0" />
        <path
           style="opacity:1;fill:#000000;fill-opacity:1;stroke:#000000;stroke-width:0.41407293;stroke-miterlimit:4;stroke-dasharray:none;stroke-dashoffset:0;stroke-opacity:1"
           id="path4923"
           d="m -2.3819302,124.75184 c 0.020161,0.12328 0.030711,0.24777 0.037703,0.3724 -0.00378,0.11314 -0.018948,0.22548 -0.051326,0.33395 -0.019805,0.0819 -0.048383,0.1613 -0.065805,0.24385 -0.00709,0.085 -0.033393,0.16615 -0.049686,0.24946 -0.013502,0.0808 -0.014929,0.16297 -0.016395,0.2447 0.00536,0.1013 -0.00698,0.20031 -0.023552,0.29992 -0.015191,0.0886 -0.019717,0.17835 -0.02249,0.26801 -0.00211,0.0932 -0.00184,0.1865 -0.00178,0.27975 -0.00991,0.0863 -0.030276,0.17049 -0.03905,0.257 -0.017708,0.10397 -0.050303,0.20543 -0.090184,0.30288 -0.015259,0.0397 -0.040524,0.08 -0.037726,0.12368 -0.013118,0.16652 -0.2486228,0.14797 -0.2355056,-0.0186 v 0 c 0.00812,-0.0693 0.023347,-0.13435 0.055595,-0.19701 0.033279,-0.0748 0.054949,-0.15557 0.072836,-0.23527 0.00821,-0.0783 0.021746,-0.15552 0.0378,-0.23258 -5.98e-5,-0.0958 -3.175e-4,-0.19154 0.00191,-0.28728 0.00316,-0.10018 0.0086,-0.20045 0.02558,-0.29941 0.014711,-0.0884 0.026183,-0.17536 0.020386,-0.26542 0.00175,-0.0957 0.00405,-0.19191 0.020881,-0.28643 0.016997,-0.0846 0.042892,-0.16678 0.050438,-0.2531 0.019328,-0.0887 0.04855,-0.17427 0.070531,-0.26222 0.02494,-0.0822 0.035414,-0.16705 0.04169,-0.25276 -0.00644,-0.11603 -0.01617,-0.23195 -0.034856,-0.34673 -0.027462,-0.16477 0.2055591,-0.20361 0.2330209,-0.0388 z"
           inkscape:connector-curvature="0" />
        <path
           style="opacity:1;fill:#000000;fill-opacity:1;stroke:#000000;stroke-width:0.41407293;stroke-miterlimit:4;stroke-dasharray:none;stroke-dashoffset:0;stroke-opacity:1"
           id="path4925"
           d="m -19.459693,131.19383 c 0.114784,0.0187 0.230697,0.0284 0.346728,0.0349 0.07181,-0.006 0.142221,-0.0173 0.210279,-0.0405 0.07586,-0.0187 0.142202,-0.0596 0.212672,-0.0914 0.109673,-0.0532 0.0909,-0.032 0.140327,0.19788 0.0029,0.0134 -0.02461,0.0122 -0.03644,0.0191 -0.01603,0.009 -0.03079,0.0208 -0.04661,0.0306 -0.08836,0.0509 -0.181924,0.0853 -0.281418,0.1063 -0.100687,0.0177 -0.203147,0.0189 -0.305062,0.0199 -0.101063,0.002 -0.19998,-0.0231 -0.299862,-0.0355 -0.06665,-0.003 -0.131941,-0.0136 -0.197314,-0.0265 -0.163877,-0.0324 -0.118101,-0.26412 0.04578,-0.23175 v 0 c 0.05998,0.0119 0.119516,0.021 0.180763,0.0238 0.08941,0.0112 0.178058,0.0335 0.268221,0.0337 0.08675,-7.9e-4 0.173961,-0.001 0.259845,-0.0151 0.07307,-0.0144 0.140562,-0.0399 0.20568,-0.0764 0.01532,-0.009 0.07442,-0.0479 0.07609,-0.0453 0.136805,0.21433 0.179148,0.17008 0.08604,0.21499 -0.07745,0.0337 -0.149933,0.0793 -0.23308,0.0993 -0.09655,0.0324 -0.197137,0.0494 -0.299067,0.0525 -0.124626,-0.007 -0.249122,-0.0175 -0.372398,-0.0377 -0.16477,-0.0275 -0.125934,-0.26048 0.03884,-0.23302 z"
           inkscape:connector-curvature="0" />
        <path
           style="opacity:1;fill:#000000;fill-opacity:1;stroke:#000000;stroke-width:0.41407293;stroke-miterlimit:4;stroke-dasharray:none;stroke-dashoffset:0;stroke-opacity:1"
           id="path4927"
           d="m -22.172192,131.18657 c 0.114555,-10e-4 0.225972,-0.0257 0.340913,-0.0206 0.0944,0.006 0.253599,0.14039 0.04138,0.24328 -0.02742,0.0133 -0.03998,0.0162 -0.07018,0.0263 -0.07991,0.0139 -0.156008,0.0412 -0.23511,0.0588 -0.09208,0.007 -0.186279,-0.005 -0.276098,-0.0253 -0.0763,-0.0178 -0.149472,-0.0443 -0.223967,-0.068 -0.06933,-0.0247 -0.129953,-0.0623 -0.192061,-0.0998 0.03612,-0.0699 0.06132,-0.14668 0.108355,-0.20979 0.0082,-0.011 0.02624,0.008 0.03932,0.0116 0.04792,0.0144 0.09312,0.0362 0.140662,0.0519 0.07512,0.0217 0.146033,0.0524 0.223336,0.0662 0.08596,0.0254 0.173092,0.0431 0.262184,0.0522 0.05343,0.004 0.02894,0.005 0.07351,-2.7e-4 0.166618,-0.0119 0.183468,0.22373 0.01685,0.23564 v 0 c -0.08113,0.004 -0.04282,0.005 -0.114945,-2.6e-4 -0.09517,-0.0101 -0.189169,-0.0267 -0.280818,-0.0549 -0.08811,-0.0169 -0.170271,-0.0483 -0.255573,-0.0746 -0.03677,-0.0126 -0.07173,-0.0283 -0.107995,-0.0417 -0.106074,-0.0393 -0.05273,0.0206 0.02922,-0.23037 0.04025,0.0286 0.0842,0.0484 0.130387,0.0694 0.06968,0.0226 0.137769,0.0475 0.209442,0.0638 0.05368,0.0168 0.112379,0.0136 0.167666,0.0235 0.07177,-0.0154 0.140545,-0.042 0.213291,-0.0529 0.0374,-0.0111 0.07278,-0.0298 0.07274,-0.0288 -0.01144,0.2412 -0.113973,0.14486 0.02319,0.22199 0.0021,0.001 -0.0047,-10e-4 -0.007,-0.002 -0.110421,-0.007 -0.218106,0.0259 -0.3287,0.021 -0.167043,0 -0.167043,-0.23623 0,-0.23623 z"
           inkscape:connector-curvature="0" />
        <path
           style="opacity:1;fill:#000000;fill-opacity:1;stroke:#000000;stroke-width:0.41407293;stroke-miterlimit:4;stroke-dasharray:none;stroke-dashoffset:0;stroke-opacity:1"
           id="path4929"
           d="m -33.092495,115.16069 c 0.02069,0.12091 0.05177,0.2395 0.07073,0.36087 0.01056,0.0924 0.03865,0.18102 0.05285,0.27294 0.0019,0.0815 0.02548,0.15869 0.04072,0.2381 0.01447,0.0825 0.01214,0.16579 0.03081,0.24737 0.01527,0.0921 0.04135,0.18109 0.07034,0.26963 0.02814,0.095 0.06736,0.18817 0.113363,0.27593 0.03047,0.0406 -0.0034,-0.0147 -0.01437,-0.0102 -0.183902,0.0747 -0.160182,0.14465 -0.168281,0.031 -0.0264,-0.0885 -0.03628,-0.18023 -0.05269,-0.27069 -0.02466,-0.14703 -0.06588,-0.29041 -0.100428,-0.43524 -0.03023,-0.11362 -0.0685,-0.22473 -0.101338,-0.33754 -0.02652,-0.0957 -0.0327,-0.19515 -0.0377,-0.29384 -0.0083,-0.16684 0.2276,-0.17863 0.235939,-0.0118 v 0 c 0.004,0.0804 0.0079,0.16168 0.02867,0.2399 0.03357,0.11652 0.0737,0.23106 0.104238,0.34853 0.0355,0.14919 0.07796,0.29688 0.103163,0.44837 0.01749,0.0988 0.03194,0.19794 0.05579,0.29557 1.03e-4,0.002 0.0053,0.072 0.0044,0.0729 -0.150773,0.15446 -0.172215,0.17322 -0.267867,0.0303 -0.04991,-0.0996 -0.09645,-0.2026 -0.127434,-0.30977 -0.03131,-0.0956 -0.05939,-0.19194 -0.07632,-0.29133 -0.01873,-0.0845 -0.02148,-0.16952 -0.03241,-0.2551 -0.0154,-0.0821 -0.03993,-0.16251 -0.04219,-0.24668 -0.01363,-0.0917 -0.04361,-0.17983 -0.05274,-0.2722 -0.01855,-0.12052 -0.05051,-0.23807 -0.07031,-0.35826 -0.02746,-0.16477 0.20556,-0.20361 0.233021,-0.0388 z"
           inkscape:connector-curvature="0" />
      </g>
    </g>
  </g>
</svg>
