<?xml version="1.0" encoding="UTF-8"?>
<svg viewBox="0 0 298.78107 411.28503" xmlns="http://www.w3.org/2000/svg" xmlns:xlink="http://www.w3.org/1999/xlink">
 <defs>
  <filter id="e">
   <feGaussianBlur stdDeviation="2.81443"/>
  </filter>
  <filter id="r">
   <feGaussianBlur stdDeviation=".17529"/>
  </filter>
  <filter id="b" x="-.32308" y="-.04871" width="1.6462" height="1.0974">
   <feGaussianBlur stdDeviation="6.0008"/>
  </filter>
  <filter id="v" x="-.1465" y="-.06336" width="1.293" height="1.1267">
   <feGaussianBlur stdDeviation="3.03276"/>
  </filter>
  <filter id="u" x="-.10395" y="-.05634" width="1.2079" height="1.1127">
   <feGaussianBlur stdDeviation="2.69061"/>
  </filter>
  <filter id="t" x="-.05458" y="-.28169" width="1.1092" height="1.5634">
   <feGaussianBlur stdDeviation="5.42513"/>
  </filter>
  <filter id="s" x="-.03718" y="-.17849" width="1.0744" height="1.357">
   <feGaussianBlur stdDeviation="3.09437"/>
  </filter>
  <linearGradient id="d">
   <stop stop-color="#fd5" offset="0"/>
   <stop stop-color="#ffd42a" stop-opacity="0" offset="1"/>
  </linearGradient>
  <linearGradient id="a">
   <stop stop-color="#fe914f" offset="0"/>
   <stop stop-color="#ed2713" offset=".35461"/>
   <stop stop-color="#9e0000" offset="1"/>
  </linearGradient>
  <linearGradient id="c">
   <stop stop-color="#fff" offset="0"/>
   <stop stop-color="#fff" stop-opacity="0" offset="1"/>
  </linearGradient>
  <linearGradient id="m" x1="176.29" x2="192.2" y1="118.75" y2="117.87" gradientUnits="userSpaceOnUse">
   <stop stop-color="#008000" offset="0"/>
   <stop stop-color="#002b00" offset="1"/>
  </linearGradient>
  <linearGradient id="l" x1="279.66" x2="293.65" y1="247.96" y2="248.35" gradientUnits="userSpaceOnUse">
   <stop stop-color="#fe914f" offset="0"/>
   <stop stop-color="#ed2713" offset=".35461"/>
   <stop stop-color="#f60" offset="1"/>
  </linearGradient>
  <linearGradient id="q" x1="76.696" x2="144.32" y1="277.98" y2="263.14" gradientUnits="userSpaceOnUse" xlink:href="#c"/>
  <linearGradient id="p" x1="178.96" x2="219.37" y1="276.34" y2="275.51" gradientUnits="userSpaceOnUse" xlink:href="#c"/>
  <linearGradient id="o" x1="177.31" x2="214.46" gradientUnits="userSpaceOnUse" xlink:href="#d"/>
  <linearGradient id="n" x1="68.003" x2="110.02" y1="277.24" y2="272.26" gradientUnits="userSpaceOnUse" xlink:href="#d"/>
  <radialGradient id="k" cx="88.696" cy="248.96" r="73.75" gradientTransform="matrix(-1.2604 .087358 -.16849 -2.431 252.16 809.17)" gradientUnits="userSpaceOnUse" xlink:href="#a"/>
  <radialGradient id="j" cx="-22.376" cy="282.62" r="73.75" gradientTransform="matrix(.086877 -.34887 .35342 .088011 102.12 104)" gradientUnits="userSpaceOnUse" xlink:href="#a"/>
  <radialGradient id="i" cx="101.54" cy="272.68" r="73.75" gradientTransform="matrix(.5931 .43555 -.85909 1.1164 253.54 -199.02)" gradientUnits="userSpaceOnUse" xlink:href="#a"/>
  <radialGradient id="h" cx="-11.988" cy="237.11" r="73.75" gradientTransform="matrix(-.83945 -.075743 .21441 -2.3763 156.66 785.55)" gradientUnits="userSpaceOnUse" xlink:href="#a"/>
  <radialGradient id="g" cx="130.99" cy="225.12" r="73.75" gradientTransform="matrix(.50755 -.049872 .027034 .27513 177.98 78.775)" gradientUnits="userSpaceOnUse" xlink:href="#a"/>
  <radialGradient id="f" cx="39.704" cy="284.14" r="73.75" gradientTransform="matrix(.046672 -.25794 .58642 .10611 -16.256 120.67)" gradientUnits="userSpaceOnUse" xlink:href="#a"/>
 </defs>
 <g transform="translate(-31.354 -30.605)">
  <path transform="matrix(1.004 .024256 -.11735 1.1166 27.563 -48.831)" d="m134.88 414.63c-10.211-0.82302-32.554-6.1383-38.608-13.348-2.5604-10.814 11.567-11.738 18.904-12.793 9.133-1.2764 17.85-4.7433 27.197-4.1926 18.056-0.00405 36.135 0.42356 54.143-1.2564 21.683-0.85855 43.414-0.78441 65.098-0.31741 9.5799 1.1735 18.813 4.8854 26.328 10.914 7.1814 2.9625 9.1606 12.12 0.76463 14.969-6.6928 4.301-18.684 3.9821-26.693 5.2151-7.082 3.0912-9.3393 5.5818-16.671 4.9511-26.548 0.52724-47.993-10.75-84.858 3.5321-15.811-0.15003-18.811-4.7665-34.584-5.2894-1.1777-0.05518 10.121-3.9611 8.9803-2.3845z" fill-rule="evenodd" filter="url(#t)"/>
  <path d="m168.73 123.06c-0.12021 0.07251-0.50856 0.31894-0.50856 0.31894l-15.057-1.7332c-34.016-2.1982-35.518 6.861-44.171 13.443l41.388 13.194 24.351-3.5826-6.0022-21.641z" fill="url(#f)" fill-rule="evenodd"/>
  <path transform="matrix(.99344 .11435 -.11435 .99344 28.359 -18.14)" d="m100.88 170.07s-20.993 3.4988-22.742 13.995-6.9977 54.232-5.8314 64.145 3.4988 20.41 6.9977 35.571 4.6651 13.412 9.3302 30.906 6.9977 15.162 13.995 29.157 19.827 53.066 22.742 56.564 12.246 15.162 19.244 13.995 23.326 6.4145 14.578-4.6651-5.8314-12.829-16.328-32.656-3.4988-5.2482-13.995-23.326-12.829-13.995-9.9134-25.075 8.7471 1.1663-2.3326-17.494-22.159-16.328-9.9134-26.241 26.824-15.162 20.993-30.906-6.4145-36.155-9.9134-46.068-24.492-2.9157-25.658-8.7471-12.246-2.9157 7.5808-6.9977 24.492-1.7494 25.075-11.08-8.7471-15.162-11.08-15.162-11.663 4.082-12.829 4.082z" fill="url(#q)" fill-rule="evenodd" filter="url(#e)" opacity=".38462"/>
  <path transform="matrix(.99344 .11435 -.11435 .99344 28.359 -18.14)" d="m188.94 158.41c-2.3326 0.58314-15.745 11.08-14.578 19.244s-1.1663 20.41-1.7494 24.492-0.58313 6.4145 0 12.246 2.9157 8.7471 1.1663 16.328-1.7494 11.08-1.1663 17.494 1.7494 9.9134 1.7494 19.244 5.2482 18.077 5.2482 18.077-5.2482 2.3326-4.6651 8.164 1.7494 12.246 2.3326 16.328 5.2482 18.66 6.9977 26.241 4.082 11.663 5.8314 23.909 5.2482 21.576 5.2482 27.991-5.8314 11.663 0.58314 12.829 9.9134 1.1663 14.578 3.4988 12.246 10.497 17.494 7.5808 14.578-0.58314 6.9977-8.1639-7.5808-8.7471-7.5808-24.492 1.1663-9.3302-4.6651-28.574-9.3302-25.075-7.5808-30.323 7.5808-7.5808-0.58314-16.328-22.159-13.995-18.66-20.993 8.1639-12.246 8.7471-15.745-13.995-28.574-13.995-28.574 0.58314-14.578 0.58314-20.993-5.8314-17.494-2.9157-22.742 15.162-25.075 15.162-25.075l27.991-15.162-33.822-1.7494-8.7471 5.2482z" fill="url(#p)" fill-rule="evenodd" filter="url(#e)" opacity=".38462"/>
  <path d="m259.07 119.74c-9.1032-0.99608-17.742 0.53843-23.5 4.9388 0 0-0.36793-0.88-1.0823-2.0749-4.7355 1.9459-29.878 12.605-34.217 19.823-4.9329 8.2064 16.773 8.7446 16.773 8.7446l53.553 6.1644 23.952 27.482 9.1046 67.106c5.1469-27.155 10.633-56.572 10.964-59.449 0.60015-5.2138 2.4884-21.452-2.5046-29.071s-12.659-22.587-20.816-28.222c-8.055-8.735-20.523-14.162-32.227-15.443z" fill="url(#g)" fill-rule="evenodd"/>
  <path d="m253.73 145.96c-16.41-1.9104-23.86 0.63483-40.845 0.67736-18.118 0.04537-26.607 4.3893-33.763 11.024s-4.0015 11.807-4.0015 11.807l-0.44067 8.474-3.1421 50.252s-4.1316 73.024-6.6357 85.521-1.5575 27.521-0.52489 32.434c0.99705 4.7443 12.249 56.947 13.054 60.672 1.0717-0.52051 1.9815-0.69104 3.9521-0.17421 26.112 16.667 41.663 18.075 70.895-1.0666 24.606-38.11 33.719-65.668 42.696-108.54 0.67469-2.9444 6.6639-34.301 11.91-62.202 0.61384-13.365 1.0723-25.177 0.98543-29.33-0.24584-11.748-6.2434-33.728-13.241-37.73s-18.623-18.66-37.49-21.365c-1.1792-0.16904-2.3138-0.32782-3.4078-0.45518z" fill="url(#h)" fill-rule="evenodd"/>
  <path d="m111.54 135.63s-9.5758-2.8526-18.329-1.5122-34.729 1.4594-48.025 33.792c-4.6938 11.414-6.1108 31.228-1.0274 51.533 1.4531 5.8043 5.7084 20.137 11.163 37.994l14.245-2.7956 4.1248-79.299 43.156-19.757 30.439-8.7956c-8.7733-4.0058-22.436-11.041-35.746-11.161z" fill="url(#i)" fill-rule="evenodd"/>
  <path d="m207.72 110.87c-4.3999-0.49959-9.6941-0.51762-16.411 0.47013-3.2636 0.4799-15.412 6.4473-17.996 8.4978s-5.0938 3.5344-5.0938 3.5344l-0.46568-0.0536 17.776 31.395 49.819-30.535c-0.72759-1.6252-3.6593-7.1917-10.449-8.9725-4.9856-1.3076-9.846-3.5041-17.179-4.3367z" fill="url(#j)" fill-rule="evenodd"/>
  <path transform="matrix(.80451 .13283 -.14946 1.023 47.419 -19.318)" d="m44.61 194.31c-1.1057 13.269-3.1226 33.847-3.1226 33.847s10.123 27.534 10.123 25.322c-10.058-45.46 1.6768-79.576 34.085-96.217 0 0 3.4191-3.5756-4.3211-1.3642-20.297 5.9216-33.205 17.826-36.764 38.411z" fill="#d40000" fill-rule="evenodd" filter="url(#v)" opacity=".93462"/>
  <path d="m132.9 145.76c-11.137-1.095-23.145-0.03083-35.073 1.908-17.047 2.7709-34.147 24.141-38.879 36.607-6.7359 17.748-9.2901 44.983-5.9299 68.458 14.278 49.863 39.6 134.24 42.005 139.28 12.776 19.776 33.538 29.541 56.813 26.483 6.1266-2.2297 14.976-7.6614 20.457-9.3785 2.9864-0.93568 4.242-1.8856 5.4034-2.3978l-4.3246-34.848c-4.0098-16.393-8.5127-29.268-6.3351-56.187l5.0396-62.364 4.8346-69.874c-0.73709-24.569-18.247-28.632-33.216-35.815-3.4849-0.89603-7.082-1.5066-10.794-1.8716z" fill="url(#k)" fill-rule="evenodd"/>
  <path d="m135.56 145.05s22.967 1.6033 23.75-6.4907c1.3338-13.801 10.057-64.863 10.391-67.77 0.80876-7.0262-1.9699 2.6075 3.0454-10.367s7.5415-10.215 11.597-9.7482 17.691 4.3932 17.156 9.0451 3.5636 9.8374-1.7172 9.8187-8.5789 3.1369-8.5789 3.1369 3.2751 2.1446 0.24464 2.9742-2.7858 3.8037-2.7858 3.8037-2.1834-1.4297-2.1188 13.308-3.236 33.212-0.67409 36.453 7.4657 11.895 10.827 13.03c4.7132 1.5916 16.476 4.2533 16.476 4.2533s-16.492 1.8277-28.521 9.8532c-9.2532 6.1736-9.1472 14.343-9.3702 15.11-0.73108 2.5132-3.4887-7.3947-14.629-14.859-10.628-7.1209-19.897-9.2724-25.091-11.551z" fill="url(#m)" fill-rule="evenodd"/>
  <path transform="matrix(1.2684 .14601 -.11435 .99344 -24.202 -20.74)" d="m183.39 164.56s-6.8556 5.1417-5.9986 23.995 6.8556 77.982 6.8556 103.69-4.2847 80.553 2.5708 88.266 20.567 29.993 23.995 22.281-13.711-19.71-13.711-41.133 6.8556-45.418 6.8556-66.842-11.997-53.131-10.283-77.125 15.425-35.992 19.71-42.847-5.1417-19.71-11.14-16.282-18.853 5.9986-18.853 5.9986z" fill="url(#o)" fill-rule="evenodd" filter="url(#b)" opacity=".48077"/>
  <path transform="matrix(.99344 .11435 -.11435 .99344 28.359 -18.14)" d="m58.051 205.92s-4.9758 41.465 3.3172 59.157 50.311 125.5 57.498 131.03 7.1873 13.269 0.55287-17.139-12.716-60.263-19.903-79.06-17.692-47.547-17.139-61.921c0.64625-16.802 16.033-63.027 13.822-68.556s-10.505-2.2115-19.903 6.6344-18.245 29.302-18.245 29.855z" fill="url(#n)" fill-rule="evenodd" filter="url(#b)" opacity=".48077"/>
  <path d="m174.09 66.826s-0.03771 0.86321-3.5347 21.65c-3.4484 20.498-5.7439 45.951-9.7205 54.788s-8.8368 5.7439-11.488 5.7439 0-2.2092 10.604 3.9766 11.488 9.2787 11.488 9.2787 11.046-12.372 18.557-12.813 10.162-1.7674 10.162-1.7674-2.2092-2.2092-11.046-0.88368-12.813 8.395-18.557 3.5347-3.9766-22.534-1.7674-28.72 8.8368-56.998 5.3021-54.788z" fill="#eae3ab" fill-rule="evenodd" filter="url(#u)" opacity=".69615"/>
  <path d="m93.579 382.01s10.198 20.095 16.796 23.695 19.796 11.997 26.994 11.397 16.196-2.0995 26.094-6.2986 12.597-6.2986 15.896-5.6987 10.498 8.998 19.196 8.998 17.174 6.4726 27.594 2.9993c11.697-3.8991 23.395-11.397 24.894-16.796s8.998-13.797 8.998-13.797-11.097 12.597-26.694 17.696c-15.109 4.9396-47.989-2.6994-51.888-4.499s-1.4997-6.8984-14.097-1.4997-42.59 8.0982-50.389 2.9993-23.395-19.196-23.395-19.196z" fill="#700000" fill-rule="evenodd" filter="url(#s)"/>
  <path d="m178.31 57.247c-4.6029 4.3668-5.8149 10.592-6.897 16.416-1.1903 5.3085-0.6543 10.892-2.6946 16.037-1.828 4.9189 0.17814 10.135-1.3065 15.093-0.97614 3.7772-1.9125 7.6362-1.5198 11.561-0.98153 5.0835-4.8263 9.5214-3.6208 14.982-0.17442 5.1121-1.3612 5.85-1.9506 10.901-2.827 4.833-4.8629 2.4081-9.3698 4.0932-0.96996 0.01538-10.024-0.69677-10.881-0.16816m3.5605 0.42074c5.5849 1.3799 14.968 5.2565 18.058-0.57013 5.0682-8.0128 2.1556-17.916 4.4917-26.677 2.6526-4.9412 3.5409-10.499 3.4727-16.108 1.1237-6.2598 2.0565-12.578 2.289-18.924 0.9734-6.3305-0.59165-12.952 1.8671-19.045 0.91598-4.0924 2.3523-8.0451 5.521-10.834m-21.836 98.14c6.7701-4.3257 12.9-11.674 11.837-20.206-0.59432-7.5096-1.8547-15.202 0.41573-22.585 1.951-6.8089 2.3625-13.916 3.0984-20.931 0.05613-7.8496 0.78222-15.672 2.3193-23.363 0.93922-4.688 0.30446-11.412 5.9681-13.196 2.9146-1.4488 8.2435 0.87414 3.196 3.0807-3.7347 2.1463-3.735 6.8012-5.0771 10.465-1.7537 7.0501-1.7482 14.427-4.1404 21.34-1.4739 5.116-2.4579 10.421-4.332 15.383-1.6295 7.2339-1.9991 14.631-1.7525 22.023-0.1211 7.2631 0.43966 14.65-0.41842 21.834-1.4416 3.728-4.433 6.8113-4.9913 10.878m18.193-103.56c-4.5072 8.4342-6.3173 18.013-7.0832 27.463-0.3987 5.2475-0.61776 10.497-0.63067 15.766-0.4543 6.3221-3.2751 12.183-4.1188 18.458-2.5836 11.39-1.3072 23.068-1.7095 34.613-0.09989 4.1175-2.2149 6.7993-1.6752 11.011m16.967-104.34c-4.2063 11.099-3.4232 23.235-6.2525 34.658-1.8715 9.4912-2.6439 19.152-3.7801 28.733-1.2759 6.5207-1.6233 13.307 0.03077 19.795 1.3284 8.1634-3.738 15.763-2.3244 23.931 0.21821 1.3198 0.35806 3.9056 0.9558 4.4873m12.245-114.58c-6.6423-0.97284-7.7918 7.5987-6.7628 12.4 1.7324 13.965-0.59 27.927-2.1376 41.783-0.427 5.835-0.51889 11.924 1.6671 17.44 1.7408 6.5194-1.9321 12.663-1.7385 19.151-0.07565 5.0176-1.064 11.471 1.275 15.757m3.4986-3.4986c-2.715-5.8438-0.04923-12.604-2.738-18.48-1.9476-5.4847-4.1269-12.211-0.13829-17.363 3.3484-6.8364 3.3468-14.534 4.7034-21.874 1.0959-7.7457 1.5294-15.559 1.9505-23.358 0.25455-5.1111-0.469-10.554 1.4451-15.386 1.9115-2.5897 5.4121-2.8512 8.2468-3.7738m0.17493 3.8484c-5.1656-1.2997-11.783 0.81563-13.309 6.396-2.1644 5.3015-1.366 11.366 1.3305 16.31 1.1537 5.0026-1.31 9.898-1.3898 14.911-0.99209 5.4662-2.1139 10.975-1.4851 16.555 0.46185 6.5597-1.1051 13.003-0.76184 19.533-0.35325 6.566 1.2416 13.472 5.9942 18.132m9.796-89.038c-4.7468 3.2409-6.8899 8.8586-7.5168 14.365-1.8078 9.2568-5.1041 18.389-4.5566 27.941-0.25761 8.6011-1.3847 17.338 0.51888 25.838-0.92665 5.4621 4.105 7.6213 7.7616 10.222 4.1828 3.1902 7.8552 4.4607 12.889 4.8998m1.7493-0.34985c-5.6054-0.77558-10.981-2.9846-14.478-7.7903-4.1848-3.6334-9.2455-7.3323-9.7392-13.358-0.80895-5.3154-0.07571-10.686-0.71498-16.023-0.60668-10.005 2.9249-19.53 4.618-29.257 1.1468-4.9487 1.477-10.071 1.6736-15.044 2.3333-5.0175 8.5995-4.4735 13.21-4.7396l0.70737-0.20372m-4.1983 89.563c-4.2104-3.6425-9.6784-5.6066-13.76-9.1765-3.8677-4.1616-2.3341-10.049-4.2196-14.93-1.3119-5.338-4.8503-10.324-3.9036-16.004 1.0727-5.4878 5.0922-9.7975 6.6498-15.15 1.5956-4.6916 1.8498-9.6782 2.9773-14.488 1.3664-6.4162 0.7311-13.087 2.245-19.446l0.44954-0.84873 0.64051-0.74423m1.7493 93.237c-4.8292-7.2865-13.761-11.706-15.888-20.717-2.1115-6.9858-2.4616-14.678-0.47579-21.711 2.2849-5.1399 5.0198-10.221 5.2616-15.971 0.14551-5.4872 3.4546-10.07 4.2618-15.378 0.9442-5.9846-0.12564-12.178 1.1108-18.082 0.37251-1.0881 0.8424-2.1554 1.0062-3.3031m-32.293 94.63c4.1774-3.9567 13.078-5.4944 14.618-11.593 3.2554-8.5643-0.56016-18.15 3.3639-26.596 0.86254-2.3602 1.8938-4.6536 2.941-6.9363m2.2741 58.776c-3.1372-7.1617-2.4467-15.194-4.1492-22.709-1.7289-9.3647-0.91479-18.945-0.08546-28.359 0.13932-4.136 2.1144-7.6747 4.0597-11.207m1.2742-35.98c-1.5287 5.4244-3.0659 10.946-2.3808 16.641 0.0018 9.3428-5.5094 17.75-5.206 27.134-0.43744 5.8291-0.53341 11.711-2.2506 17.341-1.2821 7.8469 1.6087 16.093-1.1975 23.7-0.3909 0.89626-0.89693 1.7505-1.5599 2.4737" fill="none" filter="url(#r)" opacity=".66923" stroke="#0a2400" stroke-width=".5"/>
  <path d="m265.85 148.73 11.508 9.5331c0 0.51788 5.3796 3.155 5.3796 3.6729-1e-5 1.0358 3.9124 1.0934 3.9124 2.1292-1e-5 3.0377 0.218 3.9793 0.77682 6.2146 0.51481 2.0592 0 4.8588 0 6.9914v49.328c0 3.332-0.77682 6.5971-0.77682 10.099 0 4.2278-0.38842 8.2868-0.38842 12.429 0 3.1149-0.40719 7.4174-1.5536 9.7103-1.4188 2.8376-1.9421 7.9882-1.9421 11.264 0 4.0275-1.9366 8.5177-2.7189 12.429-0.66222 3.3111-1.5572 6.2287-2.3305 9.3219l-0.38841 1.5536c-0.78614 3.1446-1.7166 6.2526-2.3305 9.3219-0.61194 3.0597-0.79476 5.5095-1.5536 8.545-0.62009 2.4804-0.39306 5.0586-1.5536 7.3798-0.8413 1.6826-0.38841 5.3586-0.38841 7.3798 0 2.9305 0.38841 5.5942 0.38841 8.545 0 2.1925 0.02079 4.5778-0.38841 6.2146l-1.5536 6.2146c-0.50489 2.0196-1.0506 3.6549-1.9421 5.4378-0.88122 1.7624-1.05 4.5885-1.5536 6.603-1.1252 4.501-0.01597-1.4738 0.38842-3.4957 0.10469-0.52346 0.25894-1.0358 0.38841-1.5536 0.59391-2.3756 0.93776-4.1395 1.5536-6.603 0.8144-3.2576 2.5332-5.9446 3.8841-9.3219 1.3716-3.429 2.1811-5.2287 3.1073-8.9335 0.68044-2.7218 0.38841-5.7147 0.38841-8.545v-8.545c0-3.2943 1.2924-6.0734 1.9421-9.3219 0.562-2.81 2.4247-5.4262 3.1073-8.1566 0.831-3.324 1.6406-7.3394 2.3305-10.099 0.72064-2.8826 1.6867-5.1878 2.7189-7.7682 1.2693-3.1733 2.6858-6.8591 3.4957-10.099 0.81269-3.2508 0.77682-6.286 0.77682-9.7103v-9.7103c0-4.6242 0.88504-8.9779 1.9421-13.206 0.51298-2.0519 0.38841-5.3298 0.38841-7.3798v-6.2146c0-1.8358 0.38841-3.7966 0.38841-5.8262v-6.603c0-3.1166 0.38841-6.4897 0.38841-9.7103v-31.85c0-2.6474 0.09564-5.348-0.38841-7.7682-0.37479-1.8739-4.0828-4.0828-5.4378-5.4378-1.5353-1.5353-12.201 2.8502-13.339 1.3324-0.49741-0.66321-7.9784-5.2742-8.6258-5.7921z" fill="url(#l)" fill-rule="evenodd" filter="url(#b)" opacity=".48077"/>
 </g>
</svg>
