<?xml version="1.0" encoding="UTF-8"?>
<!DOCTYPE svg PUBLIC "-//W3C//DTD SVG 1.1//EN" "http://www.w3.org/Graphics/SVG/1.1/DTD/svg11.dtd">
<!-- Creator: CorelDRAW SE -->
<svg xmlns="http://www.w3.org/2000/svg" xml:space="preserve" width="967.077mm" height="819.592mm" version="1.1" style="shape-rendering:geometricPrecision; text-rendering:geometricPrecision; image-rendering:optimizeQuality; fill-rule:evenodd; clip-rule:evenodd"
viewBox="0 0 255610 216628"
 xmlns:xlink="http://www.w3.org/1999/xlink">
 <defs>
  <style type="text/css">
   <![CDATA[
    .str1 {stroke:#D2BD84;stroke-width:20.1406}
    .str0 {stroke:#E41E1D;stroke-width:20.1406}
    .fil8 {fill:#1A1A1A}
    .fil1 {fill:#64B383}
    .fil2 {fill:#98D6B1}
    .fil0 {fill:#9A4617}
    .fil4 {fill:#B89040}
    .fil6 {fill:#D2BD84}
    .fil5 {fill:#E41E1D}
    .fil3 {fill:#F0BB53}
    .fil7 {fill:#F26666}
   ]]>
  </style>
 </defs>
 <g id="Vrstva_x0020_1">
  <metadata id="CorelCorpID_0Corel-Layer"/>
  <g id="_514988056">
   <path class="fil0" d="M8616 198805c6739,-1539 20778,-3720 28971,-5006 8194,-1287 10543,-1678 14458,-1622 3915,56 9396,559 13171,979 3776,419 5845,755 9340,671 3496,-84 8418,-587 11634,-476 3216,112 4726,839 6739,1063 2014,224 4531,-56 8809,-335 4279,-280 10319,-560 17758,-923 7439,-364 16275,-811 23406,-979 7131,-168 12557,-56 17730,755 5174,811 10095,2321 16975,2992 6879,671 15716,504 21728,28 6013,-475 9201,-1258 11969,-1370 2769,-112 5118,447 8613,335 3496,-111 8138,-894 13200,-1761 5061,-867 10542,-1818 13171,-2042 2629,-223 2405,280 2712,951 308,671 1147,1510 1203,2153 56,643 -671,1091 -392,1818 280,727 1567,1734 1343,2293 -224,559 -1957,671 -4307,1035 -2349,363 -5313,979 -6795,1342 -1482,364 -1482,475 -224,1259 1259,783 3775,2237 6348,3775 2573,1538 5202,3160 6460,4139 1258,978 1147,1314 140,1594 -1007,279 -2909,503 -3664,866 -755,364 -363,867 -531,1455 -168,587 -895,1258 -2125,1230 -1231,-28 -2964,-755 -6208,-2181 -3244,-1426 -7998,-3552 -11326,-4586 -3328,-1035 -5229,-979 -6991,-1426 -1762,-448 -3384,-1399 -5985,-1958 -2600,-559 -6180,-727 -10458,-839 -4279,-112 -9257,-168 -12836,-84 -3580,84 -5761,308 -8809,56 -3048,-252 -6963,-979 -10040,-1258 -3075,-280 -5313,-112 -9060,-224 -3747,-112 -9005,-504 -12556,-951 -3552,-447 -5398,-951 -7076,-699 -1677,252 -3187,1258 -4558,1566 -1370,308 -2600,-84 -5788,-84 -3188,0 -8334,392 -13423,727 -5090,336 -10124,615 -13591,671 -3468,56 -5370,-111 -7830,-195 -2461,-84 -5482,-84 -8250,-168 -2769,-84 -5285,-252 -7858,-196 -2573,56 -5201,336 -7718,504 -2517,167 -4922,223 -7775,55 -2852,-168 -6152,-559 -9060,-727 -2908,-168 -5425,-112 -8725,-56 -3300,56 -7383,112 -12081,336 -4698,223 -10011,615 -15548,1678 -5537,1062 -11298,2796 -14626,3691 -3328,895 -4222,951 -5033,839 -811,-112 -1539,-392 -700,-867 839,-475 3244,-1146 3468,-1622 224,-475 -1734,-755 -2097,-1146 -364,-392 867,-895 615,-1399 -252,-503 -1986,-1006 -2489,-1398 -504,-391 224,-671 307,-1258 84,-587 -475,-1482 6265,-3020z"/>
   <path class="fil1" d="M160119 128935c-634,-2195 -2217,-3991 -5478,-5131 -1095,-382 -2200,-363 -3239,-103 -1296,324 -2493,1022 -3445,1782l-1331 1057c-3510,2782 -5320,4216 -8596,8304 -408,510 -759,992 -1109,1472 -308,425 -617,849 -963,1289 -524,668 -770,1134 -972,1519 -293,556 -500,950 -1294,1526l-142 103 -11 -175c-190,-2956 -3,-6371 182,-9747 115,-2092 229,-4170 251,-6108 44,-3816 -111,-7586 -265,-11305 -66,-1604 -132,-3201 -181,-4794 -162,-5205 718,-6698 3736,-11818l371 -629c931,-1583 2380,-3906 3975,-6465 3124,-5009 6810,-10922 8224,-13847 714,-1475 2383,-3823 4261,-6215 2328,-2964 4983,-6004 6541,-7542 759,-749 1491,-1401 2226,-2056 701,-625 1405,-1252 2130,-1960l442 -433c848,-832 1213,-1190 1634,-1424 320,-177 661,-278 1259,-454 455,-135 1061,-314 1912,-601 1691,-571 2595,-1343 3500,-2115 436,-373 873,-746 1401,-1100 -257,-572 -332,-667 -358,-656l-14 22c-22,31 -42,59 -86,73 -84,27 -158,-27 -249,-305 -248,-762 1202,-1598 2136,-2137l381 -223c768,-465 1581,-859 2423,-1203 844,-345 1714,-639 2594,-904 614,-186 2171,-527 3993,-859 1855,-338 3986,-667 5679,-815 1738,-151 3037,-100 3170,342l4 14 767 1222c440,-194 485,-284 557,-427 77,-153 179,-357 634,-729l37 -30 47 11c482,120 881,268 1237,444 355,177 668,382 978,616l62 48 -33 71c-180,382 -371,634 -541,860 -273,361 -493,652 -517,1326 396,-200 662,-543 967,-935 188,-243 392,-504 655,-769l55 -56c1014,656 2030,1310 3042,1969l-36 76c-266,564 -484,787 -676,983 -214,220 -396,406 -586,1078 367,-230 479,-396 588,-559 171,-253 338,-502 1259,-921l57 -26 47 41c706,626 2098,2202 3311,3804 937,1237 1770,2495 2104,3351l761 1944c3640,9285 6764,17252 6764,28326 0,10293 -1150,14370 -2474,19073 -858,3042 -1789,6347 -2530,11778 -293,2154 -676,4843 -1130,7528 -453,2687 -978,5368 -1557,7504 -614,2268 -1614,4774 -2663,7402 -2675,6703 -5670,14206 -3354,20567 164,452 353,886 564,1301 1915,3760 5629,5869 9796,6699 4177,832 8806,381 12537,-977 721,-262 1411,-560 2058,-890 2431,-1237 3989,-2085 5433,-3012 1446,-927 2784,-1936 4775,-3495 238,-212 634,-468 906,-667l58 45c177,141 257,194 303,225 38,24 59,39 86,65 31,31 64,72 136,164l241 301c403,498 703,1040 922,1629 219,588 358,1222 439,1907l8 72 -66 28c-1367,581 -2448,1377 -3703,2300 -1843,1357 -4060,2989 -8108,4631 -302,122 -516,182 -673,225 -344,95 -374,104 -619,763 1533,1075 5061,-1401 8294,-3670 2145,-1507 4162,-2923 5425,-3171l84 -17c457,1381 909,2764 1359,4147l-36 41c-556,649 -2045,1838 -3713,3072 -2257,1669 -4849,3428 -5908,4048 -335,196 -673,378 -1010,560 -574,310 -1148,620 -1647,962 -1281,877 -1933,1374 -2348,1690 -335,256 -518,396 -755,524 -280,151 -631,282 -1399,569 -517,194 -1226,459 -2229,847 -358,139 -590,214 -742,263 -134,43 -202,65 -227,86 -10,10 -15,42 -23,104 -11,86 -28,214 -85,411 2307,1197 10723,-4825 14286,-7373 365,-262 681,-488 980,-698 285,-199 625,-448 996,-718 1392,-1017 3208,-2343 4306,-2694l113 -36 13 117c54,507 110,923 156,1272 231,1725 248,1848 -1074,3982 -554,893 -1537,1938 -2653,2961 -1477,1353 -3191,2672 -4452,3553l-951 670c-996,705 -2035,1440 -3068,2089 -3181,2000 -8883,3894 -13312,5365 -2767,919 -5037,1673 -5867,2178l-41 24 -43 -16c-672,-252 -771,-453 -714,-603 28,-76 93,-126 146,-166 -71,-1 -306,19 -893,-11 -226,-11 -536,58 -966,153 -1140,253 -3115,690 -6755,371 -893,-78 -1805,-239 -2722,-401 -655,-116 -1314,-232 -1966,-318l-3731 -253c-514,40 -790,49 -931,53 -5,54 -37,124 -124,212 372,279 1719,579 3363,852 2950,491 6839,884 7861,942l250 14 -194 158c-535,431 -1248,676 -1987,822 -731,145 -1488,193 -2118,230 -4837,0 -9698,28 -14534,77l-949 -1309 -115 52c-148,68 -215,99 -237,113 5,-1 -2,1 -7,6 -10,12 7,-8 9,-6 9,101 29,327 -507,1057l-30 40 -50 -1c-3200,-52 -6175,-147 -9077,-382 -2906,-235 -5746,-611 -8676,-1225 -792,-165 -1398,-360 -2012,-557 -529,-170 -1066,-343 -1735,-500 -1547,-297 -4638,-704 -5969,-1148 -363,-114 -566,-150 -689,-172 -115,-21 -173,-32 -231,-77 -53,-43 -86,-101 -148,-216 -76,-137 -201,-365 -464,-752 -1853,-2725 -2476,-8527 -2411,-14953 91,-8929 1508,-19076 2792,-23827 542,-2009 1126,-3847 1701,-5655 952,-2999 1879,-5917 2560,-9441 535,-2763 850,-5380 214,-7584zm51504 63641l-13 -5c8,8 12,23 13,5zm1936 -9925c-647,473 -1176,979 -1307,1416 479,-175 1842,-883 2915,-1666 638,-466 1169,-955 1332,-1361 -498,155 -1873,832 -2940,1611zm-61645 -75955c6300,389 15512,-750 18688,-2946 -285,-1242 -715,-2137 -1136,-3014 -636,-1325 -1256,-2616 -1353,-5000 -24,-608 0,-1267 24,-1919 50,-1366 100,-2709 -305,-3481 -423,-804 -1375,-988 -3425,88 -1712,899 -6559,4205 -10868,7337 -3784,2750 -7150,5361 -7596,6075 -212,339 -270,643 -194,912 153,545 848,977 1915,1300 1091,331 2565,544 4250,648zm9148 -25881c197,8 399,0 604,-27 1491,-197 3385,-1670 4934,-3501 1562,-1845 2769,-4050 2861,-5678l-866 -783c-413,804 -661,1390 -885,1919 -354,839 -649,1537 -1427,2712 -1521,2294 -3168,3451 -4530,3780 -588,143 -1126,132 -1579,-8 -459,-140 -833,-413 -1087,-791 -366,-543 -486,-1304 -261,-2204 308,-1228 786,-2036 1156,-2660 506,-854 799,-1350 95,-2144 -546,234 -1043,922 -1453,1731 -721,1423 -1170,3205 -1186,3607 -9,211 2,421 29,628 117,888 551,1725 1188,2349 637,622 1477,1033 2407,1070zm20822 -731l129 -147 -42 109c77,-73 135,-139 189,-211 74,-100 142,-217 234,-381 194,-345 308,-575 373,-824 63,-239 83,-502 88,-906l-1429 -431c-531,1034 -1219,1947 -1893,2841 -851,1128 -1680,2229 -2134,3495 -581,1619 -629,2880 -291,3796 265,717 769,1226 1438,1532 678,309 1528,414 2475,321 2145,-210 4784,-1432 7075,-3578 742,-696 2210,-2354 3050,-3955 518,-989 796,-1953 506,-2636 -283,34 -469,43 -596,50 -125,5 -181,9 -196,21 -11,9 -24,48 -46,118 -49,152 -137,425 -418,912 -207,359 -523,798 -918,1281 -1215,1483 -3200,3404 -5176,4781 -1998,1392 -3997,2232 -5218,1526 -80,-47 -158,-101 -231,-160 -690,-565 -676,-1694 -330,-2919 220,-782 576,-1608 967,-2347 391,-740 819,-1396 1181,-1839 351,-428 660,-666 849,-613 203,57 315,112 364,164zm-307 165c-4,14 3,6 19,-6 -8,-9 -14,-11 -19,6zm12364 -26809l462 639c245,-340 271,-436 8,-872l-470 233zm-15581 -3504c217,-178 380,-413 502,-699l-270 57c-734,153 -1141,239 -1154,1021 384,-56 686,-186 922,-379zm24435 119408l-6116 3252c492,-63 1479,-372 2534,-821 1336,-570 2764,-1367 3411,-2183 66,-83 123,-165 171,-248zm-4951 6401c-275,201 -522,399 -711,581 799,-487 1547,-858 2426,-1295l846 -423c229,-116 470,-227 712,-339 1133,-524 2333,-1080 2566,-2198l-3461 2177c-587,327 -1593,921 -2378,1497zm934 -7779c-1237,684 -2353,1446 -2526,1789 85,49 121,91 141,121l266 -42c129,-21 286,-76 440,-140 156,-65 310,-140 427,-198 281,-138 529,-268 786,-402 288,-150 589,-308 936,-479l72 -35c926,-457 2368,-1167 2783,-1907l-26 -2c-614,-30 -2017,586 -3299,1295zm-1058 -18825c-39,1336 -77,2641 267,3782 144,-845 375,-3068 538,-5111 142,-1776 234,-3406 176,-3853 -914,594 -939,2630 -955,4006l-4 269c-4,305 -13,607 -22,907zm6015 -22218c-806,2061 -1314,3362 -761,3947 839,-362 1536,-2518 2062,-4144 165,-512 314,-973 447,-1314 1047,-2681 1881,-5999 2233,-9349 308,-2929 247,-5883 -360,-8459 -49,-208 -92,-409 -132,-593 -247,-1146 -357,-1657 -1550,-1802 66,740 206,1141 363,1590 281,807 619,1771 698,5036 169,6979 -1761,11917 -3000,15088zm11371 57661c-648,529 -1254,1126 -1535,1506 762,-11 1043,-285 1412,-645 113,-109 234,-228 376,-347 180,-152 338,-268 477,-371 417,-307 666,-491 805,-1154 -424,174 -993,568 -1535,1011zm674 2158c-426,384 -765,822 -908,1230 354,-379 755,-610 1154,-841 562,-325 1124,-650 1529,-1397 -588,143 -1247,532 -1775,1008zm-14967 -51252c50,92 124,71 591,-175 -73,-147 -117,-272 -152,-369 -27,-75 -48,-134 -69,-166 -37,-60 -147,0 -591,280 87,134 138,247 177,336l44 94zm-360 2753l76 -36c-29,-80 -53,-168 -76,-255 -44,-166 -88,-332 -162,-395 -87,-76 -261,-4 -633,413 119,136 192,243 245,323 51,74 81,119 103,124 49,12 166,-43 447,-174zm11569 -54248c-59,307 -104,546 -38,785 421,-804 672,-1694 672,-2539 0,-755 -202,-1474 -663,-2059 -263,580 -170,921 -48,1362 74,267 157,569 186,973 47,659 -39,1114 -109,1478zm-1087 -8832c407,1186 609,1773 1404,1899 164,-772 -61,-1740 -447,-2650 -507,-1196 -1287,-2285 -1830,-2706l-67 85c-163,203 -267,335 156,1310 360,827 594,1509 784,2062zm-44498 92715l-732 148 -336 392c-176,209 -357,423 -379,455l-270 384c-384,556 -649,939 -1416,1453l-174 116 25 -208c205,-1737 713,-2746 1058,-3432 383,-762 552,-1098 -222,-1646 -387,571 -1467,3187 -2387,5668 -828,2235 -1523,4351 -1461,4746l9 20c22,53 81,192 188,270 180,131 523,97 1157,-776 230,-315 384,-560 534,-800 180,-288 358,-571 647,-951 431,-565 871,-1157 1272,-1748 400,-592 765,-1188 1046,-1764l65 -133 197 236 -1 4 5 -1 36 41c314,356 389,354 400,354 55,0 127,13 183,18 -31,43 -77,113 -112,149 -11,11 -92,92 -93,809 -3,134 -351,1385 -414,1588 -148,474 -325,992 -510,1534 -821,2406 -1808,5298 -1142,6948 787,29 1678,-494 2527,-1231 1324,-1150 2537,-2816 3103,-3743l65 -107 87 91c693,729 745,1452 793,2118 50,700 96,1334 955,1818l2 2c596,355 1200,303 1741,81 552,-228 1043,-633 1395,-972l2681 -2451 49 10c1089,236 1892,718 2695,1201 1165,700 2333,1402 4394,1323 -449,-215 -913,-381 -1381,-547 -709,-252 -1428,-508 -2135,-954 -364,-229 -737,-517 -1122,-814 -812,-627 -1680,-1296 -2569,-1502l-216 242c-1281,1433 -2897,3241 -5159,3750l-108 25 -77 -1037c-125,-1804 -198,-2862 -1271,-4120 -892,291 -1703,1348 -2336,2172l-263 341c-157,200 -294,382 -425,556 -231,310 -449,600 -723,914l-99 113c-623,716 -763,876 -1687,1286l-152 68 17 -166c205,-1934 863,-3742 1481,-5439 474,-1304 925,-2544 1124,-3718 39,-233 88,-665 117,-1075 23,-328 34,-641 18,-818 -64,-704 -214,-1046 -362,-1205 -59,-62 -116,-94 -165,-107 -45,-12 -83,-9 -108,-3l-5 13 -54 11zm3712 -39978l854 -1588c-654,214 -1499,1088 -1929,1789 -112,184 -196,356 -237,498 -35,121 -40,214 -5,263 29,41 99,56 217,39 184,-26 260,-110 352,-212 151,-167 341,-377 956,-514l128 -28 -12 131c-84,931 -476,1385 -942,1923 -270,313 -567,656 -838,1143 -51,92 -115,222 -164,339 -40,95 -71,180 -77,226 -41,299 -9,338 31,385l24 29c524,-463 1227,-1350 1779,-2251 394,-643 710,-1290 825,-1789l-190 -46 -183 -26c-39,-6 -103,-26 -161,-44l-90 -26c-32,-6 -80,-22 -132,-41l-255 -110 49 -90zm-1474 -2690c791,-997 1468,-2285 1627,-2932 -155,29 -261,38 -340,44 -101,8 -148,12 -203,62 -62,57 -145,169 -299,377 -208,280 -543,732 -1131,1460 -291,360 -529,686 -753,993 -323,443 -619,849 -992,1248 69,39 142,64 217,74 265,38 570,-90 886,-323 328,-243 667,-599 988,-1003zm20663 -24864c587,-591 1030,-1318 1227,-2142 -439,282 -707,622 -1009,1005 -196,249 -407,516 -688,800 -338,342 -601,553 -834,741 -331,265 -605,485 -960,976 834,-268 1632,-745 2264,-1380zm-2836 -2032l356 469c660,-195 1271,-595 1801,-1088 668,-622 1208,-1392 1565,-2092l146 -281c307,-583 339,-644 -119,-1142 -1247,2357 -2024,2865 -2761,3347 -325,213 -642,421 -988,787zm14035 -42467l-54 -656c-30,-17 -75,-48 -141,-142l-14 11c-278,224 -410,331 -410,402 0,64 107,164 311,352l134 124c70,-71 129,-83 174,-91zm-2302 -803c3,-76 10,-180 24,-319 11,-113 29,-197 47,-259 -60,-3 -139,-14 -240,-40 -378,-96 -518,-71 -537,6 -35,135 160,421 278,594l28 41c187,-63 314,-55 400,-23zm-11806 135541c-468,23 -895,80 -1205,183 444,173 797,186 1257,203 209,7 441,16 702,38 318,28 555,77 734,114 375,79 442,93 584,-455 -610,-75 -1382,-117 -2072,-83zm-4693 -110185c-13,35 -46,52 0,0zm6426 5370c-5656,5298 -13428,5002 -10854,-2173 830,-2314 2876,-4052 4069,-6420l1575 475c-6,909 -79,1146 -474,1849 -187,333 -276,475 -539,706 -115,100 -174,160 -203,193 11,-30 9,-73 -68,-95 -663,-197 752,-31 -174,-292 -726,-204 -4471,6001 -2581,7550 2576,2109 9890,-4789 11400,-7401 813,-1408 -31,-975 1398,-1157 894,1829 -2319,5612 -3549,6765z"/>
   <path class="fil1" d="M126808 116935c287,1130 671,2646 589,4900 -12,324 -32,590 -49,818 -64,831 -88,1149 524,1597 93,-101 165,-131 220,-129l2 -24c9,-118 23,-312 55,-665 181,-2001 -165,-3997 -511,-5987l-143 -835c-56,-334 -86,-588 -109,-789 -72,-627 -82,-711 -742,-1107 -248,596 -78,1268 164,2221zm5809 3088c9,2029 19,4038 42,5989 25,2168 -278,6738 -755,10855 -375,3236 -858,6196 -1373,7498 -806,2034 -738,2106 -622,2227 160,168 389,409 -274,2960 -416,1602 -762,2986 -1072,4228 -1466,5874 -2147,8600 -5796,16322 -904,1913 -3709,5398 -6549,8418 -2748,2921 -5539,5413 -6692,5639l-166 33 3219 -8963c631,-1953 1234,-3746 1804,-5439 2534,-7535 4407,-13103 5440,-23042 286,-2748 406,-6073 85,-9222 -252,-2474 -776,-4840 -1705,-6731 -360,-732 -580,-1600 -787,-2417 -188,-744 -366,-1446 -627,-1952 -438,-848 -1451,-2152 -2560,-3370 -1082,-1190 -2253,-2295 -3067,-2814 -2863,-1824 -5942,-2669 -8895,-2366 -2790,286 -5470,1595 -7754,4069l-1515 1635c-926,998 -1305,1407 -1528,1693 -152,194 -236,337 -376,578 -237,406 -636,1090 -1798,2770 -939,1356 -1636,2536 -2108,3909 -472,1373 -720,2943 -762,5079 -125,6423 437,10157 986,13810 714,4744 1407,9352 556,19520 -255,3053 -257,4937 -258,6463 -3,2774 -4,4375 -1508,9598l-57 196c-161,555 -577,1985 -586,2091l-62 747c84,-53 190,-23 316,240l213 407c25,25 27,28 44,58 22,48 46,140 32,192l-15 61 -83 14 -8 34 -15 -30c-5019,863 -13988,-366 -20038,-1195 -847,-115 -1640,-224 -2337,-316 -6340,-831 -11828,-1908 -17212,-2963 -4525,-887 -8976,-1761 -13792,-2461 -2589,-377 -11028,-2589 -17885,-4929 -4654,-1588 -8587,-3240 -9493,-4430l-30 -38 14 -47c350,-1209 1024,-2182 1668,-3111 218,-314 433,-624 624,-927l458 -724c686,-1086 1307,-2070 1921,-2981l47 -69 75 35c483,229 766,443 1063,669 283,216 582,443 1099,706 451,231 864,390 1322,566 293,112 605,232 938,374 728,309 1384,641 2027,966 836,422 1653,836 2594,1180l640 239c2294,862 8014,3011 9130,2412 -168,-879 -415,-932 -1158,-1090 -218,-47 -477,-102 -793,-188 -4178,-1148 -7867,-2729 -11627,-4340l-1012 -431c-1724,-729 -2038,-862 -3330,-2204l-37 -38 13 -52c145,-578 294,-970 495,-1324 200,-351 449,-663 796,-1083l43 -51 12924 4316c2130,552 4970,1084 7797,1443 2524,322 5038,506 7027,444 1859,-57 3388,-285 4746,-715 1341,-425 2515,-1050 3675,-1906 42,-1392 -780,-4523 -1288,-6457l-251 -968c-2331,-9268 -2377,-14106 -2466,-23505l-17 -1750c-34,-3238 -82,-11131 142,-18656 224,-7537 722,-14713 1783,-16503l173 -291 6 339c16,821 -49,2062 -121,3426 -138,2632 -300,5728 44,7120l853 -9922c2,-1728 79,-3885 320,-5910 184,-1554 465,-3033 882,-4186 500,-1384 996,-2836 1502,-4320 2177,-6380 4560,-13365 8740,-18987 381,-511 789,-1056 1192,-1582 408,-534 819,-1059 1201,-1529 1485,-1826 3008,-3151 4187,-4177 620,-539 1146,-996 1515,-1393l138 -151c1593,-1721 4409,-4765 6571,-3610 1032,550 1239,1147 1404,1622 159,458 274,790 1237,811 75,-1315 -491,-1773 -1348,-2466 -360,-291 -771,-623 -1207,-1073l-55 -57 45 -65c82,-118 127,-186 154,-229 26,-40 40,-61 60,-85 20,-23 42,-43 87,-83l217 -199c424,-398 1252,-911 2114,-1364 939,-493 1924,-918 2477,-1048l71 -17 35 64c155,278 324,644 502,1030 380,824 807,1751 1236,2122 406,-689 58,-1417 -329,-2222 -140,-292 -286,-596 -404,-911l-34 -92 2781 -983 589 1566 572 -1728 69 -2c5109,-139 10393,699 15325,2380 4858,1655 9376,4129 13055,7294 4314,3710 8706,9141 12182,15017 3256,5503 5711,11400 6548,16645 559,3499 343,6592 116,9839 -39,543 -77,1091 -112,1642 21,-45 34,-79 47,-113 32,-87 66,-177 214,-407 261,-393 516,-683 821,-1042l22 227c579,5980 614,13223 647,20215zm-6512 5465c0,1280 63,2591 171,3241 43,-212 90,-486 138,-784 132,-836 265,-1868 312,-2278 350,-2992 99,-3081 -260,-3209 -45,-15 -91,-32 -138,-53 -155,458 -223,1750 -223,3083zm-63231 5118c622,-681 1165,-1277 1306,-1853 453,-1856 -1089,-2499 -2777,-2911 -321,-79 -660,-152 -989,-222 -481,-103 -946,-203 -1355,-322l-96 -27 31 -94c414,-1298 2433,-2962 4393,-4577 919,-758 1827,-1506 2546,-2198 1138,-1094 1800,-2035 1264,-2618 -865,-386 -3185,312 -5059,875 -820,247 -1556,469 -2057,564l-197 37 94 -177c599,-1132 2272,-2213 4133,-3415 1995,-1289 4208,-2720 5513,-4480 -315,-315 -349,-365 -500,-585l-228 -324 -8863 2584 120 -209c741,-1282 2238,-2120 3598,-2882l338 -189c500,-282 1225,-593 1969,-912 1036,-444 2110,-905 2635,-1309 -46,-129 -81,-241 -111,-337 -91,-294 -133,-428 -264,-414 -155,16 -432,154 -937,404 -399,198 -937,465 -1669,797 -670,304 -1260,590 -1822,897 -561,307 -1099,638 -1666,1030l-964 665c-1781,1231 -3504,2421 -5175,3615l149 140c314,294 470,439 649,469 178,29 415,-44 881,-189l445 -138 9400 -2627 -232 351c-180,274 -271,413 -396,542 -128,132 -285,249 -601,484l-122 91c-342,254 -587,404 -850,565 -154,94 -314,193 -508,321l-391 256c-1947,1276 -6812,4462 -6972,6144 890,273 2027,-171 3122,-599l601 -231c617,-229 1363,-435 2138,-612 947,-216 1939,-391 2788,-514l162 -24 -58 153c-499,1322 -1953,2409 -3251,3378 -427,320 -839,627 -1182,917 -286,241 -610,489 -946,745 -1282,980 -2754,2104 -2997,3570 896,601 1923,838 2991,1085 875,202 1780,412 2672,832l53 25 2 59c67,1904 -1176,3116 -2271,4182 -952,928 -1788,1743 -1483,2787 168,573 542,840 919,1110 582,416 1173,839 1148,2277 -12,712 -151,1214 -270,1649 -195,706 -338,1228 241,2223 184,-359 371,-977 518,-1639 176,-795 294,-1652 282,-2199 -30,-1323 -501,-1785 -1057,-2329 -313,-307 -652,-640 -960,-1158l-20 -34 9 -38c361,-1436 1344,-2514 2186,-3437zm-16243 14191c36,-1630 76,-3399 -270,-4032 -1253,1135 -338,7890 13,10474l80 600c293,2284 316,2286 809,2332l189 19 -779 -6706c-89,-613 -66,-1622 -42,-2687zm-35852 27242c-1147,-599 -2252,-1175 -2623,-1140l9 316c306,815 1778,1678 3534,2385 2064,831 4510,1439 5932,1505 -901,-617 -2136,-1064 -3291,-1481 -584,-211 -1148,-416 -1640,-631 -572,-249 -1254,-606 -1921,-954zm82423 -67727c1412,61 2937,-74 4089,-305 1397,-279 2861,-331 4310,-382 1075,-37 2142,-75 3164,-206 1327,-169 3029,-128 4808,-86 2136,50 4385,104 6214,-201 315,-52 854,-115 1393,-177 666,-77 1334,-154 1562,-208 -44,-942 -215,-1013 -350,-1069 -230,-96 -388,-162 -122,-1759 -1153,362 -2027,-341 -3387,-1434 -1341,-1078 -3166,-2545 -6213,-3733 -1552,-620 -6958,-2807 -8089,-3546 -551,-346 -853,-641 -1122,-902 -321,-313 -594,-578 -1205,-825 -1006,475 -1123,924 -1349,1799 -254,984 -643,2486 -2484,5097 -515,731 -1902,2890 -2935,4742 -626,1122 -1121,2128 -1208,2624 733,349 1793,523 2924,571zm2573 -44978c-637,1644 -298,1977 -141,2045 282,-440 1211,-2565 1487,-4027 78,-416 103,-775 43,-1016 -50,-205 -170,-317 -383,-291 -334,40 -871,366 -1679,1099 -325,296 -529,525 -701,719 -346,390 -566,638 -1336,962l-163 68 30 -173c209,-1202 712,-2100 1121,-2829 484,-864 831,-1482 349,-2073 -316,577 -1887,3503 -2601,5421 -201,539 -333,996 -347,1290 -10,216 58,320 236,258 310,-108 859,-549 1728,-1452 468,-486 895,-925 1349,-1320 457,-396 943,-750 1527,-1061l150 -81 -8 171c-50,969 -138,1150 -340,1562 -85,174 -191,392 -321,728zm-14872 32055c646,0 1297,-79 1930,-247 2316,-617 3426,-2628 3801,-4736 168,-945 189,-1908 106,-2775 -83,-865 -270,-1634 -518,-2192 -253,-568 -564,-909 -881,-889 -503,31 -567,530 -526,1173 13,208 36,425 60,647 27,258 56,523 70,778l33 573c131,2195 255,4259 -1211,5288 -3204,2248 -5311,560 -7072,-851 -754,-605 -1443,-1158 -2116,-1305 9,263 48,521 114,769 294,1105 1130,2045 2246,2709 1124,668 2533,1057 3964,1058zm-17940 -25161c614,-699 1401,-1595 1158,-1983l-1302 567c-1576,1682 -2009,2684 -2861,4656l-135 311c-363,838 -799,1727 -1240,2626 -753,1536 -1522,3104 -1956,4470l910 360c404,-882 803,-1846 1220,-2851 1001,-2419 2105,-5082 3599,-7414 121,-190 350,-450 607,-742zm-1592 14142l58 -157c59,-155 110,-349 159,-535 42,-160 82,-316 126,-441 179,-516 388,-1012 606,-1530 380,-907 789,-1882 1115,-3124 -332,451 -892,1460 -1373,2555 -581,1321 -1039,2757 -826,3463 28,-25 47,-36 62,-44l73 -187zm-15164 33699l-28 -16c-200,529 -36,1221 144,1977 120,507 248,1043 280,1590 26,459 4,1002 -19,1559 -40,970 -82,1983 135,2636l55 -125c384,-919 598,-2617 534,-4196 -63,-1563 -395,-3002 -1101,-3425zm39357 7725c304,-560 482,-888 1,-1590 -438,470 -1055,1813 -1655,3359 -835,2150 -1632,4686 -1877,5831 946,-45 988,-247 1141,-997 41,-205 91,-448 164,-730 278,-1203 1410,-3969 1907,-5238 108,-247 220,-453 319,-635zm-3909 10845c-84,-94 -227,-144 -476,-194l10 265c7,340 8,382 639,445 -46,-263 -87,-421 -173,-516zm-33219 13027l-67 643c-56,525 95,1625 317,2798 221,1165 512,2398 739,3214 -64,-1070 -204,-2898 -386,-4423 -125,-1055 -270,-1961 -421,-2357 -75,78 -133,100 -179,93l-3 32zm31795 2012l63 -1038c207,-3198 165,-3490 58,-4236 -36,-252 -80,-557 -126,-1056 -3,-36 -15,-60 -29,-81 -105,95 -184,154 -242,198 -68,52 -104,79 -118,114 -21,51 -26,148 -36,352 -6,126 -14,291 -29,501l-170 4676c-89,740 -202,1847 -179,2845 19,874 140,1663 468,2037 153,-1165 257,-2909 340,-4312zm-18318 -72256c127,-247 257,-500 399,-745l168 -285c504,-851 945,-1596 598,-2497l-2317 4033c-137,252 -242,422 -316,543 -86,141 -129,211 -132,250 -2,27 28,67 86,144 54,72 126,169 216,314 585,-373 932,-1046 1298,-1757zm37458 7683c389,1039 1207,2170 2697,3296 757,572 1500,856 2212,911 825,62 1616,-182 2351,-641 741,-463 1426,-1145 2034,-1950 1603,-2123 2670,-5098 2831,-7217 20,-266 13,-628 -58,-932 -40,-169 -100,-318 -184,-418 -75,-88 -173,-137 -299,-123 -69,8 -149,35 -238,83 -391,209 -490,1142 -568,1881 -33,304 -62,578 -108,766 -489,1987 -1409,3783 -2767,5037 -1209,1115 -2764,1802 -4671,1816l-54 1 -29 -48c-2251,-3720 -2048,-4714 -1893,-5472 84,-412 153,-751 -263,-1486 -148,81 -332,251 -516,494 -291,386 -574,951 -702,1636 -128,687 -102,1495 225,2366zm4336 -15676c487,-462 927,-953 670,-1634l-670 1634zm-63943 106752c151,-196 286,-394 388,-585l-1940 1894 -110 131c-92,109 -138,164 -174,224 -25,43 -50,92 -83,166l692 -525c369,-339 850,-817 1227,-1305zm22227 4015c-1491,184 -2739,338 -3870,-776 -268,-264 -639,-704 -829,-1227 -135,-367 -180,-774 -41,-1189 294,-879 559,-836 854,-789 204,33 429,69 736,-506 -797,-779 -1475,-385 -2047,169 -158,154 -312,322 -457,482l-79 86c-130,1124 135,2049 647,2752 327,449 757,809 1248,1075 493,266 1048,437 1626,507 1082,132 2244,-89 3226,-696 -350,30 -688,72 -1014,112zm40159 -114626c-21,-64 -48,-129 -80,-193 -231,73 -380,79 -474,65 -8,144 -46,419 -190,921l-43 150c-164,566 -219,757 -212,1205l85 -45c302,-169 605,-479 795,-856 189,-374 265,-814 119,-1247zm-64884 109334c465,-345 564,-419 683,-1388 -571,209 -1070,547 -1486,963 -458,458 -815,1014 -1055,1600 537,-20 699,-173 1004,-463 124,-118 271,-257 470,-418 148,-119 276,-213 384,-294zm43828 -37049c76,-626 129,-127 0,0zm-240 739c-329,-427 -881,-133 0,-843 113,146 190,153 240,104 -8,64 -16,140 -24,229 -58,629 69,110 -216,510z"/>
   <path class="fil2" d="M83428 57212c-3020,-196 -8333,307 -12612,2936 -4279,2629 -7522,7383 -9144,11326 -1622,3943 -1622,7075 -728,7998 895,923 2685,-364 4251,-2965 1566,-2600 2908,-6515 5313,-9536 2405,-3020 5873,-5145 8949,-6292 3076,-1146 5761,-1314 6740,-1845 979,-532 251,-1426 -2769,-1622z"/>
   <path class="fil3" d="M116066 134408c-243,1133 -444,2074 25,3090 127,-334 243,-666 348,-996 126,-395 239,-792 340,-1191l818 -3360c325,1904 712,3863 984,5766 112,973 179,1908 219,2844 39,933 51,1870 52,2848 4,2795 -368,6521 -993,10030 -571,3211 -1357,6245 -2260,8223 -624,1366 -2733,3947 -4575,6201 -943,1153 -1817,2222 -2381,2992 -192,262 -486,599 -795,952 -499,569 -1038,1185 -1238,1594 1232,-395 2539,-2004 3449,-3123l392 -479 568 -674c469,-555 909,-1075 1327,-1614l148 -190c256,-332 415,-538 716,-868 348,-383 1015,-894 1443,-1270 -1529,4819 -2968,9853 -4662,14595 -1358,3804 -1992,5581 -3326,6661 -1169,946 -2853,1337 -6012,2070 -847,196 -1799,417 -2837,670 -7568,1844 -10132,2069 -10541,389 -221,-908 215,-2357 833,-4408 262,-870 558,-1850 849,-2939 3212,-12029 1837,-19388 487,-26607 -775,-4150 -1542,-8254 -1429,-13174 63,-2722 391,-5701 999,-8412 537,-2399 1296,-4592 2285,-6220 1040,-1709 2791,-4090 5002,-5701 1556,-1133 3341,-1886 5268,-1760l174 11 -179 247c-822,1135 -8017,11054 -7509,12380 43,112 188,129 456,26 298,-114 398,-346 584,-778 75,-175 165,-382 288,-631 703,-1484 2856,-4703 3844,-6186 3642,-5184 4386,-5117 7377,-4844 299,27 622,56 1006,84 2656,196 3096,576 4518,1806l326 281c192,165 334,281 447,375 232,191 362,298 490,448 161,190 311,440 652,1008l71 119c2971,4948 2394,7646 1952,9715zm-8314 31700l-2649 3029c750,-450 2006,-1543 3158,-2690 1240,-1235 2354,-2526 2577,-3133 -887,139 -1991,1475 -2718,2355 -139,168 -265,320 -368,439zm-7552 -31315c570,-905 1111,-1882 1306,-2424 -236,59 -360,106 -487,252 -125,143 -266,385 -514,812 -119,207 -265,458 -458,780 -611,1025 -743,1375 -1083,2283l-34 90c321,-360 803,-1051 1270,-1793zm-2043 -2532c148,-414 403,-1124 1436,-2595l417 -582c667,-924 1389,-1923 1726,-2930 -726,344 -1485,1133 -2179,2037 -759,991 -1441,2119 -1923,2962l-198 338c-423,715 -534,903 179,1430 378,-205 423,-331 542,-660zm-4543 25366c-31,-9 -182,82 -576,319l89 249c48,143 76,225 104,234 54,18 200,-60 527,-240 -94,-195 -121,-354 -139,-467 -10,-60 5,-91 -5,-95zm-469 -4397c-40,-798 -135,-1571 -289,-2265 -46,-207 -83,-396 -119,-582 -98,-504 -194,-997 -391,-1494 -200,-506 -316,-794 -485,-932 -151,-124 -368,-141 -758,-107 53,486 205,932 374,1427 251,734 539,1575 604,2819 23,446 -10,906 -42,1345 -30,401 -58,785 -39,1114 37,659 270,1115 1101,1097 68,-796 84,-1621 44,-2422zm10368 13440c-340,553 -695,1131 -967,1690 348,-350 755,-869 1156,-1435 659,-929 1296,-1979 1626,-2617 -651,151 -877,611 -1173,1214 -113,231 -237,483 -399,751l-243 397zm-8179 -3018l-261 -125c-186,372 -263,534 -243,610 12,44 85,85 212,155 78,43 172,95 283,165l58 -87c207,-307 303,-451 285,-517 -13,-50 -125,-103 -334,-201z"/>
   <path class="fil4" d="M105186 119992c1062,1063 4306,3524 6264,6712 1957,3188 2628,7103 3076,11158 447,4055 671,8249 559,12081 -112,3831 -559,7298 -1790,12332 -1230,5034 -3244,11634 -4921,15856 -1678,4223 -3020,6068 -4447,7243 -1426,1174 -2936,1678 -4195,2293 -1258,615 -2265,1342 -1621,1426 643,84 2936,-475 5033,-1063 2098,-587 3999,-1202 5565,-3579 1566,-2377 2797,-6516 4167,-10878 1370,-4363 2880,-8949 4223,-14430 1342,-5481 2517,-11857 2349,-17450 -168,-5593 -1678,-10403 -3188,-13870 -1510,-3468 -3020,-5594 -4671,-6740 -1649,-1147 -3439,-1314 -4893,-1566 -1454,-252 -2573,-587 -1510,475z"/>
   <path class="fil3" d="M136119 139738c1812,-2586 3787,-5044 5456,-7107 1448,-1789 3969,-4042 6629,-5605 2093,-1230 4275,-2036 6097,-1861 4205,403 5176,4091 4718,8860 -444,4630 -2236,10281 -3704,14909 -685,2160 -1299,4097 -1671,5596 -947,3817 -1680,8954 -2012,14087 -306,4732 -272,9459 249,13140 121,856 300,1874 485,2931 361,2059 751,4271 798,5769l4 121 -119 -24c-2491,-488 -4625,-1005 -6648,-1792 -2025,-786 -3937,-1842 -5983,-3404 -616,-470 -1223,-778 -1994,-1168 -1199,-606 -2792,-1413 -5427,-3335 -2111,-1540 -2187,-1485 -2331,-1381 -150,111 -354,259 -1469,-218 -1538,-659 -2732,-1563 -3737,-2621 -1003,-1056 -1819,-2265 -2607,-3537l-22 -36 11 -41c202,-720 1105,-2849 2248,-5542 2174,-5123 5217,-12296 5932,-15649 114,-534 155,-1113 196,-1696 62,-877 126,-1764 438,-2556 1006,-2551 2651,-5256 4463,-7840zm10539 -2499c267,-449 533,-898 795,-1294 139,-211 318,-444 507,-689 560,-726 1214,-1575 1086,-2178 -496,508 -1690,2132 -2519,3600 -489,868 -851,1674 -859,2144 323,-460 657,-1023 990,-1583zm1142 -4825c695,-672 898,-868 931,-1749 -653,234 -1788,1375 -2872,2686 -1276,1542 -2473,3312 -2741,4124 643,-172 788,-379 1256,-1049 328,-468 807,-1154 1698,-2190 771,-897 1329,-1436 1728,-1822zm-3138 557c1101,-1208 2300,-2524 3636,-3339 583,-356 954,-436 1239,-498 316,-68 520,-112 820,-555 -120,-270 -283,-447 -480,-541 -456,-220 -1117,-18 -1890,459 -794,490 -1699,1267 -2624,2177 -3129,3079 -6462,7646 -6481,7776 -55,386 -17,560 88,575 508,72 2159,-1931 3474,-3526 548,-665 1039,-1260 1371,-1611 273,-288 557,-599 847,-917zm1764 44830c82,-68 92,-77 -216,-654 -299,145 -546,265 -601,382 -52,109 97,258 605,506 80,-124 156,-187 212,-234zm-3570 2425c27,84 58,178 -10,258l125 285c78,185 121,286 168,299 74,19 238,-78 601,-292l64 -37c-53,-140 -41,-230 -11,-289l-279 -80c-544,-165 -670,-195 -673,-185 -1,4 8,18 15,41zm-1010 -5795c-993,657 -2031,1345 -2483,2224 849,-474 2357,-1395 3515,-2344 728,-596 1315,-1199 1504,-1702 -449,90 -466,112 -577,253 -80,100 -200,252 -473,493 -418,368 -946,718 -1486,1076zm3167 -5222l-6434 4185c-5,24 -10,60 -8,96 9,112 108,258 599,223l2814 -1755c168,-100 353,-203 547,-311 1064,-593 2439,-1360 2482,-2438zm-3204 -1098c1254,-677 2702,-1459 3053,-2642 -773,413 -3690,2150 -5788,3748 -1087,827 -1950,1611 -2165,2134l3994 -2734c278,-166 586,-333 906,-506z"/>
   <path class="fil4" d="M151355 127012c-1873,2209 -7075,6292 -10626,10347 -3552,4055 -5453,8082 -6936,12416 -1482,4334 -2544,8977 -3803,12389 -1258,3411 -2712,5592 -3020,7550 -308,1957 532,3691 2824,5789 2294,2097 6041,4558 9061,6432 3020,1873 5313,3160 7550,4642 2238,1482 4419,3160 4894,3803 476,643 -755,252 -4222,-979 -3468,-1230 -9173,-3300 -13172,-5453 -3999,-2153 -6292,-4390 -7942,-6180 -1650,-1790 -2656,-3132 -3020,-3943 -364,-811 -84,-1091 587,-3244 671,-2153 1734,-6180 3076,-9480 1343,-3300 2965,-5873 3720,-8250 755,-2377 643,-4558 1203,-6404 559,-1845 1789,-3356 3495,-5705 1706,-2349 3887,-5537 5733,-7914 1845,-2377 3356,-3943 4893,-5257 1539,-1314 3105,-2377 4615,-2741 1510,-363 2964,-28 1090,2182z"/>
   <path class="fil5 str0" d="M149469 102835c5850,-337 12853,-2801 17514,-4779l-132 -6171c-3225,477 -6511,3840 -9020,5091 -3738,1865 -5793,3268 -8362,5859z"/>
   <path class="fil5 str0" d="M158477 102455c-1446,444 -3106,738 -4576,1186 -1861,566 -2560,1083 -4869,1091l5278 804c4260,27 7164,-176 10702,-1640 2559,-1059 2369,-776 2317,-4205l-8852 2764z"/>
   <path class="fil5 str0" d="M114654 99945c-2039,-2453 -7871,-4768 -11260,-6159 -1658,-681 -2690,-1514 -4177,-2021 -917,1094 -2231,4015 -2274,5242 8287,79 16196,2888 17711,2938z"/>
   <path class="fil5 str0" d="M114046 101839c-3256,-2624 -11425,-2010 -13838,-2641 -1433,-374 -2993,-1088 -4227,-1195 -657,1270 -1745,2723 -2000,4217 2692,-237 12290,-1033 14964,-727 1533,176 3680,352 5101,346z"/>
   <path class="fil5 str0" d="M136037 42074c306,377 491,383 228,989 -923,-349 -832,-284 -228,-989zm14354 -22316c-235,71 -535,177 -789,346 60,-274 123,-620 193,-1077l323 -1263c869,856 615,904 601,1914 -96,14 -202,42 -328,80zm-1272 1637c62,219 185,432 371,606 -134,311 -192,342 -919,651 233,-641 407,-986 548,-1257zm2799 -689c-145,-416 -426,-731 -659,-894l-4 -3c211,-307 285,-677 502,-1431 241,-835 384,-1538 591,-2195 1323,719 449,2913 -430,4523zm-21662 20145c4739,4558 6912,9505 8310,10784 819,-1792 401,-596 571,-2320 192,-1945 9856,-14339 11664,-16694 3324,-4329 4701,-6396 7631,-11389 3999,-6814 3000,-8931 128,-14130 -952,-1721 -1269,-2468 -2652,-3497 -3925,-2918 -10041,-2018 -13359,1756l-148 184c-3605,4214 -1309,2049 -2416,3992 -809,-23 -896,-375 -1231,-997 -640,-1192 163,-328 -843,-1437 -615,-678 -1889,-1504 -2775,-2072 -1597,-1024 -4539,-2687 -6580,-2689 -9097,-10 -6839,8786 -9509,8789 464,-2068 1910,-5058 2099,-6564 -2731,1780 -5474,8661 -5741,13331 -278,4856 2817,10859 4997,13788 3110,4179 6238,5686 9854,9165zm1157 -2465c1059,177 870,-191 1144,1105 -1062,45 -957,-41 -1144,-1105zm-2061 -2689c-60,-1067 -131,-860 774,-1068l230 991 -1004 77zm16686 -29011c-628,1553 -1164,3272 -2041,3559 -484,-932 617,-3151 1004,-3981 698,112 635,100 1037,422zm8309 10751c283,-1445 -142,-2585 448,-3658 1794,1044 276,5853 -1134,6719 -508,-905 486,-2037 686,-3061zm-35193 -1987c265,-1175 -196,1505 0,0zm-65 301l-220 455c-304,-229 -470,295 -608,-1017 -68,-643 154,-2637 1252,-3124 406,747 -14,867 -324,3126 -13,98 -25,184 -35,259 -18,81 -39,180 -65,301zm28675 -7397l-1872 3024 1107 -3832c475,-1034 234,-422 541,-779 230,382 464,469 224,1587zm-14516 8485c-588,1699 -574,-203 -1572,1574l1299 1289c-1309,814 -2113,-245 -2507,-1289 298,-1475 1421,-2469 2780,-1574z"/>
   <path class="fil6 str1" d="M97053 191073c-10818,2929 -10585,-1146 -12445,7046 -921,4057 -1157,4727 447,5533 -545,826 -848,599 -190,1419 423,527 1039,780 1788,918 4682,-3610 3653,-9014 4562,-10618 2104,436 703,4014 800,6022 82,1665 563,4153 2358,4318l415 -76c864,-1821 -397,-116 176,-1491 497,-1191 1064,-19 1818,-4606 348,-2117 506,-6098 271,-8465z"/>
   <path class="fil6 str1" d="M58311 197830c667,-4225 821,-4040 1682,-7472l-4267 -576c44,97 -91,623 -105,661 -819,2197 -865,-852 -1607,6388 -370,3608 -417,4089 1068,6836 2080,-358 2919,-3872 3229,-5837z"/>
   <path class="fil6 str1" d="M60847 190665c122,5552 -3005,9927 676,14244 4192,-69 5571,-5977 5502,-9650 -12,-693 -239,-1901 -239,-1988 4,-395 304,-39 264,-1475l-6203 -1131z"/>
   <path class="fil6 str1" d="M138760 192048c-117,1386 -125,2692 -275,3918 -398,3250 -639,5218 809,6845 1438,-393 1184,-438 1824,-2079 345,-885 694,-1634 999,-2531 1409,-4149 -68,-4731 1557,-5573 1309,577 868,794 700,2349 -288,2672 372,7064 1356,8812 1395,-416 1379,-669 2022,-2207 1754,-4197 2104,-4374 2073,-9624 -2274,-915 -7682,-3065 -10016,-3578l-1049 3668z"/>
   <path class="fil6 str1" d="M176856 198184c1148,853 837,2957 1131,4611 337,1889 542,2801 1270,4215 1842,197 2455,811 4199,-3228 1023,-2370 926,-3973 997,-6779 -3679,195 -7805,159 -11184,-194 -537,2229 -1529,4328 -453,6700l1743 93c668,-908 802,-1340 1145,-2772 765,-3193 205,-2287 1152,-2646z"/>
   <path class="fil7" d="M132954 9392c-1315,-1371 -4223,-2713 -6628,-839 -2405,1873 -4306,6963 -4978,10682 -671,3720 -111,6069 1035,7914 1147,1846 2880,3188 3747,2685 867,-503 867,-2852 1287,-5621 419,-2768 1258,-5956 2377,-7802 1118,-1846 2517,-2349 3355,-3300 839,-951 1119,-2349 -195,-3719z"/>
   <g>
    <path class="fil8" d="M174559 203602l-1743 -93c-1076,-2372 -84,-4471 453,-6700 3379,353 7505,389 11184,194 -71,2806 26,4409 -997,6779 -1744,4039 -2357,3425 -4199,3228 -728,-1414 -933,-2326 -1270,-4215 -294,-1654 17,-3758 -1131,-4611 -947,359 -387,-547 -1152,2646 -343,1432 -477,1864 -1145,2772zm-3610 -1858l-19998 -336c-60,-2495 526,-3051 265,-8874 2110,269 3431,802 5054,1040 1845,271 3460,478 5406,722 3189,399 6832,1611 10142,2127l-869 5321zm-88073 135l-7496 200c-1463,729 1260,-896 -491,414 -528,394 -108,243 -849,483l-7203 560c460,-1680 1091,-1933 1312,-3781 193,-1607 211,-3146 514,-4722 8139,-300 8541,371 15161,409 -774,2772 -887,2942 -948,6437zm3777 4110c-749,-138 -1365,-391 -1788,-918 -658,-820 -355,-593 190,-1419 -1604,-806 -1368,-1476 -447,-5533 1860,-8192 1627,-4117 12445,-7046 235,2367 77,6348 -271,8465 -754,4587 -1321,3415 -1818,4606 -573,1375 688,-330 -176,1491l-415 76c-1795,-165 -2276,-2653 -2358,-4318 -97,-2008 1304,-5586 -800,-6022 -909,1604 120,7008 -4562,10618zm50196 -4514c-2655,62 -7570,40 -10198,338 -1473,166 -3629,161 -5091,391 -1926,304 -2859,472 -4934,633 -1507,117 -3113,348 -4578,462 -2649,206 -2449,-494 -4557,-740 -3615,-422 -7139,706 -10197,475 787,-2609 1388,-4284 1676,-7369 10000,-878 19014,-1139 28932,-1663 3462,-183 6079,-525 9442,-507l-495 7980zm2445 1336c-1448,-1627 -1207,-3595 -809,-6845 150,-1226 158,-2532 275,-3918l1049 -3668c2334,513 7742,2663 10016,3578 31,5250 -319,5427 -2073,9624 -643,1538 -627,1791 -2022,2207 -984,-1748 -1644,-6140 -1356,-8812 168,-1555 609,-1772 -700,-2349 -1625,842 -148,1424 -1557,5573 -305,897 -654,1646 -999,2531 -640,1641 -386,1686 -1824,2079zm-70747 -11121c2898,-149 5065,427 7799,651 2747,224 5299,222 8190,280 -332,298 -163,510 -1738,609l-13993 524 -258 -2064zm-7024 13219c-3681,-4317 -554,-8692 -676,-14244l6203 1131c40,1436 -260,1080 -264,1475 0,87 227,1295 239,1988 69,3673 -1310,9581 -5502,9650zm-5797 -15127l4267 576c-861,3432 -1015,3247 -1682,7472 -310,1965 -1149,5479 -3229,5837 -1485,-2747 -1438,-3228 -1068,-6836 742,-7240 788,-4191 1607,-6388 14,-38 149,-564 105,-661zm48663 347c1567,-711 3271,-2450 4996,-3393 6119,-3350 6748,-4269 11144,-9758 845,-1054 857,-1875 1586,-2627 6437,10220 12171,10391 15488,13193l-539 4052c-458,1266 -17704,1052 -19123,1165 -9616,768 -8877,1143 -18763,655l0 -2651 6901 -2639c-556,924 -1034,1102 -1690,2003zm-307 -1c-30,26 92,38 92,79 0,17 39,34 37,33 -7,-7 395,-565 -129,-112zm48986 332c-4976,-975 -8513,-2065 -12591,-5179 -1583,-1208 -3091,-1343 -7423,-4504 -3753,-2738 -1297,-530 -3819,-1610 -3051,-1306 -4730,-3585 -6300,-6120 584,-2077 7088,-16072 8181,-21197 287,-1345 116,-2935 630,-4237 2007,-5087 6563,-10792 9904,-14921 2573,-3180 8545,-7824 12642,-7431 10072,966 1247,21228 -742,29246 -1822,7348 -2852,19577 -1765,27264 357,2523 1211,6432 1283,8689zm-42937 -11361c-3109,8691 -2477,7583 -12337,9986 -13383,3262 -10959,1456 -8744,-6840 5062,-18958 -1249,-26331 -938,-39803 118,-5115 1171,-11133 3270,-14584 1759,-2894 5563,-7716 10181,-7415 -10,22 -10174,13867 -7018,12659 467,-179 489,-580 924,-1457l3837 -6173c3989,-5680 4466,-5001 8298,-4719 2817,207 3109,624 4788,2063 1029,882 818,556 1640,1926 4710,7846 444,9988 2070,12994 318,-811 568,-1601 770,-2401l708 -2909 905 5302c223,1942 268,3729 271,5681 8,5341 -1361,14089 -3244,18213 -936,2048 -5275,6893 -6947,9176 -551,753 -1945,2113 -2115,2746 1509,-336 3133,-2556 4075,-3683 689,-824 1312,-1535 1898,-2291 350,-452 506,-666 858,-1052l1175 -1033 -4325 13614zm-48988 -115972c2260,-2780 4614,-4397 5697,-5566 1545,-1667 4433,-4895 6594,-3742 2108,1126 658,2443 2776,2446 155,-2005 -1054,-2136 -2576,-3703 309,-443 73,-175 505,-581 873,-819 3498,-2141 4547,-2388 508,911 1161,2767 1846,3246 698,-1016 -203,-2063 -666,-3308l2599 -919 645 1715c45,-74 73,-186 93,-241l551 -1664c10118,-275 20918,3288 28316,9651 8337,7172 16968,20783 18697,31604 672,4208 219,7835 -21,11852 357,-533 160,-383 462,-855 53,-83 262,-371 306,-432l360 -425c747,7711 587,17525 688,26196 46,3864 -956,15374 -2121,18317 -1677,4233 385,257 -899,5198 -2383,9168 -2445,11186 -6862,20533 -1769,3743 -10866,13550 -13172,14003l3163 -8806c3458,-10701 5982,-16320 7248,-28500 512,-4923 492,-11689 -1629,-16005 -685,-1392 -860,-3297 -1415,-4371 -874,-1692 -3998,-5161 -5661,-6221 -5605,-3572 -12037,-3410 -16772,1718 -4793,5192 -1929,1925 -5225,6687 -1888,2727 -2804,4746 -2887,9041 -288,14769 3048,15329 1542,33324 -718,8578 567,7951 -1763,16042 -67,233 -635,2173 -646,2306 -170,2087 -63,355 264,1039l234 446c7,-36 60,95 48,143 -5689,998 -16567,-740 -22391,-1503 -11655,-1529 -20449,-3890 -31002,-5425 -4337,-631 -25103,-6416 -27316,-9321 463,-1598 1506,-2788 2282,-4014 868,-1371 1619,-2576 2378,-3702 945,447 1106,836 2159,1373 738,377 1374,564 2266,943 1682,714 2960,1538 4626,2148 1608,589 8774,3419 9910,2608 -229,-1278 -579,-1020 -2033,-1419 -4292,-1180 -8072,-2818 -11945,-4477 -2330,-998 -2547,-983 -3980,-2472 286,-1139 585,-1536 1273,-2369l12866 4297c4039,1046 10625,2022 14852,1891 3738,-116 6152,-914 8514,-2668 74,-1647 -1127,-5853 -1541,-7499 -2468,-9815 -2371,-14657 -2480,-25232 -67,-6475 -191,-31562 1912,-35109 48,2529 -677,9110 25,10890 37,-64 67,-161 79,-207l864 -10053c3,-3045 242,-7429 1197,-10070 2667,-7379 5088,-16368 10229,-23283 752,-1012 1626,-2168 2390,-3107zm-53073 108107c684,1906 7406,4007 9865,3973 -1348,-1049 -3634,-1619 -5197,-2302 -1633,-714 -4166,-2296 -4681,-2081l13 410zm189871 -122358c765,-304 1060,-1051 1788,-1786l2906 1879c-603,1280 -944,753 -1327,2304 1219,-675 406,-850 2039,-1594 1242,1102 4630,5172 5389,7118 3952,10135 7518,18414 7518,30235 0,16948 -3117,17019 -5002,30838 -588,4308 -1530,10753 -2685,15020 -2183,8064 -9253,19132 -6015,28027 3490,9587 17382,10111 25090,6186 4867,-2478 6235,-3394 10224,-6517l844 -622c552,439 187,43 751,739 792,981 1179,2130 1340,3487 -3389,1440 -5008,4172 -11809,6930 -1085,440 -976,44 -1372,1112 2568,2015 10690,-6159 13854,-6780l1315 4014c-1300,1516 -7761,6024 -9597,7099 -880,515 -1860,976 -2662,1525 -4367,2988 -1426,1571 -6711,3620 -1400,543 -875,100 -1158,1002 2510,1528 12766,-6168 15436,-8040 1369,-959 3904,-2961 5277,-3400 321,3002 668,2657 -904,5193 -1276,2060 -4871,4945 -7078,6486 -1274,890 -2653,1901 -4015,2757 -5159,3244 -16999,6216 -19178,7542 -1755,-660 785,-672 -1490,-786 -857,-43 -2688,965 -7718,524 -1533,-135 -3115,-512 -4689,-720l-3739 -253c-1801,141 -648,-97 -1196,361 685,842 9717,1799 11361,1892 -1040,840 -2795,956 -4050,1031l-14479 76 -967 -1333c-990,457 42,-85 -966,1286 -6392,-104 -11887,-380 -17735,-1605 -1470,-308 -2302,-718 -3746,-1058l-5961 -1145c-1326,-416 -554,184 -1481,-1179 -4405,-6475 -1810,-30545 394,-38701 1448,-5359 3171,-9454 4263,-15103 1074,-5550 1265,-10519 -5327,-12824 -2499,-873 -5040,310 -6776,1694 -4437,3541 -6269,4794 -9942,9377 -766,956 -1335,1822 -2072,2761 -1272,1619 -918,2062 -2247,3026 -309,-4780 374,-10769 433,-15847 63,-5471 -284,-10839 -447,-16103 -167,-5384 788,-6778 4094,-12396 2731,-4640 10061,-15887 12203,-20318 1591,-3290 7973,-10957 10782,-13730 1476,-1456 2862,-2556 4356,-4016 2512,-2454 1521,-1644 5211,-2890 2558,-864 3327,-2176 4991,-3271 -693,-1558 -491,-177 -736,-931 -259,-795 1668,-1759 2475,-2247 1526,-926 3234,-1566 4994,-2098 1875,-565 12509,-2575 12728,-1374l821 1308c1001,-428 330,-418 1289,-1203 950,235 1569,582 2180,1043 -493,1046 -1077,1110 -1069,2378zm-255 -5478c1453,-1294 3503,-4237 6036,-6494 1706,-1520 5591,-3931 5908,-6488 -2144,1361 -5245,4407 -7200,6159 -1734,1554 -4939,4933 -6146,7030 -18564,994 -19117,3306 -31510,12985 -5807,4535 -9687,9799 -14049,15581 -2040,2704 -3793,6149 -5952,8856 -2915,3655 -7800,16112 -11043,18548 -681,-11614 -4359,-19953 -9244,-29457 -1448,-2818 -3497,-5173 -5255,-7624 -5246,-7317 -15295,-11677 -24225,-14358 -3710,-1114 -7578,-801 -11395,-1032l844 -11365 -1287 5204c-288,1766 -303,4196 -304,6255 -684,35 -2691,-79 -2751,-78 -834,9 -361,303 -1998,434 -849,-1152 -1499,-1779 -2549,-2918 -3695,-4010 -5589,-9176 -7096,-8504 78,237 1484,1441 2366,2952 1515,2595 5825,6882 6572,9096 -2471,1069 -3880,2126 -5896,3391 -1654,282 -7931,-4045 -9148,-4310 -1554,-339 -2390,-41 -2818,1129 2580,-1213 4062,182 5881,1220 1442,823 3522,1474 4806,2629 -4263,5189 -9923,4082 -19477,26546 -3033,7131 -4464,13402 -6197,20883 -1161,5013 -892,11403 -1739,16588 -858,5260 -587,12231 -481,17823 51,2693 758,5509 846,8352 96,3092 140,5538 479,8574 571,5119 3248,10195 3105,15093 -1426,802 -1785,1443 -3909,1496 -7805,195 -25258,-3061 -29980,-7649l-1186 668c-631,418 -343,112 -849,731 -1253,1533 -2482,4538 -3409,6236 -768,1407 -4465,7470 -4444,8358 962,467 1807,607 2892,1184 996,529 1815,838 2947,1252 6183,2262 12096,3931 18292,5847 2931,906 24904,3835 26817,5578 -1295,1308 -4826,1300 -6691,1578 -2161,321 -4812,659 -6890,1138 -3932,905 -10186,1049 -14536,1628 -3591,478 -23398,2751 -25823,6287l1176 282c820,287 240,373 1150,347 1007,-29 2368,-478 3205,-638l26205 -5309c2505,-534 4665,-421 7237,-611 1615,-120 4606,-776 6542,-1115 2510,-441 4817,-423 7531,-541 -295,3679 -1079,5273 -792,9312 -9162,449 -18639,-330 -27560,1137l-22325 5834c9,1591 578,1330 2123,987l9205 -2500c4894,-1246 7492,-1943 12517,-2680 2715,-398 11520,-1221 14372,-1133 2691,83 4727,-161 7409,-173 5985,-28 4003,1079 5799,1625 2840,863 3287,-1536 4929,-2684 366,1360 2,1959 1118,2768 2246,1630 4002,501 5452,-189 1040,-496 2012,-353 3319,-307 3764,134 8306,-1065 14175,-639 915,1138 443,1280 1817,2139 4062,2539 4178,-561 6383,-2835 1022,3719 4285,6146 5845,1336 3052,326 27111,-707 30841,-1134 2849,-326 7133,-691 9915,-645 980,1109 639,1454 2221,2052 1223,-35 2915,-4235 3137,-5131 529,661 604,1486 822,2325 164,629 431,1266 787,1760 957,1329 2154,1273 4052,1201 681,-1035 1238,-2179 2474,-2325 3090,-365 19241,60 19977,355 1328,533 1723,3570 4312,1784 485,-334 287,-278 676,-656 437,-424 44,-141 599,-550 360,1736 1731,4689 3468,4896 2188,260 3307,-2562 4475,-3809 14556,39 20768,-1601 35353,1962 5177,1265 17113,5030 21884,7110 1235,539 4397,2614 5565,2565 899,-38 25,173 542,-203 1117,-1328 -1239,-1755 -2348,-2197 -1187,-472 -2478,-991 -3675,-1480l-15050 -5543c-1855,-523 -4187,-814 -6089,-1626 -1641,-701 -562,223 -1308,-1285 -3731,154 -11630,-1106 -17158,-1173 -3341,-40 -5318,-195 -8689,10 -2908,176 -5528,521 -8399,552 33,-1156 887,-5880 1252,-6766 5713,-377 11918,636 17286,-473 7700,-1592 8529,-1043 15950,-931 5507,83 10788,-1002 15787,-1863 1851,-319 13379,-2395 14034,-3182 -917,-1268 -1115,-890 -3250,-412 -3900,875 -8620,932 -12274,2177 -1568,535 -2579,366 -4177,690 -4938,999 -7596,1130 -12927,935 945,-1047 5480,-2293 6871,-2889 7001,-2998 14797,-6799 19382,-12815 647,-849 1744,-1645 2155,-2326 795,-1315 -681,-5276 -1261,-6828l-3352 -10194c-546,-1608 -423,-2210 -1982,-2465 -1950,3287 688,1529 -4429,4925 -24958,16561 -35812,-1489 -28431,-16851 618,-1285 973,-1504 1639,-3174 1849,-4632 5610,-20482 6528,-24998 3053,-15019 3472,-16386 3930,-32250l941 2065c347,1738 241,5519 1459,6060 1307,-2184 -1241,-10389 -1880,-12587 -2833,-9734 -3175,-18617 -10587,-26738 -873,-957 -3040,-2933 -3498,-4072 550,-1118 98,-439 1140,-1329 2024,-1730 4044,-2602 6293,-4003 804,-500 1968,-863 2600,-1434 -2490,-1131 -9266,5328 -10820,6185 -1024,-483 -2141,-1306 -2767,-2319l828 -977c212,-226 374,-382 631,-653l4181 -3579c1215,-993 1707,-1236 3035,-2111 582,-383 1048,-777 1546,-1050 902,-492 1098,-310 1770,-650 -700,-1676 -1648,-709 -3398,376 -3590,2229 -6692,5056 -9278,8064l-2457 -1818z"/>
    <path class="fil8" d="M119047 11131c2670,-3 412,-8799 9509,-8789 2041,2 4983,1665 6580,2689 886,568 2160,1394 2775,2072 1006,1109 203,245 843,1437 335,622 422,974 1231,997 1107,-1943 -1189,222 2416,-3992 45,-53 102,-131 148,-184 3318,-3774 9434,-4674 13359,-1756 1383,1029 1700,1776 2652,3497 2872,5199 3871,7316 -128,14130 -2930,4993 -4307,7060 -7631,11389 -1808,2355 -11472,14749 -11664,16694 -170,1724 248,528 -571,2320 -1398,-1279 -3571,-6226 -8310,-10784 -3616,-3479 -6744,-4986 -9854,-9165 -2180,-2929 -5275,-8932 -4997,-13788 267,-4670 3010,-11551 5741,-13331 -189,1506 -1635,4496 -2099,6564zm20117 -4580c-666,-467 -328,-237 -874,-803 -1751,-1815 -4452,-4286 -6979,-4840 -4572,-1002 -8070,-310 -10864,2011 -1763,1464 -4454,5777 -5333,8485 -1477,4550 -1830,6845 -604,11737 1084,4329 1806,6256 4309,9186 1781,2084 4759,5131 7016,6818 1582,1181 2047,1942 3542,3227 2162,1857 4591,4979 6233,7640 4093,6632 2907,4085 6693,-1061 1248,-1695 2513,-3283 3516,-5497 551,-1219 6595,-9985 7573,-10570 -146,1803 -1732,4484 -1301,5380 1618,-618 1915,-3106 3148,-6314 829,-2158 1902,-4930 2931,-7090 2302,-4836 8976,-13969 447,-20743 -4296,-3413 -7694,-5828 -14463,-2592 -2500,1196 -3243,3182 -4990,5026z"/>
    <path class="fil8" d="M93981 102220c255,-1494 1343,-2947 2000,-4217 1234,107 2794,821 4227,1195 2413,631 10582,17 13838,2641 -1421,6 -3568,-170 -5101,-346 -2674,-306 -12272,490 -14964,727zm2962 -5213c43,-1227 1357,-4148 2274,-5242 1487,507 2519,1340 4177,2021 3389,1391 9221,3706 11260,6159 -1515,-50 -9424,-2859 -17711,-2938zm-6770 6790c1654,831 5020,728 7136,305 2430,-485 5063,-280 7469,-587 2910,-371 7663,273 11025,-288 742,-124 2794,-307 3038,-409 -89,-2357 -983,40 -448,-3044 -2321,903 -3455,-2681 -9688,-5112l-8073 -3538c-1229,-772 -1206,-1287 -2381,-1750 -2237,1035 -363,1915 -3909,6946 -845,1198 -4033,6236 -4169,7477z"/>
    <path class="fil8" d="M149032 104732c2309,-8 3008,-525 4869,-1091 1470,-448 3130,-742 4576,-1186l8852 -2764c52,3429 242,3146 -2317,4205 -3538,1464 -6442,1667 -10702,1640l-5278 -804zm437 -1897c2569,-2591 4624,-3994 8362,-5859 2509,-1251 5795,-4614 9020,-5091l132 6171c-4661,1978 -11664,4442 -17514,4779zm21241 958c-708,-3171 -2338,-4083 -2500,-8061 -134,-3265 1159,-8022 -3848,-5393 -3226,1693 -17532,11897 -18501,13446 -2798,4471 19607,3730 24849,8z"/>
    <path class="fil8" d="M55932 112010c1003,920 735,855 2305,384l9150 -2558c-477,721 -391,637 -1187,1228 -540,402 -838,542 -1354,884 -1606,1062 -7380,4708 -7410,6548 1098,390 2544,-320 3858,-808 1359,-505 3364,-896 4906,-1121 -651,1725 -2991,3063 -4405,4255 -1405,1184 -3711,2510 -3986,4434 1657,1143 3731,1019 5727,1959 125,3541 -4429,4673 -3750,6993 431,1471 2104,1002 2063,3358 -34,1943 -1024,2309 69,4064 442,-679 919,-2946 894,-4030 -47,-2100 -1172,-2090 -2030,-3534 623,-2478 3151,-3894 3491,-5290 695,-2846 -3046,-2948 -5187,-3570 914,-2861 9937,-7662 8168,-9502 -1268,-597 -5546,1111 -7191,1424 1231,-2326 7185,-4496 9687,-7950 -503,-502 -362,-386 -815,-1011l-8698 2535c789,-1365 2468,-2227 3899,-3035 1204,-680 3801,-1557 4670,-2272 -473,-1314 68,-1124 -3133,329 -1343,609 -2366,1149 -3503,1935 -2167,1498 -4252,2929 -6238,4351z"/>
    <path class="fil8" d="M165380 169975c54,-68 195,88 195,176 0,36 86,76 80,71 -16,-14 -939,591 -275,-247zm-5329 6011c21,10 335,1174 1525,-461 500,-688 643,-1047 1179,-1749 862,-1130 1760,-2368 2328,-3529 985,1205 500,-200 497,1435 0,19 -369,1429 -410,1559 -815,2615 -2513,6559 -1625,8605 2078,149 4828,-3465 5777,-5018 1418,1493 58,2989 1771,3955 1253,747 2534,-215 3252,-904l2642 -2416c2750,594 3673,2799 7469,2506 -1224,-673 -2553,-858 -3824,-1659 -1138,-718 -2419,-2056 -3776,-2341 -1311,1458 -2979,3468 -5362,4004 -198,-2444 -93,-3642 -1403,-5149 -1078,310 -2022,1692 -2707,2564 -427,544 -717,976 -1145,1466 -699,801 -801,953 -1752,1375 362,-3411 2144,-6441 2604,-9151 73,-430 173,-1505 136,-1917 -152,-1675 -800,-1403 -809,-1377l-760 154c-20,13 -697,810 -747,878 -558,775 -745,1201 -1661,1813 456,-3846 2402,-4085 720,-5221 -636,734 -4098,9754 -3919,10578z"/>
    <path class="fil8" d="M252756 199399l8 -836c-336,-148 -14883,-232 -17146,1223 -70,2022 2159,2454 4683,3545 3382,1463 14913,8787 15279,8825 288,-2076 -1561,-2555 -2959,-3387 -3188,-1896 -1527,-1007 -3778,-2675 -4265,-3161 -7976,-4200 -8574,-4729l12487 -1966z"/>
    <path class="fil8" d="M191711 79005c-1429,182 -585,-251 -1398,1157 -1510,2612 -8824,9510 -11400,7401 -1890,-1549 1855,-7754 2581,-7550 926,261 -489,95 174,292 224,66 -182,299 271,-98 263,-231 352,-373 539,-706 395,-703 468,-940 474,-1849l-1575 -475c-1193,2368 -3239,4106 -4069,6420 -2574,7175 5198,7471 10854,2173 1230,-1153 4443,-4936 3549,-6765z"/>
    <path class="fil8" d="M102603 85518c-3575,-5908 -914,-4850 -2200,-7033 -903,339 -3400,4211 1607,7993 4924,3720 9242,-4504 9583,-8967 51,-672 -70,-1938 -922,-1482 -608,325 -566,2068 -724,2708 -915,3719 -3342,6751 -7344,6781z"/>
    <path class="fil8" d="M160104 71316c-1597,581 -2736,4796 -2762,5448 -92,2266 1914,4439 4336,4119 3058,-403 7736,-6031 7882,-9314l-994 -898c-1119,2155 -1074,2785 -2364,4732 -3715,5607 -8156,4344 -7282,854 752,-3004 2542,-3471 1184,-4941z"/>
    <path class="fil8" d="M74481 86737c-2,3285 4535,5521 8376,4498 5588,-1488 4277,-10895 2478,-10782 -953,60 -555,1461 -487,2700 130,2376 410,4691 -1137,5777 -4610,3235 -6922,-1847 -9230,-2193z"/>
    <path class="fil8" d="M202951 130982c1186,-399 2056,-4085 2622,-5535 1969,-5042 3184,-12323 1877,-17864 -391,-1658 -308,-2330 -1882,-2483 165,2209 944,1540 1070,6737 285,11689 -5339,17641 -3687,19145z"/>
    <path class="fil8" d="M37364 120046c495,-815 516,-6864 701,-8447 774,-6617 1654,-5775 1774,-7109 -2621,-46 -2903,4248 -3026,7019 -146,3290 -1177,7982 551,8537z"/>
    <path class="fil8" d="M150466 128590c-1648,-4005 -11646,9617 -11679,9846 -374,2627 3721,-3030 5098,-4481 1324,-1397 2790,-3220 4463,-4241 1283,-783 1510,-198 2118,-1124z"/>
    <path class="fil8" d="M56508 76932l1079 427c1383,-3004 2718,-7009 4850,-10337 424,-662 2289,-2314 1713,-2895l-1387 604c-1681,1790 -2076,2811 -3028,5010 -990,2285 -2550,4999 -3227,7191z"/>
    <path class="fil8" d="M96339 57039c-70,1364 -215,1130 -654,2260 -830,2143 -14,2188 -11,2192 442,-558 3771,-8416 -637,-4418 -966,877 -874,1185 -2009,1663 475,-2739 2513,-3896 1357,-5082 -21,24 -6161,11217 -897,5748 932,-969 1698,-1747 2851,-2363z"/>
    <path class="fil8" d="M33655 123317c-1236,-2024 -497,-7692 60,-10244 139,-638 684,-2744 -573,-1935 -492,317 -3034,12305 513,12179z"/>
    <path class="fil8" d="M123661 196564c804,882 982,810 2600,640l8046 -681c1387,-397 727,-138 952,-925 -1228,-809 -4210,17 -5762,86 -1017,45 -2093,141 -2897,279 -663,114 -701,111 -1350,201l-1589 400z"/>
    <path class="fil8" d="M134404 55069c-2288,-2317 -2507,-3874 -4113,-2730 398,540 -11,277 708,965l2716 3102c617,811 987,1411 1610,2269 923,1272 1424,1616 1934,962 299,-997 -624,-1536 -1234,-2343 -695,-921 -788,-1383 -1621,-2225z"/>
    <path class="fil8" d="M46384 140623c-1544,1044 -276,9280 -26,11229 351,2728 331,2305 1205,2452l-795 -6834c-231,-1594 301,-5925 -384,-6847z"/>
    <path class="fil8" d="M216173 51879c-677,-802 -883,-1499 -2135,-1466 125,1436 1959,2457 2922,4280 1003,1899 1545,4016 2421,4597 1190,-997 427,-1582 -227,-2661 -1299,-2141 -705,-2053 -2981,-4750z"/>
    <path class="fil8" d="M137164 67937c21,-1630 -3719,-7337 -5731,-8094l-483 450c75,77 236,494 287,558l1300 1231c612,686 928,1274 1458,2114 1364,2164 1807,3593 3169,3741z"/>
    <path class="fil8" d="M229925 199452c-397,-1108 -575,-954 -1862,-1170 -2036,-342 -6818,-801 -8155,385 817,1100 -338,249 4955,390 1679,44 4015,921 5062,395z"/>
    <path class="fil8" d="M150456 21711c-637,-890 -600,-204 -143,-1558 1446,2121 -216,-1490 296,515l-153 1043zm286 -1403c-133,-1649 398,-1538 -624,-2544l-323 1263c-370,2412 -539,1743 -1224,3625 1005,-426 731,-324 1148,-1160 918,588 476,471 1322,673 788,-1210 3127,-4992 1307,-5982 -207,657 -350,1360 -591,2195 -336,1166 -328,1413 -1015,1930z"/>
    <path class="fil8" d="M81913 129495c1418,-44 1139,-343 1519,-1804l1902 -5224c472,-1079 1016,-1358 244,-2411 -1067,933 -3296,7557 -3665,9439z"/>
    <path class="fil8" d="M63359 177962c-2102,119 -3744,794 -5170,-611 -442,-434 -1168,-1358 -847,-2316 528,-1575 893,86 1617,-1344 -1158,-1195 -2073,-72 -2793,713 -508,4167 4293,5672 7193,3558z"/>
    <path class="fil8" d="M93190 155745c147,-1626 77,-3374 -240,-4801 -159,-714 -239,-1395 -514,-2091 -412,-1041 -479,-1185 -1439,-1090 102,1266 875,2206 988,4337 91,1736 -701,3753 1205,3645z"/>
    <path class="fil8" d="M38156 197766c1030,760 1204,108 2538,-498 2374,-1079 6119,-1915 7257,-2361 1139,-445 583,-124 1062,-920 -326,-166 -21,-226 -669,-219 -117,1 -9004,2970 -10188,3998z"/>
    <path class="fil8" d="M127889 124381c398,-515 219,566 356,-940 208,-2295 -272,-4575 -655,-6847 -249,-1479 32,-1413 -990,-2018 -682,1368 857,2976 701,7256 -57,1564 -330,1911 588,2549z"/>
    <path class="fil8" d="M79961 152184c211,-1457 331,-4008 430,-5538 277,-4293 108,-3368 -69,-5306 -11,-121 -71,-146 -112,-216 -594,563 -450,93 -534,1302l-169 4670c-180,1486 -453,4441 454,5088z"/>
    <path class="fil8" d="M220963 53839c-399,-857 -324,-1218 -1438,-1153 259,1432 1034,2668 1473,4091 569,1841 471,3221 1282,4171 244,-360 190,16 309,-690l-198 -2110c-128,-704 -323,-1616 -544,-2310 -236,-740 -601,-1392 -884,-1999z"/>
    <path class="fil8" d="M97606 133034c969,-503 109,-526 2066,-3313 803,-1143 1848,-2430 2218,-3737 -1605,593 -3373,3430 -4340,5121 -620,1085 -889,1246 56,1929z"/>
    <path class="fil8" d="M142982 137608c1326,-310 849,-617 3163,-3309 2219,-2582 2655,-2180 2686,-3762 -1417,277 -5573,5708 -5849,7071z"/>
    <path class="fil8" d="M198005 153278c235,-598 1006,-8984 758,-9466 -1138,564 -1095,2985 -1117,4421 -27,1784 -203,3563 359,5045z"/>
    <path class="fil8" d="M136762 171569l4190 -2869c1425,-855 3742,-1750 4053,-3409 -436,165 -8217,4742 -8243,6278z"/>
    <path class="fil8" d="M212413 77170c478,-1878 -1398,-4933 -2375,-5601 -230,369 -514,330 25,1570 1171,2697 1017,3879 2350,4031z"/>
    <path class="fil8" d="M46706 122045c940,-1565 1131,-7412 -576,-8123 -440,924 294,2298 376,3703 79,1345 -269,3426 200,4420z"/>
    <path class="fil8" d="M138491 173336c11,10 -217,546 710,472l2834 -1768c1130,-674 3195,-1567 3070,-3006l-6614 4302z"/>
    <path class="fil8" d="M153661 20498c1410,-866 2928,-5675 1134,-6719 -590,1073 -165,2213 -448,3658 -200,1024 -1194,2156 -686,3061z"/>
    <path class="fil8" d="M41064 198713c892,634 2593,-336 3905,-720 2847,-834 3052,-914 3373,-2152 -1178,384 -2449,1029 -3823,1461 -1289,406 -2540,523 -3455,1411z"/>
    <path class="fil8" d="M170377 128269c-129,1443 -1034,1710 -1768,3028 -97,173 -236,479 -253,599 -67,489 53,385 124,577 995,-820 2747,-3352 2774,-4527 -61,39 -121,153 -154,156 -384,36 74,67 -349,13 -54,-7 -197,-59 -246,-69 -56,-11 -183,-60 -271,-100l954 -1774c-1200,136 -3312,2999 -2125,2825 512,-75 296,-500 1314,-728z"/>
    <path class="fil8" d="M243312 193987c930,343 2285,-27 3456,-76 1816,-77 2237,71 2561,-1521 -1090,188 -2039,426 -3304,592 -1834,239 -2373,-356 -2713,1005z"/>
    <path class="fil8" d="M219058 102447c577,-973 1551,-6351 967,-7297 -809,617 -1707,6266 -967,7297z"/>
    <path class="fil8" d="M196137 169803c359,170 -15,216 538,126 275,-45 656,-229 893,-346 573,-282 1041,-545 1722,-881 977,-482 2604,-1267 2955,-2098 -1006,-356 -6076,2559 -6108,3199z"/>
    <path class="fil8" d="M104723 169424c1231,-359 6050,-5075 6245,-6218 -1119,19 -2576,2018 -3289,2839l-2956 3379z"/>
    <path class="fil8" d="M186376 98307l445 587c1553,-427 2831,-1956 3489,-3248 489,-959 592,-910 -81,-1631 -1871,3583 -2677,3002 -3853,4292z"/>
    <path class="fil8" d="M131676 18413c998,-1777 984,125 1572,-1574 -1359,-895 -2482,99 -2780,1574 394,1044 1198,2103 2507,1289l-1299 -1289z"/>
    <path class="fil8" d="M166435 126478c1304,1033 3828,-3181 3990,-4324 -1089,249 -201,-430 -2171,2007 -730,901 -1143,1618 -1819,2317z"/>
    <path class="fil8" d="M60581 77312c876,-499 1236,-1590 1815,-2587 611,-1053 1244,-1914 694,-3044l-2413 4201c-623,1139 -573,613 -96,1430z"/>
    <path class="fil8" d="M126278 129120c161,-447 466,-2775 544,-3442 422,-3607 -41,-3112 -544,-3406 -397,776 -320,6164 0,6848z"/>
    <path class="fil8" d="M196697 176714c1241,-809 2282,-1277 3751,-2020 1372,-694 3208,-1246 3361,-2816l-3634 2286c-983,547 -3138,1842 -3478,2550z"/>
    <path class="fil8" d="M143997 10245c877,-287 1413,-2006 2041,-3559 -402,-322 -339,-310 -1037,-422 -387,830 -1488,3049 -1004,3981z"/>
    <path class="fil8" d="M148265 45059c1370,-221 2788,-3038 2175,-4066 -975,402 -2134,3038 -2175,4066z"/>
    <path class="fil8" d="M139160 176876c1265,-679 5041,-2965 5360,-4392 -976,189 -478,116 -1252,798 -1264,1115 -3544,2057 -4108,3594z"/>
    <path class="fil8" d="M48639 145360c-385,555 -186,-716 -365,938 -138,1268 900,5745 1285,6780 -28,-1013 -437,-6917 -920,-7718z"/>
    <path class="fil8" d="M196339 172668c400,317 6016,-1663 6665,-3545l-6665 3545z"/>
    <path class="fil8" d="M222079 200752c48,35 4781,1520 5590,0 -683,-341 -4901,-467 -5590,0z"/>
    <path class="fil8" d="M145607 139070c627,-841 1298,-2121 1926,-3072 581,-881 1946,-2234 1557,-3094 -678,574 -3880,5069 -3483,6166z"/>
    <path class="fil8" d="M212127 184203c436,-59 4292,-2068 4510,-3293 -480,32 -4388,1973 -4510,3293z"/>
    <path class="fil8" d="M43546 200642c906,-208 2310,-697 3347,-1078 2348,-863 2255,-954 2194,-1830 -623,192 -1708,989 -2743,1389 -1083,418 -2288,635 -2798,1519z"/>
    <path class="fil8" d="M118869 16206l220 -455c415,-1953 -198,1616 100,-560 310,-2259 730,-2379 324,-3126 -1098,487 -1320,2481 -1252,3124 138,1312 304,788 608,1017z"/>
    <path class="fil8" d="M61203 80778c243,-301 84,84 317,-531 110,-292 191,-709 285,-978 519,-1491 1293,-2849 1811,-5013 -479,240 -3101,5177 -2413,6522z"/>
    <path class="fil8" d="M186839 101895c1808,-482 3509,-1938 3865,-3886 -889,486 -1132,1152 -1904,1933 -885,893 -1251,885 -1961,1953z"/>
    <path class="fil8" d="M222431 202685c783,404 1651,32 2744,-42 1567,-106 1647,166 2575,-602 -889,-462 -4326,28 -5319,644z"/>
    <path class="fil8" d="M35266 174177c933,4 918,-292 1677,-904 862,-695 960,-503 1120,-1898 -1351,435 -2329,1561 -2797,2802z"/>
    <path class="fil8" d="M211971 85005c923,-1636 1155,-3679 0,-4999 -548,1064 -18,1372 64,2518 98,1372 -398,1850 -64,2481z"/>
    <path class="fil8" d="M145892 11378l1872 -3024c240,-1118 6,-1205 -224,-1587 -307,357 -66,-255 -541,779l-1107 3832z"/>
    <path class="fil8" d="M98702 136918c532,-267 2684,-3680 2948,-4684 -787,188 -611,129 -1685,1930 -709,1187 -777,1474 -1263,2754z"/>
    <path class="fil8" d="M213392 186185c1191,40 1366,-454 2029,-1014 774,-652 1167,-660 1346,-1746 -987,298 -2977,2086 -3375,2760z"/>
    <path class="fil8" d="M241605 207518c550,418 -1002,710 2006,15 1278,-296 1114,82 1827,-660 -994,-488 -3174,-85 -3833,645z"/>
    <path class="fil8" d="M102274 168730c961,-713 2709,-3482 3227,-4551 -1134,148 -1196,1004 -1828,2045 -488,804 -1060,1681 -1399,2506z"/>
    <path class="fil8" d="M242738 209036c923,424 2718,75 3709,-234 -588,-392 729,-177 -961,-362 -1031,-113 -2115,57 -2748,596z"/>
    <path class="fil8" d="M101058 65859c759,-256 1685,-1486 1059,-2599 -1063,373 -318,-611 -804,1077 -218,758 -277,913 -255,1522z"/>
    <path class="fil8" d="M214702 188331c899,-1252 2272,-1118 3029,-2731 -1275,197 -2989,1657 -3029,2731z"/>
    <path class="fil8" d="M184975 190766c782,369 1235,256 2200,340 1174,101 1194,497 1446,-519 -1138,-155 -2923,-189 -3646,179z"/>
    <path class="fil8" d="M76666 199182c54,-56 133,-226 153,-176l1097 -1475c-951,-473 -1332,-281 -1349,845l99 806z"/>
    <path class="fil8" d="M38599 175561c639,-589 1619,-1592 1819,-2359l-2278 2224c-348,418 -259,272 -537,889l996 -754z"/>
    <path class="fil8" d="M177342 50425c909,-100 1410,-566 1675,-1323 -1102,262 -1704,198 -1675,1323z"/>
    <path class="fil8" d="M132557 39491c-274,-1296 -85,-928 -1144,-1105 187,1064 82,1150 1144,1105z"/>
    <path class="fil8" d="M119834 196563c-170,491 -225,718 544,1142 517,-845 438,-1470 -544,-1142z"/>
    <path class="fil8" d="M130126 34629c-905,208 -834,1 -774,1068l1004 -77 -230 -991z"/>
    <path class="fil8" d="M142727 180457c404,843 190,915 1199,322 -250,-511 412,-260 -384,-501 -1290,-391 -559,33 -815,179z"/>
    <path class="fil8" d="M103449 67803c655,-625 1474,-1238 923,-2248l-923 2248z"/>
    <path class="fil8" d="M199529 137971c563,602 199,715 1126,283 -211,-420 -122,-1442 -1126,-283z"/>
    <path class="fil8" d="M95351 164590c620,-929 573,-735 -322,-1193 -489,986 -375,724 322,1193z"/>
    <path class="fil8" d="M146252 178160c290,-531 559,-95 0,-1140 -731,354 -1235,556 0,1140z"/>
    <path class="fil8" d="M197796 55184c726,-295 459,538 559,-450 62,-611 299,-258 -265,-401 -1191,-304 -438,616 -294,851z"/>
    <path class="fil8" d="M80418 196751l759 702 310 -1130c-651,82 -857,8 -1069,428z"/>
    <path class="fil8" d="M200455 135033c439,601 94,846 1079,322 -392,-723 -70,-961 -1079,-322z"/>
    <path class="fil8" d="M92918 157906c290,713 98,800 969,322 -383,-686 139,-991 -969,-322z"/>
    <path class="fil8" d="M200373 56081c204,-312 290,112 234,-584 -50,-613 -7,-189 -241,-591 -757,611 -696,504 7,1175z"/>
    <path class="fil8" d="M81943 133263c-116,-715 -171,-810 -870,-937 74,817 -168,839 870,937z"/>
    <path class="fil8" d="M193795 53404l608 839c364,-500 418,-558 44,-1162l-652 323z"/>
    <path class="fil8" d="M136265 43063c263,-606 78,-612 -228,-989 -604,705 -695,640 228,989z"/>
    <path class="fil8" d="M238388 195920c250,-433 333,-423 0,-917 -876,904 -75,810 0,917z"/>
    <path class="fil8" d="M81070 136084c118,-1296 221,233 -216,-333 -881,710 -329,416 0,843 285,-400 158,119 216,-510z"/>
   </g>
  </g>
 </g>
</svg>
