<?xml version="1.0" encoding="UTF-8"?>
<svg version="1.1" viewBox="0 0 280.19106 283.71894" xmlns="http://www.w3.org/2000/svg">
 <defs>
  <linearGradient id="c" x1="379.92" x2="387.75" y1="-298.54" y2="-148.13" gradientUnits="userSpaceOnUse">
   <stop stop-color="#0146a8" offset="0"/>
   <stop stop-color="#0146a8" stop-opacity="0" offset="1"/>
  </linearGradient>
  <linearGradient id="d" x1="381.89" x2="387.75" y1="-310.05" y2="-147.97" gradientTransform="matrix(.17258 0 0 .17916 582.81 629.22)" gradientUnits="userSpaceOnUse">
   <stop stop-color="#edf4fd" stop-opacity=".52846" offset="0"/>
   <stop stop-color="#175bb3" stop-opacity="0" offset="1"/>
  </linearGradient>
 </defs>
 <g transform="translate(-78.911 -711.3)">
  <g transform="matrix(6.9214 0 0 6.9214 -4278 -3241.7)">
   <path transform="matrix(.18443 0 0 .18676 578.21 630.55)" d="m497.42-208.45c0 60.568-49.1 109.67-109.67 109.67-60.568 0-109.67-49.1-109.67-109.67 0-60.568 49.1-109.67 109.67-109.67 60.568 0 109.67 49.1 109.67 109.67z" fill="#103683" stroke-width="1.9"/>
   <path transform="matrix(.17258 0 0 .17916 582.81 629.22)" d="m497.42-208.45c0 60.568-49.1 109.67-109.67 109.67-60.568 0-109.67-49.1-109.67-109.67 0-60.568 49.1-109.67 109.67-109.67 60.568 0 109.67 49.1 109.67 109.67z" fill="url(#c)" stroke-width="1.9"/>
   <g transform="matrix(.29071 0 0 .29071 639.57 576.61)" fill="#fff">
    <path d="m21.547 0.091s-21.827 0.287-21.544 20.059c0.284 19.773 4.253 37.255 10.773 46.998 6.519 9.744 23.242 35.248 42.236 32.67 0 0 9.355-2.007 16.44-6.593l-22.96-18.054s-6.803 4.299-11.055-1.433c-4.253-5.73-17.575-32.381-17.575-32.381s-3.685-8.598 4.536-12.323l-0.851-28.943z"/>
    <path d="m24.099 0.091s1.701-0.571 4.818 1.147c3.118 1.719 3.118 3.15 3.118 3.15l0.284 19.775s-0.851 1.147-1.984 2.291c-1.134 1.146-4.819 2.867-5.387 1.72-0.565-1.145-0.849-28.083-0.849-28.083z"/>
    <path d="m48.401 73.058 6.312-3.332s1.417-0.285 3.684 1.146c2.268 1.436 14.174 10.893 14.174 10.893s1.984 1.719 1.417 3.725c-0.566 2.006-1.984 6.305-1.984 6.305l-23.603-18.737z"/>
   </g>
   <path d="m649.73 572.22c-10.453 0-18.927 8.8021-18.927 19.653 0 0.69207 0.0365 1.3725 0.10375 2.0461 9.234 3.4537 23.346 5.9699 37.752-1.9539 1.4e-4 -0.0308 0-0.0614 0-0.0922 0-10.852-8.4749-19.653-18.927-19.653z" fill="url(#d)" stroke-width="1.9"/>
  </g>
 </g>
</svg>
