<?xml version="1.0" encoding="UTF-8"?>
<svg version="1.0" viewBox="0 0 128.09375 128.09375" xmlns="http://www.w3.org/2000/svg">
 <defs>
  <filter id="g" color-interpolation-filters="sRGB">
   <feGaussianBlur stdDeviation="1.1207242"/>
  </filter>
  <linearGradient id="i" x1="311.59" x2="329.53" y1="356.19" y2="351.04" gradientTransform="translate(1.4465 -236.29)" gradientUnits="userSpaceOnUse">
   <stop stop-color="#280b0b" offset="0"/>
   <stop stop-color="#a02c2c" offset="1"/>
  </linearGradient>
  <linearGradient id="j" x1="380.18" x2="389.57" y1="341.51" y2="317.77" gradientTransform="translate(-5.4452 -241.7)" gradientUnits="userSpaceOnUse">
   <stop stop-color="#fff6d5" offset="0"/>
   <stop stop-color="#e9c6af" offset="1"/>
  </linearGradient>
  <linearGradient id="h" x1="302.62" x2="311.7" y1="313.82" y2="312.02" gradientTransform="translate(-5.4452 -241.7)" gradientUnits="userSpaceOnUse">
   <stop stop-color="#500" offset="0"/>
   <stop stop-color="#a02c2c" offset="1"/>
  </linearGradient>
  <filter id="f" color-interpolation-filters="sRGB">
   <feGaussianBlur stdDeviation="0.4743544"/>
  </filter>
 </defs>
 <g transform="translate(-276.01 -.03125)">
  <path transform="matrix(.98463 .092215 0 1 1.0899 -271.75)" d="m391.99 346.23-75.92 20.42c-3.48 0.94-7.2 1.04-7.59-1.7l-18.7-87.21c-0.87-3.48 7.46-1.2 11.08-2.49l67.2-22.17c5.28-1.74 7.13-0.89 8.23 3.3l21.41 81.48c1.23 4.68-0.18 6.88-5.71 8.37z" fill="#917c6f" filter="url(#g)"/>
  <path d="m390.28 100.78-75.91 20.42c-3.48 0.94-7.2 1.04-7.59-1.69l-18.7-87.21c-0.87-3.49 7.46-1.21 11.08-2.5l67.19-22.16c5.29-1.75 7.14-0.89 8.24 3.3l21.41 81.47c1.23 4.68-0.19 6.89-5.72 8.37z" fill="url(#i)"/>
  <path d="m387.28 99.268-72.3 19.46c-5.16 1-6.19-1.76-6.28-4.36l-16.94-78.83c-0.87-3.49 0.78-5.96 4.4-7.25l67.19-22.17c5.29-1.74 7.14-0.89 8.24 3.3l21.41 81.48c1.23 4.68-0.19 6.88-5.72 8.37z" fill="url(#j)"/>
  <path d="m383.39 95.378-72.3 19.46c-2.85 0.7-3.97 2.01-4.3 4.83l-18.92-88.02c-0.87-3.49 0.78-5.96 4.4-7.25l67.19-22.17c5.29-1.74 7.14-0.89 8.24 3.3l21.41 81.48c1.23 4.68-0.19 6.88-5.72 8.37z" fill="url(#h)"/>
  <path d="m370.97 7.1281 22.03 83.77c1.23 4.68-0.19 6.88-5.72 8.37l-72.3 19.46s-4.56 1.83-6.21-2.92" fill="none" filter="url(#f)" stroke="#520"/>
 </g>
</svg>
