<?xml version="1.0" encoding="UTF-8"?>
<svg viewBox="0 0 158.33 178.31" xmlns="http://www.w3.org/2000/svg">
 <g fill="#005a8b" fill-rule="evenodd" stroke="#b9c9d0" stroke-linecap="round" stroke-width="2">
  <g stroke-linejoin="round">
   <path d="m42.306 80.52l-0.5357 96.607 109.11-45.178 3.572-95-112.14 43.571z"/>
   <path d="m41.592 177.31l-39.755-27.342-0.3317-94.831c23.187-6.0516 33.077 11.99 41.515 22.352l-1.4286 99.821z"/>
  </g>
  <path d="m1 55.224l113.4-41.421c12.59 0.1868 29.098 3.819 42.194 18.86l0.64 40.358c0.214 2.6537 0.37001 5.2784-3.14 6.0703l-110.71 41.785c-2.5 0.834-4.0477-0.714-4.6429-4.642l-0.4184-41.577c-13.806-15.789-24.131-17.944-37.316-19.434z"/>
  <g stroke-linejoin="round">
   <path d="m94.27 95.074v11.696c0.2458 0.978 1.1391 1.754 2.3654 1.572l9.1523-3.625c1.012-0.41 1.29-1.408 1.125-2.046l-0.278-10.34c-0.22-1.2664-0.772-2.092-2.999-1.685l-7.7879 2.9206c-0.6723 0.2096-1.3679 0.3725-1.5778 1.5069z"/>
   <path d="m58.082 42.62l3.2741-27.312 40.154-14.308 2.348 34.076c-2.991-1.0503-4.5854-0.6733-7.5773-4.8412l0.0327-19.589-28.311 9.9893-2.8671 27.15c-2.6115-1.0709-5.3565-1.8082-7.0533-5.1659z"/>
  </g>
 </g>
</svg>
