<?xml version="1.0" encoding="UTF-8"?>
<svg viewBox="0 0 48 48" xmlns="http://www.w3.org/2000/svg" xmlns:xlink="http://www.w3.org/1999/xlink">
 <defs>
  <linearGradient id="a">
   <stop stop-color="#fff" stop-opacity=".8" offset="0"/>
   <stop stop-color="#fff" stop-opacity="0" offset="1"/>
  </linearGradient>
  <radialGradient id="j" cx="24.746" cy="45.809" r="12.09" gradientTransform="matrix(1 0 0 .14094 0 39.353)" gradientUnits="userSpaceOnUse">
   <stop stop-color="#2e3436" offset="0"/>
   <stop stop-color="#2e3436" stop-opacity="0" offset="1"/>
  </radialGradient>
  <linearGradient id="k" x2="0" y1="9.547" y2="42.5" gradientTransform="translate(0 .87733)" gradientUnits="userSpaceOnUse">
   <stop stop-color="#ef2929" offset="0"/>
   <stop stop-color="#a40000" offset="1"/>
  </linearGradient>
  <linearGradient id="l" x2="0" y1="4.675" y2="9.922" gradientUnits="userSpaceOnUse" xlink:href="#a"/>
  <linearGradient id="m" x2="0" y1="16" y2="43.38" gradientUnits="userSpaceOnUse">
   <stop stop-color="#7c0000" offset="0"/>
   <stop stop-color="#2e3436" offset="1"/>
  </linearGradient>
  <linearGradient id="n" x2="0" y1="10.719" y2="42.531" gradientUnits="userSpaceOnUse" xlink:href="#a"/>
  <linearGradient id="o" x2="0" y1="15.169" y2="4.675" gradientUnits="userSpaceOnUse">
   <stop stop-color="#2e3436" offset="0"/>
   <stop stop-color="#2e3436" offset=".446"/>
   <stop stop-opacity="0" offset=".446"/>
   <stop stop-opacity="0" offset="1"/>
  </linearGradient>
  <linearGradient id="p" x2="0" y1="18.661" y2="36.3" gradientUnits="userSpaceOnUse">
   <stop stop-color="#eeeeec" offset="0"/>
   <stop stop-color="#888a85" offset="1"/>
  </linearGradient>
  <linearGradient id="q" x1="8.03" x2="30.11" y1="-20.1" y2="28.15" gradientUnits="userSpaceOnUse">
   <stop stop-color="#fff" offset="0"/>
   <stop stop-color="#fff" stop-opacity="0" offset="1"/>
  </linearGradient>
 </defs>
 <g transform="translate(-.10944 -.75641)">
  <path transform="matrix(1.4362 0 0 1 -11.541 -1.4604)" d="m36.835 45.809a12.089 1.7038 0 1 1 -24.178 0 12.089 1.7038 0 1 1 24.178 0z" fill="url(#j)" opacity=".4"/>
  <path d="m13.594 3.4688c-0.25102 0.042019-0.46148 0.20389-0.5625 0.4375s-0.07882 0.50707 0.0625 0.71875l1.75 2.8125c-1.1582 0.8402-2.2471 1.7946-3.1875 2.9062-1.4544 1.7193-2.5916 3.7513-3.4375 5.9688-1.0173-0.71617-5.201e-4 -5e-3 -2.6562-1.875-0.16338-0.1149-0.36584-0.15989-0.5625-0.125-0.30811 0.04947-0.56246 0.28802-0.625 0.59375-0.062535 0.30573 0.079811 0.61476 0.34375 0.78125 1.7098 1.204 2.0532 1.4277 3 2.0938-0.63458 2.0974-1 4.3475-1 6.6875 0 0.4833 0.00247 0.96241 0.03125 1.4375-1.5215 0.10163-0.00179 0.0025-3.1875 0.21875-0.41421 0.02589-0.74464 0.39829-0.71875 0.8125 0.025888 0.41421 0.39829 0.71339 0.8125 0.6875 1.854-0.12585 2.0008-0.13197 3.25-0.21875 0.41855 3.33 1.5281 6.3907 3.1875 9-1.1849 1.0784-0.0045-0.0074-2.7188 2.4688-0.31066 0.27614-0.33864 0.75184-0.0625 1.0625s0.75184 0.33864 1.0625 0.0625c1.4816-1.3516 1.6097-1.4737 2.5938-2.375 0.23268 0.31143 0.43863 0.6426 0.6875 0.9375 3.0938 3.6661 7.4824 6.0313 12.406 6.0312 4.9239 1e-6 9.3124-2.3651 12.406-6.0312 0.25956-0.30757 0.50807-0.64322 0.75-0.96875 1.1851 1.0832 0.01243-0.0057 2.6562 2.4062 0.31066 0.27614 0.78636 0.24816 1.0625-0.0625s0.24816-0.78636-0.0625-1.0625c-1.5878-1.4486-1.7607-1.6023-2.7812-2.5312 1.6438-2.6046 2.7126-5.6521 3.125-8.9688 1.5274 0.10638 0.0013 0.021 3.375 0.25 0.41421 0.02589 0.75536-0.27329 0.78125-0.6875s-0.27329-0.78661-0.6875-0.8125c-1.896-0.1287-2.0529-0.13084-3.3125-0.21875 0.02879-0.47516 0.0625-0.95413 0.0625-1.4375 0-2.3156-0.34683-4.5463-0.96875-6.625 0.95319-0.669-0.01252 9e-3 3.0625-2.1562 0.30634-0.19013 0.44244-0.56994 0.3125-0.90625-0.12994-0.33632-0.48916-0.53398-0.84375-0.46875-0.11229 0.01746-0.21915 0.0602-0.3125 0.125-1.5565 1.096-1.8042 1.287-2.7188 1.9375-0.84754-2.2436-2.0311-4.2949-3.5-6.0312-0.92534-1.0938-1.9572-2.0435-3.0938-2.875l1.7812-2.8438c0.16048-0.2443 0.15431-0.56426 0-0.8125s-0.42866-0.37954-0.71875-0.34375c-0.21911 0.030626-0.41353 0.15642-0.53125 0.34375l-1.7812 2.8125c-2.3888-1.4396-5.1378-2.2813-8.0625-2.2812-2.9004 0-5.5941 0.8325-7.9688 2.25l-1.75-2.7812c-0.15887-0.25413-0.45378-0.38929-0.75-0.34375z" fill="#2e3436" fill-rule="evenodd"/>
  <path d="m12.469 11.471c1.205-1.3896 1.186-1.4024 0 0zc-2.7213 3.3933-4.4062 7.9572-4.4062 13 0 10.447 7.168 18.906 16 18.906s16-8.4593 16-18.906c0-5.0428-1.685-9.6067-4.4062-13-3.2007 2.2342-7.8075 4.5938-11.594 4.5938-3.7863 0-8.3931-2.3596-11.594-4.5938zm23.188 0c-1.2017-1.3891-1.1891-1.4031 0 0z" fill="url(#k)"/>
  <path d="m24.062 5.5336c-4.5687 0-8.6774 2.301-11.594 5.9375 3.2007 2.2342 7.8075 4.5938 11.594 4.5938 3.7863 0 8.3931-2.3596 11.594-4.5938-2.9163-3.6365-7.025-5.9375-11.594-5.9375z" fill="#555753"/>
  <path transform="translate(0 .87733)" d="m24.062 5.2188c-4.1791 0-7.9232 2.0377-10.719 5.2812 3.1159 2.0819 7.3531 4.125 10.719 4.125 3.3657 0 7.6029-2.0431 10.719-4.125-2.7955-3.2436-6.5397-5.2813-10.719-5.2812z" fill="none" opacity=".8" stroke="url(#l)" stroke-linecap="square" stroke-linejoin="round" stroke-width="1.088"/>
  <path d="m23.062 16.002v27.312c0.33455 0.02467 0.66021 0.0625 1 0.0625s0.66545-0.03783 1-0.0625v-27.312c-0.33631 0.03332-0.67441 0.0625-1 0.0625s-0.66369-0.02918-1-0.0625z" fill="url(#m)"/>
  <path transform="translate(0 .87733)" d="m12.594 11.219c-2.5011 3.2711-4.0625 7.5984-4.0625 12.375 0 10.233 6.9985 18.437 15.531 18.438 8.5327 0 15.531-8.205 15.531-18.438 0-4.7766-1.5614-9.1039-4.0625-12.375-3.2223 2.1882-7.6373 4.4375-11.469 4.4375-3.8314 0-8.2464-2.2493-11.469-4.4375z" fill="none" opacity=".8" stroke="url(#n)" stroke-linecap="square" stroke-linejoin="round"/>
  <path transform="translate(0 .87733)" d="m24.062 5.2188c-4.1791 0-7.9232 2.0377-10.719 5.2812 3.1159 2.0819 7.3531 4.125 10.719 4.125 3.3657 0 7.6029-2.0431 10.719-4.125-2.7955-3.2436-6.5397-5.2813-10.719-5.2812z" fill="none" opacity=".8" stroke="url(#o)" stroke-linecap="square" stroke-linejoin="round" stroke-width="1.088"/>
  <g fill="url(#p)">
   <path transform="matrix(1.4846 0 0 1.4846 -7.1932 -10.354)" d="m17.857 22.078a2.6498 2.5346 0 1 1 -5.2995 0 2.6498 2.5346 0 1 1 5.2995 0z"/>
   <path transform="matrix(.71181 0 0 .71181 7.1851 18.783)" d="m17.857 22.078a2.6498 2.5346 0 1 1 -5.2995 0 2.6498 2.5346 0 1 1 5.2995 0z"/>
   <path transform="matrix(.65217 0 0 .65217 20.612 7.2143)" d="m17.857 22.078a2.6498 2.5346 0 1 1 -5.2995 0 2.6498 2.5346 0 1 1 5.2995 0z"/>
   <path transform="matrix(.96371 0 0 .96371 15.196 11.922)" d="m17.857 22.078a2.6498 2.5346 0 1 1 -5.2995 0 2.6498 2.5346 0 1 1 5.2995 0z"/>
   <path transform="matrix(.65217 0 0 .65217 24.184 12.514)" d="m17.857 22.078a2.6498 2.5346 0 1 1 -5.2995 0 2.6498 2.5346 0 1 1 5.2995 0z"/>
  </g>
  <path d="m24.062 5.5312c-4.4331 0-8.416 2.1072-11.312 5.5312-2.9012 3.4295-4.7188 8.1753-4.7188 13.406-1e-7 2.3448 0.3723 4.5823 1.0312 6.6562 9.4591-5.4236 19.675-9.5826 30.344-12.156-0.77308-3.0298-2.1561-5.7266-4-7.9062-2.8966-3.424-6.9107-5.5313-11.344-5.5312z" fill="url(#q)" opacity=".6"/>
 </g>
</svg>
