<?xml version="1.0" encoding="UTF-8"?>
<svg viewBox="0 0 223.0735 298.60114" xmlns="http://www.w3.org/2000/svg">
 <g transform="translate(-239.74 -384.07)">
  <path transform="matrix(1.2168 0 0 1.2168 -76.15 -121.55)" d="m441.29 560.71c0.01482 49.728-40.294 90.048-90.022 90.048s-90.036-40.32-90.022-90.048c-0.01482-49.728 40.294-90.048 90.022-90.048s90.036 40.32 90.022 90.048z" fill="#784421" stroke="#000" stroke-linecap="round" stroke-linejoin="round" stroke-width="3.2874"/>
  <path d="m454.19 523.12c0.07679 1.6816 0.125 3.3933 0.125 5.0938 0 60.464-49.067 109.53-109.53 109.53-47.262 0-87.591-29.999-102.94-71.969 2.6535 58.112 50.674 104.47 109.44 104.47 60.464 0 109.53-49.067 109.53-109.53 0-13.202-2.3382-25.87-6.625-37.594z" fill-opacity=".31373"/>
  <path d="m359.45 671.28c0 9.0908 14.665 9.3814 32.735 9.3814s32.735 0.69349 32.735-9.3814c0-17.716-14.665-32.094-32.735-32.094s-32.735 14.378-32.735 32.094z" fill="#502d16" stroke="#000" stroke-linecap="round" stroke-linejoin="round" stroke-width="4"/>
  <path d="m435.91 525.42c0 45.174-55.121 81.838-81.838 81.838-25.718 0-81.838-36.663-81.838-81.838s24.625-81.838 81.838-81.838c57.223 0 81.838 36.663 81.838 81.838z" fill-opacity=".31373"/>
  <path d="m332.69 584.91c-9.338 18.385-5.8977 24.749-4.4233 27.224s7.0035-17.376 9.8295-13.789c3.3502 4.2524 0.49147 16.617 1.4744 25.809s4.9509 19.839 5.8977 16.263c1.9659-7.4246 4.4232-32.88 9.338-25.809s9.618 22.816 11.795 16.971c1.8521-4.9724-5.8977-25.809-2.4574-30.052s8.8465 13.081 10.812 8.1317 3.9318-16.263-2.9488-24.395-39.318-0.70711-39.318-0.35355z" fill="#502d16" fill-rule="evenodd" stroke="#000" stroke-width="4"/>
  <path d="m404.78 680.06c0-16.368-9.4428-26.44-9.4428-26.44s3.7771 13.849 3.1476 26.44h6.2952z" fill-opacity=".31373" fill-rule="evenodd" stroke="#000" stroke-linejoin="round" stroke-width="4"/>
  <path transform="translate(239.74 384.07)" d="m108.88 46.344c-30.129 0.61059-50.932 11.653-63.625 28.75-24.064-2.5878-44.062 23.625-44.062 23.625s18.891 9.4463 32.062 1.5312c-2.3992 8.7117-3.5625 18.106-3.5625 27.906 0 45.174 56.126 81.844 81.844 81.844 26.717 0 81.844-36.669 81.844-81.844 0-9.8003-1.1639-19.195-3.5625-27.906 13.171 7.9151 32.031-1.5312 32.031-1.5312s-19.971-26.205-44.031-23.625c-13.062-17.595-34.708-28.75-66.281-28.75-0.89395 0-1.7782-0.01779-2.6562 0z" fill="#784421" stroke="#000" stroke-linecap="round" stroke-linejoin="round" stroke-width="4"/>
  <path transform="matrix(.25175 0 0 .25175 236.55 359.08)" d="m441.29 560.71c0.01482 49.728-40.294 90.048-90.022 90.048s-90.036-40.32-90.022-90.048c-0.01482-49.728 40.294-90.048 90.022-90.048s90.036 40.32 90.022 90.048z" fill="#fff" stroke="#000" stroke-linecap="round" stroke-linejoin="round" stroke-width="15.889"/>
  <path transform="matrix(.25175 0 0 .25175 289.28 359.08)" d="m441.29 560.71c0.01482 49.728-40.294 90.048-90.022 90.048s-90.036-40.32-90.022-90.048c-0.01482-49.728 40.294-90.048 90.022-90.048s90.036 40.32 90.022 90.048z" fill="#fff" stroke="#000" stroke-linecap="round" stroke-linejoin="round" stroke-width="15.889"/>
  <path transform="matrix(.083916 0 0 .083916 343.2 457.18)" d="m441.29 560.71c0.01482 49.728-40.294 90.048-90.022 90.048s-90.036-40.32-90.022-90.048c-0.01482-49.728 40.294-90.048 90.022-90.048s90.036 40.32 90.022 90.048z"/>
  <path transform="matrix(.083916 0 0 .083916 301.17 457.18)" d="m441.29 560.71c0.01482 49.728-40.294 90.048-90.022 90.048s-90.036-40.32-90.022-90.048c-0.01482-49.728 40.294-90.048 90.022-90.048s90.036 40.32 90.022 90.048z"/>
  <path d="m357.25 429.21c16.211-43.592 54.91 3.0947 66.006-5.1066 11.5-8.5 2-32 6-37.5s22.611 33.058 15 47.5c-7.4521 14.141-39.014 12.936-59.692 12.793-11.674-0.07594-29.789-10.115-27.314-17.686z" fill="#502d16" fill-rule="evenodd" stroke="#000" stroke-width="4"/>
  <path transform="translate(239.74 384.07)" d="m190.09 101.34-1.875 2.6562c0.24888 3.0755 0.34375 6.2026 0.34375 9.375 0 45.174-55.127 81.844-81.844 81.844-20.706 2e-5 -61.097-23.756-76.062-56.594 7.6158 40.246 57.172 71.375 80.875 71.375 26.717 0 81.844-36.669 81.844-81.844 0-9.3916-1.0754-18.41-3.2812-26.812z" fill-opacity=".31373"/>
  <path d="m344.46 671.28c0 9.0908-14.665 9.3814-32.735 9.3814s-32.735 0.69349-32.735-9.3814c0-17.716 14.665-32.094 32.735-32.094s32.735 14.378 32.735 32.094z" fill="#502d16" stroke="#000" stroke-linecap="round" stroke-linejoin="round" stroke-width="4"/>
  <path d="m299.13 680.06c0-16.368 9.4428-26.44 9.4428-26.44s-3.7771 13.849-3.1476 26.44h-6.2952z" fill-opacity=".31373" fill-rule="evenodd" stroke="#000" stroke-linejoin="round" stroke-width="4"/>
  <path d="m367.87 564.87c-2.2927 3.9731-6.5002 5.8386-9.3968 4.1663s-3.3847-6.2489-1.0903-10.221 6.5003-5.8386 9.3968-4.1663 3.3847 6.2489 1.0903 10.221z"/>
  <path d="m335.13 564.87c2.2927 3.9731 6.5002 5.8386 9.3968 4.1663s3.3847-6.2489 1.0903-10.221-6.5003-5.8386-9.3968-4.1663-3.3847 6.2489-1.0903 10.221z"/>
  <path d="m344.84 429.21c-16.211-43.592-54.91 3.0947-66.006-5.1066-11.5-8.5-2-32-6-37.5s-22.611 33.058-15 47.5c7.4521 14.141 39.014 12.936 59.692 12.793 11.674-0.07594 29.789-10.115 27.314-17.686z" fill="#502d16" fill-rule="evenodd" stroke="#000" stroke-width="4"/>
 </g>
</svg>
