<?xml version="1.0" encoding="UTF-8"?>
<svg viewBox="0 0 640 480" xmlns="http://www.w3.org/2000/svg">
 <path d="m336.06 445.31c-106.24 0-192.47-86.231-192.47-192.47 0-52.912 21.476-100.76 56.081-135.54l0.1629 0.1629c6.9955-9.6578 18.294-15.996 31.123-15.996 21.247 0 38.51 17.235 38.51 38.482 0 13.029-6.5154 24.51-16.43 31.476l0.1358 0.1358c-20.793 20.941-33.811 49.534-33.811 81.283 0 64.05 52.239 116.04 116.59 116.04 64.349 0 116.56-51.995 116.56-116.04 0-28.976-10.898-55.254-28.597-75.553-10.528-6.8712-17.544-18.708-17.544-32.209 0-21.247 17.262-38.51 38.51-38.51 10.387 0 19.769 4.1945 26.696 10.89l0.5432-0.5432c34.807 34.811 56.379 82.837 56.379 135.92 0 106.24-86.202 192.47-192.44 192.47zm-0.0272-191.14c-21.324 0-38.482-17.47-38.482-39.189v-155.26c0-21.719 17.158-39.189 38.482-39.189s38.51 17.47 38.51 39.189v155.26c0 21.719-17.186 39.189-38.51 39.189z" fill="#ff7f00" fill-rule="evenodd" stroke-dasharray="7.6116890 7.6116890" stroke-linecap="round" stroke-linejoin="round" stroke-opacity=".841" stroke-width="3.806"/>
</svg>
