<?xml version="1.0" encoding="UTF-8"?>
<svg enable-background="new 0 0 441.525 367.796" version="1.1" viewBox="0 0 441.525 367.796" xml:space="preserve" xmlns="http://www.w3.org/2000/svg">
	<linearGradient id="ak" x1="14.48" x2="434.31" y1="186.01" y2="186.01" gradientUnits="userSpaceOnUse">
		<stop stop-color="#1E398D" offset="0"/>
		<stop stop-color="#00B9F2" offset=".9944"/>
	</linearGradient>
	<path d="m407.5 137.44l26.813-9.286-10.312 110.37-128.1 118.06 4.31-34.496s-57.762-37.139-102.12-52.609l-51.583 33.009-107.27-45.38c2.062-70.14-24.76-168.14-24.76-168.14l97.998-73.53 135.87 10.788 9.57 101.94s84.596-11.346 150.61 7.221" fill="url(#ak)"/>
	<path d="m240.06 30.675l1.578 0.73c6.815 32.742 7.794 68.284 12.657 102.49 11.32-1.09 23.251-4.624 34.207-2.675 8.277-0.731 16.795-3.163 24.948-0.368 6.819-0.975 15.461-1.094 22.764-0.73l0.851 0.73c6.939 0.247 15.093-0.975 21.062 1.953 5.352 0.487 11.319-2.316 14.723 2.432 4.992 0.483 12.294-2.072 13.995 4.747 5.234-0.73 9.862-3.166 15.584-1.944 2.437 1.458 2.561 4.744 2.437 7.176 8.029-2.675 15.453-6.932 23.857-8.761l1.09 1.585c-4.863 33.109-8.149 65.361-11.679 99.077-7.431 7.299-16.314 13.146-24.229 20.081l-42.96 37.737-45.768 44.182c-1.461 0.488-0.61-1.219-1.094-1.705 1.214-6.208 1.948-12.534 2.795-18.866-35.294-21.055-71.693-39.314-109.3-54.775-16.798 8.765-33.237 19.965-49.544 30.067-18.871-6.944-36.88-15.824-55.383-23.738-14.97-5.231-29.699-11.2-44.917-15.94-1.458-0.49-1.094-2.439-1.094-3.533l-1.094-18.62-5.965-54.044c-3.774-29.819-8.518-58.672-16.188-86.543l0.611-2.192c29.94-24.952 61.224-47.472 93.352-67.552l68.655 4.624 54.04 4.358z"/>
	<linearGradient id="at" x1="245.28" x2="132.49" y1="152.05" y2="156.91" gradientUnits="userSpaceOnUse">
		<stop stop-color="#808285" offset="0"/>
		<stop stop-color="#A7A9AC" offset=".5843"/>
		<stop stop-color="#C0CFE6" offset=".9944"/>
	</linearGradient>
	<path d="m238.96 33.598c5.23 33.956 7.546 67.433 10.717 101.39-2.68 0.611-5.842 0.364-8.524 1.342-0.24-0.614-0.124-1.585-1.091-1.829l-18.144 2.68-50.874 9.004-12.658 1.953c-2.312 0.607-1.098 3.282-1.098 4.747 3.774 33.713 5.598 69.011 6.333 103.94 2.552 1.342 4.988-1.577 7.671-2.068l0.604-0.604c6.819 2.556 13.879 4.5 20.814 6.812-14.606 8.522-29.947 16.675-44.429 26.05-1.098-50.027-2.192-100.66-9.248-149.47-5.234-37.002-11.691-75.1-20.576-110.52 5.235-1.098 10.833 0 16.199 0 35.65 1.463 69.37 4.634 104.31 6.578z" fill="url(#at)"/>
	<linearGradient id="au" x1="38.576" x2="145.49" y1="169.83" y2="155.63" gradientUnits="userSpaceOnUse">
		<stop stop-color="#808285" offset="0"/>
		<stop stop-color="#A7A9AC" offset=".5843"/>
		<stop stop-color="#C0CFE6" offset=".9944"/>
	</linearGradient>
	<path d="m115.41 28.731c6.082 24.712 12.782 49.173 15.82 75.1l3.417 20.815 6.812 56.112c2.915 34.08 4.744 70.476 4.017 105.77-30.554-13.999-61.954-24.345-93.363-36.271l-0.851-1.099c-2.312-35.05-6.453-68.283-11.687-102.36-3.283-19.11-7.18-37.853-11.563-56.477 27.387-22.391 57.086-43.813 87.394-61.582z" fill="url(#au)"/>
	<path d="m230.68 42.115c1.829 4.017 2.069 8.765 2.796 13.393 2.927 20.324 4.876 41.263 7.311 61.467-0.243 0.611-0.73 0.979-0.73 1.585-28.122 4.624-57.698 6.205-85.209 13.752-3.042-0.12-1.338-4.38-2.432-6.325-3.773-28.118-11.2-55.629-17.285-82.778l3.526-0.85c30.67-1.451 61.33-0.237 92.01-0.237z"/>
	<linearGradient id="av" x1="137.93" x2="238.71" y1="86.432" y2="86.432" gradientUnits="userSpaceOnUse">
		<stop stop-color="#808285" offset="0"/>
		<stop stop-color="#A7A9AC" offset=".5843"/>
		<stop stop-color="#C0CFE6" offset=".9944"/>
	</linearGradient>
	<path d="m230.19 44.674c3.653 24.102 6.703 47.84 8.521 72.062-24.218 3.281-49.418 5.598-73.148 10.589-3.162 0.364-6.089 1.094-9.375 1.094l-5.231-29.216-13.032-53.19c29.47-2.067 61.96-1.583 92.27-1.34z" fill="url(#av)"/>
	<path d="m42.014 95.069c10.342 46.007 16.067 95.912 21.299 143.5 7.059 3.163 14.489 5.231 21.913 7.671 13.512 5.475 28.238 9.248 41.144 15.333-21.673-6.568-42.242-14.481-64.031-21.179-2.069-9.735-2.069-19.841-3.403-29.575l-7.066-56.84c-1.825-7.67-2.552-15.944-4.137-23.861l-6.815-34.815 0.487-1.701c16.678-10.465 32.866-23.61 49.66-33.716l10.103-7.543c-18.38 15.577-39.195 28.965-59.156 42.724z"/>
	<path d="m217.04 59.157c4.867 2.923 2.927 9.012 2.436 13.393-1.701-0.247-4.261 1.945-4.624-0.851 0.239-1.952-1.829-2.556-3.286-2.923-12.534-0.124-26.417 1.582-38.34 5.354-1.945 1.585-1.589 4.38-3.29 5.599-2.432 0-4.748 0.974-6.936 0.974-1.095-4.624-2.799-8.641-1.586-13.632 1.949-2.559 3.773-6.452 7.184-7.183 15.59-1.582 32.76-0.85 48.45-0.731z"/>
	<linearGradient id="aw" x1="219.1" x2="161.09" y1="68.338" y2="69.144" gradientUnits="userSpaceOnUse">
		<stop stop-color="#808285" offset="0"/>
		<stop stop-color="#A7A9AC" offset=".5843"/>
		<stop stop-color="#C0CFE6" offset=".9944"/>
	</linearGradient>
	<path d="m216.8 60.986c2.556 1.218 1.705 4.504 1.589 6.692l-2.683-1.949c-16.184 0.368-31.644 0.612-47.105 4.872-2.799 0.975-4.376 4.868-4.744 6.936-0.615-2.795-1.581-6.085-0.854-8.885 2.068-5.231 8.034-7.786 13.508-8.153l40.28 0.487z" fill="url(#aw)"/>
	<linearGradient id="ax" x1="219.38" x2="159.4" y1="69.433" y2="70.266" gradientUnits="userSpaceOnUse">
		<stop stop-color="#808285" offset="0"/>
		<stop stop-color="#A7A9AC" offset=".5843"/>
		<stop stop-color="#C0CFE6" offset=".9944"/>
	</linearGradient>
	<path d="m217.04 69.507c-0.479 0.73 0.978 1.701-0.364 1.945-0.85-1.705-1.824-3.774-4.02-3.897h-0.604c1.95-1e-3 4.62-0.36 4.98 1.952z" fill="url(#ax)"/>
	<linearGradient id="ay" x1="219.16" x2="161.46" y1="73.139" y2="73.94" gradientUnits="userSpaceOnUse">
		<stop stop-color="#808285" offset="0"/>
		<stop stop-color="#A7A9AC" offset=".5843"/>
		<stop stop-color="#C0CFE6" offset=".9944"/>
	</linearGradient>
	<path d="m193.68 68.409c-6.819 1.465-15.217 1.098-21.914 4.748-3.286 1.461-1.461 6.449-5.961 5.722 0-2.555 1.949-6.209 4.991-7.18 7.3-1.825 15.21-2.923 22.88-3.29z" fill="url(#ay)"/>
	<path d="m217.29 86.058l1.334 13.392-0.847 1.094c-11.32 1.217-22.521 2.923-33.35 4.38-1.949-7.056-2.439-14.85-3.896-22.152l0.603-0.611c11.567-0.731 23.742-2.92 34.818-2.432l1.35 6.333z"/>
	<linearGradient id="az" x1="182.23" x2="216.68" y1="92.023" y2="92.023" gradientUnits="userSpaceOnUse">
		<stop stop-color="#1E398D" offset="0"/>
		<stop stop-color="#00B9F2" offset=".9944"/>
	</linearGradient>
	<path d="m214.49 81.066c1.338 5.722 1.704 11.811 2.188 18.016l-31.16 3.897c-1.458-6.208-2.429-13.148-3.287-19.11 10.35-1.219 21.79-1.826 32.26-2.804z" fill="url(#az)"/>
	<linearGradient id="bb" x1="274.8" x2="265.88" y1="128.38" y2="171.47" gradientUnits="userSpaceOnUse">
		<stop stop-color="#C0870F" offset="0"/>
		<stop stop-color="#FFFBCC" offset="1"/>
	</linearGradient>
	<path d="m252.83 144.36c-1.094 0.611-1.457 1.461-2.191 2.192-0.367 8.035-2.192 16.432-1.825 24.592-4.257-0.978-8.518-2.439-12.905-3.045 0.368-6.329 0.981-14.243 1.949-21.059 14.729-6.94 30.311-11.808 47.108-12.782 7.18-0.487 14.606-2.556 22.148-2.192-18.14 2.55-37.13 5.97-54.3 12.29z" fill="url(#bb)"/>
	<linearGradient id="ba" x1="291.14" x2="282.21" y1="131.77" y2="174.86" gradientUnits="userSpaceOnUse">
		<stop stop-color="#C0870F" offset="0"/>
		<stop stop-color="#FFFBCC" offset="1"/>
	</linearGradient>
	<path d="m324.89 132.8c-19.718 2.064-39.922 6.205-58.058 13.751l-1.585 1.586c-0.371 8.88-1.706 17.892-0.852 26.657l-12.055-3.047c0.124-7.423 0.372-16.435 1.586-24.345 19.597-9.495 42.117-12.538 64.51-14.602 2.19 0.49 4.02-0.12 6.45 0z" fill="url(#ba)"/>
	<linearGradient id="ab" x1="312.79" x2="303.86" y1="136.25" y2="179.34" gradientUnits="userSpaceOnUse">
		<stop stop-color="#C0870F" offset="0"/>
		<stop stop-color="#FFFBCC" offset="1"/>
	</linearGradient>
	<path d="m354.23 133.89c-24.101 2.683-47.959 8.038-70.111 16.679l-1.338 1.701c-1.461 8.521-2.552 17.286-3.286 26.05l-12.054-2.555 1.584-25.926c11.073-5.598 22.641-8.4 34.571-12.051 16.8-2.3 33.11-5.59 50.64-3.89z" fill="url(#ab)"/>
	<linearGradient id="ac" x1="247.7" x2="238.72" y1="122.72" y2="166.05" gradientUnits="userSpaceOnUse">
		<stop stop-color="#C0870F" offset="0"/>
		<stop stop-color="#FFFBCC" offset="1"/>
	</linearGradient>
	<path d="m236.77 143.76l-1.948 1.949-2.195 21.298c-3.403-0.364-7.301-0.971-10.714-2.069-0.116-6.576 0.128-11.683 0.61-18.623 12.423-7.791 28.729-8.888 42.969-11.563-8.64 3.28-19.71 4.74-28.72 9z" fill="url(#ac)"/>
	<linearGradient id="ad" x1="329.28" x2="320.35" y1="139.66" y2="182.75" gradientUnits="userSpaceOnUse">
		<stop stop-color="#C0870F" offset="0"/>
		<stop stop-color="#FFFBCC" offset="1"/>
	</linearGradient>
	<path d="m370.17 137.18c-23.368 4.136-47.349 9.251-69.258 18.379l-2.309 2.436c-1.582 8.278-2.436 15.941-2.68 24.705l-13.392-3.529c0.858-9.004 1.709-17.162 3.534-25.799 17.896-8.038 37.853-12.298 57.57-16.191 8.396-0.975 16.191-2.68 24.828-1.829l1.71 1.83z" fill="url(#ad)"/>
	<linearGradient id="ae" x1="344.84" x2="335.92" y1="142.9" y2="185.98" gradientUnits="userSpaceOnUse">
		<stop stop-color="#C0870F" offset="0"/>
		<stop stop-color="#FFFBCC" offset="1"/>
	</linearGradient>
	<path d="m383.56 139.13c0.371 0.854 0.248 1.949 0.852 2.679-24.219 6.333-48.076 13.636-70.349 24.956-1.949 6.691-3.406 13.021-3.406 20.324l-10.957-3.043c0.121-8.765 1.094-16.918 2.556-25.438 18.016-8.158 37.733-12.538 56.963-17.773 7.424-0.851 14.483-2.679 22.394-2.551l1.96 0.84z" fill="url(#ae)"/>
	<linearGradient id="af" x1="361.45" x2="352.49" y1="146.17" y2="189.39" gradientUnits="userSpaceOnUse">
		<stop stop-color="#C0870F" offset="0"/>
		<stop stop-color="#FFFBCC" offset="1"/>
	</linearGradient>
	<path d="m401.09 144.61v2.188c-24.709 9.738-48.687 21.059-74.002 29.092l-0.495-0.367c-1.334 1.461-4.013 1.337-4.991 3.649l-0.486 10.956-6.325-1.461c-0.611-6.815 0.73-13.265 2.192-19.478 20.691-11.069 42.845-18.743 65.484-25.068 5.474-0.978 11.076-2.435 16.187-3.657 3.04-0.36 1.94 2.32 2.43 4.15z" fill="url(#af)"/>
	<linearGradient id="ag" x1="424.8" x2="330.67" y1="207.6" y2="249.79" gradientUnits="userSpaceOnUse">
		<stop stop-color="#808285" offset="0"/>
		<stop stop-color="#A7A9AC" offset=".5843"/>
		<stop stop-color="#C0CFE6" offset=".9944"/>
	</linearGradient>
	<path d="m414.72 235.29c-34.443 26.532-67.796 58.911-99.928 88.128 2.919-19.965 5.599-41.507 8.761-62.082l5.722-55.989c0.491-6.812 1.585-13.752 1.458-21.056 4.384-3.162 10.105-4.38 14.003-7.302 6.815-1.706 13.631-5.839 20.692-8.278 20.203-8.034 39.674-17.893 59.521-26.9l-4.14 38.704-6.08 54.78z" fill="url(#ag)"/>
	<linearGradient id="ah" x1="431.29" x2="338.78" y1="223.71" y2="239.94" gradientUnits="userSpaceOnUse">
		<stop stop-color="#808285" offset="0"/>
		<stop stop-color="#A7A9AC" offset=".5843"/>
		<stop stop-color="#C0CFE6" offset=".9944"/>
	</linearGradient>
	<path d="m363.84 167.37l-33.472 14.727-1.342 1.461c-3.283 48.079-9.496 95.428-16.675 142.05l-2.432 2.439c7.419-49.305 13.145-99.815 16.188-147.9l15.82-6.448 51.244-19.841c9.008-3.773 17.646-8.034 26.777-11.2l-56.12 24.71z" fill="url(#ah)"/>
	<polygon points="203.9 143.27 204.75 143.02 204.64 143.27" fill="#fff"/>
	<polygon points="200 144.12 202.44 143.51 203.3 143.51" fill="#fff"/>
	<linearGradient id="ai" x1="221.45" x2="212.53" y1="117.33" y2="160.42" gradientUnits="userSpaceOnUse">
		<stop stop-color="#C0870F" offset="0"/>
		<stop stop-color="#FFFBCC" offset="1"/>
	</linearGradient>
	<path d="m220.09 143.76c-1.098 6.94-1.341 14.242-1.465 20.812-3.654-1.091-7.667-1.458-11.44-2.189 1.702-4.991-3.162-13.875 5.119-15.824 2.32-1.59 5.11-2.2 7.79-2.8z" fill="url(#ai)"/>
	<linearGradient id="aj" x1="205.7" x2="196.78" y1="114.06" y2="157.16" gradientUnits="userSpaceOnUse">
		<stop stop-color="#C0870F" offset="0"/>
		<stop stop-color="#FFFBCC" offset="1"/>
	</linearGradient>
	<path d="m210.11 144c-5.965 1.214-11.807 2.555-17.405 4.748l-0.858 1.585 0.495 10.098c-1.833-0.12-5.605 0.484-5.481-2.192-0.124-3.889-0.124-6.206 1.708-9.004 5.234-2.559 11.312-3.046 16.914-4.624 1.22-0.27 3.05-0.51 4.63-0.63z" fill="url(#aj)"/>
	<linearGradient id="al" x1="160.66" x2="189.42" y1="152.09" y2="152.09" gradientUnits="userSpaceOnUse">
		<stop offset=".0112"/>
		<stop stop-color="#58595B" offset=".2584"/>
		<stop stop-color="#808285" offset=".5056"/>
		<stop stop-color="#A7A9AC" offset=".7697"/>
		<stop stop-color="#C0CFE6" offset=".9944"/>
	</linearGradient>
	<path d="m176.76 152.03c-2.196 0.363-4.995 0.854-4.995 3.53-0.24 0.731 0.364 1.582 0.125 2.676l-10.47-0.975c-0.974-1.821-0.974-5.115-0.239-6.568 9-2.556 18.986-2.804 28.238-4.751-3.52 3.17-9.24 2.56-12.65 6.09z" fill="url(#al)"/>
	<linearGradient id="am" x1="208.33" x2="199.41" y1="114.62" y2="157.7" gradientUnits="userSpaceOnUse">
		<stop stop-color="#C0870F" offset="0"/>
		<stop stop-color="#FFFBCC" offset="1"/>
	</linearGradient>
	<path d="m203.53 161.89l-8.15-1.098 0.484-10.098 10.226-3.897c-3.77 3.91-1.7 9.87-2.56 15.1z" fill="url(#am)"/>
	<linearGradient id="an" x1="191.46" x2="182.48" y1="110.87" y2="154.21" gradientUnits="userSpaceOnUse">
		<stop stop-color="#C0870F" offset="0"/>
		<stop stop-color="#FFFBCC" offset="1"/>
	</linearGradient>
	<path d="m183.82 159.34c-1.214-0.487-4.384 0.727-4.264-1.581-0.12-3.046 1.705-5.231 4.264-6.82v8.4z" fill="url(#an)"/>
	<linearGradient id="ao" x1="185.49" x2="176.57" y1="109.92" y2="152.97" gradientUnits="userSpaceOnUse">
		<stop stop-color="#C0870F" offset="0"/>
		<stop stop-color="#FFFBCC" offset="1"/>
	</linearGradient>
	<path d="m177 158.36h-2.926c-0.243-1.822 1.221-3.279 2.683-4.377 0.13 1.83-0.24 2.8 0.25 4.38z" fill="url(#ao)"/>
	<linearGradient id="ap" x1="161.42" x2="320.87" y1="236.08" y2="236.08" gradientUnits="userSpaceOnUse">
		<stop stop-color="#808285" offset="0"/>
		<stop stop-color="#A7A9AC" offset=".5843"/>
		<stop stop-color="#C0CFE6" offset=".9944"/>
	</linearGradient>
	<path d="m216.68 166.28c8.521 2.798 19.354 4.257 28.238 6.329 25.323 6.328 50.878 13.385 75.955 21.055-2.316 38.827-6.937 80.697-12.901 119.65-45.157-24.586-91.172-49.421-140.83-64.147-1.578-29.942-2.803-60.246-5.722-90.069l0.611-0.244c18.85 1.46 36.26 4.63 54.64 7.43z" fill="url(#ap)"/>
	<path d="m410.09 175.77c-0.244 3.286 0.606 7.551-1.578 10.223-5.486 5.234-12.055 8.524-18.136 12.541-9.259 3.894-16.683 14.119-27.878 11.196l-10.71-2.922 0.239-11.564c4.145-1.705 9.985-5.234 14.242-1.944 14.615-1.338 26.538-8.888 37-18.867 0-1.581 0.124-3.773-0.848-5.238 0.488-0.847 1.581-1.214 2.561-1.334 2.57 1.32 4.76 4.61 5.12 7.9z"/>
	<linearGradient id="aq" x1="408.33" x2="359.79" y1="174.84" y2="194.55" gradientUnits="userSpaceOnUse">
		<stop offset=".0112"/>
		<stop stop-color="#58595B" offset=".2584"/>
		<stop stop-color="#808285" offset=".5056"/>
		<stop stop-color="#A7A9AC" offset=".7697"/>
		<stop stop-color="#C0CFE6" offset=".9944"/>
	</linearGradient>
	<path d="m405.46 171.99c0.367 6.328-7.179 9.371-11.563 12.901-8.149 5.478-16.79 9.619-25.927 12.781-4.499 0.854-9.247-0.367-13.383-2.068 3.771-0.243 7.669-4.141 11.198-0.854 14.852-0.486 26.897-8.641 38.094-18.375 2.072-1.949 0.247-4.141 0.487-6.572 0.97 0.11 0.73 1.45 1.09 2.18z" fill="url(#aq)"/>
	<linearGradient id="ar" x1="410.84" x2="362.42" y1="181.28" y2="200.94" gradientUnits="userSpaceOnUse">
		<stop offset=".0112"/>
		<stop stop-color="#58595B" offset=".2584"/>
		<stop stop-color="#808285" offset=".5056"/>
		<stop stop-color="#A7A9AC" offset=".7697"/>
		<stop stop-color="#C0CFE6" offset=".9944"/>
	</linearGradient>
	<path d="m406.57 185.62c-10.594 8.889-23.012 14.606-34.451 21.666-6.209 2.312-13.268 0-19.234-1.824-0.239-3.043 0.367-5.235 0.488-8.278 6.942 2.8 15.584 3.287 22.275-0.487 10.837-4.743 21.426-10.829 30.311-19.473 0.854-1.338 1.581-2.923 1.215-4.747 2.18 3.9 1.94 9.37-0.61 13.14z" fill="url(#ar)"/>
	<path d="m403.88 204.37l-3.283 28.118c-15.216 9.982-29.698 20.081-44.185 31.038-0.611 0.123-1.218 0-1.338-0.607l5.475-37.003 2.191-2.191 39.926-20.205c0.47 0.12 1.2 0.24 1.2 0.85z"/>
	<linearGradient id="as" x1="357.27" x2="401.93" y1="233.16" y2="233.16" gradientUnits="userSpaceOnUse">
		<stop stop-color="#1E398D" offset="0"/>
		<stop stop-color="#00B9F2" offset=".9944"/>
	</linearGradient>
	<path d="m399.14 231.39c-14.003 9.858-28.241 18.743-41.878 29.575 0.735-10.956 3.65-23.49 4.995-35.054 13.018-6.936 26.653-13.389 39.674-20.571-0.23 8.4-1.82 17.41-2.79 26.05z" fill="url(#as)"/>
</svg>
