<?xml version="1.0" encoding="UTF-8"?>
<svg width="625" height="500" viewBox="0 0 366.0 288.0" xmlns="http://www.w3.org/2000/svg">
 <defs>
  <linearGradient id="a" x1="-1.874e-16" x2=".19928" y1=".5" y2=".47849">
   <stop stop-color="#cbcfd5" offset="0"/>
   <stop stop-color="#919ba8" offset=".44687"/>
   <stop stop-color="#57677b" offset="1"/>
  </linearGradient>
 </defs>
 <g transform="translate(-.38695 28.317)">
  <path d="m22.03 147.96c-4.0055 5.3407-6.3152 12.734-6.0083 19.026 0.36064 7.393 1.8577 17.77 8.0111 22.03 26.392 18.271 58.741 38.033 89.624 45.563 16.349 3.9861 37.384-1.7904 52.072-11.015 40.054-25.156 75.645-60.46 112.15-92.127 12.558-10.892 22.206-25.199 35.048-35.549 9.5219-7.6744 21.363-12.35 32.044-18.526 2.3366-3.5048 4.3193-6.7327 5.0069-10.515 0.64758-3.5617-1e-5 -8.6786-3.0042-11.015-40.222-15.355-78.442-31.21-118.66-46.564-17.357-2.5035-22.698 16.523-52.072 13.519l-49.068 45.062-105.15 80.111z" fill="url(#a)" fill-rule="evenodd"/>
  <path d="m347 55c-29.743-16.905-64.872-27.244-97-38.709-12.589-4.4925-28.36-12.832-42-9.4634-31.496 7.7776-53.571 33.821-76 55.095-10.752 10.198-23.052 19.049-35 27.784-20.759 15.177-41.331 30.63-62 45.93-9.1156 6.748-19.257 13.599-16.588 26.364 1.9927 9.532 10.807 13.225 18.588 17.277 16.665 8.677 32.933 18.176 50 26.058 10.073 4.651 19.731 10.337 31 11.439 31.897 3.122 59.379-22.756 82-41.152 19.721-16.039 41.268-30.759 59.864-48.079 11.683-10.881 20.67-24.401 32.155-35.462 10.825-10.427 25.14-17.286 37.981-24.877 5.88-3.4763 13.317-6.2422 17-12.203z" fill="#9aafd1"/>
  <path d="m119 193c10.076 6.4661 22.596 4.0688 27.248 0.74827 1.113-4.257-3.9146-7.7543-7.2486-9.5343-8.282-4.424-17.475-0.2-19.999 8.786z" fill="#79a063"/>
  <path d="m129 185c1.1801 2.8468 1.2982 3.0383-0.70808 6.4162 4.2216-1.3572 4.3716-1.1211 8.4162-0.35404-1.2391-2.7495-1.5932-2.8437 0-6.1243-3.9855 1.2599-4.4306 0.7495-7.7081 0.06213z" fill="#a9bb91"/>
  <path d="m77 125c6.7256 8.901 23.233 10.837 28-1l-14 4.708-14-3.708z" fill="#698759"/>
  <path d="m164.2 91.754c5.8624 2.4055 8.8096 4.0949 13.75 4.1044 3.238 0.0062 12.04-3.4233 8.0604-9.3391-5.889-8.5044-20.04-3.4094-21.81 5.2347z" fill="#7aa067"/>
  <path d="m112.34 165.28c11.235 6.5332 17.446 6.1379 25.07-0.64937 2.6589-2.3671-4.0965-8.3504-7.7195-9.3604-8.6299-2.4056-15.429 0.87585-17.35 10.01z" fill="#79a063"/>
  <path d="m137 162c-7.472 12.089-14.613 5.509-25 3 5.597 11.869 25.126 9.634 28-3h-3z" fill="#5d7257"/>
  <path d="m104.77 137.3c11.235 6.5332 17.446 6.1379 25.07-0.64937 2.6589-2.3671-4.0965-8.3504-7.7195-9.3604-8.6299-2.4056-15.429 0.87585-17.35 10.01z" fill="#79a063"/>
  <path d="m99.132 112.62c11.235 6.5332 14.968 5.4299 22.592-1.3574 2.6589-2.3671-1.6182-7.6424-5.2412-8.6523-8.6299-2.4056-15.429 0.87585-17.35 10.01z" fill="#79a063"/>
  <path d="m124.31 123.51c11.235 6.5332 22.756 3.3056 26.486-2.0655 2.0304-2.9241-3.7425-5.5181-7.3655-6.528-8.6299-2.4056-17.199-0.54032-19.121 8.5936z" fill="#79a063"/>
  <path d="m151.35 134.02c11.235 6.5332 23.758 2.3042 25.485-1.8152 1.3763-3.2832-2.7411-5.7684-6.3641-6.7784-8.6299-2.4056-17.199-0.54032-19.121 8.5936z" fill="#79a063"/>
  <path d="m132.29 149.59c11.235 6.5332 23.758 2.3042 25.485-1.8152 1.3763-3.2832-2.7411-5.7684-6.3641-6.7784-8.6299-2.4056-17.199-0.54032-19.121 8.5936z" fill="#79a063"/>
  <path d="m138.8 176.63c12.486 11.79 22.816 2.5582 27.237-1.0641 0.82764-4.3216-4.4212-7.477-7.8662-9.0315-8.5577-3.8638-17.45 0.96175-19.371 10.096z" fill="#79a063"/>
  <path d="m91.518 181.1c10.484 5.7822 22.816 2.5582 27.237-1.0641 0.82764-4.3216-4.4212-7.477-7.8662-9.0315-8.5577-3.8638-17.45 0.96175-19.371 10.096z" fill="#79a063"/>
  <path d="m174 59c3.854 9.4309 12.303 0.7079 17-3.4389 5.308-4.6866 13.679-16.101 21-16.998 5.362-0.6572 13.041 3.9009 18 5.7517 13.648 5.0936 27.255 10.34 41 15.166 6.631 2.3284 12.848 5.7685 20 4.5193-2.355-5.2224-11.848-7.8289-17-9.9633-15.111-6.2608-30.847-11.24-46.04-17.434-4.92-2.0057-13.615-6.9401-18.96-5.5373-11.91 3.1261-24.916 20.596-35 27.935z" fill="#6b6b6b"/>
  <path d="m180 65v-1l-6-5c11.529-6.0311 25.127-17.66 33-28-10.264 5.3696-20.383 15.296-28.93 23.147-5.024 4.6146-5.839 9.8107 1.93 10.853z" fill="#7c8491"/>
  <path d="m181 65 55 23.915 20 6.9471 11-8.8435 21-21.018c-17.555-8.9628-37.536-14.423-56-21.314-5.447-2.0329-15.171-7.8574-21-6.5496-9.537 2.1399-24.266 19.218-30 26.864z" fill="#d6d6d6"/>
  <path d="m137.25 81.249c4.861-1.3497 9.06 1.8418 14 1.8513 3.238 0.0062 13.292-1.1702 10.063-5.8343-5.889-8.5044-22.293-4.6611-24.063 3.983z" fill="#7aa067"/>
  <path d="m146 75c1.306 5.5203 4.128 5.1328 9 4-2.384-3.4853-4.902-3.8611-9-4z" fill="#9eb587"/>
  <path d="m137 80c4.241 9.3556 20.977 9.535 25 0-10.756 3.0136-14.188 2.8666-25 0z" fill="#61745f"/>
  <path d="m164.5 90.747 1.2504 1.0014c2.136-10.084 8.3557-9.3928 17.752-8-8.607-6.0779-18.845-3.3248-19.003 6.9986z" fill="#9d9d9d" fill-opacity=".76471"/>
  <path d="m171 84v9c7.017-1.23 5.966-6.7222 0-9z" fill="#b9c4a1"/>
  <path d="m117 98c10.791 4.8563 16.92 5.799 27-3-7.135-7.8657-23.76-9.8784-27 3z" fill="#79a063"/>
  <path d="m128 91c-1.32 4.7215-1.327 7.2532 4 8l3-3-7-5z" fill="#b5c29d"/>
  <path d="m164 91c4.283 9.595 18.775 9.131 23 0-10.501 3.8237-12.182 2.8843-23 0z" fill="#5b6e53"/>
  <path d="m191.39 99.126c6.0133-3.9315 10.723-4.5044 17.726-3.2841-5.8978-4.2859-14.595-3.9761-17.726 3.2841z" fill="#a0a0a0" fill-opacity=".76471"/>
  <path d="m117 98c6.753 9.436 23.529 7.694 29-2l-1-1-15 6.331-13-3.331z" fill="#5d7354"/>
  <path d="m190,102c2.337,1.342 4.539,3.276 7.081,4.207 4.01,1.468 17.364.452 13.552-6.8347-4.446-8.4968-17.521-4.1264-20.633,2.6277z" fill="#7aa066"/>
  <path d="m195 101 10 1c-1.618-4.9241-8.139-6.5885-10-1z" fill="#b8c4a0"/>
  <path d="m98 114h1c1.157-4.684 5.74-14.031 11-8h1l4-4c-9.2-3.0675-16.68 2.679-17 12z" fill="#85a58b"/>
  <path d="m145 105c-2.6939 10.86 14.685 6.0625 25 5 0.514-12.287-17.089-9.4991-25-5z" fill="#79a063"/>
  <path d="m212 101c-6.276 9.686-13.931 4.163-22 1 2.634 10.728 22.632 9.464 25-1h-3z" fill="#5e725a"/>
  <path d="m111 103c2.6026 6.2071-6.4783 6.0414-6 8l11-3-5-5z" fill="#b8c4a0"/>
  <path d="m152 105v2h8v-4l-8 2z" fill="#c5cbad"/>
  <path d="m217.58 115.06c9.822 5.496 14.705 1.0329 23.416-4.0621v-1l-2.5838-0.70808c-7.0085-7.5032-17.139-2.524-20.832 5.7702z" fill="#769a67"/>
  <path d="m144 108c3.948 9.402 21.255 7.777 26 0-10.838 2.142-14.981 3.373-26 0z" fill="#5d7158"/>
  <path d="m110,118c6.183-.455 12.354-2.454 14-9l-14,9z" fill="#596d4f"/>
  <path d="m224 110c1.604 6.226 6.175 3.774 8-1l-8 1z" fill="#bac5a4"/>
  <path d="m238 111c-6.345 9.552-12.33 3.474-21 4v2c8.35 3.676 21.337 5.476 24-6h-3z" fill="#5d7256"/>
  <path d="m99 112c1.259 4.307 5.944 4.714 10 5l-10-5z" fill="#5c7151"/>
  <path d="m171 118v1l15 3.756 12-1.756c1.117-2.974-3.511-7.2252-6.06-8.4372-10.139-2.7288-14.077 0.52521-20.94 5.4372z" fill="#79a064"/>
  <path d="m134.51 118.75c-3.6255 0.0747-3.2272 2.7793-1.7477 3.7988s3.5395 1.3552 6.2415 1.4488c0.83333-0.66667 1.4163-2.0844 1.2483-3.2517 1.0837 0.33471 2.9184-0.0816 3.7517-0.74827-0.9805-3.7235-3.0985-4.8625-5.6624-4.8761s-6.0743 2.0995-3.8314 3.6286z" fill="#b8c4a0"/>
  <path d="m135.15 119.89-0.69607 1.2878 2.7747 1.2922 0.69607-1.2878-2.7747-1.2922z" fill="#91ad7a"/>
  <path d="m181,116v2c3.386.613 4.711.26 6-3l-6,1z" fill="#a5b991"/>
  <path d="m78 125c11.736 6.6514 15.48 5.4802 27-1-8.7597-8.22-21.328-10.839-27 1z" fill="#789f64"/>
  <path d="m137.41 116.46-0.64467 1.4131 2.5757 1.4148 0.64467-1.4131-2.5757-1.4148z" fill="#91ad7a"/>
  <path d="m171 119c4.571 10.003 22.59 10.203 27 0-11.155 3.288-15.728 1.94-27 0z" fill="#5e7356"/>
  <path d="m199,131 16,3.375 10-3.375c.323-7.846-14.323-13.157-20.735-10.177-3.682,1.711-4.285,6.686-5.265,10.177z" fill="#7aa068"/>
  <path d="m124 123c3.254 11.172 25.379 9.095 28-2l-13.001 6.199-14.999-4.199z" fill="#5d7156"/>
  <path d="m87.75 118.75 4.0042 4.4979-2.0097 3.0042 8.0055-5.5021-10-2z" fill="#c4cbac"/>
  <path d="m93.288 121.14-2.2456-0.925-0.2515 0.22002 1.7893 1.9021 1.3042-0.56306-0.59643-0.63402z" fill="#9fb588"/>
  <path d="m150 133h1c7.507-10.72 14.222-8.991 25-4-7.828-9.493-21.73-7.666-26 4z" fill="#a5a5a5" fill-opacity=".76471"/>
  <path d="m216 130-2-7c-8.148 1.134-4.052 6.421 2 7z" fill="#bdc7a5"/>
  <path d="m76 124v4c-6.5181 0.027-12.41 0.153-15 7h1c6.9009-7.733 17.475-4.717 22 4h1l-1-6 9 1v-1c-5.4466-1.049-12.843-3.52-15-9h-2z" fill="#b4b4b4" fill-opacity=".76536"/>
  <path d="m164.7 130.96c-1.1231 1.5897-2.9358 2.2974-5.4379 2.1229 2.7052 2.0064 3.7566 1.44 5.2825 0.62695 13.519-6.8223-3.7232-13.07 0.15533-2.7499z" fill="#b8c4a0"/>
  <path d="m114 126 15 6c-4.118-4.412-9.084-5.735-15-6z" fill="#97b09a"/>
  <path d="m115.48 135.42-5.2504-1c1.745 4.963 8.8465 4.003 9.4999 0.17417 0.0095-1.4376-4.4817-5.7723 1.8301-3.1116 2.5156 1.0604-1.4402-4.1381-4.6887-2.2196-1.8709 1.105-2.5005 3.4547-1.3909 6.157z" fill="#b9c4a1"/>
  <path d="m198 131c5.995 9.443 23.012 8.885 27-2-11.113 4.812-15.106 4.545-27 2z" fill="#5c7055"/>
  <path d="m60 143c0-0.791-0.5657-2.2 1-1.667 10.95 5.3151 11.931 5.1214 23-2.333-2.5523-6.796-10.785-11.041-17.919-8.06-4.1328 1.727-9.1996 7.835-6.0812 12.06z" fill="#79a064"/>
  <path d="m177 130c-9.765 10.456-15.492 5.131-27 3 6.442 10.835 25.9 10.52 29-3h-2z" fill="#5d7155"/>
  <path d="m68 140 8-7c-4.2781 1.136-6.4408 2.827-8 7z" fill="#c0c8a8"/>
  <path d="m129 135c-7.379 8.948-15.575 4.958-25 2 4.705 10.902 24.86 9.231 28-2h-3z" fill="#607659"/>
  <path d="m179 147.21c3.8504 0.87806 7.5651 2.4 11.587 2.6686 2.25 0.14959 4.5782 0.05668 6.8075-0.22672 21.838-2.7764-2.2615-22.505-15.519-8.8922-1.9545 2.0089-2.4822 3.9973-2.8754 6.4503z" fill="#79a063"/>
  <path d="m59 141c6.9929 9.948 20.32 8.242 26-2l-13.019 5.491-12.981-3.491z" fill="#5e7357"/>
  <path d="m187 139v7h8c-1.538-4.079-3.744-6.038-8-7z" fill="#d0d2b8"/>
  <path d="m192 141v1l3 3h1v-5l-4 1z" fill="#a3b792"/>
  <path d="m84.001 153.25 15.771 3.8314 14.479-5.83c-9.7115-12.726-23.717-13.042-30.25 1.9986z" fill="#79a063"/>
  <path d="m144 150c2.1701-1.4993 1.5864-3.7496-1-6h5v-2c-7.239 0.111-15.032 7.202-4 8z" fill="#c8cdaf"/>
  <path d="m180.48 141.65-2.4783 8.354c-10.052 0-18.84 1.446-21 13-8.188 0.112-16.057 3.305-18 12h1c7.408-13.5 17.675-7.022 28-1l-2-6c-6.785-4.37-6.354-13.543 2.227-16.288 6.122-1.959 14.479 2.339 17.773 7.288h1l-1-5h11v-1c-10.487-5e-3 -12.77-1.306-16.522-11.354z" fill="#b4b4b4" fill-opacity=".76471"/>
  <path d="m37 156 14.96 3.699 13.04-3.699c1.122-4.286-7.0487-11.263-11.036-11.847-8.2022-1.203-14.98 4.532-16.964 11.847z" fill="#79a063"/>
  <path d="m50.122 147.11c-5.3241 2.152-2.535 8.127 2.6018 5.797 4.5108-2.046 2.0028-7.657-2.6018-5.797z" fill="#abbc93"/>
  <path d="m179 147c4.851 9.972 22.769 7.201 28-1-11.375 1.962-16.55 3.221-28 1z" fill="#5a6e53"/>
  <path d="m132 149c5.274 11.823 22.666 8.691 27-2l-12.984 6.163-14.016-4.163z" fill="#5e7356"/>
  <path d="m84 153c6.8627 10.138 24.886 9.819 30-2l-15 5.676-15-3.676z" fill="#5d7156"/>
  <path d="m160,162 14,3.441 13-3.441c.916-7.939-12.549-12.071-18.773-10.566-4.952,1.197-7.069,6.123-8.227,10.566z" fill="#79a065"/>
  <path d="m168 158 4 3h1l1-8-6 5z" fill="#d5d4bd"/>
  <path d="m37 156c6.669 10.73 21.951 7.62 28-2l-13.04 5.502-14.96-3.502z" fill="#5e7258"/>
  <path d="m126.5 156.25c2.4191 2.5851 4.0899 6.5851-0.74828 4.7483 3.3402 6.1756-5.3361 0.8354-7.0028 0.50207 1.829 4.106 4.715 4.74 9 5 1.1664-2.6685 1.0811-3.3342 4.2504-5.0014-0.58138-2.6676-1.6634-4.0834-5.4993-5.249z" fill="#c2c9a9"/>
  <path d="m174 155-1 6h-1v-3h-1v4l6-4v-2l-3-1z" fill="#b2c09c"/>
  <path d="m64 169.25c4.2779 0.80192 8.518 1.7396 12.831 2.4259 24.971 3.9738 11.07-23.807-7.8558-9.3028-2.5915 1.9855-3.8139 4.2481-4.9749 6.8768z" fill="#79a063"/>
  <path d="m159 162c5.926 10.002 23.729 9.162 28-2-12.262 3.784-15.358 4.723-28 2z" fill="#5a6e50"/>
  <path d="m74 164 1 3h2l1-3h-4z" fill="#c6ccad"/>
  <path d="m64 169c6.1826 9.418 22.603 7.459 26.748-3l-11.481 5.742-15.267-2.742z" fill="#5d7057"/>
  <path d="m118 193c5.424 8.983 25.68 11.059 30 0-12.249 5.166-17.8 2.411-30 0z" fill="#60745c"/>
  <path d="m99 174 8 6 3-3v-3h-11z" fill="#adbe96"/>
  <path d="m165,174c-4.315,5.287-9.311,7.304-16,8v2c8.047-.013 16.899-.792 19-10h-3z" fill="#596d50"/>
  <path d="m138 176c1.908 4.597 5.258 5.596 10 6l-10-6z" fill="#586c4f"/>
  <path d="m91 181c4.8427 10.905 24.201 6.592 29-2l-14 5.746-15-3.746z" fill="#60735e"/>
  <path d="m207 31h6-6z" fill="#8793a7"/>
  <path d="m149 171c2.3333 2.668 4.6667 4.0844 7 5-2.083-2.1674-3.4149-3.083-7-5z" fill="#cdcfb4"/>
  <path d="m100.81 146.46c1.1001-1.3745-2.1386-2.1883-2.8264-3.2786 6.6242-0.60818 6.7231 5.9371 1.6365 6.5173-3.4593 0.09301-8.3996-1.3478-1.8841 5.0389 1.5551 1.5244-7.2297-2.0568-5.378-5.0674 1.8672-3.0356 7.3154-1.7902 8.452-3.2102z" fill="#b9c4a1"/>
  <path d="m135.28 190.51c-0.90773-2.2044-0.99685-2.3521 0.40051-5.024-3.0424 1.1298-3.1556 0.94794-6.107 0.41541 0.94887 2.1275 1.2077 2.1952 0.10865 4.7842 2.8726-1.0499 3.205-0.6586 5.5979-0.17569z" fill="#cbcfb4"/>
  <path d="m166.96 126.9-1.2053 0.63912 0.86932 2.3439 1.2053-0.63912-0.86932-2.3439z" fill="#91ad7a"/>
  <path d="m142.36 145.22-1.2053 0.63912 0.86932 2.3439 1.2053-0.63912-0.86932-2.3439z" fill="#91ad7a"/>
 </g>
</svg>
