<?xml version="1.0" encoding="UTF-8"?>
<svg viewBox="0 0 48 48" xmlns="http://www.w3.org/2000/svg" xmlns:xlink="http://www.w3.org/1999/xlink">
 <defs>
  <linearGradient id="a">
   <stop offset="0"/>
   <stop stop-opacity="0" offset="1"/>
  </linearGradient>
  <linearGradient id="d" x2="0" y1="-150.7" y2="327.66" gradientUnits="userSpaceOnUse">
   <stop stop-opacity="0" offset="0"/>
   <stop offset=".5"/>
   <stop stop-opacity="0" offset="1"/>
  </linearGradient>
  <linearGradient id="f" x1="6.7857" x2="42.214" gradientUnits="userSpaceOnUse">
   <stop stop-color="#e2e2e2" offset="0"/>
   <stop stop-color="#9f9f9f" offset="1"/>
  </linearGradient>
  <linearGradient id="e" x1="13.357" x2="42.214" y1="15.214" y2="29.214" gradientUnits="userSpaceOnUse">
   <stop stop-color="#e7ebeb" offset="0"/>
   <stop stop-color="#e6ebeb" offset=".5"/>
   <stop stop-color="#fff" offset="1"/>
  </linearGradient>
  <radialGradient id="b" cx="605.71" cy="486.65" r="117.14" gradientTransform="matrix(-2.7744 0 0 1.9697 112.76 -872.89)" gradientUnits="userSpaceOnUse" xlink:href="#a"/>
  <radialGradient id="c" cx="605.71" cy="486.65" r="117.14" gradientTransform="matrix(2.7744 0 0 1.9697 -1891.6 -872.89)" gradientUnits="userSpaceOnUse" xlink:href="#a"/>
 </defs>
 <g transform="matrix(.022948 0 0 .022768 44.756 36.743)">
  <path d="m-1559.3-150.7h1339.6v478.36h-1339.6z" fill="url(#d)" opacity=".40206"/>
  <path d="m-219.62-150.68v478.33c142.87 0.90045 345.4-107.17 345.4-239.2s-159.44-239.13-345.4-239.13z" fill="url(#c)" opacity=".40206"/>
  <path d="m-1559.3-150.68v478.33c-142.87 0.90045-345.4-107.17-345.4-239.2s159.44-239.13 345.4-239.13z" fill="url(#b)" opacity=".40206"/>
 </g>
 <path d="m4.8571 38.429c-0.21429 1 0.60714 2.0357 1.9643 2h36.179c1.2857-0.03571 1.7143-1.2143 1.4286-2.1786l-7.8571-28.821h-26l-5.7143 29z" fill="#a7a7a7" fill-rule="evenodd" stroke="#656565"/>
 <path d="m9.1625 30.806h30.233c0.8572 0 1.5473 0.67229 1.5473 1.5074l1.3272 4.8009c0 0.83508-0.69009 1.5074-1.5473 1.5074h-32.445c-0.8572 0-1.5473-0.67229-1.5473-1.5074l0.88479-4.8009c0-0.83508 0.69009-1.5074 1.5473-1.5074z" fill-rule="evenodd" opacity=".10857" stroke="#000"/>
 <path d="m6.0478 37.806c-0.19986 0.93269-0.39865 1.5797 0.47492 1.5797h36.315c0.91606 0 0.74175-0.73969 0.47527-1.6391l-7.5425-27.274h-24.25l-5.4725 27.334z" fill="none" stroke="#fff" stroke-opacity=".34463"/>
 <path d="m9.6418 29.929h29.288c0.83042 0 1.4989 0.65128 1.4989 1.4603l1.2857 4.6509c0 0.80898-0.66853 1.4603-1.4989 1.4603h-31.431c-0.83042 0-1.4989-0.65128-1.4989-1.4603l0.85714-4.6509c0-0.80898 0.66853-1.4603 1.4989-1.4603z" fill="#c5c5c5" fill-rule="evenodd" stroke="#696969"/>
 <path d="m9.6418 27.786h29.288c0.83042 0 1.4989 0.65128 1.4989 1.4603l1.2857 4.6509c0 0.80898-0.66853 1.4603-1.4989 1.4603h-31.431c-0.83042 0-1.4989-0.65128-1.4989-1.4603l0.85714-4.6509c0-0.80898 0.66853-1.4603 1.4989-1.4603z" fill="url(#f)" fill-rule="evenodd" stroke="#696969"/>
 <g transform="matrix(.94255 0 0 .94255 -.22262 1.8559)" stroke-width="1.061">
  <path d="m10.892 11.5-4.3205 21.714h26.286c12.585 0 15.228-4 15.228-4s-3.3571-1.1786-4.7857-6.1429l-3.061-11.571h-29.347z" fill="url(#e)" fill-rule="evenodd" stroke="#696969"/>
  <path d="m11.804 12.475-3.9915 19.765h24.426c11.227 0 14.11-2.8509 14.11-2.8509s-2.9931-1.8628-4.2934-6.3815l-2.7386-10.461-27.513-0.07143z" fill="none" stroke="#fff"/>
 </g>
 <path d="m11.316 7.4286h25.179c0.87312 0 1.576 0.66877 1.576 1.4995l0.35714 2.1439c0 0.83071-0.70291 1.4995-1.576 1.4995h-25.893c-0.87312 0-1.576-0.66877-1.576-1.4995l0.35714-2.1439c0-0.83072 0.70291-1.4995 1.576-1.4995z" fill="#9b9b9b" fill-rule="evenodd" stroke="#696969"/>
 <path d="m20.96916,22.39302c.98841.09376 1.72238.3724 2.2019.83594s.67799,1.04428.59362,1.75782c-.12381,1.04688-.68877,1.89063-1.69488,2.53126s-2.30754.96094-3.90424.96094c-1.22582,0-2.25911-.19271-3.09989-.57813l.24021-2.03126c.88344.60938 1.88778.91407 3.01302.91407 .89893,0 1.60766-.14583 2.12619-.4375 .51914-.29688.81044-.71354.87388-1.25001 .06651-.5625-.14256-.97396-.62723-1.23438s-1.29278-.39062-2.42429-.39063h-1.27296l.20695-1.75001h1.35783c.89264,1e-005 1.59071-.13541 2.09421-.40625 .50411-.27604.78603-.66666.84579-1.17188 .05604-.47395-.09073-.85416-.4403-1.14063s-.9047-.42968-1.66533-.42969c-.9618,1e-005-1.90342.28126-2.82486.84375l.23005-1.94532c1.03239-.43749 2.18977-.65624 3.47217-.65625 1.23838,1e-005 2.18854.25782 2.85049.77344 .66822.51564.9549,1.17449.86006,1.97657-.08809.7448-.38331,1.35418-.88567,1.82813s-1.21067.80209-2.12671,1"/>
 <path d="m33.007 28.456h-2.5082l-1.1113-9.3594-3.0925 0.79688-0.20872-1.7578 5.5413-1.2969 1.3794 11.617"/>
 <path transform="matrix(.68421 0 0 .68421 3.5602 2.2782)" d="m12.857 9.9286a1.3571 1.3571 0 1 1 -2.7143 0 1.3571 1.3571 0 1 1 2.7143 0z" fill="#fefefe" fill-rule="evenodd" opacity=".52571"/>
 <path d="m13.042 8.601h23.329" fill="none" opacity=".30286" stroke="#fff" stroke-linecap="round"/>
</svg>
