<?xml version="1.0" encoding="UTF-8"?>
<svg viewBox="0 0 500 275" xmlns="http://www.w3.org/2000/svg" xmlns:xlink="http://www.w3.org/1999/xlink">
 <defs>
  <filter id="ab" x="-.04434" y="-.10972" width="1.0887" height="1.2194">
   <feGaussianBlur stdDeviation="28.48009"/>
  </filter>
  <linearGradient id="b">
   <stop stop-color="#b88100" offset="0"/>
   <stop stop-color="#b88100" stop-opacity="0" offset="1"/>
  </linearGradient>
  <linearGradient id="d">
   <stop stop-color="#ffc022" offset="0"/>
   <stop stop-color="#ffff3e" offset="1"/>
  </linearGradient>
  <linearGradient id="c">
   <stop stop-color="#ffff3e" offset="0"/>
   <stop stop-color="#ffc022" offset="1"/>
  </linearGradient>
  <linearGradient id="f">
   <stop stop-color="#fff" offset="0"/>
   <stop stop-color="#fff" stop-opacity="0" offset="1"/>
  </linearGradient>
  <linearGradient id="h">
   <stop stop-color="#0e232e" offset="0"/>
   <stop stop-color="#2d2d2d" offset="1"/>
  </linearGradient>
  <linearGradient id="x" x1="247.96" x2="190.11" y1="785.28" y2="789.24" gradientUnits="userSpaceOnUse">
   <stop stop-color="#ccc" offset="0"/>
   <stop stop-color="#ccc" stop-opacity="0" offset="1"/>
  </linearGradient>
  <linearGradient id="w" x1="-1062.4" x2="-1116.5" y1="68.47" y2="183.34" gradientUnits="userSpaceOnUse">
   <stop stop-color="#ccc" offset="0"/>
   <stop stop-color="#b88100" stop-opacity="0" offset="1"/>
  </linearGradient>
  <linearGradient id="g" x1="156.42" x2="81.109" y1="710.55" y2="658.4" gradientUnits="userSpaceOnUse">
   <stop stop-color="#fff" offset="0"/>
   <stop stop-color="#ccc" offset="1"/>
  </linearGradient>
  <linearGradient id="e" x1="1497.5" x2="1452.5" y1="694.73" y2="661.88" gradientUnits="userSpaceOnUse">
   <stop stop-color="#364e59" offset="0"/>
   <stop stop-color="#364e59" stop-opacity="0" offset="1"/>
  </linearGradient>
  <linearGradient id="t" x1="265.71" x2="142.86" y1="749.51" y2="675.22" gradientUnits="userSpaceOnUse">
   <stop stop-color="#0e232e" offset="0"/>
   <stop stop-color="#0e232e" stop-opacity="0" offset="1"/>
  </linearGradient>
  <linearGradient id="s" x1="171.56" x2="161.84" y1="943.82" y2="942.74" gradientUnits="userSpaceOnUse">
   <stop stop-color="#999" offset="0"/>
   <stop stop-color="#999" stop-opacity="0" offset="1"/>
  </linearGradient>
  <linearGradient id="o" x1="72.119" x2="115.51" y1="840.25" y2="794.88" gradientUnits="userSpaceOnUse">
   <stop stop-color="#ffc022" offset="0"/>
   <stop stop-color="#f90" offset="1"/>
  </linearGradient>
  <linearGradient id="k" x1="152.54" x2="147.45" y1="907.84" y2="951.6" gradientUnits="userSpaceOnUse">
   <stop stop-color="#666" offset="0"/>
   <stop stop-color="#ccc" offset="1"/>
  </linearGradient>
  <linearGradient id="j" x1="289.46" x2="-37.266" y1="728.77" y2="600.28" gradientUnits="userSpaceOnUse">
   <stop stop-color="#666" offset="0"/>
   <stop stop-color="#666" stop-opacity="0" offset="1"/>
  </linearGradient>
  <linearGradient id="aa" x1="-1020" x2="-1068.6" y1="623.79" y2="606.65" gradientUnits="userSpaceOnUse" xlink:href="#b"/>
  <linearGradient id="z" x1="-993.52" x2="-1003" y1="555.61" y2="504.98" gradientUnits="userSpaceOnUse" xlink:href="#b"/>
  <linearGradient id="y" x1="187.73" x2="194.07" y1="786.87" y2="813" gradientUnits="userSpaceOnUse" xlink:href="#h"/>
  <linearGradient id="v" x1="89.837" x2="117.49" y1="844.02" y2="853.4" gradientUnits="userSpaceOnUse" xlink:href="#f"/>
  <linearGradient id="u" x1="88.525" x2="111.3" y1="852.91" y2="844.93" gradientUnits="userSpaceOnUse" xlink:href="#h"/>
  <linearGradient id="a" x1="1462.8" x2="1514.9" y1="646.46" y2="698.6" gradientUnits="userSpaceOnUse" xlink:href="#f"/>
  <linearGradient id="r" x1="335.66" x2="385.48" y1="902.09" y2="963.12" gradientUnits="userSpaceOnUse" xlink:href="#c"/>
  <linearGradient id="q" x1="120.33" x2="80.154" y1="935.81" y2="913.33" gradientUnits="userSpaceOnUse" xlink:href="#c"/>
  <linearGradient id="p" x1="82.966" x2="80.154" y1="907.71" y2="852.3" gradientUnits="userSpaceOnUse" xlink:href="#c"/>
  <linearGradient id="n" x1="157.43" x2="161.98" y1="855.28" y2="890.48" gradientUnits="userSpaceOnUse" xlink:href="#d"/>
  <linearGradient id="m" x1="207.43" x2="282.42" y1="846.19" y2="833.7" gradientUnits="userSpaceOnUse" xlink:href="#d"/>
  <linearGradient id="l" x1="176.24" x2="170.84" y1="927.27" y2="917.56" gradientUnits="userSpaceOnUse" xlink:href="#b"/>
  <radialGradient id="i" cx="77.155" cy="691.36" r="818.02" gradientTransform="matrix(.60167 .3816 -.24619 .41309 200.94 433.4)" gradientUnits="userSpaceOnUse">
   <stop stop-color="#0e232e" offset="0"/>
   <stop stop-color="#9eabb0" offset="1"/>
  </radialGradient>
 </defs>
 <g transform="translate(0 -777.36)">
  <path transform="matrix(.30742 0 0 .29783 221.13 696.95)" d="m-649.64 762.36c39.284 111.38 326.75 186.81 458.46 238.97 263.14 104.22 285.38 157.72 570.93 100.04 144.98-29.286 431.3-117.94 449.22-234.19 77.248-501.02-1043.9-375.62-1046.6-369.71l-428.53 226.28s-7.9113 26.176-3.5238 38.616z" fill="url(#i)" filter="url(#ab)"/>
  <path d="m203.24 998.15c13.531-1.8973 26.085-8.2735 33.122-12.953l-7.5611-8.6353z" fill="#0e232e" stroke="#000" stroke-width=".27729"/>
  <path d="m66.436 936.63c9.9107 1.646 13.696-2.2894 17.281-6.1166l-1.0806-4.3176-5.4003-8.9951-31.32-46.055c-8.0407 2.1588 0.9322 39.606 20.52 65.484z" fill="#0e232e" stroke="#000" stroke-width=".27729"/>
  <path d="m167.14 889.76c-4.3822 0.0387-8.6512 1.0015-12.626 2.9858-19.567 9.7685-24.714 40.582-11.5 68.819s39.79 43.212 59.358 33.443 24.714-40.582 11.5-68.819c-10.53-22.502-29.54-36.581-46.732-36.429zm1.4825 7.1118c14.932-0.13233 31.45 12.101 40.597 31.646 11.477 24.526 7.0014 51.28-9.9945 59.765s-40.081-4.5202-51.559-29.047-7.0014-51.28 9.9952-59.765c3.4521-1.7234 7.1547-2.5656 10.961-2.5993z" fill="#0e232e"/>
  <path d="m57.906 847.34c22.868 2.5441 50.277 2.3297 68.379 4.8401l0.045-4.2319-47.822-3.2245c5.3824-13.465 8.4878-22.449 29.836-36.193 7.1795 15.09 8.8942 37.043 18.666 42.882 2.3736 1.4185 3.8869-1.2246 6.1722-0.0245l-20.508-43.554c36.009-25.394 79.957-26.54 122.16-28.512-20.934-6.203-140.03 2.7474-159.43 60.787-6.1909 2.2827-12.497 3.2515-18.048 6.676z" fill="url(#o)" stroke="#c39d14" stroke-width=".55459"/>
  <g transform="matrix(.03712 -.04191 .07141 .17623 50.661 751.94)" fill="#2d2d2d">
   <path transform="matrix(.89304 -.36568 .5156 .90374 -549.68 -452.27)" d="m-762.86 810.93c0 103.36-71.634 187.14-160 187.14s-160-83.787-160-187.14 71.634-187.14 160-187.14 160 83.787 160 187.14z"/>
   <path d="m-1001.6 449.06c-16.686 0.12126-32.941 3.1281-48.075 9.3252-74.505 30.509-94.102 126.74-43.789 214.93s151.5 134.96 226.01 104.45 94.103-126.74 43.789-214.93c-40.093-70.276-112.47-114.25-177.93-113.77zm5.6435 22.211c56.857-0.41323 119.75 37.795 154.58 98.835 43.701 76.6 26.659 160.16-38.055 186.66s-152.61-14.117-196.31-90.717-26.659-160.16 38.056-186.66c13.145-5.3826 27.244-8.0127 41.737-8.1181z"/>
   <path transform="matrix(.89864 .1883 .02272 .75824 -17.537 763.07)" d="m-982.86 235.22c-39.131 16.037-36.15-140.47-77.234-150.5s-110.53 130.26-137.88 98.002 122.43-77.789 119.27-119.96-158.04-64.87-135.81-100.85 111.81 92.396 150.94 76.358 12.858-170.35 53.941-160.33-53.321 134.89-25.977 167.15 165.99-40.414 169.15 1.7573-144.77-9.0275-167 26.947 89.73 145.38 50.599 161.41z"/>
   <path d="m-1062.9 566.65 74.286 45.714-82.857 40z"/>
   <path d="m-965.46 489.93-2.4468 87.19-76.07-51.756z"/>
  </g>
  <path transform="matrix(.23941 -.10819 .13823 .26738 293.83 629.52)" d="m-762.86 810.93a160 187.14 0 1 1 -320 0 160 187.14 0 1 1 320 0z" fill="#0e232e"/>
  <path d="m172.67 896.18c-4.4734 0.0349-8.831 0.91103-12.889 2.7159-19.974 8.8855-25.228 36.913-11.739 62.598s40.616 39.306 60.59 30.42 25.227-36.913 11.74-62.598c-10.749-20.468-30.153-33.275-47.702-33.136zm1.5124 6.469c15.243-0.12037 32.103 11.007 41.44 28.785 11.716 22.309 7.1471 46.645-10.202 54.362s-40.913-4.1116-52.629-26.421-7.1467-46.645 10.203-54.362c3.5235-1.5676 7.3036-2.3336 11.188-2.3643z" fill="url(#k)"/>
  <path transform="matrix(.21395 .05153 .00541 .20749 411.78 986.2)" d="m-982.86 235.22c-3.1305 1.283-73.947-149.7-77.234-150.5s-135.69 100.58-137.88 98.002 119.52-116.59 119.27-119.96-137.59-97.967-135.81-100.85 147.81 77.641 150.94 76.358 50.655-161.13 53.941-160.33-28.164 164.57-25.977 167.15 168.9-1.6164 169.15 1.7573-165.22 24.069-167 26.947 53.729 160.13 50.599 161.41z" fill="url(#w)"/>
  <path d="m156.25 930.43 19.915 13.314-22.213 11.65z" fill="url(#s)" opacity=".6878"/>
  <path d="m182.36 908.09-0.6559 25.394-20.394-15.074z" fill="url(#l)" opacity=".88293"/>
  <path d="m132.26 850.23-19.532-43.466c28.654-21.49 111.14-32.337 123.99-27.736l71.481 25.607c-67.098 13.627-135.52 25.814-175.94 45.594z" fill="url(#y)"/>
  <path d="m133.38 850.41c-6.2594 5.742 187.95 30.858 221.57 32.289 73.308 3.1201 105.38-33.967 97.079-40.168-32.163-24.012-84.722-35.837-143.04-38.243-57.536 12.6-111.93 16.484-175.61 46.122z" fill="url(#m)" stroke="#a6940d" stroke-width="1.7747"/>
  <path d="m189.32 908.84 48.342 0.79202c13.104 2.4539 12.113-3.7607 11.888-9.5044-38.305-23.779-29.482-34.998-4.7552-41.978l-117.29-6.3363c-12.887 6.0992-3.6746 41.923 8.4821 79.61-0.8131-18.77 6.8277-30.544 16.086-37.237 12.944-5.8503 24.303-4.8391 37.247 14.653z" fill="url(#n)" stroke="#c5bc2c" stroke-width=".97053"/>
  <path d="m140.83 950.74c-1.5336-4.715-4.2357-10.15-4.461-17.481l-62.665-19.899 6.4956 10.769z" fill="url(#q)"/>
  <path d="m136.95 933.69c-13.872-37.075-21.785-73.513-11.03-81.875-25.008-1.8184-41.661-4.553-69.74-3.9602-8.4722 6.6113-11.287 15.116-11.887 23.761 4.5964-6.967 16.377 14.779 29.322 41.186z" fill="url(#p)" stroke="#dbbc11" stroke-width=".11092"/>
  <path d="m188.92 908.84 38.436 65.739c41.719 14.384 73.215 12.42 104.61 10.296l-17.435-14.257s146.98-24.24 178.31-81.58c5.371-9.8309 2.2693-24.537-4.7551-33.265-20.393-25.34-39.242-37.556-77.453-42.835-27.954-3.8624-77.845-5.0424-103.81-8.2227 51.02 10.586 145.36 26.753 144.02 39.97-0.7455 7.3294-66.885 36.206-91.138 37.226-26.033 1.0946-72.909-17.425-69.739-16.633 79.475 44.354-9.744 47.461-39.625 35.642-1.6548 3.0362 0.3069 6.0723-9.1142 9.1084z" fill="url(#r)" stroke="#747423" stroke-width=".13865"/>
  <path d="m226.56 973.79 11.49 14.653c38.836 18.324 88.552 13.873 114.41 10.577l-17.324-14.934 68.948-8.7124c35.075-26.758 103.42-39.603 91.931-102.17-0.4507 42.697-87.331 79.436-180.69 97.42l16.88 13.465c-38.487 1.2049-77.248 2.7849-105.64-10.296z" fill="#ffc022" stroke="#d1d035" stroke-width=".11092"/>
  <path d="m350.99 998.79-15.855-15.104c117.87-30.903 172.26-69.889 161.22-109.24 0 0 5.862 21.408 2.7189 28.849-22.213 52.59-84.708 70.995-146.89 95.099z" fill="#2d2d2d"/>
  <path d="m78.367 844.68c3.3909 0.048 44.316 3.0209 47.694 3.6322-1.895-9.8148-10.121-23.156-18.324-39.274-12.312 5.159-23.77 20.505-29.37 35.642z" fill="#2d2d2d"/>
  <path d="m119.58 813.79c15.956-9.5283 36.453-11.685 58.645-11.088-7.0888 6.6224-13.72 13.473-16.643 22.177l-8.7175 1.5841c-3.3007-12.014-20.151-10.486-33.285-12.673z" fill="#bdcdd4"/>
  <path d="m232.9 820.13c-3.1698-3.1682-27.737-15.841-27.737-15.841 5.793-7.3309 15.082-13.789 29.323-19.009 0 0 47.741 20.922 44.38 19.801-7.1371-2.3801-59.817 1.206-45.966 15.049z" fill="#bdcdd4"/>
  <g transform="matrix(.02862 -.03919 .05506 .16479 53.364 765.18)" fill="#364e59">
   <path transform="matrix(.89304 -.36568 .5156 .90374 -549.68 -452.27)" d="m-762.86 810.93c0 103.36-71.634 187.14-160 187.14s-160-83.787-160-187.14 71.634-187.14 160-187.14 160 83.787 160 187.14z"/>
   <path d="m-1001.6 449.06c-16.686 0.12126-32.941 3.1281-48.075 9.3252-74.505 30.509-94.102 126.74-43.789 214.93s151.5 134.96 226.01 104.45 94.103-126.74 43.789-214.93c-40.093-70.276-112.47-114.25-177.93-113.77zm5.6435 22.211c56.857-0.41323 119.75 37.795 154.58 98.835 43.701 76.6 26.659 160.16-38.055 186.66s-152.61-14.117-196.31-90.717-26.659-160.16 38.056-186.66c13.145-5.3826 27.244-8.0127 41.737-8.1181z"/>
   <path transform="matrix(.89864 .1883 .02272 .75824 -17.537 763.07)" d="m-982.86 235.22c-39.131 16.037-36.15-140.47-77.234-150.5s-110.53 130.26-137.88 98.002 122.43-77.789 119.27-119.96-158.04-64.87-135.81-100.85 111.81 92.396 150.94 76.358 12.858-170.35 53.941-160.33-53.321 134.89-25.977 167.15 165.99-40.414 169.15 1.7573-144.77-9.0275-167 26.947 89.73 145.38 50.599 161.41z"/>
   <path d="m-1062.9 566.65 74.286 45.714-82.857 40z"/>
   <path d="m-965.46 489.93-2.4468 87.19-76.07-51.756z"/>
  </g>
  <g transform="matrix(.02522 -.03538 .04852 .14876 51.282 780.7)">
   <path transform="matrix(.89304 -.36568 .5156 .90374 -549.68 -452.27)" d="m-762.86 810.93c0 103.36-71.634 187.14-160 187.14s-160-83.787-160-187.14 71.634-187.14 160-187.14 160 83.787 160 187.14z" fill="#2d2d2d"/>
   <path d="m-1001.6 449.06c-16.686 0.12126-32.941 3.1281-48.075 9.3252-74.505 30.509-94.102 126.74-43.789 214.93s151.5 134.96 226.01 104.45 94.103-126.74 43.789-214.93c-40.093-70.276-112.47-114.25-177.93-113.77zm5.6435 22.211c56.857-0.41323 119.75 37.795 154.58 98.835 43.701 76.6 26.659 160.16-38.055 186.66s-152.61-14.117-196.31-90.717-26.659-160.16 38.056-186.66c13.145-5.3826 27.244-8.0127 41.737-8.1181z" fill="#ccc"/>
   <path transform="matrix(.89864 .1883 .02272 .75824 -17.537 763.07)" d="m-982.86 235.22c-39.131 16.037-36.15-140.47-77.234-150.5s-110.53 130.26-137.88 98.002 122.43-77.789 119.27-119.96-158.04-64.87-135.81-100.85 111.81 92.396 150.94 76.358 12.858-170.35 53.941-160.33-53.321 134.89-25.977 167.15 165.99-40.414 169.15 1.7573-144.77-9.0275-167 26.947 89.73 145.38 50.599 161.41z" fill="#ccc"/>
   <path d="m-1062.9 566.65 74.286 45.714-82.857 40z" fill="url(#aa)"/>
   <path d="m-965.46 489.93-2.4468 87.19-76.07-51.756z" fill="url(#z)"/>
  </g>
  <path d="m131.13 850.23-17.85-42.093c27.032-20.569 105.99-35.313 123.57-28.712l65.654 24.656c-63.3 13.044-133.24 27.215-171.37 46.148z" fill="url(#x)"/>
  <path d="m114.15 841.85c-0.3292-1.4487-4.9458-8.4707-4.9458-8.4707s-15.411 4.0903-21.104 8.7775c-3.2696 2.6926-8.8777 6.6781-7.5837 10.558 0.482 1.4461 2.6758 1.961 4.2861 2.1731 12.485 1.643 40.229-8.5261 40.229-8.5261l-0.6592-4.8443z" fill="url(#v)"/>
  <g transform="matrix(.27737 0 0 .27721 239.24 698.69)">
   <path d="m291.43 692.36c9.8689 52.203-137.12 68.46-205.71 51.429-60.872-15.113-168.5-69.843-140-125.71 53.557-105 332.56 4.7224 345.71 74.286z" fill="#0e232e"/>
   <path d="m48.741 580.38c-42.785-8e-3 -78.569 12.235-94.469 43.406-28.498 55.872 79.128 110.61 140 125.72 68.599 17.031 215.59 0.76544 205.72-51.438-9.2467-48.912-149.92-117.67-251.25-117.69zm-1.9375 8.5312c90.635 0.0176 216.45 62.085 224.72 106.25 8.8271 47.137-122.64 61.847-184 46.469-54.446-13.646-150.71-63.081-125.22-113.53 14.221-28.147 46.232-39.195 84.5-39.188z" fill="url(#j)"/>
   <path d="m271.53 692.32c8.8272 47.137-122.64 61.817-184 46.438-54.446-13.646-150.71-63.065-125.22-113.52 47.903-94.809 297.46 4.2642 309.22 67.077z" fill="#666"/>
   <path d="m180.31 682.77c6.2607 42.943-86.984 56.316-130.5 42.306-38.616-12.432-106.89-57.454-88.814-103.41 33.976-86.374 210.97 3.8848 219.32 61.109z" fill="url(#g)" opacity=".49268"/>
   <path transform="translate(-1462.8 -34.405)" d="m1525.7 672.36c0 18.935-16.63 34.286-37.143 34.286s-37.143-15.35-37.143-34.286 16.629-34.286 37.143-34.286 37.143 15.35 37.143 34.286z" fill="url(#a)"/>
   <path transform="matrix(.85834 .09297 .22602 .84351 -1219.9 -25.579)" d="m1525.7 672.36c0 18.935-16.63 34.286-37.143 34.286s-37.143-15.35-37.143-34.286 16.629-34.286 37.143-34.286 37.143 15.35 37.143 34.286z" fill="url(#a)"/>
   <path transform="matrix(1.0424 .08984 .27447 .81512 -1522.1 -3.2774)" d="m1525.7 672.36c0 18.935-16.63 34.286-37.143 34.286s-37.143-15.35-37.143-34.286 16.629-34.286 37.143-34.286 37.143 15.35 37.143 34.286z" fill="url(#e)"/>
  </g>
  <g transform="matrix(.12109 .05054 -.02346 .08749 433.51 759.7)">
   <path d="m291.43 692.36c9.8689 52.203-137.12 68.46-205.71 51.429-60.872-15.113-168.5-69.843-140-125.71 53.557-105 332.56 4.7224 345.71 74.286z" fill="#0e232e"/>
   <path d="m48.741 580.38c-42.785-8e-3 -78.569 12.235-94.469 43.406-28.498 55.872 79.128 110.61 140 125.72 68.599 17.031 215.59 0.76544 205.72-51.438-9.2467-48.912-149.92-117.67-251.25-117.69zm-1.9375 8.5312c90.635 0.0176 216.45 62.085 224.72 106.25 8.8271 47.137-122.64 61.847-184 46.469-54.446-13.646-150.71-63.081-125.22-113.53 14.221-28.147 46.232-39.195 84.5-39.188z" fill="url(#t)"/>
   <path d="m271.53 692.32c8.8272 47.137-122.64 61.817-184 46.438-54.446-13.646-150.71-63.065-125.22-113.52 47.903-94.809 297.46 4.2642 309.22 67.077z" fill="#666"/>
   <path d="m180.31 682.77c6.2607 42.943-86.984 56.316-130.5 42.306-38.616-12.432-106.89-57.454-88.814-103.41 33.976-86.374 210.97 3.8848 219.32 61.109z" fill="url(#g)" opacity=".49268"/>
   <path transform="translate(-1462.8 -34.405)" d="m1525.7 672.36c0 18.935-16.63 34.286-37.143 34.286s-37.143-15.35-37.143-34.286 16.629-34.286 37.143-34.286 37.143 15.35 37.143 34.286z" fill="url(#a)"/>
   <path transform="matrix(.85834 .09297 .22602 .84351 -1219.9 -25.579)" d="m1525.7 672.36c0 18.935-16.63 34.286-37.143 34.286s-37.143-15.35-37.143-34.286 16.629-34.286 37.143-34.286 37.143 15.35 37.143 34.286z" fill="url(#a)"/>
   <path transform="matrix(1.0424 .08984 .27447 .81512 -1522.1 -3.2774)" d="m1525.7 672.36c0 18.935-16.63 34.286-37.143 34.286s-37.143-15.35-37.143-34.286 16.629-34.286 37.143-34.286 37.143 15.35 37.143 34.286z" fill="url(#e)"/>
  </g>
  <path d="m121.98 839.23-34.381 3.968c-5.6871 3.9259-10.852 10.993-1.9509 11.778 10.71-0.86138 23.801-3.2445 39.01-8.6548z" fill="url(#u)"/>
  <path d="m229.65 819.04c3.4908-11.363 15.627-10.597 24.528-4.4949l1.9468-1.3221c-6.2948-7.4428-25.391-11.083-29.978 6.6102z" fill="#666"/>
 </g>
</svg>
