<?xml version="1.0" encoding="utf-8"?>
<!-- Generator: Adobe Illustrator 24.3.0, SVG Export Plug-In . SVG Version: 6.00 Build 0)  -->
<svg version="1.1" xmlns="http://www.w3.org/2000/svg" xmlns:xlink="http://www.w3.org/1999/xlink" x="0px" y="0px"
	 viewBox="0 0 974.95 949.78" style="enable-background:new 0 0 974.95 949.78;" xml:space="preserve">
<style type="text/css">
	.st0{fill:#FFFFFF;}
	.st1{fill:#E30613;}
</style>
<g id="Laag_2">
	<g id="XMLID_3_">
		<path id="XMLID_83_" d="M773.48,387.66L599.29,53.69c-3.8-7.28-12.78-10.11-20.07-6.31L90.18,302.57
			c-7.28,3.8-10.11,12.79-6.31,20.07l174.19,333.97c3.8,7.28,12.78,10.11,20.07,6.31l153.86-80.29
			c34.96,18.13,66.13,44.85,91.98,74.26c6.71,7.64,13.08,15.58,18.94,23.89c2.91,4.12,5.69,8.34,8.29,12.67
			c0.35,0.58,1.3,2.23,1.02,1.74c0.86,1.84,1.7,3.7,2.49,5.58c4.41,10.44,7.89,21.3,10.3,32.38c-26.92,2.28-53.68,6.38-80.04,12.31
			c-14.45,3.25-28.8,7-42.95,11.37c-14.54,4.48-29.02,9.87-41.77,18.32c-21.21,14.05-35.83,36.76-32.37,62.87
			c1.18,8.88,11.54,29.47,11.99,30.17l0.37,0.7c5.6,10.66,12.22,22.88,21.71,30.55c18.72,15.13,43.99,20.83,67.65,18.15
			c47.13-5.35,87.04-42.76,101.32-87.11c7.41-23,8.52-47.72,4.62-71.49c-0.5-3.03-1.09-6.02-1.76-8.98c5.4-0.46,10.8-0.85,16.2-1.16
			c24.46-1.4,49.12-1.14,73.35-5.3c23.29-4.01,46.77-12.46,64.23-28.93c13.91-13.13,23.09-30.98,26.34-49.78
			c1.6-9.29,1.77-18.84,0.33-28.16c-1.35-8.74-4.44-16.56-8.28-24.35c-0.23-0.26-2.36-4.37-3-5.37l-0.18-0.34
			c-3.55-6.65-10.03-18.47-15.79-23.47c-7.44-6.45-16.63-9.43-26.42-9.16c-10.28,0.29-20.21,3.44-30.16,5.72
			c-11.28,2.59-22.73,4.49-34.24,5.69c-22.76,2.37-45.8,2.01-68.46-1.12c-5.04-0.69-15.46-3.87-20.28-5.57c0,0-0.06-0.19,0.09-0.57
			c3.12-8.13,8.58-15.89,14.99-21.61c7.69-6.86,15.88-13.15,23.89-19.64c8.16-6.61,16.3-13.36,23.5-21.04
			c5.71-6.08,11.46-13.18,13.5-21.45c0.94-3.8,0.92-7.75-0.29-11.49l144.11-75.2C774.46,403.93,777.28,394.95,773.48,387.66z
			 M568.68,759.77c2.3,40.43-11.51,80.24-41.03,108.42c-28.59,27.29-70.3,41.13-108.77,28.28c-9.3-3.11-18.1-7.73-25.74-13.9
			c-3.7-2.98-9.03-7.96-11.41-13.38l-0.46-1.12c-6.75-18.83-5.15-37.56,6.49-54.05c13.84-19.61,35.59-31.4,57.78-38.65
			c23.36-7.64,47.45-13.38,71.62-17.8c16.8-3.07,33.73-5.4,50.73-7.02C568.23,753.61,568.51,756.68,568.68,759.77z M599.64,500.48
			c-12.67,13.05-27.63,23.59-41.47,35.3c-6.7,5.66-14.6,12-18.81,19.82c-2.69,5-2.56,9.95-0.18,15.02c0.33,0.69,0.65,1.4,0.98,2.12
			l6.03,11.07c0.41,0.83,0.82,1.67,1.23,2.5c0.16,0.39,0.24,0.39,0.27,0.13c8.25,9.93,26.09,14.58,37.81,15.81
			c13.71,1.44,27.52,1.88,41.29,1.33c13.22-0.53,26.4-1.98,39.42-4.34c12.71-2.3,25.17-6.56,38.01-8.01
			c12.03-1.36,23.53,1.33,32.54,9.7c2.01,1.87,3.84,3.93,5.5,6.12c0.02,0.02,0.03,0.05,0.05,0.07c1.57,4.56,2.64,9.28,3.3,14.06
			c3.13,22.81-3.19,46.71-16.83,65.22c-16.59,22.52-43.21,34.26-70,39.51c-28.44,5.57-57.65,4.58-86.43,6.66
			c-1.14,0.08-2.27,0.19-3.41,0.28c-5.3-15.8-12.59-30.82-20.6-45.75c-23.16-43.18-60.68-79.84-101.12-106.97
			c-1.52-1.02-3.06-2.03-4.6-3.02l165.3-86.26C605.43,494.27,602.56,497.47,599.64,500.48z"/>
		<g id="XMLID_122_">
			<path id="XMLID_124_" class="st0" d="M114.46,315.54c2.77,5.31,0.71,11.86-4.6,14.63c-5.31,2.77-11.86,0.71-14.63-4.6
				c-2.77-5.31-0.71-11.86,4.6-14.63C105.14,308.17,111.69,310.23,114.46,315.54z"/>
			<path id="XMLID_123_" d="M98.67,325.09l4.94-1.88l1.74,4.53c0.42,1.09,1.65,1.63,2.73,1.21c0,0,0,0,0,0
				c1.09-0.42,1.63-1.65,1.21-2.74l0,0l-1.74-4.52l4.93-1.88c1.09-0.42,1.63-1.65,1.21-2.74c-0.42-1.09-1.64-1.63-2.74-1.21
				l-4.93,1.88l-1.66-4.37c-0.42-1.09-1.64-1.63-2.74-1.21s-1.63,1.65-1.21,2.74l1.66,4.37l-4.93,1.88
				c-1.09,0.42-1.63,1.65-1.21,2.74C96.36,324.96,97.58,325.51,98.67,325.09z"/>
		</g>
		<g id="XMLID_115_">
			<path id="XMLID_54_" class="st0" d="M590.39,67.19c2.77,5.31,0.71,11.86-4.6,14.63c-5.31,2.77-11.86,0.71-14.63-4.6
				c-2.77-5.31-0.71-11.86,4.6-14.63S587.62,61.88,590.39,67.19z"/>
			<path id="XMLID_55_" d="M574.6,76.74l4.94-1.88l1.74,4.53c0.42,1.09,1.65,1.63,2.73,1.21c0,0,0,0,0,0
				c1.09-0.42,1.63-1.65,1.21-2.74l0,0l-1.74-4.52l4.93-1.88c1.09-0.42,1.63-1.65,1.21-2.74s-1.64-1.63-2.74-1.21l-4.93,1.88
				l-1.66-4.37c-0.42-1.09-1.64-1.63-2.74-1.21c-1.09,0.42-1.63,1.65-1.21,2.74l1.66,4.37l-4.93,1.88
				c-1.09,0.42-1.63,1.65-1.21,2.74S573.51,77.16,574.6,76.74z"/>
		</g>
		<g id="XMLID_117_">
			<path id="XMLID_119_" class="st0" d="M760.96,387.52c2.77,5.31,0.71,11.86-4.6,14.63s-11.86,0.71-14.63-4.6
				s-0.71-11.86,4.6-14.63C751.64,380.15,758.19,382.21,760.96,387.52z"/>
			<path id="XMLID_118_" d="M745.17,397.07l4.94-1.88l1.74,4.53c0.42,1.09,1.65,1.63,2.73,1.21c0,0,0,0,0,0
				c1.09-0.42,1.63-1.65,1.21-2.74l0,0l-1.74-4.52l4.93-1.88c1.09-0.42,1.63-1.65,1.21-2.74c-0.42-1.09-1.64-1.63-2.74-1.21
				l-4.93,1.88l-1.66-4.37c-0.42-1.09-1.64-1.63-2.74-1.21c-1.09,0.42-1.63,1.65-1.21,2.74l1.66,4.37l-4.93,1.88
				c-1.09,0.42-1.63,1.65-1.21,2.74C742.85,396.95,744.08,397.49,745.17,397.07z"/>
		</g>
		<g id="XMLID_58_">
			<path id="XMLID_116_" class="st0" d="M285.03,635.86c2.77,5.31,0.71,11.86-4.6,14.63c-5.31,2.77-11.86,0.71-14.63-4.6
				c-2.77-5.31-0.71-11.86,4.6-14.63C275.71,628.5,282.26,630.55,285.03,635.86z"/>
			<path id="XMLID_59_" d="M269.24,645.41l4.94-1.88l1.74,4.53c0.42,1.09,1.65,1.63,2.73,1.21c0,0,0,0,0,0
				c1.09-0.42,1.63-1.65,1.21-2.74l0,0l-1.74-4.52l4.93-1.88c1.09-0.42,1.63-1.65,1.21-2.74s-1.64-1.63-2.74-1.21l-4.93,1.88
				l-1.66-4.37c-0.42-1.09-1.64-1.63-2.74-1.21c-1.09,0.42-1.63,1.65-1.21,2.74l1.66,4.37l-4.93,1.88
				c-1.09,0.42-1.63,1.65-1.21,2.74C266.93,645.29,268.15,645.84,269.24,645.41z"/>
		</g>
		<circle id="XMLID_37_" class="st0" cx="386.36" cy="580.95" r="9.04"/>
		<circle id="XMLID_60_" class="st0" cx="434.77" cy="540.36" r="9.04"/>
		<circle id="XMLID_62_" class="st0" cx="640.5" cy="449.1" r="9.04"/>
		<circle id="XMLID_61_" class="st0" cx="579.17" cy="464.25" r="9.04"/>
		<path id="XMLID_67_" class="st0" d="M314.03,624.78c-11.18,5.83-25.02,1.48-30.86-9.7s-1.48-25.03,9.7-30.86
			c11.18-5.83,25.02-1.48,30.86,9.7C329.56,605.1,325.21,618.95,314.03,624.78z M294.19,586.75c-9.79,5.11-13.6,17.23-8.49,27.02
			c5.11,9.79,17.22,13.6,27.01,8.49c9.79-5.11,13.6-17.23,8.49-27.02S303.97,581.64,294.19,586.75z M307.08,611.47
			c-3.84,2.01-8.6,0.51-10.6-3.33c-2-3.84-0.51-8.6,3.33-10.61c3.84-2.01,8.6-0.51,10.6,3.33
			C312.42,604.71,310.93,609.47,307.08,611.47z M715.77,415.15c-11.18,5.83-25.02,1.48-30.86-9.7c-5.83-11.18-1.48-25.03,9.7-30.86
			s25.02-1.48,30.86,9.7C731.31,395.47,726.96,409.32,715.77,415.15z M695.94,377.11c-9.79,5.11-13.6,17.23-8.49,27.02
			s17.22,13.6,27.01,8.49c9.79-5.11,13.6-17.23,8.49-27.02S705.72,372.01,695.94,377.11z M708.83,401.84
			c-3.84,2.01-8.6,0.51-10.6-3.33c-2-3.84-0.51-8.6,3.33-10.61c3.84-2.01,8.6-0.51,10.6,3.33
			C714.17,395.07,712.67,399.83,708.83,401.84z M301.13,600.06c-2.45,1.28-3.4,4.31-2.12,6.76c1.28,2.45,4.31,3.4,6.76,2.12
			c2.45-1.28,3.4-4.31,2.12-6.76S303.58,598.78,301.13,600.06z M702.88,390.43c-2.45,1.28-3.4,4.31-2.12,6.76
			c1.28,2.45,4.31,3.4,6.76,2.12c2.45-1.28,3.4-4.31,2.12-6.76C708.36,390.1,705.33,389.15,702.88,390.43z"/>
		<path id="XMLID_77_" class="st0" d="M698.97,443.32c-8.82-9.32-48.45-51.17-53.81-56.83c-5.36-5.64-19.85-5.31-27.96-1.08
			l-274.1,143.03c-10.29,5.37-13.74,14.39-12.6,20.95c1.08,6.22,13.42,64.96,16.12,77.79l-3.52,1.84
			c-2.21-10.52-15.22-72.41-16.36-78.97c-1.38-7.93,2.6-18.73,14.6-24.99l274.1-143.03c9.52-4.97,25.79-5.24,32.51,1.84
			c6.04,6.37,54.58,57.61,54.58,57.61L698.97,443.32z"/>
		<g id="XMLID_36_">
			<path id="XMLID_12_" class="st0" d="M343.15,453.31c-21.81,11.38-48.82,2.89-60.2-18.93c-11.38-21.82-2.89-48.83,18.92-60.21
				c21.81-11.38,48.82-2.89,60.2,18.93S364.97,441.93,343.15,453.31z"/>
			<g id="XMLID_28_">
				<path id="XMLID_31_" d="M343.34,402.87c-0.59-1.14-1.29-2.19-2.04-3.19l7.78-4.06c-5.09-7.49-12.95-12.26-21.45-13.64
					l-0.37,8.76c-2.49-0.52-5.07-0.61-7.64-0.29l0.38-8.78c-4.19,0.33-8.39,1.49-12.35,3.56c-4.02,2.1-7.41,4.93-10.1,8.25
					l7.41,4.71c-1.72,1.94-3.1,4.12-4.09,6.47l-7.4-4.7c-3.66,7.73-4.21,16.83-1.01,25.23l7.78-4.06c0.39,1.18,0.86,2.35,1.45,3.5
					c0.61,1.17,1.33,2.26,2.1,3.28l-7.78,4.06c5.07,7.4,12.84,12.13,21.26,13.53l0.37-8.75c2.49,0.53,5.07,0.63,7.64,0.33
					l-0.38,8.77c4.24-0.31,8.48-1.47,12.49-3.56c3.95-2.06,7.29-4.82,9.95-8.06l-7.42-4.72c1.74-1.92,3.14-4.09,4.15-6.43l7.39,4.7
					c3.74-7.74,4.34-16.89,1.15-25.35l-7.78,4.06C344.43,405.26,343.96,404.05,343.34,402.87z"/>
			</g>
		</g>
		<g id="XMLID_38_">
			<path id="XMLID_42_" class="st0" d="M555.6,342.45c-21.81,11.38-48.82,2.89-60.2-18.93c-11.38-21.82-2.89-48.83,18.92-60.21
				c21.81-11.38,48.82-2.89,60.2,18.93C585.91,304.06,577.42,331.07,555.6,342.45z"/>
			<g id="XMLID_39_">
				<path id="XMLID_40_" d="M555.79,292.02c-0.59-1.14-1.29-2.19-2.04-3.19l7.78-4.06c-5.09-7.49-12.95-12.26-21.45-13.64
					l-0.37,8.76c-2.49-0.52-5.07-0.61-7.64-0.29l0.38-8.78c-4.19,0.33-8.39,1.49-12.35,3.56c-4.02,2.1-7.41,4.93-10.1,8.25
					l7.41,4.71c-1.72,1.94-3.1,4.12-4.09,6.47l-7.4-4.7c-3.66,7.73-4.21,16.83-1.01,25.23l7.78-4.06c0.39,1.18,0.86,2.35,1.45,3.5
					c0.61,1.17,1.33,2.26,2.1,3.28l-7.78,4.06c5.07,7.4,12.84,12.13,21.26,13.53l0.37-8.75c2.49,0.53,5.07,0.63,7.64,0.33
					l-0.38,8.77c4.24-0.31,8.48-1.47,12.49-3.56c3.95-2.06,7.29-4.82,9.95-8.06l-7.42-4.72c1.74-1.92,3.14-4.09,4.15-6.43l7.39,4.7
					c3.74-7.74,4.34-16.89,1.15-25.35l-7.78,4.06C556.88,294.4,556.4,293.19,555.79,292.02z"/>
			</g>
		</g>
		<path id="XMLID_41_" class="st0" d="M436.04,352.99c-8.73-16.74-13.36-33.75-10.25-49.21l-50.94,26.58
			c15.41,5.8,28.1,18.6,36.83,35.34c9.7,18.6,12.62,38.42,6.94,56.91l57.48-29.99C458.6,386.21,445.74,371.59,436.04,352.99z"/>
		<path id="XMLID_134_" class="st0" d="M575.41,126.17l35.61,70.8L203.37,406.25l-35.69-68.18L575.41,126.17z"/>
	</g>
</g>
<g id="BLAUW">
	<g id="XMLID_8_">
		<g id="XMLID_34_">
			<path id="XMLID_52_" class="st0" d="M612.13,249.32c-0.99,0.45-1.98,1.03-3.28,1.86c-7.33,4.62-8.69,10.3-7.4,15.11l0.17-0.09
				c0.84-2.82,2.83-5.22,6.28-7.03c6.18-3.22,13.67-1.58,17.66,6.07c3.81,7.31,1.34,16.25-6.65,20.42
				c-9.8,5.12-18.43,0.32-23.02-8.47c-3.61-6.92-4.07-14.03-2.03-19.78c1.94-5.27,5.75-9.56,11.39-12.86
				c1.53-0.94,2.55-1.47,3.43-1.86L612.13,249.32z M617.07,270.25c-1.77-3.4-5.12-5.4-8.81-3.48c-2.32,1.21-3.51,3.63-3.39,5.95
				c0.01,0.57,0.25,1.31,0.78,2.33c2.21,3.82,5.91,6.36,9.82,4.32C618.54,277.77,619.02,273.99,617.07,270.25z"/>
			<path id="XMLID_35_" class="st0" d="M653.6,243.11c5.94,11.39,5.43,21.61-3.98,26.52c-9.52,4.97-18.18-1.4-23.68-11.8
				c-5.56-10.66-5.43-21.47,4.09-26.44C639.9,226.25,648.33,233.02,653.6,243.11z M634.62,253.3c4.35,8.48,8.49,11.44,11.83,9.69
				c3.34-1.74,2.97-6.89-1.41-15.28c-4.26-8.16-8.26-11.55-11.72-9.75C630.15,239.63,630.09,244.78,634.62,253.3z"/>
		</g>
		<path id="XMLID_25_" class="st1" d="M593.81,113.95l105.41,202.1l-456.7,238.31L137.48,352.97l13.99-44.51L550.4,100.3
			L593.81,113.95z M570.48,132.75L172.86,340.23l32.43,62.18l397.61-207.48L570.48,132.75z M587.51,276.93L587.51,276.93
			c-12.98-24.88-43.94-34.61-68.81-21.63l-92.91,48.48c0,0,0,0,0,0l-50.94,26.58c0,0,0,0,0.01,0l-81.07,42.3
			c-24.87,12.98-34.61,43.95-21.63,68.83l0,0c12.98,24.88,43.94,34.61,68.81,21.63l77.65-40.52c0,0,0,0,0,0.01l57.48-29.99
			c0,0-0.01,0-0.01,0l89.79-46.85C590.75,332.78,600.49,301.81,587.51,276.93z"/>
		
			<rect id="XMLID_22_" x="207.33" y="429.12" transform="matrix(0.8866 -0.4626 0.4626 0.8866 -185.1939 162.5353)" width="62.97" height="59.52"/>
		<g id="XMLID_14_">
			<path id="XMLID_18_" d="M612.13,249.32c-0.99,0.45-1.98,1.03-3.28,1.86c-7.33,4.62-8.69,10.3-7.4,15.11l0.17-0.09
				c0.84-2.82,2.83-5.22,6.28-7.03c6.18-3.22,13.67-1.58,17.66,6.07c3.81,7.31,1.34,16.25-6.65,20.42
				c-9.8,5.12-18.43,0.32-23.02-8.47c-3.61-6.92-4.07-14.03-2.03-19.78c1.94-5.27,5.75-9.56,11.39-12.86
				c1.53-0.94,2.55-1.47,3.43-1.86L612.13,249.32z M617.07,270.25c-1.77-3.4-5.12-5.4-8.81-3.48c-2.32,1.21-3.51,3.63-3.39,5.95
				c0.01,0.57,0.25,1.31,0.78,2.33c2.21,3.82,5.91,6.36,9.82,4.32C618.54,277.77,619.02,273.99,617.07,270.25z"/>
			<path id="XMLID_15_" d="M653.6,243.11c5.94,11.39,5.43,21.61-3.98,26.52c-9.52,4.97-18.18-1.4-23.68-11.8
				c-5.56-10.66-5.43-21.47,4.09-26.44C639.9,226.25,648.33,233.02,653.6,243.11z M634.62,253.3c4.35,8.48,8.49,11.44,11.83,9.69
				c3.34-1.74,2.97-6.89-1.41-15.28c-4.26-8.16-8.26-11.55-11.72-9.75C630.15,239.63,630.09,244.78,634.62,253.3z"/>
		</g>
		<g id="XMLID_9_">
			<path id="XMLID_10_" class="st1" d="M236.32,472.02l2.4,11.23l-8.96,4.67l-8.25-44.3l11.34-5.92l31.77,32.03l-9.29,4.85
				l-8.06-8.27L236.32,472.02z M242.64,460.51l-6.61-6.86c-1.86-1.91-4.02-4.39-5.77-6.36l-0.11,0.06c0.62,2.56,1.56,5.75,2.09,8.29
				l1.96,9.29L242.64,460.51z"/>
		</g>
	</g>
	<path id="XMLID_23_" class="st1" d="M871.81,453.52c-0.87-7.83-6.95-15.93-19.58-27.5c-7.12-6.53-23.72-15.53-23.72-15.53
		l-4.16,4.26l-0.13-0.13l-310.07,332.1c0,0-4.66,6.64-2.77,8.91c3.86,4.3,10.65,3.68,14.01-0.22l310.15-324.96
		c0.97,0.64,1.96,1.31,2.98,2C808.82,463.28,527.94,755.11,526.4,756.9c-1.44,1.67-2.11,3.77-2.07,5.92
		c0.06,2.86,1.39,5.82,3.89,7.98c4.37,3.78,10.65,3.68,14.01-0.22L852.8,445.16c0.97,1.2,1.89,2.42,2.75,3.63
		c-29.92,30.9-312.36,322.53-313.91,324.31c-1.44,1.67-2.11,3.77-2.07,5.92c0.06,2.86,1.39,5.82,3.89,7.98
		c4.37,3.78,12.15,0.77,15.52-3.12l303.95-321.21l0,0L871.81,453.52z"/>
	<g id="XMLID_2_">
		<polygon id="XMLID_80_" class="st1" points="474.05,819.62 487.74,830.34 459.1,847.27 		"/>
		<path id="XMLID_91_" class="st1" d="M874.23,449.78l7.3-9.64c-0.87-7.83-5.07-14.29-17.71-25.87
			c-7.12-6.53-20.11-17.21-23.45-15.82l-9.69,9.92c3.24-0.65,9.98,5.75,22.92,14.7C864.64,430.71,872.96,444.49,874.23,449.78z"/>
		<path id="XMLID_88_" class="st1" d="M884.42,438.06l8.29-9.23c-0.87-7.83-5.07-14.29-17.71-25.87
			c-7.12-6.53-21.03-17.65-22.96-16.32l-10.19,10.42c2.67-0.61,9.98,5.75,22.92,14.7C875.82,419.4,883.16,432.77,884.42,438.06z"/>
	</g>
</g>
</svg>
