<?xml version="1.0" encoding="UTF-8"?>
<svg version="1.0" viewBox="0 0 130.05653 128.09375" xmlns="http://www.w3.org/2000/svg">
 <defs>
  <filter id="d" color-interpolation-filters="sRGB">
   <feGaussianBlur stdDeviation="1.5371249"/>
  </filter>
  <linearGradient id="f" x1="-176.22" x2="-120.63" y1="316.17" y2="379.92" gradientTransform="matrix(.85995 -.23042 .23042 .85995 -119.9 11.349)" gradientUnits="userSpaceOnUse">
   <stop stop-color="#e88e27" offset="0"/>
   <stop stop-color="#e8c827" stop-opacity=".53659" offset="1"/>
  </linearGradient>
  <linearGradient id="e" x1="230.45" x2="242.93" y1="281.06" y2="307.55" gradientTransform="matrix(.85995 -.23042 .23042 .85995 -408.99 135.38)" gradientUnits="userSpaceOnUse">
   <stop stop-color="#fff" offset="0"/>
   <stop stop-color="#fff" stop-opacity="0" offset="1"/>
  </linearGradient>
 </defs>
 <g transform="translate(-136.04 -.03125)">
  <rect transform="translate(339.82,-287.5)" x="-201.76" y="287.57" width="128" height="128" fill="none" stroke="#f9f9f9" stroke-dashoffset=".175" stroke-width=".1"/>
  <path transform="matrix(.99725 -.07417 .21966 .97558 340.45 -288.16)" d="m-264.33 310.58 79.84-0.92c3.87 0 6.98 3.78 6.98 8.49l2.74 70.97c0 4.7-3.11 8.49-6.97 8.49l-79.67 0.15c-3.87 0-6.98-3.79-6.98-8.49l-2.91-70.2c0-4.7 3.11-8.49 6.97-8.49z" fill="#917c6f" fill-opacity=".9451" filter="url(#d)"/>
  <rect transform="matrix(.96593 -.25882 .25882 .96593 339.82 -287.5)" x="-277.42" y="259.63" width="108.41" height="86.727" rx="8.1307" ry="8.1307" fill="#ffa200"/>
  <path transform="translate(339.82,-287.5)" d="m-192.62 320.54 22.38 83.51m-13.53-85.88 22.38 83.51m-13.53-85.88 22.38 83.51m-13.53-85.88 22.37 83.51m-13.52-85.89 22.37 83.51m-13.53-85.88 22.38 83.51m-13.53-85.88 22.38 83.51m-13.53-85.88 22.38 83.51m-13.53-85.88 22.377 83.51m-13.527-85.88 22.375 83.51m-13.525-85.88 22.374 83.51" fill="#ccc" fill-rule="evenodd" stroke="#d45500" stroke-width=".89029px"/>
  <path transform="translate(339.82,-287.5)" d="m-179.01 399.58 102.62-27.5m-104.99 18.65 102.62-27.49m-105 18.64 102.62-27.49m-104.99 18.65 102.62-27.5m-104.99 18.65 102.62-27.5m-104.99 18.65 102.62-27.5m-104.99 18.65 102.62-27.5m-104.99 18.65 102.62-27.5m-104.99 18.65 102.62-27.49" fill="#ccc" fill-rule="evenodd" stroke="#d45500" stroke-width=".89029px"/>
  <path transform="translate(339.82,-287.5)" d="m-110.79 323.85c5.59-5.7 10.24-14.94 7.97-25.02l-84.58 22.01c-8.45 2.27-10.04 6.47-8.08 12.92l16.14 61.91c13.94-29.19 43.36-51.05 68.55-71.82z" fill="url(#f)"/>
  <path transform="translate(339.82,-287.5)" d="m-104.22 310.59-17.6 14.94 6.88 3.23-5.95 13.37-15.47-2.82-2.82-0.51-0.07 2.84-0.49 16.43-24.74-8.81-2.35-0.81-0.79 2.35-16.25 47.27 4.64 1.61 15.43-44.95 25.56 9.08 3.19 1.13 0.1-3.37 0.48-16.92 14.62 2.65 1.91 0.35 0.77-1.76 6.68-15.04 6.52 3.04-0.25-23.3z" fill="#800000" fill-rule="evenodd"/>
  <path transform="translate(339.82,-287.5)" d="m-104.38 308.95-17.6 14.94 6.88 3.23-5.95 13.37-15.47-2.82-2.82-0.51-0.07 2.84-0.49 16.43-24.74-8.81-2.35-0.81-0.79 2.34-16.25 47.28 4.64 1.6 15.43-44.94 25.56 9.07 3.19 1.14 0.1-3.37 0.48-16.92 14.62 2.65 1.91 0.35 0.77-1.76 6.68-15.04 6.52 3.03-0.25-23.29z" fill="#f00" fill-rule="evenodd"/>
  <path transform="translate(339.82,-287.5)" d="m-104.38 308.95-17.6 14.94 6.88 3.23-0.91 2.06c1.84-1.5 3.7-3.01 5.5-4.5 2.41-2.46 4.62-5.57 6.2-9.12l-0.07-6.61zm-34.96 28.21-0.07 2.84-0.26 8.91c1.65-1.45 3.32-2.91 5-4.33l0.04-1.57 1.51 0.26c1.63-1.38 3.26-2.73 4.9-4.08l-8.3-1.52-2.82-0.51zm-27.65 9.65-0.79 2.34-13.45 39.12 2.15 8.24c0.22-0.47 0.46-0.93 0.69-1.39l14.43-42.03 14.23 5.03c1.31-1.27 2.66-2.51 4-3.76l-18.91-6.74-2.35-0.81z" fill="url(#e)"/>
 </g>
</svg>
