<?xml version='1.0' encoding='utf-8'?>
<svg xmlns="http://www.w3.org/2000/svg" width="143.58162mm" height="116.15847mm" viewBox="0 0 143.58162 116.15847" version="1.1" id="svg9768"> <defs id="defs9762"/> <metadata id="metadata9765"> </metadata> <g id="layer1" transform="translate(-31.73668,-13.184462)"> <g transform="matrix(3.3379587,0,0,3.3379587,30.951587,13.015071)" id="g905"> <path id="polygon2" d="M 43.1,20.35 24.85,34.75 22.3,31.7 15.35,29.85 20.75,20.9 42.9,17.95 Z" style="clip-rule:evenodd;fill:#ab7422;fill-rule:evenodd" transform="translate(0.15,0.1)"/> <path id="polygon4" d="m 42.384316,18.198708 0.223496,2.508323 -16.590676,13.077241 c -1.385249,-6.128538 3.909027,-12.5537 16.36718,-15.585564 z" style="clip-rule:evenodd;fill:#d4aa00;fill-rule:evenodd" transform="translate(-0.01841785,0.28123413)"/> <path style="clip-rule:evenodd;fill:#803300;fill-rule:evenodd" id="path6-5" d="m 2.8,10 13.25,1.95 8.7,17.8 0.25,5.1 C 17.152853,32.136719 8.1567478,29.166471 1.4,26.7 -0.73375464,21.766265 0.25878446,13.667732 2.8,10 Z"/> <path style="clip-rule:evenodd;fill:#aa4400;fill-rule:evenodd" id="path22-2" d="M 42,18.7 25.5,26.275 25.828748,31.311049 24.85,32.099 C 17.217,26.033 11.983,21.816 9.15,19.45 6.183,16.917 4.433,15.4 3.9,14.9 -2.8085292,7.1351112 16.288874,-1.364781 23,0.25 c 1.167,0.3 2.5,0.967 4,2 1.3,0.933 3.417,2.867 6.35,5.8 1.533,1.567 3.35,3.45 5.45,5.65 1.3,1.267 2.717,2.716 4.25,4.35 z"/> <path style="clip-rule:evenodd;fill:#ffe27a;fill-opacity:1;fill-rule:evenodd" id="path24" d="M 42.365898,18.479942 C 36.912806,22.549625 30.411124,26.842758 25.828748,31.311049 20.821602,27.306879 5.7407892,15.644246 4.75,11.85 3.9098743,7.1748719 17.53694,-0.83995604 23.9,1.45 28.434631,3.3166944 36.9176,12.874788 42.365898,18.479942 Z"/> <path style="clip-rule:evenodd;fill:#c2a353;fill-opacity:1;fill-rule:evenodd" id="path31" d="m 16,14.3 c -2.61866,3.372985 -9.770207,-0.337806 -7.4,-3.8 2.833278,-3.1932451 9.848298,0.325678 7.4,3.8 z"/> <path style="clip-rule:evenodd;fill:#c2a353;fill-opacity:1;fill-rule:evenodd" id="path38" d="m 22.070201,7.6855301 c 1.198948,1.2964321 0.965464,3.1969739 -0.55,3.7499999 -5.05772,0.701263 -3.597705,-6.0611891 0.55,-3.7499999 z"/> <path style="clip-rule:evenodd;fill:#c2a353;fill-opacity:1;fill-rule:evenodd" id="path45" d="m 26,26.849 c -2.893032,1.011156 -5.832286,-1.005242 -6.5,-3.699 1.028779,-8.200012 11.614591,0.32561 6.5,3.699 z"/> <path style="clip-rule:evenodd;fill:#c2a353;fill-opacity:1;fill-rule:evenodd" id="path52" d="m 35.65,14.4 c 1.733,0.9 2.55,2.033 2.45,3.4 -2.127874,3.939043 -5.961042,1.67829 -6.1,-1.7 0.193464,-2.288401 2.087779,-2.512509 3.65,-1.7 z"/> <path style="clip-rule:evenodd;fill:#c2a353;fill-opacity:1;fill-rule:evenodd" id="path59" d="m 21.75,2.15 c 3.347663,0.8869143 0.339827,3.577895 -1.2,2.25 -1.515054,-1.3909939 -0.172404,-2.4789068 1.2,-2.25 z"/> <path style="clip-rule:evenodd;fill:#c2a353;fill-opacity:1;fill-rule:evenodd" id="path66" d="m 29.096132,14.92894 c 0.333,0.8 0.2,1.483 -0.4,2.05 -2.421628,1.934336 -6.194068,-1.693179 -4.05,-3.45 1.602275,-1.140922 3.794839,-0.208216 4.45,1.4 z"/> <path style="clip-rule:evenodd;fill:#c2a353;fill-opacity:1;fill-rule:evenodd" id="path73" d="m 28,6.65 c 1.447415,1.7953371 -0.786102,2.2649169 -1.35,1.25 -0.467,-0.6 -0.467,-1.05 0,-1.35 0.433,-0.3 0.883,-0.267 1.35,0.1 z"/> </g> </g> </svg>