<?xml version="1.0" encoding="UTF-8"?>
<!DOCTYPE svg  PUBLIC '-//W3C//DTD SVG 1.1//EN'  'http://www.w3.org/Graphics/SVG/1.1/DTD/svg11.dtd'>
<svg enable-background="new 0 0 62.3 79.4" version="1.1" viewBox="0 0 62.3 79.4" xml:space="preserve" xmlns="http://www.w3.org/2000/svg" xmlns:xlink="http://www.w3.org/1999/xlink">
<symbol id="i" viewBox="-0.004 -4.754 4.358 4.757">
			<radialGradient id="f" cx="-895.99" cy="-2.3501" r="1.35" gradientTransform="matrix(1 0 -.1204 -1.0926 897.56 -4.9185)" gradientUnits="userSpaceOnUse">
			<stop stop-color="#fff" offset="0"/>
			<stop stop-color="#fff" stop-opacity="0" offset="1"/>
		</radialGradient>
		<path d="m3.8-0.8c0.4-0.467 0.583-1.034 0.55-1.7-0.033-0.633-0.283-1.183-0.75-1.65-0.467-0.434-0.983-0.633-1.55-0.6-0.6 0.033-1.1 0.3-1.5 0.8s-0.583 1.083-0.55 1.75c0.033 0.633 0.283 1.167 0.75 1.6 0.433 0.433 0.95 0.633 1.55 0.6s1.1-0.3 1.5-0.8z" clip-rule="evenodd" fill="url(#f)" fill-rule="evenodd"/>
</symbol>
<symbol id="j" viewBox="-0.015 -10.956 10.03 10.962">
			<radialGradient id="g" cx="-1024.6" cy="91.501" r="3.1377" gradientTransform="matrix(.9999 .012 -.1354 -1.0876 1041.2 106.36)" gradientUnits="userSpaceOnUse">
			<stop stop-color="#fff" offset="0"/>
			<stop stop-color="#fff" stop-opacity="0" offset="1"/>
		</radialGradient>
		<path d="m8.8-1.75c0.9-1.133 1.3-2.45 1.2-3.95s-0.683-2.767-1.75-3.8c-1.033-1.033-2.25-1.517-3.65-1.45-1.367 0.067-2.5 0.65-3.4 1.75-0.9 1.133-1.3 2.45-1.2 3.95 0.133 1.5 0.717 2.767 1.75 3.8s2.25 1.517 3.65 1.45c1.367-0.067 2.5-0.65 3.4-1.75z" clip-rule="evenodd" fill="url(#g)" fill-rule="evenodd"/>
</symbol>
	<rect width="40" height="40" clip-rule="evenodd" fill-opacity="0"/>
	<g clip-rule="evenodd" fill-rule="evenodd">
		<polygon points="25.399 8.208 31.214 13.018 32.176 14.242 32.919 15.554 33.399 16.909 33.574 17.608 33.706 19.007 33.706 19.619 33.574 20.8 33.269 21.893 32.612 23.16 32.001 23.948 31.913 23.991 31.869 24.079 31.52 24.385 31.607 24.079 31.695 23.511 31.65 23.205 31.607 22.461 31.433 21.718 30.82 20.1 30.602 19.707 29.552 18.22 28.153 16.777 26.23 15.248 24.612 13.499 23.738 12.144 23.082 10.7 22.514 8.689 22.339 6.722 22.383 5.717 22.645 4.23 23.125 2.744 23.476 4.973 23.869 6.154 24.569 7.247" fill="#8CA101"/>
		<polygon points="25.006 7.858 25.662 8.471 31.214 13.018 32.176 14.242 32.919 15.554 33.399 16.909 33.574 17.608 33.706 18.92 33.618 20.625 33.356 21.674 32.919 22.723 32.132 23.816 32.045 23.816 32.045 23.904 31.607 24.385 32.569 22.811 33.007 21.762 33.225 20.669 33.269 20.144 33.094 18.657 32.788 17.827 32.744 17.739 32.656 17.608 32.045 16.297 31.258 15.248 30.121 14.111 26.404 11.094 24.743 9.389 23.694 7.64 23.125 5.891 22.907 4.667 22.995 3.574 23.169 3.137 23.257 4.055 23.65 5.717 24.481 7.203" fill="#616E01"/>
		<polygon points="24 8.034 24.918 9.433 26.623 11.225 26.754 11.269 30.689 14.548 31.695 15.728 32.351 16.777 32.831 17.871 33.138 19.051 33.269 20.057 32.831 18.177 31.695 15.947 30.558 14.635 29.946 14.067 26.273 11.138 25.049 9.914 23.781 8.077 22.995 6.022 22.732 4.798 23.039 4.536 23.65 7.159" fill="#6C7D02"/>
		<polygon points="22.514 4.973 23.125 2.744 23.301 4.449 23.694 5.673 23.957 6.241 23.694 6.373 23.301 6.853 22.951 7.465 22.82 8.165 22.907 8.733 22.907 8.996 23.039 9.914 23.476 11.575 22.688 9.389 22.383 7.728 22.339 6.635" fill="#687802"/>
		<polygon points="24.875 10.088 24.962 9.826 25.006 9.739 25.049 9.695 25.225 9.782 25.268 9.826 25.268 10.001 25.225 10.088 25.225 10.22 25.181 10.438 25.225 11.75 25.268 11.837 25.399 12.362 25.093 11.662 25.006 11.531 24.918 11.182 24.831 10.569 24.831 10.307" fill="#6C7D02"/>
		<polygon points="27.017 11.706 27.061 11.662 27.104 11.662 27.323 11.881 27.366 12.056 27.323 12.974 27.41 13.411 27.585 13.848 27.672 13.979 27.716 14.154 27.76 14.198 27.804 14.286 27.848 14.417 27.891 14.504 27.935 14.635 27.935 14.723 27.979 14.723 27.979 14.81 27.935 14.723 27.192 13.368 27.017 12.493 27.017 12.187 26.973 12.012 26.973 11.837 27.017 11.837" fill="#6C7D02"/>
		<polygon points="29.552 13.761 29.596 14.417 29.858 15.378 30.339 16.471 29.946 15.815 29.421 14.548 29.203 13.674 29.203 13.324 29.246 13.368 29.378 13.455 29.465 13.586" fill="#6C7D02"/>
		<polygon points="31.826 18.133 31.563 16.646 31.563 16.516 31.52 16.34 31.52 16.297 31.563 16.034 31.607 15.903 31.65 15.859 31.695 15.947 31.913 17.477 31.826 18.701" fill="#6C7D02"/>
		<polygon points="32.744 20.188 32.438 20.843 32.831 19.576 32.831 19.313 32.919 18.876 33.007 18.789 33.138 18.876 32.963 19.401 32.919 19.619" fill="#6C7D02"/>
		<polygon points="26.404 9.782 27.192 10.088 26.448 9.958 25.88 9.958 25.268 10.088 25.137 9.739 25.268 9.607 25.399 9.521 25.618 9.521 26.055 9.695" fill="#6C7D02"/>
		<polygon points="27.279 11.488 27.891 11.488 28.94 11.793 28.459 11.706 28.197 11.619 27.979 11.662 27.848 11.662 27.716 11.706 27.366 12.056 27.017 11.619" fill="#6C7D02"/>
		<polygon points="30.034 13.105 30.165 13.149 30.296 13.236 30.82 13.368 30.602 13.324 30.383 13.324 30.121 13.28 29.946 13.28 29.509 13.411 29.421 13.411 29.378 13.455 29.203 13.368 29.378 13.192" fill="#6C7D02"/>
		<polygon points="31.65 15.728 32.088 15.728 32.22 15.772 32.351 15.903 32.788 16.165 32.263 15.947 32.045 15.903 31.913 15.947 31.695 15.947 31.607 15.859" fill="#6C7D02"/>
	</g>
		<radialGradient id="h" cx="23.404" cy="13.127" r="14.286" gradientTransform="matrix(.5929 .6427 .586 -.6511 -9.1546 19.464)" gradientUnits="userSpaceOnUse">
		<stop stop-color="#FF0008" offset="0"/>
		<stop stop-color="#800005" offset="1"/>
	</radialGradient>
	<path d="m15.956 22.374c0.67-0.058 1.603-0.189 2.797-0.393 0.962-0.088 1.793 0.043 2.492 0.393 1.137 0.525 1.967 1.53 2.492 3.017 0.699 1.924 0.568 4.125-0.394 6.602-0.875 2.215-1.865 3.702-2.973 4.459-0.554 0.379-1.574 0.685-3.06 0.918-1.865 0.321-3.381 0.365-4.547 0.132-2.157-0.379-3.76-1.545-4.809-3.498-1.428-2.71-1.953-5.129-1.574-7.257 0.408-1.982 1.545-3.41 3.41-4.285 1.283-0.583 2.419-0.758 3.411-0.524 1.399 0.319 2.318 0.464 2.755 0.436z" clip-rule="evenodd" fill="url(#h)" fill-rule="evenodd"/>
		<use transform="matrix(.8744 0 0 -.8744 7.2002 21.8)" x="-0.015" y="-10.956" width="10.03" height="10.962" enable-background="new" opacity=".6211" xlink:href="#j"/>
		<use transform="matrix(.8744 0 0 -.8744 13 24.95)" x="-0.004" y="-4.754" width="4.358" height="4.757" enable-background="new" opacity=".4492" xlink:href="#i"/>
	<path d="m10.403 25.74c0.641 0.029 1.107 0.218 1.399 0.568 0.292 0.292 0.35 0.598 0.175 0.918-0.175 0.262-0.524 0.394-1.049 0.394-0.496-0.029-0.933-0.16-1.312-0.394-0.35-0.233-0.423-0.539-0.219-0.918 0.234-0.378 0.569-0.568 1.006-0.568z" clip-rule="evenodd" fill="#fff" fill-rule="evenodd"/>
	<path d="m14.6 23.685l0.525-0.087c0.379-0.029 0.7-0.029 0.962 0 0.408 0.029 1.253-0.175 2.536-0.612-0.525 0.495-1.151 0.86-1.88 1.093-0.641 0.233-1.137 0.35-1.487 0.35-0.466 0.029-0.947-0.087-1.442-0.35-0.321-0.175-0.67-0.466-1.049-0.874l-0.481-0.612 0.656 0.394c0.553 0.29 1.106 0.524 1.66 0.698z" clip-rule="evenodd" fill="#FF9191" fill-rule="evenodd"/>
	<path d="m13.114 23.117c0.495 0.088 1.034 0 1.618-0.262 0.408-0.029 0.568-0.102 0.48-0.218 0.029-0.059 0.059-0.117 0.087-0.175 0.088-0.116 0.16-0.146 0.219-0.087 0.117 0.059 0.466 0.044 1.049-0.043l-0.218 0.306c-0.117 0.204-0.073 0.364 0.131 0.48 0.379 0.175 0.889 0.19 1.53 0.043l-0.743 0.306c-0.787 0.321-1.443 0.496-1.968 0.525-0.408 0.029-0.889-0.102-1.442-0.394l-0.743-0.481z" clip-rule="evenodd" fill="#800005" fill-rule="evenodd"/>
	<path d="m17.923 12.056c-1.428 3.002-2.201 5.771-2.317 8.307-0.058 1.544 0.087 2.681 0.438 3.41-0.467 0.262-0.816 0.277-1.049 0.044-0.117-0.117-0.19-0.321-0.219-0.612l-0.043-0.35c-0.117-0.32-0.175-0.86-0.175-1.618 0.029-1.516 0.321-3.41 0.875-5.683 0.67-2.652 1.807-5.145 3.41-7.477 1.458-2.127 2.23-3.57 2.317-4.328l0.087-1.18 0.35-0.175c0.321-0.087 0.686-0.029 1.093 0.175 0.583 0.292 0.816 0.539 0.7 0.743-0.554 0.67-0.977 1.443-1.268 2.317-0.146 0.379-0.714 1.239-1.705 2.58-1.139 1.486-1.969 2.769-2.494 3.847z" clip-rule="evenodd" fill="#A2B002" fill-rule="evenodd"/>
	<path d="m17.442 12.144c0.816-1.487 1.72-2.872 2.711-4.153 0.903-1.195 1.646-2.565 2.23-4.11 0.146-0.379 0.218-0.831 0.218-1.355l0.087 0.043c0.583 0.292 0.816 0.539 0.7 0.743-0.554 0.67-0.977 1.443-1.268 2.317-0.146 0.379-0.714 1.239-1.705 2.58-1.137 1.486-1.967 2.769-2.492 3.847-1.428 3.002-2.201 5.771-2.317 8.307-0.058 1.544 0.087 2.681 0.438 3.41-0.467 0.262-0.816 0.277-1.049 0.044l-0.175-0.394c0.263 0.088 0.423 0.131 0.481 0.131 0.233 0.029 0.306-0.35 0.219-1.137-0.146-1.487-0.189-2.871-0.131-4.153 0.086-1.72 0.771-3.76 2.053-6.12z" clip-rule="evenodd" fill="#839602" fill-rule="evenodd"/>
	<path d="m21.464 3.355c0.029-0.32 0.073-0.51 0.131-0.568 0.059-0.029 0.117 0.029 0.175 0.175 0.087 0.174 0 0.67-0.262 1.486-0.292 0.962-0.918 2.069-1.88 3.323-0.612 0.816-0.977 1.268-1.093 1.355-0.146 0.117-0.073-0.029 0.218-0.437 0.7-1.079 1.225-1.822 1.574-2.229 0.262-0.321 0.525-0.831 0.787-1.53 0.205-0.641 0.321-1.166 0.35-1.575z" clip-rule="evenodd" fill="#C8DB46" fill-rule="evenodd"/>
</svg>
