<?xml version="1.0" encoding="UTF-8"?>
<svg viewBox="0 0 428.66241 471.811" xmlns="http://www.w3.org/2000/svg" xmlns:xlink="http://www.w3.org/1999/xlink">
 <defs>
  <filter id="aa">
   <feGaussianBlur stdDeviation=".7915"/>
  </filter>
  <filter id="y">
   <feGaussianBlur stdDeviation="1.2703"/>
  </filter>
  <filter id="x">
   <feGaussianBlur stdDeviation="1.7148"/>
  </filter>
  <filter id="v">
   <feGaussianBlur stdDeviation=".3436"/>
  </filter>
  <filter id="ac" x="-.2945" y="-.20252" width="1.589" height="1.405">
   <feGaussianBlur stdDeviation="4.1198"/>
  </filter>
  <filter id="ab" x="-.18745" y="-.33349" width="1.3749" height="1.667">
   <feGaussianBlur stdDeviation="4.9492"/>
  </filter>
  <filter id="z" x="-.13432" y="-.25244" width="1.2686" height="1.5049">
   <feGaussianBlur stdDeviation="3.6772"/>
  </filter>
  <filter id="h" x="-.12549" y="-.23585" width="1.251" height="1.4717">
   <feGaussianBlur stdDeviation="3.4355"/>
  </filter>
  <filter id="w" x="-.0732" y="-.10003" width="1.1464" height="1.2001">
   <feGaussianBlur stdDeviation=".6728"/>
  </filter>
  <linearGradient id="e">
   <stop stop-color="#120a09" offset="0"/>
   <stop stop-color="#130a09" offset=".4098"/>
   <stop stop-color="#431414" offset=".5913"/>
   <stop stop-color="#fff" offset="1"/>
  </linearGradient>
  <linearGradient id="f">
   <stop stop-color="#b01c2d" offset="0"/>
   <stop stop-color="#771d1f" offset=".3659"/>
   <stop stop-color="#5e1a1a" offset=".4625"/>
   <stop stop-color="#0f0908" offset=".8693"/>
   <stop stop-color="#a7acaf" offset="1"/>
  </linearGradient>
  <linearGradient id="a">
   <stop stop-color="#49582d" offset="0"/>
   <stop stop-color="#283608" offset="1"/>
  </linearGradient>
  <linearGradient id="g">
   <stop stop-color="#1a1f11" offset="0"/>
   <stop stop-color="#afd56a" offset="1"/>
  </linearGradient>
  <linearGradient id="b">
   <stop stop-color="#f9f9f9" offset="0"/>
   <stop stop-color="#f9f9f9" stop-opacity="0" offset="1"/>
  </linearGradient>
  <linearGradient id="u" x1="699.29" x2="271.05" y1="189.82" y2="200.32" gradientUnits="userSpaceOnUse" xlink:href="#g"/>
  <linearGradient id="t" x1="536.18" x2="437.79" y1="78.169" y2="21.755" gradientUnits="userSpaceOnUse" xlink:href="#g"/>
  <linearGradient id="s" x1="494.94" x2="364.39" y1="199.01" y2="181.94" gradientUnits="userSpaceOnUse" xlink:href="#a"/>
  <linearGradient id="r" x1="632.18" x2="292.33" y1="176.56" y2="101.5" gradientUnits="userSpaceOnUse" xlink:href="#a"/>
  <radialGradient id="q" cx="625.71" cy="299.59" r="104.16" gradientTransform="matrix(1.4443 -.40624 .31003 1.1023 -368.27 225.83)" gradientUnits="userSpaceOnUse" xlink:href="#f"/>
  <radialGradient id="p" cx="-552.04" cy="300.12" r="107.21" gradientTransform="matrix(1.4132 .03551 -.02865 1.1401 1196.2 46.616)" gradientUnits="userSpaceOnUse" xlink:href="#f"/>
  <radialGradient id="d" cx="413.09" cy="370.7" r="31.683" gradientTransform="matrix(1.8096 .48489 -.27255 1.0172 -233.42 -206.67)" gradientUnits="userSpaceOnUse" xlink:href="#b"/>
  <radialGradient id="c" cx="647.2" cy="294.1" r="17.538" gradientTransform="matrix(1.6415 0 0 2.1189 -408.66 -338.58)" gradientUnits="userSpaceOnUse" xlink:href="#b"/>
  <radialGradient id="o" cx="406.92" cy="318.13" r="30.73" gradientTransform="matrix(1.8306 .62646 -.12497 .36516 -299.76 -65.516)" gradientUnits="userSpaceOnUse" xlink:href="#b"/>
  <radialGradient id="n" cx="589.75" cy="266.17" r="32.851" gradientTransform="matrix(1 0 0 .53209 0 124.54)" gradientUnits="userSpaceOnUse" xlink:href="#e"/>
  <radialGradient id="m" cx="405.9" cy="304.36" r="32.851" gradientTransform="matrix(1 0 0 .53209 0 142.41)" gradientUnits="userSpaceOnUse" xlink:href="#e"/>
  <radialGradient id="l" cx="530.47" cy="34.665" r="10.968" gradientTransform="matrix(1 0 0 .73588 0 9.1556)" gradientUnits="userSpaceOnUse" xlink:href="#a"/>
  <radialGradient id="k" cx="536.22" cy="21.54" r="10.968" gradientTransform="matrix(.82992 0 0 .66893 90.443 5.0219)" gradientUnits="userSpaceOnUse" xlink:href="#a"/>
  <radialGradient id="j" cx="538.17" cy="16.499" r="10.252" gradientTransform="matrix(1 0 0 .91682 1.7678 -2.5166)" gradientUnits="userSpaceOnUse" xlink:href="#a"/>
  <radialGradient id="i" cx="499.98" cy="97.626" r="7.2064" gradientTransform="matrix(1.8326 -.01735 .03136 3.3129 -417.31 -211.12)" gradientUnits="userSpaceOnUse" xlink:href="#a"/>
 </defs>
 <g transform="translate(-272.44 -1.6857)">
  <path d="m345.75 273.03c-46.096 3.5598-76.451 52.188-73.049 95.753 0.46946 44.217 26.473 93.125 72.664 102.69 44.284 8.8813 91.122-12.401 119.86-45.851 24.436-29.483 32.121-79.585 2.1234-107.99-15.252-14.223-36.996-21.028-57.65-18.441-4.5456-4.5864-10.194-3.9186-15.741-7.1217-14.708-8.4934-19.216-19.063-48.206-19.041z" fill="url(#p)"/>
  <path d="m444.77 361.52c0 6.2484-19.521 38.558-28.638 22.627-6.879-12.021-33.296-21.329-34.648-27.577-1.3217-6.107 13.893 6.0001 31.113-0.35356 20.122-7.4246 32.173-0.94509 32.173 5.3033z" fill="url(#d)"/>
  <path d="m444.77 361.52c0 6.2484-19.521 38.558-28.638 22.627-6.879-12.021-33.296-21.329-34.648-27.577-1.3217-6.107 13.893 6.0001 31.113-0.35356 20.122-7.4246 32.173-0.94509 32.173 5.3033z" fill="url(#d)" filter="url(#ab)"/>
  <path d="m633.75 214.72c-23.47 1.4619-41.271 24.693-65.75 20.062-13.268-2.7008-29.308 1.3602-40.483 7.2966-12.59 6.6881-22.685 17.49-28.642 30.61-11.571 26.751-5.5963 58.01 8.9688 82.375 17.611 31.938 50.455 58.278 88.094 58.969 28.508-0.62976 58.318-10.333 78-31.719 17.264-20.173 25.215-47.008 27-73.125 1.6736-31.517-9.1644-66.347-36.406-84.594-9.1046-5.9833-19.827-9.7711-30.781-9.875z" fill="url(#q)"/>
  <path d="m671.04 289.11c-1.3072 12.428-11.165 22.627-20.928 22.627-17.325-0.60785-12.281-10.463-9.131-22.701 2.5216-9.7959 0.52785-22.134 9.3884-24.933 5.274 0.27239 14.58-3.2593 17.34 0.70907 3.6934 5.3091 4.0957 17.018 3.3301 24.297z" fill="url(#c)"/>
  <path d="m671.04 289.11c-1.3072 12.428-11.165 22.627-20.928 22.627-17.325-0.60785-12.281-10.463-9.131-22.701 2.5216-9.7959 0.52785-22.134 9.3884-24.933 5.274 0.27239 14.58-3.2593 17.34 0.70907 3.6934 5.3091 4.0957 17.018 3.3301 24.297z" fill="url(#c)" filter="url(#ac)"/>
  <path d="m534.97 6.9602c-4.1689 1.1855-5.8846 6.4195-8.2426 10.056-2.6706 4.1186-4.9268 8.5508-6.5892 13.169-2.3816 6.6171-9.1269 15.052-4.7494 20.556 0.73268 0.92126 2.4369 0.43347 3.5312 0 5.7032-2.259 9.2654-8.0804 13.411-12.601 4.1337-4.5076 8.4466-9.0305 11.362-14.407 2.0723-3.8213 6.0964-8.4539 4.1768-12.354-2.0072-4.0783-8.5283-5.6628-12.9-4.4194z" fill="url(#u)" filter="url(#aa)"/>
  <path d="m435.93 310.08c-5.9069 4.5872-8.6328 7.9276-25.809 11.49-19.31 4.0055-45.75-38.076-34.295-34.471 5.6569 1.78 16.068 7.8477 34.295 15.38 14.603 6.0345 36.448-0.65994 25.809 7.6014z" fill="url(#o)" filter="url(#z)" opacity=".1023"/>
  <path d="m435.93 310.08c-5.9069 4.5872-8.6328 7.9276-25.809 11.49-19.31 4.0055-45.75-38.076-34.295-34.471 5.6569 1.78 16.068 7.8477 34.295 15.38 14.603 6.0345 36.448-0.65994 25.809 7.6014z" fill="url(#m)" filter="url(#h)" opacity=".8186"/>
  <path transform="matrix(-1 0 0 1 1177.7 -22.627)" d="m619.78 271.89c-5.9069 4.5872-8.6328 7.9276-25.809 11.49-19.31 4.0055-45.75-38.076-34.295-34.471 5.6569 1.78 16.068 7.8477 34.295 15.38 14.603 6.0345 36.448-0.65994 25.809 7.6014z" fill="url(#n)" filter="url(#h)" opacity=".8186"/>
  <path d="m542.56 1.6875c-0.83767 0.01297-1.744 0.12002-2.6875 0.28125-4.5822 3.3546-15.138 4.2888-15.656 11.094-0.84466 11.759-11.695 21.809-13.031 31-2.4433 5.2358-5.4874 12.524-8.2812 21.5-45.309 58.152-71.191 117.85-85.747 163-13.247 41.097-17.839 73.839-22.216 75.005-0.77449 0.20636-1.4559 1.2059-1.2255 1.7436-0.17232 1.0339 6.7444 5.495 10.157 5.6515 5.1395 0.23572 10.141-1.7191 11.065-3.3025 0.58331-0.99908-1.9992-1.6906-2.3223-2.0946 0 0-0.13071-0.5055-0.26436-1.495-0.34104-2.5249-0.70127-8.2012 1.0418-16.672 2.4262-11.79 4.6847-30.409 11.085-50.651s15.175-43.874 27.097-69.228 26.993-52.429 45.985-79.556c-0.39564 2.5756-0.94564 4.8422-1.0625 7.3125-0.5407 4.3984-0.91516 8.9303-1.0625 13.625-0.33412 10.646 0.84205 21.906 3.8998 33.479s7.9972 23.457 15.19 35.352 16.638 23.8 28.707 35.413c11.399 10.968 20.178 18.46 39.142 32.257 0.93989 0.68379 0.83653 3.5937 1.8199 4.19 11.78 4.5394 24.542-10.606 11.683-10.825-17.123-10.384-34.794-20.843-46.347-31.846s-20.522-22.196-27.312-33.341-11.4-22.243-14.235-33.055-3.8928-21.339-3.5789-31.341c0.46487-14.812 3.2556-28.225 6.5625-39.25 5.1869-6.6026 10.68-13.189 16.5-19.719 0.68756-0.60343 1.372-1.2835 2.0625-2 6.168-0.49361 11.959-1.4056 15.312-16.5 0.5997-2.4317 6.4752-3.0477 5.8438-7.0312-0.76952-4.8548 1.9453-10.549 1.4688-15.062-0.49003-4.6412-3.7301-8.0283-9.5938-7.9375z" fill="url(#t)"/>
  <path d="m510.16 59.576c-89.478 115.82-105.82 238.92-105.82 238.92l3.5312-0.0625c0.0705-0.66265 13.757-122.3 102.99-237.8z" fill="url(#s)" filter="url(#x)"/>
  <path d="m504 80.358c-1.5183 2.1685-3.0002 4.333-4.4688 6.5-0.59539 4.6483-1.1669 11.899-1.3517 16.882-1.6066 43.304 18.697 98.613 91 137.41l0.96875-1.5938c-69.749-39.508-89.93-93.736-88.438-136.31 0.25744-7.3419 1.1822-16.295 2.2892-22.882z" fill="url(#r)" filter="url(#y)"/>
  <path transform="matrix(.91929 0 0 .85421 42.808 5.1787)" d="m519.75 26.594c-0.73698 5.5454-0.55225 10.208 2.1562 11.812 4.1964 2.4866 4.7942 3.6485 7.6875 4.0938 5.7865 0.89041 11.844-1.0312 11.844-1.0312l-0.25-0.78125s-5.8228 0.19329-11.344-0.65625c-2.7605-0.42477-5.2675-0.25992-7.0312-2.5312s-2.968-5.3787-2.25-10.781z" fill="url(#l)" filter="url(#w)" opacity=".77"/>
  <path transform="matrix(1.237 0 0 1.1406 -125.97 -2.5037)" d="m526.56 12.094c-0.61163 5.0409 0.98191 7.5394 2.5844 9.7998s5.0681 2.2939 7.4692 2.6986c4.8023 0.8094 7.9451 1.0231 7.9451 1.0231l-0.20748-0.71017s-7.6308-1.0382-12.213-1.8105c-2.291-0.38612-1.396-0.78918-2.8598-2.8538s-2.6404-3.1225-2.0446-8.0335z" fill="url(#k)" filter="url(#v)" opacity=".77"/>
  <path d="m510.21 71.127c-1.75 3.25-12.75 17-12.75 17-2.1764 11.743-0.5 30.75-0.5 30.75 2.7753-7.7788 2.454-20.463 5.0726-30.455s8.1774-17.295 8.1774-17.295z" fill="url(#i)"/>
  <path d="m543.14 3.2121c-0.61147 0.00823-1.2731 0.07616-1.9618 0.17845-3.3449 2.1285-11.05 2.7213-11.429 7.039-0.0187 0.22655-0.0366 0.44959-0.0684 0.67416-9.3e-4 0.0065 9.4e-4 0.01327 0 0.01983 2.5909 6.5288 7.2288 10.886 12.524 10.886 1.1475 0 2.2586-0.2281 3.3305-0.61467 1.3314-0.94183 3.8977-1.6045 3.5358-3.5889-0.56173-3.0804 1.42-6.6933 1.0722-9.5572-0.35771-2.9448-2.7228-5.0939-7.0032-5.0363z" fill="url(#j)" opacity=".88"/>
  <path d="m395.08 303.02c-0.47823 0.39719-1.5302 1.9009-1.3634 2.2901-0.17232 1.0339 6.7438 5.4997 10.156 5.6562 5.1395 0.23572 10.138-1.7292 11.062-3.3125 0.34026-0.5828-0.38763-1.0288-1.125-1.4062-2.6051 0.40177-5.5309 0.75-8.6875 0.75-4.1041 0-7.0844-2.362-10.043-3.9776z" fill="#2a3415" opacity=".8186"/>
  <path d="m600.88 240.66c-0.59765-1.1584-2.8543-3.1731-3.7742-1.023-2.8449 6.6498-10.643 8.1493-13.757 8.1792 0.19541 0.78488 0.40454 1.5149 0.84375 1.7812 3.6813 1.4186 7.4701 0.93241 10.531-0.4375l0.0625-0.0312c1.3043-0.81796 2.6117-1.6744 3.875-2.5625l0.0625-0.0625c2.1146-1.9745 3.1082-3.9986 2.1562-5.8438z" fill="#273114"/>
 </g>
</svg>
