<?xml version="1.0" encoding="UTF-8" standalone="no"?>
<!DOCTYPE svg PUBLIC "-//W3C//DTD SVG 1.1//EN" "http://www.w3.org/Graphics/SVG/1.1/DTD/svg11.dtd">
<svg width="100%" height="100%" viewBox="0 0 2481 3508" version="1.1" xmlns="http://www.w3.org/2000/svg" xmlns:xlink="http://www.w3.org/1999/xlink" xml:space="preserve" xmlns:serif="http://www.serif.com/" style="fill-rule:evenodd;clip-rule:evenodd;stroke-linejoin:round;stroke-miterlimit:2;">
    <g transform="matrix(1,0,0,1,-349.869,897.244)">
        <rect x="1213.79" y="382.677" width="632.889" height="392.489" style="fill:rgb(144,92,154);"/>
        <g transform="matrix(1,0,0,1,905.709,-646.129)">
            <ellipse cx="373.616" cy="1365.69" rx="28.215" ry="26.804" style="fill:white;"/>
        </g>
        <g transform="matrix(0.782407,0,0,0.799342,814.089,154.276)">
            <rect x="884.553" y="347.01" width="76.181" height="428.871" style="fill:rgb(255,255,0);"/>
        </g>
        <g transform="matrix(1.10853,0,0,0.2875,-166.071,189.254)">
            <rect x="1213.79" y="382.677" width="632.889" height="392.489" style="fill:rgb(141,93,155);"/>
        </g>
        <g transform="matrix(1.00042,0,0,0.0502699,-0.754234,392.897)">
            <rect x="1213.79" y="382.677" width="632.889" height="392.489" style="fill:rgb(68,53,51);"/>
        </g>
        <g transform="matrix(0.907007,0,0,0.564821,499.23,-0.528116)">
            <path d="M1523.63,530.501L750.531,530.501L943.805,388.014L1330.35,388.014L1523.63,530.501Z" style="fill:rgb(203,124,229);"/>
        </g>
        <g transform="matrix(1.06429,-0.00589393,0.00216413,0.390786,702.994,84.6041)">
            <path d="M1090.84,556.283C1104.58,544.488 938.666,414.02 756.868,414.202C586.79,414.373 450.354,545.898 464.098,557.694L1090.84,556.283Z" style="fill:rgb(255,86,85);fill-opacity:0.13;"/>
        </g>
        <g transform="matrix(0.817901,0,0,0.263706,781.576,207.535)">
            <rect x="884.553" y="347.01" width="76.181" height="428.871" style="fill:rgb(247,236,18);"/>
        </g>
        <g transform="matrix(0.82176,0,0,0.0456414,777.869,396.243)">
            <rect x="884.553" y="347.01" width="76.181" height="428.871" style="fill:rgb(83,53,99);"/>
        </g>
        <g transform="matrix(0.842593,0,0,0.183388,757.854,156.051)">
            <path d="M946.921,347.01L884.553,347.01L884.553,775.881L960.734,775.881L946.921,347.01Z" style="fill:rgb(247,236,18);"/>
        </g>
        <g transform="matrix(-0.999969,-0.00793627,0.00793627,-0.999969,2301.19,996.208)">
            <path d="M1090.84,556.283C1104.58,544.488 938.666,414.02 756.868,414.202C586.79,414.373 450.354,545.898 464.098,557.694L1090.84,556.283Z" style="fill:rgb(255,86,85);fill-opacity:0.13;"/>
        </g>
        <g transform="matrix(0.816216,0,0,0.816216,311.588,-669.758)">
            <g>
                <g transform="matrix(1,0,0,1,95.2264,-65.6004)">
                    <path d="M1331.76,1194.19C1331.76,1194.19 1191.04,1325.39 1116.97,1420.62C1042.91,1515.85 1115.56,1515.5 1089.46,1547.59C1074.67,1565.78 1117.43,1601.64 1140.25,1596.26C1180.63,1586.74 1109.73,1508.86 1173.05,1446.02C1313.78,1306.35 1411.12,1194.19 1411.12,1194.19L1331.76,1194.19Z" style="fill:rgb(177,132,187);"/>
                </g>
                <g transform="matrix(-1,0,0,1,2893.88,-63.4842)">
                    <path d="M1331.76,1194.19C1331.76,1194.19 1214.32,1261.91 1140.25,1357.14C1066.19,1452.36 1115.56,1515.5 1089.46,1547.59C1074.67,1565.78 1117.43,1601.64 1140.25,1596.26C1180.63,1586.74 1113.96,1464.42 1177.28,1401.58C1318.01,1261.91 1411.12,1194.19 1411.12,1194.19L1331.76,1194.19Z" style="fill:rgb(177,132,187);"/>
                </g>
                <g transform="matrix(1,0,0,1,253.937,-184.104)">
                    <g transform="matrix(1,0,0,0.525641,-171.408,660.021)">
                        <path d="M1568.77,1012.21C1663.96,1012.21 1741.24,1086.17 1741.24,1177.27C1741.24,1268.36 1663.96,1342.32 1568.77,1342.32C1473.58,1342.32 1396.3,1268.36 1396.3,1177.27C1396.3,1086.17 1473.58,1012.21 1568.77,1012.21ZM1568.77,1094.74C1616.36,1094.74 1655,1131.72 1655,1177.27C1655,1222.81 1616.36,1259.79 1568.77,1259.79C1521.18,1259.79 1482.54,1222.81 1482.54,1177.27C1482.54,1131.72 1521.18,1094.74 1568.77,1094.74Z" style="fill:rgb(181,132,207);"/>
                    </g>
                    <g transform="matrix(1,0,0,0.532051,-490.945,664.113)">
                        <path d="M1568.77,1012.21C1663.96,1012.21 1741.24,1086.17 1741.24,1177.27C1741.24,1268.36 1663.96,1342.32 1568.77,1342.32C1473.58,1342.32 1396.3,1268.36 1396.3,1177.27C1396.3,1086.17 1473.58,1012.21 1568.77,1012.21ZM1568.77,1094.74C1616.36,1094.74 1655,1131.72 1655,1177.27C1655,1222.81 1616.36,1259.79 1568.77,1259.79C1521.18,1259.79 1482.54,1222.81 1482.54,1177.27C1482.54,1131.72 1521.18,1094.74 1568.77,1094.74Z" style="fill:rgb(181,132,207);"/>
                    </g>
                </g>
            </g>
            <g transform="matrix(0.9614,0,0,0.9614,46.8654,43.1403)">
                <g transform="matrix(1,0,0,1,95.2264,-65.6004)">
                    <path d="M1331.76,1194.19C1331.76,1194.19 1191.04,1325.39 1116.97,1420.62C1042.91,1515.85 1115.56,1515.5 1089.46,1547.59C1074.67,1565.78 1117.43,1601.64 1140.25,1596.26C1180.63,1586.74 1109.73,1508.86 1173.05,1446.02C1313.78,1306.35 1411.12,1194.19 1411.12,1194.19L1331.76,1194.19Z" style="fill:rgb(193,107,212);fill-opacity:0.25;"/>
                </g>
                <g transform="matrix(-1,0,0,1,2893.88,-63.4842)">
                    <path d="M1331.76,1194.19C1331.76,1194.19 1214.32,1261.91 1140.25,1357.14C1066.19,1452.36 1115.56,1515.5 1089.46,1547.59C1074.67,1565.78 1117.43,1601.64 1140.25,1596.26C1180.63,1586.74 1113.96,1464.42 1177.28,1401.58C1318.01,1261.91 1411.12,1194.19 1411.12,1194.19L1331.76,1194.19Z" style="fill:rgb(193,107,212);fill-opacity:0.25;"/>
                </g>
                <g transform="matrix(1,0,0,1,253.937,-184.104)">
                    <g transform="matrix(1,0,0,0.525641,-171.408,660.021)">
                        <path d="M1568.77,1012.21C1663.96,1012.21 1741.24,1086.17 1741.24,1177.27C1741.24,1268.36 1663.96,1342.32 1568.77,1342.32C1473.58,1342.32 1396.3,1268.36 1396.3,1177.27C1396.3,1086.17 1473.58,1012.21 1568.77,1012.21ZM1568.77,1094.74C1616.36,1094.74 1655,1131.72 1655,1177.27C1655,1222.81 1616.36,1259.79 1568.77,1259.79C1521.18,1259.79 1482.54,1222.81 1482.54,1177.27C1482.54,1131.72 1521.18,1094.74 1568.77,1094.74Z" style="fill:rgb(193,107,212);fill-opacity:0.25;"/>
                    </g>
                    <g transform="matrix(1,0,0,0.532051,-490.945,664.113)">
                        <path d="M1568.77,1012.21C1663.96,1012.21 1741.24,1086.17 1741.24,1177.27C1741.24,1268.36 1663.96,1342.32 1568.77,1342.32C1473.58,1342.32 1396.3,1268.36 1396.3,1177.27C1396.3,1086.17 1473.58,1012.21 1568.77,1012.21ZM1568.77,1094.74C1616.36,1094.74 1655,1131.72 1655,1177.27C1655,1222.81 1616.36,1259.79 1568.77,1259.79C1521.18,1259.79 1482.54,1222.81 1482.54,1177.27C1482.54,1131.72 1521.18,1094.74 1568.77,1094.74Z" style="fill:rgb(193,107,212);fill-opacity:0.25;"/>
                    </g>
                </g>
            </g>
        </g>
    </g>
    <g transform="matrix(1,0,0,1,727.953,59.252)">
        <ellipse cx="373.616" cy="1365.69" rx="28.215" ry="26.804" style="fill:white;"/>
    </g>
    <g transform="matrix(1,0,0,1,987.533,194.685)">
        <ellipse cx="373.616" cy="1365.69" rx="28.215" ry="26.804" style="fill:white;"/>
    </g>
    <g transform="matrix(1,0,0,1,722.31,256.759)">
        <ellipse cx="373.616" cy="1365.69" rx="28.215" ry="26.804" style="fill:white;"/>
    </g>
    <g transform="matrix(1,0,0,1,1072.18,262.402)">
        <ellipse cx="373.616" cy="1365.69" rx="28.215" ry="26.804" style="fill:white;"/>
    </g>
    <g transform="matrix(1,0,0,1,885.958,121.325)">
        <ellipse cx="373.616" cy="1365.69" rx="28.215" ry="26.804" style="fill:white;"/>
    </g>
    <g transform="matrix(1,0,0,1,953.674,59.2519)">
        <ellipse cx="373.616" cy="1365.69" rx="28.215" ry="26.804" style="fill:white;"/>
    </g>
    <g transform="matrix(1,0,0,1,1069.36,143.897)">
        <ellipse cx="373.616" cy="1365.69" rx="28.215" ry="26.804" style="fill:white;"/>
    </g>
    <g transform="matrix(1,0,0,1,533.268,138.255)">
        <ellipse cx="373.616" cy="1365.69" rx="28.215" ry="26.804" style="fill:white;"/>
    </g>
    <g transform="matrix(1,0,0,1,643.307,146.719)">
        <ellipse cx="373.616" cy="1365.69" rx="28.215" ry="26.804" style="fill:white;"/>
    </g>
    <g transform="matrix(1,0,0,1,883.136,268.045)">
        <ellipse cx="373.616" cy="1365.69" rx="28.215" ry="26.804" style="fill:white;"/>
    </g>
</svg>
