<?xml version="1.0" encoding="UTF-8"?>
<!DOCTYPE svg PUBLIC "-//W3C//DTD SVG 1.1//EN" "http://www.w3.org/Graphics/SVG/1.1/DTD/svg11.dtd">
<!-- Creator: CorelDRAW SE -->
<svg xmlns="http://www.w3.org/2000/svg" xml:space="preserve" width="345.27mm" height="471.117mm" version="1.1" style="shape-rendering:geometricPrecision; text-rendering:geometricPrecision; image-rendering:optimizeQuality; fill-rule:evenodd; clip-rule:evenodd"
viewBox="0 0 31539 43034"
 xmlns:xlink="http://www.w3.org/1999/xlink">
 <defs>
  <style type="text/css">
   <![CDATA[
    .fil12 {fill:#64B383}
    .fil13 {fill:#79D49D}
    .fil4 {fill:#821719}
    .fil2 {fill:#915D3F}
    .fil3 {fill:#9F2124}
    .fil1 {fill:#A36948}
    .fil0 {fill:#B37550}
    .fil9 {fill:#BED674}
    .fil14 {fill:#C43F41}
    .fil10 {fill:#E1F5A4}
    .fil6 {fill:#E3D2B1}
    .fil5 {fill:#E6E6E6}
    .fil7 {fill:#F0BB53}
    .fil11 {fill:#F7D48F}
    .fil8 {fill:white}
   ]]>
  </style>
 </defs>
 <g id="Vrstva_x0020_1">
  <metadata id="CorelCorpID_0Corel-Layer"/>
  <g id="_2013833968">
   <path class="fil0" d="M16155 5625c-1506,281 -2964,762 -4095,1525 -1131,763 -1934,1807 -2282,3192 -348,1385 -241,3111 448,4543 690,1432 1961,2569 2570,3211 609,643 555,790 53,1104 -502,315 -1452,797 -2623,1425 -1170,629 -2562,1406 -3626,2115 -1064,709 -1800,1351 -2148,2208 -348,856 -308,1927 94,2609 401,683 1164,977 2061,763 896,-214 1927,-937 2810,-1492 883,-555 1619,-943 2081,-1084 461,-140 649,-33 829,201 181,234 355,595 -60,1866 -415,1272 -1418,3453 -2328,5326 -910,1874 -1726,3440 -2228,4771 -502,1332 -689,2429 -516,3245 174,816 710,1352 1285,1646 576,294 1191,348 1833,-47 643,-395 1312,-1238 2175,-2582 863,-1345 1920,-3192 2730,-4403 809,-1211 1371,-1787 1793,-2114 422,-328 703,-409 977,-395 274,13 542,120 957,582 414,462 977,1278 1612,2435 636,1158 1345,2657 1987,3714 643,1057 1218,1673 1901,2047 682,375 1472,509 2121,428 649,-80 1157,-374 1458,-976 301,-603 395,-1513 87,-2697 -308,-1184 -1017,-2643 -1900,-4322 -883,-1679 -1940,-3580 -2630,-4804 -689,-1225 -1010,-1773 -1211,-2409 -200,-636 -281,-1358 -67,-1713 215,-354 723,-341 1339,-6 615,334 1338,990 2261,1532 924,542 2048,970 2944,1084 897,113 1566,-87 1987,-402 422,-314 596,-742 669,-1304 74,-562 47,-1258 -227,-1914 -274,-656 -796,-1271 -1465,-1773 -669,-502 -1486,-890 -2295,-1338 -810,-449 -1613,-957 -2536,-1486 -923,-528 -1967,-1077 -2503,-1385 -535,-307 -562,-374 -281,-675 281,-302 870,-837 1412,-1693 542,-857 1037,-2034 1238,-3185 201,-1151 107,-2275 -221,-3319 -328,-1044 -890,-2007 -1572,-2743 -683,-736 -1486,-1245 -2663,-1459 -1178,-214 -2730,-133 -4235,148z"/>
   <path class="fil1" d="M16155 5625c-1506,281 -2964,762 -4095,1525 -1131,763 -1934,1807 -2282,3192 -196,782 -248,1674 -131,2560 169,37 351,14 554,-31 508,-114 1150,-368 1632,-696 482,-328 803,-729 1205,-963 401,-234 883,-301 1385,-529 501,-227 1023,-615 1572,-809 549,-194 1124,-194 1673,-542 548,-348 1070,-1044 1512,-1405 441,-362 803,-389 1478,-542 617,-141 1496,-387 2143,-704 -629,-599 -1375,-1015 -2411,-1204 -1178,-214 -2730,-133 -4235,148z"/>
   <path class="fil1" d="M4541 27548l5 9c401,683 1164,977 2061,763 896,-214 1927,-937 2810,-1492 883,-555 1619,-943 2081,-1084 40,-12 78,-22 114,-31 -71,-198 -227,-355 -401,-451 -268,-147 -575,-147 -1211,134 -636,281 -1599,843 -2355,1245 -756,401 -1305,642 -1860,742 -478,87 -961,69 -1244,165z"/>
   <path class="fil2" d="M5086 28123c408,260 936,337 1521,197 896,-214 1927,-937 2810,-1492 693,-436 1296,-769 1746,-960 -153,-67 -360,-96 -621,-40 -515,110 -1238,552 -1954,950 -716,398 -1425,753 -1943,970 -519,217 -847,298 -1329,351 -74,9 -151,16 -230,24z"/>
   <path class="fil1" d="M7586 42041c244,338 562,588 894,758 576,294 1191,348 1833,-47 643,-395 1312,-1238 2175,-2582 863,-1345 1920,-3192 2730,-4403 809,-1211 1371,-1787 1793,-2114 102,-80 196,-145 283,-197 -265,-153 -664,-201 -1185,96 -669,382 -1539,1332 -2442,2630 -904,1298 -1840,2944 -2590,3968 -749,1023 -1311,1425 -2107,1639 -439,118 -949,179 -1384,252z"/>
   <path class="fil2" d="M8080 42547c128,98 263,182 400,252 576,294 1191,348 1833,-47 643,-395 1312,-1238 2175,-2582 863,-1345 1920,-3192 2730,-4403 594,-889 1055,-1435 1425,-1793 -117,29 -243,76 -374,147 -495,268 -1070,870 -1639,1613 -569,742 -1131,1625 -1693,2529 -562,903 -1124,1826 -1639,2515 -515,690 -983,1145 -1432,1399 -448,254 -876,308 -1458,348 -106,7 -217,14 -328,22z"/>
   <path class="fil1" d="M24316 41962c43,26 85,51 129,74 682,375 1472,509 2121,428 649,-80 1157,-374 1458,-976 301,-603 395,-1513 87,-2697 -308,-1184 -1017,-2643 -1900,-4322 -883,-1679 -1940,-3580 -2630,-4804 -689,-1225 -1010,-1773 -1211,-2409 -177,-563 -261,-1194 -129,-1577 -133,79 -241,245 -278,540 -74,582 127,1666 528,2924 402,1258 1004,2690 1753,4376 750,1686 1646,3626 2001,4911 355,1285 167,1914 -402,2362 -548,432 -1450,696 -1527,1170z"/>
   <path class="fil2" d="M25435 42404c392,85 781,104 1131,60 649,-80 1157,-374 1458,-976 301,-603 395,-1513 87,-2697 -308,-1184 -1017,-2643 -1900,-4322 -883,-1679 -1940,-3580 -2630,-4804 -591,-1050 -911,-1603 -1117,-2141 115,480 346,1132 750,2041 616,1385 1633,3365 2516,5218 883,1854 1632,3580 1887,4684 254,1104 13,1586 -275,1914 -287,328 -622,501 -1131,702 -244,97 -528,199 -776,321z"/>
   <path class="fil1" d="M31241 27302c142,-242 219,-526 262,-855 74,-562 47,-1258 -227,-1914 -274,-656 -796,-1271 -1465,-1773 -669,-502 -1486,-890 -2295,-1338 -810,-449 -1613,-957 -2536,-1486 -923,-528 -1967,-1077 -2503,-1385 -535,-307 -562,-374 -281,-675 281,-302 870,-837 1412,-1693 542,-857 1037,-2034 1238,-3185 201,-1151 107,-2275 -221,-3319 -328,-1044 -890,-2007 -1572,-2743 -683,-736 -1486,-1245 -2663,-1459 -808,-147 -1792,-155 -2817,-55 1247,866 2826,1912 3734,3367 1077,1727 1211,4028 1044,5648 -168,1619 -636,2555 -1084,3251 -449,696 -877,1151 -455,1646 421,495 1693,1031 3084,1727 1392,695 2904,1552 3948,2241 1044,689 1619,1211 2174,2061 418,639 825,1464 1223,1939z"/>
   <path class="fil2" d="M31538 25851c-6,-423 -79,-879 -262,-1318 -274,-656 -796,-1271 -1465,-1773 -669,-502 -1486,-890 -2295,-1338 -810,-449 -1613,-957 -2536,-1486 -923,-528 -1967,-1077 -2503,-1385 -535,-307 -562,-374 -281,-675 281,-302 870,-837 1412,-1693 542,-857 1037,-2034 1238,-3185 201,-1151 107,-2275 -221,-3319 -328,-1044 -890,-2007 -1572,-2743 -683,-736 -1486,-1245 -2663,-1459 -368,-67 -773,-105 -1202,-117 1002,709 2153,1577 2942,2747 830,1231 1258,2797 1412,4035 153,1237 33,2147 -241,2957 -275,810 -703,1519 -1011,2067 -307,549 -495,937 -448,1278 47,342 328,636 1017,1031 689,395 1787,890 3232,1766 1445,877 3238,2135 4295,3198 532,535 877,1021 1152,1412z"/>
   <path class="fil3" d="M20510 3711c-401,-402 -1137,-1031 -2201,-1680 -1064,-649 -2456,-1318 -3667,-1686 -1211,-368 -2241,-435 -3271,-234 -1031,201 -2061,669 -3071,1292 -1011,622 -2001,1398 -2817,2228 -817,829 -1459,1712 -1907,2341 -449,629 -703,1004 -837,1312 -133,308 -147,548 -53,736 94,187 294,321 589,361 294,40 682,-13 1070,-160 388,-148 776,-389 1345,-723 569,-335 1318,-763 1840,-1077 522,-315 816,-516 977,-509 160,7 187,221 241,489 53,267 134,588 247,1037 114,448 261,1023 489,1284 227,261 535,208 1592,-247 1057,-455 2864,-1312 4543,-2007 1680,-696 3232,-1232 4115,-1539 883,-308 1097,-388 1171,-516 74,-127 7,-301 -395,-702z"/>
   <path class="fil4" d="M8652 6023c43,89 65,225 96,378 53,267 134,588 247,1037 91,358 204,798 361,1093 167,-84 354,-311 570,-487 218,-178 465,-305 680,-395 214,-90 394,-144 294,-311 -100,-168 -803,-117 -1204,-382 -402,-264 -596,-867 -790,-916 -194,-50 -185,-30 -254,-17z"/>
   <path class="fil5" d="M4171 7605c-374,-174 -883,-455 -1405,-575 -522,-121 -1057,-81 -1378,66 -321,148 -428,402 -535,609 -107,208 -215,368 -362,502 -147,134 -334,241 -428,435 -94,194 -94,475 74,683 167,207 501,341 716,535 214,194 307,448 481,656 174,207 429,367 669,408 241,40 469,-41 683,-214 214,-174 415,-442 656,-536 240,-93 521,-13 796,-93 274,-81 542,-322 689,-710 147,-388 174,-923 67,-1224 -107,-301 -348,-368 -723,-542z"/>
   <path class="fil6" d="M12936 14410c177,141 514,514 859,865 346,352 700,682 1130,950 429,267 934,471 1388,582 454,112 856,130 1244,109 387,-21 760,-82 1132,-199 373,-117 745,-291 1133,-519 388,-229 790,-511 1121,-869 330,-357 589,-790 772,-1117 183,-328 291,-550 366,-637 76,-88 118,-39 67,168 -52,207 -196,574 -466,1012 -271,439 -667,950 -1106,1391 -438,442 -919,815 -1514,1052 -595,237 -1304,340 -1983,330 -679,-9 -1328,-129 -1965,-507 -637,-379 -1262,-1016 -1658,-1487 -397,-472 -565,-779 -640,-977 -75,-198 -57,-288 120,-147z"/>
   <path class="fil1" d="M29598 23071c43,221 36,556 -10,797 -47,240 -134,388 -171,582 -37,194 -23,435 -97,625 -74,191 -234,332 -412,542 -177,211 -371,492 -542,800 -170,308 -317,642 -612,833 -294,191 -736,237 -1033,167 -298,-70 -452,-257 -472,-435 -20,-177 94,-344 462,-676 368,-331 990,-826 1401,-1418 412,-592 612,-1281 786,-1673 174,-391 322,-485 442,-478 120,7 214,114 258,334z"/>
   <path class="fil7" d="M28953 22466c-377,-124 -786,-190 -999,-11 -212,180 -226,604 -574,941 -348,336 -1028,585 -1339,944 -311,358 -253,826 -326,1170 -73,344 -278,564 -278,842 0,278 205,615 589,812 384,198 948,256 1310,4 362,-253 523,-816 787,-1248 263,-432 629,-732 797,-1065 169,-332 139,-698 289,-1020 150,-322 480,-600 472,-831 -7,-230 -351,-413 -728,-538z"/>
   <path class="fil5" d="M12033 6983c-341,73 -1064,20 -1612,267 -549,248 -924,797 -1185,1104 -261,308 -408,375 -582,683 -174,308 -375,856 -294,1371 80,516 441,997 957,1232 515,234 1184,220 1706,113 522,-107 896,-307 1144,-535 247,-227 368,-482 635,-649 268,-167 683,-247 1038,-294 354,-47 649,-61 970,-241 321,-181 669,-529 923,-763 254,-234 415,-355 743,-415 328,-60 823,-60 1244,-187 422,-127 770,-382 984,-669 214,-288 294,-609 669,-803 375,-194 1044,-261 1579,-355 535,-93 937,-214 1111,-622 174,-408 120,-1104 -174,-1646 -295,-542 -830,-930 -1412,-1124 -582,-194 -1211,-194 -1726,-67 -516,127 -917,381 -1138,656 -221,274 -261,568 -375,722 -113,154 -301,168 -595,174 -294,7 -696,7 -1030,114 -335,107 -603,321 -790,549 -187,227 -294,468 -669,562 -375,93 -1017,40 -1372,73 -354,34 -421,154 -435,315 -13,160 27,361 -314,435z"/>
   <path class="fil8" d="M11659 7649c-408,30 -1010,177 -1472,458 -461,281 -783,696 -866,1158 -84,461 70,970 381,1204 311,234 780,194 1044,-167 264,-362 325,-1044 582,-1516 258,-471 713,-732 833,-906 121,-174 -94,-261 -502,-231z"/>
   <path class="fil1" d="M13080 12517c-19,70 65,317 150,481 85,164 172,245 375,301 202,57 520,91 736,17 216,-73 329,-254 395,-450 65,-196 81,-406 45,-577 -37,-171 -127,-301 -263,-242 -135,58 -316,306 -453,461 -137,156 -231,219 -345,229 -114,10 -247,-33 -375,-108 -127,-76 -247,-183 -265,-112z"/>
   <path class="fil9" d="M14239 11506c-208,-76 -510,-125 -744,-88 -235,37 -401,159 -483,344 -83,185 -83,434 -39,642 43,207 131,373 304,497 174,125 432,208 681,176 249,-32 488,-178 605,-412 117,-235 113,-557 54,-769 -59,-212 -171,-315 -378,-390z"/>
   <path class="fil1" d="M19770 12558c-8,139 102,447 265,623 162,175 376,219 567,217 190,-2 358,-48 530,-124 172,-75 350,-179 418,-404 69,-226 29,-574 -73,-802 -102,-227 -266,-334 -398,-324 -133,10 -233,137 -317,281 -83,144 -150,304 -269,383 -119,78 -289,75 -438,58 -149,-16 -276,-46 -285,92z"/>
   <path class="fil9" d="M20515 11215c-152,19 -370,62 -544,225 -175,162 -305,443 -361,663 -56,220 -36,380 80,545 116,164 329,334 595,382 267,49 586,-24 797,-155 211,-130 312,-319 324,-537 12,-218 -65,-465 -174,-659 -109,-193 -249,-334 -363,-406 -114,-73 -201,-78 -354,-58z"/>
   <path class="fil10" d="M13881 11605c-137,-49 -355,-59 -490,22 -136,80 -189,251 -166,379 23,129 124,216 214,169 90,-47 171,-227 284,-307 114,-81 261,-61 307,-94 45,-34 -12,-121 -149,-169z"/>
   <path class="fil10" d="M20618 11513c-143,3 -374,74 -526,169 -153,95 -226,216 -208,318 19,102 129,185 239,150 111,-35 221,-189 347,-294 125,-106 266,-162 307,-223 42,-60 -15,-123 -159,-120z"/>
   <path class="fil11" d="M27279 23958c-187,17 -635,241 -880,401 -244,161 -284,258 -284,445 0,188 40,465 -28,716 -69,251 -246,475 -310,617 -63,143 -13,203 127,184 141,-18 372,-115 497,-423 126,-308 146,-826 281,-1124 136,-298 387,-374 549,-508 162,-134 236,-325 48,-308z"/>
   <path class="fil1" d="M7096 24386c171,127 452,529 796,826 345,298 753,492 971,713 217,221 244,468 36,743 -207,274 -649,575 -1000,729 -351,154 -612,161 -716,17 -104,-144 -50,-439 -43,-740 6,-301 -34,-609 -97,-963 -64,-355 -151,-756 -164,-1031 -14,-274 47,-421 217,-294z"/>
   <path class="fil7" d="M5734 23543c-199,147 -494,317 -505,526 -11,210 262,461 418,735 157,274 197,573 223,840 26,267 37,502 245,690 208,188 613,328 786,479 173,151 114,313 171,443 57,131 230,231 549,150 318,-81 782,-343 1033,-597 250,-254 287,-501 105,-701 -183,-201 -584,-356 -879,-521 -294,-166 -482,-343 -546,-647 -65,-303 -6,-734 -146,-948 -140,-213 -479,-210 -687,-315 -208,-105 -285,-318 -375,-362 -90,-45 -194,81 -392,228z"/>
   <path class="fil11" d="M6624 24001c-160,-83 -341,-237 -552,-264 -210,-27 -451,74 -578,171 -127,97 -141,190 -47,254 93,63 294,97 508,134 214,37 442,77 592,231 151,153 225,421 305,575 80,154 167,194 204,10 37,-184 23,-592 -54,-803 -76,-211 -217,-224 -378,-308z"/>
   <path class="fil1" d="M7712 38939c-124,120 -245,374 -261,602 -17,227 70,428 331,535 261,107 696,121 1060,238 365,117 659,338 930,525 271,187 519,341 770,428 251,87 505,107 706,20 200,-87 348,-281 425,-498 77,-218 83,-459 -51,-592 -133,-134 -408,-161 -692,-198 -284,-37 -579,-83 -887,-264 -307,-181 -629,-495 -956,-666 -328,-170 -663,-197 -894,-217 -231,-20 -358,-34 -481,87z"/>
   <path class="fil12" d="M8905 37808c-258,-74 -672,-101 -863,3 -191,104 -157,338 -197,515 -41,178 -154,298 -235,462 -80,164 -127,371 -23,569 104,197 358,384 652,445 295,60 629,-7 930,160 301,167 569,569 924,773 354,204 796,211 1087,241 291,30 432,83 639,-147 207,-231 482,-746 535,-1111 54,-365 -114,-579 -408,-686 -294,-107 -716,-107 -1030,-241 -315,-134 -522,-401 -763,-535 -241,-134 -515,-134 -703,-194 -187,-60 -287,-181 -545,-254z"/>
   <path class="fil13" d="M9615 38377c-267,-114 -816,-255 -1151,-251 -334,3 -455,150 -545,354 -90,205 -151,465 -124,623 27,157 141,210 311,130 171,-80 398,-294 596,-438 197,-144 365,-218 552,-228 187,-10 395,44 505,27 110,-17 124,-104 -144,-217z"/>
   <path class="fil1" d="M24044 40618c-30,194 57,415 228,535 170,121 424,141 692,7 268,-134 549,-421 856,-652 308,-231 643,-405 941,-485 297,-81 558,-67 756,-121 197,-53 331,-174 401,-324 70,-151 77,-331 -37,-449 -113,-117 -348,-170 -699,-90 -351,80 -820,295 -1184,495 -365,201 -626,388 -880,479 -254,90 -502,83 -699,164 -198,80 -345,247 -375,441z"/>
   <path class="fil12" d="M27165 37804c-292,-43 -847,-23 -1212,144 -364,167 -538,482 -889,586 -352,103 -880,-4 -1225,53 -344,57 -505,278 -702,432 -198,154 -432,241 -529,361 -97,120 -57,274 120,425 178,150 492,298 663,492 170,194 197,435 364,598 168,164 476,251 837,64 361,-187 776,-649 1285,-917 508,-267 1110,-341 1485,-408 375,-67 522,-127 609,-284 87,-157 113,-412 27,-642 -87,-231 -288,-439 -402,-596 -114,-157 -140,-264 -431,-308z"/>
   <path class="fil13" d="M25774 38587c-87,37 -235,198 -569,265 -335,67 -857,40 -1218,107 -361,67 -562,227 -676,388 -113,160 -140,321 -26,431 113,111 368,171 592,87 224,-83 418,-311 709,-441 291,-131 679,-164 917,-264 237,-101 324,-268 354,-395 30,-127 4,-214 -83,-178z"/>
   <path class="fil8" d="M3299 7769c-274,-197 -863,-458 -1271,-485 -408,-27 -636,181 -790,412 -154,231 -234,485 -341,669 -107,184 -241,298 -204,448 37,151 244,338 492,218 247,-121 535,-549 759,-787 224,-237 385,-284 632,-254 248,30 583,137 770,124 187,-14 227,-147 -47,-345z"/>
   <path class="fil14" d="M13509 543c-364,-87 -1080,-167 -1813,-97 -733,70 -1482,291 -2128,612 -645,322 -1187,743 -1445,997 -257,255 -231,342 -60,335 171,-7 485,-107 920,-325 435,-217 990,-552 1489,-722 498,-171 940,-178 1502,-238 562,-60 1244,-174 1579,-277 334,-104 321,-198 -44,-285z"/>
   <path class="fil8" d="M19933 3966c-271,-91 -813,-164 -1171,-151 -358,13 -532,114 -669,335 -138,220 -238,562 -181,769 57,207 271,281 505,161 234,-121 489,-435 790,-603 301,-167 649,-187 823,-251 174,-63 174,-170 -97,-260z"/>
   <path class="fil1" d="M16497 23229c7,190 201,692 455,973 254,281 569,341 853,271 284,-70 539,-271 736,-418 197,-147 338,-241 412,-334 73,-94 80,-188 16,-335 -63,-147 -197,-348 -425,-462 -227,-113 -548,-140 -846,-67 -298,74 -572,248 -799,275 -228,26 -409,-94 -402,97z"/>
   <path class="fil1" d="M16407 26775c-91,144 -84,472 -44,706 40,234 114,374 328,492 214,117 569,210 887,244 317,33 598,6 866,-60 268,-67 522,-174 699,-368 178,-194 278,-475 311,-710 34,-234 0,-421 -100,-555 -100,-134 -268,-214 -569,-164 -301,50 -736,231 -1077,311 -341,80 -589,60 -806,30 -218,-30 -405,-70 -495,74z"/>
   <path class="fil1" d="M16902 29869c-111,148 -191,442 -224,649 -34,208 -20,328 100,465 121,138 348,292 612,435 265,144 566,278 863,225 298,-54 593,-295 770,-552 177,-258 237,-532 204,-747 -33,-214 -161,-368 -391,-444 -231,-77 -566,-77 -840,-94 -275,-17 -489,-50 -666,-67 -177,-17 -318,-17 -428,130z"/>
   <path class="fil12" d="M17981 25256c-378,-37 -819,-124 -1187,150 -368,274 -663,910 -606,1385 57,475 465,790 1000,940 536,151 1198,137 1653,-164 455,-301 703,-890 693,-1321 -11,-432 -278,-706 -569,-837 -291,-130 -606,-117 -984,-153z"/>
   <path class="fil7" d="M17730 28819c-334,80 -823,281 -1053,605 -231,325 -204,773 0,1141 204,368 585,656 987,709 401,54 822,-127 1087,-435 264,-308 371,-743 291,-1101 -80,-357 -348,-638 -572,-799 -224,-161 -405,-201 -740,-120z"/>
   <path class="fil7" d="M17490 21592c-335,81 -823,281 -1054,606 -231,324 -204,773 0,1141 204,368 585,655 987,709 401,53 823,-127 1087,-435 264,-308 371,-743 291,-1101 -80,-358 -348,-639 -572,-799 -224,-161 -405,-201 -739,-121z"/>
   <path class="fil11" d="M17758 21947c-251,-33 -599,47 -819,168 -221,120 -315,281 -325,461 -10,181 64,382 218,358 154,-23 388,-271 649,-418 261,-147 548,-194 615,-291 67,-97 -87,-244 -338,-278z"/>
   <path class="fil13" d="M18431 25741c-234,-80 -696,-147 -1037,-117 -342,30 -562,157 -693,358 -130,201 -170,475 -47,609 124,134 412,127 683,0 271,-127 525,-375 746,-492 221,-117 408,-104 498,-144 91,-40 84,-134 -150,-214z"/>
   <path class="fil11" d="M18026 29254c-238,-7 -626,80 -846,217 -221,137 -275,325 -238,516 37,190 164,384 335,357 170,-26 384,-274 585,-458 201,-184 388,-304 438,-415 50,-110 -37,-210 -274,-217z"/>
   <path class="fil1" d="M21372 17492c-412,254 -1221,943 -2044,1301 -823,358 -1660,385 -2503,334 -843,-50 -1692,-177 -2040,-187 -348,-10 -194,97 244,284 438,188 1161,455 1954,639 793,184 1656,285 2408,271 753,-13 1395,-140 1957,-187 562,-47 1044,-13 1098,-87 53,-74 -321,-254 -589,-458 -268,-204 -428,-432 -418,-736 10,-305 190,-686 274,-967 84,-281 70,-462 -341,-207z"/>
   <path class="fil2" d="M21998 17604c-255,219 -763,704 -1409,1062 -645,358 -1428,589 -1977,723 -549,133 -863,170 -935,202 -72,32 99,58 666,38 567,-20 1530,-87 2196,-185 666,-99 1034,-229 1397,-270 363,-40 721,10 853,5 132,-5 38,-65 -141,-199 -179,-133 -443,-341 -582,-506 -139,-166 -152,-290 -100,-449 52,-159 169,-353 227,-473 59,-121 59,-167 -195,52z"/>
  </g>
 </g>
</svg>
