<?xml version="1.0" encoding="UTF-8"?>
<svg viewBox="0 0 129.08157 135.10539" xmlns="http://www.w3.org/2000/svg" xmlns:xlink="http://www.w3.org/1999/xlink">
 <defs>
  <clipPath id="v">
   <path transform="matrix(-.61528 .78831 .78831 .61528 251.75 240.65)" d="m483.63 512.93c0 116.58-94.505 211.08-211.08 211.08s-211.08-94.505-211.08-211.08 94.505-211.08 211.08-211.08 211.08 94.505 211.08 211.08z" fill-rule="evenodd"/>
  </clipPath>
  <clipPath id="u">
   <path transform="matrix(-.9907 .13603 .13603 .9907 703.95 218.23)" d="m483.63 512.93c0 116.58-94.505 211.08-211.08 211.08s-211.08-94.505-211.08-211.08 94.505-211.08 211.08-211.08 211.08 94.505 211.08 211.08z" fill-rule="evenodd"/>
  </clipPath>
  <clipPath id="t">
   <path transform="matrix(.13238 .9912 .9912 -.13238 -62.707 586.85)" d="m483.63 512.93c0 116.58-94.505 211.08-211.08 211.08s-211.08-94.505-211.08-211.08 94.505-211.08 211.08-211.08 211.08 94.505 211.08 211.08z" fill-rule="evenodd"/>
  </clipPath>
  <clipPath id="s">
   <path transform="matrix(.79433 .60749 .60749 -.79433 -38.268 1048.1)" d="m483.63 512.93c0 116.58-94.505 211.08-211.08 211.08s-211.08-94.505-211.08-211.08 94.505-211.08 211.08-211.08 211.08 94.505 211.08 211.08z" fill-rule="evenodd"/>
  </clipPath>
  <clipPath id="r">
   <path transform="matrix(.99021 -.1396 -.1396 -.99021 309.56 1358.7)" d="m483.63 512.93c0 116.58-94.505 211.08-211.08 211.08s-211.08-94.505-211.08-211.08 94.505-211.08 211.08-211.08 211.08 94.505 211.08 211.08z" fill-rule="evenodd"/>
  </clipPath>
  <clipPath id="q">
   <path transform="matrix(.60489 -.79631 -.79631 -.60489 768.46 1331.9)" d="m483.63 512.93c0 116.58-94.505 211.08-211.08 211.08s-211.08-94.505-211.08-211.08 94.505-211.08 211.08-211.08 211.08 94.505 211.08 211.08z" fill-rule="evenodd"/>
  </clipPath>
  <clipPath id="p">
   <path transform="matrix(-.12896 -.99165 -.99165 .12896 1075.1 991.07)" d="m483.63 512.93c0 116.58-94.505 211.08-211.08 211.08s-211.08-94.505-211.08-211.08 94.505-211.08 211.08-211.08 211.08 94.505 211.08 211.08z" fill-rule="evenodd"/>
  </clipPath>
  <clipPath id="o">
   <path transform="matrix(-.7877 -.61606 -.61606 .7877 1054.1 533.75)" d="m483.63 512.93c0 116.58-94.505 211.08-211.08 211.08s-211.08-94.505-211.08-211.08 94.505-211.08 211.08-211.08 211.08 94.505 211.08 211.08z" fill-rule="evenodd"/>
  </clipPath>
  <filter id="n" x="-.09542" y="-.26316" width="1.1908" height="1.5263">
   <feGaussianBlur stdDeviation="18.05275"/>
  </filter>
  <filter id="m" x="-.19961" y="-.21264" width="1.3992" height="1.4253">
   <feGaussianBlur stdDeviation="21.10834"/>
  </filter>
  <filter id="l" x="-.20723" y="-.21512" width="1.4144" height="1.4302">
   <feGaussianBlur stdDeviation="21.10834"/>
  </filter>
  <filter id="k" x="-.19675" y="-.21365" width="1.3935" height="1.4273">
   <feGaussianBlur stdDeviation="21.10834"/>
  </filter>
  <filter id="j" x="-.19308" y="-.19911" width="1.3862" height="1.3982">
   <feGaussianBlur stdDeviation="21.10834"/>
  </filter>
  <filter id="i" x="-.19208" y="-.21169" width="1.3842" height="1.4234">
   <feGaussianBlur stdDeviation="21.10835"/>
  </filter>
  <filter id="h" x="-.19895" y="-.19004" width="1.3979" height="1.3801">
   <feGaussianBlur stdDeviation="21.10834"/>
  </filter>
  <filter id="g" x="-.21092" y="-.18516" width="1.4218" height="1.3703">
   <feGaussianBlur stdDeviation="21.10834"/>
  </filter>
  <filter id="f" x="-.17641" y="-.19966" width="1.3528" height="1.3993">
   <feGaussianBlur stdDeviation="21.10834"/>
  </filter>
  <linearGradient id="a">
   <stop stop-color="#fff" stop-opacity="0" offset="0"/>
   <stop stop-color="#fff" offset="1"/>
  </linearGradient>
  <linearGradient id="e" x1="375.18" x2="352.03" y1="320.29" y2="338.81" gradientUnits="userSpaceOnUse">
   <stop stop-color="#fff" offset="0"/>
   <stop stop-color="#fff" stop-opacity="0" offset="1"/>
  </linearGradient>
  <linearGradient id="d" x1="266.68" x2="260.96" y1="628.38" y2="683.94" gradientTransform="matrix(-.16363 .21779 -.16307 -.12859 488.75 349.76)" gradientUnits="userSpaceOnUse" xlink:href="#a"/>
  <linearGradient id="c" x1="362.08" x2="363.53" y1="360.47" y2="370.66" gradientUnits="userSpaceOnUse" xlink:href="#a"/>
  <radialGradient id="b" cx="227.16" cy="512.27" r="211.08" gradientTransform="matrix(-.15574 .16021 -.15274 -.14848 180.84 86.935)" gradientUnits="userSpaceOnUse">
   <stop stop-color="#fff" stop-opacity="0" offset="0"/>
   <stop stop-color="#5a5a5a" stop-opacity="0" offset=".75177"/>
   <stop stop-opacity=".66842" offset="1"/>
  </radialGradient>
 </defs>
 <path d="m0 0h129.08v135.11h-129.08z" fill="#fff" opacity=".07308"/>
 <path transform="matrix(.22592 0 0 .19219 -14.103 -21.906)" d="m532.11 707.08c0.02403 37.883-84.688 68.599-189.19 68.599s-189.22-30.715-189.19-68.599c-0.02403-37.883 84.688-68.599 189.19-68.599s189.22 30.715 189.19 68.599z" fill="#3b3b3b" fill-rule="evenodd" filter="url(#n)" opacity=".65385"/>
 <path transform="matrix(-.19773 -.15465 -.15465 .19773 292.58 -13.92)" d="m726.38 767.62c-24.399 17.537-326.22-40.953-206.15 17.965 60.059 61.191 90.142 128.32 141.81 189.5 58.659-47.633 93.287-124.56 86.938-200.44-7.236-3.1513-14.397-7.5666-22.594-7.0312z" clip-path="url(#o)" fill="#00f" fill-rule="evenodd" filter="url(#f)"/>
 <path transform="matrix(-.03237 -.24893 -.24893 .03237 283.11 164.14)" d="m726.38 767.62c-80.705 1.3994-130.44 24.974-211.09 27.583 59.783 62.057 86.175 113.66 146.75 179.89 58.659-47.633 93.287-124.56 86.938-200.44-7.236-3.1513-14.397-7.5666-22.594-7.0312z" clip-path="url(#p)" fill="#800080" fill-rule="evenodd" filter="url(#g)"/>
 <path transform="matrix(.15184 -.1999 -.1999 -.15184 151.16 284.46)" d="m726.38 767.62c-80.705 1.3994-134.12 33.557-214.77 36.167 24.048 29.599 122.28 142.7 150.43 171.3 58.659-47.633 93.287-124.56 86.938-200.44-7.236-3.1513-14.397-7.5666-22.594-7.0312z" clip-path="url(#q)" fill="#f00" fill-rule="evenodd" filter="url(#h)"/>
 <path transform="matrix(.24857 -.03504 -.03504 -.24857 -27.732 277.18)" d="m726.38 767.62c-80.705 1.3994-148.47 29.817-229.12 32.426 26.167 27.743 136.63 146.44 164.78 175.04 58.659-47.633 93.287-124.56 86.938-200.44-7.236-3.1513-14.397-7.5666-22.594-7.0312z" clip-path="url(#r)" fill="#f60" fill-rule="evenodd" filter="url(#i)"/>
 <path transform="matrix(.1994 .1525 .1525 -.1994 -150.6 143.44)" d="m726.38 767.62c-72.182 9.7273-176.84 8.7552-234.73 23.795 60.059 61.191 110.19 122.62 170.39 183.67 58.659-47.633 93.287-124.56 86.938-200.44-7.236-3.1513-14.397-7.5666-22.594-7.0312z" clip-path="url(#s)" fill="#ff0" fill-rule="evenodd" filter="url(#j)"/>
 <path transform="matrix(.03323 .24882 .24882 -.03323 -142.33 -36.291)" d="m726.38 767.62c-29.708 12.113-168.58 2.4769-232.04 13.565 60.059 61.191 107.5 132.85 167.7 193.9 58.659-47.633 93.287-124.56 86.938-200.44-7.236-3.1513-14.397-7.5666-22.594-7.0312z" clip-path="url(#t)" fill="#0f0" fill-rule="evenodd" filter="url(#k)"/>
 <path transform="matrix(-.24869 .03415 .03415 .24869 169.22 -149.71)" d="m726.38 767.62c-80.705 1.3994-132.7 6.9214-213.35 9.5312 21.03 20.879 120.86 169.34 149.01 197.94 58.659-47.633 93.287-124.56 86.938-200.44-7.236-3.1513-14.397-7.5666-22.594-7.0312z" clip-path="url(#u)" fill="#0ff" fill-rule="evenodd" filter="url(#l)"/>
 <path transform="matrix(-.15445 .19789 .19789 .15445 -7.1369 -158.38)" d="m726.38 767.62c-63.041 7.8027-175.2-2.306-223.57 5.4196 52.18 68.034 99.033 140.99 159.23 202.05 58.659-47.633 93.287-124.56 86.938-200.44-7.236-3.1513-14.397-7.5666-22.594-7.0312z" clip-path="url(#v)" fill="#008000" fill-rule="evenodd" filter="url(#m)"/>
 <path d="m123.01 57.363c0 29.264-23.723 52.988-52.988 52.988s-52.988-23.723-52.988-52.988 23.723-52.988 52.988-52.988 52.988 23.723 52.988 52.988z" fill="url(#b)" fill-rule="evenodd" opacity=".45385"/>
 <g transform="matrix(1.6666 0 0 1.6666 -527.94 -506.91)" fill-rule="evenodd">
  <path d="m366.62 310.79c-3.2068 2.0359-5.6744 4.5237-7.4785 7.4136 1.6715 0.16232 9.3901 1.2437 14.203 7.6871 2.1242-2.0109 4.2762-4.1131 6.5099-6.4567l1.0721 0.82986c-4.8182-5.9164-11.415-10.008-14.306-9.4738zm-7.8906 8.0966c-1.8817 3.2677-2.9537 7.0248-3.3138 11.219 9.3012 4.8472 12.899 5.8468 14.411 18.555 3.3447-2.928 6.2041-6.6666 9.7843-9.2026l-1.2986 0.12481s-0.03097-0.53191-0.68486-2.2514-1.9242-4.5484-4.383-8.9063c-0.06242-0.11063-0.13397-0.20463-0.19809-0.31254-2.8392 2.6379-5.6107 5.0701-8.3525 7.4278l-1.0125-0.97078c2.8255-2.4297 5.6745-4.9434 8.5906-7.663-5.0056-6.9732-13.606-7.368-13.606-7.368l0.0635-0.65158zm22.24 1.4253c-2.3434 2.4584-4.603 4.6618-6.8264 6.7586 0.14701 0.23415 0.30441 0.45159 0.44355 0.69821 2.4819 4.399 3.7792 7.2762 4.4624 9.0728 0.55981 1.4721 0.70694 2.2447 0.74374 2.4866 1.884-1.3037 5.4364-3.1466 7.9004-3.4848-1.0219-6.2632-2.8495-10.756-6.7237-15.531z" fill="url(#e)" opacity=".65385"/>
  <path d="m359.7 309.65s-14.666-0.09712-22.915 9.7193c-9.1222 10.855-8.0205 23.123-8.0205 23.123l-0.19074-0.17741c8.598-18.229 22.694-24.878 31.127-32.665z" fill="url(#d)" opacity=".82692"/>
  <path d="m340.02 363.43s12.064 8.3403 24.409 4.8753c13.651-3.8315 19.651-14.59 19.651-14.59l0.05769 0.25402c-17.372 10.22-30.702 10.386-44.118 9.4603z" fill="url(#c)" opacity=".82692"/>
 </g>
</svg>
