<?xml version="1.0" encoding="UTF-8"?>
<svg width="800" height="800" version="1.1" viewBox="0 0 800.00001 800.00001" xmlns="http://www.w3.org/2000/svg">
 <g transform="translate(0 -252.36)">
  <rect x="38.719" y="488.42" width="742.96" height="563.94" color="#000000" color-rendering="auto" fill="#161616" image-rendering="auto" shape-rendering="auto" solid-color="#000000" style="isolation:auto;mix-blend-mode:normal"/>
  <rect x="22.163" y="436.68" width="765" height="72.433" ry="5.0703" color="#000000" color-rendering="auto" fill="#161616" image-rendering="auto" shape-rendering="auto" solid-color="#000000" style="isolation:auto;mix-blend-mode:normal"/>
  <path d="m287.15 436.68-51.736 72.433h87.398l50.587-72.433h-86.249z" color="#000000" color-rendering="auto" fill="#fff" image-rendering="auto" shape-rendering="auto" solid-color="#000000" style="isolation:auto;mix-blend-mode:normal"/>
  <path d="m665.87 436.68-51.739 72.433h87.398l50.587-72.433h-86.246z" fill="#fff" fill-rule="evenodd"/>
  <path d="m537.56 436.68-51.736 72.433h87.398l50.587-72.433h-86.249z" fill="#fff" fill-rule="evenodd"/>
  <path d="m411.32 436.68-51.736 72.433h87.398l50.584-72.433h-86.246z" fill="#fff" fill-rule="evenodd"/>
  <rect transform="matrix(.98896 -.14821 -.14821 -.98896 0 0)" x="-42.802" y="-435.14" width="765" height="72.433" ry="5.0703" color="#000000" color-rendering="auto" fill="#161616" image-rendering="auto" shape-rendering="auto" solid-color="#000000" style="isolation:auto;mix-blend-mode:normal"/>
  <path d="m284.22 397.41-61.9-63.965 86.433-12.953 60.764 64.136-85.297 12.783z" color="#000000" color-rendering="auto" fill="#fff" image-rendering="auto" shape-rendering="auto" solid-color="#000000" style="isolation:auto;mix-blend-mode:normal"/>
  <path d="m658.76 341.28-61.903-63.965 86.433-12.953 60.764 64.136-85.294 12.782z" fill="#fff" fill-rule="evenodd"/>
  <path d="m531.87 360.29-61.9-63.965 86.433-12.953 60.764 64.136-85.297 12.783z" fill="#fff" fill-rule="evenodd"/>
  <path d="m407.02 379-61.9-63.965 86.433-12.953 60.761 64.136-85.294 12.782z" fill="#fff" fill-rule="evenodd"/>
  <path d="m22.163 373.02 78.743 0.73169 78.763 69.688c32.263 25.423 20.949 65.969-9.7255 66.223l-147.78-0.55318z" color="#000000" color-rendering="auto" fill="#232323" image-rendering="auto" shape-rendering="auto" solid-color="#000000" style="isolation:auto;mix-blend-mode:normal"/>
  <circle cx="53.186" cy="485.82" r="7.3168" color="#000000" color-rendering="auto" fill="#fff" image-rendering="auto" shape-rendering="auto" solid-color="#000000" style="isolation:auto;mix-blend-mode:normal"/>
  <circle cx="53.186" cy="400.21" r="7.3168" color="#000000" color-rendering="auto" fill="#fff" image-rendering="auto" shape-rendering="auto" solid-color="#000000" style="isolation:auto;mix-blend-mode:normal"/>
  <circle cx="160.74" cy="485.82" r="7.3168" color="#000000" color-rendering="auto" fill="#fff" image-rendering="auto" shape-rendering="auto" solid-color="#000000" style="isolation:auto;mix-blend-mode:normal"/>
  <path transform="translate(0 252.36)" d="m59.771 338.09v16.098h229.02v125.85h-229.02v16.096h447.06v62.926h-447.06v16.098h447.06v62.924h-447.06v16.098h699.49v-16.098h-236.33v-62.924h236.33v-16.098h-236.33v-62.926h236.33v-16.096h-204.14v-125.85h204.14v-16.098h-699.49zm245.12 16.098h234.14v125.85h-234.14v-125.85z" color="#000000" color-rendering="auto" fill="#fff" image-rendering="auto" shape-rendering="auto" solid-color="#000000" style="isolation:auto;mix-blend-mode:normal"/>
  <rect x="59.771" y="968" width="699.49" height="16.097" color="#000000" color-rendering="auto" fill="#fff" image-rendering="auto" shape-rendering="auto" solid-color="#000000" style="isolation:auto;mix-blend-mode:normal"/>
  <path d="m107.54 631.7 5.7524-0.55926q0.51931 2.8962 2.0972 4.2544 1.5979 1.3582 4.2944 1.3582 2.8562 0 4.2944-1.1984 1.4581-1.2184 1.4581-2.8363 0-1.0386-0.61919-1.7577-0.59921-0.73903-2.1172-1.2783-1.0386-0.35952-4.7338-1.2783-4.7538-1.1784-6.6712-2.8962-2.6965-2.4168-2.6965-5.8923 0-2.2371 1.2584-4.1745 1.2783-1.9574 3.6552-2.9761 2.3968-1.0187 5.7724-1.0187 5.5128 0 8.2891 2.4168 2.7963 2.4168 2.9361 6.4515l-5.9122 0.25966q-0.3795-2.257-1.6378-3.2358-1.2384-0.99868-3.7351-0.99868-2.5766 0-4.0347 1.0586-0.93876 0.6791-0.93876 1.8176 0 1.0386 0.87884 1.7777 1.1185 0.93877 5.4329 1.9574t6.3716 2.1172q2.0773 1.0786 3.2358 2.9761 1.1784 1.8775 1.1784 4.6539 0 2.5167-1.3982 4.7138t-3.9548 3.2757q-2.5566 1.0586-6.3716 1.0586-5.5527 0-8.5288-2.5566-2.9761-2.5766-3.5553-7.4902z" fill="#fff"/>
  <path d="m155.1 630.46 5.7325 1.8176q-1.3183 4.7937-4.3942 7.1306-3.056 2.317-7.7698 2.317-5.8323 0-9.5874-3.9748-3.7551-3.9948-3.7551-10.906 0-7.3104 3.775-11.345 3.775-4.0547 9.927-4.0547 5.3729 0 8.7285 3.1758 1.9974 1.8775 2.9961 5.3929l-5.8523 1.3982q-0.51931-2.277-2.1771-3.5953-1.6378-1.3183-3.9948-1.3183-3.2557 0-5.293 2.3369-2.0174 2.3369-2.0174 7.57 0 5.5527 1.9974 7.9096t5.1932 2.3569q2.3569 0 4.0547-1.498t2.4368-4.7138z" fill="#fff"/>
  <path d="m165.93 641.23v-29.282h21.711v4.9535h-15.799v6.4915h14.701v4.9335h-14.701v7.9695h16.358v4.9335h-22.271z" fill="#fff"/>
  <path d="m193.31 641.23v-29.282h5.7524l11.984 19.554v-19.554h5.4928v29.282h-5.9322l-11.804-19.095v19.095h-5.4928z" fill="#fff"/>
  <path d="m222.81 641.23v-29.282h21.711v4.9535h-15.799v6.4915h14.701v4.9335h-14.701v7.9695h16.358v4.9335h-22.271z" fill="#fff"/>
  <path d="m381.3 642.24v-24.328h-8.6886v-4.9535h23.269v4.9535h-8.6686v24.328h-5.9122z" fill="#fff"/>
  <path d="m423.01 642.24h-6.4316l-2.5566-6.6513h-11.705l-2.4168 6.6513h-6.2718l11.405-29.282h6.2518l11.725 29.282zm-10.886-11.585-4.0347-10.866-3.9548 10.866h7.9895z" fill="#fff"/>
  <path d="m426.32 642.24v-29.282h5.9122v13.003l11.944-13.003h7.9496l-11.026 11.405 11.625 17.876h-7.6499l-8.0494-13.742-4.7937 4.8936v8.8484h-5.9122z" fill="#fff"/>
  <path d="m455.81 642.24v-29.282h21.711v4.9535h-15.799v6.4915h14.701v4.9335h-14.701v7.9695h16.359v4.9335h-22.271z" fill="#fff"/>
  <path d="m607.07 641.23v-29.282h12.444q4.6938 0 6.811 0.79895 2.1372 0.77898 3.4155 2.7963t1.2783 4.6139q0 3.2957-1.9374 5.4528-1.9375 2.1372-5.7924 2.6964 1.9175 1.1185 3.1558 2.4568 1.2584 1.3382 3.3756 4.7538l3.5753 5.7125h-7.0707l-4.2744-6.3716q-2.277-3.4155-3.1159-4.2944-0.8389-0.89882-1.7777-1.2184-0.93877-0.33955-2.9761-0.33955h-1.1984v12.224h-5.9122zm5.9122-16.898h4.3742q4.2544 0 5.313-0.35953t1.6578-1.2384q0.59922-0.87885 0.59922-2.1971 0-1.478-0.79895-2.3769-0.77898-0.91879-2.2171-1.1585-0.71906-0.0999-4.3143-0.0999h-4.6139v7.4302z" fill="#fff"/>
  <path d="m635.41 626.77q0-4.4741 1.3382-7.5101 0.99869-2.2371 2.7164-4.0147 1.7377-1.7777 3.795-2.6365 2.7364-1.1585 6.3117-1.1585 6.4715 0 10.346 4.0147 3.8949 4.0147 3.8949 11.165 0 7.0907-3.8549 11.105-3.8549 3.9948-10.306 3.9948-6.5314 0-10.386-3.9748-3.8549-3.9948-3.8549-10.986zm6.092-0.19974q0 4.9735 2.297 7.5501 2.297 2.5566 5.8323 2.5566t5.7924-2.5367q2.277-2.5566 2.277-7.65 0-5.0334-2.2171-7.5101-2.1971-2.4767-5.8523-2.4767t-5.8923 2.5167q-2.2371 2.4967-2.2371 7.5501z" fill="#fff"/>
  <path d="m668.57 641.23v-29.042h5.9122v24.108h14.701v4.9335h-20.613z" fill="#fff"/>
  <path d="m693.57 641.23v-29.042h5.9122v24.108h14.701v4.9335h-20.613z" fill="#fff"/>
  <path d="m78.738 861.44v-29.282h9.4875q5.3929 0 7.0308 0.43943 2.5167 0.65913 4.2145 2.8762 1.6978 2.1971 1.6978 5.6925 0 2.6964-0.97871 4.534-0.97872 1.8376-2.4967 2.8962-1.498 1.0386-3.056 1.3782-2.1172 0.41945-6.1319 0.41945h-3.8549v11.045h-5.9122zm5.9122-24.328v8.3091h3.2357q3.4954 0 4.6739-0.4594t1.8376-1.4381q0.67911-0.97871 0.67911-2.277 0-1.5979-0.93877-2.6365t-2.3769-1.2983q-1.0586-0.19973-4.2544-0.19973h-2.8562z" fill="#fff"/>
  <path d="m106.08 861.44v-29.282h12.444q4.6938 0 6.811 0.79895 2.1372 0.77898 3.4155 2.7963t1.2783 4.6139q0 3.2957-1.9374 5.4528-1.9374 2.1372-5.7924 2.6965 1.9175 1.1185 3.1558 2.4568 1.2584 1.3382 3.3756 4.7538l3.5753 5.7125h-7.0707l-4.2744-6.3716q-2.277-3.4155-3.1159-4.2944-0.83889-0.89882-1.7777-1.2184-0.93877-0.33955-2.9761-0.33955h-1.1984v12.224h-5.9122zm5.9122-16.898h4.3742q4.2544 0 5.313-0.35953 1.0586-0.35952 1.6578-1.2384 0.59921-0.87884 0.59921-2.1971 0-1.4781-0.79895-2.3769-0.77898-0.91879-2.2171-1.1585-0.71905-0.0999-4.3143-0.0999h-4.6139v7.4302z" fill="#fff"/>
  <path d="m134.42 846.98q0-4.4741 1.3382-7.5101 0.99869-2.2371 2.7164-4.0147 1.7377-1.7777 3.795-2.6365 2.7364-1.1585 6.3117-1.1585 6.4715 0 10.346 4.0147 3.8949 4.0147 3.8949 11.165 0 7.0907-3.8549 11.105-3.8549 3.9948-10.306 3.9948-6.5314 0-10.386-3.9748-3.8549-3.9948-3.8549-10.986zm6.092-0.19974q0 4.9735 2.297 7.5501 2.297 2.5566 5.8323 2.5566 3.5354 0 5.7924-2.5367 2.277-2.5566 2.277-7.6499 0-5.0334-2.2171-7.5101-2.1971-2.4768-5.8523-2.4768t-5.8922 2.5167q-2.2371 2.4967-2.2371 7.5501z" fill="#fff"/>
  <path d="m167.4 832.16h10.806q3.6552 0 5.5727 0.55927 2.5766 0.759 4.4142 2.6965 1.8376 1.9374 2.7963 4.7538 0.95874 2.7963 0.95874 6.9109 0 3.6152-0.89882 6.2318-1.0986 3.1958-3.1359 5.1732-1.538 1.498-4.1545 2.3369-1.9574 0.61919-5.2331 0.61919h-11.125v-29.282zm5.9122 4.9535v19.395h4.4142q2.4767 0 3.5753-0.27963 1.4381-0.35953 2.3769-1.2184 0.95874-0.85887 1.558-2.8163 0.59921-1.9774 0.59921-5.3729t-0.59921-5.2132q-0.59922-1.8176-1.6778-2.8363t-2.7364-1.3782q-1.2384-0.27963-4.8536-0.27963h-2.6565z" fill="#fff"/>
  <path d="m196.94 861.44v-5.6126h5.6126v5.6126h-5.6126z" fill="#fff"/>
  <path d="m227.06 850.68 5.7325 1.8176q-1.3183 4.7937-4.3942 7.1306-3.056 2.317-7.7698 2.317-5.8323 0-9.5874-3.9748-3.7551-3.9948-3.7551-10.906 0-7.3104 3.775-11.345 3.775-4.0547 9.927-4.0547 5.3729 0 8.7285 3.1758 1.9974 1.8775 2.9961 5.3929l-5.8523 1.3982q-0.51931-2.277-2.1771-3.5953-1.6378-1.3183-3.9948-1.3183-3.2557 0-5.293 2.3369-2.0174 2.3369-2.0174 7.57 0 5.5527 1.9974 7.9096t5.1932 2.3569q2.3569 0 4.0547-1.498t2.4368-4.7138z" fill="#fff"/>
  <path d="m236.69 846.98q0-4.4741 1.3382-7.5101 0.99868-2.2371 2.7164-4.0147 1.7377-1.7777 3.795-2.6365 2.7364-1.1585 6.3117-1.1585 6.4715 0 10.346 4.0147 3.8949 4.0147 3.8949 11.165 0 7.0907-3.8549 11.105-3.8549 3.9948-10.306 3.9948-6.5314 0-10.386-3.9748-3.8549-3.9948-3.8549-10.986zm6.092-0.19974q0 4.9735 2.297 7.5501 2.297 2.5566 5.8323 2.5566 3.5354 0 5.7924-2.5367 2.277-2.5566 2.277-7.6499 0-5.0334-2.2171-7.5101-2.1971-2.4768-5.8523-2.4768t-5.8923 2.5167q-2.2371 2.4967-2.2371 7.5501z" fill="#fff"/>
  <path d="m269.65 861.44v-5.6126h5.6126v5.6126h-5.6126z" fill="#fff"/>
  <path d="m78.718 752.86h10.806q3.6552 0 5.5727 0.55927 2.5766 0.759 4.4142 2.6964 1.8376 1.9375 2.7963 4.7538 0.95874 2.7963 0.95874 6.9109 0 3.6152-0.89881 6.2318-1.0986 3.1958-3.1359 5.1732-1.538 1.498-4.1545 2.3369-1.9574 0.61918-5.2331 0.61918h-11.125v-29.282zm5.9122 4.9535v19.395h4.4142q2.4767 0 3.5753-0.27964 1.4381-0.35952 2.3769-1.2184 0.95874-0.85887 1.558-2.8163 0.59921-1.9774 0.59921-5.3729t-0.59921-5.2132q-0.59921-1.8176-1.6778-2.8363t-2.7364-1.3782q-1.2384-0.27963-4.8536-0.27963h-2.6565z" fill="#fff"/>
  <path d="m134.7 782.15h-6.4316l-2.5566-6.6513h-11.705l-2.4168 6.6513h-6.2718l11.405-29.282h6.2518l11.725 29.282zm-10.886-11.585-4.0347-10.866-3.9548 10.866h7.9895z" fill="#fff"/>
  <path d="m141.5 782.15v-24.328h-8.6886v-4.9535h23.269v4.9535h-8.6686v24.328h-5.9122z" fill="#fff"/>
  <path d="m159.83 782.15v-29.282h21.711v4.9535h-15.799v6.4915h14.701v4.9335h-14.701v7.9695h16.359v4.9335h-22.271z" fill="#fff"/>
  <path d="m78.718 910.95h10.806q3.6552 0 5.5727 0.55926 2.5766 0.75901 4.4142 2.6965 1.8376 1.9374 2.7963 4.7538 0.95874 2.7963 0.95874 6.9109 0 3.6152-0.89881 6.2318-1.0986 3.1958-3.1359 5.1732-1.538 1.498-4.1545 2.3369-1.9574 0.61919-5.2331 0.61919h-11.125v-29.282zm5.9122 4.9535v19.395h4.4142q2.4767 0 3.5753-0.27963 1.4381-0.35953 2.3769-1.2184 0.95874-0.85887 1.558-2.8163 0.59921-1.9774 0.59921-5.3729t-0.59921-5.2132q-0.59921-1.8176-1.6778-2.8363t-2.7364-1.3782q-1.2384-0.27963-4.8536-0.27963h-2.6565z" fill="#fff"/>
  <path d="m108.12 940.24v-29.282h5.9122v29.282h-5.9122z" fill="#fff"/>
  <path d="m119.66 940.24v-29.282h12.444q4.6938 0 6.811 0.79895 2.1372 0.77897 3.4155 2.7963t1.2783 4.6139q0 3.2957-1.9375 5.4528-1.9374 2.1372-5.7924 2.6965 1.9175 1.1185 3.1559 2.4568 1.2583 1.3382 3.3756 4.7538l3.5753 5.7125h-7.0707l-4.2744-6.3716q-2.277-3.4155-3.1159-4.2944-0.83889-0.89882-1.7777-1.2184-0.93877-0.33956-2.9761-0.33956h-1.1984v12.224h-5.9122zm5.9122-16.898h4.3742q4.2544 0 5.313-0.35952 1.0586-0.35953 1.6578-1.2384 0.59921-0.87884 0.59921-2.1971 0-1.4781-0.79895-2.3769-0.77898-0.91879-2.2171-1.1585-0.71905-0.0999-4.3143-0.0999h-4.6139v7.4302z" fill="#fff"/>
  <path d="m149.2 940.24v-29.282h21.711v4.9535h-15.799v6.4915h14.701v4.9335h-14.701v7.9695h16.358v4.9335h-22.271z" fill="#fff"/>
  <path d="m195.26 929.47 5.7325 1.8176q-1.3183 4.7937-4.3942 7.1306-3.056 2.317-7.7698 2.317-5.8323 0-9.5874-3.9748-3.7551-3.9948-3.7551-10.906 0-7.3104 3.775-11.345 3.775-4.0547 9.927-4.0547 5.3729 0 8.7285 3.1758 1.9974 1.8775 2.9961 5.3929l-5.8523 1.3982q-0.51931-2.277-2.1771-3.5953-1.6378-1.3183-3.9948-1.3183-3.2557 0-5.293 2.3369-2.0174 2.3369-2.0174 7.57 0 5.5527 1.9974 7.9096t5.1932 2.3569q2.3569 0 4.0547-1.498t2.4368-4.7138z" fill="#fff"/>
  <path d="m212.68 940.24v-24.328h-8.6886v-4.9535h23.269v4.9535h-8.6686v24.328h-5.9122z" fill="#fff"/>
  <path d="m229.1 925.77q0-4.4741 1.3382-7.5101 0.99869-2.2371 2.7164-4.0147 1.7377-1.7777 3.795-2.6365 2.7364-1.1585 6.3117-1.1585 6.4715 0 10.346 4.0147 3.8949 4.0147 3.8949 11.165 0 7.0907-3.8549 11.105-3.8549 3.9948-10.306 3.9948-6.5314 0-10.386-3.9748-3.8549-3.9948-3.8549-10.986zm6.092-0.19974q0 4.9735 2.297 7.5501 2.297 2.5566 5.8323 2.5566t5.7924-2.5367q2.277-2.5566 2.277-7.65 0-5.0334-2.2171-7.5101-2.1971-2.4768-5.8523-2.4768t-5.8923 2.5167q-2.2371 2.4967-2.2371 7.5501z" fill="#fff"/>
  <path d="m262.12 940.24v-29.282h12.444q4.6938 0 6.811 0.79895 2.1372 0.77897 3.4155 2.7963t1.2783 4.6139q0 3.2957-1.9374 5.4528-1.9374 2.1372-5.7924 2.6965 1.9175 1.1185 3.1558 2.4568 1.2584 1.3382 3.3756 4.7538l3.5753 5.7125h-7.0707l-4.2744-6.3716q-2.277-3.4155-3.1159-4.2944-0.83889-0.89882-1.7777-1.2184-0.93877-0.33956-2.9761-0.33956h-1.1984v12.224h-5.9122zm5.9122-16.898h4.3743q4.2544 0 5.313-0.35952 1.0586-0.35953 1.6578-1.2384 0.59921-0.87884 0.59921-2.1971 0-1.4781-0.79895-2.3769-0.77898-0.91879-2.2171-1.1585-0.71905-0.0999-4.3143-0.0999h-4.6139v7.4302z" fill="#fff"/>
  <path d="m97.473 1006.2 5.7325 1.8176q-1.3183 4.7937-4.3942 7.1307-3.056 2.3169-7.7698 2.3169-5.8323 0-9.5874-3.9748-3.7551-3.9947-3.7551-10.906 0-7.3104 3.775-11.345 3.775-4.0547 9.927-4.0547 5.3729 0 8.7285 3.1758 1.9974 1.8775 2.9961 5.3929l-5.8523 1.3982q-0.51932-2.277-2.1771-3.5953-1.6378-1.3183-3.9948-1.3183-3.2557 0-5.293 2.3369-2.0173 2.3369-2.0173 7.5701 0 5.5527 1.9974 7.9096t5.1932 2.3569q2.3569 0 4.0547-1.4981 1.6978-1.498 2.4368-4.7138z" fill="#fff"/>
  <path d="m134.7 1017h-6.4316l-2.5566-6.6513h-11.705l-2.4168 6.6513h-6.2718l11.405-29.282h6.2518l11.725 29.282zm-10.886-11.585-4.0347-10.866-3.9548 10.866h7.9895z" fill="#fff"/>
  <path d="m137.86 1017v-29.282h8.8484l5.313 19.974 5.2531-19.974h8.8684v29.282h-5.4928v-23.05l-5.8124 23.05h-5.6925l-5.7924-23.05v23.05h-5.4928z" fill="#fff"/>
  <path d="m172.05 1017v-29.282h21.711v4.9535h-15.799v6.4915h14.701v4.9335h-14.701v7.9696h16.359v4.9335h-22.271z" fill="#fff"/>
  <path d="m199.4 1017v-29.282h12.444q4.6938 0 6.811 0.79895 2.1372 0.77898 3.4155 2.7963t1.2783 4.6139q0 3.2957-1.9374 5.4528-1.9375 2.1372-5.7924 2.6965 1.9175 1.1185 3.1558 2.4567 1.2584 1.3383 3.3756 4.7538l3.5753 5.7125h-7.0707l-4.2744-6.3717q-2.277-3.4155-3.1159-4.2943-0.8389-0.8988-1.7777-1.2184-0.93877-0.3396-2.9761-0.3396h-1.1984v12.224h-5.9122zm5.9122-16.898h4.3742q4.2544 0 5.313-0.35955 1.0586-0.35953 1.6578-1.2384 0.59922-0.87885 0.59922-2.1971 0-1.4781-0.79895-2.3769-0.77898-0.91879-2.2171-1.1585-0.71906-0.0999-4.3143-0.0999h-4.6139v7.4303z" fill="#fff"/>
  <path d="m255.35 1017h-6.4316l-2.5566-6.6513h-11.705l-2.4168 6.6513h-6.2718l11.405-29.282h6.2518l11.725 29.282zm-10.886-11.585-4.0347-10.866-3.9548 10.866h7.9895z" fill="#fff"/>
  <path d="m258.5 1017v-29.282h8.8484l5.313 19.974 5.2531-19.974h8.8684v29.282h-5.4928v-23.05l-5.8124 23.05h-5.6925l-5.7924-23.05v23.05h-5.4928z" fill="#fff"/>
  <path d="m319.1 1017h-6.4315l-2.5566-6.6513h-11.705l-2.4168 6.6513h-6.2718l11.405-29.282h6.2518l11.725 29.282zm-10.886-11.585-4.0347-10.866-3.9548 10.866h7.9895z" fill="#fff"/>
  <path d="m322.4 1017v-29.282h5.7524l11.984 19.554v-19.554h5.4928v29.282h-5.9322l-11.804-19.095v19.095h-5.4928z" fill="#fff"/>
  <path d="m556.05 786.69 5.7524-0.55926q0.51932 2.8962 2.0972 4.2544 1.5979 1.3582 4.2944 1.3582 2.8562 0 4.2944-1.1984 1.4581-1.2184 1.4581-2.8363 0-1.0386-0.61919-1.7577-0.59921-0.73902-2.1172-1.2783-1.0386-0.35952-4.7338-1.2783-4.7538-1.1784-6.6712-2.8962-2.6965-2.4168-2.6965-5.8923 0-2.2371 1.2584-4.1745 1.2783-1.9574 3.6552-2.9761 2.3968-1.0187 5.7724-1.0187 5.5128 0 8.2891 2.4168 2.7963 2.4168 2.9361 6.4515l-5.9122 0.25966q-0.3795-2.257-1.6378-3.2358-1.2384-0.99868-3.7351-0.99868-2.5766 0-4.0347 1.0586-0.93877 0.6791-0.93877 1.8176 0 1.0386 0.87885 1.7777 1.1185 0.93877 5.4329 1.9574t6.3716 2.1172q2.0773 1.0786 3.2358 2.9761 1.1784 1.8775 1.1784 4.6539 0 2.5167-1.3982 4.7138t-3.9548 3.2757q-2.5566 1.0586-6.3716 1.0586-5.5527 0-8.5288-2.5566-2.9761-2.5766-3.5553-7.4902z" fill="#fff"/>
  <path d="m583.67 781.75q0-4.4741 1.3382-7.5101 0.99868-2.2371 2.7164-4.0147 1.7377-1.7777 3.795-2.6365 2.7364-1.1585 6.3117-1.1585 6.4715 0 10.346 4.0147 3.8949 4.0147 3.8949 11.165 0 7.0907-3.8549 11.105-3.8549 3.9948-10.306 3.9948-6.5314 0-10.386-3.9748-3.8549-3.9948-3.8549-10.986zm6.092-0.19974q0 4.9735 2.297 7.5501 2.297 2.5566 5.8323 2.5566 3.5354 0 5.7924-2.5367 2.277-2.5566 2.277-7.65 0-5.0334-2.2171-7.5101-2.1971-2.4767-5.8523-2.4767t-5.8923 2.5167q-2.2371 2.4967-2.2371 7.5501z" fill="#fff"/>
  <path d="m616.63 766.93h5.9122v15.859q0 3.775 0.21971 4.8936 0.3795 1.7976 1.7976 2.8962 1.4381 1.0786 3.9149 1.0786 2.5167 0 3.795-1.0187 1.2783-1.0386 1.538-2.5367t0.25966-4.9735v-16.199h5.9122v15.38q0 5.2731-0.47937 7.4502t-1.7777 3.6752q-1.2783 1.498-3.4355 2.3968-2.1572 0.87885-5.6326 0.87885-4.1945 0-6.3716-0.95874-2.1572-0.97872-3.4155-2.5167-1.2583-1.558-1.6578-3.2557-0.57924-2.5167-0.57924-7.4302v-15.619z" fill="#fff"/>
  <path d="m646.29 796.21v-29.282h5.7524l11.984 19.554v-19.554h5.4928v29.282h-5.9322l-11.804-19.095v19.095h-5.4928z" fill="#fff"/>
  <path d="m675.77 766.93h10.806q3.6552 0 5.5727 0.55927 2.5766 0.759 4.4142 2.6964 1.8376 1.9375 2.7963 4.7538 0.95875 2.7963 0.95875 6.9109 0 3.6152-0.89882 6.2318-1.0986 3.1958-3.1359 5.1732-1.538 1.498-4.1545 2.3369-1.9574 0.61918-5.2331 0.61918h-11.125v-29.282zm5.9122 4.9535v19.395h4.4142q2.4768 0 3.5753-0.27964 1.4381-0.35952 2.3769-1.2184 0.95874-0.85887 1.558-2.8163 0.59922-1.9774 0.59922-5.3729t-0.59922-5.2132q-0.59921-1.8176-1.6778-2.8363t-2.7364-1.3782q-1.2384-0.27963-4.8536-0.27963h-2.6565z" fill="#fff"/>
 </g>
</svg>
