<?xml version="1.0" encoding="UTF-8"?>
<!DOCTYPE svg  PUBLIC '-//W3C//DTD SVG 1.1//EN'  'http://www.w3.org/Graphics/SVG/1.1/DTD/svg11.dtd'>
<svg enable-background="new 0 0 595.28 841.89" version="1.1" viewBox="0 0 595.28 841.89" xml:space="preserve" xmlns="http://www.w3.org/2000/svg">
<circle cx="297.26" cy="420.94" r="150" fill="#F58220"/>
<path d="m297.82 270.95v299.99c82.587-0.3 149.44-67.335 149.44-149.99 0-82.657-66.858-149.69-149.44-149.99z" fill="#F68B1F"/>
<path d="m362.39 412.97c-7.325-2.985-12.849-9.754-13.845-18.165-1.459-12.317 7.344-23.485 19.662-24.943 9.37-1.109 18.068 3.722 22.34 11.519 0.53-0.102 1.065-0.192 1.608-0.256 12.318-1.458 23.484 7.345 24.943 19.663 1.459 12.317-7.344 23.484-19.662 24.941-0.063 8e-3 -0.126 0.012-0.189 0.018 0.23 0.924 0.412 1.869 0.527 2.84 1.459 12.316-7.344 23.484-19.662 24.941-12.317 1.459-23.484-7.344-24.942-19.66-0.996-8.414 2.795-16.285 9.22-20.898z" fill="#EE3968"/>
<path d="m228.14 412.97c7.324-2.985 12.849-9.754 13.844-18.165 1.458-12.317-7.344-23.485-19.662-24.943-9.37-1.109-18.068 3.722-22.34 11.519-0.53-0.102-1.065-0.192-1.609-0.256-12.317-1.458-23.484 7.345-24.943 19.663-1.458 12.317 7.344 23.484 19.662 24.941 0.063 8e-3 0.126 0.012 0.19 0.018-0.231 0.924-0.413 1.869-0.528 2.84-1.458 12.316 7.344 23.484 19.662 24.941 12.318 1.459 23.485-7.344 24.943-19.66 0.997-8.414-2.794-16.285-9.219-20.898z" fill="#CB1C68"/>
<circle cx="295.9" cy="433.41" r="81.25" fill="#FECC81"/>
<path d="m298.04 352.22c-0.714-0.019-1.424-0.054-2.142-0.054-44.873 0-81.25 36.377-81.25 81.25s36.377 81.25 81.25 81.25c0.718 0 1.428-0.035 2.142-0.055v-162.39z" fill="#FAAA43"/>
	<circle cx="321.4" cy="427.16" r="14" fill="#fff"/>
	<path d="m335.4 427.16c0-7.731-6.269-14-14-14v28c7.732 0 14-6.267 14-14z" fill="#E6E7E8"/>
	<circle cx="268.74" cy="427.16" r="14" fill="#fff"/>
	<path d="m282.74 427.16c0-7.731-6.268-14-14-14v28c7.732 0 14-6.267 14-14z" fill="#E6E7E8"/>
<ellipse cx="295.9" cy="480.06" rx="33.37" ry="26.375" fill="#E6E7E8"/>
	<path d="m298.04 496.88c-6.458 0-12.531-2.518-17.102-7.088-0.977-0.977-0.977-2.561 0-3.535 0.976-0.977 2.559-0.977 3.536 0 3.627 3.627 8.445 5.623 13.566 5.623s9.939-1.996 13.566-5.623c0.976-0.977 2.56-0.977 3.535 0 0.977 0.975 0.977 2.559 0 3.535-4.571 4.57-10.644 7.088-17.101 7.088z" fill="#662D91"/>
<path d="m298.04 453.74c-0.709-0.035-1.422-0.061-2.142-0.061-18.43 0-33.371 11.809-33.371 26.375s14.94 26.375 33.371 26.375c0.72 0 1.433-0.023 2.142-0.059v-52.63z" fill="#D1D3D4"/>
	<path d="m340.37 356.58l-4.232 5e-3c-1.224-4.654-3.318-9.161-6.34-13.275-12.878-17.54-37.538-21.318-55.077-8.44-7.589 5.572-12.594 13.351-14.796 21.802l-4.235 5e-3c-4.418 6e-3 -7.997 3.591-7.991 8.01 5e-3 4.418 3.591 7.996 8.009 7.991l84.68-0.097c1.767-2e-3 3.398-0.577 4.721-1.548 1.986-1.457 3.273-3.809 3.271-6.461-6e-3 -4.419-3.592-7.997-8.01-7.992z" fill="#754C29"/>
	<path d="m298.04 327.24c-8.105-6e-3 -16.285 2.473-23.319 7.638-7.589 5.572-12.594 13.351-14.796 21.802l-4.235 5e-3c-4.418 6e-3 -7.997 3.591-7.991 8.01 5e-3 4.418 3.591 7.996 8.009 7.991l42.332-0.049v-45.397z" fill="#603913"/>
<circle cx="297.9" cy="448.7" r="21.533" fill="#EC008C"/>
<path d="m284.48 486.25c-0.977-0.977-2.56-0.977-3.536 0-0.977 0.975-0.977 2.559 0 3.535 4.571 4.57 10.645 7.088 17.102 7.088v-5c-5.122 0-9.939-1.996-13.566-5.623z" fill="#262262"/>
<path d="m298.04 470.22v-43.059c-0.047-1e-3 -0.093-4e-3 -0.141-4e-3 -11.893 0-21.534 9.641-21.534 21.533s9.641 21.533 21.534 21.533c0.048 1e-3 0.094-2e-3 0.141-3e-3z" fill="#CB1D69"/>
</svg>
