<?xml version="1.0" encoding="UTF-8" standalone="no"?>
<!DOCTYPE svg PUBLIC "-//W3C//DTD SVG 1.1//EN" "http://www.w3.org/Graphics/SVG/1.1/DTD/svg11.dtd">
<svg width="100%" height="100%" viewBox="0 0 4000 4000" version="1.1" xmlns="http://www.w3.org/2000/svg" xmlns:xlink="http://www.w3.org/1999/xlink" xml:space="preserve" xmlns:serif="http://www.serif.com/" style="fill-rule:evenodd;clip-rule:evenodd;stroke-linecap:round;stroke-linejoin:round;stroke-miterlimit:1.5;">
    <g id="Layer2">
        <path d="M1030.9,1616.64C1030.9,1616.64 1786.12,967.592 2627.17,1616.64" style="fill:rgb(90,64,36);"/>
        <path d="M1030.9,1616.64L1129.91,2617.98L2534.8,2637.4L2627.17,1616.64L2603.26,1584.86" style="fill:rgb(90,64,36);"/>
        <path d="M1164.8,3035.13L1135.84,2590.69L2538.32,2597.43L2501.72,3034.68" style="fill:rgb(90,64,36);"/>
        <path d="M1164.8,3035.13C1164.8,3035.13 1477.18,3326.34 1814.6,3326.34C2152.02,3326.34 1837.08,2963.07 1837.08,2963.07" style="fill:rgb(90,64,36);"/>
        <path d="M1868.52,3326.34C1868.52,3326.34 2306.96,3274.03 2496.82,3035.13" style="fill:rgb(90,64,36);"/>
        <path d="M1868.52,3007.73L2496.82,2999.29L2496.82,3035.13L2028.08,3287.39L1941.18,3297.1" style="fill:rgb(90,64,36);"/>
        <path d="M2528.33,2741.13L2669.28,2762.61L2812.44,2637.4L2764.37,2590.69L2659.6,2637.4L2538.32,2637.4" style="fill:rgb(90,64,36);"/>
        <path d="M2752.72,2590.69L2792.78,2517.92L2863.33,2429.3L2859.62,2521.6L2812.44,2637.4" style="fill:rgb(90,64,36);"/>
        <path d="M2785.12,2514.48L2810.22,2065.82L2881.72,2042.63L2900.29,2090.04L2863.33,2468.52L2785.12,2514.48Z" style="fill:rgb(90,64,36);"/>
        <path d="M2810.22,2065.82L2752.72,1953.21L2808.03,1899.55L2863.33,1961.44L2900.29,2062.13" style="fill:rgb(90,64,36);"/>
        <path d="M2598.2,1953.21L2686.48,1953.21L2785.12,1982.68L2826.51,1899.55L2729.87,1850.75L2606.37,1826.35" style="fill:rgb(90,64,36);"/>
        <path d="M2793.71,2492.43L2790.62,2526.18L2808.03,2514.48L2826.51,2480.39L2793.71,2492.43Z" style="fill:rgb(90,64,36);"/>
        <path d="M1303.12,1697.41C1303.12,1697.41 1670.1,1616.64 1769.31,1616.64C1868.52,1616.64 2320.1,1674.87 2354.01,1699.73" style="fill:rgb(55,47,47);"/>
        <path d="M2354.01,1699.73C2354.01,1699.73 1892.39,1809.71 1828.56,1797.81C1764.74,1785.9 1322.33,1719.14 1303.12,1699.73" style="fill:rgb(55,47,47);"/>
    </g>
    <g id="Layer3">
        <path d="M2561.99,2289.49L2496.82,3035.13C2496.82,3035.13 2163.85,3325.89 1910.9,3319.6" style="fill:rgb(71,55,38);"/>
        <path d="M2528.33,2741.5L2612.69,2766.72L2796.87,2655.68L2854.34,2532.21L2886.13,2197.89L2790.89,2486.78L2744.55,2602.98L2665.06,2636.78L2544.45,2640.04" style="fill:rgb(71,55,38);"/>
        <path d="M2249.69,1455.77L2144.92,1616.64L2270.61,1653.2L2368.03,1708.41L2489.46,1651.26L2508.96,1610.48L2466.48,1562.15L2249.69,1455.77Z" style="fill:rgb(71,55,38);"/>
    </g>
    <path d="M1286.22,1697.41C1286.22,1697.41 1895.15,1418.19 2359.47,1697.41" style="fill:rgb(55,47,47);"/>
    <path d="M1868.52,1655.14L1868.52,1744.75" style="fill:none;"/>
    <path d="M2359.47,1697.41C2359.47,1697.41 1965.53,1910.43 1286.22,1697.41" style="fill:rgb(55,47,47);"/>
    <path d="M2153.38,1616.64L2045.48,1792.09L2369.77,1708.41L2194.2,1617.67L2153.38,1616.64Z" style="fill:rgb(26,22,17);"/>
    <g id="Layer1">
    </g>
    <g transform="matrix(1,0,0,1,246.733,-38.4988)">
        <path d="M787.715,1655.14L918.07,3073.63" style="fill:none;stroke:black;stroke-width:25px;"/>
    </g>
    <g transform="matrix(-1,0,0,1,3414.89,-38.4988)">
        <path d="M787.715,1655.14L918.07,3073.63" style="fill:none;stroke:black;stroke-width:25px;"/>
    </g>
    <path d="M1164.8,3035.13C1164.8,3035.13 1767.73,3690.35 2496.82,3035.13" style="fill:none;stroke:black;stroke-width:25px;"/>
    <path d="M1063.42,1655.14C1063.42,1655.14 1679.89,2164.41 2612.69,1655.14" style="fill:none;stroke:black;stroke-width:25px;"/>
    <path d="M1063.42,1655.14C1063.42,1655.14 998.238,1628.88 1063.42,1578.14" style="fill:none;stroke:black;stroke-width:25px;"/>
    <g transform="matrix(1,0,0,1,101.387,-2.27374e-13)">
        <path d="M1063.42,1655.14C1063.42,1655.14 998.238,1628.88 1063.42,1578.14" style="fill:none;stroke:black;stroke-width:25px;"/>
    </g>
    <g transform="matrix(-1,0,0,1,3545.75,-4.54747e-13)">
        <path d="M1063.42,1655.14C1063.42,1655.14 998.238,1628.88 1063.42,1578.14" style="fill:none;stroke:black;stroke-width:25px;"/>
    </g>
    <path d="M1164.8,1655.14C1164.8,1655.14 1830.09,1976.88 2482.33,1655.14" style="fill:none;stroke:black;stroke-width:25px;"/>
    <path d="M2612.69,1881.48C2612.69,1881.48 2926.27,1807.81 2889.81,2178.43" style="fill:none;stroke:black;stroke-width:25px;"/>
    <path d="M2889.81,2178.43L2857,2527.15C2857,2527.15 2745.66,2846.97 2528.33,2741.14" style="fill:none;stroke:black;stroke-width:25px;"/>
    <path d="M1164.8,1578.14C1164.8,1578.14 1786.12,1156.29 2482.33,1578.14" style="fill:none;stroke:black;stroke-width:25px;"/>
    <g transform="matrix(-1,0,0,1,3661.62,0)">
        <path d="M1063.42,1655.14C1063.42,1655.14 998.238,1628.88 1063.42,1578.14" style="fill:none;stroke:black;stroke-width:25px;"/>
    </g>
    <path d="M1063.42,1578.14C1063.42,1578.14 1792.6,1027.48 2598.2,1578.14" style="fill:none;stroke:black;stroke-width:25px;"/>
    <path d="M2598.2,1961.45C2598.2,1961.45 2805.7,1901.41 2810.22,2105.36" style="fill:none;stroke:black;stroke-width:25px;"/>
    <path d="M2810.22,2105.36L2786.28,2527.84C2786.28,2527.84 2693.94,2758.47 2528.33,2675.73" style="fill:none;stroke:black;stroke-width:25px;"/>
    <path d="M2612.69,1833.72C2612.69,1833.72 2821.44,1848.01 2850.03,1953.21" style="fill:none;stroke:black;stroke-width:25px;"/>
    <path d="M2544.69,2635.49C2544.69,2635.49 2695.23,2673.19 2752.72,2590.69" style="fill:none;stroke:black;stroke-width:25px;"/>
    <path d="M1269.73,1694.16C1269.73,1694.16 1908.72,1415.75 2359.47,1697.41" style="fill:none;stroke:black;stroke-width:25px;"/>
    <g id="Layer4">
        <path d="M1425.17,1607.06C1438.66,1607.06 1450.51,1574.98 1453.76,1566.01C1471.12,1517.99 1415.73,1480.03 1411.15,1431.44C1407.22,1389.81 1457.17,1360.58 1463.69,1320.51C1472.24,1267.92 1400.17,1269.91 1445.04,1161.06C1445.18,1160.7 1446.74,1156.79 1446.91,1156.31C1460.98,1116.16 1426.21,1071.17 1452.1,1032.59C1454.02,1029.74 1465.26,1014.51 1470.53,1018.12" style="fill:none;stroke:rgb(186,179,172);stroke-width:25px;"/>
        <path d="M1710.62,1537.18C1714.23,1534.95 1717.36,1526.99 1719.12,1523.38C1777.59,1403.56 1705.02,1397.04 1711.39,1305.58C1715.9,1240.79 1775.58,1206.07 1744.72,1140.59C1728.23,1105.6 1754.32,1044.09 1769.45,1010.77C1772.75,1003.5 1777.42,982.558 1780.93,989.735" style="fill:none;stroke:rgb(186,179,172);stroke-width:25px;"/>
        <path d="M1991.54,1680.23C1998.43,1676.7 2002.24,1665.77 2005.89,1659.53C2079.5,1533.85 1966.62,1505.94 1978.18,1403.29C1983.56,1355.51 2042.01,1326.98 2039.45,1275.61C2037.37,1234 1989.91,1241.4 2008.43,1193.63C2010.43,1188.47 2035.24,1123.4 2035.69,1123.51" style="fill:none;stroke:rgb(186,179,172);stroke-width:25px;"/>
        <path d="M2203.92,1528.24C2201.88,1540.72 2224.04,1501.12 2225.88,1496.69C2241.61,1458.9 2229.62,1427.41 2207.89,1395.03C2190.66,1369.35 2174.38,1342.52 2171.02,1311.12C2166.3,1267 2200.68,1243.01 2205.02,1203.01C2211.26,1145.51 2132.62,1076.69 2204.47,1003.08" style="fill:none;stroke:rgb(186,179,172);stroke-width:25px;"/>
    </g>
</svg>
