<?xml version='1.0' encoding='utf-8'?>
<svg xmlns="http://www.w3.org/2000/svg" version="1.1" width="600px" height="976px" viewBox="0 0 600 976"> <g id="layer1"> </g> <g id="layer2"> <g> <g style="fill:rgb(255,213,68); fill-opacity:1.0; stroke-linejoin: miter"> <path d="M287.33603,484.0211Q271.5875,484.29666,260.5918,495.05807Q249.69095,506.22156,249.46439,521.8145Q249.6619,537.4133,260.51187,548.59033Q271.78677,559.5221,287.22766,559.7072Q302.97687,559.4533,313.98898,548.70435Q324.90552,537.5522,325.15048,521.9592Q324.9711,506.36057,314.13705,495.17203Q302.87912,484.22812,287.43854,484.02124"/> </g> <g> <g style="fill:rgb(181,94,40); fill-opacity:1.0; stroke-linejoin: miter"> <path d="M287.33517,485.8985Q272.35825,486.1621,261.90857,496.39636Q251.5523,507.01,251.34175,521.82947Q251.5344,536.6542,261.85236,547.27576Q272.57614,557.6644,287.26218,557.82983Q302.23935,557.5736,312.69464,547.3436Q323.05627,536.7339,323.27313,521.91437Q323.08667,507.08975,312.77417,496.46423Q302.0562,486.0714,287.37027,485.8985"/> </g> <g style="fill:rgb(255,213,68); fill-opacity:1.0; stroke-linejoin: miter"> <path d="M287.3311,490.58237Q274.31305,490.81012,265.2238,499.70575Q256.21295,508.93372,256.02567,521.8231Q256.18893,534.7174,265.1577,543.95654Q274.47775,552.9929,287.2415,553.146Q300.2601,552.9361,309.3629,544.0508Q318.38672,534.8322,318.58923,521.94275Q318.44095,509.04858,309.4853,499.79993Q300.1793,490.7535,287.4158,490.5825"/> </g> </g> </g> <g> <g style="fill:rgb(181,94,40); fill-opacity:1.0; stroke-linejoin: miter"> <path d="M276.58752,538.2345C274.80322,538.26135,273.7303,538.2798,273.71088,538.28394C273.67334,538.2938,273.49475,538.3247,273.30692,538.35583C272.48975,538.5094,272.2103,539.3425,272.76563,539.9464C273.04337,540.25305,273.0528,540.2529,274.03253,540.2665L275.03137,540.2892L275.2721,540.64343C275.94623,541.63184,276.5462,542.0654,277.38647,542.2035C277.73575,542.25476,281.55032,542.24475,287.45477,542.1658C289.71396,542.13806,291.45517,542.1177,292.8052,542.09753C297.5437,542.02637,297.46158,541.9563,298.0422,541.5736C298.3966,541.33276,298.89752,540.8168,299.2849,540.27405L299.53394,539.9219L300.51276,539.8695C301.38812,539.82825,301.51953,539.79785,301.7237,539.59705C302.21576,539.1188,302.09122,538.34827,301.47473,538.0654C301.17126,537.92883,300.0786,537.9264,287.45963,538.08716C283.05746,538.1422,279.11102,538.1968,276.58752,538.2345 Z"/> </g> <g style="fill:rgb(181,94,40); fill-opacity:1.0; stroke-linejoin: miter"> <path d="M300.40668,518.31836C297.79495,518.2882,293.61215,518.30396,286.6832,518.32715C270.52246,518.381,270.36005,518.3816,270.29126,518.6139C270.22238,518.8462,270.49808,521.49036,270.69836,522.44104C270.75742,522.73096,270.85168,523.1598,270.88733,523.4148C270.93457,523.6583,271.0051,523.9481,271.05188,524.0525C271.11023,524.1566,271.32104,524.7477,271.5204,525.37354C272.1414,527.21594,273.06357,528.92993,274.38055,530.71216C275.0681,531.62634,276.97717,533.5458,277.5468,533.89185C277.73282,534.0073,277.9538,534.18054,278.04694,534.28467C278.12817,534.3999,278.25507,534.48035,278.31348,534.48096C278.31378,534.4811,278.3141,534.4811,278.31445,534.4811C278.31467,534.4811,278.31488,534.4811,278.31506,534.4811C278.37396,534.4818,278.59393,534.60815,278.79095,534.74634C279.0003,534.89636,279.4536,535.16174,279.80228,535.3462C280.69708,535.78406,280.732,535.8302,280.73392,536.3989C280.73544,536.8512,280.77057,536.9324,281.04932,537.0359C281.12793,537.0654,281.76215,537.0847,282.69016,537.0956C285.73712,537.13074,291.94983,537.0713,292.04733,536.96436C292.09366,536.9293,292.15067,536.66223,292.1845,536.38367C292.25253,535.88464,292.4832,535.4779,292.72684,535.47705C292.93564,535.4647,294.6489,534.3568,295.60928,533.58777C296.50027,532.8888,297.96866,531.3873,298.32645,530.81775C298.43033,530.655,298.67294,530.34106,298.88092,530.1083C299.07733,529.8756,299.3774,529.3989,299.55023,529.0387C299.72302,528.6669,299.9193,528.3646,300.00046,528.36426C300.06946,528.3541,300.46582,528.35144,300.93256,528.3567C301.01453,528.3578,301.09875,528.359,301.18375,528.36035C301.18622,528.3605,301.18866,528.3605,301.19113,528.3605C302.64178,528.3772,304.94156,527.91797,305.18353,527.5581C305.2182,527.5116,305.3224,527.42993,305.415,527.3948C306.46912,526.89246,307.34747,525.88025,307.77255,524.63745C308.09433,523.71985,308.0657,522.0957,307.71457,521.1572C307.35165,520.19556,306.61813,519.40906,305.66528,518.9597C304.7391,518.52893,304.54663,518.36597,300.40668,518.31836 Z M302.7473,521.2998C302.87262,521.3014,303.02832,521.3164,303.22537,521.3347C303.678,521.3795,304.18872,521.4939,304.3399,521.5978C304.9213,521.97864,305.03812,522.2219,305.05252,523.05725C305.05545,523.93896,304.90588,524.2875,304.3505,524.7417C303.8182,525.1726,302.8911,525.46594,302.06744,525.4686L301.32492,525.4712L301.38187,525.1461C301.40448,524.97205,301.54196,524.46106,301.66812,524.0199C301.79428,523.567,301.966,522.89343,302.0343,522.51025C302.23395,521.4946,302.2601,521.2942,302.7473,521.2998 Z"/> </g> <g style="fill:rgb(181,94,40); fill-opacity:1.0; stroke-linejoin: miter"> <path d="M286.0889,495.1427C286.0457,495.14508,286.1168,495.3656,286.25003,495.6613C286.76852,496.75986,286.977,497.60776,287.00162,498.6797C287.02292,499.53033,286.99207,499.74356,286.81284,500.28235C286.47043,501.28317,286.12082,501.8075,284.99002,503.00726C284.41205,503.6203,283.7759,504.33615,283.58408,504.59424C282.19058,506.4364,281.58765,508.7941,282.00018,510.77066C282.0733,511.11008,282.18137,511.49997,282.24316,511.6437C282.28128,511.72897,282.3066,511.7814,282.3259,511.78104C282.36008,511.78055,282.37482,511.6144,282.40622,511.17325C282.55606,509.24768,283.0375,507.87033,284.10324,506.2971C284.31137,505.98758,285.0727,505.1166,285.78476,504.3571C287.09125,502.95877,287.47473,502.42545,287.83508,501.48395C288.384,500.07153,288.2839,498.49875,287.56412,497.0372C287.23096,496.38696,286.32843,495.21756,286.09756,495.1445C286.09476,495.1433,286.0922,495.1427,286.08997,495.14264 Z M290.4598,501.52762C290.4049,501.52838,290.384,501.77325,290.39188,502.30508C290.408,503.94727,289.8935,504.82306,287.4374,507.31076C285.51758,509.24588,285.36685,509.40976,285.0259,509.94247C284.23566,511.1542,284.04248,512.4592,284.4532,513.73816C284.571,514.10156,284.7982,514.58203,284.98093,514.8906L284.9799,514.8906Q284.9838,514.9115,284.98788,514.93274Q285.4485,515.6669,285.81552,516.0205Q286.40854,516.6017,286.82693,516.78345L286.96622,516.8413L286.87686,516.7023L286.87582,516.7023C286.85953,516.65796,286.8192,516.5901,286.7496,516.4949C286.51492,516.1665,285.90137,514.9758,285.7676,514.5692C285.70523,514.38306,285.6258,514.1885,285.58258,514.1465C285.51797,514.06555,285.4742,513.9309,285.4497,513.76074L285.44876,513.76074Q285.38583,513.0112,285.63126,512.26636Q285.86005,511.49197,286.54703,510.38867L286.54596,510.38867C286.77237,510.1349,287.08,509.81302,287.5192,509.3605C289.53067,507.2964,290.3807,506.10077,290.79446,504.7499C291.11075,503.707,291.03778,502.81448,290.55255,501.66446C290.51474,501.57407,290.48398,501.52722,290.4598,501.52762 Z"/> </g> <g> <g style="fill:rgb(255,213,68); fill-opacity:1.0; stroke-linejoin: miter"> <path d="M285.94922,523.2167C284.9573,523.44495,284.0262,524.0055,283.24768,524.8474C282.39206,525.77,281.8462,526.9199,281.772,527.9535C281.75256,528.21533,281.80914,528.8917,281.86298,529.04443C281.886,529.10913,281.91928,529.20166,281.93484,529.249C281.95038,529.2964,282.0116,529.42236,282.06757,529.5314L282.174,529.72534L282.2537,529.69946C282.7062,529.5491,283.7404,528.73364,284.2672,528.1106C284.64334,527.66614,284.7518,527.43286,285.02423,526.4612C285.2949,525.5006,285.46207,525.1284,285.8361,524.6426C286.16696,524.2157,286.4207,524.03625,287.2063,523.67175C287.48676,523.54333,287.72647,523.4325,287.74142,523.42505C287.85696,523.37085,287.5106,523.23755,287.0664,523.166C286.8234,523.1282,286.2177,523.15454,285.94922,523.2167 Z"/> </g> <g style="fill:rgb(255,213,68); fill-opacity:1.0; stroke-linejoin: miter"> <path d="M288.1654,524.12866C288.00143,524.22266,287.72806,524.3594,287.55646,524.43396C286.97952,524.6782,286.736,524.844,286.49127,525.15674C286.21762,525.506,286.06085,525.86475,285.848,526.6294C285.61502,527.4718,285.52228,527.71533,285.2781,528.1245C285.0744,528.46814,284.88266,528.7035,284.49655,529.0803C284.18762,529.3811,283.9105,529.6166,283.56418,529.871C283.36563,530.0171,282.94174,530.2975,282.8541,530.33923C282.77924,530.37585,283.25375,530.6145,283.54678,530.68713C284.0197,530.8076,284.6428,530.78,285.21082,530.6173C286.0983,530.36145,286.97177,529.7887,287.70206,528.98645C288.60434,527.9934,289.13638,526.74365,289.1241,525.64856C289.1179,525.0989,289.00345,524.6621,288.7596,524.2649C288.6472,524.07996,288.5352,523.94763,288.49603,523.9541C288.47858,523.95496,288.3293,524.03503,288.1654,524.12866 Z"/> </g> <g style="fill:rgb(255,213,68); fill-opacity:1.0; stroke-linejoin: miter"> <path d="M289.38522,525.8259C289.37622,525.90735,289.36472,526.0242,289.36127,526.0857C289.35562,526.14526,289.338,526.2732,289.31894,526.3705C289.30182,526.4657,289.28708,526.56274,289.2881,526.5825C289.28928,526.6044,289.3561,526.71265,289.43842,526.82227C289.61948,527.06287,289.72452,527.2744,289.93594,527.8091C290.18298,528.4386,290.3066,528.6272,290.69427,528.9667C290.9511,529.1902,291.38037,529.4839,291.64804,529.619C291.81448,529.70276,292.0361,529.7942,292.07114,529.7925C292.1105,529.7904,292.18936,529.6199,292.24454,529.4155C292.2816,529.2821,292.28287,529.2207,292.26395,528.8513C292.23926,528.41223,292.22763,528.35583,292.0842,527.995C291.69882,527.0177,290.71814,526.0951,289.7059,525.75476C289.61447,525.72437,289.50757,525.6924,289.47012,525.68774L289.39938,525.676L289.38522,525.8259 Z"/> </g> <g style="fill:rgb(255,213,68); fill-opacity:1.0; stroke-linejoin: miter"> <path d="M288.97134,527.50134C288.72617,528.06177,288.40173,528.57153,288.0023,529.03015L287.83878,529.21826L287.90482,529.3091C288.0179,529.46326,288.55908,529.93286,288.79916,530.08484C289.7481,530.68713,290.71713,530.8237,291.43454,530.4562C291.55417,530.39514,291.69162,530.29834,291.6904,530.2743C291.68994,530.2656,291.66266,530.2472,291.62912,530.23364C291.5934,530.2202,291.481,530.16455,291.37512,530.1085C290.72873,529.7671,290.08624,529.2455,289.81342,528.83875C289.67368,528.6334,289.5422,528.3773,289.4479,528.11914C289.29538,527.7084,289.10538,527.29297,289.07257,527.2947C289.06607,527.29504,289.02045,527.3893,288.97134,527.50134 Z"/> </g> </g> </g> </g> </svg>