<?xml version="1.0" encoding="UTF-8"?>
<svg viewBox="0 0 381.5686 359.17166" xmlns="http://www.w3.org/2000/svg">
 <defs>
  <clipPath id="c">
   <path d="m108.33-72.388c-10.053 14.951-10.974 33.732-6.2188 50.5 2.6933 9.4976 11.341 20.587 19.312 30.062s15.375 16.938 15.375 16.938l5.6562-5.6562s-7.1733-7.2455-14.906-16.438-15.939-20.709-17.75-27.094c-4.2528-14.997-3.2489-31.297 5.1875-43.844l-6.6562-4.4688z"/>
  </clipPath>
  <filter id="b">
   <feGaussianBlur stdDeviation="2.56114"/>
  </filter>
  <filter id="a">
   <feGaussianBlur stdDeviation=".64028"/>
  </filter>
  <filter id="n">
   <feGaussianBlur stdDeviation=".21654"/>
  </filter>
  <filter id="m">
   <feGaussianBlur stdDeviation="1.16159"/>
  </filter>
  <filter id="l">
   <feGaussianBlur stdDeviation=".97782"/>
  </filter>
  <filter id="k">
   <feGaussianBlur stdDeviation=".27451"/>
  </filter>
  <filter id="j">
   <feGaussianBlur stdDeviation=".83809"/>
  </filter>
  <filter id="h">
   <feGaussianBlur stdDeviation="1.75771"/>
  </filter>
  <filter id="i"/>
  <linearGradient id="g" x1="90.526" x2="77.54" y1="85.186" y2="100.36" gradientUnits="userSpaceOnUse">
   <stop offset="0"/>
   <stop stop-color="#464646" offset="1"/>
  </linearGradient>
  <radialGradient id="f" cx="218.84" cy="333.37" r="157.83" gradientTransform="matrix(.73682 .00031218 -.00025193 .59462 57.679 109.48)" gradientUnits="userSpaceOnUse">
   <stop stop-color="#1a1a1a" offset="0"/>
   <stop stop-color="#222220" offset="1"/>
  </radialGradient>
  <radialGradient id="e" cx="333.46" cy="212.4" r="181.41" gradientTransform="matrix(1.4987 .01912 -.01653 1.2959 -162.85 -72.842)" gradientUnits="userSpaceOnUse">
   <stop stop-color="#346bfb" offset="0"/>
   <stop stop-color="#2d54cc" offset=".17996"/>
   <stop stop-color="#233fa2" offset=".39709"/>
   <stop stop-color="#1e2156" offset=".80044"/>
   <stop stop-color="#323642" offset="1"/>
  </radialGradient>
  <radialGradient id="d" cx="581.13" cy="81.509" r="19.488" gradientTransform="matrix(1 0 0 .48969 0 44.312)" gradientUnits="userSpaceOnUse">
   <stop stop-color="#b1b2b1" offset="0"/>
   <stop stop-color="#8d8e8d" stop-opacity=".96947" offset="1"/>
  </radialGradient>
 </defs>
 <g transform="translate(-37.939 6.7497)">
  <g transform="translate(-61.632 65.188)">
   <path d="m108.56-71.938c-10.053 14.951-10.974 33.732-6.2188 50.5 2.6933 9.4976 11.341 20.618 19.312 30.094s15.375 16.906 15.375 16.906l5.6562-5.625s-7.1733-7.2455-14.906-16.438-15.939-20.74-17.75-27.125c-4.2528-14.997-3.2489-31.297 5.1875-43.844l-6.6562-4.4688z" clip-path="url(#c)"/>
   <path transform="translate(.23705,.71114)" d="m102.88-72.867c-10.053 14.951-10.974 33.732-6.2188 50.5 2.6933 9.4976 11.341 20.587 19.312 30.062s15.344 16.938 15.344 16.938l5.6875-5.6562s-7.1733-7.2455-14.906-16.438-15.939-20.709-17.75-27.094c-4.2528-14.997-3.2802-31.297 5.1562-43.844l-6.625-4.4688z" clip-path="url(#c)" fill="#fafafa" filter="url(#h)"/>
  </g>
  <path d="m79.174 79.648s-4.0298-1.8964-5.9262 1.4223-4.978 5.6891-3.3186 10.667 8.7707 13.749 8.7707 13.749l19.912-16.593z" fill="url(#g)"/>
  <path d="m108.28 113.9-54.308 26.148s-2.0114 11.063 1.6762 17.767 38.887 35.535 49.615 44.251 47.603 35.2 58.331 48.609 17.432 19.444 26.148 35.535 32.183 39.893 51.291 47.603 53.126 17.236 78.445 16.091c14.416-0.65168 35.954-6.7356 35.954-6.7356l13.661-91.153z" fill="url(#f)"/>
  <path d="m184.71 57.908c0.32982 0.01086 73.423 10.544 98.894 28.842 35.569 25.551 48.971 29.412 68.723 49.615 24.941 25.51 53.999 60.907 60.677 88.167 7.6842 31.365 4.6672 31.953 4.6672 31.953s-215.86-128.5-215.86-129.84-17.265-68.902-17.265-68.902" fill="#272926"/>
  <path d="m55.943 132.75c-0.45231 0.28348 15.267-28.071 34.609-43.142s40.581-27.464 62.58-31.764 51.677 0.01079 68.744 3.3186 28.456 10.448 42.194 15.645 68.279 52.923 95.767 85.811c23.57 28.2 40.141 59.417 57.839 93.87 0 0 1.8964 33.661-13.275 52.15s-46.935 34.135-46.935 34.135c3.4675-2.5336-6.5467-34.424-24.653-56.891-31.032-38.506-73.32-62.827-107.62-78.699-39.741-20.252-87.271-32.792-135.12-50.728-12.718-5.2213-25.145-11.027-34.135-23.705z" fill="url(#e)"/>
  <g transform="translate(-330.5 -227.88)" fill="none">
   <path d="m608.02 312.81c13.738 7.3758 59.543 47.375 83.698 76.424 21.711 26.109 36.118 52.042 53.817 86.495" stroke="#3b3b3b" stroke-linecap="round" stroke-linejoin="round" stroke-width="3"/>
   <path d="m551.76 289.78c17.066 3.3079 28.456 10.448 42.194 15.645s68.279 52.923 95.767 85.811c23.57 28.2 40.141 59.417 57.839 93.87" filter="url(#l)" stroke="#e3e3e3" stroke-width=".2"/>
  </g>
  <g transform="translate(-450.36 1.8699)">
   <path d="m562.39 73.451c6.3052-1.433 9.8197-0.60702 20.266 0.03369 32.706 2.006 57.365 11.378 57.365 11.378s14.012 3.8552 26.549 11.852c19.536 12.462 25.836 17.412 24.677 24.15-1.6541 9.61-22.216 11.209-36.223 6.4697-13.636-4.6138-59.324-22.222-90.384-27.301-10.675-1.7456-13.227-2.326-35.619-0.83316 7.4832-8.8432 19.667-17.351 33.369-25.75z" fill="#1a1a1a"/>
   <path d="m562.39 73.451c6.3052-1.433 9.8197-0.60702 20.266 0.03369 32.706 2.006 57.365 11.378 57.365 11.378s14.012 3.8552 26.549 11.852c19.536 12.462 25.836 17.412 24.677 24.15-1.6541 9.61-22.216 11.209-36.223 6.4697-13.636-4.6138-59.324-22.222-90.384-27.301-10.675-1.7456-13.227-2.326-35.619-0.83316" fill="none" filter="url(#k)" stroke="#000"/>
   <path d="m564.25 72.738c6.3052-1.433 9.8197-0.60702 20.266 0.03369 32.706 2.006 57.365 11.378 57.365 11.378s14.012 3.8552 26.549 11.852c19.536 12.462 25.836 17.412 24.677 24.15" fill="none" filter="url(#j)" stroke="#f7f7f7" stroke-width=".5"/>
  </g>
  <g transform="translate(-454.58 1.3409)">
   <path d="m573.71 95.056s-8.2966-0.53336-10.43-1.4223-4.6224-0.23705-3.3186-2.6668 3.0223-5.3928 4.7409-6.7558 2.9631-3.615 4.8002-4.2668 27.142 1.4815 29.157 1.8371 4.8595 0.65188 4.2076 1.9556-2.5482 5.6299-3.615 6.6373-5.2743 4.1483-8.0596 4.6224-17.482 0.05926-17.482 0.05926z" filter="url(#i)"/>
   <path d="m566.04 83.732c-1.7751 2.2284-4.788 5.0826-3.6876 7.7104 1.3923 3.3248 6.6819 2.8556 10.225 3.52 5.6057 1.0512 11.604 2.2057 17.097 0.67047 3.9997-1.1179 8.0302-3.4564 10.392-6.8723 0.71695-1.0368 1.3556-2.5382 0.83808-3.6876-1.9093-4.2409-7.7246-5.5747-12.236-6.7047-5.2033-1.3033-11.036-1.6263-16.091 0.16762-2.6233 0.93093-4.8028 3.0189-6.5371 5.1961z" fill="url(#d)"/>
  </g>
  <path d="m357.47 342.77c3.4675-2.5336-4.9612-35.535-23.067-58.003-31.032-38.506-73.32-62.827-107.62-78.699-39.741-20.252-87.271-32.792-135.12-50.728-12.718-5.2213-25.145-11.027-34.135-23.705" fill="none" filter="url(#b)" stroke="#f6f6f6" stroke-linecap="round" stroke-linejoin="round"/>
  <path d="m357.47 342.77c3.4675-2.5336-6.5467-34.424-24.653-56.891-31.032-38.506-73.32-62.827-107.62-78.699-39.741-20.252-87.271-32.792-135.12-50.728-12.718-5.2213-23.145-7.027-32.135-19.705" fill="none" filter="url(#a)" stroke="#000" stroke-linecap="round" stroke-linejoin="round" stroke-width="3"/>
  <path d="m353.43 343.17c3.4675-2.5336-6.5467-34.424-24.653-56.891-31.032-38.506-73.32-62.827-107.62-78.699-39.741-20.252-87.271-32.792-135.12-50.728-12.718-5.2213-23.145-7.027-32.135-19.705" fill="none" filter="url(#a)" stroke="#929292" stroke-linecap="round" stroke-linejoin="round" stroke-width=".5"/>
  <g transform="matrix(.88226 -.05998 .05897 .98169 25.484 23.526)" fill="none" stroke-linecap="round" stroke-linejoin="round">
   <path d="m329.02 348.46c3.4675-2.5336-4.9612-35.535-23.067-58.003-31.032-38.506-73.32-62.827-107.62-78.699-39.741-20.252-87.271-32.792-135.12-50.728-12.718-5.2213-25.145-11.027-34.135-23.705" filter="url(#b)" stroke="#f6f6f6"/>
   <path d="m329.02 348.46c3.4675-2.5336-6.5467-34.424-24.653-56.891-31.032-38.506-73.32-62.827-107.62-78.699-39.741-20.252-87.271-32.792-135.12-50.728-12.718-5.2213-25.145-11.027-34.135-23.705" filter="url(#a)" stroke="#000" stroke-width="3"/>
   <path d="m324.99 348.86c3.4675-2.5336-6.5467-34.424-24.653-56.891-31.032-38.506-73.32-62.827-107.62-78.699-39.741-20.252-87.271-32.792-135.12-50.728-12.718-5.2213-25.145-11.027-34.135-23.705" filter="url(#a)" stroke="#929292" stroke-width=".5"/>
  </g>
  <path d="m118.05 211.45s33.187 22.756 44.565 34.609 24.653 38.876 28.446 41.72 10.43 4.7409 12.801 2.8446 1.4223-18.49-1.8964-23.231-12.326-18.964-31.29-28.446-52.624-27.497-52.624-27.497z" fill="#151515" stroke="#070707"/>
  <path d="m146.61 197.64-3.4841 3.4632 33.123 18.104 3.1911-2.5616 1.545-7.1568z" stroke="#000"/>
  <path d="m143.12 201.11 0.13006 6.8362 32.993 11.268 0.69297-8.6118z" fill="#494949"/>
  <path d="m143.12 201.11 33.816 9.4926" fill="none" filter="url(#n)" stroke="#d9d9d9" stroke-width=".3"/>
  <path d="m339.59 126.97s18.941 18.929 34.529 37.2c15.453 18.112 34.171 49.211 38.194 62.956" fill="none" filter="url(#m)" stroke="#000" stroke-width="2"/>
 </g>
</svg>
