<?xml version='1.0' encoding='utf-8'?>
<svg xmlns="http://www.w3.org/2000/svg" width="191.77mm" height="191.77mm" version="1.1" style="shape-rendering:geometricPrecision; text-rendering:geometricPrecision; image-rendering:optimizeQuality; fill-rule:evenodd; clip-rule:evenodd" viewBox="0 0 18823 18823"> <defs> <style type="text/css">  .fil1 {fill:black} .fil4 {fill:#D10000} .fil3 {fill:#FF6666} .fil2 {fill:white} .fil5 {fill:#BA0202;fill-rule:nonzero} .fil0 {fill:url(#id0)}  </style> <radialGradient id="id0" gradientUnits="userSpaceOnUse" gradientTransform="matrix(6.12323E-017 1 -1 6.12323E-017 18823 0)" cx="9411.4" cy="9411.4" r="9411.4" fx="9411.4" fy="9411.4"> <stop offset="0" style="stop-opacity:1; stop-color:white"/> <stop offset="1" style="stop-opacity:1; stop-color:#E6E6E6"/> </radialGradient> </defs> <g id="Layer_x0020_1"> <metadata id="CorelCorpID_0Corel-Layer"/> <rect class="fil0" width="18823" height="18823"/> <g id="_637943088"> <path class="fil1" d="M9669 16081c-73,88 -178,211 -350,298 -173,88 -413,140 -630,152 -217,12 -412,-15 -560,-65 -147,-50 -249,-122 -337,-206 -88,-83 -163,-178 -100,-181 63,-2 264,87 479,140 215,53 445,70 660,50 215,-21 416,-80 580,-150 163,-70 289,-151 331,-166 42,-14 1,39 -73,128zm2605 -8348c234,-78 537,-288 843,-445 336,-173 676,-282 1024,-291 347,-9 702,82 971,204 268,122 450,275 410,391 -40,117 -302,197 -571,461 -268,263 -543,709 -777,1005 -233,295 -425,441 -669,514 -244,74 -539,77 -756,211 -216,133 -354,398 -421,704 -68,306 -65,653 -44,1084 20,430 59,944 36,1349 -23,404 -109,700 -359,1007 -251,308 -666,627 -964,861 -298,235 -480,385 -676,572 -195,187 -405,410 -669,563 -263,153 -579,236 -880,252 -301,15 -586,-37 -847,-124 -261,-86 -497,-208 -655,-378 -158,-170 -239,-388 -250,-682 -12,-295 45,-666 41,-1044 -4,-379 -68,-765 -135,-1142 -66,-376 -133,-741 -224,-1036 -91,-294 -205,-517 -297,-718 -92,-201 -162,-380 -181,-586 -20,-206 11,-440 -10,-596 -20,-155 -93,-233 -298,-204 -205,28 -542,163 -989,92 -448,-72 -1005,-349 -1337,-698 -332,-349 -439,-769 -560,-1013 -122,-244 -260,-311 -165,-449 94,-137 421,-345 795,-438 373,-93 793,-72 1175,30 381,102 723,287 993,482 270,196 467,404 571,552 103,147 114,236 148,215 30,-19 79,-126 123,-296 155,-59 329,-186 470,-277 13,-9 27,-18 40,-27 241,-155 427,-229 712,-283 222,-42 453,-63 678,-77 279,-16 561,-19 840,-9 550,19 1111,82 1652,180 197,35 392,77 588,120 120,26 256,60 378,70 75,6 158,3 213,-56 14,-15 24,-32 33,-50z"/> <path class="fil2" d="M3583 7717c235,-26 619,-11 990,72 371,83 729,234 949,456 221,221 304,514 283,749 -21,235 -145,411 -313,497 -167,85 -377,80 -579,17 -203,-64 -397,-186 -356,-245 42,-60 319,-57 493,-124 174,-66 244,-201 218,-359 -26,-158 -148,-340 -385,-487 -238,-148 -590,-262 -894,-326 -303,-63 -557,-76 -642,-117 -84,-40 2,-107 236,-133zm11051 -166c-270,15 -677,93 -1020,246 -342,153 -620,381 -767,616 -148,235 -166,476 -104,633 62,157 205,230 423,217 217,-13 511,-112 548,-174 38,-62 -180,-88 -303,-199 -124,-110 -152,-304 -29,-498 123,-193 398,-385 673,-507 275,-122 550,-173 735,-205 186,-31 282,-41 264,-70 -18,-28 -151,-75 -420,-59zm-7872 633c-31,120 -87,291 -163,339 -2,1 -4,2 -6,3 21,64 40,114 57,145 81,143 133,-96 213,-285 80,-189 189,-329 306,-288 117,42 241,265 270,698 28,433 -39,1076 52,1584 91,509 340,882 415,1297 75,415 -24,872 -267,1339 -139,265 -481,648 -478,930 2,187 -11,374 -24,561 -11,158 -24,321 -18,480 3,80 12,158 29,233 17,-70 26,-124 23,-191 0,-14 8,-74 8,-89 38,41 35,113 121,204 85,92 243,183 358,169 116,-14 206,-112 197,-260 -9,-148 -118,-345 -223,-474 -105,-129 -206,-190 -248,-181 -42,9 -25,88 29,171 54,82 147,167 206,250 59,82 84,161 53,222 -31,60 -119,101 -194,63 -75,-38 -138,-156 -176,-309 -39,-153 -55,-341 -59,-481 -4,-139 4,-230 25,-275 22,-44 57,-43 231,-6 175,37 488,110 789,137 301,27 589,9 832,-37 242,-45 439,-118 575,-151 137,-34 212,-29 233,39 20,67 -13,197 -142,343 -128,147 -351,310 -456,481 -105,172 -92,351 27,428 119,77 345,52 501,-39 155,-90 241,-247 271,-389 31,-141 6,-267 -39,-241 -46,26 -112,204 -214,330 -103,127 -242,202 -348,207 -106,5 -180,-60 -138,-160 42,-101 200,-237 332,-344 132,-107 237,-185 301,-277 65,-93 90,-201 131,-158 42,42 100,234 102,456 2,215 -88,551 -223,841 74,-69 146,-141 220,-211 446,-425 415,-1078 158,-1611 -179,-371 -500,-724 -682,-1032 -182,-309 -223,-573 -127,-825 96,-252 329,-490 472,-942 143,-451 195,-1115 335,-1610 140,-496 368,-822 700,-970 332,-148 768,-117 1040,-156 272,-39 381,-148 462,-378 10,-30 19,-61 29,-94 -10,6 -21,12 -31,17 -95,52 -202,107 -309,142l-5 5c-72,78 -174,88 -273,79 -130,-11 -260,-43 -388,-71 -194,-43 -389,-84 -586,-120 -291,-52 -584,-94 -879,-125 -24,93 -54,183 -98,270 -160,324 -508,615 -723,890 -215,275 -298,534 -366,633 -67,98 -119,36 -249,-143 -130,-179 -337,-475 -441,-755 -104,-280 -104,-544 -88,-848l3 -60c-101,11 -201,26 -301,44 -270,51 -454,124 -685,273 -14,8 -27,17 -41,26 -131,86 -272,189 -418,257zm-424 1542c88,43 229,114 337,201 109,88 186,193 234,294 48,100 67,196 44,196 -24,-1 -90,-98 -157,-177 -66,-79 -134,-140 -218,-192 -84,-52 -184,-95 -190,-75 -5,19 84,101 104,201 20,101 -29,220 -47,322 -18,102 -4,187 17,241 21,53 50,75 89,94 40,19 90,34 91,25 1,-10 -47,-45 -40,-78 7,-33 70,-63 112,-127 43,-64 65,-162 99,-148 34,14 80,141 105,237 24,96 28,162 3,176 -25,14 -79,-24 -154,-30 -76,-6 -174,21 -247,12 -74,-8 -123,-51 -162,-124 -39,-73 -67,-176 -71,-291 -4,-115 18,-243 19,-359 1,-116 -17,-220 -42,-297 -24,-77 -54,-126 -51,-143 2,-17 37,-1 125,42zm4677 313c26,-81 93,-208 192,-278 99,-71 228,-85 340,-41 111,44 205,146 200,175 -4,30 -107,-15 -125,-4 -18,10 48,75 82,160 33,85 35,190 9,280 -26,90 -79,165 -175,235 -95,71 -232,135 -350,168 -118,33 -217,35 -248,-16 -31,-50 5,-153 26,-251 21,-98 26,-191 57,-163 31,28 88,177 177,229 90,52 212,6 288,-57 77,-63 108,-143 90,-231 -17,-88 -83,-184 -95,-162 -13,23 29,164 36,235 7,71 -20,71 -52,9 -32,-63 -68,-187 -81,-268 -13,-81 -3,-119 22,-139 25,-20 64,-23 52,-37 -11,-14 -71,-40 -143,-17 -71,22 -153,94 -204,155 -51,62 -72,114 -90,123 -18,9 -34,-25 -8,-105zm746 535c6,27 -111,147 -232,216 -121,68 -247,86 -317,90 -70,4 -84,-6 -27,-42 57,-37 185,-99 314,-163 128,-63 257,-128 262,-101z"/> <path class="fil3" d="M6457 6980c17,-224 42,-562 184,-941l57 -17c512,-154 1038,-309 1565,-403 538,-96 1065,-119 1607,-48 492,64 962,162 1417,357 163,66 444,265 581,378 202,166 338,332 381,552 -83,-105 -217,-179 -326,-239 -183,-99 -378,-186 -572,-264 -245,-98 -497,-182 -753,-247 -74,-19 -148,-36 -223,-51 -584,-119 -1180,-111 -1767,-18 -482,77 -1018,220 -1453,447 -275,144 -533,339 -706,600 2,-32 5,-67 8,-106zm1652 -2577c127,-73 257,-138 390,-193 644,-264 1347,-284 1897,-211l86 77c98,87 192,178 278,278 181,213 321,463 420,724 83,221 138,451 187,682 -81,-55 -153,-104 -213,-143 -297,-302 -641,-522 -1023,-709 -474,-232 -1006,-378 -1527,-453 -164,-23 -329,-40 -495,-52zm4125 621c133,147 258,292 381,418 155,158 305,284 464,383l6 55c23,226 27,458 29,685 -239,-9 -498,-76 -792,-218l1 -34c9,-293 10,-585 -23,-877 -16,-138 -38,-276 -66,-412zm2202 166c464,0 840,376 840,840 0,464 -376,840 -840,840 -464,0 -840,-376 -840,-840 0,-464 376,-840 840,-840z"/> <path class="fil4" d="M6308 7737c8,-146 43,-347 170,-559 127,-212 346,-435 712,-626 366,-191 878,-351 1430,-439 552,-88 1143,-104 1741,17 598,121 1204,379 1526,555 323,175 362,268 371,415 9,148 -12,351 -28,484 -16,132 -28,195 -196,181 -168,-15 -493,-106 -959,-190 -466,-84 -1073,-160 -1662,-181 -589,-20 -1159,17 -1535,88 -375,71 -556,176 -738,293 -182,117 -364,247 -497,298 -134,51 -219,24 -272,-36 -52,-60 -71,-153 -63,-300zm3790 -2762c-440,-215 -961,-368 -1504,-446 -196,-28 -395,-46 -596,-58 -485,306 -900,730 -1149,1140 -70,115 -127,229 -173,339 550,-165 1089,-318 1574,-404 609,-109 1133,-114 1630,-49 495,64 964,198 1433,400 -47,-36 -21,-52 -114,-140 -375,-357 -589,-531 -1101,-782zm3061 898c21,204 27,445 30,694 72,-1 142,-7 211,-17 86,-13 169,-33 246,-58 -79,-136 -125,-294 -125,-462l0 -6c-38,-11 -76,-24 -113,-37 -86,-32 -169,-70 -249,-114zm-1909 -821c93,248 151,507 206,768 236,160 523,351 783,486 3,1 6,3 10,5 9,-285 10,-572 -23,-866 -20,-174 -52,-351 -90,-529 -114,-123 -234,-243 -362,-351 -316,-265 -682,-452 -1243,-545 102,89 198,183 285,286 186,218 331,475 434,746z"/> <path class="fil2" d="M11995 11370c-1,380 74,821 108,1150 33,330 26,547 -82,799 -108,252 -315,537 -353,532 -37,-5 95,-301 161,-572 66,-271 66,-518 48,-773 -18,-256 -54,-520 -119,-620 -65,-100 -158,-35 -343,22 -184,57 -459,106 -465,68 -7,-39 255,-166 456,-326 201,-159 341,-351 456,-573 114,-222 202,-474 207,-440 5,34 -73,353 -74,733z"/> <path class="fil5" d="M12148 6928l-111 788c-50,-5 -100,-14 -149,-23l-13 -3 125 -883c42,27 82,57 116,88 11,11 22,22 32,33zm-5745 1071c2,2 3,4 5,6 41,47 98,52 153,41l155 -1093c-75,76 -141,159 -196,250l-6 12 -111 784zm368 -45c20,-12 39,-23 57,-35 42,-26 83,-52 124,-79l169 -1194c-62,36 -123,75 -182,117l-168 1191zm398 -255c59,-36 118,-70 179,-101l161 -1139c-60,25 -119,50 -176,77l-164 1163zm388 -186c57,-19 114,-35 172,-49l161 -1137c-58,18 -116,36 -173,56l-160 1130zm375 -91c56,-9 112,-17 169,-25l164 -1167c-57,13 -114,26 -171,41l-162 1151zm369 -47c55,-5 111,-10 167,-14l169 -1201 -9 1c-53,9 -106,18 -160,28l-167 1186zm365 -25c55,-3 111,-5 166,-6l173 -1230c-55,5 -111,11 -167,18l-172 1218zm363 -10c55,0 110,0 165,1l176 -1248c-55,1 -110,3 -166,6l-175 1241zm361 5l25 1c46,1 93,3 140,5l176 -1252c-54,-3 -109,-5 -164,-6l-177 1252zm360 17c54,4 109,8 163,12l175 -1241c-54,-7 -108,-13 -162,-19l-176 1248zm358 30c54,5 108,11 162,17l171 -1212c-30,-7 -60,-13 -90,-19 -23,-5 -47,-9 -70,-14l-173 1228zm356 40c54,7 108,14 162,22l164 -1165c-53,-16 -105,-31 -158,-45l-168 1188zm355 50c54,9 107,18 161,27l156 -1104c-52,-19 -105,-38 -157,-56l-160 1133zm353 62c54,10 107,20 161,31l145 -1033c-51,-23 -104,-44 -155,-65l-151 1067zm352 71c51,11 102,22 153,33l7 2 134 -947c-51,-27 -103,-52 -155,-77l-139 989z"/> </g> </g> </svg>