<?xml version="1.0" encoding="UTF-8"?>
<svg enable-background="new 0 0 426.978 251.841" viewBox="0 0 426.978 251.841" xmlns="http://www.w3.org/2000/svg">
 <path d="m247.51 222.52 12.129-17.752-1.601-6.905 13.806-2.49 2.056-9.947 25.367-1.691c4.706-9.973-2.147-20.743-18.214-21.104-14.086 3.667-38.606 24.157-38.51 38.652 0.099 14.494 4.967 21.237 4.967 21.237" fill="#d24c30"/>
 <path d="m252.133,219.65c-.195.284-.266.387-.607.7-2.277,2.231-6.136,5.051-3.499-2.161 .049-.132.311-.737.479-1.017l3.55-5.193 3.82-5.59 1.131-1.655 .59-.863 .15-.219 .075-.11c.081-.385-.616,3.262-.325,1.702l-.008-.032-.015-.065-.122-.526-1.027-4.434-.271-1.168-.138-.592-.008-.037c-1.561,2.362 2.11-3.263 1.75-2.683l.076-.014 .15-.027 .303-.054 2.47-.445 5.18-.934 5.458-.983 .087-.016 .044-.008c1.583-1.535-2.105,2.086-1.726,1.693l.036-.174 .072-.349 .145-.699 .292-1.409 .591-2.857 .6-2.902 .304-1.466 .01-.046c-1.783,1.542 2.436-2.157 2.021-1.773l.094-.006 .188-.012 .376-.025 .753-.05 6.094-.405 12.412-.826 3.114-.207 1.556-.104 .388-.026 .194-.013 .097-.006 .049-.003c-.805.552 1.869-1.24-1.791,1.237l.245-.625c.722-1.645 1.052-3.401.961-5.096-.075-3.436-2.019-6.479-4.716-8.501-2.764-1.978-6.112-3.051-9.384-3.476-.808-.165-1.645-.146-2.448-.219-.13-.016-1.418-.079-.589-.055l-1.115.358c-1.479.406-2.885,1.114-4.235,1.681-10.723,5.396-16.525,11.403-16.534,11.281 .034.017-4.148,3.292-8.666,8.71-4.925,5.4-8.228,13.259-6.76,21.011 1.294,12.598 4.61,15.636 3.207,14.839-1.242-.842-4.631-6.903-5.684-15.054 .313,1.318-2.814-9.626 3.274-18.706 5.207-8.794 13.237-15.267 13.139-15.334 .148.213 5.962-6.008 17.66-11.365 1.456-.674 3.096-1.2 4.804-1.721 2.957-.084 3.905.154 6.039.467 3.704.666 7.691,2.084 11.01,4.994 3.378,2.777 5.61,7.453 5.402,12.188-.114,1.165-.22,2.344-.564,3.46-.131.572-.297,1.13-.531,1.659l-.322.808-.163.404-.041.101-.021.05c.397-.25-3.505,2.397-1.877,1.276l-.19.013-6.135.409-12.239.815-6.009.401-.742.049c-.456.376 3.769-3.303 1.978-1.722l-.01.045-.019.091-.038.182-.074.363-.299,1.446-.592,2.862-.582,2.817-.287,1.39-.143.69c-.791.778 1.756-1.681-1.774,1.756l-.044.008-.086.016-.173.031-.344.062-5.383.971-5.107.921-2.437.439-.149.027-.074.014c3.491-5.304.973-1.449 1.754-2.624l.009.037 .068.294 .135.584 .268,1.152 1.014,4.373 .061.26 .029.129 .008.033c.077-.366-.625,3.305-.338,1.764l-.037.055-.297.434-.581.852-1.116,1.633-3.769,5.516-3.509,5.129z" fill="#231f20"/>
 <path d="m248.849,199.351c1.652-10.691 13.465-23.328 23.06-27.897 3.978-2.148 10.589-5.188 15.122-4.387 5.183.822 7.027,4.139 3.009,7.588-5.354,4.382-14.19,5.721-19.858,9.768-4.328,2.789-13.726,6.279-16.477,10.749-1.701,2.223 1.813,9.284.481,10.217-2.352,2.202-4.815-2.112-5.065-4.4" fill="#f89d6f"/>
 <path d="m204.3 227.44-17.4-18.582-0.381-8.684-14.681 0.184-4.958-11.502-26.14 3.809c-7.645-10.923-3.831-25.472 12.313-29.611 15.303 1.171 46.026 20.19 50.122 37.668s1.125 26.718 1.125 26.718" fill="#d24c30"/>
 <path d="m202.221,221.58c.268.289.366.393.631.852 1.93,3.091 4.131,8.086-3.25,3.34-.136-.087-.745-.53-1.015-.789l-4.916-5.25c-1.482-1.583-3.263-3.485-5.291-5.652l-3.222-3.441-.053-.057c-.307-.719.649,1.57-.695-1.62l-.001-.039-.007-.156-.014-.313-.028-.632-.056-1.286-.116-2.657-.121-2.765-.031-.708-.004-.089c1.118,1.049-2.505-2.409 2.505,2.339h-.044l-.179.002-.358.004-1.447.018-6.017.074-6.341.079-.203.003h-.051c2.051,1.338-2.853-1.818-2.353-1.515l-.04-.093-.161-.374-.323-.75-.651-1.511-1.32-3.063-1.341-3.112-.678-1.572-.34-.79-.085-.198c-.577-.343 4.976,2.763 2.599,1.454l-.053.008-.107.016-.427.062-6.911,1.006-14.075,2.049-3.532.514-.882.128-.11.016c.498.237-4.548-1.977-2.427-1.067l-.033-.052-.132-.209-.262-.419-1.032-1.683c-1.235-2.336-2.104-4.868-2.526-7.485-.783-5.25.619-10.795 3.756-14.808 3.091-4.074 7.406-6.621 11.589-7.994 5.826-1.764 8.985.538 12.722,1.388 13.922,5.084 21.391,11.552 21.492,11.354-.072.08 5.299,3.536 11.096,9.947 2.919,3.143 5.922,7.117 7.892,11.781 1.897,4.855 2.339,9.601 2.737,14 1.067,14.987-2.313,19.162-2.02,17.462 .047-1.501.802-8.879-.782-17.693-.373,1.125-.132-10.372-7.182-18.413-6.683-8.37-16.396-14.233-16.318-14.215-.017.197-7.36-5.774-20.144-10.064-1.581-.469-3.267-.944-4.956-1.166l-1.282-.181-.324-.047-.081-.012c.347-.032-.834.062.768-.073l-.04.013-.159.05-.637.2c-.844.284-1.747.481-2.558.886-3.326,1.389-6.594,3.561-8.554,6.79-2.035,3.143-2.793,7.22-1.883,11.137 .389,1.967 1.193,3.887 2.297,5.645l.411.663 .204.333 .026.042c.526.247-4.515-1.952-2.354-1.027l.108-.016 .217-.031 1.739-.253 3.482-.508 13.878-2.022 3.423-.499 1.7-.248 .847-.124 .422-.062 .211-.031 .053-.008c-.554-.331 5.038,2.803 2.68,1.502l.042.098 2.664,6.18 1.302,3.021 .642,1.49 .16.371 .08.185 .04.092c-1.025-.658 2.322,1.54-2.292-1.465h.05l.801-.01 6.253-.078 5.934-.074 1.427-.018 .177-.002c-2.238-2.125 3.102,2.89 2.549,2.394l.002.044 .004.088 .016.352 .03.698 .12,2.728 .115,2.621 .056,1.268 .027.623 .006.155 .003.077c.143.36-1.263-2.991-.654-1.56l.026.028 .21.224 3.179,3.395 5.221,5.576 4.86,5.184z" fill="#231f20"/>
 <path d="m143.3 185.68c-3.581-29.75 33.89-10.609 42.59 2.052-5.551 0.468-11.192-6.23-17.361-6.758-5.194-0.496-24.003 7.026-25.229 4.706" fill="#f89d6f"/>
 <path d="m299.857,98.228c4.879-5.554 13.392-18.857 16.29-18.96s1.859,6.603 3.982,8.401 7.571,3.678 7.51,7.226-13.763,11.998-16.302,14.487-15.59,17.029-18.133,17.281c-2.546.253-9.425-8.937-9.29-11.56s10.309-9.667 15.943-16.875z" fill="#d24c30"/>
 <path d="m303.439,96.677c-.148.189-.202.259-.47.453-1.815,1.449-4.726,2.864-2.697-1.979 .036-.089.229-.491.353-.679 .265-.198 3.609-4.955 9.143-11.925 1.938-1.546 1.882-3.955 6.842-4.982 3.045.714 3.142,3.334 3.46,4.358 .305,1.358.47,2.703.835,3.613 .022,1.206 3.557,2.428 5.834,4.422 1.206,1.044 2.653,2.643 2.68,4.986-.521,2.8-1.855,3.512-2.87,4.746-4.378,4.16-9.331,7.249-13.382,10.453-3.528,3.429-7.054,7.424-10.058,10.398-3.094,3.083-5.52,5.556-8.02,7.2-1.569,1.38-4.35.07-4.505-.281-.668-.474-1.016-.737-1.016-.736-.015-.036-3.093-2.721-5.61-7.378-.564-1.214-1.439-2.372-1.362-4.674 .788-2.268 1.947-2.84 2.994-3.988 2.161-1.981 4.401-3.776 6.389-5.452 12.636-12.133 8.725-6.473 1.092,1.683 1-.556-5.569,4.659-7.627,8.396 1.782,5.012 7.615,9.936 7.234,9.279-.029.005.347.236.312.165-.074.331-.054.097 1.101-.658 1.782-1.368 4.308-3.841 7.23-6.82 3.087-2.999 5.935-6.602 10.302-10.462 4.264-3.261 9.073-6.345 12.822-10.081 2.087-2.109 1.653-2.378-.358-4.322-1.644-1.788-5.136-1.817-6.686-6.061-.506-2.738-1.634-6.133-1.183-5.287-.391.174-2.752,2.466-3.821,3.908-5.237,6.626-8.699,11.505-8.958,11.705z" fill="#231f20"/>
 <path d="m366.195,71.583c4.337.067 13.388-1.333 14.65.051 1.264,1.39-1.932,3.7-1.777,5.507 .154,1.806 1.676,5.286.193,6.75-1.485,1.463-10.725-1.738-12.817-1.942s-13.561-.521-14.734-1.67c-1.175-1.15-.295-8.417.839-9.455 1.136-1.039 8.312,1.015 13.646.759z" fill="#d24c30"/>
 <path d="m368.346,73.32c-.147.006-.195.014-.398-.07-1.453-.478-3.147-1.743-.206-3.339 .051-.027.303-.137.438-.162 .209.045 3.6-.327 9.095-.5 1.229.482 3.174-1.177 5.558,2.476-.011,3.554-1.832,4.108-1.94,5.167-.193.071.536,2.386.736,4.2 .048.986.243,2.33-.873,3.758-1.523,1.47-3.127,1.164-3.966,1.16-3.742-.431-7.164-1.591-10.043-2.195-2.814-.331-6.122-.369-8.65-.615-2.68-.262-4.66-.349-6.704-1.068-2.985-2.618-1.507-3.526-1.973-3.549 .024-.02-.14-2.554.732-5.689 .301-.869.277-1.506 1.253-2.821 1.478-1.24 2.735-.738 3.532-.724 1.823.249 3.475.655 5.021.98 10.394,1.372 6.381,2.17-.458,1.933 .978.184-5.104-.543-5.955-.235-.997,2.829-.596,7.342-.489,6.82 .362.36-.542-.008.179.14 1.181.294 3.302.523 5.785.711 2.617.276 5.204.127 8.938.717 3.147.734 6.52,1.829 9.419,2.034 1.692,1.057-.196-1.905.249-6.979 2.13-4.793 2.782-1.841-.46-2.648-4.962.17-8.641.538-8.82.498z" fill="#231f20"/>
 <path d="m378.523,72.909c11.032-1.544 22.093,7.205 23.851,10.084-4.38-.125-19.15-3.188-24.748-.56-2.23-3.044-.256-6.805.897-9.524z" fill="#d24c30"/>
 <path d="m381.097,74.535c-.099-.003-.134-.004-.265-.094-.824-.468-2.529-1.627-.127-3.344 .045-.027.263-.125.375-.138 .258-.414 12.174.639 20.41,8.435 .521.484 1.033.953 1.529,1.535 .246.255.503.605.748.959l.092.131 .022.033c-.697,1.211 1.577-2.688-1.56,2.72l-.017-.001-.066-.004-.266-.015-.529-.032c-1.357-.112-2.613-.272-3.829-.424-2.428-.308-4.659-.588-6.569-.772-3.823-.399-6.308-.371-6.306-.375 .008.02-1.639-.148-3.742-.034-.539.009-1.062.099-1.617.176-.294.021-.517.127-.787.185l-.397.101-.024.006-.004.001-1.569-.401-.004-.009-.009-.017-.033-.068-.067-.136-.132-.273c-.839-1.41-.794-3.126-.526-4.375 3.302-7.915 2.606-3.91 1.942.355 .015-.108.008.49.168,1.328 .143.395.257.872.601,1.283l.207.335 .002.002c-.764-.194 1.711.439-1.712-.435l.01-.004 .019-.008 .036-.016 .073-.032 .148-.064 .301-.129c.404-.175.822-.356 1.228-.449 3.298-.945 6.504-.832 6.507-.875-.002.005 2.661.017 6.532.432 1.937.196 4.185.48 6.56.779 1.182.146 2.422.302 3.566.374l.213.013 .106.007 .054.003 .026.001c-.7,1.212 1.587-2.711-1.567,2.717l-.006-.008-.193-.26c-.096-.166-.334-.389-.496-.584-.381-.399-.794-.818-1.253-1.203-7.439-6.836-17.741-7.695-17.803-7.332z" fill="#231f20"/>
 <path d="m336.812,73.18c5.796-2.051 17.247-8.392 19.502-7.164s-1.029,5.887-.074,8.221c.956,2.333 4.425,6.228 3.06,8.913-1.365,2.687-14.981,2.978-17.851,3.74s-18.243,6-20.285,5.047-3.889-11.085-2.811-13.03 11.473-2.752 18.459-5.727z" fill="#d24c30"/>
 <path d="m340.221,73.748c-.189.08-.252.114-.543.133-2.022.251-4.769-.064-1.383-3.048 .062-.051.361-.282.529-.376 .289-.044 4.673-2.21 11.743-5.108 1.904-.074 3.479-2.778 7.697.143 1.518,4.06-.598,5.732-.392,7.52-.246.795 1.763,3.249 2.739,5.59 .494,1.228 1.169,2.849.456,4.821-1.099,2.512-2.981,2.517-4.107,3.008-5.08,1.312-10.038,1.418-14.359,2.045-3.94.999-8.291,2.539-11.747,3.466-3.626.97-6.357,1.824-9.151,1.875-4.409-1.724-3.139-3.667-3.66-3.453 .024-.027-1.242-3.265-1.433-7.762 .01-1.221-.236-2.177.418-4.035 1.192-1.868 2.839-1.938 3.945-2.308 2.474-.6 4.864-.933 7.053-1.318 14.398-3.625 9.273-.872.163,1.99 .245-.035-.994.297-2.967.821-1.54.417-5.695,1.441-5.599,2.168-.301,4.638 2.132,10.495 2.104,9.9-.024-.099.153.427.225.382 .079.072-.472.084.674.008 1.814-.211 4.729-.963 8.126-1.943 3.561-.915 7.072-2.426 12.062-3.424 4.521-.578 9.43-.764 13.609-1.981 1.191-.574 1.367-.345 1.347-.838 .064-.516-.085-1.403-.591-2.352-.628-2.112-2.945-3.24-2.836-7.232 1.411-6.635 1.919-4.919-2.67-3.69-6.567,2.712-11.19,4.956-11.452,4.998z" fill="#231f20"/>
 <path d="m374.531,33.64c6.975-.436 21.271-3.803 23.532-1.755s-2.475,6.13-1.921,8.986 3.581,8.208 1.447,10.723c-2.137,2.516-17.514-1.421-20.908-1.485-3.395-.061-21.861.874-23.943-.808s-1.894-13.361-.246-15.155c1.65-1.797 13.519.571 22.039-.506z" fill="#d24c30"/>
 <path d="m378.065,35.078c-.232.028-.314.043-.633-.01-2.26-.258-5.209-1.327-.518-3.306 .085-.036.492-.187.705-.231 .323.067 5.835-1 14.477-1.95 2.143.486 4.592-1.893 8.109,2.426 .582,4.526-2.102,6.029-2.272,8.006-.207,1.092 1.383,4.268 1.934,7.073 .195,1.491.681,3.412-.762,5.409-2.201,2.207-3.858,1.489-5.345,1.713-5.892-.209-11.377-1.599-16.34-2.256-4.721-.12-9.92.197-14.016.134-4.26-.062-7.575-.013-10.535-.786-4.138-2.823-2.448-4.546-3.014-4.459-.008-.033-.667-3.885.038-8.938 .273-1.332.252-2.517 1.311-4.325 2.118-2.003 3.547-1.156 4.992-1.358 2.868.121 5.621.478 8.136.721 8.488.8 11.067.403 10.229.95-.839.495-5.306,1.138-10.66,1.007 .279.034-1.187.012-3.513-.049-1.781-.058-6.794-.188-6.9.506-1.463,5.462.042,12.321.112,11.835 .005-.047.071.351.229.597 .135.211-.243-.003 1.041.319 2.104.34 5.53.428 9.574.418 4.182.104 8.571-.43 14.268,0 5.143.769 10.562,2.063 15.645,2.107 1.412-.099 2.065-.128 1.977-.476 .256-.51.276-1.614-.066-2.798-.293-2.557-2.343-4.311-1.696-8.525 1.013-2.846 2.701-5.547 2.245-5.58 .476-.11-2.979-.382-4.611-.095-8.085.907-13.826,1.983-14.141,1.921z" fill="#231f20"/>
 <path d="m396.471,33.529c17.482,7.851 28.726,31.761 28.729,37.262-5.807-4.652-21.171-21.922-33.156-22.121-.502-6.195-.755-9.296 4.427-15.141z" fill="#d24c30"/>
 <path d="m399.085,36.928c-.149-.093-.196-.142-.356-.324-1.104-1.133-2.842-3.496 1.579-2.943 .088.003.449.104.608.196 .736-.319 16.492,11.191 23.599,28.553 .907,2.146 1.784,4.254 2.273,6.696l.128,1.008 .048.513 .011.128 .003.032c-5.779,2.778-1.614.76-2.909,1.375l-.041-.035-.165-.139-1.292-1.107-2.386-2.184c-3.069-2.875-5.901-5.497-8.419-7.635-5.012-4.31-8.717-6.504-8.702-6.523-.011.041-2.295-1.66-5.672-3.155-.84-.406-1.758-.698-2.717-.966-.479-.178-.968-.241-1.463-.31l-.749-.117-.378-.061-.047-.008-.013-.002-1.229-1.153v-.006l-.001-.026-.003-.106-.006-.211c-.07-2.221-.125-4.6.356-6.731 2.278-7.11 5.251-7.527 4.691-6.982-.095.766-2.506,3.614-2.778,7.536 .031-.204-.103.846.007,2.635 .061.897.155,1.979.299,3.179l.049.45 .003.029 .002.014v.007l-1.346-1.262 .062.004 .127.008 .255.017 1.04.073c.713.02 1.411.132 2.092.31 5.588,1.18 10.154,4.459 10.166,4.383-.002-.004 3.856,2.431 8.911,6.818 2.539,2.173 5.379,4.841 8.386,7.641l2.289,2.07 .579.49 .29.247 .036.031c-1.292.624 2.918-1.375-2.892,1.403l-.003-.019-.01-.075-.02-.148c-.038-.385-.074-.794-.22-1.291-.449-1.889-1.228-3.915-2.111-5.854-6.85-16.281-21.422-26.859-21.961-26.473z" fill="#231f20"/>
 <path d="m337.03,35.493c7.914-2.668 23.751-11.611 26.657-9.406 2.904,2.204-1.888,9.321-.812,13.159 1.073,3.838 5.369,10.441 3.313,14.598s-20.258,3.18-24.153,4.096c-3.891.912-24.879,7.676-27.521,5.934s-4.23-18.162-2.624-21.165 15.557-3.191 25.14-7.216z" fill="#d24c30"/>
 <path d="m341.524,35.497c-.27.112-.362.157-.748.228-2.711.59-6.484.686-1.305-2.764 .094-.062.546-.353.788-.472 .423-.004 6.653-3.228 16.715-7.164 1.307-.438 2.634-.906 4.307-1.12 1.459-.813 5.236,1.15 4.886,3.513 .203,4.018-1.555,6.663-1.756,9.568-.357,2.188 1.88,5.524 2.895,8.811 .519,1.743 1.173,3.513.999,5.682 .215,2.001-1.803,4.908-3.851,5.279-7.326,2.295-14.279,1.659-20.596,2.269-5.768,1.114-11.887,3.315-16.854,4.452-5.356.945-8.659,2.971-13.615,1.242-2.74-3.669-2.088-5.093-2.394-5.191-.021-.018-1.062-4.575-1.114-10.788 .01-1.568.018-3.21.338-5.03-.054-2.204 2.839-4.016 4.331-4.118 3.506-.926 6.934-1.296 10.04-1.806 10.5-1.656 13.394-3.239 12.528-2.382-.879.783-6.068,2.889-12.593,4.231 .347-.045-1.437.341-4.261.943-2.31.805-8.097.972-7.525,4.035-.506,7.736 1.74,15.76 1.791,15.541-.081-.439.612,2.645 1.351,2.047 2.424.046 6.739-.947 11.571-2.195 5.07-1.098 10.198-3.4 17.189-4.307 6.312-.473 13.606-.11 19.18-2.212 1.811-.531 1.404-4.386.204-7.177-.849-3.107-3.363-5.743-2.791-10.158 .52-3.454 2.004-6.651 1.68-8.502 .589-1.157-2.881-.292-5.08.53-9.436,3.716-15.905,7.008-16.31,7.015z" fill="#231f20"/>
 <path d="m396.81 115.26c4.076 3.864 13.705 10.494 13.897 12.895s-4.53 1.755-5.698 3.573-2.256 6.397-4.731 6.459-8.938-11.022-10.776-13.049c-1.843-2.023-12.52-12.374-12.802-14.477s5.849-8.104 7.684-8.075 7.167 8.234 12.426 12.674z" fill="#d24c30"/>
 <path d="m397.613,118.356c-.141-.119-.192-.158-.32-.39-.989-1.556-1.761-3.979 2.106-2.6 .068.025.379.165.523.26 .156.206 3.646,2.864 8.836,7.336 1.099,1.595 3.05,1.533 3.654,5.753-2.031,4.401-5.041,2.82-5.802,3.906-.352.142-1.328,3.053-2.599,4.99-.756.989-2.023,2.688-4.658,2.188-1.971-.838-2.387-1.74-3.286-2.62-3.001-3.506-5.272-7.36-7.587-10.482-2.482-2.714-5.446-5.572-7.624-7.938-2.269-2.451-4.076-4.389-5.31-6.355-1.472-3.46.771-4.685.317-4.56 .022-.097 1.755-2.741 5.111-5.144 .867-.502 1.701-1.488 3.763-1.417 2.165.801 2.246,1.685 3.187,2.546 1.456,1.735 2.726,3.5 3.927,5.084 8.757,10.046 4.415,7.132-1.67,1.093 .56.798-3.813-4.392-5.858-5.903-3.076,1.626-6.284,6.655-5.75,6.192 .21.507-.603-.703.476.947 .979,1.366 2.783,3.36 4.963,5.668 2.209,2.445 4.807,4.686 7.713,8.174 2.406,3.363 4.649,7.051 7.317,10.076 2.141,3.559 1.584-1.244 6.002-5.735 2.45-.892 4.721-1.801 3.855-1.155 .103.068-1.668-1.964-2.646-2.762-4.847-4.147-8.494-6.963-8.64-7.152z" fill="#231f20"/>
 <path d="m407.22 127.37c11.775 8.959 14.683 26.892 13.742 31.01-3.56-4.508-12.134-20.14-21.095-22.402 0.684-4.725 3.922-7.671 7.353-8.608z" fill="#d24c30"/>
 <path d="m408.188,130.538c-.087-.097-.126-.122-.197-.295-.505-1.085-1.192-3.371 2.2-2.515 .06.02.35.113.45.208 .539-.129 10.568,10.967 12.026,25.167 .196,1.775.386,3.443.052,5.555l-.016.097c-1.397.32 3.124-.683-3.136.724l-.012-.016-.024-.033-.099-.131-.196-.262-.39-.522-.718-1.021-1.351-1.984c-1.741-2.591-3.369-4.954-4.842-6.906-2.916-3.942-5.229-6.108-5.213-6.121-.019.034-1.363-1.583-3.501-3.236-.526-.438-1.119-.814-1.75-1.17-.308-.208-.632-.37-.97-.493l-.505-.215-.255-.111-.127-.056-.032-.014-.016-.007c-1.848-2.759-.512-.768-.924-1.385l.002-.005 .003-.011 .022-.083c.405-1.799 1.224-3.496 2.239-4.795 3.883-4.157 6.147-3.265 5.567-3.004-.366.464-2.634,1.746-4.028,4.27 .129-.098-.337.544-.714,1.725-.233.573-.35,1.307-.476,2.093l-.025.147-.007.037-.001.004-1.017-1.523 .012.003 .023.007 .092.027 .373.11 .764.229c.531.135 1.014.361 1.496.594 3.938,1.825 6.783,4.937 6.797,4.892-.004,0 2.428,2.425 5.402,6.458 1.489,2.009 3.133,4.414 4.847,6.962l1.308,1.906 .668.927 .336.451 .021.028 .01.014c-1.399.32 3.149-.695-3.136.72l.006-.054 .012-.108 .028-.215c.147-1.24.005-2.879-.185-4.398-1.499-12.975-10.497-22.869-10.893-22.666z" fill="#231f20"/>
 <path d="m364.19 95.703c7.404 1.692 23.301 2.592 25.063 5.412s-4.365 5.595-4.619 8.725 1.352 9.609-1.607 11.562-17.86-6.854-21.387-7.962c-3.521-1.109-23.059-5.813-24.741-8.196-1.686-2.383 1.906-14.433 4.147-15.789s13.939 4.746 23.144 6.248z" fill="#d24c30"/>
 <path d="m367.445,98.136c-.25-.042-.34-.052-.655-.198-2.267-.919-5.043-2.832.431-3.319 .1-.009.568-.031.804-.012 .314.168 6.389.76 15.647,2.421 2.102,1.106 5.284-.423 7.614,4.767-.592,4.813-3.921,5.602-4.686,7.637-.534,1.203.214,4.941-.04,8.021-.225,1.607-.35,3.746-2.436,5.325-2.93,1.387-4.313.24-5.94-.017-6.025-2.021-11.312-5.125-16.294-7.326-4.924-1.583-10.393-2.841-14.642-4.162-4.402-1.362-7.884-2.343-10.668-3.996-3.42-3.862-1.248-5.343-1.835-5.363-.004-.038.41-4.242 2.615-9.302 .678-1.303.981-2.553 2.645-4.098 2.526-1.158 4.042-.116 5.501.205 2.958.982 5.706,2.184 8.259,3.197 17.552,5.582 10.35,4.86-.99,1.747 .279.121-1.229-.36-3.636-1.133-1.899-.624-6.866-2.233-7.492-1.629-3.195,5.291-3.601,12.912-3.384,12.437 .011-.03-.019.367.072.705 .033.217-.102.078 1.135.761 2.115,1.003 5.653,2.14 9.868,3.371 4.311,1.383 9.078,2.199 14.818,4.361 5.118,2.364 10.356,5.346 15.676,6.988 1.429.375 2.435.516 2.394.134 .465-.443.798-1.632.797-2.966 .435-2.767-1.159-5.216.677-9.328 1.867-2.661 4.487-4.91 3.994-5.226 .332-.213-3.141-1.405-4.944-1.653-8.708-1.541-14.996-2.189-15.305-2.349z" fill="#231f20"/>
 <path d="m316.22,91.526c8.627-1.147 26.277-6.61 29.103-4.228s-2.984,7.916-2.265,11.456 4.538,10.002 1.928,13.348-21.692-.278-25.895-.066-30.89,3.397-33.485,1.464c-2.599-1.935 1.326-17.048 3.341-19.446s16.739-.443 27.273-2.528z" fill="#d24c30"/>
 <path d="m320.768,92.552c-.295.057-.397.083-.802.069-2.851.008-6.701-.726-.785-3.255 .107-.045.623-.25.892-.321 .421.064 7.394-1.832 18.319-3.757 1.395-.192 2.836-.384 4.51-.349 1.263-.412 5.104,1.062 4.917,3.992-.302,4.39-3.105,6.874-2.977,9.135 .191,2.405 2.306,5.872 2.714,9.806 .208,1.897.244,4.785-2.652,6.452-2.298.955-4.13.901-6.02.977-7.298.091-14.674-1.55-20.722-1.417-6.586.595-12.818,1.23-18.153,1.596-5.389.344-9.729.63-13.249.182-.705-.085-2.345-.401-3.022-1.678-.509-.956-.603-1.648-.659-2.135-.142-1.035-.069-1.474-.095-1.494-.067-.069.16-5.044 2.184-11.1 .511-1.534 1.047-3.125 1.934-4.822 .84-2.354 4.2-2.747 5.57-2.735 3.678-.193 7.227.007 10.463.059 10.936.202 14.178-.664 13.135.019-1.047.618-6.682,1.73-13.526,1.964 .359.015-1.514.096-4.487.206-2.421.372-8.438-.376-8.815,2.229-3.021,7.457-3.166,15.951-2.802,15.425-.029,0 .086.405.143.529-.428-.239.308.104 1.886.147 2.856.166 7.229-.062 12.418-.444 5.24-.373 11.211-1.03 17.925-1.578 7.091.243 13.755,1.638 20.581,1.459 8.372.957 2.637-6.646 1.693-14.238 .685-4.04 3.247-7.009 2.977-8.506 .86-.563-3.438-.583-5.593-.104-10.295,1.831-17.496,3.746-17.902,3.687z" fill="#231f20"/>
 <path d="m286.537,67.379c7.798-8.841 21.384-30.066 26.036-30.189s3.027,10.626 6.444,13.548 12.181,6.02 12.104,11.713-22.021,19.051-26.081,23.01-24.923,27.094-29.005,27.463c-4.085.37-15.188-14.49-14.987-18.699s16.489-15.36 25.489-26.846z" fill="#d24c30"/>
 <path d="m291.43,64.241c-.235.302-.32.412-.705.751-2.632,2.455-6.754,5.282-2.745-1.922 .072-.133.434-.743.64-1.038 .426-.312 5.822-7.987 14.644-19.049 1.15-1.36 2.344-2.77 3.757-4.164 1.591-1.149 2.422-3.381 6.41-3.317 3.81,1.185 3.852,4.463 4.434,6.286 .451,2.124.741,4.216 1.356,5.97 .729,2.685 6.169,4.363 9.648,7.492 1.802,1.59 3.938,3.792 4.008,7.035-.432,3.729-2.586,5.12-4.139,6.965-6.898,6.541-14.816,11.424-21.422,16.59-5.861,5.638-11.377,11.903-16.228,16.669-4.931,4.888-8.88,8.87-12.697,11.309-2.56,1.907-5.646-.081-6.128-.565-.97-.719-1.423-1.128-1.434-1.124-.03-.016-4.777-4.203-8.865-11.439-.915-1.929-2.251-3.593-2.252-6.798 .955-3.193 2.832-4.353 4.452-6.111 3.389-3.19 6.945-6.108 10.083-8.845 10.618-9.285 13.022-12.878 12.488-11.401-.595,1.412-5.137,7.185-11.555,13.229 .352-.298-1.384,1.371-4.185,4.005-2.309,2.429-7.805,6.703-8.423,9.84 3.18,9.068 12.343,16.592 12.014,15.908-.014-.018.434.326 1.021.546 .115.278.729-.078 2.432-1.318 2.962-2.246 7.012-6.191 11.726-10.965 4.922-4.752 9.648-10.667 16.435-16.6 6.801-5.158 14.545-10.029 20.691-16.16 3.668-3.158 2.668-5.702-.914-8.506-2.824-2.899-8.384-3.32-10.331-9.209-1.07-4.057-1.754-9.747-3.005-9.318-1.656.54-4.929,4.181-6.832,6.519-8.462,10.66-13.96,18.417-14.379,18.735z" fill="#231f20"/>
 <path d="m376.306,138.033c2.764,3.659 9.609,10.307 9.452,12.246s-5.606.492-6.777,1.778c-1.164,1.286-2.438,3.585-4.426,3.287s-4.147-8.583-5.36-10.459-8.418-11.638-8.372-13.355 5.712-5.64 7.178-5.36c1.463.282 4.671,7.582 8.305,11.863z" fill="#d24c30"/>
 <path d="m376.257,140.812c-.096-.111-.131-.153-.188-.364-.508-1.437-.574-3.588 2.521-2.198 .057.025.293.161.397.253 .101.177 2.47,2.74 6.001,6.937 .802,1.39 1.918,1.656 2.534,4.848-.455,2.69-2.672,2.653-3.37,2.824-.948.088-1.781.094-2.56.116-.755-.198-1.402.636-1.632-.294 .405.941-.722,1.32-1.201,2.167-.667.704-1.537,1.658-3.122,1.977-1.455.579-3.723-1.257-3.887-1.992-2.053-3.412-2.86-7.088-4.149-9.383-1.786-2.6-3.611-5.152-5.055-7.349-1.477-2.358-2.615-3.738-3.368-6.2 .077-3.353 1.635-3.322 1.379-3.528 .037-.005 1.823-1.865 4.895-3.266 .666-.156 1.901-1.172 3.643-.131 1.19.991 1.389,1.688 1.915,2.504 .891,1.578 1.647,3.146 2.362,4.561 5.457,9.121 2.309,6.391-1.796.854 .321.668-2.471-3.854-3.903-5.479-1.666.551-5.604,4.18-4.867,3.821-.044.335-.353-.092-.012.379 .567,1.155 1.663,2.951 3.079,5.059 1.429,2.179 3.121,4.4 5.025,7.369 1.625,3.289 2.419,6.722 3.969,9.012-.152.422.328.416 1.428-.803 .674-.633.558-1.111 2.175-2.223 1.562-.727 2.357-.541 3.246-.632 1.668.29 3.333-.889 2.193.48 .002-.051-1.083-1.75-1.778-2.542-3.283-3.886-5.779-6.611-5.874-6.777z" fill="#231f20"/>
 <path d="m384.04 151.21c1.084 12.494-8.058 25.183-10.924 26.542 0.704-4.656 6.715-16.345 3.268-23.632 1.612-1.906 3.074-4.597 7.656-2.91z" fill="#d24c30"/>
 <path d="m382.315,153.881c.007-.102.009-.139.103-.271 .483-.856 1.719-2.49 3.346-.019 .026.046.116.267.125.378 .312.275-.725,12.005-7.602,20.971-.82,1.134-1.714,2.214-2.808,3.252-.33.265-.518.503-.969.777l-.623.38c2.247,1.675-3.087-2.267-2.533-1.869l.003-.016 .008-.033 .015-.065 .029-.13 .06-.259c.164-.678.31-1.395.493-2.012 .74-2.443 1.504-4.598 2.029-6.454 1.127-3.705 1.432-6.149 1.406-6.144-.111.019.517-1.612.421-3.68 .139-1.092-.09-2.195-.354-3.339 .079-.832-.412.627.14-2.096l.682-.691c.463-.48.985-.955 1.53-1.357 4.437-2.315 5.636.192 5.068-.054-.469.181-2.554.02-3.872,1.629 .094-.03-.29.321-.906,1.206l-.537.739-.15.206-.019.026-.01.013c.082-.631-.188,1.417.184-1.415l.002.004 .003.008 .024.066 .05.133 .203.551c.274.753.564,1.578.843,2.414 .601,3.395.122,6.742.155,6.743 .009-.007-.406,2.742-1.588,6.536-.568,1.902-1.322,4.08-1.984,6.319l-.383,1.608-.013.051-.006.025c.549.416-4.796-3.563-2.531-1.881l.006-.005 .046-.036 .093-.066c.069-.053.117-.048.223-.154l.571-.511c.796-.779 1.56-1.762 2.285-2.749 6.138-8.193 7.028-18.596 6.742-18.729z" fill="#231f20"/>
 <path d="m351.54 114.67c5.608 2.646 18.081 6.162 19.035 8.706s-4.348 3.656-5.045 6.088-0.446 7.841-3.105 8.863-13.087-8.575-15.71-10.072-17.384-8.668-18.34-10.851 3.798-11.086 5.792-11.762 10.309 6.216 17.373 9.028z" fill="#d24c30"/>
 <path d="m353.576,117.483c-.191-.078-.261-.102-.481-.288-1.622-1.222-3.368-3.436 1.159-3.138 .082.005.464.051.647.105 .223.187 4.915,1.718 12.011,4.666 1.539,1.313 4.176.45 5.507,5.287-1.273,4.303-4.253,4.148-5.014,5.578-.465.593-.55,3.84-1.245,6.285-.447,1.287-.999,3.103-3.185,4.034-2.88.398-3.599-.711-4.91-1.231-4.462-2.681-8.147-6.057-11.702-8.634-3.579-2.065-7.745-4.05-10.885-5.828-3.274-1.849-5.856-3.23-7.853-5.038-2.278-3.623-.305-4.879-.771-4.867 .018-.044 1-3.404 3.688-7.081 .782-.945 1.167-1.894 3.027-2.919 2.422-.359 3.311.746 4.452,1.27 2.179,1.324 4.14,2.767 5.979,4.034 12.881,7.592 7.262,5.918-1.281,1.533 .2.147-.922-.487-2.707-1.507-1.36-.809-5.19-2.941-5.492-2.542-3.082,3.283-4.75,9.508-4.411,8.999 .298.498-.797-.068.658,1.081 1.487,1.135 4.1,2.649 7.229,4.354 3.196,1.85 6.781,3.304 11.052,6.053 3.682,2.77 7.338,6.014 11.228,8.242 3.167,2.764 1.827-3.192 4.65-8.787 5.567-4.242 4.502-2.679.384-5.119-6.617-2.732-11.516-4.363-11.734-4.542z" fill="#231f20"/>
 <path d="m315.289,109.767c6.924-1.319 20.945-6.542 23.339-4.744 2.395,1.797-2.053,6.537-1.311,9.366 .746,2.828 4.127,7.88 2.168,10.704s-17.552.764-20.94,1.127-26.365,4.562-28.554,3.117 1.842-14.251 3.363-16.283 13.513-1.121 21.935-3.287z" fill="#d24c30"/>
 <path d="m319.154,110.704c-.24.061-.324.085-.661.081-2.388.058-5.605-.599-.94-3.212 .084-.046.493-.258.709-.331 .354.037 5.957-1.855 14.918-3.928 1.176-.194 2.329-.448 3.814-.437 1.244-.577 4.871,1.727 4.11,4.064-.563,3.269-2.341,5.78-2.047,7.037 .652,2.225 2.346,4.831 2.774,8.365 .364,1.579-.847,4.837-3.159,5.295-1.775.557-3.288.609-4.837.698-6.003.367-12.154-.86-17.002-.083-5.397.846-10.481,1.665-14.853,2.246-4.428.552-7.951,1.029-10.937.856-.562-.055-2.104-.123-2.863-1.445-.486-.926-.521-1.547-.557-1.962-.078-.902-.003-1.258-.023-1.28-.059-.077.377-4.199 2.219-9.109 .453-1.247.945-2.546 1.624-3.91 .313-.56.743-1.67 1.959-2.226 .949-.431 1.693-.491 2.484-.625 3.059-.35 5.975-.317 8.642-.401 8.994-.26 11.631-1.054 10.822-.387-.815.619-5.41,1.84-11.027,2.383 .297,0-1.241.16-3.676.401-2.088.48-6.778.017-6.771,2.451-2.526,6.176-3.027,13.047-2.69,12.542-.035.004.082.342.029.25-.671-.499-.071-.111 1.229-.203 2.33-.025 5.907-.431 10.148-1.017 4.265-.577 9.198-1.398 14.601-2.223 6.027-.528 11.459.545 17.107.152 1.313-.085 2.789-.278 3.531-.627 .25.206.582-.902.372-1.911-.296-2.39-1.897-4.492-2.674-7.917-.064-4.11 2.156-6.246 1.98-7.695 .912-.209-1.781-.239-3.835.263-8.322,1.945-14.186,3.878-14.52,3.845z" fill="#231f20"/>
 <path d="m286.39 110.37c11.355-11.002 48.2-27.143 60.685-7.847 4.719 7.054 8.287 23.753 3.196 28.861-10.672 10.118-42.264 6.21-55.116 1.624-13.835-4.783-9.239-12.537-9.455-24.303" fill="#d24c30"/>
 <path d="m291.583,109.299c-.255.187-.347.254-.754.405-2.486,1.122-7.321,2.968-3.012-3.561 .087-.113.525-.614.779-.828 .353-.311 7.273-5.711 19.092-10.132 5.899-2.151 13.078-4.156 21.182-4.081 7.902-.229 17.76,4.014 21.624,12.385 3.638,7.844 5.731,15.99 4.169,24.573-.931,4.93-5.753,7.655-8.829,8.947-3.493,1.5-6.886,2.06-9.985,2.579-12.439,1.448-20.509-.15-20.519.057 .006-.04-5.295-.561-12.27-2.283-3.483-.872-7.398-1.986-11.235-3.843-3.846-1.69-7.573-5.666-7.689-9.866 1.85-25.325 2.312-14.463 2.811-.002 .038-.399.066,1.639 1.932,3.668 1.813,2.097 5.977,3.739 10.398,4.807 8.864,2.252 18.327,2.77 18.3,2.734-.055-.137 7.802,1.194 19.01-.43 4.995-1.003 13.176-2.772 13.441-8.564 .819-6.367-.979-14.485-4.313-20.797-3.362-6.316-10.517-9.178-17.484-8.987-6.986.002-13.623,1.833-19.063,3.857-10.98,4.167-17.33,9.123-17.585,9.362z" fill="#231f20"/>
 <path d="m230.9 80.641c0.36-10.994 5.702-21.324 10.512-30.671l-5.062 1.835c-6.292 8.798-11.086 17.645-13.413 27.574l7.963 1.262z" fill="#d24c30"/>
 <path d="m232.768,77.178c-.012.127-.016.172-.104.33-.533,1.059-1.82,2.794-2.896-.271-.02-.057-.085-.325-.086-.457-.314-.41 2.529-13.663 8.999-24.867l1.096-2.139 .137-.266 .067-.133 .034-.066 .018-.033c.851.962-1.892-2.176 1.908,2.152l-.018.006-.56.203-1.113.403c-.979.506-4.054,1.129-3.219,1.506-1.701,2.42-3.206,4.725-4.404,6.747-2.431,4.029-3.694,6.879-3.698,6.875-.113-.584-3.612,8.458-5.47,11.535 9.638,2.197 5.637,2.26-.459,1.668-2.757-1.491 3.402-14.924 3.438-15.192 .007.007 1.345-2.916 3.838-7.005 1.246-2.044 2.775-4.378 4.497-6.817 2.457-2.155 3.117-1.481 4.814-2.378l1.099-.398 .138-.05 .034-.013 .018-.006c-1.704-1.946 2.342,2.642 1.92,2.177l-.033.065-.134.261-.268.522-1.074,2.098c-6.284,11.049-8.785,23.18-8.519,23.543z" fill="#231f20"/>
 <path d="m228.72 34.494c-0.411 12.534 9.436 23.029 21.997 23.442s23.075-9.413 23.487-21.947-8.841-16.023-21.401-16.436-23.67 2.407-24.083 14.941z" fill="#d24c30"/>
 <path d="m227.357,38.174c-.029-.257-.041-.351-.006-.694 .298-2.5 1.406-5.323 2.882-.391 .035.088.175.5.213.711 .083.115.206,6.474 6.18,12.513 5.511,6.184 18.695,8.921 27.62,1.801 9.058-6.36 10.809-20.646 5.157-25.998-5.938-5.166-12.689-4.352-12.37-4.728 .42.385-15.776-3.076-23.885,3.881-5.59,6.538-3.81,10.529-4.646,9.218-.131-.768-.729-6.216 3.709-10.709-.739.249 5.102-4.742 12.35-5.209 7-.926 14.124-.146 14.143-.061-.3.473 6.635-.654 13.73,6.351 6.346,7.924 3.429,22.993-6.885,30.131-10.298,7.751-25.058,4.445-31.253-2.604-6.689-6.879-6.844-14.072-6.939-14.212z" fill="#231f20"/>
 <path d="m235.94 33.974c-0.374 11.411 5.901 20.879 14.021 21.146s15.001-8.769 15.376-20.179-5.307-13.873-13.425-14.139-15.598 1.76-15.972 13.172z" fill="#fff"/>
 <path d="m234.488,36.731c-.007-.194-.01-.265.056-.522 .372-1.854 1.411-4.041 2.902-.22 .027.069.129.393.147.557 .031.156-.068,4.817 2.958,10.379 1.552,2.643 4.129,5.512 7.683,6.319 3.521.898 7.518-.726 10.177-3.802 5.487-6.154 6.301-15.898 4.472-21.383-2.149-5.533-7.602-5.065-7.25-5.321 .621.194-12.28-3.09-16.938,3.811-3.216,5.625-2.299,8.338-2.977,7.417-.067-.668-.662-4.481 1.686-8.58-.583.415 2.944-4.879 8.813-5.559 5.424-.981 10.981.007 11.021.062-.573.014 6.262.252 8.856,7.946 1.703,6.86.854,16.86-5.747,24.085-3.171,3.539-8.52,5.64-13.175,4.283-4.672-1.25-7.621-4.817-9.383-7.85-3.423-6.374-3.24-11.429-3.301-11.622z" fill="#231f20"/>
 <path d="m258.59 14.91c8.869 5.395 21.714 19.049 21.714 19.049 3.71-10.835-2.495-21.116-13.546-26.904-8.577-4.495-25.646-6.13-31.311-0.381 0 0 14.276 2.843 23.143 8.236z" fill="#231f20"/>
 <path d="m174.82 15.256c9.348-4.511 27.791-7.873 27.791-7.873-7.079-9.002-19.08-9.382-29.947-3.252-8.436 4.758-19.084 18.195-17.337 26.074 0 0 10.145-10.437 19.493-14.949z" fill="#231f20"/>
 <path d="m124.62 92.466c-4.504-5.862-12.123-19.695-15.009-19.988s-2.29 6.465-4.526 8.122-7.797 3.173-7.968 6.717 12.945 12.875 15.315 15.526 14.437 18.015 16.958 18.434 9.991-8.298 10.029-10.925-9.65-10.324-14.799-17.886z" fill="#d24c30"/>
 <path d="m124.104,88.667c.13.195.177.266.281.563 .758,1.964 1.649,5.344-2.672,2.012-.079-.062-.425-.377-.562-.559-.247-.21-3.414-5.387-8.279-12.421-.897-1.449-3.444-4.146-3.389-3.953 .192-.705-.841,2.85-1.796,5.618-2.326,3.929-5.386,3.607-7.227,5.389-1.114.704-1.138,1.481-1.926,2.072 .705.104 1.001,1.544 2.021,2.419 3.699,4.022 8.312,7.37 12.443,11.085 3.898,4.3 6.719,8.057 9.602,11.304 2.744,3.165 5.245,5.917 6.861,7.114 .079.461 1.518-.703 1.443-.581-.073.029 2.838-1.947 5.666-5.836 1.787-2.293 1.915-2.831-.386-5.439-1.765-2.16-3.727-4.301-5.413-6.302-10.863-14.162-5.772-8.864 1.673-1.104-.18-.219.875.822 2.59,2.514 1.507,2.143 4.557,2.997 5.797,8.16-2.761,7.811-8.739,11.472-9.134,11.695-6.508,4.104-15.239-16.901-34.257-30.769-.784-1.088-2.471-2.602-1.934-5.263 .472-2.173 2.072-3.46 3.319-4.275 2.454-1.765 5.765-2.562 5.746-3.958 .395-1.031.63-2.266 1.06-3.651 .389-.994.932-3.863 4.257-3.783 4.126,1.843 4.333,3.847 5.998,5.608 4.972,7.226 7.97,12.123 8.218,12.341z" fill="#231f20"/>
 <path d="m62.011,68.441c-4.337.052-13.383-1.383-14.65-.002-1.268,1.385 1.917,3.708 1.756,5.513s-1.695,5.281-.217,6.75 10.73-1.699 12.826-1.896c2.091-.198 13.56-.47 14.739-1.616s.326-8.416-.806-9.458-8.314.986-13.648.709z" fill="#d24c30"/>
 <path d="m60.034,66.599c.139.008.194.017.365.105 1.142.532 3.183,1.877-.061,3.342-.062.029-.348.121-.484.124-.175.044-3.91-.356-8.924-.533-1.434-.329-2.267.822-2.714-.437 1.073-.147 1.286,1.351 2.477,3.412 .116,5.194-1.74,7.679.381,6.668 3.147-.349 6.323-1.395 9.765-2.119 3.603-.404 6.348-.368 8.959-.615 2.453-.179 4.8-.464 5.599-.77-.651.694-.008-.774-.168-.551-.03.037.294-1.967-.15-4.766-.658-1.831.425-1.769-1.646-1.749-1.613.002-3.395.16-4.965.21-10.855-.156-6.345-.961-.037-1.987-.17.003.705-.166 2.139-.415 1.614.28 2.975-1.834 6.58.809 2.136,4.698 1.551,8.775 1.476,9.169-1.213,5.939-13.815,1.734-27.743,6.344-.604.137-3.135-.07-3.854-1.739-.692-1.396-.582-2.662-.444-3.576 .229-1.746.997-3.971.65-3.949-.061-1.138-2.253-1.65-1.694-5.483 2.752-3.128 4.129-1.565 5.528-2.03 5.406.208 8.757.576 8.965.536z" fill="#231f20"/>
 <path d="m49.679,69.723c-11.029-1.586-22.119,7.123-23.889,9.996 4.381-.108 19.162-3.117 24.751-.469 2.241-3.036.282-6.806-.862-9.527z" fill="#d24c30"/>
 <path d="m47.13,67.764c.117-.001.16-.001.312.083 1.128.562 2.23,1.978-.021,3.341-.041.029-.228.135-.321.151-.05-.373-10.525.471-18.038,7.438-.436.401-.889.815-1.234,1.223-.208.212-.325.392-.454.565l-.051.065-.013.017c-.697-1.208 1.551,2.713-1.563-2.705h.013l.055-.003 .217-.012 .433-.024 3.652-.39c2.414-.295 4.697-.572 6.666-.753 3.932-.395 6.644-.36 6.642-.363 .003.023 1.753.029 4.175.513 .599.099 1.256.305 1.921.515 .329.081.679.279 1.017.422l.51.238 .032.015 .004.002-1.564.394 .003-.005 .006-.009 .025-.038 .051-.077 .104-.152c.696-.752.889-1.84.934-2.898-1.58-7.336.218-5.401 1.988-.037 .012-.157.177.612.079,1.941-.123.666-.262,1.477-.728,2.245l-.315.603-.003.005-1.717.435-.007-.002-.014-.004-.027-.008-.055-.016-.11-.032-.22-.065c-.292-.089-.58-.191-.928-.231-2.651-.495-5.745-.164-5.72-.189 0,.006-2.456.002-6.229.391-1.886.184-4.088.454-6.487.747-1.206.143-2.435.299-3.813.382l-.261.014-.13.007-.065.003-.033.002c-.701-1.217 1.546,2.725-1.576-2.728l.011-.016 .367-.512c.253-.369.492-.581.742-.875 .5-.525 1-1.019 1.526-1.46 8.201-7.576 19.952-8.562 20.212-8.153z" fill="#231f20"/>
 <path d="m91.388,70.146c-5.788-2.072-17.216-8.455-19.476-7.236s1.009,5.891.044,8.222-4.447,6.212-3.092,8.902 14.97,3.032 17.835,3.804c2.864.771 18.224,6.067 20.269,5.123 2.043-.946 3.929-11.072 2.857-13.02s-11.464-2.794-18.437-5.795z" fill="#d24c30"/>
 <path d="m89.386,67.415c.181.08.249.116.451.286 1.384,1.094 3.541,3.347-1.187,3.125-.09-.003-.492-.057-.671-.125-.26-.035-4.938-2.345-11.583-5.099-1.46-.822-4.057-.813-3.69-1.341 .153.214.767,2.744 1.187,5.519-1.407,6.139-6.066,9.727-1.708,10.124 4.386,1.162 9.25,1.33 13.945,2.009 4.892,1.244 8.553,2.638 12.13,3.604 3.377.97 6.545,1.776 8.015,1.776-.388.316.726-1.426.526-1.207-.048.029 1.217-2.649 1.722-6.698 .136-2.561.757-2.995-2.022-3.745-2.193-.761-4.617-1.375-6.731-2.03-14.291-5.232-8.146-3.804.743-1.855-.229-.072 1.01.159 3.02.562 1.94.985 4.937-.418 7.865,3.808 .835,6.807-1.642,12.132-1.87,12.467-.096.047.048.222-.703,1.039-.541,1.015-2.739,1.465-3.713,1.144-2.344-.294-5.227-1.083-8.726-2.095-3.382-.896-7.697-2.597-11.52-3.356-4.375-.603-9.174-.703-14.259-2.184-.921-.173-3.594-1.428-3.727-3.607-.255-1.846.323-3.371.893-4.514 .986-2.249 3.042-4.577 2.529-5.357 .282-1.833-2.285-3.58.037-7.707 4.402-2.15 5.426.192 7.49.363 6.94,2.901 11.271,5.042 11.557,5.094z" fill="#231f20"/>
 <path d="m199.255,79.601c.36-10.994-4.291-21.653-8.477-31.296l4.932,2.164c5.7,9.192 9.902,18.336 11.573,28.396l-8.028.736z" fill="#d24c30"/>
 <path d="m200.728,75.828c.002.138.003.188-.067.373-.41,1.312-1.506,2.957-2.904.226-.025-.049-.119-.283-.134-.403 .299-.342-1.435-12.784-7.091-24.379l-.947-2.195-.118-.274-.059-.136-.029-.068-.015-.034c.911-.912-2.048,2.016 2.04-2.048l.017.007 .545.239 1.084.477c1.567,1.115 2.573.173 4.512,2.939 1.573,2.586 2.961,5.055 4.059,7.222 2.23,4.318 3.354,7.38 3.357,7.375-.445.183 3.93,7.561 1.97,14.501-9.882.242-6.019-.803.035-1.73-.04,0-.019-.009.057-.023l.067-.012 .041-.007 .022-.004 .012-.002h.006l.003-.001-.893,1.159v-.001l-.059-.22c-.089-.34-.219-.859-.376-1.5-.275-1.289-.79-3.029-1.343-4.774-1.126-3.488-2.676-6.894-2.675-6.894-.007.005-1.099-2.87-3.249-6.981-1.074-2.055-2.409-4.417-3.93-6.906 .488.129-2.238-1.005-3.249-1.468l-1.069-.469-.134-.059-.034-.015-.017-.007c-1.84,1.823 2.486-2.495 2.045-2.042l.029.067 .117.271 .233.542 .939,2.175c5.61,11.464 7.531,24.688 7.202,25.079z" fill="#231f20"/>
 <path d="m205.79 33.74c-0.412 12.533-10.93 22.359-23.488 21.946s-22.409-10.908-21.997-23.442 12.059-14.175 24.619-13.762 21.278 2.724 20.866 15.258z" fill="#d24c30"/>
 <path d="m203.857,36.899c.042-.22.057-.299.186-.576 .672-1.83 2.08-5.23 2.899.316 .006.103.006.59-.026.833-.101.125-.722,7.338-7.902,13.784-6.69,6.649-21.766,8.92-31.506.357-9.543-7.738-12.15-23.745-3.625-30.442 8.306-5.27 14.708-3.741 14.56-4.205 .003,0 3.861-.13 8.987.305 4.967.442 12.173,1.364 15.986,5.959 3.01,3.891 2.559,7.277 2.608,8.86-.119,1.697-.333,2.11-.452,1.643-.417-.785-.024-5.886-3.645-9.599 .557.243-4.262-3.812-11.171-3.955-6.629-.606-13.467-.089-13.417-.04 .282.302-6.27-.606-12.252,4.099-5.667,5.021-3.784,19.035 4.876,25.362 8.572,7.104 21.436,4.958 27.15-.808 6.116-5.605 6.664-11.768 6.744-11.893z" fill="#231f20"/>
 <path d="m41.801,35.729c-6.864,1.317-21.549,1.616-23.229,4.164s3.925,5.319 4.1,8.223c.177,2.903-1.425,8.84 1.27,10.745 2.695,1.904 16.606-5.739 19.879-6.646s21.388-4.599 22.986-6.747-1.494-13.412-3.536-14.739-12.95,3.922-21.47,5z" fill="#d24c30"/>
 <path d="m38.285,34.457c.224-.027.308-.034.609.009 2.017.227 5.361.966.575,3.295-.089.043-.514.204-.732.243-.284.142-6.196.524-14.352,1.69-1.702.098-4.961,1.375-4.305,1.205-.221.477 2.189,2.528 3.853,5.278 1.24,6.517-1.588,13.281 3.43,10.828 5.054-1.482 9.933-4.107 14.929-6.14 5.458-1.572 9.914-2.356 13.979-3.476 3.904-1.016 7.434-2.04 9-2.943 .228.28.209-2.171.177-1.83 .005.062-.086-3.362-1.567-7.806-.333-.999-.913-2.396-1.326-2.851-.022-.065-1.474-.109-2.755.237-2.609.547-5.336,1.361-7.789,1.964-17.028,3.247-10.177,1.203-.263-1.987-.267.065 1.089-.42 3.299-1.181 1.118-.375 2.417-.845 3.933-1.263 1.222-.187 3.587-1.559 5.942.579 4.003,6.351 4.157,13.219 4.092,13.521-.035.035.057.341-.173,1.306-.018,1.173-1.905,2.726-2.956,2.978-2.433,1.049-5.728,1.956-9.744,2.988-3.859,1.082-9.019,1.911-13.314,3.388-4.657,1.946-9.472,4.581-15.196,6.12-1.087.254-3.875.989-5.564-1.144-1.333-1.693-1.464-3.535-1.477-4.967-.127-2.767.739-6.179-.024-6.998-.62-1.917-4.042-2.627-3.903-7.508 2.739-4.358 5.252-2.934 7.31-3.852 8.483-1.194 14.013-1.542 14.312-1.683z" fill="#231f20"/>
 <path d="m20.525 41.088c-14.975 11.958-19.909 37.915-18.541 43.243 4.466-5.952 15.042-26.504 26.601-29.682-1.058-6.127-1.585-9.19-8.06-13.561z" fill="#d24c30"/>
 <path d="m16.301,42.513c.136-.138.173-.2.421-.311 1.726-.867 4.252-1.372 2.415,2.321-.04.059-.198.37-.297.508-.615-.256-12.266,13.839-14.766,31.581-.327,2.118-.612,4.328-.499,6.25l.082.625 .039.304 .009.076 .002.019c-6.283-1.25-1.734-.358-3.132-.642l.028-.04 .112-.158 .891-1.273 1.721-2.638c2.242-3.523 4.385-6.849 6.343-9.618 3.885-5.575 7.157-8.875 7.136-8.884 .031.035 2.062-2.207 5.526-4.513 .844-.599 1.84-1.119 2.896-1.608 .503-.28 1.078-.461 1.657-.64l.865-.274 .433-.135 .054-.017 .013-.004c.808-1.269-1.092,1.727-.897,1.416v-.006l-.003-.026-.013-.103-.026-.206c-.267-2.221-.537-4.379-1.172-6.17-2.774-5.851-5.541-6.651-4.402-6.685 .65.186 4.288,1.802 6.331,6.169-.059-.237.518.918 1.025,2.825 .248.948.509,2.065.746,3.252l.095.452 .006.029 .003.014 .001.007c.888-1.394-1.207,1.907-.994,1.567l-.048.021-.097.041-.195.081-.792.325c-.542.185-1.071.455-1.583.787-4.225,2.386-7.49,6.638-7.496,6.573 .003-.003-2.924,3.085-6.63,8.446-1.87,2.667-3.909,5.885-6.148,9.385l-1.769,2.676-.487.687-.245.345-.031.043c-1.414-.278 3.144.654-3.174-.619l-.005-.031-.021-.125-.041-.25c-.121-.68-.198-1.347-.181-1.919-.04-2.402.244-4.654.636-6.905 2.645-18.291 14.868-33.139 15.658-33.025z" fill="#231f20"/>
 <path d="m89.114 32.256c-9.502-2.534-28.525-11.205-32.006-8.95-3.479 2.254 2.284 9.29 1.004 13.147s-6.417 10.536-3.943 14.658c2.476 4.122 24.315 2.833 28.99 3.683s29.869 7.251 33.035 5.463 4.84-12.244 2.905-15.219-18.477-8.919-29.985-12.782z" fill="#d24c30"/>
 <path d="m85.314,29.219c.296.102.403.14.763.343 2.462,1.316 6.228,3.746-.868,3.232-.13-.012-.738-.098-1.028-.185-.436-.011-7.92-2.986-18.783-6.521-2.289-.728-6.671-1.771-7.34-1.181-1.038.269.848,4.601 1.737,8.098 1.033,5.149-2.408,8.071-3.419,11.368-1.176,3.479-2.151,6.313 1.433,6.81 6.927,1.6 14.76,1.247 21.896,1.561 7.732.568 13.716,2.782 19.418,3.724 5.548,1.168 10.202,1.971 13.361,2.251 1.577.336 2.671-.449 3.07.438-.209-1.25.354-.742.245-.943-.137.348 2.644-3.49 2.567-9.87 .483-3.078-2.648-4.23-6.204-6.115-3.363-1.66-6.893-3.153-10.08-4.493-21.904-8.508-12.812-6.245 1.124-1.69-.707-.07 7.59,1.985 15.831,6.89 6.117,9.987-1.169,19.426-2.581,19.101-.9.794-8.437.087-19.471-2.377-5.488-.882-12.043-3.366-18.562-3.393-7.047-.351-14.477.24-22.51-1.966-.991-.345-2.197-.84-3.253-2.242-.532-1.2-1.006-2.472-.878-3.645 .015-2.397.838-4.313 1.613-6.09 1.55-3.726 3.934-6.421 2.813-9.018-.422-1.567-1.065-3.15-1.57-4.972-.384-1.6-1.152-4.628 1.595-6.573 5.156-1.422 7.396.444 10.447.979 11.06,3.63 18.192,6.458 18.634,6.479z" fill="#231f20"/>
 <path d="m30.188 110.48c-3.808 4.128-12.975 11.387-13.004 13.794s4.635 1.448 5.922 3.185 2.679 6.232 5.154 6.129 8.179-11.595 9.881-13.74 11.665-13.183 11.804-15.299-6.375-7.696-8.205-7.544-6.6 8.695-11.552 13.475z" fill="#d24c30"/>
 <path d="m27.104,111.055c.13-.122.18-.166.397-.267 1.422-.725 4.134-1.632 2.416,2.311-.032.074-.209.398-.326.524-.126.199-3.639,3.287-8.241,7.818-1.022.849-2.401,3.128-2.496,2.796-.513-.424 1.811.179 4.457,1.112 4.715,4.407 3.547,9.237 6.251,4.788 2.49-3.325 4.435-7.171 6.75-10.789 2.795-3.526 5.203-6.104 7.278-8.694 2.021-2.464 3.747-4.697 4.44-6.019 .341-.126-.393-.868-.357-.933 .102.089-1.352-2.142-4.217-4.279-1.886-3.426-4.551,3.082-7.372,5.433-9.436,9.878-6.161,5.247-1.418-1.397-.145.163.491-.78 1.53-2.288 1.508-1.449 1.422-3.756 5.683-5.615 6.652,2.042 9.041,6.869 9.374,7.169 2.986,4.933-11.048,13.807-19.175,29.994-.947.838-1.092,2.037-3.817,2.646-2.289-.059-3.294-1.561-4.041-2.479-1.31-1.814-2.399-4.633-2.822-4.484-.804-1.099-4.181.942-5.978-3.958 .797-3.812 2.378-3.988 3.462-5.6 4.821-4.716 8.076-7.577 8.222-7.789z" fill="#231f20"/>
 <path d="m20.602 123.26c-11.15 9.725-12.854 27.812-11.64 31.858 3.251-4.735 10.761-20.905 19.551-23.761-0.997-4.668-4.424-7.391-7.911-8.097z" fill="#d24c30"/>
 <path d="m17.231,124.053c.093-.113.137-.146.336-.222 1.372-.627 3.435-.812 2.472,2.256-.014.059-.125.286-.187.397-.405-.195-8.857,10.458-9.385,23.691-.099,1.541-.071,3.244.188,4.364l.01.055c-1.413-.219 3.166.508-3.167-.487l.01-.015 .02-.03 .078-.121 .156-.24 .311-.479 .612-1.006 1.194-2.031c1.566-2.701 3.077-5.24 4.469-7.366 2.743-4.282 5.124-6.855 5.107-6.86 .031.028 1.504-1.703 4.077-3.527 .625-.471 1.362-.898 2.157-1.293 .376-.221.792-.4 1.238-.541l.653-.231 .327-.113 .164-.057 .041-.014 .02-.007c-1.656,2.875-.459.794-.83,1.435l-.001-.004-.002-.009-.015-.068c-.236-1.48-.775-2.908-1.501-4.106-2.928-3.775-5.058-3.812-4.256-4.172 .569-.215 3.567.384 5.94,3.132-.131-.142.591.549 1.309,1.938 .404.68.704,1.553 1.004,2.515l.059.181 .015.045 .001.005c-1.832,3.179-.51.882-.92,1.592l-.009.004-.017.008-.068.033-.274.133-.557.267c-.382.151-.746.399-1.108.649-2.957,1.918-5.239,5.14-5.236,5.104 .006.001-2.067,2.35-4.672,6.419-1.306,2.033-2.743,4.468-4.29,7.138l-1.212,2.047-.661,1.06-.351.539-.022.034-.011.017c-1.424-.219 3.172.514-3.196-.486l-.021-.095-.042-.189-.082-.38c-.354-1.962-.261-3.635-.177-5.387 .624-14.041 9.755-25.605 10.302-25.522z" fill="#231f20"/>
 <path d="m61.428,88.788c-7.275,2.183-23.075,4.143-24.646,7.075s4.729,5.291 5.191,8.397-.706,9.677 2.377,11.429 17.362-8.034 20.804-9.374 22.623-7.341 24.142-9.831-2.868-14.275-5.194-15.477-13.589,5.667-22.674,7.781z" fill="#d24c30"/>
 <path d="m57.527,87.951c.239-.054.329-.071.658-.065 2.202-.024 5.849.303.918,3.217-.092.053-.534.265-.764.331-.292.184-6.613,1.252-15.305,3.419-1.83.344-5.211,1.917-4.671,1.95-.205.65 2.649,2.57 4.683,5.362 1.579,4.149.439,6.521 1.038,9.306 .753,3.015.761,3.164 3.897,1.934 5.322-2.179 10.307-5.538 15.469-8.26 5.673-2.269 10.426-3.629 14.685-5.279 4.111-1.533 7.792-3.003 9.452-4.184 .463.072.091-2.468.125-2.13 .015.067-.409-3.645-2.462-8.306-.46-1.044-1.237-2.518-1.738-2.944-.119-.079-1.757.08-3.082.597-2.763.894-5.608,2.076-8.186,3.005-17.98,5.432-10.817,2.542-.436-1.961-.281.101 1.133-.567 3.436-1.624 1.167-.523 2.516-1.172 4.1-1.784 1.347-.338 3.572-2.044 6.357-.119 4.951,6.424 5.722,13.847 5.675,14.159-.026.027.083.379-.074,1.409 .017,1.296-1.75,2.917-2.843,3.348-2.488,1.377-5.944,2.719-10.161,4.271-4.056,1.594-9.487,3.049-14.021,5.129-4.817,2.604-9.75,5.954-15.692,8.249-1.223.356-3.771,1.566-5.974-.447-1.671-1.632-1.964-3.607-2.129-5.144-.412-2.97.221-6.708-.697-7.641-.861-2.017-4.701-2.481-4.892-7.648 2.445-4.665 5.256-3.581 7.386-4.746 9-2.224 14.942-3.22 15.248-3.404z" fill="#231f20"/>
 <path d="m108.736,84.705c-8.533-1.711-25.786-8.321-28.762-6.131s2.457,8.096 1.507,11.579c-.951,3.486-5.187,9.683-2.801,13.193s21.666,1.146 25.844,1.634 30.601,5.418 33.318,3.66-.205-17.098-2.058-19.623c-1.853-2.523-16.673-1.54-27.048-4.312z" fill="#d24c30"/>
 <path d="m105.055,81.977c.28.076.383.109.728.285 2.349,1.116 5.992,3.247-.682,3.275-.125,0-.693-.045-.97-.106-.407.039-7.561-2.393-17.849-4.912-2.358-.593-6.168-.889-5.36-.071-.278,1.882 2.376,4.683 2.37,9.275-1.815,7.399-7.757,14.199 1.539,13.666 6.968.567 13.759-.617 21.019-.02 6.639,1.044 12.72,2.074 17.972,2.784 5.187.702 9.724,1.219 12.383,1.04 .998.758.849-2.077.924-1.779 .048.099.352-4.278-.883-10.289-.298-1.467-.658-3.085-1.194-4.504-.237-1.346-1.34-1.226-3.226-1.764-3.371-.619-6.985-.917-10.195-1.347-11.005-1.29-14.035-3.139-12.83-3.047 1.191.014 6.637.856 13.425,1.114-.35-.047 1.491.051 4.485.225 1.499.095 3.28.194 5.265.455 .996.134 2.035.298 3.216.717 1.418.307 2.545,2.284 2.731,3.086 3.053,8.198 2.983,17.101 2.479,17.493-1.677,9.25-28.392-4.103-56.674-.686-1.88-.345-3.673-.115-6.063-2.027-1.854-2.274-1.544-4.737-1.15-6.626 .841-3.57 3.172-7.143 3.247-9.125 .021-2.558-2.654-4.867-2.31-9.629 .694-3.013 4.36-3.424 5.441-3.071 1.6.128 3.025.392 4.372.688 10.615,2.623 17.365,4.93 17.79,4.9z" fill="#231f20"/>
 <path d="m136.869,63.225c-7.876-8.771-21.647-29.876-26.302-29.958-4.654-.081-2.933,10.653-6.324,13.605-3.396,2.95-12.127,6.126-11.999,11.819s22.187,18.855 26.283,22.778 25.16,26.873 29.246,27.206 15.06-14.622 14.822-18.831c-.24-4.204-16.623-15.212-25.726-26.619z" fill="#d24c30"/>
 <path d="m134.74,57.896c.233.297.317.405.562.837 1.726,2.9 4.096,7.612-2.462,2.27-.119-.1-.658-.595-.892-.873-.424-.304-6.049-8.135-14.741-18.841-1.882-2.243-5.493-6.208-6.83-6.199-1.345.108-1.711,5.805-3.005,10.007-2.736,5.672-7.688,5.979-10.619,9.079-1.505,1.333-2.734,2.846-2.703,4.378-.021.929 1.636,2.94 3.116,4.358 6.513,6.081 14.345,10.849 21.314,16.183 6.575,6.194 11.668,11.977 16.648,16.777 4.812,4.735 9.082,8.803 12.045,10.63 1.193,1.262 3.723-1.782 3.456-1.328-.063.064 4.39-3.673 8.467-10.368 .933-1.542 2.082-3.726 2.077-4.959-.217-1.13-2-3.163-3.481-4.661-3.152-3.214-6.598-6.318-9.588-9.239-10.291-9.851-12.139-13.941-11.036-12.88 1.155.979 6.068,6.16 12.772,11.789-.324-.319 1.476,1.239 4.395,3.754 1.457,1.264 3.193,2.765 5.036,4.485 1.592,1.96 4.339,3.101 4.751,7.42-3.52,11.625-12.523,18.636-12.863,18.731-.032-.016-.441.412-1.833.952-2.017.859-4.365-.728-5.708-1.811-3.339-2.498-7.395-6.411-12.225-11.208-4.835-4.602-10.192-10.982-16.2-16.124-6.703-5.018-14.481-9.731-21.262-16.356-1.393-1.562-3.977-3.903-3.27-7.367 .531-2.984 2.622-5.042 4.468-6.431 3.492-3.08 8.712-4.442 9.047-7.542 .553-1.799.787-3.904 1.258-6.017 .494-1.702.971-5.509 5.05-5.855 5.899,1.832 6.95,5.221 9.656,7.728 8.764,10.849 14.176,18.365 14.6,18.681z" fill="#231f20"/>
 <path d="m53.951,132.113c-2.796,3.633-9.706,10.215-9.568,12.157s5.603.544 6.761,1.84c1.153,1.298 2.404,3.609 4.394,3.329s4.23-8.543 5.459-10.408c1.23-1.864 8.527-11.559 8.499-13.275s-5.661-5.694-7.126-5.428-4.745,7.537-8.419,11.785z" fill="#d24c30"/>
 <path d="m51.266,132.559c.096-.106.128-.144.308-.228 1.145-.598 3.459-1.373 2.603,2.098-.017.063-.119.353-.201.463-.093.164-2.656,2.9-6.013,6.808-1.013.761-1.1,2.58-2.493,2.465 .308-1.466 1.249-.133 3.214-.471 .988.209 1.692-.233 3.511,1.005 .985.936 1.251,1.511 1.801,2.086 1.413,1.083.858,1.195 1.41.413 1.618-2.568 2.325-5.889 4.219-9.307 1.944-2.772 3.692-5.161 5.139-7.315 1.399-1.98 2.699-4.274 2.863-4.716 .278.334-.518-.748-.437-.593 .023.053-1.264-1.558-3.644-3.011-.702-2.244-3.317,3.012-5.148,5.062-6.965,8.457-4.782,4.411-1.561-1.226 .246.175.658-2.944 4.922-7.074 6.374.603 8.182,4.469 8.678,4.622 3.894,4.512-8.009,11.968-12.394,25.987-2.265,3.284-6.329.581-6.954-.742-1.609-1.909-.725-1.438-2.802-1.635-.8-.037-1.595-.024-2.604-.177-.556.197-3.342-.984-3.018-3.156 .753-2.866 1.782-3.282 2.611-4.577 3.527-4.092 5.885-6.606 5.99-6.781z" fill="#231f20"/>
 <path d="m46.095 145.22c1.708 12.426 13.427 22.78 16.524 23.47-1.718-4.383-10.163-14.455-8.412-22.324-1.991-1.503-4.015-3.804-8.112-1.146z" fill="#d24c30"/>
 <path d="m44.898,148.317c-.031-.113-.042-.154 0-.321 .266-1.22 1.318-2.719 3.234-.838 .039.033.191.193.232.283-.257.184 2.968,10.296 10.927,16.965 .932.83 1.938,1.581 2.875,2.141 .204.094.503.301.621.311l.217.091c-4.079,4.768-1.134,1.315-2.045,2.376l-.005-.012-.011-.023-.021-.046-.042-.093-.083-.185c-.197-.48-.509-1.021-.782-1.529-1.179-2.075-2.43-4.068-3.41-5.83-2.007-3.514-2.976-6.171-2.97-6.168 .024-.005-.65-1.708-.952-4.234-.096-1.271-.165-2.735.185-4.194 .199.19-.106-1.965.513.163l-.727-.683c-.454-.442-.885-.814-1.308-1.135-3.052-1.629-4.702-.068-4.361-.904 .039-.446 2.472-2.192 5.461-.749-.154-.092.65.262 1.582.932l.74.51 .195.136 .025.017 .013.009c-.44-1.198.603,1.634.495,1.344v.003 .007l-.003.055-.008.111-.033.454c-.093.605-.009,1.291.021,1.963 .34,2.743 1.715,5.458 1.692,5.452-.007,0 .866,2.277 2.786,5.587 .941,1.673 2.139,3.554 3.382,5.787 .308.565.616,1.171.904,1.857l.027.062 .014.031c-.916,1.073 2.06-2.379-2.051,2.409l-.021-.007-.17-.054-.341-.115c-.212-.079-.487-.164-.631-.254l-1.007-.553c-1.239-.767-2.295-1.645-3.342-2.549-8.507-7.185-12.055-18.239-11.817-18.58z" fill="#231f20"/>
 <path d="m78.938,108.985c-5.634,2.593-18.138,5.991-19.117,8.526-.977,2.533 4.314,3.697 4.989,6.135s.372,7.846 3.021,8.893 13.167-8.45 15.805-9.922c2.632-1.475 17.462-8.504 18.44-10.678s-3.692-11.121-5.679-11.815c-1.986-.697-10.369,6.117-17.459,8.861z" fill="#d24c30"/>
 <path d="m75.58,108.445c.187-.071.256-.094.526-.112 1.786-.174 4.881-.113 1.337,3.065-.066.059-.393.298-.57.379-.214.179-5.202,1.776-11.921,4.493-1.458.416-3.875,2.269-3.518,1.825-.151.06 2.194,1.467 4.312,3.573 1.798,3.497 1.026,5.364 1.801,7.523 .145,1.272 1.003.941.676,2.377 .1-1.414 1.289-.745 2.211-1.636 4-2.341 7.641-5.579 11.532-8.36 4.382-2.494 8.005-4.106 11.259-5.916 3.132-1.687 5.929-3.296 7.102-4.375 .205.066-.164-1.547-.13-1.407 .017.082-.614-2.854-2.73-6.348-1.5-2.175-1.131-2.629-3.778-1.218-2.12,1.01-4.297,2.26-6.283,3.274-13.959,6.286-8.543,2.993-.759-1.848-.217.109.842-.594 2.571-1.713 2.139-.674 3.166-3.706 8.344-2.878 5.196,4.864 6.256,10.741 6.337,11.122 1.871,6.424-17.088,9.641-32.235,23.06-1.043.385-2.627,1.836-5.157.474-1.795-1.202-2.197-2.897-2.515-4.135-.617-2.384-.57-5.596-1.228-5.959-.717-1.5-4.141-1.228-4.761-6.003 1.819-4.254 4.029-3.544 5.681-4.777 7.025-2.821 11.669-4.299 11.896-4.48z" fill="#231f20"/>
 <path d="m115.23 104.42c-6.91-1.386-20.882-6.739-23.291-4.965s1.989 6.556 1.22 9.378-4.2 7.84-2.268 10.683 17.544 0.928 20.928 1.324 26.322 4.812 28.524 3.388c2.203-1.426-1.708-14.269-3.21-16.314-1.499-2.045-13.5-1.25-21.903-3.494z" fill="#d24c30"/>
 <path d="m112.283,101.871c.23.063.314.089.594.25 1.888,1.001 4.868,2.986-.712,3.268-.105.005-.578-.017-.808-.064-.332.036-6.254-1.993-14.671-4.024-2.288-.442-4.43-.575-3.68-.181 .004,1.774 2.307,3.854 1.853,8.254-1.015,3.029-2.479,5.405-2.736,7.684 .147,1.188-.059,1.409.731,1.655 1.021.348 2.476.478 3.848.552 5.723.438 11.334-.789 17.381.123 5.44.907 10.454,1.765 14.768,2.382 4.252.595 8.008,1.06 10.13.938 .252-.006.543-.048.408-.032-.348-.518.794,1.445.466.785-.114-.182-.276-.287-.43-.326-.619-.315-.099-.286-.229-.632 .053-.458.004-.836.019-.812 .052.089-.074-3.459-1.491-8.318-.337-1.193-.727-2.486-1.216-3.693-.439-1.369-.632-1.059-2.32-1.61-2.722-.554-5.711-.819-8.35-1.195-9.069-1.118-11.553-2.708-10.542-2.692 .997-.044 5.472.582 11.06.753-.287-.041 1.227.028 3.697.161 1.241.081 2.705.147 4.366.377 .858.163 1.68.217 2.798.754 1.549.896 1.648,1.966 2.096,2.717 2.932,6.492 3.82,13.793 3.384,14.271-1.841,8.507-23.75-3.38-46.863-.422-1.551-.166-3.033-.2-4.925-1.053-2.663-1.418-2.413-4.039-2.244-5.623 .538-3.311 2.396-6.011 2.75-7.902 .281-1.463-1.757-3.756-1.942-7.377-.275-2.535 3.371-4.008 4.416-3.502 1.424.042 2.579.286 3.716.51 8.806,2.142 14.324,4.051 14.678,4.024z" fill="#231f20"/>
 <path d="m137.12 105.46c-10.609-11.724-46.313-30.251-60.039-11.816-5.171 6.729-9.829 23.158-5.085 28.588 9.984 10.797 41.766 8.974 54.893 5.241 14.116-3.864 10.04-11.903 11.028-23.63" fill="#d24c30"/>
 <path d="m135.252,100.275c.265.227.362.309.63.694 1.994,2.838 3.412,6.849-2.96,3.591-.123-.052-.67-.329-.912-.507-.233-.251-6.325-5.699-17.171-10.603-5.376-2.39-11.982-4.649-19.048-5.042-7.052-.48-14.324,2.134-17.944,8.548-3.6,6.309-5.987,14.491-5.138,20.81 .846,5.201 9.092,7.673 14.134,8.758 11.355,2.102 19.36,1.126 19.303,1.314-.008-.039 5.108.047 11.948-.729 6.475-.899 16.542-1.841 18.06-8.76 1.779-24.038 3.031-15.009 2.54,1.117 .028-.534.078,2.144-2.682,5.19-2.776,3.012-7.694,4.643-12.325,5.702-9.401,2.2-19.191,2.5-19.194,2.47 .01-.158-8.056.753-20.187-1.811-3.021-.655-6.3-1.769-9.588-3.599-1.683-.95-3.169-2.089-4.763-3.777-1.632-2.042-2.108-4.331-2.305-6.41-.389-8.379 2.048-16.274 6.458-23.681 4.711-7.825 14.805-10.952 22.486-10.064 7.961.54 14.876,3.011 20.534,5.534 11.322,5.162 17.79,10.918 18.124,11.255z" fill="#231f20"/>
 <path d="m134.363,129.5c-3.144-4.86-8.942-16.08-2.853-20.421 5.408-3.715 13.911-1.055 19.858-1.077 18.511-.257 33.517-6.975 51.87-9.184 13.705-1.495 30.22.33 43.919-.949 6.855-.857 15.357,6 21.802,4.267 9.325-2.288 20.923-6.665 24.953,4.713 .803,2.405-.396,5.393-.041,8 .361,2.391 2.037,5.041 1.731,7.625-.283,1.937-1.478,4.709-1.987,6.854-1.314,6.444-2.811,11.801-9.638,11.792-23.998-.356-47.689-3.297-71.679-3.87-18.269-.384-36.736-1.423-55.189-2.895-7.253-.455-18.077.487-24.088-4.252" fill="#231f20"/>
 <path d="m135.229,129.134c-2.654-4.201-4.924-8.786-5.434-13.786-1.104-10.828 14.856-6.971 21.213-6.81 13.499.341 26.943-4.226 39.971-7.102 15.713-3.469 31.363-2.34 47.306-2.584 2.922-.044 5.838-.214 8.748-.458 3.866-.324 7.573,1.342 11.107,2.638 4.113,1.507 7.782,2.374 12.076,1.296 5.468-1.372 11.494-3.588 17.084-1.689 7.883,2.677 4.512,11.519 6.493,17.435 1.757,5.248-.873,12.137-2.676,17.296-1.98,5.666-7.668,5.225-12.609,5.084-4.526-.129-9.05-.366-13.57-.623-16.137-.917-32.233-2.413-48.389-3-16.417-.596-32.799-1.113-49.191-2.262-5.533-.388-11.032-.823-16.577-.954-5.88-.139-12.063-.463-17.017-3.964-.502-.355-2.229.383-1.483.909 3.987,2.818 8.649,3.542 13.417,3.932 6.953.569 13.969.645 20.937,1.146 16.386,1.179 32.775,1.744 49.191,2.262 16.154.51 32.26,2.038 48.389,3 6.918.413 14.006,1.043 20.934.677 3.377-.179 5.861-2.436 7.344-5.287 2.06-3.964 3.119-9.588 4.045-13.93 .525-2.469-1.173-5.411-1.732-7.76-.948-3.987.936-6.535-1.066-10.437-3.864-7.532-13.784-5.315-20.295-3.685-3.49.874-6.366,1.705-10.039.863-2.732-.626-5.303-1.867-7.965-2.723-6.112-1.967-11.84-.906-18.192-.809-14.411.221-28.556-.782-42.812,1.917-9.081,1.719-17.964,4.338-27.042,6.075-5.171.989-10.4,1.534-15.663,1.667-4.387.112-8.734-.945-13.137-.876-4.715.073-9.499,1.994-10.582,6.942-1.193,5.458 2.701,11.926 5.486,16.334 .334.531 2.147-.074 1.73-.734z" fill="#231f20"/>
 <path d="m154.34 105.77c35.542 14.51 79.047 6.806 112.6 0.571-4.01 20.546-33.979 32.698-57.308 31.931-19.989-0.658-49.644-11.638-55.296-32.502z" fill="#fff"/>
 <path d="m212.182,112.886c.312,8.686 1.682,17.296 2.098,25.975 .02.411 1.96.071 1.932-.518-.415-8.679-1.785-17.289-2.098-25.975-.015-.405-1.954-.075-1.932.518z" fill="#231f20"/>
 <path d="m196.272,113.163c.291,5.177.652,10.35 1.038,15.521 .151,2.021.31,4.042.468,6.063 .057.719-.129,3.389.656,2.967-1.132.608.65.557 1.126.301l.005-.002c.149-.08.416-.2.403-.409-.497-8.325-1.295-16.629-1.764-24.958-.021-.389-1.963-.049-1.932.517z" fill="#231f20"/>
 <path d="m229.407,111.588c.292,5.177.652,10.35 1.038,15.521 .151,2.021.31,4.042.468,6.063 .057.72-.13,3.387.655,2.967-1.134.606.649.556 1.125.302l.006-.003c.149-.08.415-.2.402-.41-.485-8.325-1.293-16.63-1.763-24.958-.021-.388-1.963-.048-1.931.518z" fill="#231f20"/>
 <path d="m243.603,108.567c.292,5.177.652,10.349 1.039,15.52 .151,2.021.31,4.042.468,6.063 .056.71-.126,3.398.657,2.967-1.127.621.65.563 1.125.302l.005-.003c.149-.082.416-.199.403-.409-.497-8.324-1.296-16.629-1.766-24.957-.021-.388-1.964-.049-1.931.517z" fill="#231f20"/>
 <path d="m253.751,104.231c.291,5.177.651,10.35 1.038,15.521 .151,2.021.31,4.042.468,6.063 .056.711-.126,3.397.656,2.968-1.128.618.65.562 1.125.301l.005-.002c.149-.082.416-.199.403-.41-.491-8.324-1.295-16.629-1.764-24.958-.021-.389-1.963-.049-1.931.517z" fill="#231f20"/>
 <path d="m295.661,112.208c-1.572-28.755-51.252-44.476-76.303-43.845-34.486.868-82.129,18.139-91.853,41.505-5.024-.837-9.125,4.928-5.727,6.815 1.611.894 61.436-4.847 99.549-11.822 47.038-8.608 76.302,16.243 78.404,16.171 3.998-.134 5.476-9.437-4.07-8.824z" fill="#d24c30"/>
 <path d="m293.81,99.057c.373.686.511.937.904,1.88 1.416,3.304 1.783,7.689 1.214,9.013-.777,1.458-.926-.5-4.695-6.861-.13-.237-.877-1.288-1.19-1.846 .254-.737-10.234-16.441-36.013-24.584-24.746-10.232-61.399-6.76-93.096,7.853-7.849,3.641-15.396,8.027-21.676,13.545-3.152,2.74-5.848,5.856-7.947,9.208l-1.36,2.599-.342.646-.086.161c.501-.246-4.497,2.5-2.413,1.337l-.064.003-.253.01c-.333.045-.676-.099-1.005.033-1.305.159-2.745,1.343-2.991,2.275-.004.441-.155.325.031.379-1.455-.24.929-.019 1.492-.133 1.962-.078 3.956-.22 5.917-.363 3.931-.3 7.784-.647 11.532-1.003 7.497-.716 14.58-1.479 21.109-2.226 26.126-2.976 43.375-5.788 43.373-5.773 .116.262 10.992-2.213 26.728-3.643 15.668-1.397 35.594,2.309 50.149,9.427 6.221,2.893 11.035,5.907 14.843,8.36 1.943,1.77 3.146.857 3.981-.668 .632-1.433.468-2.956-.153-3.933-3.272-3.451-5.674-2.334-3.903-2.777 .706.001 2.315.018 4.063,1.447 1.636,1.382 2.715,5.155-.19,7.768-.788.505-1.739,1.118-3.056.483-.823-.407-1.523-.8-2.26-1.223-1.47-.838-2.993-1.715-4.617-2.584-3.218-1.782-6.826-3.462-10.646-5.095 1.675.839-16.828-7.886-37.309-7.824-10.186-.291-20.143,1.419-27.919,2.955-7.731,1.393-12.938,2.182-12.938,2.192-.002-.018-17.106,2.691-42.95,5.574-6.461.722-13.468,1.461-20.9,2.145-3.719.337-7.536.674-11.477.93-2.414-.103-2.971.754-7.176-.309-3.742-2.536-1.611-7.343.276-8.56 1.017-.889 2.196-1.612 3.55-1.917 .657-.228 1.333-.336 2.044-.281l1.051.024 .262.011 .131.007c-4.68,2.636-1.27.678-2.302,1.242l.191-.37c1.075-1.929 1.914-4.071 3.35-5.759 2.503-3.689 5.737-6.765 9.129-9.574 6.837-5.604 14.658-9.918 22.717-13.509 16.185-7.062 33.436-11.504 50.006-13.03 16.762-1.957 32.46,1.777 45.088,6.023 26.163,8.217 37.981,25.246 37.796,26.315z" fill="#231f20"/>
 <path d="m295.433,133.812c-14.213,17.799-35.142,30.449-88.838,35.522-27.604,2.607-72.22-17.818-82.183-41.408-3.499-2.266-6.65-6.411-3.231-8.259 1.765-.956 48.839,13.131 93.022,16.065 41.403,2.749 83.463-10.787 85.398-10.7 3.996.178 5.373,9.497-4.168,8.78z" fill="#d24c30"/>
 <path d="m286.104,140.69c.507-.481.689-.654 1.427-1.21 4.79-3.979 12.334-10.467 3.148,2.626-.188.226-1.108,1.274-1.607,1.773-.455.542-14.582,14.461-41.033,20.814-13.046,3.306-28.189,5.873-44.873,6.957-17.062.227-34.382-5.417-49.976-13.729-15.651-8.283-29.653-20.717-34.719-38.764 .896-.648.625-1.083 2.672-1.676 1.232-.042 1.498.099 2.128.17 1.057.187 2.062.392 3.049.607 1.978.429 3.91.875 5.819,1.317 3.817.885 7.539,1.752 11.166,2.572 7.252,1.642 14.118,3.109 20.472,4.355 25.417,5.067 42.578,6.386 42.563,6.425 .019-.117 11.106,1.571 26.183,1.188 15.093-.23 34.064-2.761 49.493-5.948 6.557-1.338 11.895-2.65 16.312-3.616 2.851-.93 4.779,1.99 4.776,3.703 .245,1.931-.654,3.554-1.711,4.37-4.749,2.519-6.283.622-4.814.895 .806.204 7.24-1.342 4.579-6.546-1.067-2.187-4.659.246-8.188.83-3.539.976-7.396,1.981-11.456,2.942 1.716-.386-17.692,4.552-38.109,6.381-20.441,2.254-41.438-.304-41.359-.272 .015-.038-17.123-1.574-42.325-6.734-6.301-1.27-13.106-2.754-20.28-4.398-3.586-.82-7.266-1.686-11.014-2.543-1.866-.421-3.779-.861-5.614-1.196-.43-.081-.958-.159-1.188-.17 .312-.105.807-.23.38-.034-.08.144-.176-.082.023.522 .366,1.04 1.706,2.48 3.096,3.452 2.911,3.195 2.252,3.844 3.707,5.843 2.17,3.247 4.69,6.386 7.699,9.152 5.914,5.626 12.973,10.326 20.417,14.234 14.889,7.662 31.677,12.824 47.258,12.273 15.876-1.157 30.861-3.711 43.293-6.909 25.344-6.281 38.08-19.141 38.606-19.656z" fill="#231f20"/>
 <path d="m198.62 32.747c-0.375 11.411-7.26 20.446-15.377 20.18s-14.393-9.736-14.018-21.146 8.389-12.262 16.506-11.994 13.263 1.548 12.889 12.96z" fill="#fff"/>
 <path d="m196.805,35.176c.019-.172.025-.233.123-.451 .598-1.44 1.991-3.958 2.904.207 .017.078.067.445.061.629-.076.182-.211,5.248-4.054,11.398-1.957,2.917-5.14,6.292-9.894,7.231-4.745,1.046-9.947-1.418-12.875-5.169-5.878-7.671-6.765-17.702-3.68-24.537 4.455-6.951 10.743-5.663 10.263-6.077-.003-.001 3.042-.267 6.934.092 3.605.125 9.957,1.258 11.546,5.969 1.874,7 .189,8.993.271,8.272-.412-.634-.154-4.357-1.94-7.751 .315.27-2.048-3.779-7.382-3.689-5.021-.411-10.072.21-9.978.318 .286.192-4.858-.165-7.273,4.967-2.014,5.125-1.299,14.805 3.898,20.791 2.545,3.009 6.418,4.592 9.88,3.741 3.49-.765 6.086-3.494 7.715-5.999 3.248-5.252 3.433-9.786 3.481-9.942z" fill="#231f20"/>
 <path d="m192.12,33.219c-.137,4.16-3.62,7.421-7.78,7.284-1.101-.037-2.139-.307-3.068-.763-.529-.259 3.316-6.77 3.316-6.77-.595-.49-7.292,2.845-7.292,2.845-.812-1.247-.293-1.492-.241-3.093 .137-4.159 3.62-7.421 7.781-7.285s7.421,3.622 7.284,7.782z" fill="#231f20"/>
 <path d="m259.746,34.422c.739,4.772-2.529,9.24-7.303,9.98-1.712.263-3.385.013-4.86-.638-.489-.215-.955-.473-1.391-.771-.89-.606 4.136-5.691 3.516-6.586-.726-1.052-7.034,2.039-7.243.692-.737-4.771 2.529-9.24 7.303-9.979s9.238,2.532 9.978,7.302z" fill="#231f20"/>
 <path d="m272.388,235.188 8.408-16.931 10.537-2.327-3.585-10.934 11.713-4.818-5.894-9.868 6.709-4.265 1.966-5.403c.811-8.698-6.21-15.764-15.478-18.485-3.849-1.284-7.431-.989-10.054-1.173 .714-5.758 6.27-3.843 6.801-5.559 7.326-23.612 30.806-40.433 34.533-43.411 11.586-9.258 30.081-4.66 35.911,2.987s16.78,30.914 6.531,54.393-44.056,68.354-88.098,65.794" fill="#d24c30"/>
 <path d="m278.919,226.975c-.317.635-.432.866-.94,1.652-3.423,5.496-8.979,13.099-3.853-1.478 .095-.268.574-1.516.858-2.128l1.657-3.337 1.771-3.563 .262-.528 .135-.271 .017-.034c2.987-2.348.85-.656 1.525-1.182l.075-.017 .15-.033 1.246-.275 2.717-.6c1.909-.421 4.01-.885 6.285-1.387 1.457-2.532-1.918,3.44-1.583,2.802l-.017-.052-.034-.104-.069-.209-.138-.421-.28-.854-.575-1.756-1.211-3.694-.634-1.935-.324-.989-.164-.5-.082-.251-.042-.126c-.289.564 2.373-5.171 1.278-2.754l.062-.025 4.037-1.66 4.24-1.744 2.193-.902 1.114-.458c.266-.691-1.958,5.946-1.04,3.104l-.039-.065-.077-.13-.156-.261-.312-.524-5.21-8.724c-1.536-1.753 1.526-3.774 1.061-3.376l.558-.355 1.124-.714 2.271-1.444 2.306-1.465c.224-.25-1.646,2.037-.843,1.029l.029-.081 .059-.162 .118-.324 .236-.65 .476-1.306c2.881-5.787-1.649-13.139-8.109-16.396-3.333-1.755-6.954-2.945-10.798-3.009l-3.143-.12-.409-.016-.103-.004c.386.55-3.849-4.692-2.037-2.538l.06-.255 .258-1.02c.139-.675.383-1.35.895-2.022 1.849-2.585 5.586-3.836 6.595-2.604 .349-7.105 6.44-15.897 11.4-22.462 5.412-6.929 11.768-12.991 18.397-18.402 5.879-5.706 15.416-10.254 23.912-9.096 8.294.643 17.157,4.064 21.328,11.402 4.085,6.534 6.525,13.334 8.014,19.796 2.873,13.019.953,24.505-1.929,31.683-2.79,7.254-5.204,10.83-5.13,10.885-.015-.03-5.36,10.051-15.279,21.607-9.759,11.598-24.729,24.272-39.505,30.176-12.453,5.119-21.425,5.374-26.331,5.3-4.971-.234-6.226-.623-4.835-.741 2.672-.189 16.491-.021 31.11-7.208-1.559.868 16.342-7.362 29.771-22.173 13.97-14.183 23.163-32.418 23.008-32.386-.709.241 10.663-14.841 4.086-39.21-1.635-5.818-4.233-12.167-8.221-17.623-3.921-4.712-11.593-7.258-18.805-7.203-7.689-.271-13.812,4.048-20.15,9.606-6.274,5.246-12.145,11.182-17.139,17.755-2.422,3.329-4.761,6.738-6.584,10.387-.976,1.792-1.745,3.674-2.541,5.528l-1.016,2.844c-.291.394.135.793-1.563,2.502-.998.573-1.793.708-2.25.798-2.211.427-2.574.773-3.012,2.019l-.132.493-.078.245c-4.019-4.917-1.062-1.361-1.935-2.458l.093.003 .184.007 1.473.055c1.04.055 2.101.047 3.191.157 4.494.413 8.621,1.883 12.389,4.042 7.421,4.045 12.855,14.104 8.696,21.975l-.469,1.288-.117.321-.028.08c-.407.517.869-1.044-.92,1.179l-.144.091-.573.365-2.273,1.445-2.24,1.424-1.107.704c-.374.273.665-.41.65-1.048l.02-.46c.034.03-.58-2.178-.296-1.19l.083.14 .334.558 5.139,8.604 .154.259 .077.129 .038.064c-.456,1.43 1.076-3.109-1.013,3.222l-.554.228-1.1.452-2.163.89-4.183,1.72-2.017.83-.989.407-.49.202-.121.05-.062.025c-1.143,2.433 1.48-3.291 1.226-2.675l.082.25 1.27,3.874 1.195,3.644 .567,1.732 .276.843 .137.416 .034.103c-.718,1.277 1.629-2.786-1.604,2.877l-.054.012-.211.046-6.201,1.37-2.682.592-1.23.272-.148.033c2.973-2.33.814-.626 1.474-1.138l-.017.034-.034.067-.133.267-.259.521-1.747,3.52-1.64,3.303z" fill="#231f20"/>
 <path d="m126.572,111.698c7.667.137 35.101-1.833 57.798-6.229s36.961-6.169 43.755-7.451c12.969-2.446 24.804,3.509 17.796,3.207-18.598-.802-43.128,5.291-56.009,6.355-16.909,1.397-49.644,7.734-61.434,8.439-7.065.421-7.581-3.161-1.906-4.321z" fill="#f89d6f"/>
 <path d="m64.966,32.447c-1.467-1.048-2.417-2.582-2.868-4.097 6.046-1.302 25.823,5.852 31.704,9.547-4.678,5.35-24.003-.289-30.385-4" fill="#f89d6f"/>
 <path d="m100.689,58.188c-2.277-5.154 5.368-6.3 7.481-9.732 1.598-2.949 2.073-6.962 3.655-9.412 4.382,3.646 11.838,13.695 14.657,19.291-4.515.352-8.637-4.585-13.119-5.232-4.497-.148-5.611,3.317-9.659,4.686" fill="#f89d6f"/>
 <path d="m24.484,41.789c-.265-3.133 18.271-2.851 23.571-5.02 2.844,2.412-18.287,11.697-23.571,5.02z" fill="#f89d6f"/>
 <path d="m11.09 59.744c1.663-4.949 5.326-9.831 8.439-13.23 5.299 6.178-5.793 8.815-7.957 13.747" fill="#f89d6f"/>
 <path d="m39.631,74.19c2.982.599 6.979.309 8.545-1.641-2.466-1.082-5.464-.759-8.03,1.157" fill="#f89d6f"/>
 <path d="m53.754,70.652c3.499.114 6.997.229 9.979.828-2.065,1.933-5.563,1.818-7.996-.263" fill="#f89d6f"/>
 <path d="m135.366,103.678c4.892-11.846 30.019-21.323 40.644-24.976 16.705-5.955 32.778-7.927 50.285-7.853 6.997.23 31.418,3.035 14.713,8.989-8.095,2.735-20.376-2.699-28.371-2.961-13.98-.459-33.008,13.398-47.939,19.074-10.688,4.061-17.228,8.741-29.332,7.727" fill="#f89d6f"/>
 <path d="m75.557,67.2c3.46,1.012 11.3,2.977 15.106,6.032-4.9.491-15.992,1.103-16.093-5.738" fill="#f89d6f"/>
 <path d="m46.319,107.759c-.511-4.25-2.042-7.231-3.561-10.537 4.976-2.767 14.809-4.724 20.381-5.843 1.141,4.922-12.174,3.833-14.894,7.326-1.376,2.234-.192,5.855-1.568,8.089" fill="#f89d6f"/>
 <path d="m23.723 122.76c3.056-3.808 6.543-10.858 10.837-12.67 1.508 3.632-6.986 14.423-9.85 12.375" fill="#f89d6f"/>
 <path d="m13.917,139.418c1.722-2.874 4.106-6.053 5.167-8.622-3.285.869-3.728,4.436-4.799,7.332" fill="#f89d6f"/>
 <path d="m48.994 142.2c2.688-2.517 4.096-5.727 6.762-7.594 2.517 2.689-1.189 6.475-3.824 7.365" fill="#f89d6f"/>
 <path d="m291.46 156.03c3.898-9.642 10.4-19.196 16.848-27.125 4.745-5.706 12.863-14.882 20.398-16.263 17.368-3.336 21.397 12.752 18.347 26.328s-14.953 19.046-27.129 22.879c-8.879 2.639-22.29 4.478-28.171-4.833" fill="#f89d6f"/>
 <path d="m313.142,100.737c3.992-2.474 20.373-5.517 22.121.728-5.312,3.081-19.225.344-24.765.488" fill="#f89d6f"/>
 <path d="m111.628,93.728c-5.892-2.155-25.188-6.723-30.088,2.504 1.917,8.88 19.782-7.16 37.681,3.768 2.261.942-1.054-3.881-7.593-6.272z" fill="#f89d6f"/>
 <path d="m281.36 77.935c7.394-6.921 14.09-12.561 19.572-20.847 2.395-3.503 10.129-20.833 11.381-9.395 1.285 10.462-22.031 46.167-30.649 30.905" fill="#f89d6f"/>
 <path d="m321.869,43.387c3.63-1.508 35.988-15.098 37.802-10.805 2.713,6.602-13.039,10.316-16.975,11.164-4.91.815-19.773,7.166-21.489-.056" fill="#f89d6f"/>
 <path d="m368.627,37.435c4.555.149 9.13-.352 13.717-1.177 4.899-.49 11.08-.287 3.807,3.056-3.968,1.823-12.762,1.859-16.243-1.186" fill="#f89d6f"/>
 <path d="m325.45 79.437c6.535-2.886 14.332-5.307 21.409-7.152 2.011-0.434 8.836-2.96 6.004 1.969-1.612 2.77-12.537 3.866-15.554 4.517-3.413 1.263-7.007 1.197-10.637 1.456" fill="#f89d6f"/>
 <path d="m359.157,97.692c5.215-.155 10.681,1.978 15.863,2.799 2.58.737 13.002.753 7.344,4.476-4.998,3.417-25.938-3.458-29.387-7.479" fill="#f89d6f"/>
 <path d="m172.145,121.839c15.812,4.6 33.631,3.192 49.695.89 15.479-2.219 33.219-5.93 45.749-15.921 1.025-.818-.517-1.559-1.297-.937-12.482,9.954-30.228,13.365-45.627,15.572-15.288,2.191-32.392,3.419-47.417-.953-.869-.251-2.281,1.006-1.103,1.349z" fill="#231f20"/>
 <path d="m182.805,248.422-13.401-18.451-11.327-.373 .46-13.992-13.238-3.104 3.104-13.239-.866-4.065-6.316.289c-7.186-3.739-3.153-20.241 1.931-26.697 2.699-3.337 9.936-8.123 15.578-8.394-1.125-2.621-6.496-6.152-11.614-4.04-14.494-25.819-41.585-43.059-46.119-45.729-14.396-8.478-31.768,1.322-35.449,11.873s-8.021,41.093 9.138,67.003c17.154,25.911 64.327,72.152 108.119,58.919" fill="#d24c30"/>
 <path d="m177.862,237.38c.48.664.654.904 1.188,1.843 3.8,6.43 8.63,16.157-3.502,3.1-.222-.24-1.241-1.4-1.714-2.017l-2.526-3.479-2.698-3.714-.812-1.119-.211-.292-.107-.147-.054-.074-.027-.037c-.426-.241 3.632,1.93 1.892,1.012l-.748-.025-3.208-.105-3.548-.117-1.897-.062-.979-.032-.497-.016-.25-.008-.125-.004c2.132,2.291-2.981-3.117-2.448-2.588l.002-.063c.089-2.688.184-5.583.286-8.667 .051-1.542.103-3.131.157-4.765l.01-.307 .005-.154c3.841,4.97 1.022,1.368 1.86,2.472l-.075-.018-.603-.141-1.218-.286-2.483-.583-5.15-1.208-2.664-.625-.675-.158-.169-.04-.084-.02c1.631,2.661-2.328-3.641-1.903-3.029l.08-.339 .32-1.368c.859-3.664 1.753-7.475 2.676-11.414-.152,1.18-.407-1.385-.607-1.906l-.161-.755-.081-.379c-.548-.474 4.774,3.696 2.472,1.937l-.097.004-.194.009-1.557.071-3.148.144-.794.036-.195.009 .127-.017c4.277-1.921-2.875-7.53-.396-4.94 .947-4.189-1.513,5.719-1.302,4.663l-.119-.077-.238-.156c-.609-.441-1.312-.814-1.763-1.411-3.939-4.766-3.21-10.151-2.518-14.768 .953-4.74 2.475-9.341 5.583-13.683 3.607-4.238 7.822-6.765 12.839-8.658 1.285-.409 2.603-.771 4.063-.899l.533-.068 .133-.017c.534-.754-4.015,6.534-2.113,3.427l-.066-.086-.216-.372c-.326-.272-.499-.618-.902-.874-1.409-1.141-3.331-1.853-5.064-1.776-.438.005-.879.01-1.283.185l-.626.168-.159.038c2.753.965-3.842-1.283-3.182-1.098l-.058-.096-.231-.382-1.848-3.065c-1.244-2.04-2.649-3.998-4.037-5.963-2.87-3.875-6.002-7.587-9.328-11.129-6.695-7.044-14.128-13.421-21.919-18.99-7.743-6.029-15.731-9.884-24.24-7.204-18.679,4.143-18.655,25.329-18.516,38.875 1.297,29.417 16.685,44.159 15.961,44.174 .009-.046 7.25,10.406 19.596,22.309 12.204,11.899 29.935,24.968 46.936,30.36 14.374,4.689 24.521,3.653 30.043,2.901 5.584-.933 7.075-1.298 5.614-.569-2.625,1.54-18.944,6.118-37.63-.048 1.921.948-20.56-6.154-38.573-21.491-18.553-14.432-32.744-34.057-32.593-34.138 .669.289-14.313-16.476-14.403-47.102 .07-7.498.731-15.579 3.403-24.028 3.474-9.122 12.304-15.13 22.105-16.698 4.933-.749 10.292-.14 14.971,2.177 4.66,2.339 8.336,5.121 12.354,7.996 7.816,5.81 15.304,12.355 22.008,19.712 3.382,3.647 6.51,7.547 9.392,11.611 1.426,2.045 2.825,4.104 4.066,6.268l.962,1.598 .24.399 .06.1c-6.227-2.108-1.646-.609-3-1.091l.28-.085 1.127-.324c1.483-.418 3.113-.476 4.577-.195 2.994.527 5.617,1.891 7.709,4.308 .264.295.499.741.731,1.117l.169.296 .083.149c-.951,1.587 2.245-3.343-2.112,3.597l-.358.056-1.432.201c-.986.306-1.977.525-2.955.992-3.83,1.642-7.866,4.317-9.828,7.402-4.03,6.565-6.372,17.714-2.323,21.423l.367.269 .044.037c.261-1.004-2.136,8.913-1.114,4.71 1.098-1.851-1.966,4.326-.322-4.939 .452-.063.331-.032.436-.044l.403-.019 1.569-.072 3.105-.142 .769-.035 .192-.009c-.511-.443 4.865,3.755 2.596,2.026l.02.094 .08.375 .318,1.493 .315,1.481c.013.73.193-.593.069,1.822l-.171.729c-.911,3.885-1.792,7.644-2.639,11.258l-.159.676-.079.337c-.825-1.312 1.818,3.056-1.854-2.92l.084.02 .168.04 1.335.313 2.627.616 5.081,1.191 2.45.574 1.201.281 .149.035 .074.018c-1.696-2.229 2.401,3.051 1.971,2.541l-.01.305-.02.606c-.053,1.612-.104,3.179-.154,4.701s-.099,2.996-.146,4.422l-.069,2.102-.033,1.023-.017.504-.008.25c-1.07-1.128 2.393,2.614-2.4-2.515l.062.002 .125.004 7.324.241 3.167.104 .372.012 .184.006 .046.001c.876.459-1.897-1.026 1.976,1.03l.054.074 .42.58 .802,1.104 2.664,3.668 2.503,3.44z" fill="#231f20"/>
 <path d="m110.75 125.99c-6.66-5.428-13.57-13.146-22.731-11.818-8.175 1.033-15.523 6.653-16.777 15.078-0.843 5.833-2.297 12.107-1.239 17.869 6.076 33.089 17.728 45.196 23.651 53.206 6.552 8.682 6.383-5.978 2.075-13.609-5.839-10.611-13.793-26.178-8.833-38.389 4.234-9.955 10.394-9.102 18.318-12.423 3.296-1.195 9.018-6.868 5.536-9.914" fill="#f89d6f"/>
 <path d="m183.577,86.358c-.085-.006-.117-.009-.224-.091-.748-.492-1.792-1.695.146-2.911 .036-.022.202-.1.285-.107l5.402.362 2.534.17 1.378.092 .354.023c-2.333.87-.503.095-.958.222l.508-.519 4.273-4.362 1.087-1.109 .541-.552 .269-.275 .134-.137 .067-.068 .009-.009c-2.187-.276 2.988.366 2.457.305l.012.021 .024.042 1.5,2.588 2.657,4.582 1.06,1.828 .442.762 .196.338 .023.04 .006.01 .003.005-2.488-.257 .015-.017 .06-.067 .116-.129 .943-1.058s3.811-3.799 6.67-6.296c4.746-4.332 3.562-1.966 1.203,1.239 .326-.264-5.863,7.467-5.863,7.467s-.084.095-.243.273l-.292.328-.185.208-.102.114-.006.008-2.515-.254-.002-.004-.01-.018-.021-.035-.041-.071-1.851-3.19-2.621-4.517-.731-1.26-.373-.642-.188-.324-.047-.081-.023-.041-.012-.021-.006-.01c-.537-.074 4.656.585 2.454.311l-.131.135-2.134,2.179-4.212,4.303-.501.512-.124.126c-2.474.97-.787.262-1.385.476l-.349-.023-1.359-.091-2.499-.167-5.332-.356z" fill="#231f20"/>
 <path d="m215.137,92.834c.077-.034.105-.047.237-.025 .881.08 2.358.647 1.259,2.628-.02.036-.127.183-.195.229l-4.847,2.225-4.799,2.204-.661.303-.021.01-.01.005c-3.823-1.007-1.063-.285-1.919-.512l-.026-.038-.054-.074-.107-.149-.215-.301-.874-1.217-1.78-2.48-1.776-2.476-.87-1.212-.214-.299-.054-.074-.006-.01c-2.192-.079 2.979.096 2.443.083l-.015.018-.029.035-.116.14-.462.555-3.338,4.009-.358.431-.173.208-.043.051-.021.026-.005.006c-.999.068 2.229-.144-2.241.155l-.012-.011-.096-.089-.727-.667-1.181-1.085-1.028-.944s-3.682-3.813-6.094-6.672c-4.189-4.746-1.87-3.552 1.255-1.186-.254-.326 7.273,5.878 7.273,5.878s.368.338 1.014.931l1.165,1.069 .348.319 .182.167c.492-.03-4.261.289-2.247.15l.005-.006 .01-.012 .02-.024 .041-.049 .082-.098 .69-.829 3.29-3.955 .227-.273 .114-.137 .057-.069 .015-.017 .007-.008c1.102.037-2.455-.096 2.471.081l.026.036 .422.587 .858,1.195 1.752,2.44 1.756,2.444 .862,1.2 .213.296 .053.074 .026.037 .013.019 .007.009c.418.116-3.623-.961-1.907-.508l.165-.076 .651-.299 4.732-2.175 4.78-2.197z" fill="#231f20"/>
</svg>
