<?xml version="1.0" encoding="UTF-8"?>
<svg enable-background="new" version="1.1" viewBox="0 0 234.08 300.53" xmlns="http://www.w3.org/2000/svg" xmlns:xlink="http://www.w3.org/1999/xlink">
 <defs>
  <linearGradient id="a" x1="611.84" x2="601.24" y1="858.84" y2="819.65" gradientTransform="matrix(.44735 -.072914 .072914 .44735 -199.92 438.76)" gradientUnits="userSpaceOnUse">
   <stop stop-color="#0eedf8" offset="0"/>
  </linearGradient>
  <linearGradient id="b" x1="467.53" x2="635.33" y1="908.87" y2="968.84" gradientTransform="matrix(.44735 -.072914 .072914 .44735 -199.92 438.76)" gradientUnits="userSpaceOnUse">
   <stop stop-color="#0eedf8" offset="0"/>
  </linearGradient>
  <linearGradient id="c" x1="634.44" x2="637.26" y1="800.68" y2="793" gradientTransform="matrix(.44735 -.072914 .072914 .44735 -199.92 438.76)" gradientUnits="userSpaceOnUse">
   <stop stop-color="#0eedf8" offset="0"/>
  </linearGradient>
  <linearGradient id="d" x1="518" x2="542.46" y1="925.6" y2="880.77" gradientTransform="matrix(.36882 -.065711 .051457 .38442 -131.54 497.71)" gradientUnits="userSpaceOnUse">
   <stop stop-color="#09f1f8" offset="0"/>
  </linearGradient>
  <linearGradient id="e" x1="457.55" x2="555.39" y1="916.1" y2="928.65" gradientTransform="matrix(.36882 -.065711 .051457 .38442 -131.54 497.71)" gradientUnits="userSpaceOnUse">
   <stop stop-color="#09f1f8" offset="0"/>
  </linearGradient>
  <linearGradient id="f" x1="524.72" x2="526.28" y1="875.38" y2="862.96" gradientTransform="matrix(.36882 -.065711 .051457 .38442 -131.54 497.71)" gradientUnits="userSpaceOnUse">
   <stop stop-color="#09f1f8" offset="0"/>
  </linearGradient>
  <linearGradient id="k" x1="653.99" x2="705.91" y1="937.63" y2="975.36" gradientTransform="matrix(.45322 -.0056026 .0056026 .45322 -141.82 395.99)" gradientUnits="userSpaceOnUse">
   <stop stop-color="#09f1f8" offset="0"/>
  </linearGradient>
  <linearGradient id="l" x1="718.81" x2="721.66" y1="885.89" y2="875.11" gradientTransform="matrix(.45322 -.0056026 .0056026 .45322 -141.82 395.99)" gradientUnits="userSpaceOnUse">
   <stop stop-color="#09f1f8" offset="0"/>
  </linearGradient>
  <linearGradient id="g" x1="653.99" x2="705.91" y1="937.63" y2="975.36" gradientTransform="matrix(.18229 -.12679 .12679 .18229 -118.21 762.79)" gradientUnits="userSpaceOnUse">
   <stop stop-color="#09f1f8" offset="0"/>
  </linearGradient>
  <linearGradient id="h" x1="718.81" x2="721.66" y1="885.89" y2="875.11" gradientTransform="matrix(.18229 -.12679 .12679 .18229 -118.21 762.79)" gradientUnits="userSpaceOnUse">
   <stop stop-color="#09f1f8" offset="0"/>
  </linearGradient>
  <linearGradient id="i" x1="457.55" x2="555.39" y1="916.1" y2="928.65" gradientTransform="matrix(.24284 .097366 -.087964 .21939 108.67 586.21)" gradientUnits="userSpaceOnUse">
   <stop stop-color="#09f1f8" offset="0"/>
  </linearGradient>
  <linearGradient id="j" x1="524.72" x2="526.28" y1="875.38" y2="862.96" gradientTransform="matrix(.24284 .097366 -.087964 .21939 108.67 586.21)" gradientUnits="userSpaceOnUse">
   <stop stop-color="#09f1f8" offset="0"/>
  </linearGradient>
 </defs>
 <g transform="translate(-177.66 -177.74)">
  <g transform="matrix(2.074 0 0 2.074 -12.37 -1367.1)" enable-background="new">
   <path d="m153.81 753.82 2.385 3.5774 13.713 14.31-8.9436 62.009h4.1737l4.7699-19.08 20.272-20.868 8.9436 1.7887 5.3661 21.465-20.868 35.774s5.3661 5.9624 7.1548 9.5398c1.7887 3.5774 3.5774 8.9436 2.385 14.31-1.1925 5.3661-3.9734 8.5221-11.925 11.329-10.136 3.5774-21.465 0-24.446-1.1925-2.9812-1.1925-2.385 0.59624-5.3661 2.385s-11.147-1.0128-17.812-0.93967c-54.299 0.59552-37.506-22.886-33.745-22.819 0 0 6.2502 6.5427 4.4614-0.61214-1.7887-7.1548 2.3786-6.6333 5.3598-9.0183s-0.59624-7.7511-0.59624-7.7511l-12.521-29.216 6.5586-13.117 8.3473-4.1737 13.117 7.7511 5.3661 29.216h3.5774l-7.7511-62.605 14.31-19.676z" color="#000000" enable-background="accumulate" fill="#9f9f9f"/>
   <path d="m117.03 843.09c-3.6578-1.9566-12.144 1.2853-14.497 3.8082-3.8427 3.7771-9.1564 7.4837-9.3565 13.573-0.84486 4.6236 0.19203 10.309 4.7457 12.394 4.5618 2.9708 9.7167 4.7701 14.659 6.8775 6.552 1.4999 13.283-0.10602 19.89 0.78426 5.7397-0.0349 7.943 2.8388 12.053-0.51906 3.8816-2.6244 3.7813-3.9388 7.7548-2.3693 7.3125 2.1446 21.26 0.23039 28.968-1.6906 4.2756-1.1739 6.972-5.4625 7.1381-9.9269 0.85104-7.1092-2.8449-13.75-6.9431-19.085-2.9662-3.4476-5.3597-1.1227-9.2316-3.4155-6.1196-2.5465-13.172-4.6227-18.763-2.2878-5.9665 1.7693-12.247 0.78155-18.357 0.8476-7.7448-0.25603-10.384-0.38137-18.06 1.0095z" fill="#6e6d6c" stroke="#595050" stroke-width=".90651"/>
   <path d="m110.76 858.76 11.5 9.6033 12.215-5.9606-1.4763 7.084 12.916-6.3964 2.3173 3.504c33.202-9.5238 2.4077 4.1232 35.21-5.7297-3.0487-7.1691-9.4572-6.07-12.506-6.1301l-4.5354-4.3434-45.614 4.9468z" fill="#373737"/>
   <g transform="matrix(.44735 -.072914 .047351 .29051 -173.25 602.34)" stroke="#0672e4" stroke-linecap="round" stroke-linejoin="round" stroke-width="2.4818">
    <path d="m582.71 713.51 28.685 21.955 12.053 8.8014c-30.908 296.27 0.54707 0.0975-31.021 297.69l-20.901-19.42z" fill="#065de2"/>
    <path d="m636.09 673.35-12.399 72.725 53.77-24.55-28.025-66.35z" color="#000000" enable-background="accumulate" fill="#065de2"/>
    <path d="m582.71 713.51 40.682 31.658 12.519-70.934-11.949-18.542z" fill="#06a5e6"/>
    <path d="m623.19 745.6c0 8.1918-30.923 296.11-30.923 296.11s31.138-13.985 29.5-18.9c-1.6384-4.9151 55.695-301.29 55.695-301.29z" fill="#0539df"/>
    <path d="m623.97 655.69 25.456-0.87548-13.508 19.417z" color="#000000" enable-background="accumulate" fill="#06cde8"/>
   </g>
   <path d="m123.02 766.13 16.213 4.6762 2.0782-18.432z" color="#000000" enable-background="accumulate" fill="url(#a)"/>
   <path d="m144.91 751.99-1.8479 18.598 18.108-8.6438z" color="#000000" enable-background="accumulate" fill="#2198ed"/>
   <path d="m122.71 769.23s17.268 4.9109 16.572 5.6342-0.26915 84.413-0.46283 83.225c-0.19367-1.1882-16.11-88.859-16.11-88.859z" color="#000000" enable-background="accumulate" fill="#2198ed"/>
   <path d="m143.11 774.65-0.2046 84.809 19.105-93.582z" color="#000000" enable-background="accumulate" fill="url(#b)"/>
   <path d="m139.53 747.83 3.273 2.6517s3.107-3.6485 2.9393-3.6212c-1.6571 0.26036-5.4068 0.77524-6.2123 0.96951z" fill="url(#c)"/>
   <g transform="matrix(.36882 -.065711 .044592 .33313 -114.02 550.71)" stroke="#0675e1" stroke-linecap="round" stroke-linejoin="round" stroke-width="2.1485">
    <path d="m494.31 847.4 4.2473 38.152 12.511 149.42-23.105-22.68-33.735-148.43 23.614-28.675z" fill="#0660e0"/>
    <path d="m454.23 863.86 44.165 21.52-3.5746-36.767-17.219-14.144z" fill="#06a7e2"/>
    <path d="m494.56 848.52 19.166-11.756 18.883 22.065-34.214 26.554z" fill="#0660e0"/>
    <path d="m498.4 885.38 12.674 149.59 21.61-25.262-0.0708-150.88z" fill="#053adf"/>
    <path d="m477.6 834.47 16.958 14.049 19.166-11.756-13.799-13.17z" fill="#06cde2"/>
   </g>
   <path d="m93.82 810.51c14.902 4.1403 14.446 4.6918 14.446 4.6918l9.8812 42.758z" fill="#2198ed"/>
   <path d="m94.564 807.12s12.093 3.9565 12.729 3.8431-2.3785-9.252-2.3785-9.252z" color="#000000" enable-background="accumulate" fill="#2198ed"/>
   <path d="m108.06 801.05 2.0769 9.5755 7.9291-9.079z" color="#000000" enable-background="accumulate" fill="url(#d)"/>
   <path d="m110.76 813.83 10.425 43.726-0.99704-53.487z" color="#000000" enable-background="accumulate" fill="url(#e)"/>
   <path d="m100.61 797.02 10.142-1.6033-4.5895 3.6691z" fill="url(#f)"/>
   <path transform="matrix(.38778 .12569 -.12569 .38778 18.117 389.68)" d="m585.61 835.01-27.617-36.261-32.831 31.617 25.952-37.47-40.215-21.453 43.656 13.103 7.9763-44.876 1.0289 45.568 45.145-6.2817-43.02 15.06z" color="#000000" enable-background="accumulate" fill="#f2f2f2" stroke="#93fbe6" stroke-linecap="round" stroke-linejoin="round" stroke-width="2"/>
   <path transform="matrix(.13447 .23117 -.23117 .13447 213.27 575.72)" d="m585.61 835.01-28.808-36.447-42.141 19.554 36.447-28.808-19.554-42.141 28.808 36.447 42.141-19.554-36.447 28.808z" color="#000000" enable-background="accumulate" fill="#f2f2f2" stroke="#93fbe6" stroke-linecap="round" stroke-linejoin="round" stroke-width="3.0485"/>
   <g transform="matrix(.45322 -.0056026 .0056026 .45322 -148.05 397.15)" stroke="#0675e1" stroke-linecap="round" stroke-linejoin="round" stroke-width="2">
    <path d="m657.15 1023 21.61-114.25l33.31 26.757-42.593 101.02z" color="#000000" enable-background="accumulate" fill="#0660e0"/>
    <path d="m678.76 908.75 33.31 26.757 18.566-46.415-5.4606-22.935z" color="#000000" enable-background="accumulate" fill="#06a7e2"/>
    <path d="m712.07 935.5 43.139-20.75-8.5167-43.418-16.056 17.752z" color="#000000" enable-background="accumulate" fill="#0660e0"/>
    <path d="m725.17 866.15 5.4606 22.935 16.056-17.752z" color="#000000" enable-background="accumulate" fill="#06cde2"/>
    <path d="m712.07 935.5-42.593 101.02 24.027-18.566 61.705-103.21z" color="#000000" enable-background="accumulate" fill="#0606e9"/>
   </g>
   <path d="m166.64 804.79 12.554 9.0755 7.396-18.553z" color="#000000" enable-background="accumulate" fill="#2198ed"/>
   <path d="m165.68 808.01 12.556 9.2762s-17.905 44.97-17.925 43.365c-0.0198-1.6051 5.3693-52.641 5.3693-52.641z" color="#000000" enable-background="accumulate" fill="#2198ed"/>
   <path d="m190.02 796.47-7.609 17.552 14.354-7.6021z" color="#000000" enable-background="accumulate" fill="#2198ed"/>
   <path d="m181.66 818.25s-18.946 41.973-17.155 40.747c1.7908-1.2262 31.509-48.349 31.509-48.349z" color="#000000" enable-background="accumulate" fill="url(#k)"/>
   <path d="m187.71 788.07 1.0602 4.6022 2.9674-3.448z" fill="url(#l)"/>
   <path transform="matrix(.26818 .083276 -.083276 .26818 93.755 551.59)" d="m585.61 835.01-28.808-36.447-42.141 19.554 36.447-28.808-19.554-42.141 28.808 36.447 42.141-19.554-36.447 28.808z" color="#000000" enable-background="accumulate" fill="#f2f2f2" stroke="#93fbe6" stroke-linecap="round" stroke-linejoin="round" stroke-width="2.9033"/>
   <path d="m187.31 859.39s-3.6017-2.4656-5.1098 0.91009c-1.5081 3.3756-7.1573 6.3736-10.173 7.1238-3.0161 0.75004-6.0396-3.7501-6.0396-3.7501l-4.5262 6.0085s-9.7958 2.6269-13.943 0.37642c-4.1472-2.2504-8.291 2.9926-10.93 5.6182-2.6391 2.6255-8.6834-1.5036-11.323-4.8793-2.6391-3.3756-10.547 1.499-13.186-0.37638-2.6391-1.8754 0.37835-3.7501 0.37835-3.7501s-8.3031-1.1146-14.335-4.8653c-2.2776-1.4162-2.7774-4.0129-2.5223-6.6916-0.96692 1.5798-1.6008 3.333-1.6676 5.3532-0.83584 4.5508 0.18929 10.146 4.6944 12.198 4.5131 2.9239 9.6142 4.701 14.503 6.7752 6.482 1.4762 13.137-0.10951 19.674 0.76676 5.6784-0.034 7.8586 2.789 11.925-0.5158 3.8401-2.583 3.7341-3.8728 7.6651-2.3281 7.2344 2.1108 21.045 0.23175 28.671-1.659 4.23-1.1554 6.8842-5.3784 7.0486-9.7725 0.0775-4.6318 1.1698-3.2071-0.80375-6.5422z" fill="#453e39"/>
   <g transform="matrix(.18229 -.12679 .12679 .18229 -120.42 764.97)" stroke="#0675e1" stroke-linecap="round" stroke-linejoin="round" stroke-width="2">
    <path d="m657.15 1023 21.61-114.25l33.31 26.757-42.593 101.02z" color="#000000" enable-background="accumulate" fill="#0660e0"/>
    <path d="m678.76 908.75 33.31 26.757 18.566-46.415-5.4606-22.935z" color="#000000" enable-background="accumulate" fill="#06a7e2"/>
    <path d="m712.07 935.5 43.139-20.75-8.5167-43.418-16.056 17.752z" color="#000000" enable-background="accumulate" fill="#0660e0"/>
    <path d="m725.17 866.15 5.4606 22.935 16.056-17.752z" color="#000000" enable-background="accumulate" fill="#06cde2"/>
    <path d="m712.07 935.5-42.593 101.02 24.027-18.566 61.705-103.21z" color="#000000" enable-background="accumulate" fill="#0606e9"/>
   </g>
   <path d="m119.22 843.86 7.5851 0.23216-2.0972-9.557z" color="#000000" enable-background="accumulate" fill="#2198ed"/>
   <path d="m119.71 845.43 7.6412 0.31286s5.0923 23.159 4.6433 22.514c-0.44901-0.64557-12.284-22.826-12.284-22.826z" color="#000000" enable-background="accumulate" fill="#2198ed"/>
   <path d="m126.41 834.06 1.7359 9.2096 3.7335-7.027z" color="#000000" enable-background="accumulate" fill="#2198ed"/>
   <path d="m129 845.19s3.8469 22.229 4.2364 21.24c0.3895-0.98933-0.50295-28.267-0.50295-28.267z" color="#000000" enable-background="accumulate" fill="url(#g)"/>
   <path d="m123.17 831.29 1.6944 1.5754 0.25628-2.2138z" fill="url(#h)"/>
   <g transform="matrix(.24284 .097366 -.076228 .19012 102.82 620.18)" stroke="#0675e1" stroke-linecap="round" stroke-linejoin="round" stroke-width="2.1485">
    <path d="m494.31 847.4 4.2473 38.152 12.511 149.42-23.105-22.68-33.735-148.43 23.614-28.675z" fill="#0660e0"/>
    <path d="m454.23 863.86 44.165 21.52-3.5746-36.767-17.219-14.144z" fill="#06a7e2"/>
    <path d="m494.56 848.52 19.166-11.756 18.883 22.065-34.214 26.554z" fill="#0660e0"/>
    <path d="m498.4 885.38 12.674 149.59 21.61-25.262-0.0708-150.88z" fill="#053adf"/>
    <path d="m477.6 834.47 16.958 14.049 19.166-11.756-13.799-13.17z" fill="#06cde2"/>
   </g>
   <path d="m147.78 830.27c7.7081 7.4873 7.2624 7.6129 7.2624 7.6129l-7.2757 25.887z" fill="#2198ed"/>
   <path d="m149.28 828.76s6.0704 6.3879 6.4894 6.5558c0.41894 0.16797 1.4293-5.6874 1.4293-5.6874z" color="#000000" enable-background="accumulate" fill="#2198ed"/>
   <path d="m159.3 830.4-1.7114 5.7489 7.5941-1.9156z" color="#000000" enable-background="accumulate" fill="#2198ed"/>
   <path d="m156.98 838.05-7.2473 26.588 15.957-28.325z" color="#000000" enable-background="accumulate" fill="url(#i)"/>
   <path d="m156.06 825.64 6.6148 2.7839-3.9046 0.27944z" fill="url(#j)"/>
   <path d="m108.06 851.72c-3.5418 0.93903-2.853-6.545-6.0643-3.1854-0.55221 0.85361-1.8579 0.70996-2.3588 1.6018m77.914 5.5427c0.95909-1.4568 0.55616-3.3733 2.4379-2.0064 2.0433 1.1782 3.1266 3.0235 5.4537 2.5413 0.89594 0.64919 2.2604 1.5552 2.1513 2.7907m-13.769 4.7509c-0.20573-0.27279-0.39108-0.56056-0.64794-0.79181m14.578 7.7598c-1.0977-0.42409-2.062-3.5163-4.4136-3.5544-3.687-1.5786-7.4568-3.0366-11.123-4.6162-2.3293-0.35086-3.8057 1.612-6.1694 0.88592m-9.395 8.5516c2.7036 0.23459 5.8686 1.6689 7.0288 4.2528 1.9306-0.45845 3.8954 1.2995 5.4439 2.24m-17.008-9.5017c0.23308-0.59839 1.9249-0.45707 2.7076 0.92799 2.4714-0.0641 1.5395 3.293-0.43596 3.846-1.6924 1.2992 0.92388 1.0811-0.40715 2.4832 1.3206 0.36455-1.5849 3.0309 0.0793 2.4029m-17.818-12.352c-0.73842 2.843 4.7366 2.1811 3.7256 5.226 2.9942 0.35896 0.46812 4.2492 2.5974 5.6536 0.6896 1.6538-0.68289 3.7931-0.49165 4.6399m-18.142-15.361c1.9858 1.7969-0.0455 3.0191 0.0169 4.8726 0.89899 1.4638 1.6371 1.8328 0.85836 3.3579 2.262 1.0864 1.5846 3.0256-0.34095 3.5208 0.72635 1.6066 3.4134 0.69476 4.8111 1.7096m-11.339-18.212c-0.97406 0.68425 0.91945 6.3797-2.8398 4.6991-1.7227-0.54347-2.3745 1.1202-3.4775 1.4771m-9.0711 6.4929c-1.4869-2.6614-3.874-5.2422-3.8876-8.3932 1.973 1.2508 0.60023-2.3561 1.9074-2.5389-0.24262-2.1295-0.0856-2.8117 2.2777-2.3493 2.7604-0.76537 4.7339-2.8675 7.288-2.1596 1.1611 0.10025 1.5383-0.43807 2.4575-0.71195" fill="none" stroke="#505050" stroke-width=".47895px"/>
  </g>
 </g>
</svg>
