<?xml version="1.0" encoding="UTF-8"?>
<svg width="210mm" height="297mm" shape-rendering="crispEdges" version="1.1" viewBox="0 0 744.09448819 1052.3622047" xmlns="http://www.w3.org/2000/svg">
 <g transform="translate(667 -818.42)" stroke-width="0">
  <path d="m-530.26 862.92v135.72l117.54 67.861v-46l-77.703-44.861v-89.725l-39.838-23z"/>
  <path d="m-295.17 862.92-39.838 23v89.725l-77.703 44.861v46l117.54-67.861v-135.72z" fill="#999"/>
  <path d="m-412.71 795.06-117.54 67.861 39.838 23 77.703-44.861 77.703 44.861 39.838-23-117.54-67.861z" fill="#333"/>
  <path d="m-412.71 841.06v32.332l49.703 28.695v57.393l28 16.166v-89.725l-77.703-44.861z"/>
  <path d="m-412.71 841.06-77.703 44.861v89.725l28-16.166v-57.393l49.703-28.695v-32.332z" fill="#999"/>
  <path d="m-462.42 959.48-28 16.166 77.703 44.861 77.703-44.861-28-16.166-49.703 28.695-49.703-28.695z" fill="#333"/>
  <path d="m-462.42 902.09v57.393l49.704 28.696v-57.393l-49.704-28.696z"/>
  <path d="m-363.01 902.09-49.704 28.696v57.393l49.704-28.696v-57.393z" fill="#999"/>
  <path d="m-412.71 873.39-49.704 28.696 49.704 28.696 49.704-28.696-49.704-28.696z" fill="#333"/>
 </g>
</svg>
