<?xml version="1.0" encoding="utf-8"?>
<svg xmlns="http://www.w3.org/2000/svg" xmlns:xlink="http://www.w3.org/1999/xlink" version= "1.1" width="1273px" height="1274px" viewBox="-92 475 1273 1274">
<g id="layer1">
<g style="fill:url(#grad0); fill-opacity:1.0; stroke-linejoin: miter">
<path d="M435.51434,826.7328C504.01245,827.4074,535.2626,827.984,546.8993,828.68036L546.8474,828.6802C537.79816,840.5917,513.8502,872.04895,486.33524,907.99384C457.50357,945.6647,432.85248,977.6084,424.89795,987.60583C418.36017,978.60925,398.48383,947.5009,350.24207,870.7819C343.70154,860.3159,334.60785,845.8644,329.82584,838.27136L327.0024,833.7839L326.96805,833.73126C325.1512,830.9456,323.54178,828.3684,322.28287,826.2871L322.23367,826.2861C337.90588,826.08704,382.69003,826.2154,435.51434,826.7328 Z M687.04205,829.20605C765.5903,829.97723,793.6202,830.3758,802.9506,831.1318L802.89874,831.13184C800.92255,834.2435,798.0782,838.6934,795.1569,843.2279C793.11017,846.3379,787.4532,855.016,779.5869,867.08484C768.41565,884.2188,754.7714,905.15405,739.27277,928.8564L739.26526,928.8667C718.4207,960.94104,700.5018,987.8157,693.97296,996.99854C687.89905,989.28546,669.4758,964.4788,616.0079,892.0852L615.99994,892.0756L615.9001,891.9413C599.41364,869.61,581.8163,845.8749,576.3738,838.68787L576.3734,838.68567C573.6732,835.1203,571.13934,831.6449,569.19037,828.92993L569.13934,828.9303C580.9988,828.4429,613.47815,828.4828,685.48737,829.18915C685.5739,829.1913,685.66174,829.1913,685.7479,829.19324C686.18085,829.1976,686.6113,829.2011,687.04205,829.20605 Z M312.81003,839.66504C315.7894,844.10004,320.64008,851.688,328.17078,863.6939L328.1733,863.6969C336.50323,876.9581,347.97842,895.18616,354.43256,905.23956L354.4351,905.2674L354.44623,905.2636L354.4669,905.29535C381.94913,948.5096,403.79196,983.5953,411.41992,996.451L411.3711,996.44995C403.7087,996.47754,389.40082,996.4046,371.30927,996.2272C361.99655,996.13605,349.6288,995.99036,338.67853,995.8428L338.6874,995.84143L265.2318,994.6708L269.84573,979.62604L269.85315,979.6052C271.7055,973.4459,274.62656,964.05194,277.5408,954.6836C279.84918,947.2611,282.00522,940.33264,283.9395,934.0149C285.51855,928.8583,287.02045,923.9996,288.58353,918.94257C289.9057,914.6623,291.17654,910.55273,292.2177,907.15094C293.30872,903.5865,294.1991,900.63477,294.7129,898.8316L294.71033,898.8312C295.28912,896.98694,296.10294,894.30206,297.242,890.5407C299.13324,884.3069,301.65662,875.984,304.2828,867.60657L304.28278,867.60815C304.90936,865.612,305.51904,863.68365,306.14508,861.7198L306.16028,861.6723L306.21286,861.4977C308.80643,853.00525,311.18158,845.0886,312.76083,839.6649 Z M295.94843,844.2279C294.96423,847.6336,293.78003,851.6388,292.47137,855.9754L292.45773,856.01874L292.4547,856.0277C288.677,868.54315,283.15878,886.2039,279.92007,896.5726C279.86984,896.739,279.69843,897.28345,279.69843,897.28345C276.521,907.46387,271.93457,922.47864,269.41925,930.883L269.42328,930.90955C266.78262,939.16296,261.9375,954.80884,258.80673,965.29297C255.49197,975.85846,252.00209,987.5508,250.98067,991.3153L250.9771,991.3334L249.92165,995.29156L189.71,994.70294C166.72874,994.47675,146.62198,994.13934,135.59583,993.89325L135.54735,993.89197C158.27902,972.2222,236.27992,899.158,278.7885,859.7705C285.4025,853.65106,291.35913,848.2452,295.8844,844.22705 Z M551.2559,847.72577C551.3522,861.65485,551.2415,888.4575,550.9385,919.3664L550.9372,919.47943L550.16174,998.39026L492.43802,997.67426L492.3455,997.6735C468.53973,997.44147,447.89926,997.0784,437.55087,996.83246L437.50095,996.8321C455.5768,972.416,528.897,876.2699,551.2049,847.725 Z M829.1406,846.16943C835.6373,852.4423,845.1127,861.6637,855.6716,871.9914L855.6833,872.00366L864.63794,880.6897L878.3948,894.03125L878.3959,894.03265C898.6828,913.70605,924.1944,938.41345,944.90393,958.29346L991.812,1003.4506L935.068,1003.3063L935.0791,1003.3057C929.3126,1003.27295,922.3013,1003.22034,917.0144,1003.1688C916.9441,1003.16815,916.8745,1003.1677,916.8042,1003.16675C893.90936,1002.9426,876.2635,1002.5478,870.46344,1002.16895L870.4079,1002.16895C869.3605,999.0621,867.3629,992.221,865.3793,984.1982L865.369,984.1566C858.21515,956.47906,846.98956,913.9475,832.4015,858.9245L832.3987,858.9118C831.1309,854.1914,829.99884,849.8456,829.0729,846.1691 Z M566.4563,850.13794C566.8496,850.6466,567.2536,851.1747,567.6669,851.721L567.66504,851.7205C567.7009,851.7684,567.7329,851.8098,567.7329,851.8098L567.73804,851.83813C571.6111,857.08936,586.5504,877.3618,600.91565,896.647L600.9223,896.67426C643.4916,953.90985,668.7672,988.205,677.7204,1000.7344L677.66815,1000.7337C668.98816,1000.8571,652.64124,1000.81573,634.79895,1000.64166C634.739,1000.6414,634.6791,1000.6402,634.6184,1000.639C604.37476,1000.3423,571.83264,999.68445,568.0962,999.1216L568.08435,999.1211L565.17,998.5558L565.6233,921.0525L565.6239,921.0392C565.70416,890.2545,566.0558,863.62134,566.4053,850.1372 Z M813.203,842.7017C813.71106,844.3534,814.07135,845.7975,814.13403,846.4051L814.1266,846.406C814.1314,846.4607,814.13464,846.51013,814.139,846.5501L814.13885,846.5623C814.34827,848.8928,816.7184,858.7458,819.49884,868.7769L819.5036,868.7925C822.46857,879.31824,827.3641,897.6027,830.47876,909.59717L830.4798,909.60315L831.8764,914.9412L833.1983,919.9998C836.92346,934.24896,840.5706,948.09406,851.2296,987.8446C852.7592,993.55164,854.1028,998.7209,854.958,1002.1247L854.90515,1002.1245C844.4948,1002.4247,815.946,1002.4566,781.96814,1002.1228C749.4891,1001.8015,721.9734,1001.1583,710.53375,1000.622L710.4807,1000.6218C714.63763,993.83057,722.99243,980.6972,732.7953,965.75073C739.07666,956.16595,746.8987,944.1737,753.65735,933.8059C759.7,924.53876,765.69476,915.3482,770.0496,908.70636C771.63446,906.2886,772.57043,904.86426,773.85693,902.91583L773.8877,902.87103C782.3754,889.6125,793.8722,872.1826,799.43176,863.8549L799.46094,863.8118C801.3069,860.96326,803.0276,858.3189,804.905,855.43616C807.1926,851.91833,807.5007,851.4433,809.5089,848.3474C810.9824,846.07556,812.3677,843.9271,813.1497,842.70056 Z M868.16895,1018.79364L933.0089,1019.43085L990.7174,1019.9993L988.2582,1022.5444L988.1988,1022.6064C983.54895,1027.6378,952.9955,1058.5433,920.5171,1091.3488C887.89465,1124.1364,849.23035,1162.9993,834.4251,1177.9946C827.4627,1184.973,819.1175,1193.3853,809.68604,1202.8923C799.51666,1213.1403,789.7704,1222.9651,781.11017,1231.6455C778.81085,1233.949,780.5945,1232.1609,778.3464,1234.4102L778.3328,1234.4247C773.1583,1239.654,768.3215,1244.529,759.219,1253.7108C747.064,1265.9641,726.71466,1286.4875,709.16864,1304.2128C696.06384,1317.4558,683.6394,1330.0216,670.5117,1343.3269L643.5775,1370.5698L625.5699,1388.7826C614.812,1399.6602,606.24695,1408.2887,599.45306,1415.1313L599.4123,1415.1307C627.8404,1372.9918,688.3652,1283.6658,796.5371,1124.2225L868.16895,1018.79364 Z M728.5154,1016.7922C736.96954,1016.87463,747.83765,1017.0673,761.29254,1017.30676C766.9888,1017.4075,770.0909,1017.4626,776.48944,1017.57416C809.09937,1018.13446,837.28406,1018.83,849.4306,1019.20764L849.3754,1019.20764C842.3455,1030.096,824.81586,1056.3945,804.0489,1087.0746C664.43823,1292.5582,602.44305,1383.7251,578.714,1418.1788C583.5999,1402.2849,590.2345,1380.5641,600.1353,1347.2292C602.40405,1339.6195,604.97644,1331.1555,607.4126,1323.1343C609.0557,1317.7307,610.7797,1312.0597,611.747,1308.8209C612.2236,1307.2273,613.509,1302.9122,614.2629,1300.3768C615.65985,1295.6722,616.66864,1292.2772,618.23096,1287.053L618.23145,1287.0505C619.68176,1282.2056,621.2614,1276.9575,622.5284,1272.8363L622.5475,1272.7728C624.8592,1264.756,627.93286,1254.6183,630.4636,1246.2675C631.58203,1242.5765,632.54877,1239.3948,633.3235,1236.8003C634.4232,1233.1266,635.8782,1228.3405,637.66345,1222.4636C639.774,1215.5198,642.25696,1207.3428,644.30347,1200.5073C644.30347,1200.5073,644.73016,1199.0793,644.93933,1198.3816C656.6331,1159.0786,667.08954,1124.5587,680.43646,1080.7704L680.4407,1080.759C691.86914,1042.8828,696.2302,1027.8701,697.43384,1022.93164L697.4377,1022.9237C697.6341,1022.106,697.7772,1021.3662,697.8975,1020.75397C698.0018,1020.2155,698.08856,1019.7795,698.17267,1019.4323L698.1723,1019.43C698.4257,1018.382,696.09827,1016.4736,728.5154,1016.7922 Z M252.13191,1009.5343L259.37534,1020.98676C263.97073,1028.4365,272.01837,1041.3368,277.40396,1049.7533L277.42245,1049.7819L277.44992,1049.8269L277.45435,1049.8538C285.86008,1063.0333,320.82703,1118.1816,353.89847,1170.5582C356.94644,1175.4038,362.08813,1183.4968,367.17773,1191.5067C371.4535,1198.238,375.69418,1204.9126,379.50922,1210.9441C383.1032,1216.6641,390.6331,1228.5115,399.71222,1242.7913C411.23663,1260.9231,425.09277,1282.7183,438.62714,1304.1425C438.89832,1304.57,438.6919,1304.2428,438.96225,1304.6737L438.96478,1304.6774C483.8345,1375.6941,490.6764,1386.4264,510.82788,1417.9509C493.29095,1398.9518,468.03772,1371.3799,443.57144,1344.376L443.56848,1344.3735L443.53387,1344.3354L443.53903,1344.3618C426.6168,1325.6309,393.27563,1289.0227,369.7132,1263.3782L369.7121,1263.3774L352.76904,1244.8307L352.77347,1244.8572L330.96274,1220.9626C314.2372,1202.6434,297.9575,1184.7848,285.55585,1171.0675L285.53986,1171.0514C285.48053,1170.9849,285.47278,1170.9783,285.47247,1170.9773C285.47247,1170.9773,285.4692,1170.9729,285.39932,1170.8964L285.39462,1170.8893C271.4781,1155.6077,253.61546,1136.0149,232.99509,1113.3972L191.20901,1067.5557L191.20172,1067.5483C166.34824,1040.4082,144.45357,1016.29034,137.39821,1008.4083 Z M270.3455,1010.5416C280.07422,1011.0741,311.16077,1011.7192,346.0024,1012.0619C346.07162,1012.06256,346.1405,1012.06287,346.21045,1012.0636L418.07437,1012.7719L419.0826,1017.27325L419.08228,1017.27545L419.0924,1017.3148L419.09564,1017.34296C420.05896,1021.85986,423.029,1032.5566,425.49078,1041.3342L425.4937,1041.3628C426.94864,1046.7115,429.51923,1056.0852,432.1516,1065.6758C436.65012,1082.0687,442.96054,1105.0604,450.0293,1131.0953C452.15637,1138.9319,454.7609,1148.5511,457.0913,1157.1849L457.09753,1157.213C458.30493,1161.5646,460.1259,1168.2136,461.75073,1174.1455C463.54257,1180.6846,465.51825,1187.8984,467.06924,1193.4949L467.07,1193.4968C467.32904,1194.432,467.71506,1195.8152,467.94852,1196.6526L467.94885,1196.654C471.0616,1207.8052,478.46835,1234.7229,484.52606,1256.9878C490.4371,1279.1464,498.1338,1307.2803,501.57016,1319.7686L501.5732,1319.7837C505.67203,1334.4601,508.67944,1345.4667,513.4449,1362.9106C515.8179,1371.5956,518.65375,1381.9817,522.3354,1395.4147C524.29425,1402.6443,526.6801,1411.3867,528.68304,1418.6448C527.56586,1416.8665,526.3481,1414.928,525.0259,1412.8163L525.01685,1412.8025C517.98944,1401.6903,508.01474,1385.9497,501.14185,1375.1592C494.46152,1364.672,478.26804,1339.1404,464.32092,1317.0227L459.50626,1309.3873L454.12552,1300.8525L454.12405,1300.8522C442.90622,1283.0643,431.33795,1264.7495,425.41702,1255.6174L425.38806,1255.5706L425.3874,1255.5691C422.40674,1250.8766,418.3582,1244.4628,414.87662,1238.9456C411.163,1233.0613,407.92892,1227.939,404.84738,1223.0836L404.84708,1223.0822C403.70163,1221.279,402.26794,1219.0271,401.38998,1217.6571L401.3903,1217.6593C395.75052,1208.8538,385.5585,1192.744,378.97296,1182.1677L378.9462,1182.1259L378.89413,1182.0436C364.2993,1159.2434,356.21103,1146.4519,340.4073,1121.4487L323.63187,1094.919L323.6261,1094.9084C318.22086,1086.4158,313.28265,1078.6238,307.71432,1069.839C302.49005,1061.5973,298.38812,1055.1233,293.96982,1048.1804C289.74597,1041.5435,286.43747,1036.3732,283.9503,1032.5614L283.9536,1032.5889C276.68475,1021.1075,272.4752,1014.3787,270.283,1010.54144 Z M457.918,1013.36053C466.24786,1013.44226,476.8958,1013.59467,490.48257,1013.803L490.47406,1013.8028L549.526,1014.8346L547.7252,1230.389C546.9083,1313.6884,546.03876,1386.2458,545.4301,1423.3179C544.4832,1419.7499,543.47577,1416.0809,542.5027,1412.7166C542.48193,1412.643,542.4645,1412.5798,542.4546,1412.5416L542.4492,1412.5262C536.71387,1392.0907,528.8814,1364.0336,520.8625,1334.0669C520.8625,1334.0669,520.8148,1333.8851,520.777,1333.7455L520.7806,1333.7723C517.71204,1322.276,512.40594,1302.6613,509.04462,1290.4397C509.04462,1290.4397,508.99518,1290.2606,508.9751,1290.1895C504.3132,1273.2731,502.5746,1266.9858,499.56735,1256.104L499.56656,1256.1057C497.7276,1249.448,496.99533,1246.8042,495.57715,1241.6544L495.5767,1241.6522C492.74084,1231.3639,490.99258,1224.9501,488.2769,1214.7893C485.187,1203.2288,480.21503,1184.8218,477.11383,1173.716C469.31494,1145.3733,464.85962,1129.2863,460.79526,1114.6146C459.0541,1108.3259,456.87585,1100.4756,455.1005,1094.0422C451.63348,1081.443,445.39383,1058.6838,441.00183,1042.5455L440.99933,1042.5392L440.9344,1042.3009L440.9365,1042.3109L436.43225,1025.7384L433.86917,1016.30646L433.8681,1016.305C433.59595,1015.3028,433.3448,1014.3828,433.12698,1013.58325L433.07693,1013.5839C436.46002,1013.3148,443.55078,1013.2186,457.918,1013.36053 Z M626.06903,1014.8137C664.38074,1015.1879,679.0706,1015.4596,684.3544,1016.0584L684.30225,1016.05786C683.0601,1020.1022,680.81744,1027.5662,678.5312,1035.2296L678.52997,1035.2358L678.4788,1035.4119C672.1835,1056.4894,660.562,1095.0812,651.49365,1124.836L651.487,1124.8586L649.64,1131.0443L649.63965,1131.0421L647.691,1137.5677L647.691,1137.5677C645.59503,1144.589,643.74945,1150.7891,642.6795,1154.5045L642.65295,1154.6018C641.2234,1160.0907,638.0486,1170.3827,635.7338,1177.8834L635.73376,1177.886L635.5603,1178.4442C635.3661,1179.0773,635.35596,1179.1096,635.1479,1179.7831L635.1479,1179.7838L634.47565,1181.966C632.0363,1189.8691,628.54706,1201.2118,626.0862,1209.7191L626.0907,1209.7456C623.0769,1219.4044,617.79895,1237.0543,614.3066,1248.9114C610.5949,1260.9662,605.58374,1277.5024,602.8704,1286.4989C600.126,1295.597,595.1496,1312.3201,591.41016,1324.928C580.8127,1359.7638,575.4723,1377.4637,568.01624,1402.55C565.8617,1409.7732,563.413,1417.8934,561.3012,1424.7822L563.06775,1230.5311L565.0324,1014.2138 Z M310.2974,811.2823C309.28055,811.2726,308.29987,811.66156,307.565,812.3644L294.60092,824.75934C294.53867,824.8178,294.51913,824.8342,294.51913,824.8342L294.52316,824.8618C294.50522,824.84863,294.4857,824.86487,294.46506,824.8875L294.46793,824.91534C287.1947,831.689,253.5133,863.1185,220.11957,894.13696L220.12177,894.1639C129.49452,978.33344,114.97858,991.8156,112.706474,995.87933L112.70496,995.88116C112.23182,996.7276,111.939995,997.6273,111.930336,998.64C111.92034,999.67444,112.27663,1000.52106,112.47959,1000.95447L112.47994,1000.9563C114.77924,1005.87146,134.53314,1027.7047,226.47813,1128.435L226.4814,1128.4387C289.70813,1197.575,321.58398,1232.4471,450.24228,1373.8202L450.5922,1374.2053L450.59625,1374.2083C490.05508,1417.512,528.51196,1459.6464,535.75806,1467.1965L535.7625,1467.2227L549.10236,1481.1293C549.83014,1481.8871,550.83026,1482.3214,551.88116,1482.3302C552.9321,1482.3407,553.9416,1481.927,554.683,1481.1831L580.9468,1454.7958L580.9501,1454.8234C595.6537,1440.2104,632.11884,1403.3472,662.34375,1372.7504L662.35016,1372.744C692.3887,1342.1832,729.423,1304.7513,744.1917,1290.1125L744.2215,1290.0835C751.9933,1282.2091,765.5046,1268.6038,781.9575,1252.036C797.73535,1236.1445,814.5715,1219.1915,830.95404,1202.6515L835.5886,1197.9751L840.32715,1193.1891C871.2195,1162.0029,903.0424,1129.8767,916.0623,1116.8124L916.0664,1116.8083C997.48474,1034.9309,1014.6247,1017.4873,1016.9275,1013.04047C1017.18176,1012.5505,1017.6548,1011.53284,1017.56995,1010.28094L1017.5127,1009.83417C1017.3296,1008.845,1016.7411,1008.0587,1016.65796,1007.96014L1016.6555,1007.9591C1014.81366,1005.4717,1001.0891,991.7263,984.9116,976.28534C967.5532,959.5651,924.0498,917.4516,887.2883,881.7524L887.28516,881.74817L820.8198,817.368C820.10236,816.6728,819.1446,816.2803,818.14417,816.2712L564.2212,813.775 Z"/>
</g>
<g style="fill:url(#grad1); fill-opacity:1.0; stroke-linejoin: miter">
<path d="M868.1631,1018.085C867.9307,1018.0869,867.7137,1018.2028,867.58276,1018.39545L795.951,1123.8242L795.9507,1123.8246C687.80426,1283.2303,627.2274,1372.6333,598.82477,1414.7343C598.6793,1414.9498,598.6637,1415.2278,598.78394,1415.4585C598.9042,1415.6891,599.14105,1415.8352,599.40106,1415.8394L599.44183,1415.84C599.4475,1415.8401,599.45325,1415.8401,599.4589,1415.8401C599.6455,1415.8385,599.82416,1415.7633,599.95593,1415.6307C606.7764,1408.7614,615.2889,1400.1859,626.0737,1389.2808L626.0738,1389.2806L644.08136,1371.0681L671.0157,1343.8251L671.0162,1343.8246C684.0263,1330.6385,696.6849,1317.8357,709.67224,1304.7114L709.8075,1304.5748L709.80756,1304.5748C727.4963,1286.7054,747.42456,1266.6069,759.7221,1254.21L759.7223,1254.2098L765.7591,1248.1207L769.85693,1243.9875C772.9207,1240.8973,776.3307,1237.4557,778.8367,1234.9233L778.8508,1234.9086L778.8644,1234.894L778.86487,1234.894C779.904,1233.8544,780.03046,1233.7284,780.17676,1233.5825L780.17694,1233.5824C780.30725,1233.4523,780.19434,1233.5652,780.3723,1233.3872L780.37244,1233.3871C780.72174,1233.0375,780.656,1233.1034,781.61163,1232.1458L781.61176,1232.1458C789.8001,1223.9388,798.7355,1214.9336,808.2853,1205.3098L808.2853,1205.3099L810.1891,1203.3916L810.1892,1203.3915L810.53503,1203.0427L810.535,1203.0427C819.80945,1193.6938,828.0659,1185.3718,834.92676,1178.4952L834.92944,1178.4926C849.73694,1163.4948,888.37555,1124.6576,921.0011,1091.8671L921.0014,1091.8667L921.0198,1091.8483L921.0207,1091.8474C953.47015,1059.0712,984.02124,1028.1685,988.7105,1023.0968L988.7103,1023.0968L988.7698,1023.0348L988.7678,1023.03687L991.22705,1020.4918C991.4238,1020.28815,991.48047,1019.98694,991.37115,1019.7257C991.2619,1019.4645,991.00757,1019.2936,990.7244,1019.2907L933.0159,1018.7222L933.01587,1018.7222L868.1759,1018.085C868.17163,1018.08496,868.16736,1018.08496,868.1631,1018.085 Z"/>
</g>
<g style="fill:url(#grad2); fill-opacity:1.0; stroke-linejoin: miter">
<path d="M717.77765,1016.2495C698.7419,1016.4041,697.77985,1017.614,697.67896,1019.1633L697.67896,1019.16345C697.67316,1019.25287,697.66956,1019.2859,697.6644,1019.30707C697.65717,1019.33716,697.6526,1019.3677,697.6507,1019.3983L697.64355,1019.3984C697.56323,1019.7417,697.4796,1020.1636,697.38446,1020.6546C697.3733,1020.7115,697.37726,1020.6909,697.3656,1020.75024L697.36566,1020.75024C697.36145,1020.7716,697.3446,1020.85785,697.3446,1020.85785C697.2343,1021.4197,697.1001,1022.0917,696.92957,1022.8017L696.92834,1022.8017L696.92615,1022.808C695.72736,1027.7266,691.37054,1042.7262,679.94037,1080.608L679.93994,1080.608L679.9366,1080.618C666.59247,1124.3972,656.12976,1158.9377,644.4385,1198.2325L644.4257,1198.2749L644.42566,1198.275C644.2296,1198.9288,643.8025,1200.3589,643.8025,1200.3589C641.74915,1207.217,639.2811,1215.3442,637.16345,1222.3116L636.8683,1223.2831C635.2084,1228.7471,633.87067,1233.1503,632.8229,1236.6504L632.8228,1236.6508C632.1774,1238.812,631.39886,1241.3805,630.5096,1244.3141L629.9635,1246.1158L629.8831,1246.3813L629.80194,1246.649C627.3007,1254.9025,624.3117,1264.7687,622.04535,1272.6282L622.0453,1272.6282L622.0281,1272.6852C620.76984,1276.7782,619.17194,1282.0864,617.73083,1286.9008L617.7311,1286.9008C617.7197,1286.9387,617.69916,1287.0076,617.69916,1287.0076L617.6992,1287.0076C616.1469,1292.1982,615.15717,1295.5298,613.762,1300.228C613.02704,1302.6995,611.7036,1307.1421,611.2464,1308.6711L611.24634,1308.6714C610.2887,1311.8783,608.54675,1317.6085,606.91266,1322.9822L606.9126,1322.9824L606.6483,1323.8528L606.6484,1323.8528L606.3822,1324.7294C604.1057,1332.2242,601.7401,1340.0178,599.6346,1347.08L599.6345,1347.08L599.6296,1347.0964L599.6292,1347.0977C589.7284,1380.4329,583.10284,1402.1235,578.21454,1418.0253C578.13873,1418.2719,578.2543,1418.5369,578.48645,1418.6492C578.5608,1418.6853,578.63995,1418.702,578.718,1418.7014C578.8839,1418.7001,579.04486,1418.6198,579.14435,1418.4753C602.8874,1384.0011,664.8187,1292.9279,804.36707,1087.5361L804.3672,1087.536L804.4812,1087.3682L804.4816,1087.3676C825.1471,1056.8375,842.6031,1030.6517,849.708,1019.6559L849.6994,1019.65594C849.84906,1019.566,849.95013,1019.40314,849.9531,1019.216C849.95764,1018.93054,849.73224,1018.69434,849.44684,1018.68536C837.3093,1018.30804,809.09766,1017.6119,776.4985,1017.0517L776.49866,1017.0517L762.8184,1016.81116L762.8185,1016.81116L761.3018,1016.7843L761.3019,1016.7843C747.80396,1016.5441,737.02094,1016.35254,728.5205,1016.26965L728.52057,1016.26965C724.4251,1016.2293,720.8327,1016.22473,717.77765,1016.2495 Z"/>
</g>
<g style="fill:url(#grad3); fill-opacity:1.0; stroke-linejoin: miter">
<path d="M565.0284,1013.6912C564.89307,1013.6923,564.76324,1013.74585,564.66644,1013.84076C564.5675,1013.93787,564.5111,1014.0703,564.5099,1014.209L562.54517,1230.5264L560.7787,1424.7775C560.7763,1425.037,560.96484,1425.2589,561.22144,1425.2986C561.24976,1425.3031,561.278,1425.305,561.3059,1425.3048C561.5304,1425.303,561.73303,1425.1561,561.8008,1424.9354C563.90765,1418.063,566.36755,1409.9054,568.51697,1402.6995L568.51715,1402.699C575.9681,1377.6301,581.31757,1359.8994,591.9101,1325.0801L591.91113,1325.0767C595.65704,1312.447,600.62006,1295.7687,603.3707,1286.6499L603.3707,1286.6498C606.0845,1277.6517,611.09424,1261.1205,614.806,1249.0652L614.80786,1249.0591C618.296,1237.2163,623.5812,1219.5426,626.58954,1209.9012C626.59827,1209.8733,626.6046,1209.8447,626.6085,1209.8158L626.6021,1209.8158C629.0635,1201.3098,632.5371,1190.0184,634.975,1182.1201L634.97504,1182.1199L635.6472,1179.9377C635.6547,1179.9133,635.66046,1179.8883,635.6643,1179.863L635.67004,1179.863L635.753,1179.5944L635.753,1179.5946C635.8775,1179.1921,635.8948,1179.1351,636.0593,1178.5992L636.2328,1178.041C636.23315,1178.0399,636.23346,1178.0387,636.2338,1178.0376L636.23315,1178.0376C638.54456,1170.5474,641.72363,1160.242,643.1571,1154.7394L643.18365,1154.6421L643.1837,1154.6421C644.25305,1150.9292,646.097,1144.7343,648.1918,1137.7173L648.1917,1137.7173L650.13965,1131.1938L650.1407,1131.1938L651.98773,1125.0082L651.98816,1125.0067L651.9948,1124.9841C661.0725,1095.1986,672.6751,1056.6692,678.9795,1035.5613L678.9806,1035.5577L679.03174,1035.3818L679.03467,1035.3698L679.0453,1035.3339C681.28864,1027.8147,683.48566,1020.5021,684.73724,1016.4214L684.7303,1016.4214C684.81384,1016.3351,684.868,1016.21954,684.876,1016.0907C684.8931,1015.8129,684.68964,1015.57056,684.4132,1015.53925C679.0917,1014.9361,664.36755,1014.6652,626.0741,1014.2912L626.0742,1014.2912L565.0376,1013.6912C565.03455,1013.6913,565.03143,1013.69116,565.0284,1013.6912 Z"/>
</g>
<g style="fill:url(#grad4); fill-opacity:1.0; stroke-linejoin: miter">
<path d="M442.10373,1012.78906C437.70233,1012.8248,434.8423,1012.9193,433.03552,1013.06305C432.75455,1013.0853,432.542,1013.32654,432.55496,1013.60803C432.56067,1013.7309,432.60846,1013.8421,432.68393,1013.9283L432.67947,1013.92834L432.80048,1014.37256L433.0047,1015.1218C433.07236,1015.3702,433.2863,1016.1562,433.36386,1016.4419C433.37015,1016.4651,433.37802,1016.48773,433.38742,1016.5097L433.3829,1016.50977L435.92798,1025.8755L435.92804,1025.8755L440.43228,1042.4479C440.43878,1042.4718,440.44678,1042.4948,440.45624,1042.5168L440.45172,1042.5168L440.49518,1042.6765L440.51196,1042.7275L440.50983,1042.7275C444.90112,1058.8633,451.1328,1081.593,454.59662,1094.1808L454.59677,1094.1812C455.86835,1098.7891,457.2554,1103.7946,458.63354,1108.7686L460.2917,1114.754C464.34842,1129.3982,468.81888,1145.5403,476.61,1173.8546L476.61057,1173.8566C479.7142,1184.9711,484.67917,1203.3523,487.77206,1214.9243L487.77213,1214.9243L487.77557,1214.9375L487.77585,1214.9386C490.48868,1225.0885,492.2392,1231.5106,495.07294,1241.7911L495.0728,1241.7911L495.07333,1241.7932C496.12085,1245.5969,496.76596,1247.9316,497.77957,1251.6L497.77957,1251.5999L499.06284,1256.2449L499.06406,1256.2449L499.72705,1258.6436L500.32785,1260.8175C502.63623,1269.1707,504.51138,1275.9591,508.4713,1290.3284L508.4723,1290.3317C508.49615,1290.4161,508.53644,1290.5627,508.54095,1290.5787C511.90656,1302.816,517.2028,1322.3945,520.27576,1333.9081C520.2842,1333.9396,520.2954,1333.97,520.3093,1333.999L520.304,1333.999C520.33203,1334.104,520.35693,1334.1991,520.357,1334.1993L520.35767,1334.2019C528.37555,1364.1647,536.21265,1392.2385,541.9462,1412.6675L541.9561,1412.6991L541.95575,1412.6991C541.9674,1412.743,541.9819,1412.7948,541.99976,1412.8583L542.00525,1412.8765L542.0051,1412.8765C542.9773,1416.2388,543.9785,1419.885,544.925,1423.4518C544.9867,1423.6844,545.19806,1423.8423,545.43384,1423.8405C545.45355,1423.8402,545.4734,1423.839,545.4934,1423.8365C545.7523,1423.8048,545.9483,1423.5872,545.9526,1423.3264C546.56085,1386.2778,547.431,1313.6682,548.24774,1230.3943L548.24774,1230.3936L550.0485,1014.8389C550.0509,1014.55225,549.8218,1014.31714,549.5351,1014.31213L490.521,1013.282L490.51593,1013.28204C490.5041,1013.281,490.4921,1013.2804,490.48013,1013.2803C476.94495,1013.0727,466.20578,1012.91925,457.9231,1012.83813L457.92316,1012.83813C451.15024,1012.7712,446.0336,1012.75714,442.10373,1012.78906 Z"/>
</g>
<g style="fill:url(#grad5); fill-opacity:1.0; stroke-linejoin: miter">
<path d="M270.2873,1011.0639L270.28732,1011.064L270.2837,1011.0639 Z M270.27875,1010.01886C270.09326,1010.0203,269.9225,1010.1201,269.83,1010.28094C269.73755,1010.4417,269.73724,1010.6395,269.82925,1010.8006C272.0283,1014.6498,276.2465,1021.3921,283.51212,1032.8683C283.53607,1032.9061,283.56418,1032.94,283.59555,1032.9695L283.59256,1032.9695C286.06406,1036.7595,289.35532,1041.903,293.529,1048.461L293.529,1048.461L293.54172,1048.4811L293.54218,1048.4818C297.57346,1054.8164,301.26917,1060.6469,305.8556,1067.8827L307.273,1070.1188L307.90665,1071.1182L308.53003,1072.1017C313.55844,1080.0349,318.22485,1087.3951,323.18524,1095.1891L323.1848,1095.1891L323.1902,1095.1982L339.9656,1121.7279L339.9656,1121.7279L340.20578,1122.1078L340.20572,1122.1078C355.85782,1146.871,363.9263,1159.6299,378.454,1182.3253L378.4539,1182.3253L378.50464,1182.4055L378.50583,1182.4071L378.5326,1182.4491L378.53253,1182.4491C385.12042,1193.029,395.3094,1209.1338,400.95026,1217.9421L400.95197,1217.942C401.81696,1219.292,403.2741,1221.5804,404.40607,1223.3622L404.40546,1223.3622C404.4057,1223.3625,404.406,1223.363,404.40625,1223.3634C407.50363,1228.244,410.70483,1233.3143,414.4347,1239.2242L414.43463,1239.2242L414.56573,1239.432C418.00217,1244.8777,422.01764,1251.2386,424.94632,1255.8494L424.94608,1255.8494L424.9724,1255.892L424.97855,1255.9017C430.90366,1265.0403,442.457,1283.3315,453.682,1301.1309C453.69492,1301.1512,453.70914,1301.1707,453.7246,1301.189L453.7199,1301.1891L459.06424,1309.6659L459.06424,1309.666L463.8789,1317.3014C477.80893,1339.3921,494.0378,1364.9794,500.70114,1375.4398C507.5552,1386.2008,517.5662,1401.9987,524.57526,1413.0818L524.57916,1413.0878L524.585,1413.0969L524.5998,1413.1205L524.6001,1413.121C525.83905,1415.0997,527.1257,1417.1482,528.16956,1418.8097C528.1917,1418.8451,528.24927,1418.9366,528.24927,1418.9366L528.24963,1418.9366C528.3498,1419.0856,528.5162,1419.1687,528.68756,1419.1674C528.7567,1419.1667,528.8268,1419.1525,528.89355,1419.123C529.131,1419.0186,529.25574,1418.7557,529.1867,1418.5057C527.18805,1411.2632,524.79443,1402.4926,522.83966,1395.278L522.8393,1395.2765L522.82306,1395.2173C519.60333,1383.4697,517.0116,1373.9829,514.83405,1366.0122L513.949,1362.773L513.949,1362.7731C509.1797,1345.3151,506.18515,1334.3551,502.08264,1319.6652L502.08234,1319.6652L502.074,1319.63C498.63766,1307.142,490.9415,1279.0099,485.0309,1256.853L485.0302,1256.8506C478.97174,1234.583,471.5836,1207.732,468.46005,1196.5419L468.45926,1196.5419L468.45193,1196.5122L468.34375,1196.1243L468.34375,1196.1243L468.20465,1195.6257L468.2047,1195.6257C467.9904,1194.8569,467.75906,1194.0267,467.5736,1193.3573L467.57242,1193.3536L467.57004,1193.345L467.56976,1193.3439L467.5692,1193.3439L467.55783,1193.3093L467.5571,1193.3074L467.55966,1193.3074C466.08362,1187.9812,464.24393,1181.267,462.52585,1174.997L462.25467,1174.0074L462.25467,1174.0076L462.14847,1173.6199C460.5567,1167.8085,458.78772,1161.3506,457.60843,1157.1L457.6077,1157.1L457.60147,1157.0719L457.5958,1157.0488C455.25613,1148.3809,452.6699,1138.8291,450.5336,1130.9585C443.56567,1105.2952,437.34534,1082.6276,432.85703,1066.2716L432.65555,1065.5375L432.6555,1065.5375C430.0338,1055.9857,427.4688,1046.6326,426.01303,1041.2811L426.01065,1041.2811L425.99396,1041.1932C423.53006,1032.4082,420.56747,1021.73706,419.60754,1017.23785L419.604,1017.23785C419.6022,1017.2114,419.5984,1017.18494,419.59256,1017.159L418.58432,1012.6577C418.5313,1012.42096,418.3222,1012.25195,418.0796,1012.2495L346.2156,1011.5411L346.2158,1011.5411C346.21793,1011.5411,346.0923,1011.54016,346.0949,1011.5401L346.09546,1011.5401L346.00684,1011.53937L346.00757,1011.53937C311.1617,1011.1966,280.09036,1010.5517,270.37408,1010.0199L270.34766,1010.01917L270.28802,1010.0189L270.28162,1010.0188 Z"/>
</g>
<g style="fill:url(#grad6); fill-opacity:1.0; stroke-linejoin: miter">
<path d="M137.394,1007.88574C137.10541,1007.88806,136.87337,1008.12396,136.8757,1008.41254C136.87688,1008.5573,136.93684,1008.688,137.03278,1008.7818L137.03127,1008.7818C144.12195,1016.70264,165.97937,1040.7792,190.81636,1067.9012L190.82983,1067.9153L232.60889,1113.7493L232.97241,1114.148L232.97244,1114.148L237.34381,1118.9429L237.34377,1118.9429L285.00327,1171.2356L285.01352,1171.2488C285.0615,1171.3013,285.0754,1171.3169,285.07843,1171.3203L285.0783,1171.3203C285.08643,1171.3297,285.09302,1171.3369,285.09314,1171.3369L285.09326,1171.3369L285.09567,1171.3395L285.0969,1171.3408L285.09683,1171.3408C285.10095,1171.3452,285.12225,1171.3682,285.14954,1171.3987L285.16916,1171.4196L285.16977,1171.4196C297.57605,1185.142,313.84824,1202.9922,330.5768,1221.315L330.5768,1221.315L352.3875,1245.2095C352.41855,1245.2435,352.45334,1245.2727,352.49075,1245.2966L352.4871,1245.2968L369.3264,1263.7299C369.3395,1263.7441,369.35336,1263.7578,369.36798,1263.7705L369.36414,1263.7705C392.94272,1289.433,426.21933,1325.9705,443.1513,1344.7122C443.18283,1344.7471,443.21823,1344.7769,443.2564,1344.8014L443.2519,1344.8014C467.71124,1371.7971,492.90887,1399.3085,510.44385,1418.3054C510.54736,1418.4176,510.6895,1418.4746,510.8322,1418.4734C510.9427,1418.4725,511.05347,1418.4368,511.14703,1418.3646C511.3614,1418.1993,511.414,1417.8976,511.2683,1417.6698C511.25385,1417.6471,511.22467,1417.6018,511.20947,1417.578L511.20953,1417.578C491.1206,1386.151,484.21594,1375.3198,439.4065,1304.3982L439.39377,1304.379L439.39124,1304.3754L439.39197,1304.3754C439.32086,1304.262,439.2806,1304.1978,439.2641,1304.1713C439.26147,1304.1671,439.24844,1304.1462,439.2451,1304.141L439.2451,1304.141C439.23688,1304.1278,439.227,1304.1123,439.21393,1304.0919L439.214,1304.0919C439.17145,1304.0251,439.1797,1304.0381,439.06888,1303.8633C426.05798,1283.2678,412.65665,1262.1829,401.42252,1244.5079L400.15317,1242.511L400.15317,1242.511C391.09882,1228.2701,383.51953,1216.3445,379.95166,1210.666L379.95087,1210.6648C376.3611,1204.9893,372.42398,1198.7913,368.40778,1192.4684L368.40778,1192.4684L367.61877,1191.2266L367.15018,1190.489L367.15012,1190.489C362.21725,1182.7256,357.29236,1174.9724,354.3408,1170.28L354.34027,1170.2793C321.3401,1118.0155,286.43365,1062.9623,277.94504,1049.6514L277.9421,1049.6514C277.9301,1049.6178,277.91473,1049.5854,277.89612,1049.5549L277.86862,1049.5099L277.86127,1049.498L277.8448,1049.4727L277.84204,1049.4684L277.84137,1049.4673C272.45737,1041.0531,264.41437,1028.1602,259.8201,1020.7124L259.81693,1020.7074L252.57353,1009.255C252.47874,1009.10516,252.3144,1009.01355,252.13704,1009.01184L137.41121,1007.88586L137.4097,1007.88586C137.40598,1007.88574,137.40224,1007.8857,137.39851,1007.8857 Z"/>
</g>
<g style="fill:url(#grad7); fill-opacity:1.0; stroke-linejoin: miter">
<path d="M829.0686,845.6467C828.90826,845.6481,828.75745,845.7229,828.6594,845.84973C828.56134,845.97656,828.5269,846.1415,828.5661,846.29694C829.49347,849.9785,830.6251,854.32275,831.89404,859.04736L831.8937,859.04736L831.89636,859.0585C846.4825,914.07385,857.7117,956.61945,864.86316,984.2875L864.8631,984.2875L864.8719,984.32306L864.872,984.32367C866.85767,992.3546,868.8592,999.2108,869.91266,1002.3358C869.9843,1002.5483,870.18335,1002.6914,870.40753,1002.6915L870.4575,1002.69165L870.44867,1002.6917C876.28564,1003.07117,893.93414,1003.4655,916.7991,1003.6893L916.79694,1003.6893C916.8846,1003.69055,916.8636,1003.6902,916.9503,1003.69073L916.94855,1003.69073L917.0092,1003.69135L917.00934,1003.69135C922.2676,1003.7426,929.31116,1003.79535,935.0517,1003.828L935.04224,1003.82806C935.05035,1003.8285,935.05853,1003.8287,935.0667,1003.82874L991.81067,1003.9731L991.8164,1003.973C992.02747,1003.9713,992.217,1003.8427,992.2963,1003.6466C992.3764,1003.4488,992.3281,1003.2222,992.17444,1003.07416L945.2664,957.917L945.26587,957.91644C924.5566,938.03687,899.1158,913.39795,878.8181,893.71423L878.81024,893.7143L878.75854,893.6561L865.0018,880.31464L865.00183,880.31464L856.05365,871.6349L856.04926,871.63025L856.037,871.6178C845.4918,861.3035,835.98724,852.0537,829.5036,845.7935C829.40674,845.7,829.27747,845.64746,829.1428,845.6469L829.08356,845.64667 Z"/>
</g>
<g style="fill:url(#grad8); fill-opacity:1.0; stroke-linejoin: miter">
<path d="M813.14545,842.178C812.9689,842.1794,812.8045,842.2701,812.70917,842.4196C811.91895,843.6592,810.55304,845.77716,809.07043,848.06305L808.92365,848.2893L808.92365,848.28937L808.78827,848.49805C807.09064,851.11505,806.57965,851.9024,804.467,855.1513C802.58215,858.04553,800.87604,860.6672,799.0224,863.52765L799.0222,863.52765L798.9991,863.56177L798.99713,863.5648C793.4376,871.89246,781.9365,889.32886,773.4476,902.5893L773.44727,902.58936L773.42615,902.62006L773.42084,902.6279C772.12317,904.5934,771.2084,905.9854,769.61255,908.4198L769.6126,908.4198C765.28314,915.02313,759.23663,924.2927,753.2197,933.5205L753.21967,933.5205C746.4851,943.8512,738.615,955.9171,732.35834,965.4644C722.5526,980.415,714.19727,993.5491,710.03503,1000.34906C709.93646,1000.51,709.9325,1000.71173,710.0245,1000.8765C710.11646,1001.0413,710.2902,1001.1437,710.47894,1001.14435L710.5293,1001.14453L710.52203,1001.1446C721.9847,1001.68146,749.49005,1002.3241,781.96295,1002.64526C807.1336,1002.8925,829.26917,1002.93933,843.34155,1002.82495C848.2541,1002.78503,852.2157,1002.7248,854.911,1002.6472L854.9197,1002.6471L854.95624,1002.6472L854.9622,1002.64716C855.12134,1002.6459,855.2713,1002.57227,855.3695,1002.4468C855.46893,1002.31976,855.5041,1002.1538,855.4639,1001.99384L855.46204,1001.9866C854.6067,998.5825,853.262,993.4091,851.7344,987.7092L851.7189,987.6515C841.0693,947.9357,837.4295,934.11896,833.70386,919.86774L833.7039,919.86774L832.38196,914.80914L832.3819,914.80896L830.98596,909.4732L830.98315,909.4607L830.9825,909.4581C827.86914,897.46893,822.97015,879.17163,820.0066,868.6508L820.0033,868.63965L819.99854,868.6241L819.9988,868.6241C817.2308,858.63684,814.89105,848.90173,814.6631,846.5563L814.6615,846.55634L814.6584,846.4932L814.6491,846.4933C814.65283,846.4716,814.65515,846.4495,814.6561,846.4271L814.6526,846.4272C814.6513,846.411,814.64886,846.3806,814.647,846.35944L814.6545,846.3594C814.6543,846.35675,814.65405,846.35406,814.65375,846.35144C814.5851,845.6858,814.2091,844.1952,813.70245,842.54803C813.6362,842.33276,813.4395,842.18414,813.2143,842.17926L813.1611,842.1781C813.1559,842.1779,813.15063,842.1779,813.14545,842.178 Z"/>
</g>
<g style="fill:url(#grad9); fill-opacity:1.0; stroke-linejoin: miter">
<path d="M583.3626,828.1331C576.9162,828.1855,572.28644,828.27795,569.1177,828.4092C568.8308,828.4211,568.6072,828.66223,568.61707,828.9492C568.6235,829.13654,568.72784,829.29767,568.8794,829.38477L568.8736,829.38477C570.81305,832.0843,573.2986,835.49115,575.9568,839.00116L575.9555,839.00116C575.95605,839.0019,575.9566,839.0026,575.95715,839.00336C581.3914,846.1794,598.9983,869.9272,615.4797,892.25165L615.4807,892.25305L615.58057,892.3874L615.59467,892.40533L615.6182,892.4371C669.05865,964.7934,687.48285,989.6016,693.56244,997.32184C693.66254,997.449,693.8158,997.5224,693.97723,997.5211C693.9801,997.52106,693.9829,997.52094,693.9858,997.52094C694.1503,997.5169,694.30347,997.43555,694.3988,997.30133C700.93164,988.11285,718.8577,961.2274,739.6958,929.16327L739.6957,929.16327L739.7101,929.1424C753.77155,907.638,766.38196,888.29584,776.9139,872.1417L780.02466,867.37024L780.02466,867.3702C787.89716,855.2918,793.54175,846.6326,795.59344,843.5152L795.5962,843.5109C798.4574,839.0697,801.2737,834.66425,803.23676,831.5743L803.2286,831.57434C803.36975,831.48553,803.4657,831.331,803.4728,831.15265C803.48395,830.87256,803.2722,830.6336,802.99286,830.61096C793.63745,829.8529,765.57965,829.4545,687.0472,828.6836L687.04803,828.6836C686.8235,828.681,686.41144,828.67706,686.1869,828.6749L686.1868,828.6749C685.9957,828.6732,685.9498,828.6727,685.7632,828.6709L685.7597,828.6709C685.71893,828.67,685.6658,828.6693,685.6281,828.6688C685.58093,828.6682,685.549,828.6679,685.5083,828.66693L685.5033,828.6668L685.4956,828.6667L685.492,828.6667L685.4598,828.6664L685.46027,828.6664C632.65216,828.14844,601.1129,827.98883,583.3626,828.1331 Z"/>
</g>
<g style="fill:url(#grad10); fill-opacity:1.0; stroke-linejoin: miter">
<path d="M566.40076,849.6147C566.12,849.617,565.89026,849.8416,565.88293,850.1237C565.5333,863.61426,565.1817,890.24316,565.1014,921.028L565.10126,921.028L565.1007,921.04944L564.6474,998.55273C564.64594,998.8041,564.82367,999.0209,565.07043,999.0688L567.9848,999.63416L568.03735,999.6403L568.03156,999.6404C571.8764,1000.2096,604.4378,1000.8655,634.6132,1001.1615L634.6123,1001.1615C634.68463,1001.16284,634.7181,1001.1638,634.7968,1001.1641L634.791,1001.1642L634.8223,1001.1647L634.8252,1001.1646C650.53296,1001.3176,665.0848,1001.368,674.25977,1001.2934C675.44073,1001.2838,676.686,1001.27026,677.66376,1001.2565L677.6706,1001.2564L677.7137,1001.2569C677.71735,1001.257,677.72107,1001.25696,677.72473,1001.25696C677.9174,1001.2554,678.09393,1001.1477,678.18353,1000.97644C678.2748,1000.8019,678.2601,1000.5909,678.14557,1000.43066C669.19025,987.89825,643.9378,953.6345,601.40454,896.4471L601.3984,896.44714C601.38184,896.4073,601.3605,896.36957,601.33466,896.33484C587.9116,878.3145,573.988,859.4328,569.05963,852.74976L569.0596,852.74976L568.2247,851.6177L568.2189,851.61774C568.2049,851.58234,568.1871,851.5486,568.16565,851.517L568.16693,851.51697C568.16693,851.51697,568.1507,851.4957,568.13165,851.47107L568.1258,851.4711C568.11346,851.4484,568.09937,851.4266,568.0837,851.40576C567.6629,850.8497,567.27045,850.3366,566.8697,849.81824C566.7722,849.6922,566.6226,849.61755,566.46326,849.6154L566.41223,849.61475C566.4084,849.6147,566.4046,849.6147,566.40076,849.6147 Z"/>
</g>
<g style="fill:url(#grad11); fill-opacity:1.0; stroke-linejoin: miter">
<path d="M551.2007,847.20245C551.04156,847.20374,550.8914,847.27747,550.7932,847.40314C528.48584,875.9473,455.15717,972.1046,437.081,996.5212C436.96393,996.67926,436.94562,996.88983,437.03354,997.0658C437.12152,997.2417,437.30084,997.3533,437.49756,997.35455L437.5475,997.3549L437.5418,997.355C447.91022,997.6014,468.51938,997.96375,492.3404,998.1961L492.3415,998.19604L492.43402,998.1968L492.43152,998.1968L550.1552,998.91284C550.15875,998.9129,550.1623,998.9129,550.16583,998.91284C550.3008,998.91174,550.43036,998.8586,550.52704,998.7639C550.6263,998.6668,550.68286,998.53424,550.6842,998.39545L551.4598,919.48456L551.4598,919.4853L551.46106,919.37225L551.461,919.3715C551.76416,888.45386,551.8748,861.66406,551.77844,847.7221C551.7765,847.4382,551.54816,847.2077,551.2642,847.20325L551.2132,847.20245C551.20905,847.20233,551.20483,847.2024,551.2007,847.20245 Z"/>
</g>
<g style="fill:url(#grad12); fill-opacity:1.0; stroke-linejoin: miter">
<path d="M325.59155,825.7293C324.3064,825.73975,323.27933,825.7502,322.22705,825.76355C321.94196,825.76715,321.71237,825.9986,321.7111,826.2837C321.71027,826.4615,321.79843,826.61914,321.93396,826.7141L321.93054,826.7141C323.17743,828.7714,324.75635,831.2967,326.53036,834.0168L326.53067,834.01715L326.5621,834.0653L329.3836,838.5496L329.38373,838.5498C334.1815,846.16785,343.24323,860.5687,349.79895,871.05884L349.79974,871.06006C398.0354,947.7695,417.92276,978.8962,424.47522,987.913C424.57123,988.04504,424.7233,988.12476,424.8865,988.12836C424.8917,988.1284,424.89697,988.1285,424.90216,988.1284C425.05963,988.12714,425.20853,988.05493,425.3069,987.93115C433.2671,977.9266,457.9175,945.98346,486.75015,908.31146C514.1483,872.5192,538.0308,841.1486,547.1548,829.1394L547.1492,829.1394C547.3067,829.0534,547.4155,828.8887,547.4216,828.69696C547.43054,828.4142,547.2128,828.1756,546.93054,828.1587C535.2779,827.4614,504.00977,826.8848,435.5195,826.21027L435.51944,826.21027C386.06418,825.72595,343.68536,825.5824,325.59155,825.7293 Z"/>
</g>
<g style="fill:url(#grad13); fill-opacity:1.0; stroke-linejoin: miter">
<path d="M312.7565,839.1424C312.52597,839.1443,312.3236,839.2972,312.25906,839.51886C310.6822,844.9346,308.30484,852.85864,305.71317,861.34503L305.71255,861.34686L305.66098,861.5182L305.64728,861.561L305.64728,861.56104C305.02863,863.5015,304.40372,865.47815,303.78445,867.45197L303.78366,867.45197C301.2054,875.6764,298.73346,883.8246,296.85284,890.02344L296.8529,890.02344L296.742,890.389L296.74188,890.3892C295.6017,894.1543,294.7903,896.831,294.21173,898.6747C294.2027,898.7035,294.1962,898.73285,294.1923,898.7624L294.18924,898.7624C293.67468,900.56366,292.79352,903.4843,291.71802,906.99805C290.7916,910.02484,289.67413,913.6419,288.50824,917.4158L288.08426,918.78827L288.04453,918.9169L288.04453,918.91675L288.00485,919.0451L288.0048,919.04517C286.47214,924.004,284.9906,928.79785,283.43988,933.8619C281.57507,939.95245,279.5155,946.57465,277.30136,953.694L277.30142,953.694L277.04184,954.5284C274.12372,963.9092,271.21002,973.27905,269.3527,979.4547L269.35214,979.4547L269.3462,979.47284L264.73227,994.5176C264.68408,994.6746,264.7126,994.84515,264.80917,994.9781C264.9058,995.11096,265.05923,995.1907,265.2235,995.19324L338.63464,996.36316L338.6311,996.3632C338.6444,996.36444,338.65793,996.3652,338.67148,996.3653C349.62256,996.5129,361.99048,996.6586,371.30417,996.7497C389.405,996.9272,403.69583,997.00024,411.37192,996.97253L411.36765,996.9726L411.40848,996.9735C411.4138,996.9736,411.4191,996.97363,411.42435,996.9736C411.6081,996.9721,411.778,996.874,411.8711,996.7146C411.9669,996.5506,411.96616,996.3477,411.8693,996.1844C404.2364,983.3203,382.39056,948.2301,354.90884,905.0165L354.90518,905.01654C354.89557,904.99615,354.8846,904.9763,354.87228,904.9572C348.42166,894.9093,336.94412,876.67773,328.61575,863.419L328.6138,863.41626L328.61343,863.41626C321.08386,851.41223,316.2275,843.8151,313.2438,839.3736C313.14694,839.2293,312.98474,839.1427,312.81097,839.14246L312.76175,839.1424 Z"/>
</g>
<g style="fill:url(#grad14); fill-opacity:1.0; stroke-linejoin: miter">
<path d="M296.2338,844.6156L296.23132,844.6178L296.23132,844.6178L296.2338,844.6156 Z M295.8801,843.70447C295.75388,843.7055,295.63205,843.7523,295.53745,843.8363L295.53503,843.8385L295.5303,843.8428L295.53024,843.8428C291.00116,847.8644,285.04727,853.2679,278.43365,859.38696L278.4334,859.3872C235.90903,898.7893,157.93596,971.8274,135.18681,993.51373C135.03407,993.6594,134.98389,993.8825,135.05965,994.0795C135.1354,994.27655,135.32224,994.40857,135.53317,994.4143L135.58165,994.41565L135.58417,994.4157C146.60915,994.66174,166.72565,994.99927,189.70488,995.22546L189.70491,995.22546L249.91652,995.8141C249.91966,995.8141,249.92284,995.8142,249.92598,995.81415C250.16069,995.81226,250.36586,995.6537,250.42653,995.42615L251.48198,991.46796L251.4897,991.4347L251.4933,991.4166L251.49461,991.4166C252.5248,987.62683,256.0019,975.9788,259.30536,965.4494L259.30743,965.44244C262.43637,954.9645,267.2823,939.31604,269.92096,931.0688C269.93173,931.03503,269.93903,931.0005,269.94284,930.9656L269.93997,930.9656C272.45917,922.5501,277.0282,907.5927,280.19684,897.4403C280.202,897.4239,280.36053,896.9211,280.41885,896.7284L280.53528,896.3557L280.79062,895.53845C284.06946,885.04095,289.31073,868.2515,292.95197,856.1886L292.95636,856.17523L292.96994,856.1319L292.97165,856.1264C294.27972,851.7916,295.46664,847.77747,296.45047,844.373C296.49573,844.2163,296.4653,844.04755,296.36807,843.9165C296.27094,843.7855,296.1182,843.70746,295.95514,843.7053L295.89114,843.7045C295.88748,843.70447,295.88376,843.70447,295.8801,843.70447 Z"/>
</g>
</g>
<defs>
<linearGradient id="grad4" gradientUnits="userSpaceOnUse" x1="434.21173" y1="1218.7988" x2="551.7028" y2="1217.8441" >
<stop offset="0.0%" style="stop-color:rgb(255,255,255); stop-opacity:1.0" />
<stop offset="100.0%" style="stop-color:rgb(5,180,205); stop-opacity:1.0" />
<stop offset="100.0%" style="stop-color:rgb(75,45,35); stop-opacity:1.0" />
<stop offset="100.0%" style="stop-color:rgb(0,0,0); stop-opacity:1.0" />
</linearGradient>
<linearGradient id="grad9" gradientUnits="userSpaceOnUse" x1="569.2956" y1="913.3909" x2="804.1388" y2="911.4828" >
<stop offset="0.0%" style="stop-color:rgb(255,255,255); stop-opacity:1.0" />
<stop offset="100.0%" style="stop-color:rgb(5,180,205); stop-opacity:1.0" />
<stop offset="100.0%" style="stop-color:rgb(75,45,35); stop-opacity:1.0" />
<stop offset="100.0%" style="stop-color:rgb(0,0,0); stop-opacity:1.0" />
</linearGradient>
<linearGradient id="grad5" gradientUnits="userSpaceOnUse" x1="271.4032" y1="1215.6339" x2="527.58826" y2="1213.5524" >
<stop offset="0.0%" style="stop-color:rgb(255,255,255); stop-opacity:1.0" />
<stop offset="100.0%" style="stop-color:rgb(5,180,205); stop-opacity:1.0" />
<stop offset="100.0%" style="stop-color:rgb(75,45,35); stop-opacity:1.0" />
<stop offset="100.0%" style="stop-color:rgb(0,0,0); stop-opacity:1.0" />
</linearGradient>
<linearGradient id="grad14" gradientUnits="userSpaceOnUse" x1="134.3906" y1="920.88495" x2="297.10806" y2="919.5628" >
<stop offset="0.0%" style="stop-color:rgb(255,255,255); stop-opacity:1.0" />
<stop offset="100.0%" style="stop-color:rgb(5,180,205); stop-opacity:1.0" />
<stop offset="100.0%" style="stop-color:rgb(75,45,35); stop-opacity:1.0" />
<stop offset="100.0%" style="stop-color:rgb(0,0,0); stop-opacity:1.0" />
</linearGradient>
<linearGradient id="grad6" gradientUnits="userSpaceOnUse" x1="138.55228" y1="1214.6875" x2="509.73828" y2="1211.6718" >
<stop offset="0.0%" style="stop-color:rgb(255,255,255); stop-opacity:1.0" />
<stop offset="100.0%" style="stop-color:rgb(5,180,205); stop-opacity:1.0" />
<stop offset="100.0%" style="stop-color:rgb(75,45,35); stop-opacity:1.0" />
<stop offset="100.0%" style="stop-color:rgb(0,0,0); stop-opacity:1.0" />
</linearGradient>
<linearGradient id="grad11" gradientUnits="userSpaceOnUse" x1="436.3532" y1="923.98663" x2="552.3908" y2="923.04376" >
<stop offset="0.0%" style="stop-color:rgb(255,255,255); stop-opacity:1.0" />
<stop offset="100.0%" style="stop-color:rgb(5,180,205); stop-opacity:1.0" />
<stop offset="100.0%" style="stop-color:rgb(75,45,35); stop-opacity:1.0" />
<stop offset="100.0%" style="stop-color:rgb(0,0,0); stop-opacity:1.0" />
</linearGradient>
<linearGradient id="grad12" gradientUnits="userSpaceOnUse" x1="322.3677" y1="907.3585" x2="548.0571" y2="905.52466" >
<stop offset="0.0%" style="stop-color:rgb(255,255,255); stop-opacity:1.0" />
<stop offset="100.0%" style="stop-color:rgb(5,180,205); stop-opacity:1.0" />
<stop offset="100.0%" style="stop-color:rgb(75,45,35); stop-opacity:1.0" />
<stop offset="100.0%" style="stop-color:rgb(0,0,0); stop-opacity:1.0" />
</linearGradient>
<linearGradient id="grad8" gradientUnits="userSpaceOnUse" x1="709.3049" y1="923.46796" x2="854.8552" y2="922.28534" >
<stop offset="0.0%" style="stop-color:rgb(255,255,255); stop-opacity:1.0" />
<stop offset="100.0%" style="stop-color:rgb(5,180,205); stop-opacity:1.0" />
<stop offset="100.0%" style="stop-color:rgb(75,45,35); stop-opacity:1.0" />
<stop offset="100.0%" style="stop-color:rgb(0,0,0); stop-opacity:1.0" />
</linearGradient>
<linearGradient id="grad10" gradientUnits="userSpaceOnUse" x1="564.0536" y1="925.9113" x2="677.65875" y2="924.9882" >
<stop offset="0.0%" style="stop-color:rgb(255,255,255); stop-opacity:1.0" />
<stop offset="100.0%" style="stop-color:rgb(5,180,205); stop-opacity:1.0" />
<stop offset="100.0%" style="stop-color:rgb(75,45,35); stop-opacity:1.0" />
<stop offset="100.0%" style="stop-color:rgb(0,0,0); stop-opacity:1.0" />
</linearGradient>
<linearGradient id="grad13" gradientUnits="userSpaceOnUse" x1="264.0679" y1="918.8546" x2="411.3267" y2="917.6581" >
<stop offset="0.0%" style="stop-color:rgb(255,255,255); stop-opacity:1.0" />
<stop offset="100.0%" style="stop-color:rgb(5,180,205); stop-opacity:1.0" />
<stop offset="100.0%" style="stop-color:rgb(75,45,35); stop-opacity:1.0" />
<stop offset="100.0%" style="stop-color:rgb(0,0,0); stop-opacity:1.0" />
</linearGradient>
<linearGradient id="grad1" gradientUnits="userSpaceOnUse" x1="597.0618" y1="1218.0737" x2="993.0635" y2="1214.8562" >
<stop offset="0.0%" style="stop-color:rgb(255,255,255); stop-opacity:1.0" />
<stop offset="100.0%" style="stop-color:rgb(5,180,205); stop-opacity:1.0" />
<stop offset="100.0%" style="stop-color:rgb(75,45,35); stop-opacity:1.0" />
<stop offset="100.0%" style="stop-color:rgb(0,0,0); stop-opacity:1.0" />
</linearGradient>
<linearGradient id="grad3" gradientUnits="userSpaceOnUse" x1="559.1065" y1="1219.5312" x2="686.5399" y2="1218.4956" >
<stop offset="0.0%" style="stop-color:rgb(255,255,255); stop-opacity:1.0" />
<stop offset="100.0%" style="stop-color:rgb(5,180,205); stop-opacity:1.0" />
<stop offset="100.0%" style="stop-color:rgb(75,45,35); stop-opacity:1.0" />
<stop offset="100.0%" style="stop-color:rgb(0,0,0); stop-opacity:1.0" />
</linearGradient>
<linearGradient id="grad2" gradientUnits="userSpaceOnUse" x1="576.5119" y1="1218.0586" x2="851.5571" y2="1215.8237" >
<stop offset="0.0%" style="stop-color:rgb(255,255,255); stop-opacity:1.0" />
<stop offset="100.0%" style="stop-color:rgb(5,180,205); stop-opacity:1.0" />
<stop offset="100.0%" style="stop-color:rgb(75,45,35); stop-opacity:1.0" />
<stop offset="100.0%" style="stop-color:rgb(0,0,0); stop-opacity:1.0" />
</linearGradient>
<linearGradient id="grad7" gradientUnits="userSpaceOnUse" x1="829.1713" y1="925.47034" x2="991.7322" y2="924.14935" >
<stop offset="0.0%" style="stop-color:rgb(255,255,255); stop-opacity:1.0" />
<stop offset="100.0%" style="stop-color:rgb(5,180,205); stop-opacity:1.0" />
<stop offset="100.0%" style="stop-color:rgb(75,45,35); stop-opacity:1.0" />
<stop offset="100.0%" style="stop-color:rgb(0,0,0); stop-opacity:1.0" />
</linearGradient>
<linearGradient id="grad0" gradientUnits="userSpaceOnUse" x1="326.40692" y1="1666.9332" x2="1127.996" y2="529.1658" >
<stop offset="0.0%" style="stop-color:rgb(0,188,233); stop-opacity:1.0" />
<stop offset="100.0%" style="stop-color:rgb(0,0,0); stop-opacity:1.0" />
</linearGradient>
</defs>
</svg>