<?xml version="1.0" encoding="UTF-8"?>
<svg viewBox="0 0 800 800" xmlns="http://www.w3.org/2000/svg">
 <g transform="rotate(-13.163 356.66 374.48)">
  <path d="m397.1 116.08c-1.4883-0.033752-3.0974 0.33585-5.1365 1.0259l-225.97 66.354c-1.8803 0.43985-1.7721 0.9458-0.2066 2.1572l200.6 160.13c3.6932 3.0622 5.4316 3.443 10.579 1.8494l224.94-77.961c5.1604-1.8958 5.5187-2.3567 0.2052-5.8546l-197.42-144.42c-3.0468-2.1473-5.1196-3.2393-7.6-3.2856zm-25.782 19.412c4.4999-0.032333 9.2513 0.46237 14.176 1.5416 19.696 4.3186 33.666 16.355 31.122 26.808-2.5451 10.453-20.568 15.412-40.264 11.094-19.697-4.3186-33.666-16.254-31.122-26.707 1.907-7.8389 12.59-12.669 26.088-12.736zm-127.36 38.724c4.4999-0.032288 9.3539 0.46097 14.278 1.5402 19.696 4.3186 33.564 16.253 31.018 26.706-2.5437 10.453-20.567 15.515-40.263 11.196-19.697-4.3186-33.564-16.355-31.02-26.808 1.907-7.8403 12.486-12.568 25.986-12.634zm193 9.8598c4.4999-0.032303 9.3538 0.56496 14.278 1.6443 19.696 4.3186 33.564 16.253 31.018 26.706-2.5436 10.453-20.567 15.411-40.263 11.092-19.697-4.3172-33.564-16.253-31.02-26.706 1.907-7.8389 12.486-12.669 25.986-12.736zm-285.13 12.429c-0.41174 0.10535-0.54526 0.75043-0.82074 2.0545l-50.946 254.83c-0.59446 2.6504-0.49047 3.3068 1.9506 5.4428l193.51 166.81c4.5013 4.3017 5.447 4.2455 6.0598-1.0273l56.39-258.43c1.1819-3.5204-0.035126-5.4583-2.0546-7.0871l-202.04-161.36c-1.04-0.87689-1.6414-1.3364-2.0546-1.2324zm157.15 29.068c4.5013-0.032349 9.3538 0.46097 14.278 1.5416 19.696 4.3186 33.564 16.253 31.02 26.706-2.5436 10.453-20.567 15.411-40.264 11.094-19.697-4.3186-33.564-16.254-31.02-26.707 1.9084-7.8389 12.488-12.566 25.986-12.634zm195.05 8.5261c4.4999-0.032288 9.3539 0.46094 14.278 1.5402 19.696 4.3186 33.564 16.253 31.02 26.706-2.545 10.453-20.568 15.515-40.264 11.196-19.697-4.3186-33.564-16.355-31.02-26.808 1.907-7.8404 12.486-12.568 25.986-12.634zm-339.68 9.3468c0.75891-0.075867 1.5908-0.042145 2.3624 0 9.2696 0.49048 19.306 9.1768 25.165 23.111 7.8108 18.577 5.2068 39.426-5.752 46.529-10.959 7.1025-26.187-2.1713-33.998-20.748-7.8123-18.577-5.2082-39.426 5.752-46.529 2.0546-1.3322 4.1935-2.1375 6.4701-2.3624zm211.69 33.485c4.4998-0.032318 9.3525 0.46091 14.277 1.5402 19.697 4.3186 33.564 16.253 31.02 26.706-2.5436 10.453-20.567 15.412-40.264 11.094-19.697-4.3186-33.564-16.253-31.02-26.706 1.9084-7.8404 12.488-12.568 25.987-12.634zm236.34 7.0871c-0.4314 0.088501-1.0385 0.2403-1.7454 0.51291l-231 80.118c-4.705 1.9365-4.5645 2.7277-5.3416 6.2649l-56.288 257.61c-0.1911 3.793-1.588 5.5187 2.8767 3.4922l227.61-85.046c4.4169-2.1136 5.263-2.4846 5.752-6.7792l59.06-254.01c0.48901-1.7904 0.37097-2.427-0.92474-2.1571zm-37.49 41.804c6.5039 0.10541 11.608 3.2688 13.866 9.3469 4.5153 12.156-4.1808 31.612-19.516 43.448-15.336 11.836-31.434 11.539-35.95-0.61691-4.5167-12.156 4.1795-31.612 19.514-43.447 7.6689-5.9192 15.58-8.8367 22.085-8.7313zm-280 22.288c9.3862 0.2403 19.627 9.063 25.576 23.215 7.8122 18.577 5.3107 39.426-5.6494 46.529-10.959 7.1026-26.187-2.2738-33.998-20.851-7.8108-18.578-5.2067-39.324 5.752-46.426 2.0546-1.3322 4.1935-2.1375 6.4716-2.3638 0.61694-0.063263 1.2227-0.11807 1.848-0.10123v-0.001373zm-82.479 29.787c9.3862 0.24033 19.625 9.063 25.576 23.213 7.8108 18.578 5.3093 39.426-5.6494 46.53-10.959 7.1025-26.187-2.2739-33.998-20.851-7.8122-18.578-5.2067-39.325 5.752-46.428 2.0546-1.3308 4.1935-2.1361 6.4702-2.3623 0.61691-0.063232 1.224-0.11804 1.8494-0.1012v-0.001404zm-81.246 29.48c0.75885-0.075928 1.5894-0.039398 2.3624 0 9.2681 0.49045 19.202 9.2794 25.061 23.213 7.8123 18.577 5.3108 39.324-5.6494 46.426-10.959 7.1025-26.187-2.1712-33.998-20.748-7.8108-18.577-5.2068-39.426 5.752-46.529 2.0546-1.3322 4.1935-2.1375 6.4716-2.3623zm357.03 24.651c6.3648 0.2066 11.438 3.3644 13.66 9.3469 4.5167 12.156-4.282 31.612-19.618 43.448-15.335 11.836-31.433 11.539-35.95-0.61688-4.5154-12.156 4.2834-31.612 19.618-43.447 6.7105-5.1786 13.55-8.0638 19.516-8.6287 0.95984-0.09137 1.8649-0.13068 2.7741-0.10117v-0.001434zm-230.8 82.48c0.75891-0.075867 1.5894-0.039307 2.3624 0 9.2696 0.49042 19.306 9.1768 25.165 23.109 7.8108 18.578 5.2067 39.428-5.752 46.53-10.959 7.1026-26.084-2.1711-33.896-20.748-7.8108-18.578-5.3094-39.426 5.6494-46.53 2.0546-1.3308 4.195-2.1361 6.4716-2.361zm136.71 26.706c6.5052 0.10394 11.609 3.1662 13.866 9.2442 4.5154 12.155-4.1794 31.611-19.516 43.447-15.335 11.837-31.434 11.643-35.95-0.51294-4.5153-12.156 4.1809-31.613 19.516-43.448 7.6675-5.9178 15.58-8.8353 22.083-8.7299z" fill="#d00000"/>
 </g>
</svg>
