<?xml version="1.0" encoding="UTF-8"?>
<svg width="258.06" height="343.87" enable-background="new 0 0 258.057 343.871" viewBox="0 0 258.057 343.871" xmlns="http://www.w3.org/2000/svg">
 <defs>
  <linearGradient id="bk" x2="0" y1="343.81" y2="-.03506" gradientUnits="userSpaceOnUse">
   <stop offset="0"/>
   <stop offset="1"/>
  </linearGradient>
  <linearGradient id="az" x2="0" y1="48.013" y2="6.0328" gradientUnits="userSpaceOnUse">
   <stop stop-color="#7f7452" offset="0"/>
   <stop stop-color="#dfc5a8" offset="1"/>
  </linearGradient>
  <linearGradient id="ao" x2="0" y1="23.789" y2="11.061" gradientUnits="userSpaceOnUse">
   <stop stop-color="#7f7452" offset="0"/>
   <stop stop-color="#dfc5a8" offset="1"/>
  </linearGradient>
  <linearGradient id="ad" x2="0" y1="22.814" y2="12.651" gradientUnits="userSpaceOnUse">
   <stop stop-color="#ca9969" offset="0"/>
   <stop stop-color="#fdcc7c" offset="1"/>
  </linearGradient>
  <linearGradient id="s" x2="0" y1="87.434" y2="33.863" gradientUnits="userSpaceOnUse">
   <stop stop-color="#ca9969" offset="0"/>
   <stop stop-color="#fdcc7c" offset="1"/>
  </linearGradient>
  <linearGradient id="h" x2="0" y1="33.672" y2="16.746" gradientUnits="userSpaceOnUse">
   <stop stop-color="#7f7452" offset="0"/>
   <stop stop-color="#dfc5a8" offset="1"/>
  </linearGradient>
  <linearGradient id="c" x2="0" y1="85.242" y2="22.884" gradientUnits="userSpaceOnUse">
   <stop stop-color="#fff" offset="0"/>
   <stop stop-color="#fff" offset="1"/>
  </linearGradient>
  <linearGradient id="b" x2="0" y1="38.48" y2="33.229" gradientUnits="userSpaceOnUse">
   <stop stop-color="#7f7452" offset="0"/>
   <stop stop-color="#dfc5a8" offset="1"/>
  </linearGradient>
  <linearGradient id="a" x2="0" y1="96.482" y2="35.896" gradientUnits="userSpaceOnUse">
   <stop stop-color="#ca9969" offset="0"/>
   <stop stop-color="#fdcc7c" offset="1"/>
  </linearGradient>
  <linearGradient id="bu" x2="0" y1="39.348" y2="34.572" gradientUnits="userSpaceOnUse">
   <stop stop-color="#7f7452" offset="0"/>
   <stop stop-color="#dfc5a8" offset="1"/>
  </linearGradient>
  <linearGradient id="bt" x2="0" y1="56.856" y2="39.52" gradientUnits="userSpaceOnUse">
   <stop offset="0"/>
   <stop offset="1"/>
  </linearGradient>
  <linearGradient id="bs" x2="0" y1="48.153" y2="41.26" gradientUnits="userSpaceOnUse">
   <stop stop-color="#7f7452" offset="0"/>
   <stop stop-color="#dfc5a8" offset="1"/>
  </linearGradient>
  <linearGradient id="br" x2="0" y1="75.587" y2="44.254" gradientUnits="userSpaceOnUse">
   <stop stop-color="#7f7452" offset="0"/>
   <stop stop-color="#dfc5a8" offset="1"/>
  </linearGradient>
  <linearGradient id="bq" x2="0" y1="59.991" y2="47.734" gradientUnits="userSpaceOnUse">
   <stop stop-color="#7f7452" offset="0"/>
   <stop stop-color="#dfc5a8" offset="1"/>
  </linearGradient>
  <linearGradient id="bp" x2="0" y1="52.817" y2="48.503" gradientUnits="userSpaceOnUse">
   <stop stop-color="#fff" offset="0"/>
   <stop stop-color="#fff" offset="1"/>
  </linearGradient>
  <linearGradient id="bo" x2="0" y1="74.794" y2="52.817" gradientUnits="userSpaceOnUse">
   <stop stop-color="#7f7452" offset="0"/>
   <stop stop-color="#dfc5a8" offset="1"/>
  </linearGradient>
  <linearGradient id="bn" x2="0" y1="88.133" y2="50.383" gradientUnits="userSpaceOnUse">
   <stop stop-color="#ca9969" offset="0"/>
   <stop stop-color="#fdcc7c" offset="1"/>
  </linearGradient>
  <linearGradient id="bm" x2="0" y1="87.154" y2="72.509" gradientUnits="userSpaceOnUse">
   <stop stop-color="#7f7452" offset="0"/>
   <stop stop-color="#dfc5a8" offset="1"/>
  </linearGradient>
  <linearGradient id="bl" x2="0" y1="83.749" y2="81.091" gradientUnits="userSpaceOnUse">
   <stop stop-color="#fff" offset="0"/>
   <stop stop-color="#fff" offset="1"/>
  </linearGradient>
  <linearGradient id="bj" x2="0" y1="90.698" y2="85.708" gradientUnits="userSpaceOnUse">
   <stop stop-color="#ca9969" offset="0"/>
   <stop stop-color="#fdcc7c" offset="1"/>
  </linearGradient>
  <linearGradient id="bi" x2="0" y1="109.4" y2="86.594" gradientUnits="userSpaceOnUse">
   <stop stop-color="#fed984" offset="0"/>
   <stop stop-color="#fdcc7c" offset="1"/>
  </linearGradient>
  <linearGradient id="bh" x2="0" y1="106" y2="94.849" gradientUnits="userSpaceOnUse">
   <stop stop-color="#fed984" offset="0"/>
   <stop stop-color="#fdcc7c" offset="1"/>
  </linearGradient>
  <linearGradient id="bg" x2="0" y1="101.99" y2="91.958" gradientUnits="userSpaceOnUse">
   <stop stop-color="#fff" offset="0"/>
   <stop stop-color="#fff2c2" offset="1"/>
  </linearGradient>
  <linearGradient id="bf" x2="0" y1="115.84" y2="95.222" gradientUnits="userSpaceOnUse">
   <stop stop-color="#fed984" offset="0"/>
   <stop stop-color="#fdcc7c" offset="1"/>
  </linearGradient>
  <linearGradient id="be" x2="0" y1="117.61" y2="99.933" gradientUnits="userSpaceOnUse">
   <stop stop-color="#fff" offset="0"/>
   <stop stop-color="#fff2c2" offset="1"/>
  </linearGradient>
  <linearGradient id="bd" x2="0" y1="103.29" y2="95.502" gradientUnits="userSpaceOnUse">
   <stop stop-color="#fed984" offset="0"/>
   <stop stop-color="#fdcc7c" offset="1"/>
  </linearGradient>
  <linearGradient id="bc" x2="0" y1="124.93" y2="98.534" gradientUnits="userSpaceOnUse">
   <stop stop-color="#f2f2f2" offset="0"/>
   <stop stop-color="#fff2c2" offset="1"/>
  </linearGradient>
  <linearGradient id="bb" x2="0" y1="132.86" y2="103.85" gradientUnits="userSpaceOnUse">
   <stop stop-color="#fff" offset="0"/>
   <stop stop-color="#fff2c2" offset="1"/>
  </linearGradient>
  <linearGradient id="ba" x2="0" y1="148.91" y2="103.2" gradientUnits="userSpaceOnUse">
   <stop stop-color="#fff" offset="0"/>
   <stop stop-color="#fff" offset="1"/>
  </linearGradient>
  <linearGradient id="ay" x2="0" y1="248.85" y2="110.19" gradientUnits="userSpaceOnUse">
   <stop stop-color="#fff" offset="0"/>
   <stop stop-color="#fff" offset="1"/>
  </linearGradient>
  <linearGradient id="ax" x2="0" y1="138.74" y2="113.83" gradientUnits="userSpaceOnUse">
   <stop stop-color="#7f7452" offset="0"/>
   <stop stop-color="#dfc5a8" offset="1"/>
  </linearGradient>
  <linearGradient id="aw" x2="0" y1="131.42" y2="117.33" gradientUnits="userSpaceOnUse">
   <stop stop-color="#7f7452" offset="0"/>
   <stop stop-color="#dfc5a8" offset="1"/>
  </linearGradient>
  <linearGradient id="av" x2="0" y1="135.24" y2="121.25" gradientUnits="userSpaceOnUse">
   <stop stop-color="#7f7452" offset="0"/>
   <stop stop-color="#dfc5a8" offset="1"/>
  </linearGradient>
  <linearGradient id="au" x2="0" y1="184.03" y2="115.98" gradientUnits="userSpaceOnUse">
   <stop stop-color="#fff" offset="0"/>
   <stop stop-color="#fff" offset="1"/>
  </linearGradient>
  <linearGradient id="at" x2="0" y1="140.56" y2="129.13" gradientUnits="userSpaceOnUse">
   <stop stop-color="#7f7452" offset="0"/>
   <stop stop-color="#dfc5a8" offset="1"/>
  </linearGradient>
  <linearGradient id="as" x2="0" y1="146.81" y2="129.69" gradientUnits="userSpaceOnUse">
   <stop stop-color="#7f7452" offset="0"/>
   <stop stop-color="#dfc5a8" offset="1"/>
  </linearGradient>
  <linearGradient id="ar" x2="0" y1="155.48" y2="140" gradientUnits="userSpaceOnUse">
   <stop stop-color="#7f7452" offset="0"/>
   <stop stop-color="#dfc5a8" offset="1"/>
  </linearGradient>
  <linearGradient id="aq" x2="0" y1="156.41" y2="141.44" gradientUnits="userSpaceOnUse">
   <stop stop-color="#f2f2f2" offset="0"/>
   <stop stop-color="#fff2c2" offset="1"/>
  </linearGradient>
  <linearGradient id="ap" x2="0" y1="177.92" y2="141.72" gradientUnits="userSpaceOnUse">
   <stop stop-color="#7f7452" offset="0"/>
   <stop stop-color="#dfc5a8" offset="1"/>
  </linearGradient>
  <linearGradient id="an" x2="0" y1="161.4" y2="148.16" gradientUnits="userSpaceOnUse">
   <stop stop-color="#fff" offset="0"/>
   <stop stop-color="#fff2c2" offset="1"/>
  </linearGradient>
  <linearGradient id="am" x2="0" y1="188.36" y2="154.74" gradientUnits="userSpaceOnUse">
   <stop stop-color="#7f7452" offset="0"/>
   <stop stop-color="#dfc5a8" offset="1"/>
  </linearGradient>
  <linearGradient id="al" x2="0" y1="195.82" y2="162.8" gradientUnits="userSpaceOnUse">
   <stop stop-color="#7f7452" offset="0"/>
   <stop stop-color="#dfc5a8" offset="1"/>
  </linearGradient>
  <linearGradient id="ak" x2="0" y1="201.52" y2="164.34" gradientUnits="userSpaceOnUse">
   <stop stop-color="#f2f2f2" offset="0"/>
   <stop stop-color="#fff2c2" offset="1"/>
  </linearGradient>
  <linearGradient id="aj" x2="0" y1="272.87" y2="169.24" gradientUnits="userSpaceOnUse">
   <stop stop-color="#ca9969" offset="0"/>
   <stop stop-color="#fdcc7c" offset="1"/>
  </linearGradient>
  <linearGradient id="ai" x2="0" y1="203.24" y2="186.64" gradientUnits="userSpaceOnUse">
   <stop stop-color="#7f7452" offset="0"/>
   <stop stop-color="#dfc5a8" offset="1"/>
  </linearGradient>
  <linearGradient id="ah" x2="0" y1="207.44" y2="193.35" gradientUnits="userSpaceOnUse">
   <stop stop-color="#7f7452" offset="0"/>
   <stop stop-color="#dfc5a8" offset="1"/>
  </linearGradient>
  <linearGradient id="ag" x2="0" y1="246.76" y2="203.05" gradientUnits="userSpaceOnUse">
   <stop stop-color="#f2f2f2" offset="0"/>
   <stop stop-color="#fff2c2" offset="1"/>
  </linearGradient>
  <linearGradient id="af" x2="0" y1="297.03" y2="207.44" gradientUnits="userSpaceOnUse">
   <stop stop-color="#ca9969" offset="0"/>
   <stop stop-color="#fdcc7c" offset="1"/>
  </linearGradient>
  <linearGradient id="ae" x2="0" y1="294.47" y2="209.96" gradientUnits="userSpaceOnUse">
   <stop stop-color="#f2f2f2" offset="0"/>
   <stop stop-color="#fff2c2" offset="1"/>
  </linearGradient>
  <linearGradient id="ac" x2="0" y1="251.7" y2="231.22" gradientUnits="userSpaceOnUse">
   <stop stop-color="#ca9969" offset="0"/>
   <stop stop-color="#fdcc7c" offset="1"/>
  </linearGradient>
  <linearGradient id="ab" x2="0" y1="307.95" y2="240.23" gradientUnits="userSpaceOnUse">
   <stop stop-color="#ca9969" offset="0"/>
   <stop stop-color="#fdcc7c" offset="1"/>
  </linearGradient>
  <linearGradient id="aa" x2="0" y1="255.62" y2="232.2" gradientUnits="userSpaceOnUse">
   <stop stop-color="#ca9969" offset="0"/>
   <stop stop-color="#fdcc7c" offset="1"/>
  </linearGradient>
  <linearGradient id="z" x2="0" y1="275.81" y2="235.98" gradientUnits="userSpaceOnUse">
   <stop stop-color="#ca9969" offset="0"/>
   <stop stop-color="#fdcc7c" offset="1"/>
  </linearGradient>
  <linearGradient id="y" x2="0" y1="273.85" y2="248.81" gradientUnits="userSpaceOnUse">
   <stop stop-color="#ca9969" offset="0"/>
   <stop stop-color="#fdcc7c" offset="1"/>
  </linearGradient>
  <linearGradient id="x" x2="0" y1="328.75" y2="250.58" gradientUnits="userSpaceOnUse">
   <stop stop-color="#fff" offset="0"/>
   <stop stop-color="#fff" offset="1"/>
  </linearGradient>
  <linearGradient id="w" x2="0" y1="294.98" y2="253.75" gradientUnits="userSpaceOnUse">
   <stop stop-color="#7f7452" offset="0"/>
   <stop stop-color="#3f3b33" offset="1"/>
  </linearGradient>
  <linearGradient id="v" x2="0" y1="299.13" y2="275.02" gradientUnits="userSpaceOnUse">
   <stop offset="0"/>
   <stop offset="1"/>
  </linearGradient>
  <linearGradient id="u" x2="0" y1="335.47" y2="266.25" gradientUnits="userSpaceOnUse">
   <stop stop-color="#f2f2f2" offset="0"/>
   <stop stop-color="#fff2c2" offset="1"/>
  </linearGradient>
  <linearGradient id="t" x2="0" y1="321.19" y2="272.97" gradientUnits="userSpaceOnUse">
   <stop stop-color="#7f7452" offset="0"/>
   <stop stop-color="#dfc5a8" offset="1"/>
  </linearGradient>
  <linearGradient id="r" x2="0" y1="300.95" y2="277.77" gradientUnits="userSpaceOnUse">
   <stop stop-color="#7f7452" offset="0"/>
   <stop stop-color="#dfc5a8" offset="1"/>
  </linearGradient>
  <linearGradient id="q" x2="0" y1="316.02" y2="291.39" gradientUnits="userSpaceOnUse">
   <stop stop-color="#7f7452" offset="0"/>
   <stop stop-color="#dfc5a8" offset="1"/>
  </linearGradient>
  <linearGradient id="p" x2="0" y1="336.26" y2="296.71" gradientUnits="userSpaceOnUse">
   <stop stop-color="#ca9969" offset="0"/>
   <stop stop-color="#fdcc7c" offset="1"/>
  </linearGradient>
  <linearGradient id="o" x2="0" y1="305.71" y2="299.6" gradientUnits="userSpaceOnUse">
   <stop stop-color="#f2f2f2" offset="0"/>
   <stop stop-color="#fff2c2" offset="1"/>
  </linearGradient>
  <linearGradient id="n" x2="0" y1="325.44" y2="303.28" gradientUnits="userSpaceOnUse">
   <stop stop-color="#fff" offset="0"/>
   <stop stop-color="#fff" offset="1"/>
  </linearGradient>
  <linearGradient id="m" x2="0" y1="324.13" y2="313.12" gradientUnits="userSpaceOnUse">
   <stop offset="0"/>
   <stop offset="1"/>
  </linearGradient>
  <linearGradient id="l" x2="0" y1="333.04" y2="310.28" gradientUnits="userSpaceOnUse">
   <stop stop-color="#ca9969" offset="0"/>
   <stop stop-color="#fdcc7c" offset="1"/>
  </linearGradient>
  <linearGradient id="k" x2="0" y1="335.23" y2="317.93" gradientUnits="userSpaceOnUse">
   <stop stop-color="#f2f2f2" offset="0"/>
   <stop stop-color="#fff2c2" offset="1"/>
  </linearGradient>
  <linearGradient id="j" x2="0" y1="335.79" y2="321.66" gradientUnits="userSpaceOnUse">
   <stop stop-color="#7f7452" offset="0"/>
   <stop stop-color="#dfc5a8" offset="1"/>
  </linearGradient>
  <linearGradient id="i" x2="0" y1="335.79" y2="319.37" gradientUnits="userSpaceOnUse">
   <stop stop-color="#f4d797" offset="0"/>
   <stop stop-color="#fee6a7" offset="1"/>
  </linearGradient>
  <linearGradient id="g" x2="0" y1="55.252" y2="17.59" gradientUnits="userSpaceOnUse">
   <stop stop-color="#e4b880" offset="0"/>
   <stop stop-color="#33302b" offset="1"/>
  </linearGradient>
  <linearGradient id="f" x2="0" y1="146.85" y2="93.357" gradientUnits="userSpaceOnUse">
   <stop stop-color="#f2f2f2" offset="0"/>
   <stop stop-color="#fff2c2" offset="1"/>
  </linearGradient>
  <linearGradient id="e" x2="0" y1="97.601" y2="71.763" gradientUnits="userSpaceOnUse">
   <stop stop-color="#fed984" offset="0"/>
   <stop stop-color="#fdcc7c" offset="1"/>
  </linearGradient>
  <linearGradient id="d" x2="0" y1="53.442" y2="49.478" gradientUnits="userSpaceOnUse">
   <stop stop-color="#fff" offset="0"/>
   <stop stop-color="#fff" offset="1"/>
  </linearGradient>
 </defs>
 <g fill-rule="evenodd">
  <path d="m208.97,19.58c2.019,1.324 15.037-16.502 22.349-12.115 7.239,4.525 7.103,4.596 14.551,4.316 13.367-.626 8.634,31.82 3.83,25.135-2.646-3.691-3.83-.974-5.571-3.48-.138,6.823 9.122,10.166 5.292,25.413-1.183-5.501-3.76-2.438-3.551-.626 .488,5.082 3.83,11 1.812,22.139 3.411,3.273 5.081,7.659 5.986,14.204-1.95-4.177-3.62-7.59-8.147-7.59 .697.698 5.085,2.368 4.666,7.173 7.798,4.596 6.059,23.602 2.159,28.963 0-3.063-6.685-4.387-9.399,2.786 3.412,7.797 6.475,17.336-.626,24.438 .626,1.253 1.88,4.525.626,6.475 4.107,8.284.349,25.552 8.424,28.338-1.184.417-5.152,0-6.405-1.255-2.298,14.135-9.05,18.104-11.835,21.027 1.74,15.248-13.3,19.633-14.345,31.263 1.95,11.07-.625,16.151.697,22.768 10.304,52.914-.486,46.091 12.95,62.032 4.596,5.778 13.229-.765 17.477,7.103 2.714,5.223 6.265,5.223 8.146,8.146-22.351,2.021-21.515-2.158-34.535-1.879-19.494.349-14.064-6.126-15.595-11.698-3.691,1.183-6.754,7.52-9.261,8.427-3.063,1.04-4.315-.49-6.266-2.438-.211,1.461-2.229,5.847-8.635,4.733-8.771,8.774-32.794-1.531-41.146.417-7.033,9.328-13.647,5.847-21.655,8.774-9.955,3.826-27.082-2.089-35.717-1.187-29.382,3.275-31.122-7.378-46.23-5.499-28.754,2.992-28.894-17.476-27.571-23.322-21.653-31.332-6.544-52.358-3.899-65.308-.975.138-2.715.903-4.038-.421 5.291-4.037 5.569-12.459 7.241-16.358 7.519-17.824 22.349-31.611 39.268-46.581-.975-1.182-2.506.21-4.387-.207 8.216-6.754 30.078-50.341 71.296-57.929 5.709-7.519-6.336-3.62 14.063-25.203-1.461-2.926-6.614,1.113-8.284,3.896 2.507-11.07 8.564-19.911 15.735-27.639-2.715.695-5.778,2.367-8.704,2.367 4.456-3.829 9.889-8.424 11.559-14.901-1.322,0-4.873-.138-7.239,4.595-.28-4.107 4.385-12.671-2.369-3.828 .627-5.152 3.065-8.563 8.146-13.091-1.393-1.461-8.844,1.393-10.097,3.97-.625-.627 2.646-5.152 3.899-6.406-7.728-5.78-8.633-9.608-11.418-16.293-.974-.208-2.436,0-4.177.976 1.253-3.134 2.506-3.482 3.203-4.735-2.855-13.994-1.95-22.349 1.183-28.544 .906-1.743 15.528-2.646 28.896,11.905-1.464-2.995-4.527-5.709-6.27-7.171 6.755,3.412 17.06,13.229 19.218,18.45 5.152-3.899 15.387-9.329 40.661-7.379-2.36,1.949 1.4,1.044 4.04,2.854z" fill="url(#bk)"/>
  <path d="m155.85,26.055c-6.405.071-14.481,1.185-20.262,3.83 9.052-.418 13.924,6.058 18.589,7.311-17.266-8.424-19.771-1.741-22.834.208 7.796-2.994 14.829,6.823 15.734,8.843-2.717-.071-8.495.555-10.861,1.81-4.18-3.414-15.667-12.323-4.597-17.338-3.828,0-9.677,1.116-12.254,1.741 3.413-6.894 16.918-8.632 22.071-7.868-5.709-2.089-12.949-.348-15.178-.208 10.862-4.664-.068-2.714-5.152-3.342-.349-3.829.14-10.862.836-14.065 3.132-.625 6.823.628 15.804,7.868 .211-2.854-3.063-7.38-4.316-8.773 12.39,2.575 18.17,12.603 22.42,19.983z" fill="url(#az)"/>
  <path d="m228.81,9.346c1.95,0 4.525,0 6.406.626 0,1.321-3.83-1.254-6.41-.626z" fill="none"/>
  <path d="m229.44 15.612c-4.037-7.938-8.215 5.638-10.79 8.216-11.14-3.622 11.14-20.75 10.79-8.216z" fill="url(#ao)"/>
  <path d="m238 12.688c3.83 1.739 13.507-4.736 14.481 10.163-2.85-11.558-13.22-2.854-14.48-10.163z" fill="url(#ad)"/>
  <path d="m209.95,36.568c16.779,16.71 1.253,18.869 2.09,25.9 4.456-8.632 2.435-.557 6.543,8.704 2.368,5.432-6.823,9.399-7.937,16.293-1.185-6.477-2.019-11.072-9.121-16.014-5.64-8.704-6.545-18.172-4.943-28.826 1.74-6.891 7.17-12.323 13.37-6.057z" fill="url(#s)"/>
  <path d="m222.76,26.959c4.386-11.556 6.267-10.861 7.937-9.398 .697,3.897 1.95,12.044 7.73,13.089-.628,1.322-4.597,1.185-10.306,3.063 2.506-2.575-.278-7.659 3.063-10.095-6.26,1.254-4.04,16.432-8.42,3.341z" fill="url(#h)"/>
  <path d="m205.49,85.305c-4.734-7.936-4.734-5.987-10.79-5.778-3.134.069-2.298-.556-7.798,5.501-4.525-1.812.139-7.659 2.785-15.458 4.246-12.88.694-21.026-.21-27.989-.905-7.1 2.577-10.791-2.088-18.658 12.044,5.499 6.892,16.012 6.752,20.399-.69,32.305 11.36,25.97 11.36,41.983z" fill="url(#c)"/>
  <path d="m238.21,33.505c3.273,0-7.031-1.185-9.955,1.67 4.1,7.519 2.92.488 9.95-1.67z" fill="url(#b)"/>
  <path d="m186.27,96.515c-10.442-3.689-7.937-5.849-10.651-8.564-2.785-2.715-10.305-5.778-10.305-14.413-1.254,0-.976,4.458.556,10.236-5.221,0-8.912,0-14.271,5.153 4.038-14.344 17.127-17.199 11.697-28.338 3.132-4.665 2.854-8.287 6.962-2.717-.976-5.082-7.311-6.612-5.224-9.05 4.248-5.013 7.73-14.273 13.926-12.812 15.248,3.552 14.97,25.692 8.426,36.554-4.735,3.688-5.92,6.406-6.824,11.695-2.716-8.076 2.298-14.412 2.646-15.247 1.045-2.576.836-10.514 2.577-12.323-2.089-8.424-.279-9.677-12.045-14.065 1.601,1.533 2.925,2.298 3.619,4.248-1.949,1.322-5.778,0-7.101,3.203-1.255,1.95 1.322,3.899 2.507,5.849 2.645,3.201 7.103-.627 9.678,2.575 0,2.578 1.949,5.153.625,8.495-5.13,8.982-5.76,23.186 3.15,29.521z" fill="url(#a)"/>
  <path d="m243.99,37.404c-4.039-3.203-13.3,5.29-10.861.486-.49-2.227 7.03-5.847 10.86-.486z" fill="url(#bu)"/>
  <path d="m199.08,56.898c-2.228-6.963-.766-14.413 6.474-17.336-2.435,2.158-4.525,4.316-4.316,7.938 .628-.628 3.343-2.646 7.938-.211 4.178,2.09 4.178,4.108.488,6.754-3.4,2.578-9.6-.973-10.58,2.855z" fill="url(#bt)"/>
  <path d="m231.46,43.182c7.241-3.132 13.508-2.924 17.198,5.013-6.822-9.121-16.292-1.67-17.964-.417-.5-4.596-1.82-3.274.76-4.596z" fill="url(#bs)"/>
  <path d="m160.58 44.295c-6.265 5.084-8.492 17.336-11.207 21.098-2.717 3.689-7.381 1.602-10.793 10.234 1.81-13.368 14.76-27.361 22-31.332z" fill="url(#br)"/>
  <path d="m154.32,47.778c-10.443,11.07-6.195.069-20.399,12.254 7.03-10.376 10.93-12.532 20.4-12.254z" fill="url(#bq)"/>
  <path d="m208.2,48.543c2.715,1.672 2.229,2.577 0,4.318-.06-1.741.98-1.812 0-4.318z" fill="url(#bp)"/>
  <path d="m245.94 74.862c-3.62-22.768-12.115-10.862-12.811-22 8.42 1.461 14.27 2.435 12.81 22z" fill="url(#bo)"/>
  <path d="m232.78,88.159c-9.26.559-9.26-3.829-12.323-5.709-2.229-1.391-4.664,0-5.569,3.134-1.672-5.014 6.195-6.126 4.247-14.205-2.158-8.912-3.202-5.778-1.044-13.366 .694-2.856 3.133-3.134 2.854-7.59 12.6,13.646 1.04,32.306 11.83,37.736z" fill="url(#bn)"/>
  <path d="m143.87,55.924c-4.527,1.948-5.78,5.847-9.052,9.677 0-.627 4.52-7.729 9.05-9.677z" fill="none"/>
  <path d="m237.38 72.564c2.018 5.709 11.487 6.197 14.273 14.621-4.45-6.614-15.11-3.482-14.27-14.621z" fill="url(#bm)"/>
  <path d="m194.7,81.128c2.575,0 3.271,2.646 0,1.95-.628.696-.628.696-1.95.696-1.25-.696.69-2.646 1.95-2.646z" fill="url(#bl)"/>
  <path d="m215.1 88.09c4.038-4.039 7.936-2.577 12.741 2.506-7.17 1.323-5.36-5.152-12.74-2.506z" fill="url(#bj)"/>
  <path d="m166.85,86.629c.35,2.575 3.762,4.176 5.572,6.057-2.647,3.203-14.273.208-17.685,16.779-.77-11.552 6.4-22.206 12.11-22.831z" fill="url(#bi)"/>
  <path d="m175.34,95.262c-5.082,2.366-9.537,4.735-11.835,10.792-.697-1.324-1.673-1.604-2.927-3.551 .01-3.2 7.67-9.12 14.77-7.238z" fill="url(#bh)"/>
  <path d="m242.18 102.02c-7.311-4.596-24.09-10.305-28.616-9.052 3.9-1.954 17.41-2.094 28.62 9.052z" fill="url(#bg)"/>
  <path d="m175.83,95.262c.695,0-.209,3.202.348,5.081-3.482,3.414-7.45,7.313-8.495,15.528-1.949-.696-3.411-6.057-3.688-7.938 2.58-9.743 8.99-11.555 11.84-12.668z" fill="url(#bf)"/>
  <path d="m230.97,99.997c6.057-.768 21.86,6.823 21.304,17.685-2.71-8.08-13.85-15.94-21.3-17.683z" fill="url(#be)"/>
  <path d="m186.13,97.071c.767-1.81 9.33,6.058 18.59-1.531 .626,0-1.812,3.203-2.158,3.688-2.92,4.042-8.63,7.662-16.43-2.157z" fill="url(#bd)"/>
  <path d="m251.37 119.77c-4.176-3.342-9.329 1.95-9.329 5.224-4.455-7.173-14.553-20.542-24.161-23.185 3.69-10.09 33.49 5.37 33.49 17.97z" fill="url(#bc)"/>
  <path d="m177.71,132.93c-3.271-3.343-7.52-9.817-8.075-15.526 1.461-5.57 6.336-12.671 9.051-13.508-4.25,8.29-4.46,12.47-.98,29.04z" fill="url(#bb)"/>
  <path d="m218.58,103.27c16.987,7.171 34.534,34.116 22.907,45.674-.976-.767-.209-1.253-6.406-3.551-13.228-4.804-18.868-14.413-18.102-27.85 .21-3.2 3.69-5.22 1.6-14.27z" fill="url(#ba)"/>
  <path d="m180.56,110.23c9.607,12.254 3.621,25.76 15.734,37.109 4.179,3.9 18.868,25.135 16.71,32.864 3.063-14.831-23.671-37.737-20.26-54.447 6.406,1.95 12.532,12.255 13.09,27.224 1.949-6.337.905-16.919 0-22.351 8.075,8.355 4.176,10.374 14.898,25.761 13.787,19.983 12.114,36.9 11.142,48.877 2.018,12.949-11.351,20.679-13.438,26.389 .695-9.123 5.777-19.428 4.873-33.77 1.113,22.63-14.342,42.682-11.976,51.036-5.5-4.038-2.229-14.343-9.051-29.799-6.336-14.341-13.926-14.341-22.978-27.5 10.793,14.622 9.608,21.165 8.216,24.926-2.019-13.439-13.157-17.059-18.938-23.534-5.431,1.182-7.172-1.952-5.778-5.988-15.734-6.268-10.861-17.406-10.861-19.427 7.798-7.1 27.433-13.574 31.469,5.64 .209-11.278-10.442-12.811-3.548-18.241 0,2.854 3.757,8.424 7.099,10.582-.695-8.772-1.809-8.772-4.804-14.341 2.786,3.34 8.355,10.442 11.001,10.93-3.46-6.68-22.89-25.13-12.59-51.94z" fill="url(#ay)"/>
  <path d="m146.24,116.57c-9.33,3.828-18.102,14.69-19.146,22.209-.977-7.311 1.045-12.812 5.986-17.616-.974-.766-5.29.768-7.728,4.039 7.73-18.73 18.94-8.63 20.89-8.63z" fill="url(#ax)"/>
  <path d="m146.52,117.4c5.778,3.203-8.354,6.057-11.14,14.064-.98-5.5 3.55-11.34 11.14-14.06z" fill="url(#aw)"/>
  <path d="m148.33,121.3c1.322.628 12.252,6.406-1.253,13.508 1.253-2.577.695-4.318-5.641.488-.765-2.02 4.039-7.59-1.253-3.83 1.8-5.3 6.26-8.99 8.14-10.17z" fill="url(#av)"/>
  <path d="m215.03,116.01c3.411,32.654 29.172,34.187 29.172,52.984 0,9.053.903,9.677 4.038,15.11-6.269-1.461-6.894-7.661-16.85-16.223-4.53-3.83-29.87-30.36-16.36-51.87z" fill="url(#au)"/>
  <path d="m155.5,129.17c.696,1.95-4.039,4.108-6.754,11.419 .48-5.09-.21-7.31 6.75-11.42z" fill="url(#at)"/>
  <path d="m110.1,129.72c-8.842,4.527-3.412,5.78-9.887,9.679-.696,0-12.323,1.6-14.343,7.448-.201-8.35 15.883-15.94 24.233-17.13z" fill="url(#as)"/>
  <path d="m85.387,155.56v-1.322c0-7.103 8.354-12.324 15.387-13.577 .696-.628.696-.628 1.394-.628-4.589,3.2-12.247,8.98-16.773,15.53z" fill="url(#ar)"/>
  <path d="m226.03,141.49c4.107,4.665 19.356,6.197 16.293,14.97-2.92-.76-12.95-10.3-16.29-14.97z" fill="url(#aq)"/>
  <path d="m101.82 141.77c-1.253 7.381 3.689 11.141 5.013 13.021-11.627 4.246-12.463 16.152-13.09 23.187-8.424-10.029-3.969-11.073-7.171-20.123 4.458-10.45 9.471-13.17 15.251-16.09z" fill="url(#ap)"/>
  <path d="m175.83 161.47c-11.142-5.57-23.394 4.456-28.755-4.665-2.298-4.177-3.76-2.994-8.147-2.715 4.66-11.13 26.59-5.21 36.9 7.39z" fill="url(#an)"/>
  <path d="m106.9,154.79c-8.912,12.044-4.525,29.45-2.716,33.629-2.366-.28-6.126.348-8.633-8.706-1.527-20.11 6.893-22.2 11.353-24.92z" fill="url(#am)"/>
  <path d="m114,162.87c2.021,9.469 4.735,19.009 12.395,23.184-4.108,2.089-8.844,7.729-8.844,9.819-5.36-1.535-7.102-.073-11.627-6.548-6.549-12.6 2.09-22.9 8.07-26.45z" fill="url(#al)"/>
  <path d="m233.06,201.58c-.211-6.616 3.132-19.703-5.989-37.18 8.844,7.448 9.678,12.185 16.571,19.425-.28,11.98-8.63,16.5-10.58,17.76z" fill="url(#ak)"/>
  <path d="m210.78,270.58c-2.299,5.848-5.85-.696-8.425-.976-2.509-.206-7.451,2.3-12.326-4.179-9.678-12.876-18.798-27.569-29.936-35.438 2.157,2.923 2.714,3.692 2.714,6.058-6.477-1.879-10.584-6.892-11.838-11.418-6.474,1.951-14.202,10.373-19.354,15.527-1.881-10.305 5.292-19.844 13.508-25.902 2.227-1.53 5.71-5.498 7.659,2.576-.279-3.131.697-6.264-2.506-9.467-10.794-10.723-8.912-27.781-2.508-30.077 1.255-.421-5.57-2.786-6.962,5.985-1.184-9.468 4.595-11.903 6.962-13.504 2.089-1.604 1.948,1.113 1.672,3.203-1.186,7.03 8.284,12.602 12.879,14.897-.905,7.799 6.406,6.406 8.287,7.799 9.955,7.102 15.734,9.957 16.917,23.67 .628,7.451 3.411.628 11.489,9.54-5.78-.628-2.925,0 0,5.154 3.411,5.984 6.543,14.897 7.937,22.975 .7,3.76 5.99,8.21 3.83,13.58z" fill="url(#aj)"/>
  <path d="m127.93 186.68c9.26 8.912-1.53 7.45 2.438 16.642-5.16 0-18.18-9.54-2.44-16.64z" fill="url(#ai)"/>
  <path d="m133.85,193.43c-1.185,2.713.346,7.45 5.43,14.063-.696,0-3.551-1.183-5.641-2.364-2.16-1.81-6.9-5.99.21-11.7z" fill="url(#ah)"/>
  <path d="m187.94,203.11c13.297,6.263 21.861,31.19 16.779,43.722-.696-6.054-4.456-11.557-5.709-16.084 0-.691 2.506.28 2.784-.274-6.88-5.72-11.62-6.76-13.85-27.37z" fill="url(#ag)"/>
  <path d="m125.21,297.03c-15.386,1.952-26.807-22.42-38.362-20.748 5.499,2.507 10.93,6.686 10.233,16.643-4.177-5.783-8.911-6.406-12.532-5.434 7.45,1.323 7.938,5.709 7.24,8.911-5.777,0-13.506-3.202-19.285-.623-5.778-9.678-20.19-15.598-28.268-18.104-11.349-3.482-16.361-27.084-9.121-41.427 7.802-15.25 23.885-23.88 41.221-23.25 0-.628-1.323-1.604-3.969-1.883 9.051-4.803 11.767-5.15 23.811.906 15.666,8.427 14.9,26.805 12.395,41.078-1.393,7.103 5.222,12.881 5.222,24.088-2.507-23.043 7.728-21.86 5.432-29.238 15.67,13.56-4.24,34.87 5.99,49.07z" fill="url(#af)"/>
  <path d="m124.45,231.31c-9.328-3.203 1.95,5.778 4.317,10.236 4.524,8.77-2.228,8.422-.975,10.231 8.772,13.229-4.665,37.601 7.101,42.751-28.825.976 6.405-36.899-17.196-48.46 5.431,7.381-4.873,7.102-4.525,23.465-3.274-11.626-7.312-9.191-.976-34.672 .976-4.18 2.646-22.142-14.622-24.647 26.802-2.38 20.672,17.26 26.872,21.09z" fill="url(#ae)"/>
  <path d="m152.5 231.31c-11.001 3.688-11.21 10.516-14.69 20.468-3.13-15.18 2.37-19.92 14.69-20.47z" fill="url(#ac)"/>
  <path d="m30.872,240.29c-3.691,14.342 3.271,34.603 11.905,37.389 30.845,10.163 20.471,24.367.14,30.355-5.083-11.139-18.034-12.462-24.021-20.468-5.083-6.685-12.184-23.048 1.045-36.624 .208,3.203-1.045,7.588 1.88,14.553-1.324-7.74 3.202-19.99 9.051-25.21z" fill="url(#ab)"/>
  <path d="m155.71,235.49c-5.221,4.592-13.088,14.342-15.037,20.188-.558,0 1.044-5.847.625-7.726-.91-3.83 10.16-23.4 14.41-12.46z" fill="url(#aa)"/>
  <path d="m140.25 275.87c-1.81-10.167 3.343-33.559 17.477-39.826 3.97 2.3 5.848-1.531 11.07 5.013 0 1.255-4.456 3.413-3.62 6.754 3.342-6.475 7.798-7.799 12.046 2.438-3.77-4.52-33.64 11.49-36.98 25.63z" fill="url(#z)"/>
  <path d="m207.93,248.85c.625,1.948 8.701,12.254 10.373,3.272-.556,5.224.486,7.382 2.158,21.792-1.88-10.09-10.03-5.98-12.53-25.06z" fill="url(#y)"/>
  <path d="m149.65,294.53c-.766-24.927 13.439-42.888 24.646-43.864 7.867-.628 12.463,13.508 16.779,17.618 3.691,3.409 11.976,1.599 13.647,3.129 4.944,4.733 7.659,1.394 6.614-3.688 0-.628 1.95,6.127 2.298,7.382 4.805,15.593-6.825,23.461-6.825,39.685 0,2.228.35,5.361-1.322,7.382-1.809,2.158-4.315,5.013-6.822,6.195-3.831,1.879-6.545-2.228-4.596-4.807-2.575-3.826-4.873-7.45-4.039-11.208 1.116-4.733 5.015-6.822 3.134-14.411-1.949-.627-4.247-.906-5.5,1.741-1.322-3.275 3.411-7.312 6.614-9.333-.697-.692-7.659.77-13.438,11.698-1.532-9.957 6.335-14.621 8.355-16.151-10.652,3.061-19.077,14.131-17.755,24.088-.487-.345-5.29-8.981-12.184-10.997-3.063-6.896 11.627-15.25 13.785-19.428-16.015,8.426-19.703,13.37-19.563,14.97-1.881-13.646 27.082-20.959 24.019-34.114 1.04,10.98-26.25,20.1-27.85,34.1z" fill="url(#x)"/>
  <path d="m139.34 261.73c-2.018 6.685-1.253 13.646 0 18.868 1.95-11.418 14.137-22.837 25.483-26.804-14.41 11.207-17.753 30.841-16.083 40.519-5.083 1.951-15.178 0-16.711-4.939-2.01-6.83-1.46-18.74 7.31-27.65z" fill="url(#w)"/>
  <path d="m186.34 275.1c-6.474 5.778-15.666 10.025-20.19 24.088 1.12-9.96 9.82-21.51 20.19-24.09z" fill="url(#v)"/>
  <path d="m214.12,266.33c10.653,8.633 8.703,38.086 10.096,44.35 2.786,12.536 11.698,14.135 17.753,14.483 8.636.559 7.382,6.475 12.812,10.374-10.095.696-11.139-4.944-15.037-8.701-1.322-1.256-4.525,0-4.525,1.947 .625,2.506 7.867-.907 9.26,6.126-8.215,1.883-16.362-2.923-25.135-1.6-5.013.696-8.843-2.3-10.653-11.698-3.69-19.29 12.81-31.61 5.43-55.28z" fill="url(#u)"/>
  <path d="m28.713,321.26c1.532-27.501-30.287-15.038-17.894-48.248-.487,21.59 25.204,19.71 17.894,48.25z" fill="url(#t)"/>
  <path d="m92.001,277.82c9.956,1.952 15.387,18.662 32.445,20.541 0,0-8.146,2.644-10.097,2.644-27.431-.486-14.063-6.754-24.577-12.601 3.83,0 7.66,4.527 7.938,7.103 3.269-2.57 2.579-13.78-5.71-17.68z" fill="url(#r)"/>
  <path d="m20.149 291.46c5.849 3.826 17.476 4.66 19.773 17.334 0 1.324-2.854 4.733-6.266 7.309 2.367-13.01-6.405-18.16-13.507-24.64z" fill="url(#q)"/>
  <path d="m138.44,296.75c8.911-.555 10.652,1.461 22.14,8.705-2.854-.348-10.302-3.271-14.969-2.647 2.926,1.672 7.173,4.315 8.354,8.843-2.365-1.672-9.537-5.709-14.412-2.506-29.868,19.496-35.369,2.089-63.218,23.882-12.672,10.093-28.477-5.642-35.091-10.375-4.386-3.203-10.374,1.183-10.374.56 6.335-7.799 10.374-16.088 31.331-17.55 3.55-7.45 15.316-12.668 27.71-5.498 3.202,1.879 3.063,4.527 8.008,5.498 15.804,3.5 19.914-7.85 40.524-8.9z" fill="url(#p)"/>
  <path d="m114.98,302.88c-7.798,4.523-17.963,3.896-21.863-2.647l-.626-.556c7.03,1.33 14.129,3.84 22.489,3.21z" fill="url(#o)"/>
  <path d="m147.63,303.37c5.152,0 13.993,1.947 18.938,5.43 1.185.838 6.962,7.519 9.608,9.471-12.463-8.633-44.42,7.24-51.314,7.24 6.614-13.508 15.875-17.546 31.124-11.212-.84-3.76-4.88-8.64-8.36-10.93z" fill="url(#n)"/>
  <path d="m200.48,313.18c2.575.77 2.019,6.754-3.831,11.001 6.4-4.45.48-11.83 3.83-11z" fill="url(#m)"/>
  <path d="m137.82 310.33c-3.134 3.203-12.951 10.029-12.951 15.181-16.918 11.767-33.976 6.264-35.3 6.892 16.64-17.82 26.73-5.78 48.25-22.07z" fill="url(#l)"/>
  <path d="m188.92,320.29c-1.95-1.879-4.524-4.454-6.474-4.454-.63-1.26 4.52,2.57 6.47,4.45z" fill="none"/>
  <path d="m171.17,317.99c4.456.627 4.804,2.507 9.05,2.09 2.854-.279 5.919,6.681 8.494,9.883-8.632,5.503-10.581-10.512-16.501-8.98 7.661,6.405 17.268,12.88 5.92,14.066-14.621,1.6-25.344-4.806-34.116-3.481 6.75-8.01 17.27-12.81 27.16-13.58z" fill="url(#k)"/>
  <path d="m104.81,321.75c-5.152,2.647-14.411,4.316-22.767,12.673-.419.417-3.76,3.483-4.874-.278 2.579-6.47 15.807-12.95 27.641-12.39z" fill="url(#j)"/>
  <path d="m150.76,319.45c-1.39,1.184-17.265,2.297-23.321,16.432-.14.628-6.129-5.081.834-9.818 1.75-1.11 14.14-6.61 22.49-6.61z" fill="url(#i)"/>
  <path d="m189.69,17.63c9.05,0 21.305-.208 32.583,13.646-4.177-2.855-6.335-2.504-7.031-1.81 5.987,1.81 16.221,12.115 10.999,21.306-.696,1.182 1.253,2.575 1.253,4.525-4.456-2.575-5.5-13.02-13.367-16.919-2.784-1.462-8.354-12.323-18.867,2.925 .835-14.483-1.115-15.457-9.469-19.146 6.614,5.986 1.114,8.841 3.689,20.956-7.937-12.115-22.001-8.703-28.896-1.044 1.324-6.334 3.135-9.26-.973-20.399 3.202,1.461 3.342,3.342 4.733,5.709 5.09-7.728 17.07-9.121 25.36-9.749z" fill="url(#g)"/>
  <path d="m209.53,134.32c-8.634-11.835-.209,3.899-3.412,12.601-3.133-19.495-15.387-24.368-18.798-28.544-7.589-9.469-6.267-13.16-5.223-17.824-5.917,2.714-6.753,4.664-9.259,8.007 1.044-3.551 4.595-12.254 7.728-12.254 1.531,0 2.368,1.53 3.97,2.018 3.689,5.709 13.785,12.532 20.679-1.95 2.435-.974 3.063-2.227 3.896-2.994 9.261.976 10.375.836 14.136,3.762-2.577-1.253-6.545-.557-8.634.486 11.12,18.932-9.28,15.302-5.1,36.682z" fill="url(#f)"/>
  <path d="m187.67,72.704c-5.221,3.549-6.266,6.892-6.614,13.018-.487,10.096 9.4,13.579 15.595,11.35 13.928.14 13.439-10.305 12.604-13.994-.766-3.69-3.899-8.843-7.659-11.279 8.843,14.967 2.507,17.057 1.322,18.938-5.499,8.493-10.512,3.203-15.247-1.044-.14-.279 9.469,2.994-2.367-3.899-3.14-1.812 1.32-11.003 2.37-13.09z" fill="url(#e)"/>
  <path d="m178.13,49.519c3.34.697 3.34,1.67 2.158,3.968-.91-1.533 0-1.95-2.16-3.968z" fill="url(#d)"/>
 </g>
</svg>
