<?xml version="1.0" encoding="UTF-8"?>
<!DOCTYPE svg PUBLIC "-//W3C//DTD SVG 1.1//EN" "http://www.w3.org/Graphics/SVG/1.1/DTD/svg11.dtd">
<!-- Creator: CorelDRAW SE -->
<svg xmlns="http://www.w3.org/2000/svg" xml:space="preserve" width="372.625mm" height="460.437mm" version="1.1" style="shape-rendering:geometricPrecision; text-rendering:geometricPrecision; image-rendering:optimizeQuality; fill-rule:evenodd; clip-rule:evenodd"
viewBox="0 0 13906 17183"
 xmlns:xlink="http://www.w3.org/1999/xlink">
 <defs>
  <style type="text/css">
   <![CDATA[
    .fil5 {fill:#1A1A1A}
    .fil1 {fill:#C79E4C}
    .fil2 {fill:#E41E1D}
    .fil0 {fill:#F0BB53}
    .fil4 {fill:#F7D99E}
    .fil3 {fill:white}
   ]]>
  </style>
 </defs>
 <g id="Vrstva_x0020_1">
  <metadata id="CorelCorpID_0Corel-Layer"/>
  <g id="_497606744">
   <path class="fil0" d="M9983 15076c-41,4 -83,8 -128,19 -101,24 -188,60 -272,95 -172,70 -333,136 -572,92 -11,15 -20,28 -28,40 -29,44 -49,73 -132,90 -276,54 -661,119 -1025,158 -272,29 -533,44 -726,29l-39 -2c74,-25 151,-49 224,-75 22,-6 39,-11 54,-16l6 -2c-145,5 -285,32 -426,60 -221,44 -442,87 -682,43 -194,-36 -416,-45 -639,-54 -217,-8 -435,-16 -631,-50l-3 0 -2 -3c-11,-19 -19,-36 -26,-53 -15,-34 -27,-62 -71,-80 -47,27 -47,30 -50,47 -3,14 -7,34 -25,71l-2 4 -5 1c-104,2 -368,-8 -557,-55 -59,-14 -110,-33 -148,-55 -39,-24 -62,-52 -63,-86 -1,-7 0,-14 2,-22 2,-6 8,-18 11,-25 0,-1 1,-3 1,-4 -121,-19 -277,-83 -435,-162 -247,-123 -499,-284 -632,-374 -164,-112 -308,-241 -433,-387 -126,-145 -233,-306 -324,-481l-290 -519c-152,-302 -265,-610 -339,-932 -74,-323 -109,-660 -107,-1022 2,-291 63,-566 123,-839 16,-72 32,-143 46,-214 33,-162 68,-322 111,-477 44,-155 97,-306 167,-448 66,-133 122,-261 177,-386 105,-238 205,-466 359,-696 60,-91 105,-152 172,-242l1 -2c84,-114 106,-115 129,-116 4,0 7,0 11,-1 20,-4 31,-38 43,-75 10,-30 20,-62 37,-85l285 -315c30,-33 70,-62 109,-90 42,-31 82,-60 101,-88 2,-3 3,-6 4,-10 4,-11 9,-26 35,-57 17,-20 29,-29 49,-43l9 -7c26,-19 42,-29 58,-37 17,-8 34,-14 64,-24l4 -1 65 63 3 1c1,0 3,2 4,3l10 -45c10,-64 45,-60 66,-58l6 0c30,1 42,-1 42,-5 0,-9 -19,-29 -48,-58 -20,-20 -44,-44 -69,-73l-2 -2 0 -3c29,-307 164,-645 281,-941 33,-83 65,-163 93,-238 67,-180 143,-354 225,-526 83,-171 170,-339 258,-506 62,-117 87,-140 100,-133 9,4 10,16 12,28l2 13c1,0 8,-11 28,-49 66,-123 138,-252 219,-372 81,-120 171,-232 273,-319l38 -39c7,-9 14,-18 21,-27 6,-9 14,-19 23,-32 81,-115 209,-275 340,-414 104,-110 210,-207 297,-261l4 -2 3 1c53,19 113,55 177,94 58,35 119,72 180,100 72,32 296,60 518,73 211,12 420,10 492,-14 40,-14 69,-51 102,-93 47,-60 102,-130 208,-166l6 -2 3 5c42,66 72,105 109,140 37,35 81,66 151,114l68 47c264,181 570,391 704,686 15,-22 27,-26 44,-32 4,-1 8,-3 14,-5l-149 -269 64 85c40,51 96,97 152,142 37,30 74,60 105,91 82,81 140,129 195,175 83,69 160,132 301,296 94,110 275,324 422,510 95,121 175,230 210,294 103,189 171,351 253,545l43 101c17,41 34,77 49,112 34,75 65,144 98,237l47 134c24,68 34,97 40,109 4,7 6,8 10,9 10,2 27,7 64,46 41,43 48,80 55,116 10,50 19,99 131,161 95,53 152,68 204,80 95,23 171,42 413,275 26,25 40,35 54,43 18,12 35,23 72,66 82,97 181,218 262,349 79,126 141,262 159,392l76 -79 5 9c72,138 165,297 254,448 72,123 113,277 169,411 4,5 11,14 19,30l21 34c123,243 227,657 306,1100 108,599 170,1249 175,1587 9,630 -66,736 -324,1103l-32 45c-105,149 -216,286 -326,424 -114,140 -226,279 -331,430 -106,152 -209,296 -325,430 -115,133 -244,255 -401,362 -92,63 -237,146 -393,230 -214,115 -447,231 -591,299 -75,36 -139,42 -206,48zm-6355 -7892l1 -2 -1 2zm4500 4656c-144,250 -406,706 -432,896 79,27 88,10 111,-30 9,-15 19,-33 35,-54 63,-82 254,-271 440,-413 129,-98 255,-175 335,-179l11 -1 -3 10c-21,96 -108,253 -199,419 -140,252 -292,529 -248,646 41,47 113,8 215,-47 110,-60 255,-139 436,-150l10 -1 -2 10c-21,119 -104,242 -177,348 -58,86 -109,161 -113,213 -4,41 -8,58 -9,63 6,-6 14,-14 25,-8 16,-28 26,-49 36,-68 16,-31 30,-58 61,-101 16,-23 33,-46 51,-70 115,-155 239,-323 155,-452 -118,-2 -251,52 -379,103 -78,31 -153,62 -222,79l-13 3 3 -12c57,-241 171,-432 267,-593 112,-188 199,-336 143,-474 -230,7 -386,170 -526,316 -87,92 -168,177 -259,215l-12 5 1 -13c7,-54 64,-179 134,-315 103,-202 235,-428 273,-479 12,-17 25,-32 38,-46 44,-52 85,-100 62,-171 -69,35 -148,175 -194,256l-54 95zm410 1732c2,0 1,0 0,-1 0,1 0,1 0,1zm2008 278c-33,164 -64,327 -78,414 47,-126 91,-280 123,-438 28,-142 47,-288 49,-421 -21,88 -58,267 -94,445zm1033 -1705c-9,90 -18,184 -43,283 -10,41 -26,92 -42,145 -23,77 -48,160 -63,231 88,-211 304,-752 178,-884 -16,74 -23,148 -30,225zm-1010 511c2,75 3,149 20,212 34,-85 45,-242 29,-389 -8,-74 -24,-145 -46,-203 -22,-56 -51,-99 -86,-118 -14,-6 -28,-10 -44,-9 3,39 23,83 46,132 28,59 60,125 71,205 8,55 9,113 10,170zm1365 -1284c6,106 14,262 -72,546l-146 557c58,-114 127,-286 182,-460 55,-173 97,-347 100,-466l1 -31c4,-112 9,-257 -45,-311 -26,48 -24,96 -20,165zm-1572 -216c38,131 65,223 149,270 -44,-366 -206,-679 -372,-1001l-31 -59c-80,-154 -172,-325 -278,-485 -106,-158 -225,-305 -358,-411 -18,-14 -42,-34 -72,-59 -139,-117 -390,-328 -501,-342 -1,71 75,121 172,185 19,12 39,25 56,36 486,329 713,765 939,1201 45,87 91,174 137,259 88,160 127,296 159,406zm1890 -690c15,24 31,50 48,92 13,32 23,75 32,120 12,59 20,122 24,166 17,189 -2,397 -39,601 -38,203 -93,402 -147,572 -7,25 -21,64 -36,108 -43,127 -102,304 -108,360 119,-70 218,-485 267,-692l16 -64c47,-191 95,-403 110,-616 16,-212 1,-424 -76,-614 -68,-165 -88,-164 -125,-160l-14 1c8,63 26,91 48,126zm-6779 -1416l638 -248c213,-73 651,-131 1072,-138 347,-6 682,23 870,106 29,13 58,31 88,50 67,41 137,84 194,61 -31,-59 -111,-116 -205,-164 -124,-62 -274,-108 -376,-121 -243,-32 -571,-41 -890,-21 -285,17 -562,57 -770,123 -308,97 -668,258 -995,457 -280,172 -535,372 -711,586 -98,118 -212,310 -325,501 -72,120 -144,240 -211,342 -8,12 -18,26 -28,40 -51,72 -121,171 -103,231 73,-69 155,-201 256,-366 273,-444 690,-1121 1496,-1439zm-344 -3757c50,208 200,376 493,402 94,8 191,-5 272,-34 80,-28 144,-72 176,-125l6 -10 30 38 0 -8c1,-74 28,-126 58,-180 37,-70 78,-145 61,-283 -7,-56 -10,-102 -13,-140 -12,-140 -15,-184 -142,-317 -10,-11 -21,-24 -34,-38 -40,-44 -90,-99 -119,-117l-214 -96c-152,-61 -299,19 -409,165 -72,95 -128,219 -159,350 -30,131 -35,269 -6,393zm988 270l-8 5 31 39c60,-68 141,-182 201,-304 42,-86 73,-176 76,-254 -38,21 -41,33 -47,64 -7,34 -18,90 -79,197 -17,29 -31,57 -45,84 -42,80 -74,142 -129,169zm-749 5579c32,-50 64,-101 90,-158 -43,42 -97,111 -141,189 -32,56 -60,116 -74,174l32 -61c13,-26 27,-46 42,-66 10,-14 20,-28 30,-45l21 -33zm-246 -287c20,-73 48,-175 122,-280 30,-43 73,-96 114,-148 43,-53 85,-105 109,-142 -97,24 -168,136 -229,231l-36 56c-62,95 -160,242 -101,351 7,-18 13,-41 21,-68zm-536 -12c79,-242 222,-682 982,-1225 134,-96 181,-88 197,-84 -1,-1 -1,-3 -1,-6 0,-11 1,-29 4,-60 -8,-4 -19,-6 -31,-6 -89,-1 -260,95 -446,252 -187,158 -387,377 -534,620 -122,201 -207,419 -217,633 16,-32 30,-73 46,-124zm1179 -1307l0 -1c-1,1 -1,2 0,1zm-2551 -865c33,-51 61,-110 76,-152 -34,21 -64,53 -89,91 -30,46 -52,100 -67,155 27,-20 55,-55 80,-94zm50 -661c100,-122 191,-232 325,-346l-27 -59c-79,38 -336,311 -526,596 -121,181 -215,367 -219,500 12,-20 27,-50 46,-88 61,-122 159,-318 289,-469 41,-47 77,-91 112,-134zm-1321 4597c11,-24 20,-42 7,-110 -2,-11 -8,-25 -14,-38 -3,-8 -7,-16 -11,-23 -63,109 -51,146 -27,161 11,6 24,8 35,11l8 2 2 -3zm-39 -1990c24,-69 50,-140 58,-206 -113,14 -126,73 -146,166 -4,19 -8,40 -14,61 -16,65 -28,118 -37,173 -9,55 -14,114 -19,191 -6,102 -9,319 3,500 7,110 20,206 42,254 46,-62 41,-221 35,-408 -6,-209 -13,-453 48,-644 9,-29 19,-58 30,-87zm1607 1976c12,-70 23,-133 19,-165 -106,84 -127,290 -106,528 32,363 162,801 237,997 -11,-70 -30,-164 -53,-272 -55,-262 -127,-603 -122,-881 1,-61 14,-138 25,-207zm-1368 354c-3,-39 -14,-80 -28,-117l16 206c12,-26 15,-57 12,-89zm6399 -7413c37,-43 52,-80 23,-111l-318 352 2 3c6,10 4,16 7,15 0,0 2,-3 5,-8 9,-12 24,-33 56,-60 25,-20 48,-38 70,-56 61,-48 118,-94 155,-135zm112 -1415c20,15 42,38 65,67 -27,-42 -49,-72 -57,-84l-8 17zm-169 4314c30,19 69,43 119,76 145,94 247,165 342,244 95,80 181,168 293,298 15,17 24,31 32,42 22,30 28,39 95,48 -2,-24 -3,-40 -4,-52 -1,-14 -1,-21 -2,-23 -1,-1 -3,-2 -6,-4 -10,-4 -27,-12 -59,-41 -30,-28 -53,-51 -78,-77l-39 -41c-37,-37 -63,-70 -87,-101 -37,-47 -71,-90 -138,-141 -56,-42 -111,-77 -168,-113 -37,-23 -76,-47 -114,-73 -29,-19 -56,-41 -83,-62 -62,-50 -123,-99 -200,-114l1 19c1,32 2,46 16,61 13,13 37,28 80,54zm1533 -2323l21 2 0 -75 -79 0 0 4c2,36 3,53 10,60 6,7 21,8 48,9zm-538 -921c-30,107 75,284 131,376 -10,-61 -30,-137 -53,-207 -24,-69 -52,-132 -78,-169zm-171 80c41,106 103,218 138,256 5,-45 -33,-159 -52,-216l-5 -13c-7,-23 -13,-44 -19,-64 -20,-72 -34,-124 -99,-151 -13,33 6,108 37,188zm-5788 6611c4,-52 7,-105 18,-162 12,-68 31,-130 54,-187 21,-51 46,-98 72,-143 -159,34 -167,407 -171,639l-2 48c20,-63 25,-127 29,-195zm-1693 141l-3 1 17 31c37,27 50,31 53,27 3,-5 0,-18 -2,-26 -1,-3 -1,-6 -2,-8 -6,-10 -10,-18 -14,-25 -4,-8 -6,-12 -8,-13 -5,-1 -16,3 -41,13zm4289 -5447l451 854 18 37c14,26 21,40 29,50 8,10 18,18 39,34l24 19 7 4c3,2 7,4 10,7 38,34 46,58 56,91 6,18 13,40 28,68l0 2c38,75 41,81 118,113 77,-23 80,-29 109,-92 19,-43 51,-110 122,-223l468 -733c14,-23 27,-44 40,-63 75,-116 107,-167 115,-378l-22 -11c-47,-24 -67,-33 -86,-37 -14,-2 -29,-1 -54,1 -25,1 -61,3 -119,3 -50,1 -108,7 -168,13 -115,12 -235,25 -315,-4 -25,-9 -28,-16 -30,-22 -3,-5 -3,-6 -191,0 -60,2 -110,6 -160,10 -24,2 -47,4 -72,6 -243,17 -351,-17 -415,-37 -24,-7 -42,-13 -58,-13 -36,0 -48,20 -48,49 0,67 64,181 94,235l10 17zm1842 -855c23,-1 46,-4 70,-9 73,-13 143,-58 204,-112 61,-55 113,-118 152,-170 13,-17 26,-38 38,-60 62,-115 102,-280 96,-440 -6,-158 -57,-311 -175,-400 -15,-11 -30,-21 -46,-29 -74,-40 -185,-87 -292,-109 -79,-17 -155,-20 -211,3l-37 15c-98,39 -148,59 -188,89 -42,31 -74,72 -140,158l-10 13c-51,66 -90,145 -114,235 -23,86 -32,182 -24,286 1,16 3,33 6,49 25,134 111,260 231,350 121,90 276,143 440,131zm522 114c66,-58 133,-124 181,-176 -62,45 -124,108 -184,168 -24,24 -48,48 -71,70 23,-18 49,-39 74,-62zm1521 655l55 -3 -54 -112c-8,5 -14,2 -19,0 -1,-1 -1,-1 -1,-1 -1,0 1,7 0,47l-2 65 1 0c5,-3 12,-5 20,4zm-660 2012c3,67 17,128 49,164 -1,-47 6,-104 13,-164 15,-126 32,-261 -28,-317 -10,37 -41,187 -34,317zm-172 -470l1 52c1,104 -11,188 -22,255 -13,93 -23,153 15,190 21,-27 37,-99 48,-183 21,-154 25,-344 20,-362 -7,-22 -10,-36 -13,-45 -5,2 -13,2 -26,-6 -24,37 -24,43 -23,99zm2049 -190c10,2 25,-7 56,-27l-9 -7c-21,-15 -48,-35 -69,-38 -13,-2 -24,4 -28,26l15 17c17,18 26,28 35,29zm-277 1870c-31,63 -49,131 -30,174 20,-25 52,-88 80,-154 26,-61 48,-125 53,-161 -32,25 -73,80 -103,141zm-173 16c0,-8 3,-25 20,-63 33,-75 69,-118 94,-148 33,-39 46,-54 1,-101 -37,35 -99,107 -134,182 -22,48 -32,97 -18,138 20,-6 31,-8 37,-8zm0 1c1,-1 1,-1 0,0 0,0 0,1 0,0zm268 246c-23,57 -35,112 -21,149 26,-38 65,-112 96,-189 23,-58 43,-117 49,-162 -37,39 -92,121 -124,202zm-182 -2397c7,4 16,10 30,20l7 -3c36,-13 61,-23 70,-84l-119 2c2,20 2,34 2,43 0,9 0,14 1,16 1,1 4,3 9,6zm782 863c9,34 25,62 53,92 8,-17 13,-29 14,-43 1,-17 -4,-37 -12,-74 -10,-44 -16,-67 -27,-81 -9,-11 -22,-18 -44,-26 3,56 6,97 16,132z"/>
   <path class="fil1" d="M11924 7858c-75,-79 -146,-151 -204,-220 -32,-38 -56,-71 -80,-104 -27,-37 -54,-73 -91,-117 -174,-200 -345,-331 -458,-417 -68,-52 -116,-89 -132,-116 -3,-5 -6,-12 -10,-18 -56,-118 -12,-207 40,-310 25,-51 52,-105 69,-168 132,-482 299,-624 415,-724 34,-29 63,-54 86,-83l5 -6c1,-4 4,-7 6,-9 27,-33 74,-65 125,-91 56,-28 116,-48 160,-53 106,-11 153,32 203,79 17,15 34,31 54,45l3 2 0 4c7,171 -14,308 -33,432 -9,60 -18,118 -23,175 -6,69 -55,164 -100,253 -45,87 -87,168 -80,208 43,23 72,-1 104,-56 17,-30 35,-68 55,-112 10,-21 21,-44 33,-69l300 -692c96,-165 331,-431 579,-673 240,-234 492,-444 641,-516l5 -2 4 4c59,62 94,181 115,314 32,205 29,444 21,556 -29,466 -228,750 -397,992 -53,75 -103,146 -144,218 -41,72 -139,185 -240,301 -125,144 -255,294 -288,378 91,-26 227,-207 360,-386 123,-163 243,-324 330,-367 103,-48 243,-93 352,-134l3 7c60,153 95,260 104,374 9,114 -9,234 -55,414 -35,134 -65,249 -104,356 -38,107 -84,206 -149,309 -98,157 -295,403 -500,603 -155,151 -316,276 -445,316l-7 2 -2 -7c-126,-374 -402,-658 -630,-892zm196 -555c22,-44 38,-90 44,-130 -35,23 -77,75 -105,131 -22,46 -34,93 -25,130 29,-30 61,-79 86,-131zm-146 -49l89 -235c-21,-11 -34,-28 -48,-46 -15,-19 -31,-40 -60,-52 -27,37 -57,88 -79,142 -19,43 -32,88 -36,129l134 62zm1111 394c-33,89 -57,167 -59,211l85 -199 8 11c30,40 30,64 30,89 0,13 0,27 7,45 41,-25 159,-174 253,-342 42,-75 79,-154 102,-227 22,-72 30,-137 14,-187 -8,-27 -24,-49 -49,-65 -22,44 -24,70 -25,106 -2,25 -3,55 -13,99 -19,90 -79,201 -136,309 -41,77 -80,152 -104,215l-5 13 -8 -11c-5,-7 -11,-12 -17,-17 -27,-26 -49,-46 12,-152l17 -29c19,-31 30,-50 49,-90 6,-13 13,-27 20,-41 37,-72 74,-146 30,-211 -31,57 -141,287 -211,473zm-1592 -1384c62,-123 118,-233 124,-288 -45,33 -125,150 -182,280 -40,91 -68,189 -65,268 35,-83 80,-175 123,-260zm-198 -44c26,-81 42,-134 242,-353 5,-6 13,-12 21,-19 17,-16 37,-34 43,-51 5,-11 0,-23 -23,-32 -9,-3 -21,0 -36,9 -43,26 -104,97 -162,184 -59,87 -116,191 -151,284 -31,81 -46,154 -31,197 63,-111 82,-170 97,-219zm1973 -698c2,5 10,1 48,-22 -7,-14 -11,-25 -15,-34 -3,-10 -5,-15 -6,-16 -4,-1 -17,7 -46,28l-2 1c8,14 13,25 16,33 2,5 3,8 5,10zm-114 -256c9,-1 23,-2 48,2 -2,-37 3,-55 5,-65 1,-2 4,0 3,-1 -1,-1 -2,0 -7,0 -12,0 -33,-2 -71,-9 8,30 12,49 13,61 2,8 3,12 3,13 1,0 2,-1 6,-1zm190 -266l98 -16c-9,-27 -14,-40 -23,-48 -10,-9 -25,-12 -54,-19l-21 83z"/>
   <path class="fil1" d="M3206 7175c-116,120 -227,234 -326,355 -62,77 -116,149 -169,221 -54,73 -108,146 -170,222 -107,131 -247,321 -367,522 -92,153 -172,311 -218,453l-3 9c-209,-108 -446,-218 -647,-335 -161,-95 -313,-211 -462,-324l-87 -66c-145,-109 -310,-344 -432,-596 -115,-237 -192,-489 -180,-667l0 -6 25 -5c137,-32 227,-53 362,2 136,55 206,204 274,352 71,153 141,304 284,336 -10,-21 -21,-39 -32,-58 -17,-27 -36,-58 -57,-106 -29,-67 -54,-115 -83,-173l-7 -15 104 -27c-16,-82 -76,-135 -130,-185l-27 -24c-268,-251 -322,-410 -381,-581 -17,-51 -35,-103 -59,-158 -110,-256 -109,-313 -103,-574l3 -114c3,-180 6,-276 26,-359 20,-83 56,-152 123,-279l3 -5 5 1c173,23 532,179 849,382 245,158 464,344 552,519 76,153 68,288 61,401 -6,94 -11,172 34,232 45,-67 50,-215 56,-374 7,-198 15,-412 99,-519 88,-111 255,-107 581,151 121,95 186,151 236,225 51,74 86,166 151,334 31,82 80,264 117,437 29,139 50,271 47,340l0 3 -52 53zm-223 -328c-1,102 12,212 28,281l10 -18c8,-30 9,-34 11,-68 3,-48 4,-163 -2,-260 -4,-53 -9,-100 -17,-126 -20,46 -29,116 -30,191zm-328 -100c0,141 7,280 23,325 41,-48 41,-141 41,-236 0,-28 0,-56 1,-82 2,-55 5,-100 7,-138 8,-130 11,-175 -48,-210 -16,43 -24,192 -24,341zm-2006 -556l15 6c20,-93 -12,-208 -47,-330 -52,-186 -109,-389 3,-561 -28,-25 -51,-37 -69,-40 -25,-2 -42,15 -54,47 -12,34 -17,84 -17,143 -1,217 68,549 109,658l1 3c13,35 19,50 27,58 6,7 16,10 32,16zm731 -22c6,-101 2,-200 -14,-267 -35,127 -31,340 -28,507l1 32c20,-70 35,-171 41,-272zm-577 168c-8,-24 -9,-26 -57,-26 -1,30 4,44 13,49 11,6 28,3 51,-4l-7 -19zm217 451c-8,-59 -11,-76 -62,-101 -9,41 -9,68 2,88 10,20 31,34 66,48l-6 -35zm1795 23c-7,69 -12,129 39,159 16,-35 24,-117 24,-201 0,-83 -7,-166 -23,-204 -34,25 -34,31 -34,96 0,23 -1,53 -2,93 -1,19 -3,39 -4,57z"/>
   <path class="fil2" d="M6477 3260c-236,-25 -384,-40 -548,-229l-3 -3 1 -4c16,-49 21,-51 43,-61 5,-2 11,-5 18,-9 -184,-133 -285,-381 -305,-622 -7,-96 -2,-190 16,-276 17,-87 48,-165 91,-227 59,-85 141,-141 246,-150 310,-24 398,203 475,401 24,62 47,122 75,169 33,-30 58,-117 75,-221 29,-169 38,-381 32,-456 -4,-53 -54,-224 -114,-427 -100,-336 -227,-763 -215,-907 4,-59 26,-98 62,-120 41,-25 99,-25 167,-6 66,19 143,59 224,115 279,196 603,599 687,1084 70,400 -62,738 -184,1053 -25,63 -50,126 -72,188 18,-24 34,-49 50,-75 24,-41 49,-86 76,-140 53,-103 175,-209 307,-299 207,-140 442,-241 476,-230l2 1c134,77 94,197 37,295 -14,25 -29,48 -43,69l-8 13c-87,134 -233,338 -380,519 -111,137 -223,261 -313,333 -52,42 -92,80 -128,114 -139,133 -207,198 -623,135 -84,-12 -157,-20 -224,-27zm536 -1738c16,56 31,111 53,158 -4,-80 -21,-172 -46,-262 -35,-132 -85,-257 -124,-333 -8,4 -16,6 -23,9 -13,5 -24,8 -30,19 21,37 49,92 75,148 22,46 43,94 57,133 15,43 27,86 38,128zm-938 828c8,-70 12,-133 10,-162 -19,24 -32,50 -43,80 -13,36 -22,76 -32,122 -12,61 -18,105 -14,142 4,32 16,58 37,88 12,-48 30,-166 42,-270zm-225 143l23 -24 -14 -49c-7,-27 -15,-56 -15,-69 1,-34 3,-61 7,-87 5,-25 12,-49 21,-73 48,-120 76,-134 91,-142 10,-5 12,-7 13,-78 -59,15 -98,58 -124,113 -38,81 -47,186 -45,266l43 143zm1651 37l2 -1 0 2 10 2 12 4c-6,-18 -7,-29 -7,-35 0,-2 2,-1 1,-1 -1,-1 -2,0 -7,0 -5,0 -11,0 -21,-1l0 5c-1,1 -2,1 -1,2 4,7 7,13 9,18l2 5zm257 -285c1,-7 3,-16 9,-24 -31,-21 -38,-24 -40,-22 0,1 -1,3 -1,5 -1,5 -2,10 -5,15 29,24 36,30 36,30l1 -4zm-982 -1643c44,45 106,110 163,226 29,59 48,106 68,157l98 238c21,-72 -7,-185 -55,-300 -71,-172 -186,-349 -252,-405 -9,-7 -13,-12 -15,-16 -4,-4 -4,-5 -24,-8l-23 -4c0,5 -5,10 -15,16 -7,31 17,56 55,96z"/>
   <path class="fil2" d="M6642 6449c58,-7 117,-14 176,-14 82,-1 163,-1 245,-1 193,0 385,0 581,-12l10 -1 -2 10c-34,208 -155,372 -269,525 -37,50 -73,99 -105,149l-377 627 -7 -8c-12,-13 -54,-104 -107,-217 -74,-161 -171,-369 -232,-467 -31,-50 -84,-121 -141,-199 -108,-146 -233,-315 -265,-410l-4 -10 11 0c42,1 67,-4 87,-9 28,-6 49,-10 94,4 45,14 48,26 51,35 1,5 2,9 65,11 59,2 123,-5 189,-13zm248 367c-25,-7 -47,23 -86,176 -30,117 -39,183 -34,212 2,14 9,16 19,9 15,-11 36,-37 59,-70 78,-117 181,-331 196,-423 -45,27 -50,41 -66,87 -4,11 -8,25 -14,40l-3 8 -8 -4c-12,-6 -22,-12 -31,-18 -12,-8 -23,-15 -32,-17zm62 406c26,-73 121,-214 169,-299 64,-113 93,-217 159,-313 4,104 -86,240 -129,322l-129 235c-62,86 6,26 -70,55z"/>
   <path class="fil2" d="M6897 6846c-8,15 -22,43 -31,67 -9,24 -13,43 -11,57 3,13 12,20 23,18 10,-3 20,-16 32,-31 12,-15 26,-33 32,-52 5,-20 3,-42 0,-56 -4,-15 -9,-23 -15,-26 -6,-2 -14,1 -18,4 -4,3 -5,5 -12,19z"/>
   <path class="fil3" d="M7968 4793c-69,-24 -144,-19 -190,25 -38,36 -86,82 -114,137 -27,55 -34,119 8,194 34,60 86,90 151,102 66,13 145,8 234,-3 91,-118 102,-222 72,-302 -14,-37 -37,-69 -65,-95 -28,-26 -62,-45 -96,-58zm-239 740c-128,-24 -229,-69 -248,-94 -33,-42 -63,-118 -82,-201 -16,-76 -23,-158 -13,-226 24,-157 69,-251 153,-324 82,-71 202,-120 375,-187 41,-16 121,-11 199,6 82,17 163,47 197,77 43,39 72,97 91,164 21,79 28,171 26,261 -3,160 -42,276 -102,358 -71,98 -172,149 -279,170 -107,22 -220,15 -317,-4z"/>
   <path class="fil3" d="M6109 5332c-67,171 -212,299 -437,290 -146,-6 -240,-60 -325,-110 -15,-9 -31,-18 -45,-26l-19 -10 99 -20c20,-5 30,-6 36,-7 4,-1 7,-1 8,-2 3,-1 7,-5 16,-13l10 -8 -3 -2c-4,0 -11,-1 -20,-4 -8,-4 -21,-10 -34,-18 -24,-15 -52,-38 -74,-74 -50,-78 -70,-192 -67,-308 4,-123 34,-250 85,-339 40,-70 77,-113 132,-138 53,-25 123,-30 228,-26 223,10 367,169 425,364 22,73 32,151 30,228 -3,78 -17,154 -45,223zm-642 -343c-21,53 -23,123 0,207 8,26 18,46 30,62 16,21 36,33 58,39 23,5 47,3 72,-4 34,-10 68,-28 98,-52l27 -19c81,-60 153,-114 141,-262 -74,-62 -152,-92 -222,-95 -46,-2 -89,8 -125,29 -35,21 -62,53 -79,95z"/>
   <path class="fil4" d="M5599 9009c-355,199 -903,521 -1278,905 -376,385 -579,833 -693,1249 -113,416 -135,801 -133,1212 2,412 29,851 86,1145 57,294 143,443 398,683 256,240 681,570 1407,772 726,201 1753,273 2590,199 837,-75 1484,-297 1887,-480 403,-183 561,-328 672,-663 111,-334 174,-859 163,-1352 -12,-494 -98,-955 -224,-1365 -127,-409 -294,-766 -541,-1131 -246,-364 -572,-735 -957,-997 -384,-263 -828,-416 -1287,-487 -459,-70 -934,-56 -1253,-11 -319,45 -482,122 -837,321z"/>
   <g>
    <path class="fil5" d="M5928 15666c-66,45 -227,32 -328,20 -93,-11 -208,-12 -265,-68 160,-3 482,-14 593,48zm3232 -79c5,-155 9,-110 145,-171 106,-48 124,-68 266,-80 -73,113 -287,209 -411,251zm-5650 -386c340,53 736,329 868,378 34,13 112,21 167,39l137 74c-46,131 -107,244 -162,383 -104,264 -58,168 -254,323 -121,95 -482,439 -469,674 142,-3 50,6 146,-86 43,-41 84,-62 129,-105 87,-84 140,-196 249,-252 0,233 -106,456 -104,542 125,15 91,35 123,-70l185 -493c119,96 330,440 488,383 -27,-144 -368,-322 -407,-539 -29,-160 174,-528 230,-740l445 1c293,32 625,87 935,25 266,-53 669,-30 966,-49 469,-30 429,2 939,-83 145,-24 273,-43 425,-67 115,-18 215,-66 325,-51 158,21 47,9 93,48 39,91 77,475 69,600 -170,-64 -167,86 -256,260 -55,107 -172,299 -148,433 108,10 78,5 108,-78 45,43 59,118 124,125 5,-191 15,-410 156,-547 38,-37 14,-20 64,-32 -4,100 -68,22 -34,406 13,139 10,262 91,363 127,-26 114,-107 137,-245 24,-138 48,-256 -109,-260 -6,188 83,94 23,355l-53 -180c-1,-70 2,-159 6,-229 220,24 138,0 128,-191 80,76 198,136 293,201 104,72 228,172 319,104l-61 -106c-40,-190 -555,-143 -608,-486 -23,-145 -49,-271 -54,-417 278,-59 1162,-599 1598,-778 336,-138 688,-388 916,-672 124,-155 219,-320 342,-466 183,-217 557,-633 691,-900 5,6 16,6 17,15 10,112 -302,558 -357,715 165,-141 368,-472 448,-669 95,-232 128,12 325,-819 143,-605 -40,-1419 -155,-2019 -33,-173 -99,-440 -149,-608 -53,-180 -191,-413 -213,-579 218,-106 398,-284 579,-440 118,-102 344,-425 436,-576 69,-113 220,-616 248,-764 53,-285 9,-605 -160,-788 -128,8 -164,60 -263,101 68,-267 258,-303 356,-918 56,-350 -15,-902 -198,-1084 -234,60 -825,651 -1006,862 -91,106 -206,285 -297,358 -4,-5 -10,-19 -11,-15 -1,1 -136,-326 -536,-269 -434,61 -778,844 -905,1225 -38,113 -37,272 -111,339 -89,-44 -108,-188 -140,-283l-259 -603c-49,-107 -88,-184 -138,-305 -104,-248 -185,-351 -315,-543 -248,-367 -506,-622 -830,-914 -84,-75 -127,-145 -200,-218 -222,-220 -436,-413 -703,-598 -134,-94 -442,-268 -525,-372 30,-83 -11,-18 53,-86 188,-201 251,-348 409,-529 158,-182 357,-499 220,-734 -361,-24 -456,207 -709,291 53,-555 141,-511 -124,-1079 -74,-158 -230,-390 -351,-505l-225 -217c-143,-119 -425,-250 -610,-102 -220,204 348,1277 262,1771 -50,-24 -48,-20 -98,-52 -77,-52 -157,-113 -199,-190 -184,28 -276,-73 -461,62 -98,72 -209,186 -235,356 -27,179 9,404 26,571 31,284 88,266 151,448 -116,74 -246,204 -339,311 -69,80 -274,295 -307,372 -22,-16 -67,-60 -105,-50 -238,174 -383,427 -538,706l-409 839c-42,140 8,147 -65,252 -134,193 -199,437 -259,678l-176 759c-26,164 -58,140 -189,186 1,-243 -197,-1039 -307,-1184 -160,-212 -598,-470 -997,-461 -87,39 -95,236 -118,327 -322,-313 -671,-556 -1107,-743 -99,-43 -244,-66 -330,-140 -64,-55 5,-25 -73,-75 -116,73 -51,25 -89,162 -9,33 -19,56 -50,80l-95 65c-47,94 -40,848 -3,964 78,239 247,528 297,761 -90,-4 -179,-4 -269,2 -75,5 -166,15 -199,55 -98,140 109,548 150,691 115,404 478,778 811,1009 77,53 216,97 317,152l262 127c88,50 57,122 119,198l130 102 -202 448c-141,260 -179,589 -270,874 -64,198 -271,1414 -179,1582 30,-68 51,-404 65,-511l56 -388c9,-35 4,-30 21,-63 22,-41 20,-25 42,-49 -6,1221 138,2182 923,3099 489,573 493,524 1030,973 67,56 149,157 236,139 17,-40 47,47 7,-43 -4,-8 -33,-36 -34,-37zm8830 -1675c-7,4 -46,87 1,39 2,-1 63,-68 -1,-39zm-10666 -4594c212,89 212,47 181,152 -35,16 61,68 -82,12 -53,-21 -77,-116 -99,-164zm-1349 -3299c6,-360 16,-382 149,-634 305,40 1195,498 1395,897 142,284 -13,507 103,642 173,-219 -174,-1462 730,-749 242,190 256,221 384,556 57,147 172,621 164,774 -134,138 -263,268 -376,406 -126,154 -215,292 -339,443 -189,230 -480,648 -586,978l-639 -330c-193,-114 -372,-257 -549,-390 -277,-210 -633,-891 -608,-1256 146,-34 238,-59 376,-3 281,113 276,643 574,691 -25,-59 -57,-89 -95,-177 -30,-70 -55,-119 -86,-180l101 -26c-16,-102 -96,-161 -160,-221 -347,-324 -334,-495 -438,-736 -124,-288 -106,-323 -100,-685zm11547 992c86,50 120,-61 206,-238l300 -692c188,-323 916,-1041 1216,-1186 147,156 146,681 135,865 -39,608 -367,905 -540,1206 -96,166 -491,548 -534,694 174,-22 521,-667 705,-757l345 -131c118,304 140,425 48,783 -69,267 -122,458 -251,663 -173,274 -645,823 -941,915 -169,-499 -603,-839 -835,-1114 -67,-80 -100,-138 -171,-221 -278,-320 -548,-462 -589,-532 -3,-5 -7,-12 -9,-17 -83,-173 57,-283 109,-473 169,-620 397,-675 499,-804 4,-4 7,-11 11,-15 55,-67 197,-132 280,-141 137,-15 173,66 251,122 10,253 -40,430 -56,607 -11,136 -199,385 -179,466zm-8224 311c36,-391 247,-836 373,-1177 133,-358 307,-697 483,-1031 156,-296 51,30 142,-140 131,-245 288,-516 490,-689l38 -40c16,-19 27,-34 45,-60 145,-205 439,-551 636,-672 99,34 226,135 356,193 142,63 865,111 1016,59 98,-34 128,-198 310,-259 84,133 121,160 261,256 281,194 635,417 775,743 25,-42 39,-34 71,-49l-102 -184c67,88 180,157 258,235 205,204 261,198 495,470 155,181 543,642 631,803 120,220 193,404 296,645 54,127 98,213 146,348 135,380 56,188 164,301 97,103 -5,171 187,279 267,150 240,-7 615,354 61,59 61,33 126,108 164,193 393,485 421,753l80 -83c78,148 180,322 275,484l139 353c25,61 -2,-4 29,52l20 34c290,569 471,2096 480,2683 10,652 -72,741 -354,1143 -212,302 -449,556 -658,855 -211,303 -410,576 -723,790 -218,149 -735,411 -983,528 -120,57 -213,38 -333,66 -305,73 -487,255 -845,187 -54,66 -53,109 -159,130 -482,95 -1298,221 -1749,188l187 -63c76,-19 91,-36 169,-32 -417,-23 -788,182 -1218,102 -381,-71 -872,-36 -1269,-103 -38,-61 -33,-110 -105,-138 -85,50 -34,27 -81,124 -176,5 -803,-28 -758,-208l11 -25c0,-6 4,-8 6,-12 -306,-42 -856,-387 -1076,-537 -326,-223 -574,-515 -754,-865l-290 -518c-303,-604 -450,-1229 -445,-1951 2,-367 98,-708 169,-1052 66,-322 137,-640 277,-922 192,-387 301,-731 535,-1082 61,-90 106,-152 173,-244 96,-130 108,-108 135,-113 43,-8 47,-112 86,-164l284 -314c63,-68 173,-123 211,-179 8,-12 2,-23 38,-66 18,-22 31,-30 57,-49 51,-37 61,-40 119,-59l65 63c2,-5 9,9 13,13l14 -62c10,-63 48,-51 64,-51 107,3 23,-43 -69,-149zm4996 -2815c100,69 260,368 334,468 -30,-84 -313,-498 -319,-500l-15 32zm-3965 81c19,-95 106,-196 160,-262 59,-71 112,-154 207,-184 -49,83 -296,396 -367,446zm1256 -1176c20,-61 21,-43 68,-71 -435,-300 -416,-1232 33,-1268 409,-32 426,382 548,573 96,-62 126,-564 117,-689 -10,-142 -348,-1103 -330,-1333 32,-412 972,196 1125,1074 88,500 -141,902 -272,1285 60,-76 102,-148 157,-256 133,-260 719,-544 774,-525 169,96 48,266 -17,366 -152,235 -485,684 -690,850 -255,205 -227,326 -746,248 -377,-57 -559,-14 -767,-254z"/>
    <path class="fil5" d="M6156 6429c99,2 102,-30 179,-6 90,28 -7,42 117,47 113,4 241,-26 366,-28 278,-3 548,5 826,-13 -45,275 -244,473 -373,672l-371 618c-28,-31 -234,-516 -338,-683 -90,-144 -357,-463 -406,-607zm741 1432c135,-40 56,-31 238,-319l467 -733c105,-169 148,-198 157,-450 -150,-74 -81,-47 -289,-46 -147,0 -361,52 -480,9 -69,-25 56,-31 -224,-23 -90,3 -155,11 -233,16 -335,24 -411,-50 -472,-50 -136,1 16,252 49,313l451 854c54,105 35,81 113,142 4,4 11,7 15,11 59,52 43,78 83,157 40,80 42,85 125,119z"/>
    <path class="fil5" d="M3718 10869c275,-244 644,-1372 1758,-1812l638 -248c385,-132 1520,-215 1936,-32 96,43 207,152 296,108 -66,-143 -407,-273 -591,-297 -461,-61 -1222,-37 -1663,102 -573,182 -1327,580 -1710,1046 -159,194 -362,579 -537,844 -49,74 -165,214 -127,289z"/>
    <path class="fil5" d="M7916 4508c81,-31 325,24 389,82 92,83 118,255 114,419 -16,776 -874,500 -932,425 -61,-77 -115,-280 -93,-420 47,-311 178,-372 522,-506zm-124 -122c-245,99 -231,85 -378,277 -100,130 -156,311 -140,526 22,312 377,599 756,529 151,-28 284,-182 361,-285 164,-217 229,-769 -90,-941 -129,-71 -373,-161 -509,-106z"/>
    <path class="fil5" d="M5464 5425c-6,-4 -15,-13 -18,-8 0,0 -71,-18 -119,-93 -100,-158 -79,-468 19,-639 79,-138 144,-169 353,-160 589,26 612,1114 -27,1089 -170,-7 -268,-81 -367,-135l79 -15c61,-17 30,5 80,-39zm613 115l63 79c105,-116 285,-389 285,-583 -102,52 -16,51 -141,270 -67,119 -100,215 -170,250 1,-170 148,-218 119,-464 -32,-264 6,-290 -157,-462 -40,-42 -116,-131 -155,-156l-215 -96c-528,-214 -1004,1242 -85,1325 190,17 389,-52 456,-163z"/>
    <path class="fil5" d="M7877 12501c17,-132 342,-706 406,-791 56,-76 136,-131 98,-231 -76,29 -164,189 -211,271 -122,216 -459,780 -483,992 121,42 100,-5 161,-85 107,-139 579,-579 770,-590 -55,242 -524,873 -446,1071 90,108 305,-171 658,-193 -39,214 -281,441 -291,561 -11,132 3,41 26,67 47,-79 50,-104 101,-176 125,-175 310,-379 204,-533 -192,-7 -422,136 -607,181 124,-527 521,-813 407,-1075 -381,6 -559,434 -793,531z"/>
    <path class="fil5" d="M10521 11439c-45,-396 -227,-729 -406,-1077 -159,-308 -370,-686 -638,-898 -98,-78 -453,-398 -585,-403 -10,94 103,150 230,236 581,392 791,941 1074,1457 198,361 150,604 325,685z"/>
    <path class="fil5" d="M8062 5255c270,-348 -141,-584 -290,-443 -76,73 -194,186 -106,340 70,125 213,125 396,103z"/>
    <path class="fil5" d="M12350 10496c-81,-199 -98,-163 -155,-164 13,116 56,123 97,229 30,73 49,206 56,284 35,377 -77,829 -185,1170 -33,105 -151,431 -145,482 142,-57 256,-594 299,-767 94,-381 189,-852 33,-1234z"/>
    <path class="fil5" d="M4532 10998c108,-160 74,-683 1041,-1374 249,-178 183,10 204,-160 -183,-110 -1237,744 -1245,1534z"/>
    <path class="fil5" d="M5900 4956c-243,-204 -531,-78 -440,242 43,152 174,123 270,50 93,-72 186,-121 170,-292z"/>
    <path class="fil5" d="M1789 11770c115,-117 -26,-693 92,-1064 32,-99 80,-206 90,-304 -153,15 -142,101 -176,234 -33,131 -48,211 -57,365 -9,170 -14,657 51,769z"/>
    <path class="fil5" d="M13191 7710c-28,-37 -76,-36 -4,-160 30,-52 41,-68 66,-120 42,-90 110,-186 42,-270 -29,48 -312,636 -273,728l90 -212c50,64 15,84 39,139 76,-23 567,-705 323,-842 -46,82 -20,106 -43,214 -33,152 -184,371 -240,523z"/>
    <path class="fil5" d="M9375 9150c-14,-139 12,-55 -75,-135 -45,-41 -72,-73 -117,-117 -93,-95 -113,-158 -226,-243 -91,-69 -180,-118 -282,-186 -99,-67 -178,-161 -296,-180 9,117 -18,70 221,226 289,189 410,281 633,541 59,70 37,81 142,94z"/>
    <path class="fil5" d="M3676 14011c-16,-209 -190,-785 -182,-1211 2,-131 59,-333 41,-385 -308,213 32,1343 141,1596z"/>
    <path class="fil5" d="M2810 8726c39,-46 160,-358 348,-577 154,-178 257,-328 440,-483l-32 -72c-118,42 -779,791 -756,1132z"/>
    <path class="fil5" d="M669 6207c62,-237 -233,-615 -38,-902 -279,-256 -121,621 -49,812 29,78 24,65 87,90z"/>
    <path class="fil5" d="M11692 12535c117,-199 306,-725 314,-986 3,-121 16,-299 -53,-354 -80,128 49,238 -99,721l-162 619z"/>
    <path class="fil5" d="M6714 501c-21,76 108,106 218,330 37,76 57,131 86,202l87 212c79,-172 -187,-635 -302,-733 -24,-20 -8,-20 -43,-26 -98,-16 -3,-7 -46,15z"/>
    <path class="fil5" d="M13151 9665c80,-156 -173,-651 -260,-733 -96,94 104,264 181,538 13,46 14,71 21,105 27,127 -12,66 58,90z"/>
    <path class="fil5" d="M11197 6456c182,-313 23,-230 346,-584 27,-29 113,-85 38,-114 -99,-38 -470,554 -384,698z"/>
    <path class="fil5" d="M10587 12891c90,-174 52,-772 -153,-750 1,91 96,195 117,347 20,133 -1,287 36,403z"/>
    <path class="fil5" d="M6889 6878c20,-47 21,-32 33,-46 2,95 12,66 -58,136 12,-53 13,-63 25,-90zm68 -34c-72,-35 -96,-106 -161,146 -156,605 248,-125 258,-285 -74,42 -64,52 -97,139z"/>
    <path class="fil5" d="M11832 7197l147 67 94 -249c-51,-21 -56,-80 -120,-103 -51,68 -115,189 -121,285z"/>
    <path class="fil5" d="M2675 7086c66,-60 48,-205 53,-332 9,-253 38,-310 -53,-359 -36,61 -38,627 0,691z"/>
    <path class="fil5" d="M11605 11905c-40,166 -29,334 -76,521 -31,123 -103,320 -117,442 58,-136 361,-831 193,-963z"/>
    <path class="fil5" d="M9164 8538c68,-62 84,-529 75,-558 -32,-112 4,-23 -49,-60 -36,56 -27,47 -26,162 2,256 -79,391 0,456z"/>
    <path class="fil5" d="M5102 10939c31,-58 40,-205 148,-359 67,-96 192,-238 234,-306 -121,16 -202,161 -271,267 -62,96 -195,274 -111,398z"/>
    <path class="fil5" d="M10452 14326c106,-257 202,-665 195,-979 -19,42 -196,920 -195,979z"/>
    <path class="fil5" d="M5846 2509l33 -35c6,-6 -27,-98 -27,-123 1,-66 9,-110 27,-157 92,-231 105,-59 104,-233 -157,32 -188,250 -184,390l47 158z"/>
    <path class="fil5" d="M11365 6557c86,-220 267,-510 260,-595 -75,34 -292,393 -260,595z"/>
    <path class="fil5" d="M13337 9801c55,-113 35,-165 22,-286 -12,-118 20,-258 -77,-306 -43,75 45,458 55,592z"/>
    <path class="fil5" d="M6834 1113c38,66 102,195 133,284 40,113 59,229 107,318 3,-205 -105,-508 -174,-641 -32,17 -54,14 -66,39z"/>
    <path class="fil5" d="M9400 8684c-13,-147 83,-432 -27,-514 -7,9 -102,412 27,514z"/>
    <path class="fil5" d="M9451 5540c18,-38 -35,-191 -53,-247 -37,-111 -37,-187 -130,-222 -46,76 125,423 183,469z"/>
    <path class="fil5" d="M3483 12120c56,-122 36,-250 63,-401 25,-135 76,-245 134,-341 -208,15 -188,529 -197,742z"/>
    <path class="fil5" d="M2858 6980c38,-61 38,-358 0,-427 -59,43 -40,32 -47,201 -4,96 -33,188 47,226z"/>
    <path class="fil5" d="M6037 2637c18,-57 71,-423 52,-467 -50,56 -67,126 -86,218 -26,125 -24,178 34,249z"/>
    <path class="fil5" d="M10728 9744c81,-28 24,21 68,-78 82,-186 181,-170 88,-263 -60,55 -206,227 -156,341z"/>
    <path class="fil5" d="M8237 5774c34,52 7,22 85,-43 156,-128 331,-241 243,-319l-328 362z"/>
    <path class="fil5" d="M3009 7148l20 -35c7,-32 8,-36 11,-71 5,-80 3,-354 -26,-405 -63,106 -37,396 -5,511z"/>
    <path class="fil5" d="M1332 6486c54,-130 81,-471 34,-612 -50,143 -36,428 -34,612z"/>
    <path class="fil5" d="M6952 7222c76,-29 8,31 70,-55l129 -235c43,-82 133,-218 129,-322 -66,96 -95,200 -159,313 -48,85 -143,226 -169,299z"/>
    <path class="fil5" d="M11014 10137c49,-61 152,-282 157,-386 -61,50 -213,291 -157,386z"/>
    <path class="fil5" d="M9624 5601c-13,-127 -85,-354 -147,-428 -50,122 99,348 147,428z"/>
    <path class="fil5" d="M10910 9897c41,-34 145,-277 145,-344 -68,38 -202,254 -145,344z"/>
    <path class="fil5" d="M12031 7449c58,-57 136,-195 142,-291 -69,34 -180,199 -142,291z"/>
    <path class="fil5" d="M5226 11396l55 -107c24,-43 48,-69 73,-109 43,-70 91,-141 125,-225 -82,65 -235,277 -253,441z"/>
    <path class="fil5" d="M11692 8545c24,-49 25,-58 8,-133 -21,-90 -27,-94 -87,-117 5,126 12,180 79,250z"/>
    <path class="fil5" d="M3122 8782c74,-40 160,-202 181,-279 -90,43 -154,160 -181,279z"/>
    <path class="fil5" d="M1925 12420c-115,194 -16,188 21,199 14,-31 27,-46 12,-123 -5,-25 -23,-58 -33,-76z"/>
    <path class="fil5" d="M10835 7503c8,99 -13,55 49,102 46,-18 78,-24 87,-104l-136 2z"/>
    <path class="fil5" d="M8313 5965c105,-47 315,-253 394,-346 -138,77 -276,261 -394,346z"/>
    <path class="fil5" d="M1036 6835c-19,-108 -7,-124 -84,-159 -22,96 -4,127 84,159z"/>
    <path class="fil5" d="M9998 6496l71 -4 -64 -132c-20,27 -28,-35 -30,58 -3,117 8,54 23,78z"/>
    <path class="fil5" d="M10047 6120l-1 -91 -94 0c4,96 -1,83 95,91z"/>
    <path class="fil5" d="M13333 5010l119 -20c-23,-67 -22,-66 -93,-82l-26 102z"/>
    <path class="fil5" d="M11161 7796c58,64 47,69 128,17 -33,-21 -116,-98 -128,-17z"/>
    <path class="fil5" d="M2125 13061c53,-72 18,-195 -21,-278l21 278z"/>
    <path class="fil5" d="M13211 5277c-12,-120 54,-63 -90,-94 37,131 -10,77 90,94z"/>
    <path class="fil5" d="M1899 12044c-32,-50 -10,-55 -85,-26l22 40c99,74 60,-12 63,-14z"/>
    <path class="fil5" d="M13236 5477c39,55 5,77 90,26 -35,-67 -7,-83 -90,-26z"/>
    <path class="fil5" d="M820 6361c-23,-56 -6,-58 -81,-58 -5,77 24,76 81,58z"/>
    <path class="fil5" d="M7709 2219c81,67 40,26 70,0 -81,-54 -49,-14 -70,0z"/>
    <path class="fil5" d="M7481 2491c4,5 0,17 2,20 34,58 -31,5 56,39 -31,-72 14,-51 -58,-59z"/>
   </g>
  </g>
 </g>
</svg>
