<?xml version="1.0" encoding="UTF-8"?>
<svg version="1.1" viewBox="0 0 428.6 428.6" xmlns="http://www.w3.org/2000/svg">
 <g transform="translate(-78.709 -62.71)">
  <rect x="82.709" y="66.71" width="420.6" height="420.6" fill="#ffb380" stroke="#ffb380" stroke-linecap="round" stroke-width="8"/>
  <g transform="matrix(1 0 0 .88181 16.438 34.661)">
   <path d="m280 250.93c0 78.109-31.98 141.43-71.429 141.43-39.449 0-71.429-63.32-71.429-141.43 0-78.109 31.98-141.43 71.429-141.43 39.449 0 71.429 63.32 71.429 141.43z" fill="#fff" stroke="#000" stroke-linecap="round" stroke-width="8.5193"/>
   <path transform="translate(136)" d="m280 250.93c0 78.109-31.98 141.43-71.429 141.43-39.449 0-71.429-63.32-71.429-141.43 0-78.109 31.98-141.43 71.429-141.43 39.449 0 71.429 63.32 71.429 141.43z" fill="#fff" stroke="#000" stroke-linecap="round" stroke-width="8.5193"/>
   <path transform="matrix(.38239 0 0 .38239 94.7 156.98)" d="m280 250.93c0 78.109-31.98 141.43-71.429 141.43-39.449 0-71.429-63.32-71.429-141.43 0-78.109 31.98-141.43 71.429-141.43 39.449 0 71.429 63.32 71.429 141.43z"/>
   <path transform="matrix(.38239 0 0 .38239 232.7 160.98)" d="m280 250.93c0 78.109-31.98 141.43-71.429 141.43-39.449 0-71.429-63.32-71.429-141.43 0-78.109 31.98-141.43 71.429-141.43 39.449 0 71.429 63.32 71.429 141.43z"/>
   <path transform="matrix(.28439 0 0 .28439 139.94 162.76)" d="m91.212 238.41c0 11.953-9.6901 21.644-21.644 21.644-11.953 0-21.644-9.6902-21.644-21.644 0-11.953 9.6901-21.644 21.644-21.644 11.953 0 21.644 9.6902 21.644 21.644z" fill="#fff" stroke="#000" stroke-width="1.0649"/>
   <path transform="matrix(.28439 0 0 .28439 279.94 166.76)" d="m91.212 238.41c0 11.953-9.6901 21.644-21.644 21.644-11.953 0-21.644-9.6902-21.644-21.644 0-11.953 9.6901-21.644 21.644-21.644 11.953 0 21.644 9.6902 21.644 21.644z" fill="#fff" stroke="#000" stroke-width="1.0649"/>
   <path d="m160.01 382.18s10.639 29.415 54.109 28.6c41.058-0.76986 58.747-43.287 58.747-43.287" fill="none" stroke="#000" stroke-linecap="round" stroke-width="8.5193"/>
   <path d="m296.01 382.18s10.639 29.415 54.109 28.6c41.058-0.76986 58.747-43.287 58.747-43.287" fill="none" stroke="#000" stroke-linecap="round" stroke-width="8.5193"/>
   <path d="m158.01 122.12s10.639-29.415 54.109-28.6c41.058 0.76986 58.747 43.287 58.747 43.287" fill="none" stroke="#000" stroke-linecap="round" stroke-width="8.5193"/>
   <path d="m294.01 122.12s10.639-29.415 54.109-28.6c41.058 0.76986 58.747 43.287 58.747 43.287" fill="none" stroke="#000" stroke-linecap="round" stroke-width="8.5193"/>
  </g>
 </g>
</svg>
