<?xml version="1.0" encoding="UTF-8"?>
<svg viewBox="0 0 128 128" xmlns="http://www.w3.org/2000/svg">
 <g transform="translate(0 -924.36)">
  <path d="m67.17817,1046.3485c0-.8812 1.60207-1.2513 2.07857-.4803 .28839.4666-.06127.8484-.77711.8484s-1.30146-.1656-1.30146-.3681zm-9.18276-1.7681c0-.7159.37566-1.0693.8348-.7856s.8348.8695.8348,1.3015-.37566.7855-.8348.7855-.8348-.5857-.8348-1.3014zm5.84357.5559c0-.8029 2.03022-1.7755 3.61616-1.7323 .53636.015.24601.5781-.64523,1.2522-1.83955,1.3913-2.97093,1.5742-2.97093.4801zm11.68714-1.6321c0-.3894 1.4915-1.3806 3.31444-2.2026s3.94728-2.1939 4.72076-3.0486c1.70107-1.8797 2.53888-1.9792 2.53888-.3018 0,.6887-.48205,1.2522-1.07122,1.2522s-2.74107,1.127-4.782,2.5044c-3.91292,2.6408-4.72086,2.9483-4.72086,1.7964zm4.17398-.1268c0-.4591.58566-.8348 1.30146-.8348s1.06929.3757.78553.8348-.86942.8348-1.30146.8348-.78553-.3756-.78553-.8348zm6.31503.087c-.25403-.4111.09946-.9628.78553-1.226 .75771-.2907 1.2474,0 1.2474.7473 0,1.3502-1.30447,1.6574-2.03293.4787zm-26.65971-.7478c-.22446-.3632.88035-.5099 2.45513-.3261s2.86322.481 2.86322.6603c0,.6283-4.91438.3194-5.31835-.3342zm12.36497-.6184c.89124-.6741 1.96574-1.2257 2.38777-1.2257 1.05736,0 8.93112-5.1575 8.93112-5.8501 0-.3082.93915-.9882 2.08699-1.5112s2.08699-.7739 2.08699-.5577c0,.7132-3.62662,4.5798-4.29553,4.5798-.36039,0-2.41372,1.1152-4.56295,2.4782s-4.20244,2.296-4.56269,2.0734-.89096-.023-1.17935.4436-.97175.8365-1.51858.8219-.26502-.5781.62622-1.2522zm-15.60328-.1315c-.80349-.21-1.46089-.6947-1.46089-1.0772s.75132-.499 1.66959-.2589 1.66959.7685 1.66959,1.1741-.09392.6938-.2087.6406-.8661-.2687-1.66959-.4786zm10.22625-.2594c0-.4591.37566-.8348.8348-.8348s.8348.3757.8348.8348-.37566.8348-.8348.8348-.8348-.3756-.8348-.8348zm23.37429.023c0-1.1317 1.48352-1.8343 2.02451-.9589 .25865.4185-.09104.9763-.77711,1.2396s-1.2474.1369-1.2474-.2807zm-21.12065-1.142c-.27459-.7156-1.43537-1.0143-3.2198-.8285-2.0711.2156-2.37155.1098-1.16552-.4103 1.558-.672 1.5494-.7206-.2087-1.1804-1.24122-.3246-1.83359-.1032-1.83359.6852 0,1.6333-4.06532,1.1713-4.60312-.5232-.46265-1.4577-8.75361-6.1006-8.75361-4.902 0,.402 1.47715,1.4847 3.28254,2.4057 3.29997,1.6835 5.04769,3.3681 3.49436,3.3681-.45914,0-1.06696-.3757-1.35073-.8348s-1.17424-.8348-1.97885-.8348-2.19146-.6574-3.08189-1.4609-3.0274-2.5131-4.74879-3.7991-3.12981-2.7336-3.12981-3.217 1.35426.3103 3.00945,1.7636 3.25115,2.4007 3.54657,2.1052-.21361-1.0527-1.13116-1.6827c-2.35438-1.6166-4.60171-3.8956-5.52733-5.605-1.36004-2.5116.73586-1.6666 2.79056,1.1251 1.04681,1.4223 3.59375,3.5531 5.65987,4.7351s4.26405,2.5376 4.88429,3.0124 1.63093.937 2.24598,1.0272 2.62704.3752 4.47111.6331c3.31291.4634 6.67969,1.9247 7.7143,3.3482 .75596,1.0402 2.53395-.2406 1.85625-1.3371-.3347-.5415-.17134-.6659.40604-.309 .68988.4263.71836,1.0597.09961,2.2159-1.00913,1.8856-2.11831,2.0889-2.72803.5zm-8.12138-3.0877c-1.96507-1.2426-2.96117-.9205-1.18019.3818 .89052.6512 1.79667,1.0064 2.01367.7895s-.15808-.7441-.83349-1.1713zm-8.77635,2.4801c-.30311-.4904-1.09611-.6825-1.76222-.4269s-.99832.1204-.73823-.3004-.32098-1.0171-1.29125-1.325c-1.6899-.5364-4.93849-3.2721-4.93849-4.1588 0-.5191 3.29424,1.3135 4.74924,2.642 .58147.5309 2.19255,1.4679 3.58016,2.082s2.52295,1.4008 2.52295,1.7478c0,.9439-1.49093.7607-2.12216-.2607zm22.1414-1.1761c.86081-1.0372.83643-1.2713-.13237-1.2713-.65309,0-1.6291-.4417-2.1689-.9815-.75208-.7521-.39618-1.3373 1.52281-2.5044 2.87188-1.7465 3.2987-1.8375 3.2987-.704 0,.4504-.93915,1.0546-2.08699,1.3427s-2.08699.8587-2.08699,1.2681c0,1.4247 2.01078.7298 4.337-1.4989 1.28776-1.2337 2.34137-1.8285 2.34137-1.3218s-1.03306,1.6921-2.29569,2.6341-1.90584,1.7247-1.42936,1.7392 2.16695-1.1262 3.75658-2.5351 2.44664-2.3418 1.90444-2.0734c-1.23598.6121-2.27186-.9025-1.10886-1.6212 1.36971-.8466 3.30052-5.0822 3.8271-8.3955 .36593-2.3025.23124-2.9013-.54474-2.4217s-.90098-.1494-.49237-2.6232c.29618-1.7932.54263-4.1055.54768-5.1386s.41016-1.8783.90024-1.8783c.51115,0 .66512.7118.36114,1.6696-.33016,1.0402-.15001,1.6696.47793,1.6696 1.24204,0 .50604-8.9501-.84728-10.3035-.48556-.4855-.88284-1.682-.88284-2.6589 0-1.8224-2.91759-9.58372-6.11069-16.25547-2.33421-4.87718-7.34969-9.99553-10.32296-10.53468-5.9485-1.07868-12.12505,2.86106-14.92464,9.51974-1.76542,4.19894-1.60123,14.22551.28223,17.23501 .30749.4913.62514,1.3277.7059,1.8586s1.40614,2.6664 2.94527,4.7454c2.40725,3.2516 3.14847,3.7371 5.3028,3.4737 1.37741-.1686 2.91366-.3318 3.41389-.3627 .92115-.057 2.84708-3.5697 2.84708-5.1927 0-.4861-1.11657.3114-2.48128,1.7724-2.42888,2.6001-4.58639,2.8454-3.65392.4154 .2623-.6835-.0017-1.2255-.59682-1.2255-.58689,0-1.75406-.6216-2.5937-1.3816-.90099-.8153-1.52662-.9893-1.52662-.4245 0,.5265.75132,1.4264 1.66959,1.9999s1.66959,1.3493 1.66959,1.7239-.78839.1292-1.75198-.5458c-2.07931-1.4564-4.27864-5.4026-3.61209-6.4812 .73509-1.1894 2.00834.01 1.47807,1.389-.32017.8343-.08098,1.0841.73752.77 .66626-.2556 1.69323.1158 2.28215.8254 1.54522,1.8618 6.61729,1.73 6.5691-.1708-.02037-.8035.32196-3.2014.76071-5.3287 1.12651-5.46199-1.81676-13.17146-5.05186-13.2327-.37145-.007-.44319.36288-.15943.82202s.12254.8348-.35827.8348-1.11448,1.50263-1.40815,3.33918-.88377,3.3392-1.31133,3.3392-.56124-.34972-.29709-.77713 .09237-1.01686-.38174-1.30988-.58473-.97637-.24579-1.51857c.93628-1.4978 1.0244-3.0728.17193-3.0728-.41852,0-.76093.75131-.76093,1.66959s-.40551,1.66959-.90113,1.66959c-1.06723,0-.13597-5.27248 1.00786-5.70617 .40616-.15401.57066-.55153.36555-.8834s.46792-1.65791 1.49561-2.94676c2.17527-2.72803 5.92726-3.46005 8.64639-1.68691 2.92424,1.90691 4.0552,1.40465 1.93027-.85723-1.58849-1.69087-2.48041-1.98002-4.94559-1.60327-3.86107.59006-6.56984,2.35204-8.30499,5.40212-.75953,1.33512-1.7087,2.42987-2.10928,2.43277s-.30991-.49886.20146-1.11503 .73527-1.3148.49756-1.55252c-.57879-.57879 6.01349-6.49111 7.33617-6.57949 .5726-.0382 1.95048-.16805 3.06197-.2884 1.87979-.20355 3.25699.74005 8.71115,5.96855 1.37811,1.3211 4.31854,7.04599 5.8615,11.4121 .47317,1.33894.36473,1.41854-.71331.52389-.69922-.5803-1.2713-1.62077-1.2713-2.31215 0-1.60109-4.90495-10.22565-5.81552-10.22565-1.47118,0-1.52051,2.35598-.05735,2.7386 1.55985.40792 4.72791,6.48779 6.29404,12.07905 .28937,1.033.86467,1.8783 1.27847,1.8783s.53611-.5635.27183-1.2522-.10538-1.2522.3531-1.2522c.76099,0 1.81359,2.704 2.2747,5.8435 .10115.6888.47729,2.3413.83586,3.6724 .46729,1.7348.38165,2.2532-.3024,1.8305-.52489-.3244-1.19251-2.0793-1.4836-3.8997s-.83283-3.4974-1.20388-3.7267c-1.18981-.7353-.49257,3.2846 1.06048,6.1142 1.83076,3.3356 1.92885,6.5552.25084,8.2332-.68871.6887-1.25219,1.9415-1.25219,2.784 0,1.1207-.44796,1.4146-1.66959,1.0951-1.19693-.3129-1.66959-.026-1.66959,1.0152 0,1.2565.18674,1.2976 1.38796.3061 1.19042-.9827 1.32614-.9675.95365.1065-.23887.6887-1.08908,1.1936-1.88938,1.1222-.80695-.072-2.05301.9119-2.7975,2.2091-1.55892,2.7163-5.39147,4.1393-10.12459,3.759-7.10265-.5705-16.17319-9.9781-17.29993-17.9427-.25321-1.7899-.1691-1.8781.59094-.6195 .48739.8072.65583,1.8402.37432,2.2957s-.20794.8286.16351.829 1.71551,1.8529 2.98678,4.1163c3.56776,6.3524 7.81018,9.2734 14.01332,9.6486 4.91232.2971 5.21363.1977 7.95591-2.6261 1.56762-1.6142 2.85023-3.6833 2.85023-4.5978 0-1.2657-.65637-.8001-2.74855,1.95-2.284,3.0021-3.2935,3.6578-5.9727,3.8796-1.77328.1467-4.0983.048-5.1667-.2208-2.47084-.6201-7.41601-4.942-10.46438-9.1453-2.91831-4.0241-3.1181-5.9748-.27313-2.6668 1.14729,1.3341 2.08597,2.6956 2.08597,3.0256 0,1.1261 5.55277,6.666 6.11647,6.1023 .30904-.309.5619-.1406.5619.3742 0,1.3574 5.62229,2.2347 6.99911,1.092 .62548-.5191 1.80996-.6857 2.63219-.3702 1.02641.3939 1.30576.2676.89134-.403-.71461-1.1562-3.58433-1.3087-3.9834-.2116-.37557,1.0325-6.44329-1.1288-8.12282-2.8933-1.24716-1.3103-1.19621-1.3306.74879-.2987 3.31011,1.7562 6.66594,1.8621 8.42941.2663 1.01267-.9165 1.58814-1.0701 1.58814-.4239 0,.5574.37566.7813.8348.4976s.8348-.8916.8348-1.3507-.37566-.6027-.8348-.3189c-.89873.5555-1.16484-.6439-.32844-1.4803 1.09959-1.0996 2.66502,1.4614 1.84149,3.0126-1.41098,2.6579-.0778,2.4612 1.50738-.2224 .83244-1.4091 1.99601-2.5621 2.58573-2.5621s1.0722-.3757 1.0722-.8348 .40097-.8348.89105-.8348c.51115,0 .66512.7118.36114,1.6696-.29145.9183-.15879,1.6696.29482,1.6696 1.09441,0 2.18807-4.6952 1.94453-8.348-.25806-3.8706-.79401-5.2267-1.81606-4.595-.50023.3092-.83727-.5991-.83224-2.2428 .0106-3.4699-3.04582-12.29537-5.17722-14.94915l-1.6101-2.00472 1.3365,2.92179c.73507,1.60698 1.64906,3.4976 2.03109,4.20138 .80506,1.48311 1.47188,4.6448 2.12991,10.0989 .39605,3.2827.23417,3.9261-1.074,4.2682-1.56397.4089-1.86724,1.41-1.89846,6.2667-.0096,1.4922-.39337,2.7131-.85285,2.7131s-.56739-.4337-.23978-.9638c.3871-.6263.22689-.7359-.45757-.3129-.80115.4952-.88197.1764-.33768-1.3319 .89471-2.4793.61303-14.1064-.36544-15.0848-.40955-.4096-.56939.3327-.36765,1.7072 .1963,1.3374.01344,2.644-.40635,2.9035s-.76762-.5414-.77295-1.7795-.27849-3.6598-.60701-5.38162c-.68035-3.56563-.03431-4.15292 1.14793-1.04349 .43641,1.14781 1.36626,2.08701 2.06633,2.08701 .96886,0 1.27286.9851 1.27286,4.1247 0,2.2686.38957,4.3655.86572,4.6598 .79937.494.58312-4.4874-.40235-9.2675-.47775-2.31746-2.89381-7.02696-5.20542-10.14668-1.55841-2.1032-1.68623-2.57871-.57899-2.15382 .87908.33733 1.21662.21464.88511-.32174-.77767-1.2583-7.09408-2.09287-8.75605-1.15692-1.11637.6287-.84205.78244 1.29313.72474 3.14418-.085 6.58479,3.02122 9.34975,8.44099 1.87863,3.68242 2.02587,4.26163 1.08329,4.26163-.34706,0-1.14666-1.16495-1.7769-2.58875-.85381-1.9289-1.32805-2.30126-1.86059-1.4609-.58252.91926-.73535.89626-.82635-.12435-.06136-.6887-.05902-1.5584.005-1.93267s-.67489-1.79255-1.64274-3.15178c-1.42136-1.9961-2.29734-2.43511-4.55556-2.28302-1.53771.10355-2.59994.50526-2.36051.89266s-.0187,1.25141-.57355,1.92001c-1.2731,1.53398-.77105,1.53237 2.19611-.007 2.12068-1.10023 2.48602-1.07933 3.64928.2087 2.29808,2.54454 3.56394,6.3244 3.90407,11.65758 .23803,3.73212.04266,5.21752-.68616,5.21752-.77177,0-.78452.2344-.05251.9663s1.25423.7275 2.15309-.018c.96053-.7972 1.25792-.6124 1.56028.9693 .20546,1.0748.08942,2.6797-.25787,3.5664-.55466,1.4162-.64253,1.3584-.72278-.4748-.08981-2.0518-.11099-2.0447-1.25571.4174-.6404,1.3774-1.50062,2.9861-1.9116,3.575-.85218,1.2208-8.53884,2.3994-8.55916,1.3123-.02471-1.3196-4.75324-6.1027-5.4291-5.4918-.36785.3325-.43999.2019-.16031-.2901s-.06945-1.9948-.77588-3.3392c-1.67762-3.193-2.02658-4.77602-2.37273-10.76376-.53945-9.33119 4.67358-17.57358 12.34646-19.52116 2.89163-.73397 4.05006-.61061 7.15246.76173 2.03608.90066 3.89436,1.44517 4.12949,1.21004s.271-.52141.07972-.63619c-3.99489-2.39693-6.27969-3.13049-9.75056-3.13049-3.6513,0-4.59064.3999-8.01046,3.41014-2.63829,2.32231-3.87411,2.99077-3.87411,2.09551 0-.72303 2.06478-2.68555 4.5884-4.36114 4.32439-2.87123 4.87694-3.02036 9.60284-2.59183 4.04081.3664 5.1587.19691 5.75744-.87298 .67272-1.20208.9557-1.18831 2.99153.14562 1.23669.81031 2.4514,1.27043 2.69934,1.02248 .63757-.63756 5.2479,1.86024 5.2479,2.84323 0,1.1753-1.46791,1.00103-1.8758-.22268-.25485-.76454-.692-.68939-1.66814.28675-1.20719,1.20719-1.00757,1.66126 2.28423,5.19592 2.81174,3.01918 4.08448,5.40511 5.77256,10.82147 1.19104,3.82158 2.16553,7.39672 2.16553,7.94462s.31305.9964.69566.9964c.97017,0 .91775-2.7046-.07689-3.9653-.45278-.57394-.60275-1.04351-.33328-1.04351s-.23467-1.69046-1.12031-3.75658c-1.51443-3.53303-1.46381-4.14624.31536-3.81989 .70499.12932.53611-.95356-.7062-4.52807-.57207-1.64603-.56162-1.64672.74008-.0492 1.49352,1.83298 1.7308,4.28831.48861,5.05602-.52881.32682-.40866,1.3329.32989,2.76236 1.5816,3.06117 3.03157,8.66564 3.16582,12.23679 .06102,1.6228.45104,2.9508.86672,2.9508 .8822,0 .05276-7.61585-1.17452-10.78412-.45916-1.18533-.95697-2.71864-1.10624-3.40735s-.53177-1.9096-.84998-2.71309c-.33444-.84446-.1997-1.46089.31933-1.46089 .49385,0 .6912-.6574.43856-1.46089-1.00012-3.18074 2.41066,1.9452 5.12989,7.70955 3.81001,8.07669 2.66729,8.67059-1.2857.66817-3.55899-7.20473-4.42217-7.7589-1.38369-.88836 1.07181,2.42353 1.98672,4.59433 2.0331,4.82383s.28026.9809.51969,1.6696 .82399,2.56705 1.299,4.17395c.65243,2.2073.79068,2.3554.56529.6062-.1641-1.2736-.00077-2.4994.36295-2.7242 .99894-.61745 2.71073,8.4724 2.796,14.847 .0414,3.0983.3571,5.634.70146,5.6349s.6261.3847.6261.8527-.93915.6809-2.08699.4727c-1.68098-.3048-2.08699-.039-2.08699,1.3658 0,.9594-.95826,3.0006-2.12947,4.5361s-1.82861,2.7862-1.46089,2.7791c1.16323-.023 2.44062-1.187 3.01926-2.7532 .31899-.8633.97029-1.2598 1.51581-.9227 .88233.5454-6.01882,7.8745-10.54487,11.199-1.622,1.1913-1.62794,1.1772-.2087-.4947 1.83538-2.1621 1.8602-2.9425.07179-2.2562-1.52534.5854-1.07802-.6135 1.23273-3.3037 .69258-.8062 1.00722-1.718.6992-2.026s-1.14324.1639-1.85605,1.0487c-1.44438,1.7928-1.34959,1.4004.81052-3.3546 1.84913-4.0704 2.34747-5.964 2.48348-9.437 .05844-1.4922.44032-2.7131.84863-2.7131 1.07456,0-.01544,7.8322-1.48569,10.6754-1.13058,2.1863-1.1149,2.5543.16405,3.8525 1.32902,1.3489 1.3262,1.5004-.04683,2.5197-1.79178,1.3302-1.87152,2.1527-.2087,2.1527 .68871,0 1.25219-.5322 1.25219-1.1827s.46957-1.4018 1.04349-1.6696c.82768-.3862.82942-.5871.0084-.9711-.73933-.3458-.4367-1.2686 1.05923-3.2299 1.32777-1.7408 1.90693-3.3205 1.58241-4.3159-.42213-1.2949-.35395-1.3506.38888-.318 .77863,1.0824.9025,1.0541.91354-.2087 .0067-.8034-.36287-1.4608-.82201-1.4608s-.8348-.3406-.8348-.7567 .6574-.6579 1.46089-.5372 .97729.055.38622-.1454c-1.51808-.5153-1.1285-11.9175.40719-11.9175 .59669,0 1.08488-.5948 1.08488-1.3218s-.46957-1.1594-1.0435-.961c-.5777.1997-1.50573-.7941-2.07901-2.2262-1.01102-2.5255-1.02511-2.4978-.59578,1.1698 .42649,3.6434.40181,3.6937-.81888,1.6696s-1.2482-1.9474-.94774,2.087c.43753,5.8748.60562,6.232 1.3751,2.9218 .41993-1.8065.52307.4242.27019,5.8436-.34212,7.3319-.68341,9.0383-2.08704,10.4349l-1.67804,1.6696 .96128-2.5044c1.61215-4.2001 2.3523-11.3671 1.21883-11.8021-.54546-.2092-1.06214-2.1473-1.14818-4.3068s-.28495-4.4897-.44203-5.1784-.56825-2.473-.91373-3.9653-.93729-2.71305-1.31515-2.71305-.3034,1.10055.16548,2.44545c.46888,1.345.72521,3.5051.56964,4.8001-.20827,1.7337-.6637.736-1.72697-3.7835-.79426-3.37585-1.2358-6.47505-.98119-6.88695s.06511-.749-.42115-.749-.88406-1.29268-.88406-2.87256-.33404-3.07897-.74232-3.3313-.99712-1.47399-1.30854-2.7148c-.73449-2.92641-8.0353-12.0939-10.81691-13.58258-3.08046-1.64861-3.61069-.49736-.59216,1.28573 1.38423.81768 2.32722,1.79344 2.09552,2.16833s.16439.68162.88019.68162 1.30472.28175 1.3087.6261 1.22487,1.94847 2.71309,3.5647 2.85234,3.49454 3.03138,4.17398 .95585,3.50675 1.72625,6.28286 1.26149,5.46522 1.0913,5.97582 .08606,1.1727.56943,1.4714 .87887.9427.87887,1.43095c0,.5598-.46257.5039-1.25219-.15155-.68871-.5715-1.25219-1.6259-1.25219-2.343s-.80976-3.019-1.79946-5.11527-2.12436-4.56276-2.52143-5.48104c-.67512-1.56122-.65314-1.57007.33857-.13639 2.98306,4.31256 3.10408,4.42087 2.48412,2.22338-.32383-1.14784-1.05148-2.8383-1.617-3.75658-.84585-1.37346-1.1653-1.46092-1.80106-.4931-.93184,1.41854-.18184,3.89486 3.3695,11.1254 .39158.7973.71196,2.098.71196,2.8905s.94097,2.20625 2.09105,3.14175c1.4845,1.2075 2.24386,2.8511 2.61785,5.6662 .32565,2.4511.20624,3.9653-.31271,3.9653-.46174,0-.83697-.6574-.83384-1.4609 .01695-4.3468-.35434-6.0642-1.57475-7.2846-.74336-.7434-1.57771-1.1254-1.85412-.849s.01853.8246.65534,1.2181c1.55916.9636 1.79984,12.2333.25466,11.9243-.57392-.1148-1.0435.1669-1.0435.6261s.37566.8348.8348.8348 .8348.7874.8348,1.7498c0,2.3703-2.49548,10.9272-3.58127,12.2801-.48144.5998-.53.9755-.10792.8348 .76032-.2535 1.1848.3519 1.1848,1.6896 0,.8189-6.40043,5.4546-8.67473,6.283-1.33979.488-1.41915.3826-.52388-.6961zm25.75915-21.0977c-.13219-.8035.0347-1.8989.37089-2.4344s.25687-1.9055-.17623-3.0446-.56102-2.2976-.28424-2.5745 .065-.5032-.4707-.5032c-1.19617,0-1.29753,3.0407-.12552,3.765 .46663.2884.62851.8802.35971,1.3151s-.88713.5444-1.37411.2435c-.53232-.329-.67598-.085-.36026.6125 .28884.6379.75705,1.8171 1.04046,2.6206s.68292,1.4609.88781,1.4609 .26436-.6574.13218-1.4609zm-19.47261-34.77651c.5063-.46579.22472-.54278-.72875-.19923-1.15366.41569-1.43187.24203-1.08024-.67431 .2771-.72213-.59239-2.30017-2.09572-3.80351-3.24028-3.24028-4.02114-2.65021-1.32153.99865 1.12632,1.52235 2.31143,3.50871 2.6336,4.41412 .32817.92228.84561,1.28938 1.17666.83479 .32499-.44627.96218-1.153 1.41598-1.57051zm-1.56176-10.51064c.21912,0 .18802-.34038-.06912-.75642s-1.17603-.57113-2.04204-.34467-1.82694.003-2.13543-.49577-1.00829-.89917-1.55512-.88896-.0551.75486 1.09277,1.65478 2.58728,1.45505 3.19876,1.23363 1.29105-.40259 1.51015-.40259zm-11.80468,64.27925c-.28376-.4591.25755-.8347 1.20292-.8347s1.71886.3756 1.71886.8347-.54131.8348-1.20292.8348-1.4351-.3756-1.71886-.8348zm26.28021-.3982c.5803-.6993 1.57258-1.2713 2.20507-1.2713s1.05606-.3348.94127-.744c-.21721-.7743 3.36937-4.2648 4.38218-4.2648 1.03091,0-5.37512,6.3779-7.00464,6.9739-1.33991.49-1.41923.385-.52388-.6938zm-30.48662-1.3239c-.77184-1.2488-.51962-1.3519 4.41511-1.8046 4.73576-.4345 5.46039-.1681 2.50439.9208-3.91332,1.4415-6.38011,1.7566-6.9195.8838zm-5.18504-.8083c-1.03306-.4152-1.87829-.9549-1.87829-1.1993 0-.9169 3.08107-.3981 4.64052.7814 1.89123,1.4304.34051,1.6651-2.76223.4179zm-5.22511-2.9049c-1.12646-1.3573-.24303-1.6408 1.55765-.4998 .688.4359.80706.9189.30329,1.2302-.45613.2819-1.29356-.047-1.86094-.7304zm5.42553.06c-1.37286-.5787-3.74692-2.1063-5.27569-3.3948-1.67039-1.4077-2.71357-1.8742-2.61418-1.1689 .09097.6455.12089,1.8771.06645,2.7367-.08315,1.3139-.30488,1.3922-1.39061.4912-.96359-.7998-1.03684-1.2296-.2884-1.6922 .70268-.4342.30277-1.2693-1.33457-2.7868-1.28584-1.1916-2.06795-2.1666-1.73801-2.1666s-.21282-1.0331-1.20613-2.2957c-1.51827-1.93-4.15874-7.1625-4.15874-8.2412 0-.1735.3685-.3154.81889-.3154s1.06133.966 1.35766,2.1466 1.86018,4.092 3.47524,6.4697c3.63497,5.3513 3.42863,5.121 4.03974,4.5099 .27982-.2798-.69701-2.2954-2.17075-4.4791-3.40565-5.0462-5.9268-11.1515-4.60496-11.1515 .37205,0 2.38629,4.3641 2.88972,6.2609 .12186.4592.93158,1.832 1.79939,3.0507s1.57783,2.4664 1.57783,2.7727c0,1.053 2.4923,3.048 3.23466,2.5892 .40869-.2526 1.69171.2869 2.85116,1.1989 2.28628,1.7984 3.93173,2.1452 3.93173.8287 0-.9323 2.94571-.6835 3.94377.3331 .35618.3629-.10371.5352-1.02198.3831s-1.66959.093-1.66959.5445c0,.8769.29082.9606 4.17398,1.2008 2.18158.135 2.28918.2475.8348.8725-1.39914.6012-1.2301.7269 1.0435.7761 1.4922.033 2.71309.4641 2.71309.9598 0,1.0642-5.27172.1376-5.70444-1.0027-.15305-.4032-1.0922-.7275-2.08699-.7205-1.33292.01-1.51078.2016-.67611.7305 1.95114,1.2363-.19252,1.6633-2.81048.5598zm1.66225-1.2778c.42248-.6836-1.11389-1.62-6.66276-4.0611-.45914-.2019.06503.6119 1.16484,1.8086s2.29473,1.9934 2.6554,1.7705 .89172-.023 1.18012.4431c.65477,1.0594 1.02628,1.0682 1.6624.039zm15.2806.284c1.47572-1.1549 2.68313-2.6614 2.68313-3.3478 0-.8342.51188-1.0855 1.54411-.7578 1.19669.3798 1.74101-.1241 2.41917-2.2395 .716-2.2335.89053-2.3806.96027-.8097 .04692,1.0558-.4398,2.935-1.0815,4.1759-1.43694,2.7788-4.67684,5.8403-4.67684,4.4194 0-.6019-.42375-.7487-1.0435-.3616-2.60137,1.6251-3.21273.8055-.80483-1.0788zm4.38024-1.5614c1.13283-1.5444 1.1151-1.5837-.23622-.5239-.80349.6301-1.46089,1.538-1.46089,2.0174s.1063.7152.23622.5239 .78732-1.0992 1.46089-2.0174zm5.45828,1.61c-.32057-1.2774-.18441-2.6539.31155-3.1499 .48456-.4846.88676-1.839.89379-3.0098s.37694-2.6922.82202-3.3809c1.39061-2.1518.98611,3.4467-.44768,6.1962-1.01275,1.942-1.05568,2.5733-.21054,3.0957 .78069.4825.81535.9025.13098,1.5868s-1.08138.3302-1.50012-1.3381zm-14.66856.477c0-.4592-.48299-.8348-1.07331-.8348-1.27042,0-1.46796-3.2812-.2087-3.4664l1.6994-.2478c1.88717-.2728 4.59138-2.6286 4.59138-3.9999 0-1.6904 1.05457-1.8566 3.49481-.5506 1.25119.6696 1.56108.6683 1.14504-.01-.61167-.9898 1.0301-6.6287 2.3318-8.0091 .50499-.5354.61457-.3413.30563.5417-.2649.7569-.93807,3.6963-1.49595,6.532-.5631,2.8621-1.28549,4.7169-1.62388,4.1694-.46629-.7545-.75205-.7558-1.21575-.01-.3334.5395-1.09047.795-1.68237.5679s-1.90849.3624-2.92577,1.3102c-1.38635,1.2916-2.01038,1.4629-2.49161.6842-.45609-.7379-.8074-.7711-1.21304-.1148-.31406.5087-.25313.9244.1354.9244s.76301.7513.83218,1.6696-.03874,1.6696-.23975,1.6696-.36551-.3756-.36551-.8348zm7.81702-8.5317c-.31134-.5038-.79428-.3847-1.23022.3032-1.14097,1.8008-.85752,2.6842.49978,1.5577 .68365-.5673 1.01235-1.4048.73045-1.8609zm-6.14743,8.0214c0-.616 3.57503-3.5998 4.35647-3.6359 .32994-.015.4032.4847.16278,1.1113-.43727,1.1395-4.51925,3.4199-4.51925,2.5246zm-7.09577-2.8289c-.28376-.4592-.14027-.8348.31887-.8348s1.06696.3756 1.35073.8348 .14027.8348-.31887.8348-1.06696-.3757-1.35073-.8348zm22.95689.099c0-.4592.37566-1.067.8348-1.3507s.8348-.1403.8348.3189-.37566,1.0669-.8348,1.3507-.8348.1402-.8348-.3189zm-48.41816-1.4c0-.7158.37566-1.0693.83479-.7855s.8348.8694.8348,1.3014-.37566.7856-.8348.7856-.83479-.5857-.83479-1.3015zm5.31264-.711c-6.92587-9.3487-8.55151-12.1791-6.9952-12.1791 .42318,0 1.42488,1.4088 2.22599,3.1305s1.6661,3.3183 1.92221,3.5479c1.4332,1.2847 5.15384,6.8503 4.80959,7.1945-.22359.2237-1.10676-.5386-1.9626-1.6938zm57.36295.8298c-.0362-.8799.16105-1.3731.43846-1.0956s.30704.9974.0659,1.6c-.26649.6659-.4643.4682-.50435-.5044zm-45.97205-1.7299c-.56739-.6836-1.3647-1.0372-1.77181-.7856s-.74021-.1281-.74021-.8439c0-1.7066.14948-1.6676 3.00064.7845 1.33404,1.1473 2.00196,2.0864 1.48426,2.087s-1.40551-.5584-1.97288-1.242zm43.40176.9278c0-.1733.57209-.79 1.2713-1.3703 1.06299-.8822 1.18514-.8305.74548.3153-.44903,1.1701-2.01678,1.9903-2.01678,1.055zm-10.55158-1.9805c1.10223-3.8963 1.51659-10.4161.62706-9.8664-.5103.3154-.92782,1.7004-.92782,3.0778s-.30289,2.3173-.67309,2.0884c-1.14126-.7053-.09049-6.3608 1.18182-6.3608 .63847,0 1.16086-.7514 1.16086-1.6696s.30928-1.6696.68728-1.6696c.66962,0 .53782,7.094-.19388,10.4349-.20111.9183-.3944,2.5148-.42953,3.5479s-.46484,1.8783-.95492,1.8783-.70508-.6574-.47778-1.4609zm-51.77004-.6621c-.27188-.7086-.30781-1.4747-.07981-1.7027s.61487.3517.85977,1.2882c.5202,1.9893-.05777,2.2964-.77995.4145zm2.77285-.1032c-.3061-.306-.55653-.9446-.55653-1.4191 0-.5231.38882-.4738.98784.1252 .54332.5434.79376,1.182.55653,1.4192s-.68175.1809-.98784-.1253zm8.39535-5.4541c-1.25043-1.9285-2.27352-4.1198-2.27352-4.8696s-.26132-1.6247-.58069-1.9441-.66901-1.1824-.77695-1.9178c-.30746-2.0949.84831-.281 3.0105,4.7246 1.09077,2.5253 2.70936,5.2488 3.59684,6.0523 1.13435,1.027 1.26963,1.4609.45547,1.4609-.63698,0-2.18123-1.5778-3.43166-3.5063zm-11.03887,1.0019c-.28376-.4591-.11811-.8348.36813-.8348s.88407.3757.88407.8348-.16566.8348-.36813.8348-.6003-.3756-.88406-.8348zm65.53148-.3681c0-1.4663.50093-1.6822 1.21654-.5244 .26417.4275.0985,1.0132-.36813,1.3015s-.84841-.061-.84841-.7771zm-68.00022-1.2438c-.26415-.4274-.09849-1.0131.36814-1.3014s.84841.061.84841.7771c0,1.4663-.50093,1.6822-1.21655.5243zm25.44404-1.0653c-4.74696-1.8222-6.69919-3.6617-9.74827-9.1856-.9949-1.8025-2.04325-2.865-2.34496-2.3768-.92274,1.493-1.90262.9846-2.32103-1.2041-.21943-1.1479-.07538-2.087.32008-2.087s.71903.5635.71903,1.2522 .37566,1.2522.8348,1.2522c1.05792,0 1.06606-1.7874.02062-4.537-.44778-1.1778-1.39408-2.1414-2.10289-2.1414-.98574,0-1.15652-.5398-.72631-2.2957 .30935-1.2626.87999-2.42088 1.2681-2.57392 1.14365-.45099.80647-1.80873-.44919-1.80873-1.20968,0-2.15361,2.44781-2.17295,5.63485-.0067,1.0331-.38471,1.8783-.84096,1.8783s-.70413-.6574-.55082-1.4609c1.33374-6.99017 1.55503-7.51986 2.98542-7.14581 .83996.21966 1.46093-.0865 1.46784-.72375 .01928-1.78091 3.74262-9.86983 4.54308-9.86983 1.11393,0 .87414,1.34719-.43287,2.43191-1.06563.8844-2.71024,6.84849-2.0426,7.40739 .15712.13153-.27781.59535-.96652,1.03071-.71567.4524-.83378.79704-.27566.80435s.93657,1.16382.88233,2.72587c-.37112,10.68866 6.17969,20.82396 14.43492,22.33356 1.82816.3343 3.33743.3766 3.35394.094 .07112-1.2179 3.9779-5.2146 4.4115-4.513 .26286.4253-.45632,1.7808-1.59818,3.0122s-1.77916,2.2448-1.41622,2.2518 .09639.3769-.59231.822c-1.57776,1.0196-1.24946,1.0693-6.65995-1.0076zm-13.65708-22.57576c-.23158-.57393-.42106-.10435-.42106,1.04346s.18948,1.6174.42106,1.0435 .23158-1.51304 0-2.08696zm-13.05145,19.05306c-1.04896-2.759-1.10293-4.6528-.13258-4.6528 .76438,0 1.99194,5.9087 1.35905,6.5416-.20257.2025-.75448-.6474-1.22646-1.8888zm41.4731.5783c-.7639-1.3623.46292-6.9007 1.52859-6.9007 .80339,0 .92674.6229.45455,2.2957-.35642,1.2626-.49819,2.7308-.31505,3.2627 .38051,1.105-1.1228,2.3147-1.6681,1.3423zm28.24785-.431c-.49243-1.5755-1.64693-7.5523-1.73348-8.9741-.12663-2.0803-3.00106-10.18223-5.09903-14.37223-1.08428-2.16549-3.66194-5.8407-5.72814-8.16712s-3.74228-4.6869-3.72464-5.24549 1.70038.86266 3.73941,3.15835 3.71507,3.72658 3.72451,3.17975-.35849-1.2264-.81762-1.51016-.83479-.91542-.83479-1.40368c0-.5598.46257-.50385 1.25219.15149 .68871.57157 1.25219,1.57889 1.25219,2.23847s.31507,1.00452.70015.76652 1.5361,1.05464 2.55781,2.87252 2.14579,3.30524 2.49797,3.30524 1.13606.92632 1.74198,2.0585 1.47877,1.82545 1.93964,1.54061 .61132-.15117.33431.29704 .0183,1.82106.65631,3.05079 .79479,2.2358.34847,2.2358-1.04526-.6574-1.33097-1.4609c-.70617-1.9858-9.60549-13.68385-10.06245-13.22689-.20077.20077.36551,1.42762 1.2584,2.72634s2.25727,3.40634 3.03197,4.68361 1.71192,2.13479 2.08271,1.90562 1.14712,1.16759 1.72517,3.10392 1.47906,3.7965 2.00225,4.1338c.68054.4388.64919.617-.11016.6261-.98715.012-1.82384-1.4418-3.06432-5.3242-.27774-.86916-.68447-1.40083-.90385-1.18144s.36667,3.37234 1.30236,7.00654 1.8255,8.0164 1.97736,9.7382c.27244,3.089-.0806,4.1187-.71571,2.087zm-66.70607-.3706c-.29361-.2936-.52808-1.3164-.52105-2.273 .01052-1.4339.15706-1.5193.83482-.4869 .68103,1.0374.91494.9123 1.36367-.729l.54165-1.9812 1.09834,1.9812c1.33735,2.4122 1.4193,3.2334.32271,3.2334-.45914,0-.83479-.5857-.83479-1.3015s-.38179-1.0655-.84841-.7771-.64833.8481-.40378,1.2438c.54483.8815-.81049,1.833-1.55316,1.0903zm41.5784-2.8326c-.30849-.4993-.16196-1.3065.32562-1.7941 .62549-.6255.84672-.3583.75138.9075-.15385,2.0424-.29224,2.1563-1.077.8866zm-36.33254-.136c-.35011-1.144-.86491-3.9114-1.00929-5.4256-.09846-1.0328-.36686-1.8782-.59643-1.8787s-.53217-3.0061-.67245-6.679 .04758-6.67649.4174-6.67472 .74343,2.59997.83018,5.77372c.13911,5.0896 1.04091,10.137 2.48221,13.8929 .25327.66.04466,1.2001-.46363,1.2001s-.95285-.094-.98798-.2087zm-4.25182-4.5914c-.18504-.8035-.09047-2.7757.21014-4.3827 .30353-1.6226.59544-2.133.65648-1.1478 .06044.9756.34468,2.9478.63164,4.3826 .5435,2.7176-.88477,3.8118-1.49826,1.1479zm6.13879-.6226c-.52388-1.1498-.62871-2.0905-.23297-2.0905 .69317,0 1.94208,3.4244 1.43415,3.9324-.13678.1367-.67731-.6921-1.20119-1.8419zm-11.23921.1369c-.93019-2.365-.77855-3.5732.31165-2.483 .5022.5022.77284,1.6104.60144,2.4626-.30059,1.4946-.333,1.4953-.91308.02zm2.83982,1.1118c-.09082-.2296-.3738-1.92-.62884-3.7566-.35145-2.5307-.22803-3.1122.50974-2.4018 .5354.5155.81837,2.206.62884,3.7565s-.41892,2.6315-.50974,2.4019zm-5.87973-2.0175c-.03623-.88.16106-1.373.43845-1.0956s.30705.9974.06595,1.6c-.26649.6659-.46431.4682-.50436-.5044zm29.62955-.6543c-.80605-1.1508-.97345-2.0305-.44814-2.3552 .46119-.285.73714-1.4306.61323-2.5457-.16658-1.4991.13902-1.9673 1.17266-1.7966 .76887.1269 1.67215-.2129 2.00727-.7551 .38373-.6209.25031-.764-.36034-.3866-1.51194.9344-2.14177-1.88585-.92775-4.15427 1.41864-2.65076 2.00847-2.56183 3.50517.52851 1.84484,3.80916 1.03384,13.30196-1.13643,13.30196-.4553,0-.61436-.3454-.35348-.7675 .51908-.8399-1.69591-3.4065-2.93982-3.4065-1.25176,0-.8882,1.6786.47703,2.2025 .68871.2643 1.25219.816 1.25219,1.226 0,1.364-1.55791.7698-2.86159-1.0915zm5.17557-7.3641c-.54445-5.66613-1.48088-6.60876-2.68226-2.70001-.45556,1.48216-.30299,1.76841.73109,1.37158 .96584-.37063 1.30678.03 1.30678,1.53573 0,2.7251-.76809,3.3362-2.28575,1.8185-1.48644-1.4864-2.13532-1.1183-1.40116.7948 .29559.7703 1.44877,1.3717 2.63025,1.3717 2.02284,0 2.08837-.1615 1.70106-4.1923zm39.98235,8.6445c-.30609-.306-.55653-.9447-.55653-1.4191 0-.5231.38882-.4738.98784.1252 .54332.5434.79375,1.182.55653,1.4192s-.68175.1809-.98784-.1253zm-61.49663-3.9855c0-1.4664.50092-1.6823 1.21654-.5244 .26416.4274.0985,1.0131-.36813,1.3015s-.84841-.061-.84841-.7771zm-10.85235-2.0464c0-1.5572.34713-2.4783.82314-2.1841 .8772.5422.71793,3.3358-.2451,4.2988-.31792.318-.57805-.6337-.57805-2.1147zm13.35674,1.113c0-.7158.37566-1.0693.8348-.7855s.8348.8694.8348,1.3015-.37566.7855-.8348.7855-.8348-.5857-.8348-1.3015zm8.72129.538c.25953-.4199.08198-.8935-.39458-1.0523s-.84243-2.1631-.81307-4.45398 .0455-5.0104.03581-6.04346 .36875-1.87829.84095-1.87829c.52814,0 .74475,2.00787.56287,5.21748-.20028,3.53415.08937,5.82345.89772,7.09575 1.06428,1.6751 1.0422,1.8783-.20409,1.8783-.76861,0-1.18514-.3436-.92561-.7635zm2.68759-.6278c-.30609-.3061-.54511-1.1513-.53115-1.8783 .02087-1.0855.18375-1.0494.91131.2017 .89889,1.5458.63829,2.695-.38017,1.6766zm-27.42506-.7116c-.31059-.3106-.33892-1.1531-.06294-1.8722 .36575-.9532.18047-1.1241-.68361-.6307-.92072.5257-.96871.4421-.21491-.3744 1.43608-1.55556 2.54502-.7255 2.00143,1.498-.26139,1.0692-.72937,1.6899-1.03996,1.3793zm6.89933-.7493c-.03623-.88.16106-1.3731.43845-1.0957s.30705.9974.06595,1.6c-.26649.666-.46431.4682-.50436-.5043zm1.10956-1.9479c-.37001-.8035-.70967-3.08206-.75478-5.06353-.04934-2.16617-.56562-3.90858-1.29485-4.3699-1.00643-.63666-.96421-.7694.24807-.78001 1.3119-.0115 1.84204-.93798 1.55975-2.72587-.05435-.34435.31699-.6261.82525-.6261s.69448.59839.41383,1.32975-.73828,2.23824-1.01697,3.34862c-.41828,1.66657-.25505,1.92231.93547,1.46546 1.27158-.48795 1.32122-.3274.41962,1.35725-.56241,1.05086-.81756,3.17395-.567,4.71796 .5049,3.11137.25004,3.55797-.76839,1.34637zm18.25437-1.87826c-.12256-1.62707.65575-2.17565 1.66081-1.17058 .59958.59958-.16344,2.84014-.96721,2.84014-.31231,0-.62443-.7513-.6936-1.66956zm-26.13843-2.08699c-.22638-3.49892.06027-5.72407.84284-6.54227 .36754-.38429.49179,1.11835.27612,3.33919-.5039,5.18864-.91444,6.36383-1.11895,3.20308zm4.75138.11019c-.34564-1.31681-.43116-2.59147-.19006-2.83257 .67218-.67217 1.49388,2.01634 1.13608,3.71711-.23414,1.11299-.48271.88058-.94603-.88454zm7.38339-.52759c-.28376-.45914-.11811-.8348.36813-.8348s.88406.37566.88406.8348-.16566.83479-.36813.83479-.6003-.37565-.88407-.83479zm-15.44372-1.62032c0-.43204.37566-1.0177.8348-1.30147s.8348.0697.8348.78553-.37566,1.30146-.8348,1.30146-.8348-.35348-.8348-.78552zm5.84357-1.76814c0-1.40451.32528-2.35262.72284-2.1069 .67249.41561.30563,4.66056-.40276,4.66056-.17604,0-.32008-1.14914-.32008-2.55366zm8.26448-.22899c-.37888-2.52584-.0083-4.71193 1.18529-6.98474 1.58713-3.02318 1.69782-3.58934.70177-3.58934-.38543,0-1.186,1.03306-1.77904,2.29569-.6141,1.30749-1.2396,1.84995-1.45308,1.2602-.55006-1.5195 2.66564-5.32406 3.65975-4.32994 .52051.52051 1.20821.0596 1.93374-1.29607 .61927-1.15713 1.43813-2.10386 1.81968-2.10386 1.08421,0 .81496,1.36455-.48157,2.44057-1.62645,1.34984-3.90549,6.35054-4.29428,9.4226-.30028,2.37271-1.10097,4.16019-1.29226,2.88489zm2.31208-1.80873c1.46639-7.13602 8.97457-17.10789 14.17289-18.82349 3.52663-1.16389 3.25262-1.84498-.44475-1.10551-1.4715.2943-3.8681,1.79954-5.32581,3.34498-2.6911,2.85308-3.95257,3.48343-3.95257,1.9751 0-.45914.56349-.8348 1.25219-.8348s1.25219-.37566 1.25219-.8348c0-2.26656-3.65737.39637-4.59295,3.34413-.29058.91555-1.07973,1.66465-1.75365,1.66465-1.6262,0-.52052-2.02288 3.13402-5.73378 2.22225-2.25653 2.44204-2.74954 1.11264-2.49581-1.72739.32971-7.09068,7.44324-9.26243,12.2851-.69156,1.54182-1.45091,2.60979-1.68744,2.37327s.12222-1.49802.79721-2.80332c.675-1.3053 1.31182-2.74892 1.41515-3.20806s1.0814-1.89668 2.17347-3.19454 1.98559-2.8341 1.98559-3.41388 .84523-1.46984 1.87829-1.97789 3.1931-1.73612 4.80008-2.72902c2.64172-1.63222 2.72293-1.64201.84727-.10213-3.55925,2.92204-1.50212,2.51304 4.15778-.82667 2.98235-1.75978 4.86064-3.20535 4.17398-3.21238-1.1056-.0114-1.10518-.10538.0033-.82201 1.04219-.67352.9722-.82274-.4174-.88982-1.36882-.066-1.25249-.26533.64581-1.10613 1.27347-.56405 2.03624-1.30471 1.69504-1.64591s.02554-.37249.81509-.0695c.88404.33924 1.43545.15131 1.43545-.48922 0-.76661 1.37172-.92336 5.21748-.59619 4.01577.34163 4.78486.24282 3.33918-.42902-2.30309-1.07031-2.42333-1.92958-.26999-1.92958 .88457,0 1.39001.35321 1.12321.7849s-.13602.56916.29062.30548c1.62093-1.0018 6.3983.67003 7.06504,2.47238 .6293,1.70117.5244,1.75226-1.87817.91471-1.93653-.67507-2.70139-.63357-3.20026.17362-.44915.72674-1.40655.85452-3.04085.40585-2.30211-.63201-7.04025-.49668-11.28548.32233-.66572.12843-.46629,1.82456.37221,3.16572 .3343.53471.13591,1.18226-.44087,1.43901s.26611.3947 1.87309.30655c1.91991-.10532 2.85023.18844 2.71309.85668-.12084.58884.69061,1.01694 1.92756,1.01694 1.21159,0 1.91294-.36133 1.62032-.83479-.28376-.45914.01094-.8348.65484-.8348 1.739,0 10.67589,3.18537 11.98493,4.27178 .66191.54933 1.13436.59949 1.13436.12043 0-.74472-3.69238-2.81287-9.18276-5.14342-1.7776-.75454-1.59506-.80741 1.23125-.3566 1.82504.2911 3.82408,1.0351 4.44231,1.65334s1.51467,1.12406 1.99208,1.12406 2.71956,1.55021 4.98256,3.4449 4.30534,3.25411 4.53853,3.02092c.5395-.5395-7.28936-7.28801-8.46311-7.29522-.4821-.003-1.31525-.44411-1.85148-.98032-1.42537-1.42539-6.88112-3.17199-9.95336-3.18648-1.4651-.007-2.89599-.38823-3.17975-.84737-1.25155-2.02505 10.96379.92852 15.38619,3.72026 4.68517,2.95762 14.24906,12.09695 14.24906,13.61651 0,.91289-.47827.70419-1.65412-.72182-.90977-1.10331-2.03954-2.46273-2.5106-3.02093s-1.44194-.79025-2.15749-.51567c-.80961.31068-2.3838-.55024-4.16777-2.27934-1.57672-1.52821-2.86676-2.39131-2.86676-1.918s1.12697,1.8647 2.50439,3.09199 2.50439,2.62949 2.50439,3.11602c0,.51465.72259.65528 1.72777.33624 1.31953-.4188 2.48294.24548 4.92381,2.81137 1.75782,1.84785 3.41885,3.13693 3.69116,2.86461s.08721-.98663-.41135-1.58736-.73238-1.57444-.5196-2.1638c.23249-.64396.81714-.15547 1.46511,1.22413 .59304,1.26263 1.32992,2.29569 1.63754,2.29569s1.77328,1.69046 3.25706,3.75658 2.43674,3.75658 2.11771,3.75658c-.67011,0-3.32392-2.90706-5.13743-5.6277-.68599-1.02912-1.58862-1.66015-2.00585-1.40229s.09344,1.60784 1.13481,2.99995c3.80427,5.08555 4.16939,5.69964 3.38893,5.69964-.4373,0-1.9452-1.59655-3.35088-3.54789-2.8344-3.93464-5.53631-6.87603-8.62136-9.38548l-2.04522-1.66362 2.02072,2.28643c1.11139,1.25753 1.76756,2.53957 1.45816,2.84897s-2.48313-1.57281-4.83051-4.1827c-6.51259-7.24092-11.68754-10.34497-12.72771-7.63435-.29867.77834-.08456,1.25682.52724,1.17816 .56659-.0729 1.61995-.0879 2.34079-.0336 1.77175.13371 8.37162,5.86042 8.14396,7.06652-.09997.52962.11992,1.85508.48863,2.94547 1.15237,3.40783-1.2221,3.89095-3.87364.78813-2.42123-2.83328-2.47569-4.20475-.08988-2.26351 1.26713,1.03101 1.36273.98675.84551-.39139-.43944-1.1709-.27223-1.43452.6785-1.0697 2.23336.85703 1.2661-.64305-2.21088-3.42873-3.52281-2.82239-4.87542-3.33037-4.87542-1.83096 0,.49549-.81005.31476-1.8481-.41232-1.01646-.71195-3.73004-1.5441-6.03021-1.84923-3.02189-.40087-3.72505-.71602-2.53458-1.13598 .90614-.31966 2.76353-.26256 4.12751.12689 1.82555.52124 2.809.37908 3.72677-.53869 .74901-.74901.86985-1.24677.30266-1.24677-.51927,0-1.08729.42952-1.26229.9545-.23871.71614-.76355.71614-2.10167,0-.98093-.52498-3.12301-.9545-4.76017-.9545s-2.97667-.37566-2.97667-.8348-.36387-.8348-.8086-.8348-.56886.65741-.27584,1.4609c.50245,1.3778.44052,1.3802-1.08876.0422-1.11596-.97636-2.00598-1.17555-2.85464-.63888-.92138.58264-.95425.78301-.13.79256 .60671.007 1.623.53267 2.25842,1.16808 .98386.98387.78807,1.22875-1.31947,1.65025-2.54409.50882-7.38573,3.5128-8.53017,5.29251-.35448.55126-1.1058,1.50493-1.66959,2.11927-1.13833,1.2404-3.11206,4.54789-3.11206,5.21507 0,.2358.37566.42873.8348.42873s.8348-.47207.8348-1.04905c0-1.91197 7.04195-8.89857 10.33442-10.25321 4.21255-1.73317 15.05142-1.30924 12.16326.47575-.55912.34555-2.12783.30958-3.48602-.08-6.03683-1.73134-13.63618,2.44555-17.30283,9.51029-.84544,1.62895-1.68136,2.21456-2.75891,1.93278-1.10911-.29004-1.77263.22573-2.34813,1.82525-.44121,1.22623-1.16192,2.98083-1.60159,3.8991-.63002,1.31582-.69036,1.13894-.28477-.83479zm14.8458-22.53954c2.58967-1.98851.74203-1.45346-2.88288.83485-1.8183,1.14785-3.68913,2.08699-4.15739,2.08699s-.85138.55217-.85138,1.22703c0,1.19561 2.95386-.35732 7.89165-4.14887zm9.84776-8.48338c-.57392-.23158-1.51307-.23158-2.08699,0s-.10435.42107 1.0435.42107 1.61742-.18948 1.0435-.42107zm-22.49266,30.60553c.51992-1.37742 1.2386-2.50439 1.59708-2.50439 .86745,0 .82645.37288-.31701,2.88251-1.35801,2.98049-2.42846,2.6643-1.28007-.37812zm-18.08813-1.2522c.26429-.6887 1.04981-1.25219 1.74561-1.25219 1.02988,0 1.07188.23282.22587,1.25219-.57158.68871-1.3571,1.2522-1.74561,1.2522s-.49015-.56349-.22587-1.2522zm6.66711-2.05959c.51284-2.82495 1.85-5.8681 2.94652-6.70576 .30051-.22957.60992-.79306.68758-1.2522s1.06476-2.52526 2.19353-4.59138c1.50463-2.75406 3.67476-4.81479 8.13185-7.72186 3.34373-2.1809 6.61867-3.95974 7.27763-3.95297 1.14183.0117-1.05701,1.5258-4.64546,3.19877-.91828.42811-3.38078,2.29003-5.47223,4.1376-3.48238,3.07631-5.00252,5.59791-10.66757,17.6952-.90767,1.93825-.93986,1.88072-.45188-.8074zm1.60099,1.69988c-.26415-.42742-.09849-1.01307.36814-1.30146s.84841.0613.84841.77711c0,1.46634-.50093,1.68224-1.21655.52435zm50.95657-.59457c-.69887-1.82123.22905-2.66775 1.21514-1.10853s1.00819,2.48021.05668,2.48021c-.41002,0-.98235-.61726-1.27184-1.37168zm-55.58359-.87094c0-.4276.55154-1.50666 1.22565-2.3979 1.02967-1.36135 1.22989-1.40321 1.25219-.26177 .01461.74727-.53694,1.82633-1.22565,2.3979s-1.25219.68938-1.25219.26177zm-2.50439-.89213c0-.45914.56349-1.30245 1.25219-1.87402 .69851-.57971 1.25219-.67011 1.25219-.20444 0,.45914-.56349,1.30245-1.25219,1.87403-.69851.5797-1.25219.6701-1.25219.20443zm-1.66959-2.32205c0-1.48969 2.27059-5.91921 3.96528-7.73557 .57392-.61513 1.0435-1.6364 1.0435-2.2695s.65427-1.51724 1.45394-1.96475 1.21516-1.05244.92334-1.34427c-.75948-.75949-4.61336,3.29727-4.22868,4.45129 .17652.52958-.27384.96287-1.00081.96287s-1.32176.37565-1.32176.83479-.42024.8348-.93388.8348c-1.39858,0 3.0312-5.64812 8.56512-10.9208 4.89184-4.66092 5.66484-5.77512 4.00664-5.77512-.48623,0-.61602.4337-.28841.96378 .34409.55675.23138.73865-.26688.4307-.47439-.29318-3.036,1.86722-5.69246,4.80091-3.05823,3.37737-5.27241,5.16418-6.0362,4.87109-1.00336-.38502-.97215-.59391.18553-1.24178 .76548-.42839 3.75804-3.16855 6.65013-6.08924 3.76221-3.79943 5.51462-5.05407 6.15907-4.40962s1.28926.51223 2.26623-.46474c1.53519-1.53519 2.08103-1.70274 2.08103-.63878 0,.75813-4.7489,5.50094-8.34796,8.33724-1.14784.90458-1.82205,1.91065-1.49824,2.23572 .73708.73994 8.92263-6.33094 8.97381-7.75179 .0207-.57392.91902-1.04349 1.99632-1.04349 2.42836,0 7.38898-2.39692 6.83056-3.30046-.38124-.61685 3.98919-2.11457 8.64568-2.96281 1.09518-.19951 2.22216-.61631 2.50439-.92623s-.72642-.32735-2.24144-.0387c-1.91268.36435-2.57969.24175-2.18235-.40116 1.02958-1.6659 17.45274.67657 25.80683,3.68088 1.37741.49534 4.49227,2.19682 6.9219,3.78107 4.06021,2.64746 6.07692,3.1246 4.85584,1.14884-1.18773-1.92178-15.17002-7.82086-21.96995-9.26905-4.03618-.85959-6.21153-1.59263-4.83412-1.62898s4.94617.49981 7.93056,1.19149 5.89575,1.30996 6.46967,1.37393 1.04349.42937 1.04349.81199 .46957.69798 1.0435.70081 2.14069.57731 3.48171,1.27663 2.7517.95799 3.13486.57484-.80796-1.36048-2.64691-2.17183-3.34356-1.76882-3.34356-2.12772 1.87829.24635 4.17398,1.34503 4.17398,2.38082 4.17398,2.84921-.3497.63549-.77711.37134-1.01307-.0985-1.30146.36813-.184.84841.23198.84841c1.05535,0 4.35098,2.95119 4.35098,3.89624 0,.42824-.44358,1.22219-.98572,1.76433-.75776.75777-1.57825.54945-3.54788-.9008-5.39916-3.9754-15.8187-7.76154-23.28642-8.46157-2.13798-.20041-4.26627-.59864-4.72953-.88495s-.84229-.12274-.84229.3635-.56349.88406-1.25219.88406-1.25219.37566-1.25219.8348c0,.97333.14713.97611 4.72564.0894 2.81113-.54446 3.38845-.45125 3.02772.48881-.24516.63886-1.05689,1.10252-1.80386,1.03037-4.35481-.42067-7.61909.14197-7.61909,1.31326 0,1.61697-1.17604,1.60055-2.53375-.0354-.76761-.92491-1.32348-1.03268-1.97353-.38264s-.56647,1.11412.29674,1.64762c.91883.56787.62243.88124-1.25917,1.33135-5.48682,1.31254-18.88559,11.7978-20.49911,16.04168-1.14665,3.01591-.82636,4.1833.50755,1.84987 1.44933-2.53533 1.62602-1.73381.2726,1.2366-.71277,1.56436-1.16753,1.85928-1.66959,1.08278-.54725-.84641-.85331-.81313-1.47941.16083-.43417.67541-1.05119.96624-1.37115.64628s-.10656-1.15432.47422-1.85412 .82582-1.27237.54453-1.27237 .14228-.82045.94128-1.82323c2.36371-2.96657 11.05287-11.74449 11.05287-11.16578 0,.29309.46957.13713 1.0435-.34657 2.52649-2.12935 7.48218-5.02993 8.59373-5.02993 1.20662,0 1.78767-1.65871.58902-1.68149-1.83198-.0348-11.68152,5.93917-15.15959,9.19465-4.13395,3.86938-10.09298,12.47518-10.09298,14.57587 0,.6527-.37566,1.41889-.8348,1.70265s-.8348-.10567-.8348-.86542zm33.39184-27.10024c.97577-.63059.74542-.81206-1.0435-.82202-1.26263-.007-2.29569.36288-2.29569.82202 0,1.05552 1.70588,1.05552 3.33918,0zm43.20068,26.64391c-.80349-.88002-1.27197-1.60003-1.04109-1.60003s-1.11351-1.38526-2.98756-3.07835-4.97431-4.53095-6.88947-6.30635-5.92389-4.70817-8.90828-6.51725c-5.71661-3.46528-5.9572-4.50419-.3655-1.57823 5.97876,3.12849 7.03948,3.84956 6.48239,4.40666-.30337.30337-.18845.55158.25538.55158s1.17891-.37194 1.6335-.82652c.54551-.54551 2.37623.33357 5.38443,2.58552 2.50685,1.87663 4.68391,3.75353 4.83791,4.1709s.62358.54653 1.0435.287 .76349.36711.76349,1.39251v1.86438l-2.24642-2.02381c-1.23553-1.1131-3.7374-3.41756-5.55972-5.12103s-3.63081-2.90097-4.01889-2.66112c-.5993.37038 4.76522,6.17574 5.70677,6.17574 .17962,0 1.69273,1.48585 3.36247,3.30189s3.25462,3.16689 3.52194,3.00189 .54021.6031.60642,1.70689 .0662,1.97558 0,1.93732-.77779-.78959-1.58128-1.66959zm-39.8615-12.45246c0-.45914.37566-.8348.8348-.8348s.8348.37566.8348.8348-.37566.83479-.8348.83479-.8348-.37566-.8348-.83479zm34.96531-.71901c-1.09498-.85459-4.59648-3.29637-7.78111-5.42618s-5.25075-3.86202-4.59138-3.84939 3.63247,1.67227 6.60688,3.68809 5.75484,3.45075 6.17873,3.18877 .13927-.93804-.63248-1.50236c-1.22879-.89852-1.24451-1.08693-.12646-1.51597 .70444-.27031 1.30536-.0339 1.3406.52738 .09441,1.50357.5341,3.33387 1.19698,4.98257 .74789,1.86013.28554,1.84053-2.19177-.0929zm-70.84218-2.24331c-.02421-1.09657 5.61581-7.00937 9.544-10.00554 2.75464-2.10107 3.79371-3.75338 2.3325-3.70908-.34435.0104-2.85186,2.07343-5.57225,4.58444s-5.08338,4.42823-5.2511,4.2605c-.58415-.58415 5.88817-7.19433 7.04428-7.19433 .64049,0 .94906-.34861.68573-.77469s.27798-1.01489 1.20293-1.30845 1.68171-.8841 1.68171-1.3123 .49982-.77854 1.11071-.77854 2.95876-.97234 5.21748-2.16077c2.36494-1.24431 3.20187-1.96296 1.97326-1.69439-4.28326.93631-9.63839,3.84264-13.17152,7.14843-1.98984,1.8618-3.73402,3.3851-3.87596,3.3851s-.50596-.64595-.80892-1.43545-.29376-1.17837.02045-.86416c.7345.73449 3.69094-.82986 3.69094-1.95301 0-.47008-.4337-.58665-.96378-.25904-.59713.36904-.73718.229-.36813-.36813 .32761-.53008 1.3248-.96378 2.21597-.96378s1.62032-.34246 1.62032-.76103c0-.63549 7.27071-3.72737 12.73064-5.41372 .80349-.24817 1.45514-1.12041 1.44811-1.93831-.01035-1.20815-.1541-1.26381-.76614-.29672-.41435.65471-1.62949,1.32253-2.70031,1.48403s-4.3241,1.40417-7.22952,2.7615-5.15936,2.09824-5.00878,1.64646 .56925-.72748.93035-.6127 .98397-.32109 1.38417-.96861c.80652-1.30497 7.95504-4.24712 10.3218-4.24819 .83059-.00036 1.28479-.36532 1.00935-.81099s.52784-1.0685 1.78507-1.38404c1.45345-.36479 2.40323-.22171 2.6081.39292 .17722.53165.70676.96664 1.17675.96664s.65252-.52647.40559-1.16993c-.27634-.72015.25097-1.35766 1.37159-1.6582 2.87567-.77124 3.60898-.54826 2.06204.62703-.78543.59673-1.8092,2.08742-2.27503,3.31263-.7405,1.94767-.6397,2.22766.80198,2.22766 .90691,0 1.64893-.38282 1.64893-.8507s.84523-.64034 1.87829-.38322 3.38092.0855 5.21748-.38142l3.33918-.84891-4.38268.27478c-4.01191.25155-5.86988-.51865-3.33918-1.3842 .57392-.19628.10435-.19725-1.0435-.002-1.51849.25813-1.8399.10295-1.17991-.56966 1.43883-1.46632 5.64873-2.00097 5.13094-.65161-.25471.66373.19212,1.16315 1.10198,1.23169 1.00967.0761 1.37414-.29191 1.07116-1.08146-.25258-.65816-.03156-1.1967.49108-1.1967s1.16571.56133 1.42898,1.2474 .85507,1.01477 1.31512.73045c.51468-.31809.40075-.7975-.29618-1.24623-1.88721-1.21516 7.01921.67714 14.31111,3.0406 .22957.0744 1.92003.81243 3.75658,1.64005 5.24031,2.36148 2.01879,2.42587-3.76607.0753-6.66216-2.70707-9.91585-3.29199-12.51245-2.24937l-2.08699.838 2.08699-.0435c3.51021-.0732 10.64134,1.66935 14.14379,3.45617 1.82622.93167 3.92104,1.69394 4.65513,1.69394s1.1034.37428.82068.83174c-.32239.52163-1.46589.33952-3.06697-.48844-1.83543-.94913-2.80752-1.06559-3.45877-.41434s-.52083.90584.46405.90584c.75344,0 1.62693.4159 1.94109.92423 .37117.60057.02304.75822-.99423.45018-7.18687-2.17637-15.42775-3.19739-22.79659-2.82444-7.0874.35871-7.71316.27459-6.26097-.84169 1.53218-1.17777 1.49909-1.22043-.65698-.84705-1.24873.21627-2.0718.0718-1.82902-.32101s-.33208-.7142-1.27745-.7142-1.71886.39783-1.71886.88407 .38497.64614.85548.35534 .75225-.0312.6261.57683 .26811,1.00232.87616.87616 .86762.15559.57683.6261-1.07003.85548-1.73164.85548-1.20292.39783-1.20292.88407-.37929.64964-.84286.36314-1.82903.25481-3.03437,1.20293-2.65833,1.72384-3.2289,1.72384-1.50505.56349-2.07663,1.25219c-1.5138,1.82402-.05585,1.49158 3.75658-.85657 3.78744-2.33275 5.28723-2.65734 3.75658-.81302-.57158.68871-.75941,1.2522-.4174,1.2522s.15418.56348-.4174,1.25219-1.44069,1.25219-1.93136,1.25219-.16294-.55154.72831-1.22564c1.60042-1.2105 1.60048-1.22598.005-1.2522-.88868-.0146-2.50501.80884-3.59185,1.82987-1.6526,1.55252-2.09834,1.65859-2.72294.64797-.8266-1.33746-1.91025-.52043-8.85778,6.67837-1.994,2.06612-3.63417,3.36268-3.64481,2.88126zm22.84177-18.49604c-1.46818-.48939-10.68505,4.1383-9.86849,4.95487 .25344.25343 2.77053-.6934 5.59354-2.10407s4.74673-2.69353 4.27495-2.8508zm32.23541-.22927c0-.39556-1.22089-1.00518-2.71309-1.35471s-3.27657-.77204-3.96528-.93891c-2.59353-.62843-15.99466-.23607-17.32276.50718-.93875.52534.75429.75949 5.25588.72688 8.05185-.0584 16.03802.87372 16.70278,1.94933 .54484.88157 2.04246.22915 2.04246-.88977zm6.2816,17.25585c-4.66583-2.81373-7.42533-4.75098-6.7675-4.75098 1.28523,0 9.66865,4.49418 9.66865,5.18317 0,.89552-.929.75711-2.90115-.43219zm-34.66467-.9944c.57158-.6887 1.41489-1.25219 1.87403-1.25219 .46567,0 .37527.55369-.20443,1.25219-.57158.68871-1.41489,1.2522-1.87403,1.2522-.46567,0-.37527-.55369.20443-1.2522zm11.26975-.41739-3.33918-.59788 3.54788-.11846c1.95134-.0651 3.54788.2572 3.54788.71634s-.09391.78148-.2087.71633-1.71133-.38751-3.54788-.71633zm-3.75658-1.98967c0-.17605.93915-.49961 2.08699-.71904s2.08699-.0754 2.08699.32008-.93915.71903-2.08699.71903-2.08699-.14403-2.08699-.32007zm20.50791-2.97989c-.8878-.32231-1.24552-.81385-.79494-1.09232 .86116-.53224 3.48125.70223 2.80234,1.32032-.21627.1969-1.1196.0943-2.0074-.228zm-32.93019-3.56462c.89782-1.6776 4.03596-3.22639 5.17401-2.55356 .37526.22186.88864-.38574 1.14086-1.35021s.50867-1.77353.56991-1.79791 2.2299-.24345 4.81924-.48681c3.02067-.28392 4.91449-.10825 5.28432.49016 .39345.63663-.1735.79413-1.78612.49621-3.27051-.6042-7.78871.34447-7.78871,1.63534 0,1.29925-2.12209,2.35526-5.60868,2.79105-.55951.07-.82509.62803-.59017,1.24021 .23808.62044-.12302,1.11307-.8159,1.11307-.96017,0-1.05091-.35899-.39876-1.57755zm41.03143-4.49212c.2774-.2774.99741-.30706 1.60003-.066 .66594.26649.46814.4643-.50436.50436-.88001.0362-1.37306-.16106-1.09567-.43845zm-51.98344-7.8436c.68871-.44508 1.81568-.80923 2.50439-.80923 1.11306,0 1.11306.0899 0,.80923-.68871.44508-1.81568.80922-2.50439.80922-1.11306,0-1.11306-.0899 0-.80922zm43.40939-1.2522c-1.14785-.65616-3.12005-1.20633-4.38268-1.22261s-2.29569-.44903-2.29569-.9617c0-.54645-.87171-.76547-2.10692-.52935-1.1588.22152-2.26832.14159-2.46561-.17762s-2.91183-.48582-6.03234-.37024c-3.28345.12161-4.9772-.0593-4.02046-.42953 .90925-.35182 5.54971-.68946 10.31213-.75031 7.21509-.0922 8.5018.0787 7.71654,1.02489-.7566.91164-.32092,1.26464 2.20981,1.79041 1.73372.36019 3.39832.60354 3.69912.54077s.75859.4375 1.0173,1.11169c.59,1.53753-.93469,1.5265-3.6512-.0264zm-39.23541.0686c0-.29005.96175-.89303 2.13722-1.33994 1.30048-.49445 1.90364-1.19051 1.54062-1.77791-.32814-.53094-.24698-.74925.18037-.48514 1.18405.73178 10.5054-1.65433 11.26519-2.8837 .51777-.83777.89255-.85682 1.66475-.0846 1.11146,1.11145.78371,1.27593-8.44019,4.23564-2.9844.95761-6.08358,1.99355-6.88707,2.30208s-1.46089.32363-1.46089.0336zm17.7536-6.41785c-.1163-1.54387.192-1.69483 2.53545-1.24159 6.80016,1.31522 11.09194,1.13416 10.12694-.42724-.25403-.41103-.26509-.74733-.02454-.74733s.82535.72511 1.29965,1.61133c.81375,1.52051.5301,1.6124-5.03179,1.62997-3.24178.0103-6.54195.22423-7.33371.47553-1.03105.32724-1.47714-.0418-1.57196-1.30068zm-9.82304-.30182c3.56511-1.11301 6.11071-1.12988 5.42617-.036-.22957.36686-2.29569.75958-4.59138.87272l-4.17398.20572 3.33918-1.04247z"/>
 </g>
</svg>
