<?xml version="1.0" encoding="utf-8"?>
<!-- Generator: Adobe Illustrator 22.0.1, SVG Export Plug-In . SVG Version: 6.00 Build 0)  -->
<svg version="1.1" id="Layer_1" xmlns="http://www.w3.org/2000/svg" xmlns:xlink="http://www.w3.org/1999/xlink" x="0px" y="0px"
	 viewBox="0 0 850 850" style="enable-background:new 0 0 850 850;" xml:space="preserve">
<style type="text/css">
	.st0{fill:#097B47;}
	.st1{fill:#A65D3A;}
	.st2{fill:#803106;}
	.st3{fill:#FFF872;}
	.st4{fill:#FCC02C;}
	.st5{fill:none;stroke:#A65D3A;stroke-width:5.3428;stroke-miterlimit:10;}
	.st6{fill:#F88E00;}
</style>
<g>
	<g>
		<path class="st0" d="M729,599.4657c0,20.65259-136.10571,37.39478-304,37.39478c-167.89484,0-304-16.74219-304-37.39478
			c0-20.65314,136.10516-37.39532,304-37.39532C592.89429,562.07037,729,578.81256,729,599.4657z"/>
		<g>
			<g>
				<g>
					<path class="st1" d="M625.67133,541.91248c-0.60748,2.67249-1.57935,5.34497-2.97595,7.89563
						c-1.45801,2.61157-3.64435,4.67706-6.31677,5.89148c-1.03223,0.54657-2.18628,0.91095-3.34033,1.09369l-49.80402,10.14276
						l-146.19183,29.70007l-183.84789,37.41296l-0.30396-1.51843l-15.18376-76.83105l-2.97594-15.00153l-0.12128-0.72925
						l202.43282-20.89307l173.64484-17.97745c3.09766-0.30399,8.38171,1.09314,14.33362,3.15759
						C620.87292,509.84393,629.31512,526.36444,625.67133,541.91248z"/>
					<path class="st2" d="M275.89206,586.79681c0,22.7149-18.52457,41.60388-43.00148,45.73383
						c-3.27946,0.60748-6.68069,0.9115-10.14282,0.9115c-29.33571,0-53.14377-20.89355-53.14377-46.64532
						c0-21.37921,16.45956-39.41754,38.8101-44.88434c2.06499-0.54657,4.12999-0.97131,6.31679-1.21442
						c2.61157-0.36487,5.28403-0.54657,8.01688-0.54657c21.25793,0,39.6003,10.93243,48.10283,26.78455
						C274.07016,572.94885,275.89206,579.69037,275.89206,586.79681z"/>
				</g>
				<g>
					<path class="st2" d="M214.6096,539.96881l0.12128,0.72925c-2.1868,0.2431-4.2518,0.66785-6.31679,1.21442
						c-3.64433-15.54803,4.79837-32.06854,20.65045-37.65659c5.95189-2.06445,11.23592-3.46158,14.33366-3.15759l173.64421,17.97745
						L214.6096,539.96881z"/>
					<polygon class="st1" points="619.47632,539.96881 619.35449,540.69806 616.3786,555.69958 601.19434,632.53064 
						601.89746,632.53333 417.04242,596.63611 270.85059,566.93604 417.04242,519.07574 					"/>
					<ellipse class="st2" cx="611.34711" cy="586.81567" rx="53.15352" ry="46.64519"/>
				</g>
				<path class="st3" d="M545.92468,529.09723l-19.73901,16.2774l-72.51886,59.64276c0,0-37.7175-7.40991-62.25485-3.27997
					c0,0-14.39398-19.37457-33.40479-39.1745c-12.02612-12.57214-25.8736-25.32697-39.11411-33.4657
					c0,0-35.30096-49.53094-7.56436-114.74408c10.79034-25.36871,28.79932-35.91486,46.74472-39.34601
					c16.38-3.13141,25.72824-17.3064,31.06143-34.86603c11.93207-39.28723,36.25516-73.64252,70.98819-95.53944l4.39285-2.7697
					c0,0-23.63977,28.69992,43.13028,107.082c34.20673,40.15598-5.5314,71.13992,13.19464,105.35684
					c18.03729,32.95758,34.31567-26.23849,34.31567-26.23849S600.28394,478.01794,545.92468,529.09723z"/>
			</g>
			<path class="st4" d="M391.41196,601.73743c0,0-45.37106-64.77875-7.39606-145.90707c0,0,6.90451,36.24878,32.79626,14.67242
				c25.89227-21.5769,8.63077-94.07443,8.63077-94.07443s53.51031,14.67239,52.64688,93.21103
				c-0.86288,78.53915-28.13306,127.48776-24.423,135.37802C453.66681,605.0174,403.98676,598.33459,391.41196,601.73743z"/>
		</g>
	</g>
	<path class="st5" d="M208.78488,563.21368c0,0-43.96536,30.97595,1.99821,43.96594
		c45.9641,12.98938,26.979-33.97327,14.98814-34.9729c-11.99031-0.99915-18.98456,7.9939-9.9921,14.98816"/>
	<path class="st5" d="M582.98663,586.3042c0,0,21.09332-35.54724,51.95337-18.35944
		c30.8595,17.18781-11.71887,45.31281-29.68781,42.57837s-1.17224-26.56281,15.23444-28.51556"/>
	<path class="st6" d="M391.41196,601.73743c0,0-20.43622-56.80841,4.97415-90.91202
		c25.41034-34.10309,36.77823,11.36789,34.772,29.42282c-2.00568,18.05438,18.05493,13.37354,20.06116-9.36169
		c0,0,9.5759,33.91559,2.44754,74.13086C453.66681,605.0174,416.44724,599.09277,391.41196,601.73743z"/>
	<path class="st3" d="M380.08841,293.51074c0,0,34.35208-38.2411,9.07422-80.37122
		C389.16263,213.13953,350.92099,272.76999,380.08841,293.51074z"/>
	<path class="st3" d="M533.70142,341.47467c0,0-9.72229,29.16687,19.44458,40.18533
		C553.146,381.66,566.10925,351.19696,533.70142,341.47467z"/>
</g>
</svg>
