<?xml version="1.0" encoding="UTF-8"?>
<svg viewBox="0 0 346.85 372.836" xmlns="http://www.w3.org/2000/svg">
 <path d="m217.35 249.44c2.092 0 3.786 0.991 3.786 2.213s-1.694 2.215-3.786 2.215h-87.088c-2.092 0-3.787-0.991-3.787-2.215s1.695-2.213 3.787-2.213h87.088m0-6h-87.088c-5.58 0-9.787 3.53-9.787 8.213s4.208 8.215 9.787 8.215h87.088c5.578 0 9.786-3.531 9.786-8.215s-4.208-8.213-9.786-8.213z"/>
 <path d="m217.35 280.42c2.092 0 3.786 0.991 3.786 2.213s-1.694 2.214-3.786 2.214h-87.088c-2.092 0-3.787-0.98999-3.787-2.214s1.695-2.213 3.787-2.213h87.088m0-6h-87.088c-5.58 0-9.787 3.53-9.787 8.213s4.208 8.214 9.787 8.214h87.088c5.578 0 9.786-3.531 9.786-8.214s-4.208-8.213-9.786-8.213z"/>
 <path d="m226.75 267.14c0 5.514-5.6 9.982-12.505 9.982h-80.888c-6.906 0-12.505-4.471-12.505-9.982 0-5.516 5.599-9.984 12.505-9.984h80.888c6.907-0.00101 12.505 4.469 12.505 9.984z" fill="#7fff00" stroke="#000" stroke-width="6"/>
 <path d="m136.81 288.07c-0.255 0.40601-0.504 0.81601-0.78101 1.214-11.416 16.377-49.65 7.444-28.31-28.286-36.066-4.747-45.65 29.279-35.228 47.641 11.453 23.411 61.479 30.428 80.41-2.978 2.924-5.161 4.899-11.17 6.144-17.591h-22.235zm-28.571-65.781c11.402 5.995 20.278 14.603 26.009 24.044h24.517c-10.75-63.996-59.869-95.898-106.61-90.543-53.284 6.105-81.882 90.319 0.49599 110.67-13.4-24.813 7.443-69.477 55.584-44.167z" fill="#007f00" stroke="#000" stroke-width="6"/>
 <path d="m186.67 300.94c-0.537-4.388-0.92999-8.675-1.193-12.865h-23.506c-0.259 4.539-0.657 9.177-1.239 13.938-12.647 8.146-7.717 25.725-23.735 36.234 10.062 0.26498 18.271-1.708 20.92-5.415 0 10.75 9.617 19.812 15.886 32.858 5.824-13.119 15.208-24.095 15.208-32.858 2.648 3.707 10.857 5.68 20.921 5.415-14.688-9.011-8.899-25.516-23.262-37.307zm30.102-206.45c-6.494-13.488-35.922-68.015-43.417-86.502-7.494 18.486-36.702 73.013-43.198 86.503-5.728 11.893-17.488 38.472-2.998 65.452 10.178 18.952 26.798 47.126 32.854 86.278h27.147c5.805-39.28 22.357-67.189 32.609-86.279 14.49-26.98 2.729-53.559-2.997-65.452z" fill="#3f7f00" stroke="#000" stroke-width="6"/>
 <path d="m292.69 155.79c-46.71-5.352-95.797 26.509-106.59 90.428h24.567c5.734-9.396 14.583-17.958 25.939-23.929 48.14-25.311 68.982 19.354 55.584 44.167 82.38-20.347 53.781-104.56 0.49701-110.67zm-55.56 105.21c21.34 35.73-16.895 44.663-28.311 28.286-0.27699-0.397-0.52499-0.80801-0.78101-1.214h-22.233c1.244 6.421 3.22 12.43 6.144 17.591 18.931 33.405 68.957 26.389 80.41 2.978 10.421-18.362 0.83701-52.388-35.229-47.641z" fill="#007f00" stroke="#000" stroke-width="6"/>
 <text transform="matrix(12,0,0,1,-2651,0)" x="233.42499" y="281.164" font-family="Arial" font-size="24" text-anchor="middle"/>
 <text x="-279.57501" y="271.164" font-family="Arial" font-size="24" text-anchor="middle"/>
</svg>
