<?xml version="1.0" encoding="UTF-8" standalone="yes"?>
<svg fill="none" stroke-linecap="square" stroke-miterlimit="10" version="1.1" viewBox="0.0 0.0 759.5616797900262 727.9133858267717" xmlns="http://www.w3.org/2000/svg">
 <clipPath id="a">
  <path d="m0 0h759.56v727.91h-759.56v-727.91z"/>
 </clipPath>
 <g clip-path="url(#a)">
  <path d="m0 0h759.56v727.91h-759.56z" fill="#000" fill-opacity="0"/>
  <path d="m573.24 566.59c102.12 157.51-151.12 178.35-170.95-155.72 322.07-22.632 334.76 240.43 170.95 155.72z" fill="#ff1e76" fill-opacity=".75"/>
  <path d="m573.24 566.59c102.12 157.51-151.12 178.35-170.95-155.72 322.07-22.632 334.76 240.43 170.95 155.72z" stroke="#000" stroke-linecap="butt" stroke-linejoin="round"/>
  <path d="m195.59 559.34c-151.95 105.84-171.98-156.77 150.24-177.21 21.746 333.99-231.99 347.04-150.24 177.21z" fill="#ff1e76" fill-opacity=".75"/>
  <path d="m195.59 559.34c-151.95 105.84-171.98-156.77 150.24-177.21 21.746 333.99-231.99 347.04-150.24 177.21z" stroke="#000" stroke-linecap="butt" stroke-linejoin="round"/>
  <path d="m569.05 198.89c149.44-109.61 175.62 152.4-146.06 180.92-29.56-333.32 223.81-352.74 146.06-180.92z" fill="#ff1e76" fill-opacity=".75"/>
  <path d="m569.05 198.89c149.44-109.61 175.62 152.4-146.06 180.92-29.56-333.32 223.81-352.74 146.06-180.92z" stroke="#000" stroke-linecap="butt" stroke-linejoin="round"/>
  <path d="m188.46 183.59c-102.12-157.51 151.12-178.35 170.95 155.72-322.07 22.632-334.76-240.43-170.95-155.72z" fill="#ff1e76" fill-opacity=".75"/>
  <path d="m188.46 183.59c-102.12-157.51 151.12-178.35 170.95 155.72-322.07 22.632-334.76-240.43-170.95-155.72z" stroke="#000" stroke-linecap="butt" stroke-linejoin="round"/>
  <path d="m384.4 98.293c72.598-206.62 355.73 0 0 265.65-355.73-265.65-72.598-472.27 0-265.65z" fill="#ff1e76"/>
  <path d="m384.4 98.293c72.598-206.62 355.73 0 0 265.65-355.73-265.65-72.598-472.27 0-265.65z" stroke="#000" stroke-linecap="butt" stroke-linejoin="round" stroke-width="3"/>
  <path d="m659.08 373.87c203.28 73.793 0 361.58-261.35 0 261.35-361.58 464.63-73.793 261.35 0z" fill="#ff1e76"/>
  <path d="m659.08 373.87c203.28 73.793 0 361.58-261.35 0 261.35-361.58 464.63-73.793 261.35 0z" stroke="#000" stroke-linecap="butt" stroke-linejoin="round" stroke-width="3"/>
  <path d="m100.48 373.87c-203.28-73.793 0-361.58 261.35 0-261.35 361.58-464.63 73.793-261.35 0z" fill="#ff1e76"/>
  <path d="m100.48 373.87c-203.28-73.793 0-361.58 261.35 0-261.35 361.58-464.63 73.793-261.35 0z" stroke="#000" stroke-linecap="butt" stroke-linejoin="round" stroke-width="3"/>
  <path d="m384.36 629.62c-72.598 206.62-355.73 0 0-265.65 355.73 265.65 72.598 472.27 0 265.65z" fill="#ff1e76"/>
  <path d="m384.36 629.62c-72.598 206.62-355.73 0 0-265.65 355.73 265.65 72.598 472.27 0 265.65z" stroke="#000" stroke-linecap="butt" stroke-linejoin="round" stroke-width="3"/>
  <path d="m299.05 373.88c0-44.826 38.207-81.165 85.339-81.165 22.633 0 44.339 8.5513 60.343 23.773 16.004 15.221 24.995 35.866 24.995 57.393 0 44.826-38.207 81.165-85.339 81.165-47.131 0-85.339-36.339-85.339-81.165z" fill="#ff0"/>
  <path d="m299.05 373.88c0-44.826 38.207-81.165 85.339-81.165 22.633 0 44.339 8.5513 60.343 23.773 16.004 15.221 24.995 35.866 24.995 57.393 0 44.826-38.207 81.165-85.339 81.165-47.131 0-85.339-36.339-85.339-81.165z" stroke="#000" stroke-linecap="butt" stroke-linejoin="round" stroke-width="3"/>
 </g>
</svg>
