<svg width="200" height="64" viewBox="0 0 200 64" xmlns="http://www.w3.org/2000/svg"><linearGradient x1="50%" y1="99.998%" x2="50%" y2="-.001%" id="a"><stop stop-color="#FFF" stop-opacity="0" offset="0%"/><stop stop-color="#FFF" stop-opacity=".1" offset="100%"/></linearGradient><g fill="none" fill-rule="evenodd"><rect fill-opacity=".115" fill="#000" y="8" width="36" height="48" rx="4"/><path d="M1.55 15h33.072v32.696H1.55z"/><path d="M30.97 29.665L7.99 16.754c-.98-.551-1.853-.5-2.4.025l-.002-.002c-.373.355-.593.93-.593 1.685v25.77c0 .755.22 1.33.593 1.686l.001-.002c.548.525 1.42.576 2.402.026l22.98-12.911c1.646-.926 1.646-2.442 0-3.367z" fill="#37474F" fill-rule="nonzero"/><path d="M7.99 16.754c-.98-.551-1.853-.5-2.4.025l-.002-.002c-.373.355-.588.93-.588 1.685v25.77c0 .755.215 1.33.588 1.686l.001-.002c.548.525 1.42.576 2.402.026l22.98-12.911c1.646-.926 1.646-2.442 0-3.367L7.99 16.754z" fill="url(#a)" fill-rule="nonzero"/><path d="M9 20v18a.987.987 0 0 0 1 1.004h10.339l8.65-4.86L29 20H9z" fill="#7DA1B3" fill-rule="nonzero"/><path fill="#5B7C8C" fill-rule="nonzero" d="M29 24H9v-4h20z"/><path fill="#FFF" fill-rule="nonzero" opacity=".15" d="M9 20h20v1.011H9z"/><path d="M24.631 26.75a1.37 1.37 0 0 0-1.378 1.362c0 .189.04.368.109.532l-2.327 2.3a1.407 1.407 0 0 0-1.075 0l-.949-.938c.072-.168.109-.35.108-.532a1.37 1.37 0 0 0-1.378-1.362 1.37 1.37 0 0 0-1.378 1.362c0 .19.04.369.109.532l-2.327 2.3a1.406 1.406 0 0 0-.538-.107 1.37 1.37 0 0 0-1.378 1.363 1.37 1.37 0 0 0 1.378 1.362 1.37 1.37 0 0 0 1.378-1.362c0-.183-.037-.364-.108-.532l2.327-2.3c.344.141.73.141 1.075 0l.949.938a1.339 1.339 0 0 0-.109.531 1.37 1.37 0 0 0 1.378 1.363 1.37 1.37 0 0 0 1.378-1.363c0-.182-.037-.363-.108-.531l2.327-2.301c.17.071.353.108.537.107a1.37 1.37 0 0 0 1.378-1.362 1.37 1.37 0 0 0-1.378-1.362z" fill="#FAFAFA" fill-rule="nonzero"/><path d="M69.53 28.292c-2.454 0-4.448 1.86-4.448 4.426 0 2.553 1.994 4.426 4.449 4.426 2.454 0 4.449-1.873 4.449-4.426 0-2.566-1.995-4.426-4.45-4.426zm0 7.097c-1.338 0-2.506-1.1-2.506-2.684 0-1.598 1.155-2.684 2.507-2.684 1.351 0 2.506 1.086 2.506 2.684 0 1.584-1.168 2.684-2.506 2.684zm-9.712-7.097c-2.454 0-4.448 1.86-4.448 4.426 0 2.553 1.994 4.426 4.448 4.426 2.455 0 4.449-1.873 4.449-4.426 0-2.566-1.994-4.426-4.45-4.426zm0 7.097c-1.339 0-2.506-1.1-2.506-2.684 0-1.598 1.155-2.684 2.506-2.684 1.34 0 2.507 1.086 2.507 2.684 0 1.584-1.168 2.684-2.507 2.684zM48.27 29.64v1.873h4.502c-.132 1.06-.486 1.833-1.024 2.358-.656.654-1.68 1.375-3.478 1.375-2.769 0-4.934-2.227-4.934-4.99 0-2.763 2.165-4.988 4.934-4.988 1.497 0 2.585.59 3.4 1.335l1.325-1.323c-1.129-1.073-2.625-1.898-4.725-1.898-3.793 0-6.994 3.09-6.994 6.875 0 3.784 3.188 6.875 6.994 6.875 2.048 0 3.596-.668 4.804-1.925 1.247-1.244 1.627-2.986 1.627-4.387 0-.432-.04-.838-.105-1.179H48.27zm47.246 1.467c-.367-.995-1.496-2.815-3.793-2.815-2.284 0-4.186 1.794-4.186 4.426 0 2.475 1.876 4.426 4.396 4.426 2.034 0 3.202-1.244 3.7-1.964l-1.509-1.009c-.498.734-1.194 1.218-2.178 1.218-.997 0-1.693-.458-2.152-1.335l5.932-2.45-.21-.497zm-6.05 1.466c-.053-1.715 1.325-2.579 2.322-2.579.775 0 1.431.38 1.64.943l-3.962 1.636zm-4.817 4.296h1.942V23.865H84.65V36.87v-.001zm-3.202-7.596h-.065c-.434-.523-1.274-.994-2.337-.994-2.217 0-4.252 1.938-4.252 4.44 0 2.474 2.035 4.412 4.252 4.412 1.063 0 1.903-.471 2.337-1.008h.065v.642c0 1.689-.905 2.592-2.362 2.592-1.194 0-1.93-.85-2.231-1.571l-1.694.707c.486 1.178 1.785 2.62 3.938 2.62 2.284 0 4.213-1.336 4.213-4.61v-7.95h-1.85v.72h-.014zm-2.23 6.117c-1.34 0-2.468-1.127-2.468-2.672 0-1.558 1.129-2.697 2.467-2.697 1.326 0 2.362 1.139 2.362 2.697.013 1.559-1.036 2.672-2.362 2.672zm25.42-11.525h-4.659v13.004h1.942v-4.923h2.717c2.152 0 4.278-1.559 4.278-4.034 0-2.489-2.113-4.047-4.278-4.047zm.052 6.26h-2.769v-4.452h2.769c1.457 0 2.284 1.204 2.284 2.226 0 1.008-.827 2.226-2.284 2.226zm12.022-1.86c-1.405 0-2.875.616-3.479 1.991l1.733.72c.368-.72 1.063-.955 1.772-.955 1.01 0 2.034.602 2.047 1.675v.131a4.375 4.375 0 0 0-2.034-.497c-1.864 0-3.754 1.022-3.754 2.933 0 1.742 1.523 2.868 3.242 2.868 1.312 0 2.034-.59 2.48-1.27h.066v1.008h1.877v-4.99c.013-2.33-1.719-3.614-3.95-3.614zm-.237 7.125c-.643 0-1.522-.315-1.522-1.1 0-1.009 1.103-1.388 2.06-1.388.853 0 1.26.183 1.772.431a2.34 2.34 0 0 1-2.31 2.056zm11.037-6.836l-2.23 5.644h-.066l-2.31-5.644h-2.1l3.478 7.883-1.982 4.386h2.034l5.355-12.27h-2.179zm-17.52 8.315h1.942V23.865h-1.942V36.87v-.001z" fill="#000" fill-rule="nonzero" opacity=".54"/><path d="M140.318 37.131c-1.771 0-3.254-.602-4.448-1.794-1.195-1.192-1.799-2.685-1.799-4.479s.604-3.273 1.799-4.479c1.194-1.191 2.677-1.793 4.448-1.793 1.811 0 3.281.654 4.423 1.964l-1.076 1.035c-.813-1.022-1.93-1.52-3.347-1.52-1.312 0-2.414.446-3.32 1.323-.906.877-1.352 2.043-1.352 3.47 0 1.428.446 2.594 1.352 3.47.906.878 2.008 1.324 3.32 1.324 1.444 0 2.678-.577 3.701-1.742l1.076 1.073a6.031 6.031 0 0 1-2.06 1.572c-.84.393-1.745.576-2.717.576zm6.864-7.49c.8-.839 1.81-1.245 3.045-1.245 1.233 0 2.244.42 3.044 1.244.801.839 1.194 1.873 1.194 3.13s-.393 2.292-1.194 3.13c-.8.838-1.81 1.244-3.044 1.244s-2.245-.419-3.045-1.244c-.801-.838-1.194-1.873-1.194-3.13s.407-2.305 1.194-3.13zm1.155 5.277c.538.537 1.167.812 1.89.812.722 0 1.352-.275 1.89-.812.538-.537.8-1.257.8-2.148 0-.89-.262-1.61-.8-2.147-.538-.537-1.168-.812-1.89-.812-.723 0-1.352.275-1.89.812-.538.537-.8 1.256-.8 2.147 0 .89.275 1.598.8 2.148zm8.846-6.26v1.14h.065c.223-.393.578-.72 1.063-.996a3.076 3.076 0 0 1 1.549-.406c1.023 0 1.797.315 2.336.943.537.63.8 1.467.8 2.515v5.015h-1.549v-4.791c0-1.52-.682-2.28-2.034-2.28-.643 0-1.155.25-1.562.76a2.752 2.752 0 0 0-.603 1.768v4.544h-1.549v-8.212h1.484zm10.51 8.473c-.918 0-1.678-.223-2.27-.668a3.893 3.893 0 0 1-1.312-1.676l1.378-.576c.434 1.035 1.182 1.545 2.232 1.545.486 0 .879-.104 1.181-.314.301-.21.46-.498.46-.838 0-.537-.382-.904-1.13-1.087l-1.666-.406c-.526-.131-1.024-.393-1.497-.76-.472-.38-.708-.878-.708-1.52 0-.719.328-1.308.971-1.767.643-.458 1.405-.68 2.297-.68.722 0 1.378.17 1.942.497.563.31.996.813 1.22 1.415l-1.338.55c-.302-.721-.932-1.088-1.877-1.088-.459 0-.84.092-1.154.288-.316.197-.474.446-.474.773 0 .471.368.786 1.09.956l1.628.38c.773.183 1.338.484 1.719.916.367.433.55.93.55 1.48 0 .734-.301 1.349-.905 1.847-.603.497-1.378.733-2.336.733zm5.316-7.49c.801-.839 1.812-1.245 3.045-1.245 1.234 0 2.244.42 3.045 1.244.8.839 1.194 1.873 1.194 3.13s-.394 2.292-1.194 3.13c-.801.838-1.811 1.244-3.045 1.244-1.233 0-2.244-.419-3.045-1.244-.8-.838-1.194-1.873-1.194-3.13s.394-2.305 1.194-3.13zm1.142 5.277c.539.537 1.168.812 1.89.812s1.352-.275 1.89-.812c.538-.537.8-1.257.8-2.148 0-.89-.262-1.61-.8-2.147-.538-.537-1.168-.812-1.89-.812s-1.351.275-1.89.812c-.538.537-.8 1.256-.8 2.147.013.89.276 1.598.8 2.148zm8.911 1.95h-1.549V24.874h1.55V36.87zm5.447.263c-1.248 0-2.258-.419-3.032-1.244s-1.168-1.873-1.168-3.13c0-1.192.38-2.226 1.129-3.09.76-.865 1.719-1.297 2.9-1.297 1.22 0 2.192.393 2.927 1.192.735.799 1.102 1.86 1.102 3.182l-.013.288h-6.496c.04.825.328 1.48.826 1.964a2.5 2.5 0 0 0 1.785.72c1.103 0 1.863-.47 2.258-1.414l1.378.577c-.263.642-.71 1.165-1.326 1.598-.616.444-1.378.654-2.27.654zm2.218-5.356c-.04-.471-.25-.917-.643-1.336-.395-.419-.985-.641-1.773-.641-.576 0-1.062.183-1.482.537-.42.353-.709.838-.867 1.44h4.765z" fill="#78909C" fill-rule="nonzero"/></g></svg>