<?xml version="1.0" encoding="UTF-8"?>
<svg viewBox="0 0 48 48" xmlns="http://www.w3.org/2000/svg" xmlns:xlink="http://www.w3.org/1999/xlink">
 <defs>
  <linearGradient id="a">
   <stop offset="0"/>
   <stop stop-opacity="0" offset="1"/>
  </linearGradient>
  <linearGradient id="g" x2="0" y1="-150.7" y2="327.66" gradientUnits="userSpaceOnUse">
   <stop stop-opacity="0" offset="0"/>
   <stop offset=".5"/>
   <stop stop-opacity="0" offset="1"/>
  </linearGradient>
  <linearGradient id="h" x1="6.2298" x2="9.8981" y1="13.773" y2="66.834" gradientTransform="matrix(1.5168 0 0 .70898 -.87957 -1.3182)" gradientUnits="userSpaceOnUse">
   <stop stop-color="#fff" stop-opacity=".87629" offset="0"/>
   <stop stop-color="#fffffe" stop-opacity="0" offset="1"/>
  </linearGradient>
  <linearGradient id="i" x1="13.036" x2="12.854" y1="32.567" y2="46.689" gradientTransform="matrix(1.3175 0 0 .81626 -.87957 -1.3182)" gradientUnits="userSpaceOnUse">
   <stop stop-color="#fff" offset="0"/>
   <stop stop-color="#fff" stop-opacity="0" offset="1"/>
  </linearGradient>
  <linearGradient id="j" x1="18.113" x2="15.515" y1="31.368" y2="6.1802" gradientUnits="userSpaceOnUse">
   <stop stop-color="#424242" offset="0"/>
   <stop stop-color="#777" offset="1"/>
  </linearGradient>
  <linearGradient id="f" x1="22.176" x2="22.065" y1="36.988" y2="32.05" gradientUnits="userSpaceOnUse">
   <stop stop-color="#6194cb" offset="0"/>
   <stop stop-color="#729fcf" offset="1"/>
  </linearGradient>
  <radialGradient id="d" cx="20.706" cy="37.518" r="30.905" gradientTransform="matrix(1.055 -.027345 .1777 1.1909 -3.5722 -7.1253)" gradientUnits="userSpaceOnUse">
   <stop stop-color="#202020" offset="0"/>
   <stop stop-color="#b9b9b9" offset="1"/>
  </radialGradient>
  <radialGradient id="e" cx="55" cy="125" r="14.375" gradientUnits="userSpaceOnUse">
   <stop stop-color="#fff" offset="0"/>
   <stop stop-color="#fff520" stop-opacity=".89109" offset=".5"/>
   <stop stop-color="#fff300" stop-opacity="0" offset="1"/>
  </radialGradient>
  <radialGradient id="b" cx="605.71" cy="486.65" r="117.14" gradientTransform="matrix(-2.7744 0 0 1.9697 112.76 -872.89)" gradientUnits="userSpaceOnUse" xlink:href="#a"/>
  <radialGradient id="c" cx="605.71" cy="486.65" r="117.14" gradientTransform="matrix(2.7744 0 0 1.9697 -1891.6 -872.89)" gradientUnits="userSpaceOnUse" xlink:href="#a"/>
 </defs>
 <g transform="matrix(.021652 0 0 .019038 42.415 36.934)">
  <path d="m-1559.3-150.7h1339.6v478.36h-1339.6z" fill="url(#g)" opacity=".40206"/>
  <path d="m-219.62-150.68v478.33c142.87 0.90045 345.4-107.17 345.4-239.2s-159.44-239.13-345.4-239.13z" fill="url(#c)" opacity=".40206"/>
  <path d="m-1559.3-150.68v478.33c-142.87 0.90045-345.4-107.17-345.4-239.2s159.44-239.13 345.4-239.13z" fill="url(#b)" opacity=".40206"/>
 </g>
 <path d="m4.52178,38.68742c.0218.4163.4599.83261.87621.83261h31.32702c.4163,0 .81081-.41631.78902-.83261l-.93644-27.22674c-.0218-.4163-.4599-.83262-.8762-.83262h-13.27087c-.48506,0-1.23447-.31559-1.40164-1.10663l-.61139-2.89307c-.15547-.73567-.88221-1.03789-1.29852-1.03789h-14.77886c-.41631,0-.81082.4163-.78902.83261l.97071,32.26433z" fill="url(#d)" stroke="url(#j)" stroke-linecap="round" stroke-linejoin="round"/>
 <path d="m5.2266 22.562h30.266" fill="#729fcf" opacity=".11364" stroke="#000" stroke-linecap="round" stroke-linejoin="round"/>
 <path d="m5.0422 18.562h30.447" fill="#729fcf" opacity=".11364" stroke="#000" stroke-linecap="round" stroke-linejoin="round"/>
 <path d="m4.9807 12.562h30.507" fill="#729fcf" opacity=".11364" stroke="#000" stroke-linecap="round" stroke-linejoin="round"/>
 <path d="m5.3862 32.562h30.109" fill="#729fcf" opacity=".11364" stroke="#000" stroke-linecap="round" stroke-linejoin="round"/>
 <path d="m5.5091 34.562h29.988" fill="#729fcf" opacity=".11364" stroke="#000" stroke-linecap="round" stroke-linejoin="round"/>
 <path d="m5.0422 16.562h30.447" fill="#729fcf" opacity=".11364" stroke="#000" stroke-linecap="round" stroke-linejoin="round"/>
 <path d="m5.0114 14.562h30.477" fill="#729fcf" opacity=".11364" stroke="#000" stroke-linecap="round" stroke-linejoin="round"/>
 <path d="m4.9221 10.562h15.281" fill="#729fcf" opacity=".11364" stroke="#000" stroke-linecap="round" stroke-linejoin="round"/>
 <path d="m4.8738 8.5625h14.784" fill="#729fcf" opacity=".11364" stroke="#000" stroke-linecap="round" stroke-linejoin="round"/>
 <path d="m5.3247 28.562h30.169" fill="#729fcf" opacity=".11364" stroke="#000" stroke-linecap="round" stroke-linejoin="round"/>
 <path d="m5.2881 26.562h30.205" fill="#729fcf" opacity=".11364" stroke="#000" stroke-linecap="round" stroke-linejoin="round"/>
 <path d="m5.2266 24.562h30.266" fill="#729fcf" opacity=".11364" stroke="#000" stroke-linecap="round" stroke-linejoin="round"/>
 <path d="m5.1958 20.562h30.296" fill="#729fcf" opacity=".11364" stroke="#000" stroke-linecap="round" stroke-linejoin="round"/>
 <path d="m5.3247 30.562h30.169" fill="#729fcf" opacity=".11364" stroke="#000" stroke-linecap="round" stroke-linejoin="round"/>
 <path d="m5.5091 36.562h29.988" fill="#729fcf" opacity=".11364" stroke="#000" stroke-linecap="round" stroke-linejoin="round"/>
 <path d="m6.06834,38.86402c.01634.31223-.18091.52038-.49858.4163s-.53673-.31223-.55308-.62446l-.94772-32.06449c-.01634-.31223.16519-.50077.47741-.50077l14.42205-.04769c.31223,0 .93194.30047 1.13294,1.32218l.57349,2.81553c-.42705-.46526-.41919-.47962-.63756-1.15671l-.4061-1.25918c-.21905-.72765-.6982-.8319-1.01043-.8319h-12.88777c-.31223,0-.50948.20815-.49313.52039l.93801,31.51486-.10952-.10408z" display="block" fill="url(#h)" opacity=".45143"/>
 <g transform="matrix(1.0408 0 .054493 1.0408 -8.6702 2.6706)" fill="#fff" fill-opacity=".75706">
  <path d="m42.41718,8.51518c.00508-.09711-.12816-.24699-.23512-.24701l-13.0314-.00212c0,0 .91171.58795 2.20181.59624l11.0535.07102c.01109-.21173.00272-.25603.01121-.41814z" fill="#fff" fill-opacity=".50847"/>
 </g>
 <path d="m39.784 39.511c1.1439-0.04406 1.9631-1.0963 2.047-2.321 0.79179-11.549 1.6594-21.232 1.6594-21.232 0.07215-0.24748-0.16791-0.49497-0.48014-0.49497h-34.371l-1.8503 21.867c-0.11456 0.98207-0.46601 1.8047-1.5498 2.1837l34.545-0.00268z" display="block" fill="url(#f)" stroke="#3465a4" stroke-linejoin="round"/>
 <path d="m9.6202 16.464 32.791 0.06481-1.574 20.002c-0.08432 1.0715-0.45068 1.4282-1.8727 1.4282l-31.395-0.03241c0.2336-0.32081 0.33376-0.98862 0.3351-1.0046l1.7152-20.458z" fill="none" opacity=".46591" stroke="url(#i)" stroke-linecap="round"/>
 <path d="m9.6202 16.223-1.1666 15.643s8.2962-4.1481 18.666-4.1481 15.555-11.495 15.555-11.495h-33.055z" fill="#fff" fill-opacity=".08929" fill-rule="evenodd"/>
 <path transform="matrix(.78329 0 0 .78329 -8.3174 -84.67)" d="m69.375 125a14.375 14.375 0 1 1 -28.75 0 14.375 14.375 0 1 1 28.75 0z" display="block" fill="url(#e)"/>
</svg>
