<?xml version="1.0" encoding="UTF-8"?>
<svg enable-background="new 0 0 512.001 512.001" version="1.1" viewBox="0 0 512.001 512.001" xmlns="http://www.w3.org/2000/svg">
 <path d="m368.96 121.58c8.845-15.169 3.719-34.635-11.45-43.481-9.765-5.694-21.307-5.59-30.654-0.752-0.393-10.517-5.988-20.614-15.753-26.308-15.169-8.845-34.635-3.719-43.481 11.45-8.845 15.169-3.719 34.635 11.45 43.481 0.651 0.38 1.311 0.723 1.977 1.052l-26.784 45.933c-33.49 3.717-74.919 36.47-91.849 65.505-21.729 37.265-11.895 83.48 21.966 103.22 33.861 19.744 78.925 5.541 100.65-31.724 16.93-29.034 25.03-81.222 11.771-112.2l26.784-45.934c0.613 0.418 1.238 0.823 1.889 1.202 15.169 8.845 34.635 3.718 43.48-11.451z" fill="#604730"/>
 <path d="m456.4 346.96l-50.102-22.086c-27.526-81.067-105.93-139.56-198.37-139.56-108.15 0-197.1 80.055-207.83 182.66-0.557 5.331 1.175 10.647 4.764 14.628 3.59 3.98 8.7 6.244 14.06 6.244h433.55c10.44 0 18.904-8.464 18.904-18.904 1e-3 -9.949-5.875-18.96-14.979-22.973z" fill="#A9825A"/>
 <path d="m456.4 346.96l-50.102-22.086c-24.943-73.459-91.664-128.38-172.75-138.05v202.01h218.92c10.44 0 18.904-8.464 18.904-18.904 0-9.949-5.876-18.96-14.98-22.973z" fill="#7E6142"/>
 <path d="m502.69 165.72c12.416-12.416 12.416-32.546 0-44.963-7.993-7.993-19.182-10.831-29.452-8.534 2.298-10.27-0.541-21.459-8.534-29.452-12.416-12.416-32.546-12.416-44.963 0-12.416 12.416-12.416 32.546 0 44.963 0.532 0.532 1.084 1.034 1.643 1.52l-37.599 37.599c-33.332-4.935-81.736 16.189-105.5 39.955-30.503 30.503-32.761 77.699-5.046 105.41 27.717 27.717 74.912 25.457 105.41-5.046 23.766-23.766 44.89-72.17 39.955-105.5l37.599-37.599c0.486 0.56 0.988 1.11 1.52 1.643 12.419 12.418 32.549 12.418 44.965 2e-3z" fill="#BA9B7D"/>
 <path d="m426.02 445.11c-2.348 11.735-12.651 20.182-24.619 20.182h-334.46c-11.967 0-22.272-8.447-24.619-20.182l-11.4-57.001h406.5l-11.4 57.001z" fill="#00D9E1"/>
 <path d="m130.54 245.41c13.607-17.842 17.668-37.25 8.513-49.028-12.437-15.999-44.528-11.862-71.676 9.241-22.131 17.203-30.666 40.095-31.09 57.01-0.61 24.331 18.966 54.169 57.588 70.127 41.029 16.953 82.387 11.094 92.378-13.084 9.949-24.083-14.976-57.251-55.713-74.266z" fill="#BA9B7D"/>
 <path d="m234.17 388.11v77.184h167.23c11.967 0 22.272-8.447 24.619-20.182l11.4-57.001h-203.25z" fill="#00A3AA"/>
 <path d="m418.61 201.68l37.599-37.599c0.486 0.56 0.988 1.11 1.52 1.643 12.416 12.416 32.546 12.416 44.963 0 12.416-12.416 12.416-32.546 0-44.963-7.993-7.993-19.182-10.831-29.452-8.534 2.298-10.27-0.541-21.459-8.534-29.452-12.416-12.416-32.546-12.416-44.963 0-12.416 12.416-12.416 32.546 0 44.963 0.532 0.532 1.084 1.034 1.643 1.52l-37.599 37.598 34.823 34.824z" fill="#FBDBAC"/>
 <path d="m357.51 78.104c-9.765-5.694-21.307-5.59-30.654-0.752-0.393-10.517-5.988-20.614-15.753-26.308-15.169-8.845-34.635-3.719-43.481 11.45-8.845 15.169-3.719 34.635 11.45 43.481 0.651 0.38 1.311 0.723 1.977 1.052l-26.784 45.933 42.542 24.806 26.784-45.934c0.613 0.418 1.238 0.823 1.889 1.202 15.169 8.845 34.635 3.719 43.481-11.45 8.844-15.169 3.718-34.635-11.451-43.48z" fill="#E5C395"/>
 <polygon points="34.217 404.59 434.13 404.59 437.42 388.11 30.92 388.11" fill="#00A3AA"/>
</svg>
