<?xml version="1.0" encoding="UTF-8"?>
<svg viewBox="0 0 1000 1000" xmlns="http://www.w3.org/2000/svg">
 <defs>
  <linearGradient id="b" x1="509.97" x2="509.9" y1="544.75" y2="278.81" gradientTransform="matrix(.93679 -.85929 .85927 .93681 -400.21 462.79)" gradientUnits="userSpaceOnUse">
   <stop stop-color="#3c1a0f" offset="0"/>
   <stop stop-color="#d7bbb3" offset="1"/>
  </linearGradient>
  <linearGradient id="a" x2="0" y1="750.29" y2="353.8" gradientTransform="matrix(.93679 -.85929 .85927 .93681 -400.21 462.79)" gradientUnits="userSpaceOnUse">
   <stop stop-color="#391b0f" offset="0"/>
   <stop stop-color="#5b2318" offset=".10989"/>
   <stop stop-color="#5b2318" offset=".27473"/>
   <stop stop-color="#905036" offset="1"/>
  </linearGradient>
 </defs>
 <path d="m260.23 242.48c209.94-192.57 443.75-194.95 509.86-192.1 54.62 2.3575 100.81 8.0024 121.59 12.397 34.724 7.3432 25.195 7.327 46.702 33.008s34.249 26.987 35.022 68.388c0.63801 34.21 5.9807 206.33-60.35 357.28s-113.03 188.57-173.28 243.84-197.57 142.87-350.57 174.12c-79.269 16.188-298.03 7.6502-312.03-10.338-5.6351-8.2619-14.159-17.489-20.93-22.506-15.188-16.558-25.366-51.217-26.948-79.868s-13.148-189.89 60.548-346.12 170.39-238.1 170.39-238.1z" fill="url(#a)" stroke="#391b0f" stroke-width="2"/>
 <path d="m81.755 498.52c-17.329 40.267-29.251 80.502-37.386 118.39 4.8183 9.8888 10.692 21.773 12.387 24.377 2.6562 4.0799 9.8658 7.23 9.8658 7.23s-0.24233 5.6715 6.7906 13.339 100.31 117.63 135.92 158.82 60.582 66.049 63.828 69.588c1.8593 2.0271 5.4259 4.4291 8.2525 6.1763 15.543-4.2981 40.828-11.574 59.3-18.331 25.786-9.4319 41.733-15.98 51.254-20.168-0.92898-3.5265-2.8187-8.4402-6.4702-10.992-6.0486-4.2263-101.42-104.61-149.42-160.5s-118.77-135.42-122.01-138.96-3.423-13.194-3.423-13.194-2.9747 3.8179-10.5-5.5704-13.348-19.236-15.955-24.447c-0.62991-1.2589-1.4808-3.3519-2.4226-5.756z" fill="#fff"/>
 <path d="m552.33 77.767c7.6396 1.441 16.468 3.7036 22.299 7.0918 10.117 5.8786 7.2293 4.2466 15.934 12.553 6.1574 5.8755 3.6488 6.8 1.6445 6.847 3.4263 0.19543 12.986 0.99306 15.66 3.9093 3.246 3.5389 82.226 81.738 133.77 134.38s131.27 147.86 134.96 154.25c1.9395 3.3594 5.3564 5.8918 8.1919 7.5795 6.3015-11.345 20.928-38.305 29.718-59.927 6.415-15.779 11.614-29.352 15.137-38.682-0.26239-4.2533-0.85961-8.2834-2.1944-9.7387-3.246-3.5389-55.746-68.375-93.713-107.4s-101.23-98.674-108.27-106.34-17.782-8.1621-17.782-8.1621-0.39445-6.5863-4.1954-9.6282c-7.6255-6.1026-16.851-9.38-24.794-11.164-36.085 3.6608-79.184 10.878-126.37 24.433z" fill="#fff"/>
 <path d="m289.82 288.47c-136.38 126.89-189.87 234.24-226.84 356.48-37.564 124.18-30.175 190.65-30.606 206.88-0.2994 11.274 3.8095 20.465 11.457 33.711-5.9952-11.039-8.7746-17.679-8.3118-28.402 0.68835-15.949-7.8282-85.53 31.194-208.12s94.534-230.37 235.76-359.92 236.2-175.73 383.62-209.3c139.8-31.839 222.75-10.398 235.54-5.5507-1.2528-1.159-2.2862-1.9645-2.9632-2.3491-5.5124-3.1314-87.158-27.851-236.28 3.8598s-244.78 77.149-386.01 206.7c-2.2067 2.0242-4.3929 4.0008-6.5575 6.015zm-232.21 620.85c4.2556 4.7263 14.202 13.914 30.748 18.478 40.749 11.241 150.58-9.9993 255.01-44.382s242.91-113.66 328.94-192.57 131.33-125.93 204.77-257.42 82.936-214.76 89.192-261.43c4.8006-35.815-2.7091-50.402-7.8855-57.023 4.8549 6.4989 10.548 20.133 3.9079 57.329-8.1726 45.78-15.73 125.31-90.209 255.68s-119.87 177.28-205.9 256.19-223.74 159.03-327.17 194.5-214.01 55.903-253.97 45.524c-14.959-3.8855-23.449-10.753-27.446-14.877zm900.78-794.35c-0.3498-0.44736-0.66239-0.87296-0.98631-1.2515 0.31958 0.38304 0.6541 0.80699 0.98631 1.2515zm-4.3892-5.1379c0.45698 0.53357 1.002 1.2099 1.3109 1.5467 0.27987 0.30513 0.64798 0.70457 0.96669 1.0539-0.38192-0.41639-1.6279-1.8647-2.2776-2.6007z" fill="url(#b)" opacity=".45588"/>
 <path d="m146.14 542.95c-7.1797-0.30989-10.212-1.4684-5.6228-12.574s28.106-103.6 170.41-234.13 251.72-165.88 266.66-166.78 9.5004 6.0619 8.032 16.275 6.2132 46.51-7.2938 61.855-21.576 23.731-21.576 23.731 5.2574-14.673-5.0473-25.908-97.697 25.584-208.43 127.16-134.58 142.17-131.06 155.68c3.2648 12.506 32.733 3.468 32.733 3.468s-5.3459 16.725-18.587 25.915c-23.592 16.375-80.216 25.311-80.216 25.311z" fill="none" opacity=".34314" stroke="#000" stroke-dasharray="32.00000151, 4.00000018" stroke-width="4"/>
 <path d="m104.07 479.32c-0.30988 7.1798-2.6101 18.66 6.1444 12.095 9.6136-7.2092 36.686-88.328 178.99-218.86s230.02-164.15 243.43-170.79c10.836-5.3691-3.3463-7.3538-15.127-5.4223-49.723 8.1524-178.29 80.412-249.82 153.84-120.84 119.45-150.3 188.03-163.62 229.14z" fill="none" opacity=".34314" stroke="#000" stroke-dasharray="32.00000151, 4.00000018" stroke-width="4"/>
 <path d="m142.45 452.05c-4.6501-5.1162-5.487-8.0928 0.88539-18.556s14.698-20.834 21.395-27.856 14.232-11.067 18.93-17.206 11.721-19.997 18.466-27.996 19.906-17.159 23.069-21.903 7.0704-14.835 19.396-26.972 20.371-16.648 24.464-20.368 7.3024-9.4403 19.163-22.089 19.86-16.183 26.511-22.228 4.4191-10.557 20.139-22.043 25.626-13.95 31.766-19.53 11.488-15.114 23.581-22.368 21.394-7.2996 29.486-12.787 13.395-14.044 21.999-19.996 33.254-19.948 39.579-19.157 10.696 1.4893 15.346 6.6055-4.7909 8.0918-13.349 13.067-18.232 12.834-22.325 16.554-16.372 14.881-22.418 18.508-18.557 9.3927-29.114 15.252-15.395 14.927-25.581 23.251-26.138 14.415-30.277 19.112-16.558 18.787-22.186 23.903-18.278 13.811-23.394 18.461-16.651 20.741-22.744 25.344-16.232 11.951-23.953 19.903-12.186 19.485-20.419 27.902-18.371 15.764-25.116 23.763-8.0936 15.765-15.908 25.67-15.953 16.369-23.209 24.833-12.512 16.044-16.279 23.206-6.3723 10.464-9.1158 6.4171-8.7886-10.697-8.7886-10.697z" fill="#eee" stroke="#b8b8b8"/>
 <path d="m134.21 442.8c-2.2082-2.9498-5.2046-5.6742 1.4143-14.731s9.5016-9.7106 11.214-7.3011 10.568 13.691 17.732 22.045 18.632 19.229 21.854 22.742 3.2908 7.9272 3.3598 12.342 0.72304 7.2974-5.2008 6.2632-11.803-3.1045-18.291-9.0936-20.682-19.836-23.634-23.597-8.4488-8.6688-8.4488-8.6688z" fill="#fff" stroke="#b8b8b8"/>
 <path d="m172.5 391.25c-1.938-3.1977-2.5026-8.1526 1.077-12.929s5.8082-8.3129 8.1282-7.9533 3.7846 2.4989 6.2406 5.719 6.332 9.6154 15.254 19.343 15.5 13.644 19.218 17.697 9.5743 6.6414 8.6296 10.493-1.3938 8.244-4.2989 9.4161-12.477 0.49945-19.98-6.0525-19.555-15.895-24.759-21.57-9.5091-14.164-9.5091-14.164z" fill="#fff" stroke="#b8b8b8"/>
 <path d="m297.59 249.45c-1.2951-2.3861-0.64923-6.5525 2.7474-9.6681s6.5489-11.368 10.715-10.722 6.1508 8.6541 12.867 15.002 23.224 23.372 30.021 27.86 8.0516 7.804 8.8213 11.566-0.32123 7.4427-3.1925 9.1829-5.7023 2.5501-15.695-3.4736-28.887-21.752-34.228-27.575-12.057-12.171-12.057-12.171z" fill="#fff" stroke="#b8b8b8"/>
 <path d="m358.89 189.65c3.8818-3.5607 7.8474 1.7368 11.893 5.1737s26.34 26.769 31.236 32.106 12.258 7.5196 11.572 12.616 2.0246 7.0779-2.3023 10.153-11.81 3.6846-17.596-2.6236-25.855-27.214-29.901-30.651-11.328-7.4794-13.553-9.9056-5.9065-3.5172-1.0542-7.9681l9.7046-8.9018z" fill="#fff" stroke="#b8b8b8"/>
 <path d="m415.35 155.73c4.7318-1.6599 8.858-0.0836 14.684 5.2941s28.201 26.849 31.316 30.246 7.4057 11.97 6.7599 16.137-6.0235 9.9927-11.08 8.3764-11.974-3.313-15.779-12.332-23.144-25.233-26.705-29.115-7.9277 0.12382-11.488-3.7581-4.3705-6.7131 0.40153-9.3033 11.89-5.5452 11.89-5.5452z" fill="#fff" stroke="#b8b8b8"/>
 <path d="m266.22 274.66c4.3269-3.0755 4.5311 2.9918 8.577 6.4286s25.61 22.077 32.246 30.286 10.682 11.646 8.0148 19.453-3.5974 7.7673-12.74 3.6444-17.479-16.133-25.53-23.938-15.698-14.193-20.149-19.045-2.4697-7.5631 0.44168-10.234 9.1391-6.596 9.1391-6.596z" fill="#fff" stroke="#b8b8b8"/>
 <path d="m466.02 126.23c7.1179-2.955 11.81-3.6846 16.301 0.23753s31.922 27.01 35.402 32.752 7.3254 13.831 5.7493 17.957 4e-3 10.719-11.364 4.1698-18.205-10.106-23.06-16.374-9.4304-19.048-16.672-24.021-9.1826-3.1925-11.893-5.1737 1.2917-8.3328 1.2917-8.3328z" fill="#fff" stroke="#b8b8b8"/>
 <path d="m218.46 322.93c3.3966-3.1156 2.9114-2.6705 8.2523 3.1524s7.0811 8.6942 14.647 16.943 10.397 7.4393 15.738 13.262 9.9122 7.8844 12.502 12.656 3.0352 5.2574 0.93368 10.759-12.375 5.9903-23.137-3.7948-31.761-30.731-35.282-35.543-1.9042-9.8689 0.48185-11.164 5.8629-6.2714 5.8629-6.2714z" fill="#fff" stroke="#b8b8b8"/>
</svg>
