<?xml version="1.0" encoding="UTF-8"?>
<svg viewBox="0 0 450 483" xmlns="http://www.w3.org/2000/svg" xmlns:xlink="http://www.w3.org/1999/xlink">
 <defs>
  <linearGradient id="a">
   <stop offset="0"/>
   <stop stop-opacity="0" offset="1"/>
  </linearGradient>
  <linearGradient id="f" x1=".23348" x2=".37601" y1=".35517" y2="-.47343">
   <stop stop-color="#333" offset="0"/>
   <stop stop-opacity="0" offset="1"/>
  </linearGradient>
  <linearGradient id="e" x1="1.0197" x2=".13875" y1=".42728" y2=".14519" xlink:href="#a"/>
  <linearGradient id="d" x1=".11003" x2="1.0193" y1=".35019" y2=".49577" xlink:href="#a"/>
  <radialGradient id="c" cx="478.61" cy="550.29" r="225.06" gradientUnits="userSpaceOnUse">
   <stop stop-color="#fff" offset="0"/>
   <stop stop-color="#fff" offset=".4702"/>
   <stop stop-color="#d6d6d6" offset="1"/>
  </radialGradient>
  <radialGradient id="b" cx="477.49" cy="544.3" r="206.09" gradientUnits="userSpaceOnUse">
   <stop stop-color="#6a6a6a" offset="0"/>
   <stop offset="1"/>
  </radialGradient>
 </defs>
 <path transform="translate(-236.97 -361.7)" d="m687.14 591.56c0 124.25-100.84 225.08-225.08 225.08s-225.08-100.84-225.08-225.08 100.84-225.08 225.08-225.08 225.08 100.84 225.08 225.08z" fill="url(#b)" fill-rule="evenodd"/>
 <path transform="translate(-236.97 -361.7)" d="m462.05 366.48c-49.128 0-94.576 15.785-131.59 42.531-16.116 19.49-27.406 39-27.406 39l-20.562 7.875c-28.559 37.736-45.5 84.748-45.5 135.69 0 4.7581 0.14613 9.4712 0.4375 14.156 5.1158 9.1397 8.9375 14.969 8.9375 14.969l-2.625 25.688c14.701 58.68 52.455 108.24 103.06 138.5 3.6158 2.3383 6.6361 3.7538 9.9542 5.6308-1.7605-1.6631-2.3028-2.108-3.4542-3.162-13.247-13.702-24.406-29.719-24.406-29.719l32.031-29.469c3e-5 0 20.594 15.565 43.719 23.625s48.781 8.6249 48.781 8.6249l15.875 40.75s-14.028 7.1945-33.938 10.719c-3.5652 0.6311-7.333 1.1444-11.094 1.5625 12.288 2.0813 24.903 3.1875 37.781 3.1875 52.043 0 99.99-17.684 138.12-47.375 11.93-15.985 19.75-29.719 19.75-29.719l17.375-6.8125c30.833-38.223 49.436-86.719 49.812-139.53-6.1241-18.158-12.812-28.812-12.812-28.812s1.7072-16.582-0.69061-34.848c-0.37628-2.866 1.5495-1.846 3.8673-3.4022-0.68744-2.5948-3.185-10.306-4.445-13.988-4.9603-14.496-9.8394-21.412-13.044-27.824 6.2433 3.4876-0.02453-0.01889-0.03125-0.03125-38.13-70.163-112.49-117.81-197.91-117.81zm27.219 8.5625c18.704 0.25577 38.219 6.3125 38.219 6.3125s22.173 8.5206 38 20.562 25.312 27.594 25.312 27.594l-40.25 27.812c0-3e-5 -21.666-14.842-44.312-22.844s-46.281-9.1562-46.281-9.1562l-11.406-41.531s17.263-8.1103 37-8.7188c1.2336-0.03803 2.4718-0.04831 3.7188-0.03125zm-131.53 111.19c13.82 0.06347 25.312 1.7188 25.312 1.7188l20.812 88.438-66.812 63.625s-20.863-13.237-35.906-26.188-24.281-25.625-24.281-25.625 2.7158-25.654 8.8438-47.719 15.688-40.531 15.688-40.531 16.519-9.5067 36.938-12.5c6.3809-0.93543 13.124-1.2476 19.406-1.2188zm216.53 63.156s18.838 8.2533 34.031 20.406 26.75 28.219 26.75 28.219-1.0777 22.001-8.3438 44.875-20.719 46.625-20.719 46.625-18.778 6.8908-38.594 8.75-40.688-1.3125-40.688-1.3125l-10.344-43.281-10.656-44.5s14.142-17.052 31.281-32 37.281-27.781 37.281-27.781z" fill="url(#c)" fill-rule="evenodd"/>
 <path transform="translate(-236.97 -361.7)" d="m633.37 598.68s-1.0585 21.443-8.1364 43.725-20.175 45.403-20.175 45.403-18.297 6.7242-37.6 8.5353-39.612-1.291-39.612-1.291l-10.088-42.15-10.371-43.333s13.772-16.632 30.468-31.193 36.315-27.05 36.315-27.05 18.347 8.052 33.147 19.89 26.053 27.463 26.053 27.463z" fill="none" stroke="url(#d)" stroke-linejoin="round" stroke-width="4.8705"/>
 <path transform="translate(-236.97 -361.7)" d="m337.13 638.06s-20.337-12.906-35.001-25.53-23.655-24.968-23.655-24.968 2.6368-24.996 8.6103-46.505 15.284-39.53 15.284-39.53 16.098-9.255 36.003-12.173 43.615 0.50134 43.615 0.50134l20.279 86.211-65.135 61.995z" fill="none" stroke="url(#e)" stroke-linejoin="round" stroke-width="4.874"/>
 <path transform="translate(-236.97 -361.7)" d="m526.54 385.59s19.464 7.4963 33.366 18.073 22.24 24.235 22.24 24.235l-35.357 24.431s-19.031-13.054-38.923-20.082-47.713-9.7974-47.713-9.7974l-9.3194-36.843s19.395-6.769 36.731-7.3034 38.976 7.2868 38.976 7.2868z" fill="none" stroke="url(#f)" stroke-width="5.0158"/>
 <path transform="translate(-236.97 -361.7)" d="m382.01 489.15s36.187-48.081 78.437-64.331" fill="none" stroke="#666"/>
 <path transform="translate(-236.97 -361.7)" d="m552.78 456.1s26.985 42.926 23.485 91.926" fill="none" stroke="#ececec" stroke-width="3"/>
 <path transform="translate(-236.97 -361.7)" d="m550.37 456.61s27.576 44.376 24.076 93.376" fill="none" stroke="#666"/>
 <path transform="translate(-236.97 -361.7)" d="m587.8 429.25s59.783 23.6 86.033 98.35" fill="none" stroke="#666"/>
 <path transform="translate(-236.97 -361.7)" d="m635.42 597.89s21.044-1.6348 39.429-32.747" fill="none" stroke="#666"/>
 <path transform="translate(-236.97 -361.7)" d="m620.39 739.32s2.9208-18.129-14.521-50.953" fill="none" stroke="#666"/>
 <path transform="translate(-236.97 -361.7)" d="m453.67 760.93s32.35-8.5737 73.362-65.142" fill="none" stroke="#666"/>
 <path transform="translate(-236.97 -361.7)" d="m336.82 639.22s-1.9446 50.381 23.158 89.979" fill="none" stroke="#666"/>
 <path transform="translate(-236.97 -361.7)" d="m328.88 757.9s-7.4296 0.09235-35.545-16.858" fill="none" stroke="#666"/>
 <path transform="translate(-236.97 -361.7)" d="m277.33 588.14s-20.149 8.4634-31.002 31.911" fill="none" stroke="#666"/>
 <path transform="translate(-236.97 -361.7)" d="m302.7 448.25s-7.2316 27.912-0.94794 51.363" fill="none" stroke="#666"/>
 <path transform="translate(-236.97 -361.7)" d="m326.92 412.6s60.054-50.895 121.22-28.268" fill="none" stroke="#666"/>
 <path transform="translate(-236.97 -361.7)" d="m469.15 801.22s52.386 13.451 133.19-34.233" fill="none" stroke="#666"/>
 <path transform="translate(-236.97 -361.7)" d="m382.2 485.55s30.091-41.441 74.341-61.316" fill="none" stroke="#f2f2f2" stroke-linecap="square" stroke-width="3"/>
 <path transform="translate(-236.97 -361.7)" d="m454.49 762.67s30.822-5.9461 71.835-62.515" fill="none" stroke="#fff" stroke-width="3"/>
 <path transform="translate(-236.97 -361.7)" d="m334.79 640.34s-1.9446 50.396 23.158 89.994" fill="none" stroke="#fff" stroke-width="3"/>
 <path transform="translate(-236.97 -361.7)" d="m404.35 576.56s26.34 6.1872 101.29 32.704" fill="none" stroke="#999"/>
 <path transform="translate(-236.97 -361.7)" d="m404.35 575.28s26.34 6.1872 101.29 32.704" fill="none" stroke="#ececec"/>
</svg>
