<?xml version="1.0" encoding="UTF-8"?>
<svg viewBox="0 0 255 269" xmlns="http://www.w3.org/2000/svg" xmlns:xlink="http://www.w3.org/1999/xlink">
 <defs>
  <linearGradient id="b">
   <stop stop-color="#293d17" offset="0"/>
   <stop stop-color="#8dc15e" stop-opacity="0" offset="1"/>
  </linearGradient>
  <linearGradient id="d">
   <stop stop-color="#d2e7bf" offset="0"/>
   <stop stop-color="#699b3c" stop-opacity="0" offset="1"/>
  </linearGradient>
  <linearGradient id="a">
   <stop stop-color="#c8e1b2" offset="0"/>
   <stop stop-color="#8dc15e" stop-opacity="0" offset="1"/>
  </linearGradient>
  <linearGradient id="c">
   <stop stop-color="#202f12" offset="0"/>
   <stop stop-color="#8dc15e" stop-opacity="0" offset="1"/>
  </linearGradient>
  <linearGradient id="e">
   <stop stop-color="#334b1d" offset="0"/>
   <stop stop-color="#334b1d" stop-opacity="0" offset="1"/>
  </linearGradient>
  <linearGradient id="i" x1="-2e-5" x2=".89557">
   <stop stop-opacity=".3611" offset="0"/>
   <stop stop-color="#d4d43e" stop-opacity="0" offset="1"/>
  </linearGradient>
  <linearGradient id="u" x1=".36676" x2=".83764" y1=".8158" y2=".24005">
   <stop stop-color="#a6a628" offset="0"/>
   <stop stop-color="#dada64" offset="1"/>
  </linearGradient>
  <linearGradient id="v" x1="1e-5" x2=".87122" y1=".76822" y2=".45702">
   <stop stop-color="#9c9c1f" offset="0"/>
   <stop stop-color="#1d1d06" stop-opacity="0" offset="1"/>
  </linearGradient>
  <linearGradient id="ac" x1=".85733" x2="4.3221">
   <stop stop-color="#b7d88e" offset="0"/>
   <stop stop-color="#8fc34f" stop-opacity=".8704" offset="1"/>
  </linearGradient>
  <linearGradient id="aj" x1=".33331" x2=".65622" y1="1.1393">
   <stop stop-color="#c3e0aa" stop-opacity=".4404" offset="0"/>
   <stop stop-color="#699b3c" stop-opacity="0" offset="1"/>
  </linearGradient>
  <linearGradient id="g" x1=".65578" x2="-.6825" y1=".73769" y2=".43241" xlink:href="#b"/>
  <linearGradient id="h" x1="-.00107" x2="1.5873" y1=".53817" y2=".55343" xlink:href="#b"/>
  <linearGradient id="j" x1=".08555" x2=".65742" y1="1.2209" y2=".14234" xlink:href="#b"/>
  <linearGradient id="k" x1=".54312" x2=".41469" y1=".6362" y2="-.21725" xlink:href="#a"/>
  <linearGradient id="l" x1=".56375" x2=".39929" y1=".62733" y2="-.03728" xlink:href="#a"/>
  <linearGradient id="m" x1=".68602" x2=".53425" y1=".61951" y2="-.11276" xlink:href="#c"/>
  <linearGradient id="n" x1=".67887" x2=".51209" y1=".89135" y2="-.00093" xlink:href="#b"/>
  <linearGradient id="o" x1=".70664" x2=".9954" y1=".71275" y2=".18368" xlink:href="#a"/>
  <linearGradient id="p" x1=".61984" x2=".38238" y1=".3352" y2=".48905" xlink:href="#a"/>
  <linearGradient id="q" x1=".40469" x2=".83249" y1=".73439" y2=".37397" xlink:href="#b"/>
  <linearGradient id="r" x1=".30981" x2=".85767" y1=".76243" y2=".31553" xlink:href="#c"/>
  <linearGradient id="w" x1=".94037" x2=".45791" y1="-.05754" y2=".66867" xlink:href="#a"/>
  <linearGradient id="x" x1=".33901" x2=".54451" y1=".90268" y2=".39933" xlink:href="#b"/>
  <linearGradient id="y" x1=".95482" x2="-.69223" xlink:href="#d"/>
  <linearGradient id="z" x1=".65696" x2=".13494" y1=".49563" y2=".26737" xlink:href="#a"/>
  <linearGradient id="aa" x1=".83206" x2="-.51277" xlink:href="#a"/>
  <linearGradient id="ab" x1=".74231" x2=".04213" y1=".56583" y2="-.29253" xlink:href="#c"/>
  <linearGradient id="ad" x1=".43689" x2="-2.3169" y1=".49348" y2="-5.9174" xlink:href="#c"/>
  <linearGradient id="ae" x1=".34545" x2="1.0956" y1=".26729" y2=".60728" xlink:href="#c"/>
  <linearGradient id="af" x1="1e-5" x2=".95717" y1=".4927" y2=".46141" xlink:href="#a"/>
  <linearGradient id="ag" x1=".50001" x2="1.688" y1=".97674" y2="-.33594" xlink:href="#d"/>
  <linearGradient id="ah" x1=".50001" x2="1.688" y1=".97674" y2="-.33594" xlink:href="#e"/>
  <linearGradient id="ai" x1="1.087" x2="3e-5" y1=".87349" y2=".41814" xlink:href="#e"/>
  <linearGradient id="ak" x1="-1.414" x2=".62428" y1="1.7949" y2=".40085" xlink:href="#e"/>
  <radialGradient id="f" cx="683.65" cy="861.48" r="3.3295" gradientTransform="matrix(1.2217 .16522 -.21723 1.6063 -347.26 -1409.6)" gradientUnits="userSpaceOnUse">
   <stop stop-color="#8dc15e" offset="0"/>
   <stop stop-color="#8dc15e" stop-opacity="0" offset="1"/>
  </radialGradient>
  <radialGradient id="s" cx="536.01" cy="222.86" r="45.587" gradientTransform="matrix(-.35152 .37306 -.25262 -.23804 509.52 -86.74)" gradientUnits="userSpaceOnUse" xlink:href="#d"/>
  <radialGradient id="t" cx="643.48" cy="246.44" r="37.574" gradientTransform="matrix(-.29284 .16091 -.16095 -.29291 534.12 38.715)" gradientUnits="userSpaceOnUse" xlink:href="#d"/>
 </defs>
 <path transform="translate(-119.69 -49.02)" d="m225.49 124.59s-10.748 4.7023-17.466 5.3741-16.794 2.0153-19.481 5.3741-8.0612 4.0306-8.7329 10.076 3.3588 16.122 7.3894 19.481 8.3971 6.3818 14.107 7.3894 21.832-5.0383 29.222-13.771-5.0382-33.252-5.0382-33.924z" fill="#8dc15e" fill-rule="evenodd"/>
 <path transform="translate(-119.69 -49.02)" d="m312.48 133.33s-2.0153 8.0612 3.3588 13.435 17.466 12.764 18.809 13.435-0.67175-3.3588-0.67175-10.076 4.7023-4.7023 5.3741-2.6871 0.67176 10.748 2.6871 12.092 6.0459-10.076 6.0459-12.092-2.0153-14.779-1.3436-16.794 5.3741-2.0153 5.3741 1.3435-0.67178 22.168 2.0153 24.855 12.764-10.748 13.435-12.092 2.0153-2.6871 4.7024 0-11.42 13.435-10.748 15.451-1.6794 11.084-3.023 11.084-5.0382 14.443-7.0536 16.458-8.7329 4.7024-12.092 2.6871-25.527-20.153-28.214-18.138-2.6871 6.0459-4.7024 8.0612-20.153-4.7024-18.809-22.168 24.855-24.855 24.855-24.855z" fill="#86c052" fill-rule="evenodd"/>
 <path transform="translate(-119.69 -49.02)" d="m300.39 49.692c-11.42 0.67175-19.481 9.4047-19.481 9.4047s-13.099-8.3971-20.489-1.6794-8.0612 21.497-8.0612 21.497-10.748 7.3894-18.809 21.497-8.733 31.573-10.748 36.947-20.153 20.825-22.168 31.573-5.3741 33.588-5.3741 33.588-22.504-24.519-44.001-24.519-20.825 3.3588-26.199 10.076 7.3894 31.573 7.3894 31.573-0.40136 24.114 21.767 50.313 44.066 33.658 50.784 32.315 14.779-14.779 14.107-17.466 18.138 2.0154 18.138 2.0154 4.3665 20.489 22.504 20.489 68.856-15.786 84.307-35.939 10.076-34.26 7.0535-37.619-9.0688-15.451-27.206-14.107-23.512 0.67179-23.512 0.67179 8.7329-12.764 8.7329-22.84 0.67176-13.435 0.67176-13.435l-8.733-26.199s11.45-10.808 15.451-28.886c1.2983-5.8665 4.7024-8.0612 4.7024-17.466s-1.3435-28.886-1.3435-28.886 0.67176-1.3435-0.67175-7.3894-2.6871-4.7024-2.6871-4.7024-3.6947-15.451-16.122-20.825z" fill="#86c052" fill-rule="evenodd"/>
 <path transform="translate(-119.69 -49.02)" d="m206.34 226.7s0-11.42-1.3435-15.451-9.6422-9.683-9.6422-9.683 1.1435-6.7558 4.5464-27.936c1.0972-6.8293 0.4831-5.8477 1.5151-7.97 3.8489-7.9156 11.419-16.006 12.668-17.414 5.7465-6.4779 9.0501-11.563 9.0501-11.563s2.0722-7.3489 2.5968-14.319c0.57757-7.6744 4.6324-15.504 6.1361-18.696 6.8975-14.642 21.135-25.502 20.628-25.191 0 0-12.567 22.938-17.269 31.671s-8.0612 22.168-11.42 28.214-9.4047 31.573-10.748 36.275-2.0153 26.871-3.3588 32.917c-1.0609 4.7741-3.3588 18.809-3.3588 19.145z" fill="url(#g)" fill-rule="evenodd"/>
 <path transform="translate(-119.69 -49.02)" d="m293.34 152.14s-7.0536 26.535-13.099 41.314-10.076 18.809-12.764 28.214-4.7024 18.474-4.7024 18.474 14.041-11.983 24.184-15.786c5.3741-2.0153 13.435-2.687 13.435-2.687s8.4273-18.209 9.4047-24.855c1.6794-11.42-4.3665-31.237-8.397-37.283s-7.3894-5.3741-8.0612-7.3894z" fill="url(#h)" fill-rule="evenodd"/>
 <path transform="translate(-119.69 -49.02)" d="m293.34 152.14s7.0535-40.306 8.397-49.711c0.3359-2.3512 2.4154-7.7176 2.0783-11.997-0.67175-8.5283 4.3282 0.14263 8.46-0.09278 5.2312-0.29803 8.0891-2.4503 7.3475-13.605-0.98953-14.883-15.808-8.9009-14.548-14.202 0.92486-3.8922-0.48285-5.1117 1.0286-6.7911 6.0459-6.7176 14.107 28.214 14.107 34.26s4.7265 19.385-3.023 37.955c-3.2001 7.6684-4.3665 12.428-7.0535 17.802-4.7501 9.5002-10.076 13.435-10.076 13.435l-6.7176-7.0535z" fill="url(#i)" fill-rule="evenodd"/>
 <path transform="translate(-119.69 -49.02)" d="m218.77 284.14s-1.3435-13.435-6.0459-26.199-7.3894-12.764-6.7177-18.809 9.7406-40.642 9.7406-51.39 8.733-34.26 12.764-45.68 25.527-59.115 28.886-61.802 36.947 2.0153 38.962 6.0459-4.7024 46.352-7.3894 57.1-10.077 40.978-15.451 52.398-14.779 47.695-16.122 55.085-12.092 21.497-16.122 25.527-4.7024 10.748-4.7024 10.748-3.7786-1.7634-8.2291-2.5191-9.5727-0.50378-9.5727-0.50378z" fill="url(#j)" fill-rule="evenodd"/>
 <path transform="translate(-119.69 -49.02)" d="m279.57 244.84c8.0612-6.0459 17.466-10.748 26.199-12.764s24.855-4.0306 30.229-1.3435 12.092 4.7024 13.435 3.3588 0.67178-4.7024-7.3894-10.077-29.558-6.0459-38.291-4.0306-16.122 4.7024-24.184 8.733-13.435 8.733-16.122 12.092-2.0153 12.092-3.3588 14.107 19.481-9.4047 19.481-10.076z" fill="url(#k)" fill-rule="evenodd"/>
 <path transform="translate(-119.69 -49.02)" d="m244.3 273.39c4.7024-4.7023 28.214-21.496 40.306-26.199s24.797-11.912 38.627-11.756c17.142 0.19307 25.527 4.0306 25.527 4.0306s-17.466-1.3435-29.558 3.3588-34.26 12.092-48.367 21.496-24.855 18.809-31.573 20.153 4.0306-10.076 5.0382-11.084z" fill="url(#l)" fill-rule="evenodd"/>
 <path transform="translate(-119.69 -49.02)" d="m237.25 287.83c4.0306 12.763 8.7329 14.779 15.451 18.809 8.6405 5.1842 49.829-6.554 70.535-18.809 3.8622-2.286 9.5663-5.2403 21.496-16.122 9.5338-8.6962 6.7176-18.138 6.7176-18.138s-22.168 18.138-30.229 22.168-41.649 13.435-46.352 12.092-6.7176 4.0305-10.748 5.374-11.42 1.3435-15.451-1.3435-11.42-4.0305-11.42-4.0305z" fill="url(#m)" fill-rule="evenodd"/>
 <path transform="translate(-119.69 -49.02)" d="m259.41 295.22s33.724-5.0441 50.382-12.092c17.466-7.3894 36.947-22.168 38.962-25.527s4.0306-2.0153 6.0459-7.3894c2.8403-7.5741-8.0612-10.748-8.0612-10.748s-20.825 0-28.886 4.0306c-6.1861 3.093-40.978 15.451-46.352 20.153s-24.184 18.138-28.886 19.481-5.3741 1.3435-5.3741 1.3435 0.92416 4.9077 2.0153 6.0459c4.286 4.4708 14.107 4.7025 20.153 4.7025z" fill="url(#n)" fill-rule="evenodd"/>
 <path transform="translate(-119.69 -49.02)" d="m205.34 234.76s-14.779-21.496-24.855-30.901-19.481-16.794-28.214-18.138-10.076 0-14.107-4.0306 5.3741-2.0153 10.076-3.3588 21.832 2.3512 29.222 9.0688 16.619 11.704 21.496 18.138c3.2719 4.3159 5.9366 3.3913 6.7176 12.764 0.67177 8.0612 0 16.122-0.33586 16.458z" fill="url(#o)" fill-rule="evenodd"/>
 <path transform="translate(-119.69 -49.02)" d="m139.84 188.41c4.0306 0.67175 25.527 5.3741 42.321 27.542s23.512 30.229 27.542 38.962 11.42 31.573 8.0612 34.932-6.0459-2.0152-12.764-5.3741-19.481-5.3742-20.153-9.4046 8.0612-4.0306 12.092-2.6871 7.3894-1.3435 5.3741-7.3894-7.3894-2.6871-14.779-6.7177-9.4047-26.871-22.168-38.291-25.527-31.573-25.527-31.573z" fill="url(#p)" fill-rule="evenodd"/>
 <path transform="translate(-119.69 -49.02)" d="m123.72 189.42s-2.0153 10.748 8.733 30.901c5.3741 10.076 18.138 28.886 24.184 35.604s22.84 22.168 27.542 23.512 14.779 4.7023 17.466 2.6871-4.0306-16.122-12.092-30.901-37.283-48.031-47.359-54.749-17.466-7.3894-18.474-7.0535z" fill="url(#q)" fill-rule="evenodd"/>
 <path transform="translate(-119.69 -49.02)" d="m132.45 219.98s-0.42916 25.795 22.209 51.014c23.052 25.68 41.532 30.912 45.563 30.912s7.3733 1.9087 14.52-7.0243c2.687-3.3588 3.3588-7.3894 3.3588-7.3894s1.3436 9.4048-6.0459 5.3742c-10.026-5.4685-17.466-5.3742-20.825-6.0459s-4.7024-9.4048-4.7024-9.4048-15.451-7.3894-28.886-24.184-24.855-32.245-25.191-33.252z" fill="url(#r)" fill-rule="evenodd"/>
 <path transform="translate(-119.69 -49.02)" d="m262.44 56.074c-9.4047 7.3894-9.4047 21.497-9.4047 21.497s12.092 4.0306 22.168-3.3588c8.8185-6.4669 7.3894-8.0612 8.0612-12.764s-16.122-8.0612-20.825-5.3741z" fill="url(#s)" fill-rule="evenodd"/>
 <path transform="translate(-119.69 -49.02)" d="m308.45 65.814s-6.7177-3.3588-11.42 0-6.0459 10.076-5.3741 14.779 6.7177 8.0612 12.092 8.733c1.9997 0.24997 12.764 0 12.764 0s-5.2507-5.2312-6.0459-9.4047c-1.2746-6.6898 3.4075-12.299 3.4075-11.968l-5.4228-2.1391z" fill="url(#t)" fill-rule="evenodd"/>
 <path transform="translate(-119.69 -49.02)" d="m313.49 68.165s-5.3741 6.0459-4.0306 10.748 4.7024 10.748 6.0459 10.748 4.7024-6.0459 4.7024-9.4047-1.3435-6.0459-2.0153-8.0612-3.3588-4.7024-4.7024-4.0306z" fill="url(#u)" fill-rule="evenodd"/>
 <path transform="translate(-119.69 -49.02)" d="m314.46 68.066c0 8.0612-1.4821 10.267 1.717 12.527 2.2893 1.6175 2.077-4.929 1.9909-8.1231-0.06848-2.5435-3.7079-4.404-3.7079-4.404z" fill="#1d1d06" fill-rule="evenodd"/>
 <path transform="translate(-119.69 -49.02)" d="m313.32 68.296c-3.3588 4.0306-4.0306 6.7552-4.0306 9.4423 0 3.0848 4.5457 10.615 5.1377 11.358 1.169 1.4673 2.5876-0.27398 3.2594-1.6175s2.413-4.9763 2.413-4.9763-2.0772 4.6404-5.1001 2.961c-1.8801-1.0445-4.008-4.6006-4.2914-8.2844-0.33588-4.3665 2.9478-8.5473 2.612-8.8832z" fill="url(#v)" fill-rule="evenodd"/>
 <path transform="translate(-119.69 -49.02)" d="m296.53 54.058c-3.0229 0-14.443 7.0535-14.443 7.0535s1.6794 4.3665-2.6871 9.7406-14.107 7.7253-18.474 7.7253-13.099 20.825-17.13 27.878-31.069 58.276-3.3588 67.344 43.833-9.4047 44.504-13.435 12.764-69.36 13.099-70.703-5.0382-2.3512-7.0535-7.7253 1.3435-10.076 4.0306-13.771 7.7253-4.7024 8.3971-4.7024 1.6794-3.023 0.67175-5.0382-7.0536-4.3665-7.5574-4.3665z" fill="url(#w)" fill-rule="evenodd"/>
 <path transform="translate(-119.69 -49.02)" d="m311.48 141.72s-3.023 10.58-10.412 16.458c-2.8311 2.252 7.0535 20.825 7.0535 20.825s1.3303-7.2431 3.6947-6.7177c3.023 0.67175 24.519 15.115 25.863 17.13s8.7329 2.3512 12.764-1.0076 4.0306-5.71 6.0459-11.756 3.3588-2.6871 4.7024-5.3741 2.0153-9.0688 0-9.0688 10.748-12.428 11.42-14.443-12.092 10.748-12.764 13.435-4.7024 4.7024-5.3741 9.4047-1.3435 12.764-4.0306 12.092-8.733-8.0612-16.794-10.076-19.481-9.4047-19.481-14.107-2.6871-16.794-2.6871-16.794z" fill="url(#x)" fill-rule="evenodd"/>
 <path transform="translate(-119.69 -49.02)" d="m337.51 145.92s-1.3435 12.428 0 14.779 4.3665 2.6871 4.0306 0.67177-1.0753-6.3197-1.3435-9.4047c-0.67175-7.7253-3.0229-5.71-2.687-6.0459z" fill="url(#y)" fill-rule="evenodd"/>
 <path transform="translate(-119.69 -49.02)" d="m369.42 143.24c-1.3435 2.0153-9.7406 12.428-10.412 13.435s-1.3435 4.0306-4.0306 4.0306-9.7406 1.6794-7.0536 5.3741 3.023 7.7253 6.0459 7.0535 5.3741-5.3741 5.71-7.3894-0.33588-4.7024 1.0077-6.7177 9.2581-11.543 9.7406-12.428c2.0153-3.6947-1.3435-3.3588-1.0077-3.3588z" fill="url(#z)" fill-rule="evenodd"/>
 <path transform="translate(-119.69 -49.02)" d="m350.61 130.14c1.0076 3.0229 0.33588 10.412 0.67175 13.099s1.0077 10.412 1.3435 12.092 3.023 1.6794-0.33588 2.6871-6.3818 1.6794-4.7024-1.6794 1.6794-18.138 1.3435-21.497-1.0077-4.3665 0-5.0382 1.6794 0.3359 1.6794 0.3359z" fill="url(#aa)" fill-rule="evenodd"/>
 <path transform="translate(-119.69 -49.02)" d="m222.13 138.7c-2.0153 3.3588-9.4047 11.42-12.764 16.122s-10.076 16.122-9.4047 17.466-10.076-3.6947-14.107-9.0688-3.3588-7.0536-2.0153-9.7406 5.0382-8.3971 12.092-9.0688 9.7406 1.3435 13.099 1.3435 13.435-6.7177 13.099-7.0535z" fill="url(#ab)" fill-rule="evenodd"/>
 <path transform="translate(-119.69 -49.02)" d="m225.15 128.96c-4.0306 4.0306-2.687 5.71-11.42 6.3818s-13.435-1.3435-18.809 0.67177-8.0612 6.7176-8.0612 6.7176 5.3741-4.7024 11.42-4.0306 18.138 2.0153 19.481 2.0153 4.7024-2.0153 4.7024-2.0153l2.687-9.7406z" fill="url(#ac)" fill-rule="evenodd"/>
 <path transform="translate(-119.69 -49.02)" d="m202.99 164.23-7.3894-4.0306s1.3435-2.0153 4.0306-1.3435 3.6947 1.0076 5.71 0.33587-2.3512 5.71-2.3512 5.0382z" fill="url(#ad)" fill-rule="evenodd"/>
 <path transform="translate(-119.69 -49.02)" d="m312.32 141.05s-8.0612 15.451-10.748 17.13 0.67175 7.3894 2.0153 7.7253 0.5599-3.929 3.8626-8.733c9.2368-13.435 4.8703-15.786 4.8703-16.122z" fill="url(#ae)" fill-rule="evenodd" opacity=".533"/>
 <path transform="translate(-119.69 -49.02)" d="m312.53 68.892c-3.3588 4.0306-4.9256 6.5563-4.9256 9.2434 0 3.0849 4.6843 10.523 5.1377 11.358 0.47287 0.87065 1.8867 1.0235 3.4583-0.0264 1.2435-0.8307 0.18212-0.49854-0.52054-0.05381s-1.5891-0.44343-2.266-1.7626c-1.0837-2.1123-3.8091-6.3906-4.0925-10.074-0.33591-4.3665 3.5445-8.3484 3.2086-8.6843z" fill="url(#af)" fill-rule="evenodd"/>
 <path transform="matrix(1.5262 0 0 1.5262 -864.25 -1279.6)" d="m694.44 879.4a3.7516 9.4437 0 1 1 -7.5032 0 3.7516 9.4437 0 1 1 7.5032 0z" fill="url(#ag)" fill-rule="evenodd" opacity=".533"/>
 <path transform="matrix(1.3423 0 0 1.3423 -736.54 -1119.7)" d="m694.44 879.4a3.7516 9.4437 0 1 1 -7.5032 0 3.7516 9.4437 0 1 1 7.5032 0z" fill="url(#ah)" fill-rule="evenodd" opacity=".533"/>
 <path transform="translate(-119.69 -49.02)" d="m319.71 83.062s-1.1992 2.9052-2.337 5.022c-0.81998 1.5254-2.2868 1.9729-2.9022 2.1137-1.2998 0.29722-2.9651 0.07412-2.9651 0.07412s1.79 3.8784 3.9778 3.58 4.475-4.1767 4.475-5.37-0.19891-5.4695-0.24862-5.4198z" fill="url(#ai)" fill-rule="evenodd"/>
 <path transform="translate(-119.69 -49.02)" d="m231.61 134.33s-4.7114 13.13 7.5578 22.276c5.4161 4.0373 25.482 7.649 31.822 5.9667 12.964-3.44 15.911-13.127 16.707-17.9s7.9556-32.618 6.3645-36.596-10.342-17.502-23.867-17.502-20.685 5.9667-25.458 12.331-11.933 32.22-13.127 31.425z" fill="url(#aj)" fill-rule="evenodd"/>
 <path transform="translate(-119.69 -49.02)" d="m302.99 63.573s-7.9176 1.0216-11.749 10.472 5.3636 14.303 6.6406 14.814c0.63849 0.2554 4.8023-3.4119 7.8857-1.5963 3.2492 1.9132 4.6292 3.1287 4.6292 3.1287s-3.1926-2.5541-5.2358-10.472-2.0432-16.601-2.171-16.346z" fill="url(#ak)" fill-rule="evenodd"/>
 <path transform="translate(-119.69 -49.02)" d="m298.52 82.857c-0.5108 2.2987-0.5108 6.1298-0.5108 6.1298s-1.5324 4.8527 1.277 6.1298 4.0865 0 4.3419-1.0216 0.5108-5.3636 0.5108-6.3852 0-5.619 0.25543-6.6406 1.0216-0.76621 1.5324-3.0649 0-3.0649-2.0433-3.8311-5.3636 0.76622-5.619 2.2987 0.2554 6.6406 0.2554 6.3852z" fill="url(#f)" fill-rule="evenodd"/>
 <path transform="translate(-119.69 -49.02)" d="m301.65 84.473c0.24417 4.5188-0.25205 9.0566-1.385 13.427-0.99109 7.0444-1.9845 14.092-2.9058 21.143-1.564 7.9819-4.2596 15.701-5.6097 23.73-1.477 6.6468-3.2138 13.232-4.9847 19.805-0.05686-1.9511 0.66235-4.7048 0.91717-6.952 1.3451-8.7133 3.2849-17.32 5.466-25.856 1.147-5.5739 2.7961-11.052 3.2948-16.739 1.5779-9.549 2.5426-19.224 5.2073-28.559z" fill="#afd38f"/>
 <path transform="translate(-119.69 -49.02)" d="m257.47 74.517c-1.0346 4.2646-3.6607 7.853-5.7694 11.607-2.315 4.6527-5.2097 9.0134-7.0611 13.893-2.6035 5.9726-5.8102 11.652-8.824 17.413-2.8478 6.4162-4.8101 13.197-7.9173 19.503-1.9261 4.643-3.6146 9.3863-5.7417 13.944 3.0902-9.6783 5.8496-19.498 9.758-28.885 3.8382-7.0519 7.0123-14.451 10.668-21.587 3.0708-6.6683 6.6104-13.123 10.279-19.488 1.4686-2.1818 3.2452-4.1451 4.6079-6.3999z" fill="#afd38f"/>
</svg>
