<?xml version="1.0" encoding="utf-8"?>
<!-- Generator: Moho 12.4 build 22203 -->
<!DOCTYPE svg PUBLIC "-//W3C//DTD SVG 1.1//EN" "http://www.w3.org/Graphics/SVG/1.1/DTD/svg11.dtd">
<svg version="1.1" id="Frame_0" xmlns="http://www.w3.org/2000/svg" xmlns:xlink="http://www.w3.org/1999/xlink" width="1280px" height="720px">
<g id="Layer_6">
<g id="Layer_6">
<path fill="#0e100f" fill-rule="evenodd" stroke="none" d="M 716.974 283.235 C 717.822 285.923 725.816 286.409 725.817 286.410 C 728.314 273.102 732.384 255.475 734.141 242.050 C 736.508 223.957 738.474 181.389 738.474 181.383 C 739.244 180.160 740.359 178.581 741.041 177.306 C 748.146 164.006 760.208 130.845 760.210 130.840 C 765.547 127.252 772.325 121.905 777.999 118.878 C 780.163 117.724 785.512 115.658 785.513 115.658 C 783.121 115.474 777.540 115.045 777.539 115.045 C 770.960 119.829 755.612 130.992 755.609 130.994 C 749.258 146.106 739.247 165.698 734.438 181.370 C 732.593 187.380 731.169 195.674 729.986 201.849 C 725.353 226.023 722.628 258.894 717.075 282.874 C 717.050 282.983 716.940 283.127 716.974 283.235 Z"/>
<path fill="none" stroke="#0e100f" stroke-width="1" stroke-linecap="round" stroke-linejoin="round" d="M 716.974 283.235 C 717.822 285.923 725.816 286.409 725.817 286.410 C 725.817 286.410 725.817 286.410 725.817 286.410 C 728.314 273.102 732.384 255.475 734.141 242.050 C 736.508 223.957 738.474 181.389 738.474 181.383 C 738.474 181.383 738.474 181.383 738.474 181.383 C 739.244 180.160 740.359 178.581 741.041 177.306 C 748.146 164.006 760.208 130.845 760.210 130.840 C 760.210 130.840 760.210 130.840 760.210 130.840 C 765.547 127.252 772.325 121.905 777.999 118.878 C 780.163 117.724 785.512 115.658 785.513 115.658 C 785.513 115.658 785.513 115.658 785.513 115.658 C 783.121 115.474 777.540 115.045 777.539 115.045 C 777.539 115.045 777.539 115.045 777.539 115.045 C 770.960 119.829 755.612 130.992 755.609 130.994 C 749.258 146.106 739.247 165.698 734.438 181.370 C 732.593 187.380 731.169 195.674 729.986 201.849 C 725.353 226.023 722.628 258.894 717.075 282.874 C 717.050 282.983 716.940 283.127 716.974 283.235 M 755.609 130.994 C 755.609 130.994 755.609 130.994 755.609 130.994 "/>
<path fill="#0e100f" fill-rule="evenodd" stroke="none" d="M 568.291 283.811 C 567.427 286.576 559.173 286.986 559.172 286.986 C 556.597 273.678 552.400 256.060 550.589 242.626 C 548.149 224.541 546.121 181.966 546.120 181.960 C 545.326 180.737 544.177 179.160 543.474 177.883 C 536.166 164.613 523.709 131.422 523.707 131.417 C 518.204 127.828 511.197 122.475 505.363 119.455 C 503.127 118.298 497.615 116.235 497.614 116.235 C 500.081 116.051 505.837 115.622 505.837 115.622 C 512.621 120.406 528.449 131.569 528.451 131.570 C 535.000 146.683 545.316 166.242 550.282 181.947 C 552.181 187.950 553.652 196.249 554.873 202.425 C 559.649 226.592 562.463 259.491 568.186 283.450 C 568.212 283.560 568.325 283.704 568.291 283.811 Z"/>
<path fill="none" stroke="#0e100f" stroke-width="1" stroke-linecap="round" stroke-linejoin="round" d="M 568.291 283.811 C 567.427 286.576 559.173 286.986 559.172 286.986 C 559.172 286.986 559.172 286.986 559.172 286.986 C 556.597 273.678 552.400 256.060 550.589 242.626 C 548.149 224.541 546.121 181.966 546.120 181.960 C 546.120 181.960 546.120 181.960 546.120 181.960 C 545.326 180.737 544.177 179.160 543.474 177.883 C 536.166 164.613 523.709 131.422 523.707 131.417 C 523.707 131.417 523.707 131.417 523.707 131.417 C 518.204 127.828 511.197 122.475 505.363 119.455 C 503.127 118.298 497.615 116.235 497.614 116.235 C 497.614 116.235 497.614 116.235 497.614 116.235 C 500.081 116.051 505.837 115.622 505.837 115.622 C 505.837 115.622 505.837 115.622 505.837 115.622 C 512.621 120.406 528.449 131.569 528.451 131.570 C 535.000 146.683 545.316 166.242 550.282 181.947 C 552.181 187.950 553.652 196.249 554.873 202.425 C 559.649 226.592 562.463 259.491 568.186 283.450 C 568.212 283.560 568.325 283.704 568.291 283.811 M 528.451 131.570 C 528.451 131.570 528.451 131.570 528.451 131.570 "/>
<path fill="#0e100f" fill-rule="evenodd" stroke="none" d="M 780.290 304.150 C 780.290 304.150 780.290 304.150 780.290 304.150 C 765.186 308.103 745.048 313.373 729.945 317.326 C 729.945 317.326 729.945 317.326 729.945 317.326 C 729.526 320.589 728.550 328.201 728.550 328.202 C 737.593 326.166 749.881 324.289 758.694 321.416 C 767.529 318.536 787.113 309.101 787.116 309.100 C 791.237 297.233 797.175 281.556 800.853 269.545 C 801.717 266.727 802.064 262.668 803.459 260.071 C 804.889 257.410 807.884 254.556 810.091 252.492 C 816.704 246.309 826.758 239.443 834.486 234.728 C 843.439 229.267 855.968 222.872 865.751 219.096 C 868.037 218.213 871.196 217.345 873.567 216.727 C 877.155 215.792 882.554 216.165 885.647 214.122 C 887.082 213.174 889.972 211.158 889.200 209.622 C 888.717 208.661 886.722 209.127 885.647 209.148 C 879.236 209.276 870.855 211.762 864.804 213.885 C 854.609 217.462 841.725 224.219 832.592 229.991 C 824.777 234.930 808.260 248.895 808.258 248.896 C 805.188 248.692 798.027 248.215 798.026 248.215 C 792.705 264.995 780.292 304.144 780.290 304.150 C 780.290 304.150 780.290 304.150 780.290 304.150 Z"/>
<path fill="none" stroke="#0e100f" stroke-width="1" stroke-linecap="round" stroke-linejoin="round" d="M 728.550 328.202 C 728.550 328.202 728.550 328.202 728.550 328.202 C 728.550 328.201 729.526 320.589 729.945 317.326 C 745.048 313.373 765.186 308.103 780.290 304.150 C 780.290 304.150 780.290 304.150 780.290 304.150 C 780.292 304.144 792.705 264.995 798.026 248.215 C 798.026 248.215 798.026 248.215 798.026 248.215 C 798.027 248.215 805.188 248.692 808.258 248.896 C 808.258 248.896 808.258 248.896 808.258 248.896 C 808.260 248.895 824.777 234.930 832.592 229.991 C 841.725 224.219 854.609 217.462 864.804 213.885 C 870.855 211.762 879.236 209.276 885.647 209.148 C 886.722 209.127 888.717 208.661 889.200 209.622 C 889.972 211.158 887.082 213.174 885.647 214.122 C 882.554 216.165 877.155 215.792 873.567 216.727 C 871.196 217.345 868.037 218.213 865.751 219.096 C 855.968 222.872 843.439 229.267 834.486 234.728 C 826.758 239.443 816.704 246.309 810.091 252.492 C 807.884 254.556 804.889 257.410 803.459 260.071 C 802.064 262.668 801.717 266.727 800.853 269.545 C 797.175 281.556 791.237 297.233 787.116 309.100 C 787.116 309.100 787.116 309.100 787.116 309.100 C 787.113 309.101 767.529 318.536 758.694 321.416 C 749.881 324.289 737.593 326.166 728.550 328.202 M 729.945 317.326 C 729.945 317.326 729.945 317.326 729.945 317.326 M 780.290 304.150 C 780.290 304.150 780.290 304.150 780.290 304.150 "/>
<path fill="#0e100f" fill-rule="evenodd" stroke="none" d="M 502.566 303.913 C 502.566 303.913 502.566 303.913 502.566 303.913 C 517.368 307.866 537.105 313.137 551.907 317.090 C 551.907 317.090 551.907 317.090 551.907 317.090 C 552.317 320.353 553.274 327.965 553.274 327.966 C 544.411 325.930 532.361 324.049 523.732 321.180 C 515.061 318.297 495.879 308.865 495.876 308.863 C 491.837 296.997 486.017 281.315 482.413 269.309 C 481.566 266.490 481.233 262.438 479.859 259.835 C 478.461 257.186 475.527 254.323 473.359 252.256 C 466.892 246.090 457.037 239.212 449.450 234.492 C 440.688 229.040 428.411 222.640 418.809 218.859 C 416.571 217.978 413.473 217.109 411.148 216.491 C 407.634 215.556 402.330 215.911 399.310 213.886 C 397.892 212.935 395.054 210.907 395.828 209.385 C 396.306 208.446 398.256 208.891 399.310 208.912 C 405.599 209.039 413.814 211.530 419.737 213.649 C 429.748 217.230 442.370 223.995 451.307 229.755 C 458.981 234.701 475.154 248.658 475.156 248.660 C 478.164 248.456 485.183 247.979 485.184 247.978 C 490.398 264.759 502.564 303.908 502.566 303.913 C 502.566 303.913 502.566 303.913 502.566 303.913 Z"/>
<path fill="none" stroke="#0e100f" stroke-width="1" stroke-linecap="round" stroke-linejoin="round" d="M 553.274 327.966 C 553.274 327.966 553.274 327.966 553.274 327.966 C 553.274 327.965 552.317 320.353 551.907 317.090 C 537.105 313.137 517.368 307.866 502.566 303.913 C 502.566 303.913 502.566 303.913 502.566 303.913 C 502.564 303.908 490.398 264.759 485.184 247.978 C 485.184 247.978 485.184 247.978 485.184 247.978 C 485.183 247.979 478.164 248.456 475.156 248.660 C 475.156 248.660 475.156 248.660 475.156 248.660 C 475.154 248.658 458.981 234.701 451.307 229.755 C 442.370 223.995 429.748 217.230 419.737 213.649 C 413.814 211.530 405.599 209.039 399.310 208.912 C 398.256 208.891 396.306 208.446 395.828 209.385 C 395.054 210.907 397.892 212.935 399.310 213.886 C 402.330 215.911 407.634 215.556 411.148 216.491 C 413.473 217.109 416.571 217.978 418.809 218.859 C 428.411 222.640 440.688 229.040 449.450 234.492 C 457.037 239.212 466.892 246.090 473.359 252.256 C 475.527 254.323 478.461 257.186 479.859 259.835 C 481.233 262.438 481.566 266.490 482.413 269.309 C 486.017 281.315 491.837 296.997 495.876 308.863 C 495.876 308.863 495.876 308.863 495.876 308.863 C 495.879 308.865 515.061 318.297 523.732 321.180 C 532.361 324.049 544.411 325.930 553.274 327.966 M 551.907 317.090 C 551.907 317.090 551.907 317.090 551.907 317.090 M 502.566 303.913 C 502.566 303.913 502.566 303.913 502.566 303.913 "/>
<path fill="#0e100f" fill-rule="evenodd" stroke="none" d="M 765.458 499.106 C 765.926 506.084 765.866 515.418 766.041 522.409 C 766.043 522.412 782.780 540.686 789.655 548.779 C 795.302 555.427 804.003 563.609 807.914 571.405 C 809.858 575.279 811.307 581.001 811.884 585.297 C 812.264 588.130 811.884 591.966 811.884 594.824 C 811.883 594.823 807.632 585.555 805.533 581.725 C 802.706 576.567 798.626 569.844 795.213 565.054 C 788.931 556.237 779.193 545.524 772.190 537.268 C 767.603 531.861 761.354 524.765 756.710 519.406 C 756.710 519.401 756.782 484.348 755.519 469.392 C 754.668 459.320 753.620 445.739 750.811 436.028 C 749.273 430.709 746.318 423.847 743.500 419.080 C 736.361 407.002 722.796 393.723 713.922 382.855 C 715.518 375.079 717.645 364.710 719.240 356.934 C 722.444 360.262 727.220 364.280 729.922 368.028 C 738.881 380.456 746.947 399.608 752.059 414.051 C 754.704 421.524 757.001 431.894 758.467 439.684 C 761.787 457.324 764.257 481.197 765.458 499.106 M 719.240 356.934 C 719.240 356.934 719.240 356.934 719.240 356.934 C 719.240 356.934 719.240 356.934 719.240 356.934 M 713.922 382.855 C 713.922 382.855 713.922 382.855 713.922 382.855 C 713.922 382.855 713.922 382.855 713.922 382.855 Z"/>
<path fill="none" stroke="#0e100f" stroke-width="1" stroke-linecap="round" stroke-linejoin="round" d="M 766.041 522.409 C 766.041 522.409 766.041 522.409 766.041 522.409 C 765.866 515.418 765.926 506.084 765.458 499.106 C 764.257 481.197 761.787 457.324 758.467 439.684 C 757.001 431.894 754.704 421.524 752.059 414.051 C 746.947 399.608 738.881 380.456 729.922 368.028 C 727.220 364.280 722.444 360.262 719.240 356.934 C 719.240 356.934 719.240 356.934 719.240 356.934 C 719.240 356.934 719.240 356.934 719.240 356.934 C 717.645 364.710 715.518 375.079 713.922 382.855 C 713.922 382.855 713.922 382.855 713.922 382.855 C 713.922 382.855 713.922 382.855 713.922 382.855 C 722.796 393.723 736.361 407.002 743.500 419.080 C 746.318 423.847 749.273 430.709 750.811 436.028 C 753.620 445.739 754.668 459.320 755.519 469.392 C 756.782 484.348 756.710 519.401 756.710 519.406 C 756.710 519.406 756.710 519.406 756.710 519.406 C 761.354 524.765 767.603 531.861 772.190 537.268 C 779.193 545.524 788.931 556.237 795.213 565.054 C 798.626 569.844 802.706 576.567 805.533 581.725 C 807.632 585.555 811.883 594.823 811.884 594.824 C 811.884 594.824 811.884 594.824 811.884 594.824 C 811.884 591.966 812.264 588.130 811.884 585.297 C 811.307 581.001 809.858 575.279 807.914 571.405 C 804.003 563.609 795.302 555.427 789.655 548.779 C 782.780 540.686 766.043 522.412 766.041 522.409 "/>
<path fill="#0e100f" fill-rule="evenodd" stroke="none" d="M 519.233 498.295 C 518.778 505.273 518.837 514.607 518.667 521.598 C 518.665 521.600 502.399 539.880 495.725 547.968 C 490.234 554.620 481.772 562.844 477.985 570.593 C 476.085 574.479 474.688 580.197 474.128 584.486 C 473.758 587.320 474.128 591.155 474.128 594.013 C 474.129 594.011 478.257 584.748 480.299 580.914 C 483.042 575.762 487.003 569.041 490.325 564.242 C 496.417 555.445 505.887 544.715 512.693 536.457 C 517.148 531.051 523.221 523.953 527.733 518.595 C 527.733 518.590 527.662 483.539 528.890 468.581 C 529.716 458.512 530.728 444.942 533.464 435.217 C 534.957 429.910 537.819 423.047 540.567 418.268 C 547.482 406.243 560.683 392.911 569.304 382.044 C 567.754 374.267 565.688 363.899 564.138 356.122 C 561.024 359.450 556.377 363.486 553.760 367.217 C 545.008 379.693 537.211 398.829 532.252 413.240 C 529.677 420.723 527.449 431.088 526.025 438.873 C 522.798 456.523 520.401 480.390 519.233 498.295 M 564.138 356.122 C 564.138 356.122 564.138 356.122 564.138 356.122 C 564.138 356.122 564.138 356.122 564.138 356.122 M 569.304 382.044 C 569.304 382.044 569.304 382.044 569.304 382.044 C 569.304 382.044 569.304 382.044 569.304 382.044 Z"/>
<path fill="none" stroke="#0e100f" stroke-width="1" stroke-linecap="round" stroke-linejoin="round" d="M 518.667 521.598 C 518.667 521.598 518.667 521.598 518.667 521.598 C 518.837 514.607 518.778 505.273 519.233 498.295 C 520.401 480.390 522.798 456.523 526.025 438.873 C 527.449 431.088 529.677 420.723 532.252 413.240 C 537.211 398.829 545.008 379.693 553.760 367.217 C 556.377 363.486 561.024 359.450 564.138 356.122 C 564.138 356.122 564.138 356.122 564.138 356.122 C 564.138 356.122 564.138 356.122 564.138 356.122 C 565.688 363.899 567.754 374.267 569.304 382.044 C 569.304 382.044 569.304 382.044 569.304 382.044 C 569.304 382.044 569.304 382.044 569.304 382.044 C 560.683 392.911 547.482 406.243 540.567 418.268 C 537.819 423.047 534.957 429.910 533.464 435.217 C 530.728 444.942 529.716 458.512 528.890 468.581 C 527.662 483.539 527.733 518.590 527.733 518.595 C 527.733 518.595 527.733 518.595 527.733 518.595 C 523.221 523.953 517.148 531.051 512.693 536.457 C 505.887 544.715 496.417 555.445 490.325 564.242 C 487.003 569.041 483.042 575.762 480.299 580.914 C 478.257 584.748 474.129 594.011 474.128 594.013 C 474.128 594.013 474.128 594.013 474.128 594.013 C 474.128 591.155 473.758 587.320 474.128 584.486 C 474.688 580.197 476.085 574.479 477.985 570.593 C 481.772 562.844 490.234 554.620 495.725 547.968 C 502.399 539.880 518.665 521.600 518.667 521.598 "/>
</g>
<g id="Layer_5">
<path fill="#20211b" fill-rule="evenodd" stroke="none" d="M 658.085 165.676 C 660.796 172.560 669.704 178.442 674.684 183.913 C 674.688 183.917 701.345 211.996 712.771 224.032 C 712.772 224.033 720.814 235.081 723.943 240.028 C 726.151 243.517 729.418 248.071 730.799 251.962 C 731.499 253.933 732.650 256.808 732.069 258.818 C 731.738 259.961 730.570 261.286 729.530 261.864 C 726.947 263.300 719.309 259.581 719.703 262.509 C 719.697 262.509 680.049 259.171 663.008 258.836 C 633.152 258.249 593.372 261.347 563.514 261.879 C 560.791 261.928 557.057 262.694 554.434 261.958 C 553.465 261.686 552.053 261.170 551.501 260.329 C 549.855 257.822 550.572 253.105 551.718 250.334 C 552.855 247.587 556.608 245.406 558.562 243.165 C 562.649 238.477 567.363 231.623 571.353 226.853 C 582.386 213.667 597.699 196.566 609.783 184.335 C 614.015 180.051 621.227 175.698 624.404 170.582 C 625.365 169.035 626.662 166.682 626.465 164.872 C 626.199 162.418 623.152 160.158 621.866 158.052 C 620.423 155.689 618.038 152.662 617.425 149.962 C 616.834 147.360 616.793 143.508 617.901 141.080 C 618.626 139.489 620.255 137.277 621.963 136.900 C 623.614 136.535 625.769 138.049 627.237 138.889 C 631.068 141.081 635.069 145.577 638.390 148.485 C 639.564 149.514 641.113 150.906 642.280 151.943 C 645.823 149.001 649.971 144.504 653.653 141.832 C 655.169 140.732 657.174 138.878 659.034 138.667 C 660.914 138.453 663.923 139.044 665.048 140.566 C 667.376 143.713 664.972 149.848 663.677 153.543 C 662.575 156.684 658.368 159.659 657.768 162.933 C 657.619 163.748 657.781 164.906 658.085 165.676 M 642.466 152.074 C 642.466 152.074 642.466 152.074 642.466 152.074 C 642.280 151.943 642.411 152.035 642.466 152.074 Z"/>
<path fill="none" stroke="#20211b" stroke-width="1" stroke-linecap="round" stroke-linejoin="round" d="M 674.684 183.913 C 674.684 183.913 674.684 183.913 674.684 183.913 C 669.704 178.442 660.796 172.560 658.085 165.676 C 657.781 164.906 657.619 163.748 657.768 162.933 C 658.368 159.659 662.575 156.684 663.677 153.543 C 664.972 149.848 667.376 143.713 665.048 140.566 C 663.923 139.044 660.914 138.453 659.034 138.667 C 657.174 138.878 655.169 140.732 653.653 141.832 C 649.971 144.504 645.823 149.001 642.466 152.074 C 642.280 151.943 642.280 151.943 642.280 151.943 C 642.466 152.074 642.466 152.074 642.466 152.074 C 642.280 151.943 642.411 152.035 642.466 152.074 C 641.113 150.906 639.564 149.514 638.390 148.485 C 635.069 145.577 631.068 141.081 627.237 138.889 C 625.769 138.049 623.614 136.535 621.963 136.900 C 620.255 137.277 618.626 139.489 617.901 141.080 C 616.793 143.508 616.834 147.360 617.425 149.962 C 618.038 152.662 620.423 155.689 621.866 158.052 C 623.152 160.158 626.199 162.418 626.465 164.872 C 626.662 166.682 625.365 169.035 624.404 170.582 C 621.227 175.698 614.015 180.051 609.783 184.335 C 597.699 196.566 582.386 213.667 571.353 226.853 C 567.363 231.623 562.649 238.477 558.562 243.165 C 556.608 245.406 552.855 247.587 551.718 250.334 C 550.572 253.105 549.855 257.822 551.501 260.329 C 552.053 261.170 553.465 261.686 554.434 261.958 C 557.057 262.694 560.791 261.928 563.514 261.879 C 593.372 261.347 633.152 258.249 663.008 258.836 C 680.049 259.171 719.697 262.509 719.703 262.509 C 719.721 262.648 720.065 262.800 720.065 262.800 M 712.771 224.032 C 712.771 224.032 712.771 224.032 712.771 224.032 C 712.772 224.033 720.814 235.081 723.943 240.028 C 726.151 243.517 729.418 248.071 730.799 251.962 C 731.499 253.933 732.650 256.808 732.069 258.818 C 731.738 259.961 730.570 261.286 729.530 261.864 C 726.947 263.300 719.309 259.581 719.703 262.509 M 674.684 183.913 C 674.688 183.917 701.345 211.996 712.771 224.032 "/>
<path fill="#80401c" fill-rule="evenodd" stroke="#80401c" stroke-width="1" stroke-linecap="round" stroke-linejoin="round" d="M 655.444 211.659 C 655.444 211.659 655.444 211.659 655.444 211.659 C 656.048 214.546 655.848 218.810 657.458 221.280 C 658.901 223.495 662.224 225.267 664.575 226.474 C 670.731 229.635 679.970 231.386 686.696 233.014 C 695.881 235.237 708.806 235.493 717.665 238.785 C 719.625 239.513 721.729 242.016 723.820 242.055 C 724.752 242.072 726.001 241.511 726.705 240.900 C 730.787 237.362 733.084 229.710 733.823 224.358 C 734.586 218.825 732.902 211.269 731.335 205.908 C 729.911 201.039 726.963 194.841 724.255 190.551 C 721.345 185.941 716.758 180.135 712.601 176.610 C 707.383 172.184 699.072 168.054 692.857 165.192 C 690.377 164.051 686.997 162.576 684.320 162.043 C 677.978 160.780 668.959 159.927 662.769 161.794 C 660.417 162.503 657.870 164.770 655.771 166.046 C 655.771 166.046 655.771 166.046 655.771 166.046 C 654.843 167.248 653.253 168.647 652.679 170.053 C 651.512 172.910 651.855 177.223 651.880 180.310 C 651.917 184.891 652.904 190.952 653.419 195.505 C 653.969 200.358 655.444 211.658 655.444 211.659 C 655.444 211.659 655.444 211.659 655.444 211.659 Z"/>
<path fill="#a04d2d" fill-rule="evenodd" stroke="#a04d2d" stroke-width="1" stroke-linecap="round" stroke-linejoin="round" d="M 680.843 167.435 C 687.917 168.798 696.571 173.717 702.492 177.820 C 706.039 180.278 710.255 184.309 713.024 187.620 C 716.326 191.571 720.496 197.256 722.239 202.101 C 723.259 204.939 724.408 209.115 723.701 212.048 C 722.914 215.316 720.071 219.508 717.119 221.116 C 710.025 224.982 698.014 222.310 690.205 220.239 C 683.318 218.412 674.104 214.381 669.142 209.268 C 665.110 205.114 661.792 197.654 660.512 192.008 C 659.445 187.300 658.824 180.384 660.658 175.918 C 661.708 173.360 664.477 170.543 666.801 169.043 C 667.781 168.411 669.361 168.122 670.458 167.727 C 670.458 167.727 670.458 167.727 670.458 167.727 C 670.370 167.683 677.783 166.845 680.843 167.435 Z"/>
<path fill="none" stroke="#7d3d19" stroke-width="1" stroke-linecap="round" stroke-linejoin="round" d="M 661.389 172.993 C 661.390 172.994 663.719 180.816 664.315 184.256 C 665.599 191.671 666.216 209.266 666.216 209.268 "/>
<path fill="none" stroke="#7d3d19" stroke-width="1" stroke-linecap="round" stroke-linejoin="round" d="M 665.485 167.581 C 665.486 167.582 668.725 177.822 669.434 182.354 C 670.799 191.074 670.458 211.752 670.458 211.755 "/>
<path fill="none" stroke="#7d3d19" stroke-width="1" stroke-linecap="round" stroke-linejoin="round" d="M 670.605 166.264 C 670.605 166.266 673.858 181.266 674.847 187.766 C 675.902 194.704 677.158 204.009 677.333 211.024 C 677.387 213.175 677.040 218.190 677.040 218.191 "/>
<path fill="none" stroke="#7d3d19" stroke-width="1" stroke-linecap="round" stroke-linejoin="round" d="M 674.700 164.509 C 674.701 164.511 678.581 177.748 679.820 183.524 C 681.283 190.345 682.953 199.533 683.477 206.489 C 683.796 210.734 683.477 220.676 683.477 220.677 "/>
<path fill="none" stroke="#7d3d19" stroke-width="1" stroke-linecap="round" stroke-linejoin="round" d="M 680.551 165.679 C 680.552 165.681 683.887 179.056 685.085 184.841 C 686.306 190.733 687.947 198.606 688.596 204.588 C 689.156 209.740 689.327 221.846 689.327 221.848 "/>
<path fill="none" stroke="#7d3d19" stroke-width="1" stroke-linecap="round" stroke-linejoin="round" d="M 685.524 168.020 C 685.525 168.022 690.121 184.125 691.668 191.130 C 692.850 196.485 694.267 203.674 694.886 209.122 C 695.357 213.270 695.617 223.016 695.617 223.018 "/>
<path fill="none" stroke="#7d3d19" stroke-width="1" stroke-linecap="round" stroke-linejoin="round" d="M 690.498 168.605 C 690.498 168.607 695.503 182.103 697.080 188.059 C 698.612 193.849 700.032 201.730 700.883 207.660 C 701.534 212.198 702.345 222.870 702.346 222.872 "/>
<path fill="none" stroke="#7d3d19" stroke-width="1" stroke-linecap="round" stroke-linejoin="round" d="M 696.495 172.115 C 696.495 172.117 700.935 185.767 702.492 191.716 C 703.731 196.454 705.168 202.833 706.002 207.660 C 706.838 212.497 708.050 223.894 708.050 223.896 "/>
<path fill="none" stroke="#7d3d19" stroke-width="1" stroke-linecap="round" stroke-linejoin="round" d="M 703.808 177.235 C 703.809 177.237 708.205 190.667 709.659 196.543 C 711.044 202.140 712.341 209.729 713.316 215.412 C 713.759 217.993 714.632 224.041 714.632 224.042 "/>
<path fill="none" stroke="#7d3d19" stroke-width="1" stroke-linecap="round" stroke-linejoin="round" d="M 712.877 184.841 C 712.878 184.842 715.482 195.047 716.388 199.468 C 717.334 204.090 718.405 210.295 719.021 214.973 C 719.251 216.722 719.606 220.823 719.606 220.824 "/>
<path fill="none" stroke="#7d3d19" stroke-width="1" stroke-linecap="round" stroke-linejoin="round" d="M 719.167 192.593 C 719.167 192.594 720.802 198.182 721.215 200.638 C 721.893 204.674 722.032 210.154 722.239 214.242 C 722.312 215.689 722.385 219.068 722.385 219.069 "/>
<path fill="none" stroke="#7d3d19" stroke-width="1" stroke-linecap="round" stroke-linejoin="round" d="M 685.963 167.435 C 685.965 167.436 700.091 179.314 706.149 184.402 C 710.799 188.309 721.652 197.419 721.653 197.420 "/>
<path fill="none" stroke="#7d3d19" stroke-width="1" stroke-linecap="round" stroke-linejoin="round" d="M 668.557 165.972 C 668.559 165.973 686.899 175.581 694.301 180.453 C 700.840 184.757 709.017 191.287 715.071 196.250 C 718.318 198.911 725.602 205.464 725.603 205.465 "/>
<path fill="none" stroke="#7d3d19" stroke-width="1" stroke-linecap="round" stroke-linejoin="round" d="M 662.121 170.360 C 662.123 170.361 678.207 177.196 684.793 180.745 C 693.056 185.198 703.713 191.850 711.268 197.420 C 716.080 200.968 726.479 210.291 726.481 210.292 "/>
<path fill="none" stroke="#7d3d19" stroke-width="1" stroke-linecap="round" stroke-linejoin="round" d="M 659.488 175.333 C 659.491 175.335 680.739 183.919 689.327 188.644 C 698.753 193.830 710.768 201.813 719.167 208.537 C 721.543 210.439 726.626 215.411 726.627 215.412 "/>
<path fill="none" stroke="#7d3d19" stroke-width="1" stroke-linecap="round" stroke-linejoin="round" d="M 658.464 181.623 C 658.466 181.624 672.454 186.115 678.211 188.644 C 686.965 192.489 698.256 198.535 706.295 203.710 C 712.354 207.610 725.455 218.190 725.456 218.191 "/>
<path fill="none" stroke="#7d3d19" stroke-width="1" stroke-linecap="round" stroke-linejoin="round" d="M 658.610 189.229 C 658.612 189.230 672.898 192.852 678.796 195.080 C 686.893 198.139 697.469 202.962 704.832 207.513 C 710.103 210.771 721.213 220.091 721.215 220.092 "/>
<path fill="none" stroke="#7d3d19" stroke-width="1" stroke-linecap="round" stroke-linejoin="round" d="M 657.294 194.787 C 657.296 194.788 674.609 198.491 681.721 201.077 C 688.528 203.552 697.283 207.773 703.516 211.463 C 708.200 214.235 718.288 221.993 718.289 221.994 "/>
<path fill="none" stroke="#7d3d19" stroke-width="1" stroke-linecap="round" stroke-linejoin="round" d="M 660.073 200.785 C 660.075 200.785 677.596 205.604 684.793 208.537 C 690.663 210.929 698.106 214.993 703.662 218.045 C 706.835 219.788 714.046 224.188 714.047 224.188 "/>
<path fill="none" stroke="#7d3d19" stroke-width="1" stroke-linecap="round" stroke-linejoin="round" d="M 662.413 207.513 C 662.416 207.514 678.711 211.738 685.524 214.095 C 688.427 215.100 692.316 216.464 695.032 217.898 C 698.218 219.581 704.978 224.626 704.979 224.627 "/>
<path fill="#80401c" fill-rule="evenodd" stroke="#80401c" stroke-width="1" stroke-linecap="round" stroke-linejoin="round" d="M 628.848 210.455 C 628.848 210.455 628.848 210.455 628.848 210.455 C 628.253 213.341 628.461 217.599 626.864 220.076 C 625.445 222.275 622.173 224.060 619.852 225.269 C 613.797 228.422 604.687 230.181 598.058 231.809 C 589.011 234.031 576.264 234.294 567.547 237.580 C 565.613 238.309 563.549 240.812 561.483 240.850 C 560.562 240.867 559.332 240.302 558.640 239.696 C 554.585 236.144 552.355 228.494 551.628 223.153 C 550.874 217.621 552.532 210.068 554.079 204.703 C 555.481 199.841 558.380 193.642 561.054 189.346 C 563.917 184.746 568.428 178.937 572.536 175.405 C 577.666 170.993 585.857 166.852 591.988 163.988 C 594.429 162.847 597.758 161.371 600.399 160.838 C 606.643 159.577 615.539 158.729 621.631 160.589 C 623.956 161.299 626.458 163.565 628.526 164.841 C 628.526 164.841 628.526 164.841 628.526 164.841 C 629.440 166.043 631.007 167.448 631.572 168.848 C 632.727 171.710 632.384 176.019 632.359 179.105 C 632.323 183.686 631.351 189.747 630.843 194.300 C 630.302 199.153 628.849 210.453 628.848 210.455 C 628.848 210.455 628.848 210.455 628.848 210.455 Z"/>
<path fill="#a04d2d" fill-rule="evenodd" stroke="#a04d2d" stroke-width="1" stroke-linecap="round" stroke-linejoin="round" d="M 603.824 166.230 C 596.839 167.593 588.318 172.523 582.495 176.615 C 578.992 179.077 574.843 183.111 572.120 186.415 C 568.859 190.372 564.755 196.064 563.040 200.896 C 562.032 203.738 560.899 207.910 561.599 210.843 C 562.376 214.096 565.153 218.302 568.084 219.911 C 575.061 223.742 586.914 221.099 594.601 219.034 C 601.402 217.206 610.478 213.145 615.353 208.063 C 619.349 203.898 622.595 196.436 623.855 190.803 C 624.910 186.093 625.528 179.186 623.711 174.713 C 622.677 172.168 619.959 169.341 617.659 167.838 C 616.695 167.209 615.137 166.917 614.056 166.522 C 614.056 166.522 614.056 166.522 614.056 166.522 C 614.142 166.479 606.838 165.641 603.824 166.230 Z"/>
<path fill="none" stroke="#7d3d19" stroke-width="1" stroke-linecap="round" stroke-linejoin="round" d="M 622.991 171.788 C 622.991 171.789 620.696 179.613 620.109 183.051 C 618.842 190.468 618.235 208.061 618.235 208.063 "/>
<path fill="none" stroke="#7d3d19" stroke-width="1" stroke-linecap="round" stroke-linejoin="round" d="M 618.956 166.376 C 618.955 166.377 615.763 176.620 615.065 181.149 C 613.720 189.872 614.056 210.547 614.056 210.550 "/>
<path fill="none" stroke="#7d3d19" stroke-width="1" stroke-linecap="round" stroke-linejoin="round" d="M 613.912 165.059 C 613.911 165.061 610.706 180.063 609.732 186.561 C 608.693 193.500 607.456 202.805 607.283 209.819 C 607.229 211.970 607.571 216.985 607.571 216.986 "/>
<path fill="none" stroke="#7d3d19" stroke-width="1" stroke-linecap="round" stroke-linejoin="round" d="M 609.877 163.304 C 609.876 163.306 606.053 176.545 604.833 182.319 C 603.390 189.142 601.746 198.330 601.230 205.284 C 600.915 209.529 601.230 219.471 601.230 219.473 "/>
<path fill="none" stroke="#7d3d19" stroke-width="1" stroke-linecap="round" stroke-linejoin="round" d="M 604.112 164.474 C 604.112 164.476 600.825 177.853 599.645 183.636 C 598.442 189.529 596.826 197.403 596.186 203.383 C 595.635 208.536 595.466 220.641 595.466 220.643 "/>
<path fill="none" stroke="#7d3d19" stroke-width="1" stroke-linecap="round" stroke-linejoin="round" d="M 599.212 166.815 C 599.212 166.817 594.683 182.922 593.160 189.926 C 591.995 195.281 590.599 202.471 589.989 207.917 C 589.525 212.066 589.269 221.812 589.268 221.813 "/>
<path fill="none" stroke="#7d3d19" stroke-width="1" stroke-linecap="round" stroke-linejoin="round" d="M 594.312 167.400 C 594.312 167.402 589.380 180.901 587.827 186.854 C 586.316 192.647 584.918 200.527 584.081 206.455 C 583.439 210.994 582.640 221.665 582.639 221.667 "/>
<path fill="none" stroke="#7d3d19" stroke-width="1" stroke-linecap="round" stroke-linejoin="round" d="M 588.404 170.910 C 588.403 170.912 584.029 184.564 582.495 190.511 C 581.274 195.250 579.858 201.630 579.037 206.455 C 578.213 211.293 577.020 222.689 577.019 222.691 "/>
<path fill="none" stroke="#7d3d19" stroke-width="1" stroke-linecap="round" stroke-linejoin="round" d="M 581.199 176.030 C 581.198 176.032 576.866 189.465 575.434 195.338 C 574.069 200.937 572.792 208.524 571.831 214.207 C 571.395 216.788 570.535 222.836 570.534 222.837 "/>
<path fill="none" stroke="#7d3d19" stroke-width="1" stroke-linecap="round" stroke-linejoin="round" d="M 572.264 183.636 C 572.263 183.637 569.697 193.843 568.805 198.263 C 567.872 202.886 566.817 209.091 566.211 213.768 C 565.984 215.517 565.635 219.618 565.634 219.619 "/>
<path fill="none" stroke="#7d3d19" stroke-width="1" stroke-linecap="round" stroke-linejoin="round" d="M 566.067 191.388 C 566.067 191.389 564.456 196.979 564.049 199.434 C 563.381 203.471 563.244 208.950 563.040 213.037 C 562.968 214.484 562.896 217.863 562.896 217.864 "/>
<path fill="none" stroke="#7d3d19" stroke-width="1" stroke-linecap="round" stroke-linejoin="round" d="M 598.780 166.230 C 598.778 166.231 584.861 178.109 578.893 183.197 C 574.311 187.104 563.619 196.214 563.617 196.215 "/>
<path fill="none" stroke="#7d3d19" stroke-width="1" stroke-linecap="round" stroke-linejoin="round" d="M 615.929 164.767 C 615.927 164.768 597.851 174.381 590.566 179.248 C 584.117 183.556 576.064 190.085 570.102 195.045 C 566.901 197.708 559.727 204.259 559.726 204.260 "/>
<path fill="none" stroke="#7d3d19" stroke-width="1" stroke-linecap="round" stroke-linejoin="round" d="M 622.270 169.155 C 622.268 169.156 606.417 175.994 599.933 179.540 C 591.784 183.997 581.286 190.652 573.849 196.215 C 569.103 199.766 558.863 209.086 558.861 209.087 "/>
<path fill="none" stroke="#7d3d19" stroke-width="1" stroke-linecap="round" stroke-linejoin="round" d="M 624.864 174.128 C 624.861 174.130 603.919 182.719 595.466 187.439 C 586.168 192.630 574.332 200.618 566.067 207.332 C 563.724 209.236 558.718 214.206 558.717 214.207 "/>
<path fill="none" stroke="#7d3d19" stroke-width="1" stroke-linecap="round" stroke-linejoin="round" d="M 625.873 180.418 C 625.871 180.419 612.085 184.913 606.418 187.439 C 597.785 191.287 586.661 197.336 578.749 202.505 C 572.773 206.409 559.872 216.985 559.870 216.986 "/>
<path fill="none" stroke="#7d3d19" stroke-width="1" stroke-linecap="round" stroke-linejoin="round" d="M 625.729 188.024 C 625.727 188.025 611.648 191.649 605.841 193.875 C 597.856 196.937 587.435 201.764 580.190 206.308 C 574.989 209.570 564.051 218.886 564.049 218.888 "/>
<path fill="none" stroke="#7d3d19" stroke-width="1" stroke-linecap="round" stroke-linejoin="round" d="M 627.026 193.582 C 627.024 193.583 609.961 197.289 602.959 199.872 C 596.246 202.349 587.621 206.573 581.486 210.258 C 576.866 213.033 566.933 220.788 566.932 220.789 "/>
<path fill="none" stroke="#7d3d19" stroke-width="1" stroke-linecap="round" stroke-linejoin="round" d="M 624.288 199.580 C 624.285 199.580 607.019 204.402 599.933 207.332 C 594.144 209.726 586.814 213.790 581.343 216.840 C 578.216 218.583 571.112 222.983 571.111 222.983 "/>
<path fill="none" stroke="#7d3d19" stroke-width="1" stroke-linecap="round" stroke-linejoin="round" d="M 621.982 206.308 C 621.980 206.309 605.921 210.534 599.212 212.890 C 596.351 213.895 592.518 215.261 589.845 216.693 C 586.702 218.378 580.046 223.421 580.045 223.422 "/>
</g>
<g id="Layer_5">
<path fill="#0c3120" fill-rule="evenodd" stroke="#0c3120" stroke-width="1" stroke-linecap="round" stroke-linejoin="round" d="M 668.538 243.220 C 681.060 245.210 698.025 248.212 709.514 253.574 C 714.514 255.907 721.411 259.509 724.715 263.928 C 731.071 272.428 732.833 287.523 733.968 298.075 C 735.372 311.119 733.216 328.730 731.474 341.733 C 730.558 348.564 726.995 357.356 726.900 364.248 C 726.787 372.507 730.722 383.151 731.825 391.337 C 733.693 405.192 736.069 423.801 735.695 437.776 C 735.289 452.960 732.960 473.340 728.709 487.922 C 724.770 501.436 717.016 518.869 709.293 530.637 C 703.205 539.913 693.531 551.546 684.692 558.253 C 679.791 561.973 672.407 566.059 666.465 567.660 C 652.584 571.402 632.250 572.597 618.547 568.249 C 605.716 564.177 591.102 552.086 582.093 542.084 C 571.732 530.583 563.001 511.292 556.810 497.105 C 554.300 491.352 551.332 483.443 550.098 477.289 C 546.566 459.681 546.733 435.416 547.605 417.479 C 548.111 407.086 549.583 393.185 552.091 383.088 C 553.463 377.563 556.578 370.587 558.501 365.229 C 558.501 365.229 558.501 365.229 558.501 365.229 C 556.758 358.319 553.918 349.215 552.692 342.194 C 551.042 332.740 549.610 319.943 549.688 310.346 C 549.752 302.381 551.038 291.774 552.510 283.946 C 553.468 278.852 554.171 271.629 556.932 267.241 C 559.488 263.178 564.942 259.274 569.054 256.797 C 576.044 252.587 586.718 249.602 594.563 247.357 C 603.255 244.870 615.099 242.281 624.089 241.331 C 628.444 240.871 634.306 241.110 638.685 241.015 C 638.685 241.015 638.685 241.015 638.685 241.015 C 638.652 241.015 659.669 241.810 668.538 243.220 Z"/>
<path fill="#295d2d" fill-rule="evenodd" stroke="none" d="M 706.183 292.356 C 702.693 293.304 697.745 292.495 694.129 292.554 C 694.129 292.555 700.674 297.812 702.824 300.656 C 704.439 302.793 705.728 306.189 706.973 308.561 C 706.974 308.561 708.678 314.175 708.752 316.663 C 708.944 323.124 707.187 331.882 704.602 337.807 C 702.384 342.890 697.844 349.003 693.826 352.826 C 690.190 356.285 684.008 359.207 679.801 361.942 C 679.801 361.943 682.695 370.035 683.049 373.668 C 683.468 377.975 683.479 384.027 681.865 388.042 C 679.396 394.183 672.832 400.871 667.492 404.782 C 663.348 407.817 656.860 410.686 651.820 411.676 C 644.467 413.120 633.942 413.043 626.867 410.575 C 620.275 408.276 612.481 402.324 607.968 396.998 C 605.199 393.729 602.746 388.392 601.363 384.337 C 600.296 381.211 599.202 376.812 599.345 373.512 C 599.448 371.124 600.467 368.021 601.363 365.806 C 601.880 364.527 602.904 362.980 603.565 361.769 C 598.996 358.962 592.100 356.230 588.336 352.412 C 584.472 348.492 580.868 341.801 578.978 336.632 C 577.710 333.164 577.118 328.199 576.776 324.523 C 576.362 320.060 575.739 313.950 576.749 309.583 C 577.547 306.129 579.655 301.710 581.842 298.920 C 583.596 296.683 586.932 294.666 589.113 292.843 C 586.266 292.732 582.367 293.239 579.622 292.473 C 576.183 291.513 571.549 289.348 569.272 286.599 C 567.925 284.972 566.799 282.136 566.754 280.025 C 566.662 275.693 569.259 269.894 572.069 266.597 C 577.050 260.753 587.372 257.053 594.588 254.429 C 601.634 251.866 611.613 250.215 619.065 249.393 C 630.960 248.081 647.014 248.261 658.953 249.079 C 668.213 249.714 680.709 250.708 689.584 253.426 C 696.176 255.445 705.396 258.495 710.333 263.307 C 713.335 266.233 716.216 271.451 717.052 275.559 C 717.728 278.883 717.905 283.974 716.064 286.823 C 714.219 289.676 709.462 291.467 706.183 292.356 M 589.113 292.843 C 589.113 292.843 589.113 292.843 589.113 292.843 M 603.565 361.769 C 603.565 361.769 603.565 361.769 603.565 361.769 Z"/>
<path fill="none" stroke="#295d2d" stroke-width="1" stroke-linecap="round" stroke-linejoin="round" d="M 694.129 292.554 C 694.129 292.554 694.129 292.554 694.129 292.554 C 697.745 292.495 702.693 293.304 706.183 292.356 C 709.462 291.467 714.219 289.676 716.064 286.823 C 717.905 283.974 717.728 278.883 717.052 275.559 C 716.216 271.451 713.335 266.233 710.333 263.307 C 705.396 258.495 696.176 255.445 689.584 253.426 C 680.709 250.708 668.213 249.714 658.953 249.079 C 647.014 248.261 630.960 248.081 619.065 249.393 C 611.613 250.215 601.634 251.866 594.588 254.429 C 587.372 257.053 577.050 260.753 572.069 266.597 C 569.259 269.894 566.662 275.693 566.754 280.025 C 566.799 282.136 567.925 284.972 569.272 286.599 C 571.549 289.348 576.183 291.513 579.622 292.473 C 582.367 293.239 586.266 292.732 589.113 292.843 C 589.113 292.843 589.113 292.843 589.113 292.843 C 586.932 294.666 583.596 296.683 581.842 298.920 C 579.655 301.710 577.547 306.129 576.749 309.583 C 575.739 313.950 576.362 320.060 576.776 324.523 C 577.118 328.199 577.710 333.164 578.978 336.632 C 580.868 341.801 584.472 348.492 588.336 352.412 C 592.100 356.230 598.996 358.962 603.565 361.769 C 603.565 361.769 603.565 361.769 603.565 361.769 C 602.904 362.980 601.880 364.527 601.363 365.806 C 600.467 368.021 599.448 371.124 599.345 373.512 C 599.202 376.812 600.296 381.211 601.363 384.337 C 602.746 388.392 605.199 393.729 607.968 396.998 C 612.481 402.324 620.275 408.276 626.867 410.575 C 633.942 413.043 644.467 413.120 651.820 411.676 C 656.860 410.686 663.348 407.817 667.492 404.782 C 672.832 400.871 679.396 394.183 681.865 388.042 C 683.479 384.027 683.468 377.975 683.049 373.668 C 682.695 370.035 679.801 361.943 679.801 361.942 C 679.801 361.942 679.801 361.942 679.801 361.942 C 684.008 359.207 690.190 356.285 693.826 352.826 C 697.844 349.003 702.384 342.890 704.602 337.807 C 707.187 331.882 708.944 323.124 708.752 316.663 C 708.678 314.175 706.974 308.561 706.973 308.561 C 706.973 308.561 706.973 308.561 706.973 308.561 C 705.728 306.189 704.439 302.793 702.824 300.656 C 700.674 297.812 694.129 292.555 694.129 292.554 "/>
<path fill="#94c83f" fill-rule="evenodd" stroke="#94c83f" stroke-width="1" stroke-linecap="round" stroke-linejoin="round" d="M 603.049 276.029 C 606.057 273.381 609.507 269.024 613.077 267.203 C 619.627 263.863 629.811 263.091 637.146 262.590 C 643.307 262.169 651.628 262.498 657.705 263.593 C 662.856 264.521 669.862 266.121 674.353 268.808 C 676.673 270.196 679.868 272.457 680.972 274.926 C 681.428 275.945 681.827 277.667 681.273 278.636 C 680.678 279.676 678.825 280.054 677.663 280.341 C 670.650 282.072 660.816 279.813 653.593 279.739 C 646.854 279.671 637.865 279.629 631.129 279.840 C 626.310 279.990 619.904 280.730 615.083 280.742 C 611.890 280.750 607.477 281.263 604.453 280.241 C 603.788 280.016 602.743 279.673 602.447 279.037 C 602.058 278.203 602.868 276.931 603.049 276.029 C 603.049 276.029 603.049 276.029 603.049 276.029 Z"/>
<path fill="#94c83f" fill-rule="evenodd" stroke="#94c83f" stroke-width="1" stroke-linecap="round" stroke-linejoin="round" d="M 641.855 290.604 C 662.278 290.604 675.358 304.339 675.358 318.663 C 675.358 332.986 662.278 346.721 641.855 346.721 C 621.432 346.721 608.351 332.987 608.351 318.663 C 608.351 304.339 621.432 290.604 641.855 290.604 Z"/>
<path fill="#94c83f" fill-rule="evenodd" stroke="#94c83f" stroke-width="1" stroke-linecap="round" stroke-linejoin="round" d="M 641.995 362.046 C 657.501 362.046 662.534 370.253 661.964 376.122 C 661.446 381.456 656.088 385.834 641.995 385.834 C 627.902 385.834 622.545 381.456 622.026 376.122 C 621.456 370.253 626.489 362.046 641.995 362.046 Z"/>
<path fill="#2b5f2e" fill-rule="evenodd" stroke="none" d="M 703.668 476.236 C 701.700 477.407 698.579 477.868 696.399 478.568 C 696.399 478.569 700.583 483.669 701.620 486.258 C 703.735 491.535 705.038 499.426 704.143 505.041 C 703.480 509.203 700.926 514.536 698.256 517.797 C 695.811 520.782 691.010 523.140 687.904 525.430 C 687.904 525.431 688.374 532.373 687.637 535.216 C 686.469 539.718 683.057 545.155 680.176 548.806 C 677.985 551.582 674.499 554.904 671.515 556.801 C 667.579 559.303 661.395 560.804 657.058 562.520 C 657.056 562.520 640.261 564.137 633.123 563.323 C 627.583 562.692 620.047 561.296 615.131 558.665 C 610.646 556.265 605.440 551.528 602.440 547.420 C 600.253 544.424 598.247 539.762 597.300 536.175 C 596.519 533.218 596.630 529.070 596.343 526.024 C 596.341 526.023 584.975 518.103 582.108 513.097 C 579.975 509.373 578.780 503.442 578.912 499.153 C 579.027 495.420 580.909 490.633 582.348 487.187 C 583.386 484.700 585.385 481.682 586.686 479.323 C 586.685 479.323 577.596 474.651 574.652 471.511 C 572.041 468.728 569.712 464.026 568.358 460.459 C 567.329 457.745 566.406 453.908 566.287 451.007 C 566.112 446.770 566.751 440.948 568.358 437.024 C 569.453 434.351 571.554 430.840 573.894 429.146 C 574.986 428.355 576.803 427.885 578.128 427.640 C 580.932 427.120 584.841 427.059 587.632 427.640 C 589.033 427.931 590.728 428.891 592.055 429.428 C 598.441 430.712 606.865 433.014 613.342 433.710 C 628.022 435.287 647.801 434.186 662.558 433.710 C 668.727 433.511 677.064 433.795 683.095 432.485 C 686.479 431.749 690.547 429.245 693.930 428.507 C 697.679 427.689 703.037 426.355 706.685 427.547 C 709.409 428.437 712.560 431.159 714.091 433.582 C 717.049 438.261 718.030 446.163 717.657 451.686 C 717.318 456.710 714.992 463.335 712.308 467.595 C 710.354 470.697 706.818 474.362 703.668 476.236 M 592.055 429.428 C 592.055 429.428 592.055 429.428 592.055 429.428 Z"/>
<path fill="none" stroke="#2b5f2e" stroke-width="1" stroke-linecap="round" stroke-linejoin="round" d="M 696.399 478.568 C 696.399 478.568 696.399 478.568 696.399 478.568 C 698.579 477.868 701.700 477.407 703.668 476.236 C 706.818 474.362 710.354 470.697 712.308 467.595 C 714.992 463.335 717.318 456.710 717.657 451.686 C 718.030 446.163 717.049 438.261 714.091 433.582 C 712.560 431.159 709.409 428.437 706.685 427.547 C 703.037 426.355 697.679 427.689 693.930 428.507 C 690.547 429.245 686.479 431.749 683.095 432.485 C 677.064 433.795 668.727 433.511 662.558 433.710 C 647.801 434.186 628.022 435.287 613.342 433.710 C 606.865 433.014 598.441 430.712 592.055 429.428 C 592.055 429.428 592.055 429.428 592.055 429.428 C 590.728 428.891 589.033 427.931 587.632 427.640 C 584.841 427.059 580.932 427.120 578.128 427.640 C 576.803 427.885 574.986 428.355 573.894 429.146 C 571.554 430.840 569.453 434.351 568.358 437.024 C 566.751 440.948 566.112 446.770 566.287 451.007 C 566.406 453.908 567.329 457.745 568.358 460.459 C 569.712 464.026 572.041 468.728 574.652 471.511 C 577.596 474.651 586.685 479.323 586.686 479.323 C 586.686 479.323 586.686 479.323 586.686 479.323 C 585.385 481.682 583.386 484.700 582.348 487.187 C 580.909 490.633 579.027 495.420 578.912 499.153 C 578.780 503.442 579.975 509.373 582.108 513.097 C 584.975 518.103 596.341 526.023 596.343 526.024 C 596.343 526.024 596.343 526.024 596.343 526.024 C 596.630 529.070 596.519 533.218 597.300 536.175 C 598.247 539.762 600.253 544.424 602.440 547.420 C 605.440 551.528 610.646 556.265 615.131 558.665 C 620.047 561.296 627.583 562.692 633.123 563.323 C 640.261 564.137 657.056 562.520 657.058 562.520 C 657.058 562.520 657.058 562.520 657.058 562.520 C 661.395 560.804 667.579 559.303 671.515 556.801 C 674.499 554.904 677.985 551.582 680.176 548.806 C 683.057 545.155 686.469 539.718 687.637 535.216 C 688.374 532.373 687.904 525.431 687.904 525.430 C 687.904 525.430 687.904 525.430 687.904 525.430 C 691.010 523.140 695.811 520.782 698.256 517.797 C 700.926 514.536 703.480 509.203 704.143 505.041 C 705.038 499.426 703.735 491.535 701.620 486.258 C 700.583 483.669 696.399 478.569 696.399 478.568 "/>
<path fill="#92c63e" fill-rule="evenodd" stroke="#92c63e" stroke-width="1" stroke-linecap="round" stroke-linejoin="round" d="M 611.337 446.070 C 629.965 448.757 655.376 448.474 674.073 446.320 C 676.854 446.000 680.421 444.640 683.214 444.442 C 685.766 444.261 689.433 443.812 691.729 444.943 C 694.046 446.084 697.245 448.874 697.364 451.454 C 697.569 455.923 691.407 460.379 687.596 462.724 C 680.343 467.187 668.272 467.641 659.798 468.484 C 646.077 469.850 627.469 469.837 613.842 467.733 C 608.645 466.930 601.635 465.462 596.937 463.100 C 594.252 461.750 590.705 459.509 588.923 457.089 C 588.115 455.992 587.310 454.239 587.221 452.880 C 587.088 450.846 587.907 448.001 589.108 446.354 C 589.976 445.164 591.725 444.001 593.118 443.523 C 595.260 442.788 598.402 443.413 600.666 443.366 C 600.666 443.366 600.666 443.366 600.666 443.366 C 600.637 443.351 608.069 445.598 611.337 446.070 Z"/>
<path fill="#92c63e" fill-rule="evenodd" stroke="#92c63e" stroke-width="1" stroke-linecap="round" stroke-linejoin="round" d="M 683.793 490.681 C 685.294 492.967 687.336 496.536 686.927 499.239 C 686.138 504.457 679.686 509.545 675.235 512.379 C 669.092 516.289 659.070 517.944 651.849 518.888 C 643.242 520.013 631.324 520.576 622.919 518.406 C 616.013 516.622 607.031 512.312 601.824 507.436 C 600.133 505.853 598.059 503.292 597.484 501.047 C 596.762 498.227 597.326 494.036 598.569 491.404 C 599.749 488.906 602.431 485.889 604.958 484.774 C 606.516 484.087 608.931 484.224 610.624 484.412 C 613.602 484.745 617.197 486.897 620.146 487.426 C 632.926 489.717 650.576 489.799 663.421 487.908 C 664.680 487.723 666.303 487.192 667.520 486.823 C 669.424 486.246 671.825 484.979 673.788 484.654 C 674.863 484.475 676.330 484.618 677.419 484.602 C 677.419 484.602 677.419 484.602 677.419 484.602 C 677.415 484.654 682.343 488.472 683.793 490.681 Z"/>
<path fill="#92c63e" fill-rule="evenodd" stroke="#92c63e" stroke-width="1" stroke-linecap="round" stroke-linejoin="round" d="M 659.220 530.962 C 661.230 530.416 663.457 528.558 665.384 527.768 C 666.186 527.440 667.278 526.730 668.132 526.877 C 669.456 527.105 671.012 528.541 671.548 529.773 C 672.912 532.912 671.592 538.080 669.914 541.062 C 667.131 546.010 660.147 550.487 654.838 552.499 C 650.571 554.116 644.245 554.065 639.688 553.836 C 635.271 553.614 629.162 553.063 625.206 551.088 C 621.129 549.052 616.125 544.867 613.992 540.839 C 612.857 538.696 612.168 535.294 612.506 532.893 C 612.765 531.057 613.597 528.286 615.180 527.323 C 615.999 526.824 617.437 526.966 618.374 527.174 C 620.049 527.546 621.717 529.467 623.349 529.996 C 628.213 531.573 635.254 530.776 640.356 531.110 C 640.356 531.110 640.356 531.110 640.356 531.110 C 640.312 531.088 653.758 532.444 659.220 530.962 Z"/>
</g>
<g id="Layer_2">
<clipPath id="0790d31e-0726-4a91-a0ee-f6b472229b2f">
<path fill="#41beb8" fill-rule="evenodd" stroke="none" d="M 573.710 354.890 C 577.971 359.504 587.062 361.418 591.958 365.378 C 600.146 372.001 610.195 382.472 614.879 391.819 C 618.325 398.696 620.459 409.067 620.665 416.729 C 620.854 423.775 618.911 433.199 616.659 439.892 C 608.400 464.434 589.062 494.004 573.865 515.110 C 558.881 535.919 534.935 560.732 516.748 578.914 C 512.227 583.433 505.961 589.240 501.027 593.321 C 495.448 597.935 487.860 603.989 481.639 607.728 C 478.641 609.530 474.663 612.606 471.158 612.873 C 466.003 613.267 458.494 610.878 454.914 607.213 C 448.420 600.567 447.164 586.571 447.578 577.370 C 447.795 572.540 450.673 566.499 452.294 561.933 C 460.136 539.845 473.365 511.424 482.687 489.897 C 490.560 471.717 501.091 447.484 509.484 429.530 C 517.164 413.100 527.565 391.249 536.136 375.249 C 538.229 371.343 540.889 366.032 543.472 362.420 C 546.495 358.195 551.213 353.042 554.979 349.439 C 558.192 346.365 563.034 342.876 566.486 340.063 C 566.486 340.063 566.486 340.063 566.486 340.063 C 566.650 340.053 570.337 351.237 573.710 354.890 Z"/>
</clipPath>
<path fill="#41beb8" fill-rule="evenodd" stroke="#41beb8" stroke-width="1" stroke-linecap="round" stroke-linejoin="round" d="M 573.710 354.890 C 577.971 359.504 587.062 361.418 591.958 365.378 C 600.146 372.001 610.195 382.472 614.879 391.819 C 618.325 398.696 620.459 409.067 620.665 416.729 C 620.854 423.775 618.911 433.199 616.659 439.892 C 608.400 464.434 589.062 494.004 573.865 515.110 C 558.881 535.919 534.935 560.732 516.748 578.914 C 512.227 583.433 505.961 589.240 501.027 593.321 C 495.448 597.935 487.860 603.989 481.639 607.728 C 478.641 609.530 474.663 612.606 471.158 612.873 C 466.003 613.267 458.494 610.878 454.914 607.213 C 448.420 600.567 447.164 586.571 447.578 577.370 C 447.795 572.540 450.673 566.499 452.294 561.933 C 460.136 539.845 473.365 511.424 482.687 489.897 C 490.560 471.717 501.091 447.484 509.484 429.530 C 517.164 413.100 527.565 391.249 536.136 375.249 C 538.229 371.343 540.889 366.032 543.472 362.420 C 546.495 358.195 551.213 353.042 554.979 349.439 C 558.192 346.365 563.034 342.876 566.486 340.063 C 566.486 340.063 566.486 340.063 566.486 340.063 C 566.650 340.053 570.337 351.237 573.710 354.890 Z"/>
<path fill="#347473" d="M 494.734 536.361 C 489.873 549.976 487.520 564.306 484.700 578.447 L 483.710 578.250 C 486.529 564.112 489.678 549.923 494.544 536.293 L 494.734 536.361 Z" clip-path="url(#0790d31e-0726-4a91-a0ee-f6b472229b2f)"/>
<path fill="#347473" d="M 484.700 578.447 C 483.439 584.765 481.414 592.535 474.064 594.665 L 474.008 594.471 C 481.263 592.400 482.450 584.564 483.710 578.250 L 484.700 578.447 Z" clip-path="url(#0790d31e-0726-4a91-a0ee-f6b472229b2f)"/>
<path fill="none" stroke="#347473" stroke-width="1" stroke-linecap="butt" stroke-linejoin="round" d="M 484.700 578.447 L 483.710 578.250 " clip-path="url(#0790d31e-0726-4a91-a0ee-f6b472229b2f)"/>
<path fill="#347473" d="M 536.733 378.833 C 529.054 406.479 523.520 434.691 515.366 462.259 L 514.398 461.973 C 522.541 434.443 528.858 406.431 536.538 378.779 L 536.733 378.833 Z" clip-path="url(#0790d31e-0726-4a91-a0ee-f6b472229b2f)"/>
<path fill="none" stroke="#347473" stroke-width="1" stroke-linecap="butt" stroke-linejoin="round" d="M 536.733 378.833 L 536.538 378.779 " clip-path="url(#0790d31e-0726-4a91-a0ee-f6b472229b2f)"/>
<path fill="#347473" d="M 515.366 462.259 C 507.949 487.335 498.620 510.729 495.123 536.754 L 494.123 536.619 C 497.643 510.476 506.995 487.006 514.398 461.973 L 515.366 462.259 Z" clip-path="url(#0790d31e-0726-4a91-a0ee-f6b472229b2f)"/>
<path fill="none" stroke="#347473" stroke-width="1" stroke-linecap="butt" stroke-linejoin="round" d="M 515.366 462.259 L 514.398 461.973 " clip-path="url(#0790d31e-0726-4a91-a0ee-f6b472229b2f)"/>
<path fill="#347473" d="M 495.123 536.754 C 492.894 553.287 494.905 569.501 494.905 586.021 L 494.704 586.021 C 494.704 569.516 491.884 553.293 494.123 536.619 L 495.123 536.754 Z" clip-path="url(#0790d31e-0726-4a91-a0ee-f6b472229b2f)"/>
<path fill="none" stroke="#347473" stroke-width="1" stroke-linecap="butt" stroke-linejoin="round" d="M 495.123 536.754 L 494.123 536.619 " clip-path="url(#0790d31e-0726-4a91-a0ee-f6b472229b2f)"/>
<path fill="#347473" d="M 554.908 406.841 C 551.838 426.433 545.144 445.369 542.190 464.793 L 541.193 464.641 C 544.167 445.113 551.643 426.381 554.708 406.810 L 554.908 406.841 Z" clip-path="url(#0790d31e-0726-4a91-a0ee-f6b472229b2f)"/>
<path fill="none" stroke="#347473" stroke-width="1" stroke-linecap="butt" stroke-linejoin="round" d="M 554.908 406.841 L 554.708 406.810 " clip-path="url(#0790d31e-0726-4a91-a0ee-f6b472229b2f)"/>
<path fill="#347473" d="M 542.190 464.793 C 539.358 483.383 540.928 502.392 537.630 521.243 L 536.636 521.069 C 539.919 502.346 538.349 483.349 541.193 464.641 L 542.190 464.793 Z" clip-path="url(#0790d31e-0726-4a91-a0ee-f6b472229b2f)"/>
<path fill="none" stroke="#347473" stroke-width="1" stroke-linecap="butt" stroke-linejoin="round" d="M 542.190 464.793 L 541.193 464.641 " clip-path="url(#0790d31e-0726-4a91-a0ee-f6b472229b2f)"/>
<path fill="#347473" d="M 537.630 521.243 C 535.178 535.172 525.655 548.854 525.660 562.670 L 525.458 562.670 C 525.463 548.791 534.247 534.783 536.636 521.069 L 537.630 521.243 Z" clip-path="url(#0790d31e-0726-4a91-a0ee-f6b472229b2f)"/>
<path fill="none" stroke="#347473" stroke-width="1" stroke-linecap="butt" stroke-linejoin="round" d="M 537.630 521.243 L 536.636 521.069 " clip-path="url(#0790d31e-0726-4a91-a0ee-f6b472229b2f)"/>
<path fill="#347473" d="M 555.709 365.430 C 555.709 405.734 553.406 445.796 553.700 486.115 L 552.691 486.122 C 552.397 445.766 555.507 405.727 555.507 365.430 L 555.709 365.430 Z" clip-path="url(#0790d31e-0726-4a91-a0ee-f6b472229b2f)"/>
<path fill="none" stroke="#347473" stroke-width="1" stroke-linecap="butt" stroke-linejoin="round" d="M 555.709 365.430 L 555.507 365.430 " clip-path="url(#0790d31e-0726-4a91-a0ee-f6b472229b2f)"/>
<path fill="#347473" d="M 553.700 486.115 C 553.753 494.552 556.666 503.092 556.668 511.387 L 556.466 511.387 C 556.468 503.131 552.763 494.748 552.691 486.122 L 553.700 486.115 Z" clip-path="url(#0790d31e-0726-4a91-a0ee-f6b472229b2f)"/>
<path fill="none" stroke="#347473" stroke-width="1" stroke-linecap="butt" stroke-linejoin="round" d="M 553.700 486.115 L 552.691 486.122 " clip-path="url(#0790d31e-0726-4a91-a0ee-f6b472229b2f)"/>
<path fill="#347473" d="M 579.326 407.312 C 581.964 407.327 586.142 411.103 587.905 412.656 L 587.238 413.413 C 585.430 411.819 581.857 407.498 579.326 407.514 L 579.326 407.312 Z" clip-path="url(#0790d31e-0726-4a91-a0ee-f6b472229b2f)"/>
<path fill="none" stroke="#347473" stroke-width="1" stroke-linecap="butt" stroke-linejoin="round" d="M 579.326 407.312 L 579.326 407.514 " clip-path="url(#0790d31e-0726-4a91-a0ee-f6b472229b2f)"/>
<path fill="#347473" d="M 587.905 412.656 C 595.452 419.345 599.936 434.190 609.992 437.015 L 609.937 437.209 C 599.782 434.321 594.579 419.850 587.238 413.413 L 587.905 412.656 Z" clip-path="url(#0790d31e-0726-4a91-a0ee-f6b472229b2f)"/>
<path fill="none" stroke="#347473" stroke-width="1" stroke-linecap="butt" stroke-linejoin="round" d="M 587.905 412.656 L 587.238 413.413 " clip-path="url(#0790d31e-0726-4a91-a0ee-f6b472229b2f)"/>
<path fill="#347473" d="M 556.620 349.657 C 556.619 355.512 554.956 363.346 556.518 368.820 L 555.546 369.093 C 553.948 363.309 556.419 355.482 556.418 349.657 L 556.620 349.657 Z" clip-path="url(#0790d31e-0726-4a91-a0ee-f6b472229b2f)"/>
<path fill="none" stroke="#347473" stroke-width="1" stroke-linecap="butt" stroke-linejoin="round" d="M 556.620 349.657 L 556.418 349.657 " clip-path="url(#0790d31e-0726-4a91-a0ee-f6b472229b2f)"/>
<path fill="#347473" d="M 556.518 368.820 C 559.172 378.388 570.519 388.026 576.063 396.527 L 575.217 397.078 C 569.780 388.714 558.356 378.982 555.546 369.093 L 556.518 368.820 Z" clip-path="url(#0790d31e-0726-4a91-a0ee-f6b472229b2f)"/>
<path fill="none" stroke="#347473" stroke-width="1" stroke-linecap="butt" stroke-linejoin="round" d="M 556.518 368.820 L 555.546 369.093 " clip-path="url(#0790d31e-0726-4a91-a0ee-f6b472229b2f)"/>
<path fill="#347473" d="M 576.063 396.527 C 580.859 403.941 579.859 410.969 582.349 418.871 L 581.386 419.173 C 578.855 411.070 579.883 404.197 575.217 397.078 L 576.063 396.527 Z" clip-path="url(#0790d31e-0726-4a91-a0ee-f6b472229b2f)"/>
<path fill="none" stroke="#347473" stroke-width="1" stroke-linecap="butt" stroke-linejoin="round" d="M 576.063 396.527 L 575.217 397.078 " clip-path="url(#0790d31e-0726-4a91-a0ee-f6b472229b2f)"/>
<path fill="#347473" d="M 582.349 418.871 C 585.362 428.498 592.163 439.436 592.168 449.747 L 591.967 449.747 C 591.972 439.501 584.459 428.949 581.386 419.173 L 582.349 418.871 Z" clip-path="url(#0790d31e-0726-4a91-a0ee-f6b472229b2f)"/>
<path fill="none" stroke="#347473" stroke-width="1" stroke-linecap="butt" stroke-linejoin="round" d="M 582.349 418.871 L 581.386 419.173 " clip-path="url(#0790d31e-0726-4a91-a0ee-f6b472229b2f)"/>
</g>
<g id="Layer_5">
<clipPath id="15c04c59-0b20-4ca0-8fef-9222dec014bc">
<path fill="#41beb8" fill-rule="evenodd" stroke="none" d="M 714.602 354.890 C 710.418 359.504 701.492 361.418 696.684 365.378 C 688.644 372.001 678.776 382.472 674.177 391.819 C 670.793 398.696 668.698 409.067 668.496 416.729 C 668.310 423.775 670.218 433.199 672.429 439.892 C 680.539 464.434 699.528 494.004 714.450 515.110 C 729.163 535.919 752.677 560.732 770.535 578.914 C 774.974 583.433 781.127 589.240 785.972 593.321 C 791.450 597.935 798.901 603.989 805.010 607.728 C 807.954 609.530 811.860 612.606 815.301 612.873 C 820.363 613.267 827.737 610.878 831.252 607.213 C 837.628 600.567 838.862 586.571 838.455 577.370 C 838.242 572.540 835.416 566.499 833.824 561.933 C 826.124 539.845 813.134 511.424 803.981 489.897 C 796.250 471.717 785.909 447.484 777.668 429.530 C 770.127 413.100 759.913 391.249 751.497 375.249 C 749.442 371.343 746.830 366.032 744.294 362.420 C 741.326 358.195 736.693 353.042 732.995 349.439 C 729.840 346.365 725.086 342.876 721.696 340.063 C 721.696 340.063 721.696 340.063 721.696 340.063 C 721.534 340.053 717.915 351.237 714.602 354.890 Z"/>
</clipPath>
<path fill="#41beb8" fill-rule="evenodd" stroke="#41beb8" stroke-width="1" stroke-linecap="round" stroke-linejoin="round" d="M 714.602 354.890 C 710.418 359.504 701.492 361.418 696.684 365.378 C 688.644 372.001 678.776 382.472 674.177 391.819 C 670.793 398.696 668.698 409.067 668.496 416.729 C 668.310 423.775 670.218 433.199 672.429 439.892 C 680.539 464.434 699.528 494.004 714.450 515.110 C 729.163 535.919 752.677 560.732 770.535 578.914 C 774.974 583.433 781.127 589.240 785.972 593.321 C 791.450 597.935 798.901 603.989 805.010 607.728 C 807.954 609.530 811.860 612.606 815.301 612.873 C 820.363 613.267 827.737 610.878 831.252 607.213 C 837.628 600.567 838.862 586.571 838.455 577.370 C 838.242 572.540 835.416 566.499 833.824 561.933 C 826.124 539.845 813.134 511.424 803.981 489.897 C 796.250 471.717 785.909 447.484 777.668 429.530 C 770.127 413.100 759.913 391.249 751.497 375.249 C 749.442 371.343 746.830 366.032 744.294 362.420 C 741.326 358.195 736.693 353.042 732.995 349.439 C 729.840 346.365 725.086 342.876 721.696 340.063 C 721.696 340.063 721.696 340.063 721.696 340.063 C 721.534 340.053 717.915 351.237 714.602 354.890 Z"/>
<path fill="#347473" d="M 792.339 536.294 C 797.117 549.924 800.212 564.115 802.981 578.252 L 802.000 578.444 C 799.230 564.304 796.924 549.976 792.150 536.360 L 792.339 536.294 Z" clip-path="url(#15c04c59-0b20-4ca0-8fef-9222dec014bc)"/>
<path fill="#347473" d="M 802.981 578.252 C 804.218 584.567 805.380 592.401 812.504 594.472 L 812.448 594.664 C 805.230 592.534 803.237 584.762 802.000 578.444 L 802.981 578.252 Z" clip-path="url(#15c04c59-0b20-4ca0-8fef-9222dec014bc)"/>
<path fill="none" stroke="#347473" stroke-width="1" stroke-linecap="butt" stroke-linejoin="round" d="M 802.981 578.252 L 802.000 578.444 " clip-path="url(#15c04c59-0b20-4ca0-8fef-9222dec014bc)"/>
<path fill="#347473" d="M 751.104 378.780 C 758.645 406.432 764.852 434.446 772.848 461.977 L 771.887 462.256 C 763.881 434.687 758.450 406.478 750.911 378.833 L 751.104 378.780 Z" clip-path="url(#15c04c59-0b20-4ca0-8fef-9222dec014bc)"/>
<path fill="none" stroke="#347473" stroke-width="1" stroke-linecap="butt" stroke-linejoin="round" d="M 751.104 378.780 L 750.911 378.833 " clip-path="url(#15c04c59-0b20-4ca0-8fef-9222dec014bc)"/>
<path fill="#347473" d="M 772.848 461.977 C 780.117 487.010 789.300 510.479 792.756 536.621 L 791.765 536.752 C 788.331 510.726 779.170 487.331 771.887 462.256 L 772.848 461.977 Z" clip-path="url(#15c04c59-0b20-4ca0-8fef-9222dec014bc)"/>
<path fill="none" stroke="#347473" stroke-width="1" stroke-linecap="butt" stroke-linejoin="round" d="M 772.848 461.977 L 771.887 462.256 " clip-path="url(#15c04c59-0b20-4ca0-8fef-9222dec014bc)"/>
<path fill="#347473" d="M 792.756 536.621 C 794.954 553.293 792.182 569.515 792.182 586.021 L 791.982 586.021 C 791.982 569.501 793.954 553.287 791.765 536.752 L 792.756 536.621 Z" clip-path="url(#15c04c59-0b20-4ca0-8fef-9222dec014bc)"/>
<path fill="none" stroke="#347473" stroke-width="1" stroke-linecap="butt" stroke-linejoin="round" d="M 792.756 536.621 L 791.765 536.752 " clip-path="url(#15c04c59-0b20-4ca0-8fef-9222dec014bc)"/>
<path fill="#347473" d="M 733.261 406.810 C 736.272 426.382 743.616 445.117 746.537 464.643 L 745.548 464.791 C 742.648 445.366 736.078 426.432 733.064 406.841 L 733.261 406.810 Z" clip-path="url(#15c04c59-0b20-4ca0-8fef-9222dec014bc)"/>
<path fill="none" stroke="#347473" stroke-width="1" stroke-linecap="butt" stroke-linejoin="round" d="M 733.261 406.810 L 733.064 406.841 " clip-path="url(#15c04c59-0b20-4ca0-8fef-9222dec014bc)"/>
<path fill="#347473" d="M 746.537 464.643 C 749.329 483.350 747.787 502.346 751.011 521.071 L 750.025 521.241 C 746.788 502.391 748.330 483.383 745.548 464.791 L 746.537 464.643 Z" clip-path="url(#15c04c59-0b20-4ca0-8fef-9222dec014bc)"/>
<path fill="none" stroke="#347473" stroke-width="1" stroke-linecap="butt" stroke-linejoin="round" d="M 746.537 464.643 L 745.548 464.791 " clip-path="url(#15c04c59-0b20-4ca0-8fef-9222dec014bc)"/>
<path fill="#347473" d="M 751.011 521.071 C 753.358 534.788 761.978 548.792 761.983 562.670 L 761.783 562.670 C 761.788 548.854 752.433 535.168 750.025 521.241 L 751.011 521.071 Z" clip-path="url(#15c04c59-0b20-4ca0-8fef-9222dec014bc)"/>
<path fill="none" stroke="#347473" stroke-width="1" stroke-linecap="butt" stroke-linejoin="round" d="M 751.011 521.071 L 750.025 521.241 " clip-path="url(#15c04c59-0b20-4ca0-8fef-9222dec014bc)"/>
<path fill="#347473" d="M 732.478 365.430 C 732.477 405.727 735.535 445.766 735.246 486.122 L 734.246 486.115 C 734.535 445.796 732.277 405.734 732.277 365.430 L 732.478 365.430 Z" clip-path="url(#15c04c59-0b20-4ca0-8fef-9222dec014bc)"/>
<path fill="none" stroke="#347473" stroke-width="1" stroke-linecap="butt" stroke-linejoin="round" d="M 732.478 365.430 L 732.277 365.430 " clip-path="url(#15c04c59-0b20-4ca0-8fef-9222dec014bc)"/>
<path fill="#347473" d="M 735.246 486.122 C 735.176 494.746 731.534 503.131 731.536 511.387 L 731.336 511.387 C 731.337 503.092 734.194 494.555 734.246 486.115 L 735.246 486.122 Z" clip-path="url(#15c04c59-0b20-4ca0-8fef-9222dec014bc)"/>
<path fill="none" stroke="#347473" stroke-width="1" stroke-linecap="butt" stroke-linejoin="round" d="M 735.246 486.122 L 734.246 486.115 " clip-path="url(#15c04c59-0b20-4ca0-8fef-9222dec014bc)"/>
<path fill="#347473" d="M 709.088 407.513 C 706.603 407.497 703.100 411.812 701.325 413.407 L 700.657 412.663 C 702.389 411.109 706.496 407.328 709.088 407.313 L 709.088 407.513 Z" clip-path="url(#15c04c59-0b20-4ca0-8fef-9222dec014bc)"/>
<path fill="none" stroke="#347473" stroke-width="1" stroke-linecap="butt" stroke-linejoin="round" d="M 709.088 407.513 L 709.088 407.313 " clip-path="url(#15c04c59-0b20-4ca0-8fef-9222dec014bc)"/>
<path fill="#347473" d="M 701.325 413.407 C 694.116 419.845 689.003 434.320 679.030 437.208 L 678.975 437.016 C 688.849 434.191 693.247 419.350 700.657 412.663 L 701.325 413.407 Z" clip-path="url(#15c04c59-0b20-4ca0-8fef-9222dec014bc)"/>
<path fill="none" stroke="#347473" stroke-width="1" stroke-linecap="butt" stroke-linejoin="round" d="M 701.325 413.407 L 700.657 412.663 " clip-path="url(#15c04c59-0b20-4ca0-8fef-9222dec014bc)"/>
<path fill="#347473" d="M 731.583 349.657 C 731.582 355.483 734.012 363.310 732.443 369.089 L 731.479 368.823 C 733.013 363.345 731.384 355.512 731.383 349.657 L 731.583 349.657 Z" clip-path="url(#15c04c59-0b20-4ca0-8fef-9222dec014bc)"/>
<path fill="none" stroke="#347473" stroke-width="1" stroke-linecap="butt" stroke-linejoin="round" d="M 731.583 349.657 L 731.383 349.657 " clip-path="url(#15c04c59-0b20-4ca0-8fef-9222dec014bc)"/>
<path fill="#347473" d="M 732.443 369.089 C 729.685 378.976 718.468 388.707 713.128 397.072 L 712.286 396.533 C 717.730 388.032 728.871 378.395 731.479 368.823 L 732.443 369.089 Z" clip-path="url(#15c04c59-0b20-4ca0-8fef-9222dec014bc)"/>
<path fill="none" stroke="#347473" stroke-width="1" stroke-linecap="butt" stroke-linejoin="round" d="M 732.443 369.089 L 731.479 368.823 " clip-path="url(#15c04c59-0b20-4ca0-8fef-9222dec014bc)"/>
<path fill="#347473" d="M 713.128 397.072 C 708.546 404.193 709.555 411.068 707.070 419.170 L 706.115 418.875 C 708.560 410.971 707.577 403.945 712.286 396.533 L 713.128 397.072 Z" clip-path="url(#15c04c59-0b20-4ca0-8fef-9222dec014bc)"/>
<path fill="none" stroke="#347473" stroke-width="1" stroke-linecap="butt" stroke-linejoin="round" d="M 713.128 397.072 L 712.286 396.533 " clip-path="url(#15c04c59-0b20-4ca0-8fef-9222dec014bc)"/>
<path fill="#347473" d="M 707.070 419.170 C 704.054 428.944 696.672 439.501 696.677 449.747 L 696.477 449.747 C 696.482 439.437 703.156 428.504 706.115 418.875 L 707.070 419.170 Z" clip-path="url(#15c04c59-0b20-4ca0-8fef-9222dec014bc)"/>
<path fill="none" stroke="#347473" stroke-width="1" stroke-linecap="butt" stroke-linejoin="round" d="M 707.070 419.170 L 706.115 418.875 " clip-path="url(#15c04c59-0b20-4ca0-8fef-9222dec014bc)"/>
</g>
</g>
</svg>
