<?xml version="1.0" encoding="utf-8"?>
<!-- Generator: Adobe Illustrator 18.1.1, SVG Export Plug-In . SVG Version: 6.00 Build 0)  -->
<svg version="1.1" id="Layer_1" xmlns="http://www.w3.org/2000/svg" xmlns:xlink="http://www.w3.org/1999/xlink" x="0px" y="0px"
	 viewBox="0 0 3000 3000" enable-background="new 0 0 3000 3000" xml:space="preserve">
<g>
	<rect x="1452.9" y="232.1" fill="#197094" width="84.6" height="398.2"/>
	<rect x="1452.1" y="235.5" fill="#249FD4" width="43.1" height="243.1"/>
	<path fill="#208DBA" d="M1649.3,476.3v212.4H1341V476.3c0-13.6,11-24.6,24.6-24.6h259c7,0,13.3,2.9,17.8,7.6
		C1646.7,463.7,1649.3,469.7,1649.3,476.3z"/>
	<path fill="#197094" d="M1474.6,145.6h639l32.7,38.6c15.7,18.5,3.3,48-20.2,48h-29.7l-33.3-35.4h-588.4V145.6z"/>
	<path fill="#BAEBFF" d="M2076.3,1502.8V2705c0,96.5-78.5,175-175,175H1089c-96.5,0-175-78.5-175-175V1502.8
		c0-78.5,15.4-154.6,45.7-226.2c29.3-69.2,71.2-131.3,124.5-184.7c53.4-53.4,115.5-95.3,184.7-124.5
		c71.6-30.3,147.7-45.7,226.2-45.7s154.6,15.4,226.2,45.7c69.2,29.3,131.3,71.2,184.7,124.5c53.4,53.4,95.3,115.5,124.5,184.7
		C2060.9,1348.2,2076.3,1424.3,2076.3,1502.8z"/>
	<path fill="#4CA8CF" d="M1315.7,1784.9c76.1-35,115.2-57.4,154.1-64.1v-67.3c-96.7,2.4-180,47-264.3,67.4
		c-106.3,25.7-271.4-59.5-271.4-59.5S1146.5,1862.6,1315.7,1784.9z"/>
	<path fill="#4CA8CF" d="M1679.2,1773.4c208.1,82.3,377.1-93.7,377.1-93.7c-253.5,126.8-375.8,12.1-507.9-18.3
		c-9.4-2.2-18.7-3.8-27.9-5.1v64.5C1557,1726.5,1603.4,1743.5,1679.2,1773.4z"/>
	<path fill="#5ED0FF" d="M2076.3,1717.7V2705c0,96.5-78.5,175-175,175H1089c-96.5,0-175-78.5-175-175V1663.7l20-2.3
		c0,0,212.4,201.2,381.6,123.5c76.1-35,115.2-57.4,154.1-64.1v1088.1c0,14,11.4,25.4,25.4,25.4c14,0,25.4-11.4,25.4-25.4v-1088
		c36.5,5.6,82.9,22.6,158.7,52.6c208.1,82.3,377.1-93.7,377.1-93.7L2076.3,1717.7z"/>
	<path fill="#FFFFFF" d="M1520.5,1656.3V672.9c0-14-11.4-25.4-25.4-25.4c-14,0-25.4,11.4-25.4,25.4v980.7
		C1486.3,1653.1,1503.2,1653.9,1520.5,1656.3z"/>
	<path fill="#E6E6E6" d="M1520.5,1656.3V672.9c0-14-5.7-25.4-12.7-25.4c-7,0-12.7,11.4-12.7,25.4v980.7
		C1503.4,1653.1,1511.9,1653.9,1520.5,1656.3z"/>
	<path fill="#BAEBFF" d="M1520.6,1656.3v64.6c-18.6-2.9-34.7-2.8-50.8-0.1v-67.3C1486.3,1653.1,1503.2,1653.9,1520.6,1656.3z"/>
	<path fill="#A7D3E6" d="M1520.6,1656.3v64.6c-9.3-2.9-17.3-2.8-25.4-0.1v-67.3C1503.4,1653.1,1511.9,1653.9,1520.6,1656.3z"/>
	<path fill="#249FD4" d="M1540.9,592H1341v-24h199.9c4.4,0,8,3.6,8,8v8C1548.9,588.4,1545.3,592,1540.9,592z"/>
	<path fill="#ABE6FF" d="M1520.6,1720.9v1088c0,14-11.4,25.4-25.4,25.4c-14,0-25.4-11.4-25.4-25.4V1720.8
		C1485.9,1718,1501.9,1718,1520.6,1720.9z"/>
	<path fill="#9ACFE6" d="M1520.6,1720.9v1088c0,14-5.7,25.4-12.7,25.4c-7,0-12.7-11.4-12.7-25.4V1720.8
		C1503.2,1718,1511.2,1718,1520.6,1720.9z"/>
	<path opacity="0.5" fill="#1C7AA3" d="M1649.3,476.3v212.4h-160.1L1341,647.5c0,0,258.3-66.2,301.4-188.2
		C1646.7,463.7,1649.3,469.7,1649.3,476.3z"/>
	<path fill="#208DBA" d="M1495.2,941.6c75.8,0,149.2,14.8,218.4,44.1c66.8,28.3,126.8,68.7,178.4,120.3
		c51.5,51.5,92,111.6,120.3,178.4c29.2,69.2,44.1,142.6,44.1,218.4V2705c0,41.4-16.1,80.3-45.4,109.6
		c-29.3,29.3-68.2,45.4-109.6,45.4H1089c-41.4,0-80.3-16.1-109.6-45.4c-29.3-29.3-45.4-68.2-45.4-109.6V1502.8
		c0-75.8,14.8-149.2,44.1-218.4c28.3-66.8,68.7-126.8,120.3-178.4c51.5-51.5,111.6-92,178.4-120.3
		C1345.9,956.5,1419.4,941.6,1495.2,941.6L1495.2,941.6 M1495.2,901.6L1495.2,901.6c-332,0-601.1,269.1-601.1,601.1V2705
		c0,107.7,87.3,195,195,195h812.2c107.7,0,195-87.3,195-195V1502.8C2096.3,1170.8,1827.2,901.6,1495.2,901.6L1495.2,901.6z"/>
	<path fill="#208DBA" d="M1731.6,673.1V950h-472.9V673.1c0-14.2,11.5-25.6,25.6-25.6H1706c9.8,0,18.4,5.5,22.7,13.7
		C1730.6,664.7,1731.6,668.8,1731.6,673.1z"/>
	<path fill="#208DBA" d="M1649.3,150.1v47.4c0,27.7-22.4,50.1-50.1,50.1h-208c-27.7,0-50.1-22.5-50.1-50.1v-47.4
		c0-24.6,17.7-45,41-49.3c3-0.5,6-0.8,9.1-0.8h208c3.1,0,6.2,0.3,9.1,0.8C1631.6,105.1,1649.3,125.6,1649.3,150.1z"/>
	<path fill="#197094" d="M1608.3,100.8c-0.9,31.1-51.2,56.2-113.2,56.2c-62,0-112.3-25.1-113.2-56.2c3-0.5,6-0.8,9.1-0.8h208
		C1602.3,100,1605.4,100.3,1608.3,100.8z"/>
	<path fill="#249FD4" d="M1444.9,518.9H1341v-24.2h103.8c4.4,0,8,3.6,8,8v8.2C1452.9,515.4,1449.3,518.9,1444.9,518.9z"/>
	<path fill="#249FD4" d="M1483.7,554.8H1341V532h142.7c4.4,0,8,3.6,8,8v6.8C1491.7,551.2,1488.2,554.8,1483.7,554.8z"/>
	<path fill="#208DBA" d="M2094,167.3h-439.2c-2.5,0-4.5-2-4.5-4.5v-1.3c0-2.5,2-4.5,4.5-4.5H2094c2.5,0,4.5,2,4.5,4.5v1.3
		C2098.5,165.3,2096.4,167.3,2094,167.3z"/>
	<path fill="#4EADD4" d="M1520.6,1687.1v33.7c-18.6-2.9-34.7-2.8-50.8-0.1v-33.6C1469.8,1687.1,1483.8,1681.6,1520.6,1687.1z"/>
	<path fill="#24A0D4" d="M1437.9,750.5h-179.2v-41.2h179.2c8.3,0,15,6.7,15,15v11.2C1452.9,743.8,1446.2,750.5,1437.9,750.5z"/>
	<path fill="#24A0D4" d="M1522.5,818.6h-263.7v-39.7h263.7c8.3,0,15,6.7,15,15v9.7C1537.5,811.9,1530.7,818.6,1522.5,818.6z"/>
	<path fill="#24A0D4" d="M1611.6,886.8h-352.9v-38.3h352.9c8.3,0,15,6.7,15,15v8.3C1626.6,880,1619.9,886.8,1611.6,886.8z"/>
	<path opacity="0.5" fill="#1C7AA3" d="M1731.6,673.1V950h-472.9c0,0,382.7-114.1,469.9-288.8
		C1730.6,664.7,1731.6,668.8,1731.6,673.1z"/>
	<circle fill="#CFF1FF" cx="1371.5" cy="2276.5" r="51.4"/>
	<circle fill="#CFF1FF" cx="1724.8" cy="2554.1" r="44.6"/>
	<circle fill="#CFF1FF" cx="1292.6" cy="2619.3" r="20.6"/>
	<circle fill="#CFF1FF" cx="1172.6" cy="1964.2" r="65.2"/>
	<circle fill="#CFF1FF" cx="1769.3" cy="1991.6" r="44.6"/>
	<circle fill="#CFF1FF" cx="1724.8" cy="2252.3" r="24"/>
	<circle fill="#CFF1FF" cx="1172.6" cy="2392.9" r="27.4"/>
	<circle fill="#CFF1FF" cx="1940.8" cy="1899" r="30.9"/>
	<circle fill="#CFF1FF" cx="1381.8" cy="1868.1" r="20.6"/>
	<circle fill="#CFF1FF" cx="1680.2" cy="2770.2" r="20.6"/>
	<circle fill="#CFF1FF" cx="1107.4" cy="2698.2" r="20.6"/>
	<circle fill="#CFF1FF" cx="1028.5" cy="1795.4" r="16.4"/>
	<circle fill="#CFF1FF" cx="1988.9" cy="2492.4" r="20.6"/>
	<circle fill="#CFF1FF" cx="1012.1" cy="2200.8" r="24.8"/>
	<circle fill="#CFF1FF" cx="1587.6" cy="1811.7" r="16.4"/>
	<circle fill="#CFF1FF" cx="1899.9" cy="2307.4" r="17.1"/>
	<circle fill="#CFF1FF" cx="1563.9" cy="2392.9" r="15.4"/>
	<circle fill="#CFF1FF" cx="1899.9" cy="2756.6" r="8.6"/>
	<path fill="#5ED0FF" d="M2173.5,439.3c0,26.2-21.3,47.5-47.5,47.5c-20.2,0-37.4-12.6-44.3-30.3c0-0.1,0-0.1-0.1-0.2
		c-2-5.3-3.1-11-3.1-17c0-26.2,47.5-160.2,47.5-160.2s14.5,40.9,27.5,81.9c3.7,11.6,7.2,23.3,10.3,34
		C2169.5,414.9,2173.5,431.7,2173.5,439.3z"/>
	<path fill="#51B3DB" d="M2173.5,439.3c0,26.2-21.3,47.5-47.5,47.5c-20.2,0-37.4-12.6-44.3-30.3c21.3,8.7,66.9,14.2,71.7-95.5
		c3.7,11.6,7.2,23.3,10.3,34C2169.5,414.9,2173.5,431.7,2173.5,439.3z"/>
</g>
</svg>
