<?xml version="1.0" encoding="utf-8"?>
<!-- Generator: Adobe Illustrator 19.2.0, SVG Export Plug-In . SVG Version: 6.00 Build 0)  -->
<svg version="1.1" id="Layer_1" xmlns="http://www.w3.org/2000/svg" xmlns:xlink="http://www.w3.org/1999/xlink" x="0px" y="0px"
	 viewBox="0 0 960 960" style="enable-background:new 0 0 960 960;" xml:space="preserve">
<style type="text/css">
	.st0{fill:#E8BD89;}
	.st1{fill:#FFFFFF;}
	.st2{fill:#135468;}
	.st3{fill:#FFDBAB;}
	.st4{fill:#F2C799;}
	.st5{fill:#CEA06E;}
</style>
<g>
	<g>
		
			<rect x="318.8" y="415.8" transform="matrix(0.7071 -0.7071 0.7071 0.7071 -228.9889 513.6727)" class="st0" width="373.6" height="234.9"/>
		
			<rect x="631.6" y="234" transform="matrix(0.7071 -0.7071 0.7071 0.7071 -77.2945 579.4926)" class="st1" width="58.6" height="298.2"/>
		
			<rect x="668.5" y="172.5" transform="matrix(0.7071 -0.7071 0.7071 0.7071 -24.8271 601.2292)" class="st2" width="89.6" height="316.2"/>
	</g>
	
		<rect x="146.7" y="353.8" transform="matrix(0.7071 -0.7071 0.7071 0.7071 -184.2593 321.3497)" class="st1" width="298.2" height="58.6"/>
	
		<rect x="88.5" y="294.3" transform="matrix(0.7071 -0.7071 0.7071 0.7071 -167.5363 273.7232)" class="st2" width="316.2" height="89.6"/>
	<g>
		<polygon class="st3" points="662.9,584.1 496.8,750.2 281.6,535.1 261.3,457.3 398.7,319.9 		"/>
		<path class="st3" d="M553.2,760.7l-4.4,4.4c-10.3,10.3-26.9,10.3-37.1,0L399.2,652.6l41.5-41.5l112.5,112.5
			C563.4,733.9,563.4,750.5,553.2,760.7z"/>
		<path class="st3" d="M603.3,727.7l-4.4,4.4c-10.3,10.3-26.9,10.3-37.1,0L444,614.4l41.5-41.5l117.7,117.7
			C613.5,700.9,613.5,717.5,603.3,727.7z"/>
		<path class="st3" d="M649.1,690.5l-4.4,4.4c-10.3,10.3-26.9,10.3-37.1,0l-122-122l41.5-41.5l122,122
			C659.3,663.6,659.3,680.2,649.1,690.5z"/>
		<path class="st3" d="M694.9,653.2l-4.4,4.4c-10.3,10.3-26.9,10.3-37.1,0L523.8,528.1l41.5-41.5l129.6,129.6
			C705.1,626.3,705.1,643,694.9,653.2z"/>
		<path class="st4" d="M571.9,717.6L455.1,600.7l-12.8,12.8l116.8,116.8c11.5,11.5,30.3,11.3,41.7-0.2c2.2-2.2,3.9-4.7,5.2-7.4
			C595,728.5,581.2,726.8,571.9,717.6z"/>
		<path class="st4" d="M618.8,679.2L497.7,558.1l-12.8,12.8L606,692c11.5,11.5,29.7,11.8,41.2,0.4c2.2-2.2,4.2-5,5.5-7.6
			C641.7,690.4,628.1,688.5,618.8,679.2z"/>
		<path class="st4" d="M665.7,640.8L540.4,515.4l-12.8,12.8L653,653.6c11.5,11.5,29.2,12.4,40.6,0.9c2.2-2.2,4.4-5.3,5.8-7.9
			C688.3,652.3,675,650.1,665.7,640.8z"/>
		<polygon class="st3" points="398.7,319.9 465.2,329.6 438.1,379.5 		"/>
		<path class="st3" d="M353.6,378.3l52.7-53.1l137.4,10.2c16.6,1.4,29,15.9,27.6,32.5l0,0c-1.4,16.6-15.9,29-32.5,27.6l-80.9-5.6
			c0,0-16,73.4-47.5,91.5s-51.8,13.4-51.8,13.4L353.6,378.3z"/>
	</g>
	<g>
		<path class="st0" d="M539.3,333.8l-74.5-6.4L368.4,422c-11.8,11.8-11.8,30.9,0,42.6l0,0c11.8,11.8,30.9,11.8,42.6,0l58-56.6
			c0,0,59.7,45.6,95.4,39s66.1-51.3,66.1-51.3L554.6,318L539.3,333.8z"/>
		<path class="st0" d="M295.6,623.1l-4.4-4.4c-10.3-10.3-10.3-26.9,0-37.1l29.8-29.8c10.3-10.3,26.9-10.3,37.1,0l4.4,4.4
			c10.3,10.3,10.3,26.9,0,37.1l-29.8,29.8C322.4,633.4,305.8,633.4,295.6,623.1z"/>
		<path class="st0" d="M337.1,664.7l-4.4-4.4c-10.3-10.3-10.3-26.9,0-37.1l29.8-29.8c10.3-10.3,26.9-10.3,37.1,0l4.4,4.4
			c10.3,10.3,10.3,26.9,0,37.1l-29.8,29.8C364,674.9,347.3,674.9,337.1,664.7z"/>
		<path class="st0" d="M378.6,706.2l-4.4-4.4c-10.3-10.3-10.3-26.9,0-37.1l29.8-29.8c10.3-10.3,26.9-10.3,37.1,0l4.4,4.4
			c10.3,10.3,10.3,26.9,0,37.1l-29.8,29.8C405.5,716.5,388.9,716.5,378.6,706.2z"/>
		<path class="st0" d="M419.7,748.2l-4.4-4.4c-10.3-10.3-10.3-26.9,0-37.1l29.8-29.8c10.3-10.3,26.9-10.3,37.1,0l4.4,4.4
			c10.3,10.3,10.3,26.9,0,37.1l-29.8,29.8C446.6,758.4,430,758.4,419.7,748.2z"/>
		<path class="st5" d="M360.3,554c-1.4-1.4-2.9-2.6-4.5-3.6c6.9,11.3,5.6,26.3-4.2,36.1l-25.4,25.4c-10.1,10.1-25.7,11.3-37.1,3.6
			c1.2,1.9,2.5,3.8,4.2,5.5c11.5,11.5,30.1,11.5,41.5,0l25.4-25.4C371.8,584,371.8,565.4,360.3,554z"/>
		<path class="st5" d="M401.9,595.5c-1.4-1.4-2.9-2.6-4.5-3.6c6.9,11.3,5.6,26.3-4.2,36.1l-25.4,25.4c-10.1,10.1-25.7,11.3-37.1,3.6
			c1.2,1.9,2.5,3.8,4.2,5.5c11.5,11.5,30.1,11.5,41.5,0l25.4-25.4C413.3,625.6,413.3,607,401.9,595.5z"/>
		<path class="st5" d="M443.4,637c-1.4-1.4-2.9-2.6-4.5-3.6c6.9,11.3,5.6,26.3-4.2,36.1l-25.4,25.4c-10.1,10.1-25.7,11.3-37.1,3.6
			c1.2,1.9,2.5,3.8,4.2,5.5c11.5,11.5,30.1,11.5,41.5,0l25.4-25.4C454.9,667.1,454.9,648.5,443.4,637z"/>
		<path class="st5" d="M484.5,679c-1.4-1.4-2.9-2.6-4.5-3.6c6.9,11.3,5.6,26.3-4.2,36.1l-25.4,25.4c-10.1,10.1-25.7,11.3-37.1,3.6
			c1.2,1.9,2.5,3.8,4.2,5.5c11.5,11.5,30.1,11.5,41.5,0l25.4-25.4C495.9,709.1,495.9,690.5,484.5,679z"/>
	</g>
</g>
</svg>
