<?xml version="1.0" encoding="UTF-8"?>
<svg viewBox="0 0 196.43401 151.06975" xmlns="http://www.w3.org/2000/svg">
 <defs>
  <filter id="j">
   <feGaussianBlur stdDeviation="2.4048"/>
  </filter>
  <filter id="k">
   <feGaussianBlur stdDeviation="2.072"/>
  </filter>
  <linearGradient id="i" x1="8715" x2="12585" y1="-600.27" y2="-1309.9" gradientTransform="matrix(.03605 .00111 -.00111 .03605 206.14 207.44)" gradientUnits="userSpaceOnUse">
   <stop stop-color="#628cba" offset="0"/>
   <stop stop-color="#162d50" offset="1"/>
  </linearGradient>
  <linearGradient id="h" x1="109.58" x2="-4.0677" y1="-578.79" y2="-578.56" gradientTransform="matrix(.41496 .01278 -.01278 .41496 484.54 423.06)" gradientUnits="userSpaceOnUse">
   <stop stop-color="#006aa8" offset="0"/>
   <stop stop-color="#193154" offset="1"/>
  </linearGradient>
  <linearGradient id="g" x1="9261" x2="12135" y1="-1706.7" y2="-1984.2" gradientTransform="matrix(.03605 .00111 -.00119 .03855 206.4 206.85)" gradientUnits="userSpaceOnUse">
   <stop stop-color="#a80130" offset="0"/>
   <stop stop-color="#ec3f5b" offset=".4222"/>
   <stop stop-color="#ad001e" offset="1"/>
  </linearGradient>
  <linearGradient id="f" x1="11856" x2="13629" y1="-28.283" y2="-984.01" gradientTransform="matrix(.03605 .00111 -.00111 .03605 206.43 205.98)" gradientUnits="userSpaceOnUse">
   <stop stop-color="#243e63" offset="0"/>
   <stop stop-color="#006aa8" offset="1"/>
  </linearGradient>
  <linearGradient id="e" x1="2574.1" x2="8210.3" gradientTransform="matrix(.03605 .00111 -.00111 .03605 400.79 102.22)" gradientUnits="userSpaceOnUse">
   <stop stop-color="#1e3e64" offset="0"/>
   <stop stop-color="#2378b2" offset=".4717"/>
   <stop stop-color="#006aa8" offset="1"/>
  </linearGradient>
  <linearGradient id="d" x1="189.19" x2="342.44" gradientTransform="matrix(.9542 .0294 -.03143 1.0202 326.91 323.54)" gradientUnits="userSpaceOnUse">
   <stop stop-color="#e6e6e6" offset="0"/>
   <stop stop-color="#fff" offset=".4957"/>
   <stop stop-color="#ececec" offset="1"/>
  </linearGradient>
  <linearGradient id="c" x1="-678.07" x2="-614.66" y1="-932.87" y2="-1099.5" gradientUnits="userSpaceOnUse">
   <stop stop-color="#006aa8" offset="0"/>
   <stop stop-color="#194670" offset="1"/>
  </linearGradient>
  <linearGradient id="b" x1="8715" x2="12610" y1="-600.27" y2="-1150" gradientTransform="matrix(.03605 .00111 -.00111 .03605 206.14 207.44)" gradientUnits="userSpaceOnUse">
   <stop stop-color="#006aa8" offset="0"/>
   <stop stop-color="#162d50" offset="1"/>
  </linearGradient>
  <linearGradient id="a" x1="706.85" x2="523.96" y1="-87.831" y2="-79.637" gradientTransform="matrix(.9542 .0294 -.0294 .9542 8.4223 245.87)" gradientUnits="userSpaceOnUse">
   <stop stop-color="#d0d0d0" offset="0"/>
   <stop stop-color="#fff" offset="1"/>
  </linearGradient>
 </defs>
 <g transform="translate(-474.97 -193.2)">
  <path d="m586.41 198.97c-6.004-0.0127-12.367 0.15146-18.969 0.5-35.211 1.8589-63.533 8.3778-63.25 14.594 0.0222 0.48902 0.22956 0.98302 0.59375 1.4375 0.0829 0.77969 0.15326 1.3572 0.375 3.5625 0.31836 3.1727 0.72662 7.5534 1.1562 12.438 0.21626 2.4525 0.41982 5.0166 0.625 7.625 0.40761 5.1919 0.79175 10.507 1 15.219 0.0522 1.1778 0.0934 2.3155 0.125 3.4062s0.0548 2.1129 0.0625 3.0938c8e-5 0.01-8e-5 0.0214 0 0.0312 0.0294 3.7318-0.11312 7.9048-0.34375 12.219-0.0972 1.8274-0.22073 3.6891-0.34375 5.5312-0.17238-0.24928-0.33592-0.48933-0.46875-0.75-0.1429 1.7904-0.3044 4.1586-0.46875 6.5938l-0.1875 0.0625c-6.06 2.4893-12.565 5.1564-16.906 10.062-0.68098 0.7695-1.3148 1.6105-1.9375 2.4688-1.4403 1.5538-5.0412 6.2053-4.8438 14.156 0.1545 6.2198 4.1109 12.3 8.7188 16.469 5.1268 4.6385 12.448 6.4456 19.219 7.8438 7.8928 1.6298 16.12 1.0756 24.156 0.46875l0.5-0.0312c4.5816-0.23825 11.951-0.73844 16.438-1.6562 19.532-3.9956 38.558-8.439 57.844-12.312 11.002-2.2098 21.245-5.8881 31.531-9.7812 7.1508-2.7064 15.033-4.5113 20.906-9.4062 1.6649-1.3876 3.6875-5.3438 3.6875-5.3438l-0.375 0.0937c0.10999-0.41995 0.18346-0.83608 0.125-1.1562-0.25679-1.4061-2.375-3.5625-2.375-3.5625l-1.1875 0.375c-0.87037 0.0202-9.6592 0.2233-14.406 0.0312-4.7245-0.19115-11.494-0.83308-15.344-1.2188-0.082-0.81415-0.16545-1.5505-0.25-2.4062l0.0312-0.0312c-0.0773-0.78279-0.17236-1.5724-0.25-2.375-0.1616-1.6706-0.31729-3.2747-0.46875-4.9375-0.6212-9.6277-1.2656-21.16-1.3438-28.875-0.0196-1.9388-3e-3 -4.1384 0.0312-6.4688 1.4e-4 -0.01-1.5e-4 -0.0214 0-0.0312 0.0344-2.343 0.0824-4.8195 0.15625-7.375 0.14696-5.1119 0.37808-10.476 0.59375-15.344 0.34728-7.8036 0.62093-13.209 0.75-15.5 0.27205-0.45236 0.42676-0.89294 0.40625-1.3438-0.22978-5.0504-19.295-8.3201-45.312-8.375zm-34 127.06c-2.4047 0.61473-4.818 1.163-7.25 1.6562l7.25-1.6562z" filter="url(#j)"/>
  <g transform="matrix(.89654 0 0 .89654 42.659 133.11)">
   <path transform="matrix(.9542 .0294 -.0294 .9542 8.4223 245.87)" d="m536.59-95.781s-7.0278 1.4512-10.281 2.9062c-6.9874 3.1251-14.481 6.4581-19.375 12.344-0.743 0.89358-1.4481 1.8547-2.125 2.8438-1.5654 1.7643-5.7133 7.3714-5.1875 16.812 0.40422 7.258 5.2501 14.235 10.781 18.938 6.1541 5.2325 14.73 7.0484 22.688 8.4375 9.2761 1.6193 18.887 0.68532 28.25-0.3125 1.0222-0.10894 2.0429-0.23765 3.0625-0.375l0.1875-0.03125c5.2716-0.48649 11.971-1.2216 16.312-2.25 22.667-5.3689 44.742-11.282 67.125-16.5 12.769-2.9765 24.565-7.6459 36.438-12.562 8.2534-3.4178 17.411-5.791 24.094-11.719 1.134-1.0059 2.3338-3.0163 3.1562-4.5312l0.1875-0.0625 0.25-0.75 0.53125-1.0312-0.28125 0.09375c0.0955-0.44838 0.16589-0.88262 0.0937-1.2188-0.35047-1.6329-2.9062-4.0938-2.9062-4.0938l-1.4062 0.5c-1.0695 0.05774-11.278 0.6158-16.812 0.5625-7.3872-0.0712-22.125-1.1562-22.125-1.1562l-4.6875 5.4688-127.97-12.312zm45.094 49.688c-2.9111 0.8412-5.8304 1.5946-8.7812 2.2812l8.7812-2.2812z" filter="url(#k)" opacity=".5"/>
   <path d="m655.59 156.84c-2.1781 2.7688-13.476 11.042-59.565 14.812-33.326 2.726-72.405 1.039-78.123-10.182-0.73721 9.2365-1.8926 29.007-1.965 33.025 5.7008 11.212 46.133 13.576 79.518 9.9652 23.483-2.5397 63.176-15.617 63.176-15.617s-2.2737-20.939-3.0418-32.004z" fill="url(#i)"/>
   <path d="m691.22 178.59s-11.131 0.26694-16.69 0.0421c-7.0468-0.28512-21.084-1.7622-21.084-1.7622l-16.985 18.668 43.657-8.6679 13.214-4.5994z" fill="#1e3e64"/>
   <path d="m491.13 196.43c-0.0806-5.9375 3.2538-11.852 7.1891-16.299 4.8428-5.4722 12.074-8.4437 18.833-11.22 3.1472-1.2928 9.9091-2.4481 9.9091-2.4481l142.62 18.161-83.421 26.538-47.139 10.741-17.684-0.54485-22.55-8.5617s-7.6741-10.33-7.7561-16.366z" fill="url(#h)"/>
   <path d="m515.27 90.157s3.7647 34.83 3.9026 52.334c0.13116 16.65-2.7721 41.649-2.9271 49.868 5.6773 11.975 46.108 14.41 79.503 10.478 23.49-2.7651 61.996-17.121 61.996-17.121s-2.6882-34.323-2.8624-51.533c-0.17604-17.384 1.8365-52.127 1.8365-52.127z" fill="url(#g)"/>
   <path d="m544.85 226.49s15.376-0.51415 22.877-2.0486c21.786-4.4567 43.028-9.4249 64.539-13.745 12.272-2.4648 23.674-6.5718 35.148-10.914 7.9759-3.0187 16.783-5.0317 23.334-10.491 1.857-1.5477 4.1174-5.97 4.1174-5.97l-75.374 20.689z" fill="url(#f)"/>
   <path d="m505.64 212.2c3.7774 3.1717 8.3351 5.6925 13.141 6.8021 11.575 2.6724 23.891 0.98233 35.628-0.84927 22.353-3.4882 43.383-12.855 65.118-19.132 21.484-6.2045 64.536-18.316 64.536-18.316l7.8661-2.539s2.3725 2.4075 2.6589 3.9759c0.16976 0.92968-0.64137 2.7616-0.64137 2.7616s-27.305 8.111-40.981 12.088c-11.96 3.4781-24.023 6.6063-35.919 10.297-15.093 4.6827-29.641 11.163-44.965 15.025-7.6132 1.9185-15.38 3.4221-23.209 4.0133-8.9639 0.67685-18.159 1.2652-26.962-0.55259-7.5523-1.5594-15.708-3.5524-21.426-8.7262-5.1396-4.6501-9.5526-11.441-9.7249-18.379-0.27457-11.054 6.0712-16.501 6.0712-16.501s-3.1127 11.089-1.6166 16.36c1.5646 5.5136 6.037 9.9865 10.426 13.672z" fill="url(#e)"/>
   <path d="m656.73 82.05-13.425 0.76707-1.8019 0.35933 1.8316 99.426-0.67481 8.3398c8.8484-2.9192 15.084-5.2154 15.084-5.2154s-2.6844-34.35-2.8586-51.56c-0.17604-17.384 1.8445-52.117 1.8445-52.117zm-35.903 5.7227-25.105 4.9704 1.8316 99.426-0.86186 10.536c7.8047-1.0008 17.116-3.2048 26.113-5.7052l-1.9773-109.23zm-47 0.65804-25.105 4.9704 1.8316 99.426-0.87955 11.11c8.1862 0.66519 17.195 0.78439 26.282 0.42682l-2.1289-115.93zm-46.235 1.0326-12.319 0.70543s3.7716 34.822 3.9095 52.326c0.13116 16.65-2.7837 41.631-2.9387 49.85 1.705 3.5961 6.5727 6.3339 13.414 8.2952l-2.0665-111.18z" fill="url(#d)"/>
   <path transform="matrix(.45235 -.02388 .0104 .22855 906.84 306.9)" d="m-528.44-1035.7c0 30.336-70.384 54.928-157.21 54.928s-157.21-24.592-157.21-54.928 70.384-54.928 157.21-54.928 157.21 24.592 157.21 54.928z" fill="url(#c)"/>
   <path d="m655.59 156.84c-2.1781 2.7688-13.476 11.042-59.565 14.812-33.326 2.726-72.405 1.039-78.123-10.182-0.73721 9.2365-1.8926 29.007-1.965 33.025 5.7008 11.212 46.133 13.576 79.518 9.9652 23.483-2.5397 63.176-15.617 63.176-15.617s-2.2737-20.939-3.0418-32.004z" fill="url(#b)"/>
   <path d="m643.07 165.29-1.3831 10.016-9.5078 3.438 9.0863 4.4287 0.34549 10.099 7.0004-7.3058 9.7332 2.807-4.7702-8.8922 3.5964-5.3214c-0.0862-0.87312-0.15964-1.7687-0.24624-2.664l-7.6534 1.3759-6.2011-7.9812zm-35.428 6.7583-2.763 10.242-10.369 2.3369 8.895 5.7958-0.98217 10.565 8.2642-6.6699 9.7497 4.2104-3.8137-9.9074 7.0215-7.9916-10.612 0.5386-5.39-9.1202zm-73.503-0.35442-4.5544 9.2914-9.3668-0.16921 6.3584 7.7174-3.1153 10.052 8.4972-4.5436 7.4434 6.4077-1.1079-10.54 7.7091-6.0901-9.1915-1.9845-2.6723-10.141zm36.256 3.1765-3.7975 9.9116-10.545 1.257 8.2412 6.671-2.052 10.413 8.8936-5.785 9.2721 5.1806-2.7581-10.263 7.7729-7.1924-10.578-0.5647-4.449-9.6285z" fill="url(#a)"/>
  </g>
 </g>
</svg>
