<?xml version="1.0" encoding="UTF-8"?>
<svg version="1.1" viewBox="0 0 250 250" xmlns="http://www.w3.org/2000/svg">
 <defs>
  <filter id="e" x="-.10899" y="-.21216" width="1.218" height="1.4243" color-interpolation-filters="sRGB">
   <feGaussianBlur stdDeviation="0.72146876"/>
  </filter>
  <filter id="g" x="-.10899" y="-.21216" width="1.218" height="1.4243" color-interpolation-filters="sRGB">
   <feGaussianBlur stdDeviation="0.72146876"/>
  </filter>
  <filter id="f" x="-.10899" y="-.21216" width="1.218" height="1.4243" color-interpolation-filters="sRGB">
   <feGaussianBlur stdDeviation="0.72146876"/>
  </filter>
  <radialGradient id="a" cx="14.207" cy="222.04" r="8.2519" gradientTransform="scale(1.3952 .71673)" gradientUnits="userSpaceOnUse">
   <stop offset="0"/>
   <stop stop-opacity="0" offset="1"/>
  </radialGradient>
 </defs>
 <g transform="translate(0,122)">
  <path transform="matrix(8.813 0 0 5.9975 -80.612 -888.56)" d="m28.402 158.7c0 2.2537-3.5565 4.0807-7.9438 4.0807-4.3872 0-7.9438-1.827-7.9438-4.0807s3.5565-4.0807 7.9438-4.0807c4.3872 0 7.9438 1.827 7.9438 4.0807z" fill="url(#a)" fill-rule="evenodd" filter="url(#e)" opacity=".5"/>
  <path transform="matrix(8.813 0 0 7.9788 -100.19 -1266.2)" d="m28.402 158.7c0 2.2537-3.5565 4.0807-7.9438 4.0807-4.3872 0-7.9438-1.827-7.9438-4.0807s3.5565-4.0807 7.9438-4.0807c4.3872 0 7.9438 1.827 7.9438 4.0807z" fill="url(#a)" fill-rule="evenodd" filter="url(#g)" opacity=".5"/>
  <path transform="matrix(8.813 0 0 6.6232 -77.262 -1101.4)" d="m28.402 158.7c0 2.2537-3.5565 4.0807-7.9438 4.0807-4.3872 0-7.9438-1.827-7.9438-4.0807s3.5565-4.0807 7.9438-4.0807c4.3872 0 7.9438 1.827 7.9438 4.0807z" fill="url(#a)" fill-rule="evenodd" filter="url(#f)" opacity=".5"/>
  <path d="m52.724-41.558c2.5882-2.5518 6.066-6.9476 9.2608-10.118 2.7499-2.7418 6.0256-5.6535 8.6137-8.2498 2.7095-2.7176 7.4814-5.7546 10.878-7.8737 3.3565-2.0907 4.6102-5.3745 8.6137-6.3733 2.8308-0.70366 4.6102-3.1664 7.5218-3.7528 2.5073-0.50146 6.3895-2.2606 8.6137-3.3727 0.48528-0.25073 1.011-0.50146 1.4963-0.74814 3.4374-1.7268 6.9557-3.7003 10.514-4.8771 6.9557-2.3253 9.6247-1.5003 16.863-1.5003 1.4963 0 5.0146 1.9411 6.3895 2.6246 3.1948 1.6176 7.6432 2.6245 11.242 2.6245 3.2352 0 8.8968 2.9966 11.242 4.8771 2.3455 1.8643 6.1469 2.7054 8.735 4.2583 2.022 1.2172 3.2352 7.0446 4.7719 8.8644 0.60659 0.75218 1.2536 1.5003 1.8602 2.2485 2.7095 3.2514 4.4888 7.1255 9.0181 8.2498 2.1838 0.54998 5.4998 3.3242 7.4814 4.1249 2.9926 1.193 4.3675 2.8712 6.3895 4.8771 2.5477 2.5801 2.2242 4.1168-0.76836 7.1215-4.5293 4.5212-11.93 7.4814-17.996 9.0019-7.9262 1.9775-15.569 1.7066-23.253 4.4969-5.1359 1.8683-26.205 3.7569-31.867 2.6286-0.6066-0.12536-1.2536 0-1.8602 0-15.448 0-30.775-5.3583-45.778-7.5016-8.2498-1.1808-16.297-0.33161-22.849-5.2491-2.5073-1.8885-4.3675-3.3403-5.1359-6.3814z" fill="#d45500" fill-rule="evenodd"/>
  <path d="m126.85-87.671c1.011 0.49741 1.011 0.49741 0 0-12.415-6.2075 13.062 6.3289 16.863 10.122 6.43 6.4219 13.345 12.981 19.896 19.5 3.1139 3.1179 5.6212 11.145 5.6212 15.371 0 3.765 1.4963 7.356 1.4963 11.25 0 2.4668 1.4963 3.7488 3.7609 3.7488 2.7499 0 7.5218-1.2941 10.474-1.8805 2.6286-0.52572 4.1653-1.9694 6.7535-2.6165 3.2756-0.82093 11.202-2.4547 12.577-5.2572 0.97056-1.9169 1.9007-3.4374 1.9007-5.512 0-3.7367-6.8344-8.6865-9.6247-10.094-3.5183-1.7551-7.2792-3.8499-11.242-4.6344-3.4374-0.69152-5.8638-3.6436-8.2498-6.0013-1.9816-1.9816-0.84923-6.8546-2.9926-8.9858-2.3455-2.3455-5.7829-4.23-8.6137-5.6373-5.7425-2.8672-11.525-3.7245-17.268-5.6252-4.9337-1.654-9.9482-2.2161-14.599-3.3767-3.4374-0.85329-14.882-2.5032-12.375-1.8724 1.5772 0.39227 1.7389 0.31139 3.3565 1.1242" fill="#f95" fill-rule="evenodd"/>
  <path d="m129.88-90.11c-6.4704-0.5702-7.1983-0.38013-13.669 3.5385-3.7609 2.2849-8.452 4.3756-10.353 4.5495-9.4225 0.86946-29.926 14.445-44.605 29.57-5.6212 5.7587-10.11 10.781-10.11 11.121 0 0.98269 1.8602 0.63491 4.9337-0.75623 1.5367-0.70366 2.7499-1.8158 2.7499-2.5275 0-2.5356 17.389-18.097 28.308-25.275 12.213-8.0152 15.569-9.4791 20.341-9.4791 1.8602 0 6.1469-1.8966 10.11-4.4241 7.6027-4.8124 10.838-5.3381 18.602-2.9036 2.669 0.8452 7.8454 2.0624 11.485 2.7782 3.6396 0.71984 10.797 3.312 15.812 5.6859 7.5218 3.5749 9.1799 4.7962 9.7056 7.3318 0.36396 1.6823 1.1323 4.1087 1.658 5.4351 1.0514 2.6165 15.327 12.508 18.077 12.508 0.93011 0 3.9631 2.3213 6.713 5.055 5.1763 5.1844 7.6027 6.3329 6.43 3.033-1.2536-3.587-6.1064-7.9626-12.253-10.866-10.959-5.1763-15.327-8.7795-16.055-13.268-0.36396-2.2121-1.7794-4.9701-3.1543-6.1954-7.1579-6.2682-28.874-13.511-44.727-14.91z" fill="#5c2700"/>
  <path d="m89.126-49.715c-2.4935 1.0083-6.9386 5.7026-10.083 8.0444-3.9571 2.9814-9.1069 4.586-13.064 7.5403-3.3067 2.499-5.4208 4.6998-8.5106 7.0361-3.6861 2.7483-6.5049 8.0119-9.5947 11.058-0.81311 0.8348-1.6804 1.675-2.4935 2.5098-2.5478 2.5478-2.6562 9.6706-3.5235 13.069-0.867 3.5505-3.631 8.8628-4.499 12.213-1.572 6.2772 4.6618 6.5483 10.028 9.9037 6.1797 3.8596 11.058 9.2153 18.105 11.562 0.65049 0.21683 1.3552 0.33067 2.0057 0.49871 0.54208 0.1301 1.0299 0.33609 1.5178 0.50413 12.468 4.1631 28.676 2.0111 41.686 2.0111 17.021 0 34.151-2.0111 50.792-2.0111 8.619 0 15.991-3.3988 24.122-5.025 6.3965-1.2739 11.98-6.4724 5.5292-9.0472-2.7646-1.1004-3.903-7.1554-4.4992-9.5514-1.2468-4.7974-5.1497-8.6244-8.5648-11.562-3.3066-2.8296-6.7759-5.7406-10.083-9.0472-2.1141-2.1195-2.7104-5.9249-4.0114-8.5431-3.144-6.3206-7.4806-6.5266-13.552-8.039-6.0712-1.5124-9.8658-4.9437-15.07-7.0416-5.746-2.293-11.221-8.1149-17.075-11.053-4.8787-2.4393-9.7032-3.4476-15.124-4.5263-3.0356-0.60712-6.9386 0-10.028 0-2.3851 0-1.0299 0.09757-4.0114-0.50413z" fill="#a40" fill-rule="evenodd"/>
  <path d="m105.17-49.211c5.9628 3.7078 10.625 8.9659 16.1 13.069 5.5292 4.1306 9.3237 10.294 14.094 15.081 5.2581 5.2798 7.3722 12.939 11.058 19.097 1.8431 3.0627 3.1982 7.795 4.0114 11.058 1.0299 4.0764 1.0299 8.6136 2.0057 12.565 0.7047 2.7971 0.16262 7.5077-0.48787 10.05-0.70469 2.8513 4.0656 2.0219 6.017 2.5152 4.0656 1.0137 9.1069-0.50413 13.064-0.50413 3.4151 0 7.589-1.8322 10.57-3.0139 3.5777-1.4365 9.1611-3.2416 12.359-4.857 2.7646-1.3823-1.1384-4.857-2.3309-7.2042-1.9515-3.9409-4.2824-6.3802-7.047-10.055-2.1141-2.8459-3.6861-6.0387-5.5292-9.0472-2.5478-4.3258-7.7517-8.2992-11.546-12.061-3.1982-3.2362-3.1982-7.0632-6.5049-9.5514-4.174-3.1061-10.354-4.9329-15.612-7.0361-5.8544-2.3418-11.221-4.922-16.045-8.5431-4.174-3.0952-8.6732-6.5862-13.606-8.5485-1.301-0.53123-2.6562-1.0028-4.0114-1.507-3.0898-1.16-3.144 0.53123-6.5591-1.507z" fill="#ff7f2a" fill-rule="evenodd"/>
  <path d="m93.625-52.67c-11.329 4.3095-23.201 11.4-29.814 17.785-4.0656 3.9409-8.6732 7.4752-10.354 7.9631-3.6861 1.1004-7.5348 8.2666-9.6489 17.954-0.86732 4.0601-2.8188 10.316-4.3908 13.893-3.2525 7.3234-3.6319 8.9768-1.5178 8.9768 3.3609 0 7.7517-10.76 12.522-31.337 0.65049-2.6941 2.7646-5.0521 6.4507-6.944 3.0356-1.572 8.2395-5.7352 11.492-9.1502 3.5777-3.7295 10.299-8.2395 16.967-11.351 9.4863-4.4288 12.142-4.96 18.268-4.2336 8.1853 0.97031 18.81 6.4995 22.225 11.687 1.572 2.4014 6.1255 4.8082 14.528 7.627 17.021 5.6647 23.309 9.8658 23.418 15.753 0 1.3281 3.2524 4.9979 7.1012 8.1311 8.7274 7.0632 10.299 9.1773 11.492 14.566 0.54208 2.3526 3.0356 6.3585 5.6376 8.9822 4.445 4.5751 6.9386 5.3232 6.9386 2.0328 0-0.85648-1.6262-2.8893-3.5777-4.4071s-3.8487-4.9491-4.3908-7.6216c-0.65049-3.2741-3.5777-7.1229-8.8358-11.861-4.2282-3.865-8.1853-6.9386-8.7816-6.944-0.59627-0.0055-1.0299-1.5829-1.0299-3.556 0-5.0576-8.6732-11.812-19.46-15.075-4.8787-1.4799-9.2695-3.2253-9.6489-3.8975-0.43366-0.67217-1.7888-1.1871-3.0898-1.1871-1.2468 0-5.8544-3.1711-10.137-7.112-6.5049-5.9249-9.6489-7.5945-18.16-9.6598-7.589-1.8485-11.275-2.1304-14.202-1.0137z" fill="#5c2700"/>
  <path d="m63.438 72.912c2.8914-2.8507 6.7766-7.7615 10.346-11.303 3.0721-3.063 6.7315-6.3158 9.6228-9.2162 3.0269-3.0359 8.3578-6.4288 12.153-8.7961 3.7497-2.3357 5.1502-6.0041 9.6228-7.12 3.1624-0.78609 5.1502-3.5374 8.403-4.1925 2.801-0.5602 7.138-2.5254 9.6228-3.7678 0.54213-0.2801 1.1294-0.5602 1.6716-0.83578 3.8401-1.9291 7.7705-4.1337 11.746-5.4484 7.7706-2.5977 10.752-1.6761 18.839-1.6761 1.6716 0 5.602 2.1685 7.1381 2.932 3.569 1.8071 8.5386 2.932 12.559 2.932 3.6142 0 9.9391 3.3477 12.559 5.4484 2.6203 2.0827 6.867 3.0224 9.7584 4.7572 2.2589 1.3598 3.6142 7.8699 5.331 9.9029 0.67767 0.8403 1.4005 1.6761 2.0782 2.5119 3.0269 3.6323 5.0147 7.9603 10.075 9.2162 2.4396 0.61442 6.1442 3.7136 8.3579 4.6081 3.3431 1.3327 4.8792 3.2076 7.138 5.4484 2.8462 2.8823 2.4848 4.5991-0.85837 7.9558-5.0599 5.0509-13.327 8.3578-20.104 10.057-8.8548 2.2092-17.393 1.9065-25.977 5.0237-5.7376 2.0872-29.275 4.197-35.6 2.9365-0.67766-0.14005-1.4005 0-2.0782 0-17.258 0-34.38-5.986-51.141-8.3804-9.2162-1.3192-18.207-0.37046-25.525-5.864-2.801-2.1098-4.8792-3.7317-5.7375-7.129z" fill="#a40" fill-rule="evenodd"/>
  <path d="m146.25 21.396c1.1294 0.55568 1.1294 0.55568 0 0-13.87-6.9348 14.592 7.0703 18.839 11.308 7.1832 7.1742 14.909 14.502 22.227 21.785 3.4787 3.4832 6.2797 12.451 6.2797 17.172 0 4.206 1.6716 8.2178 1.6716 12.568 0 2.7558 1.6716 4.188 4.2015 4.188 3.0721 0 8.403-1.4457 11.701-2.1008 2.9365-0.5873 4.6533-2.2001 7.5446-2.923 3.6594-0.9171 12.514-2.7423 14.05-5.8731 1.0843-2.1414 2.1234-3.8401 2.1234-6.1577 0-4.1744-7.635-9.7041-10.752-11.276-3.9304-1.9607-8.132-4.3009-12.559-5.1773-3.8401-0.77254-6.5508-4.0705-9.2162-6.7043-2.2137-2.2137-0.94873-7.6576-3.3432-10.038-2.6203-2.6203-6.4604-4.7256-9.6228-6.2978-6.4152-3.2031-12.876-4.1609-19.291-6.2842-5.5117-1.8478-11.114-2.4757-16.309-3.7723-3.8401-0.95325-16.625-2.7965-13.824-2.0917 1.7619 0.43822 1.9426 0.34787 3.7497 1.2559" fill="#ff7f2a" fill-rule="evenodd"/>
  <path d="m149.64 18.672c-7.2284-0.637-8.0416-0.42467-15.27 3.953-4.2015 2.5525-9.4421 4.8882-11.565 5.0825-10.526 0.97132-33.431 16.137-49.831 33.034-6.2797 6.4333-11.294 12.044-11.294 12.424 0 1.0978 2.0782 0.70929 5.5117-0.84482 1.7167-0.78609 3.0721-2.0285 3.0721-2.8236 0-2.8326 19.426-20.217 31.624-28.236 13.644-8.9542 17.393-10.59 22.724-10.59 2.0782 0 6.867-2.1188 11.294-4.9424 8.4934-5.3761 12.108-5.9634 20.782-3.2437 2.9817 0.94421 8.7644 2.3041 12.83 3.1037 4.066 0.80416 12.062 3.7 17.664 6.352 8.403 3.9937 10.255 5.3581 10.843 8.1907 0.40659 1.8794 1.265 4.59 1.8523 6.0719 1.1746 2.923 17.122 13.973 20.194 13.973 1.0391 0 4.4274 2.5932 7.4995 5.6472 5.7827 5.7918 8.4934 7.0748 7.1832 3.3883-1.4005-4.0072-6.8218-8.8955-13.689-12.139-12.24-5.783-17.12-9.808-17.93-14.823-0.40659-2.4712-1.9878-5.5523-3.5238-6.9212-7.9964-7.0025-32.257-15.094-49.966-16.657z" fill="#5c2700"/>
 </g>
</svg>
