<?xml version="1.0" encoding="UTF-8"?>
<svg viewBox="0 0 125 125" xmlns="http://www.w3.org/2000/svg" xmlns:xlink="http://www.w3.org/1999/xlink">
 <defs>
  <linearGradient id="a">
   <stop stop-color="#fff" offset="0"/>
   <stop stop-color="#fff" stop-opacity="0" offset="1"/>
  </linearGradient>
  <linearGradient id="b">
   <stop stop-opacity=".40476" offset="0"/>
   <stop stop-opacity="0" offset="1"/>
  </linearGradient>
  <linearGradient id="j" x1=".07353" x2=".59559" y1=".39773" y2=".38068" xlink:href="#b"/>
  <linearGradient id="i" x1=".19027" x2=".5531" y1=".27841" y2=".55114" xlink:href="#b"/>
  <linearGradient id="h" x1=".87313" x2=".52239" y1=".83523" y2=".36932" xlink:href="#b"/>
  <linearGradient id="g" x1=".81618" x2=".46691" y1=".73864" y2=".45455" xlink:href="#b"/>
  <radialGradient id="f" cx=".80469" cy=".28977" r=".70908" fx=".81618" fy=".3125" xlink:href="#a"/>
  <radialGradient id="e" cx=".2" cy=".14773" r=".67885" fx=".19989" fy=".15909" xlink:href="#a"/>
  <radialGradient id="d" cx=".80973" cy=".74432" fx=".81858" xlink:href="#a"/>
  <radialGradient id="c" cx=".27857" cy=".3125" r=".6251" fy=".32955" xlink:href="#a"/>
 </defs>
 <path d="m61.635 18.895c-9.6953-1.1542-31.176 19.52-37.062 41.219 0 9.2078 74.125 9.2078 74.125 0-1.0153-5.8378-4.271-12.081-8.375-17.938-0.73396 1.6167-2.4546 2.75-4.4688 2.75h-7.9062c-2.6856 0-4.875-2.0062-4.875-4.5v-13.969c0-0.67849 0.21291-1.2991 0.5-1.875-4.7212-3.5509-9.109-5.8307-11.938-5.6875z" fill="#ffc800" fill-rule="evenodd" stroke="#000" stroke-linecap="round" stroke-linejoin="round" stroke-width="3.75"/>
 <path d="m24.829 60.217c-0.10755 0.75922-0.25 1.5234-0.25 2.3125v38.781c0 9.2078 7.5692 16.625 16.969 16.625h40.156c9.3996 0 16.969-7.4172 16.969-16.625v-38.781c0-0.78912-0.14245-1.5533-0.25-2.3125-2.5613 8.5484-71.051 8.5508-73.594 0z" fill="#ffc800" fill-rule="evenodd" stroke="#000" stroke-linecap="round" stroke-linejoin="round" stroke-width="3.75"/>
 <path d="m25.175 59.987c-0.10755 0.75922-0.25 1.5234-0.25 2.3125v38.781c0 9.2078 7.5692 16.625 16.969 16.625h40.156c9.3996 0 16.969-7.4172 16.969-16.625v-38.781c0-0.78912-0.14245-1.5533-0.25-2.3125-2.5613 8.5484-71.051 8.5508-73.594 0z" fill="url(#i)" fill-rule="evenodd"/>
 <path d="m52.571 82.792h15.702a5.5402 5.1939 0 0 1 5.5402 5.1939v24.858a5.5402 5.1939 0 0 1 -5.5402 5.1939h-15.702a5.5402 5.1939 0 0 1 -5.5402 -5.1939v-24.858a5.5402 5.1939 0 0 1 5.5402 -5.1939" fill="#ffc800" fill-rule="evenodd" stroke="#000" stroke-linecap="round" stroke-linejoin="round" stroke-width="3.75"/>
 <path d="m77.932 21.066h7.917a4.8476 4.5014 0 0 1 4.8476 4.5014v13.962a4.8476 4.5014 0 0 1 -4.8476 4.5014h-7.917a4.8476 4.5014 0 0 1 -4.8476 -4.5014v-13.962a4.8476 4.5014 0 0 1 4.8476 -4.5014" fill="#ffc800" fill-rule="evenodd" stroke="#000" stroke-linecap="round" stroke-linejoin="round" stroke-width="3.75"/>
 <path d="m61.981 18.665c-9.6953-1.1542-31.176 19.52-37.062 41.219 0 9.2078 74.125 9.2078 74.125 0-1.0153-5.8378-4.271-12.081-8.375-17.938-0.73396 1.6167-2.4546 2.75-4.4688 2.75h-7.9062c-2.6856 0-4.875-2.0062-4.875-4.5v-13.969c0-0.6785 0.21291-1.2991 0.5-1.875-4.7212-3.5509-9.109-5.8307-11.938-5.6875z" fill="url(#g)" fill-rule="evenodd"/>
 <path d="m26.406 101.06c-0.31952 10.492 10.731 16.559 20.156 14.812 13.294-0.54978 26.854 1.1384 39.978-0.91845 9.9156-2.8462 10.778-14.291 9.9594-22.894v-27.875c-19.221 5.9878-40.016 4.7292-59.844 2.7812-5.2626-0.73761-12.865-5.782-10.25 3.2188v30.875z" fill="url(#d)" fill-rule="evenodd"/>
 <path d="m52.917 82.562h15.702a5.5402 5.1939 0 0 1 5.5402 5.1939v24.858a5.5402 5.1939 0 0 1 -5.5402 5.1939h-15.702a5.5402 5.1939 0 0 1 -5.5402 -5.1939v-24.858a5.5402 5.1939 0 0 1 5.5402 -5.1939" fill="url(#h)" fill-rule="evenodd"/>
 <path d="m78.278 20.836h7.917a4.8476 4.5014 0 0 1 4.8476 4.5014v13.962a4.8476 4.5014 0 0 1 -4.8476 4.5014h-7.917a4.8476 4.5014 0 0 1 -4.8476 -4.5014v-13.962a4.8476 4.5014 0 0 1 4.8476 -4.5014" fill="url(#j)" fill-rule="evenodd"/>
 <path d="m58 21.281c-15.489 7.3432-26.065 22.734-31.438 38.625 11.15 5.5322 24.665 4.5193 36.968 4.997 10.927-0.70335 23.181 0.23623 32.876-5.0907-0.93174-5.2788-3.7951-9.8479-6.5938-14.312-5.4962 1.923-14.188 3.2454-18.125-2.1875-2.2242-5.7164 0.63932-13.312-1.4359-18.414-3.6298-2.6104-7.5812-5.0592-12.252-3.617z" fill="url(#c)" fill-rule="evenodd"/>
 <path d="m51.315 85.062c-4.418 3.697-1.0305 11.001-2.0938 16.125 1.1039 4.6415-2.942 13.652 3.75 14.781 6.0073-0.97162 13.617 2.0736 18.596-1.7718 0.79937-9.0123 0.57452-18.429 0.1229-27.509-4.44-4.1211-11.862-0.9288-17.469-1.9375-0.99157-0.12618-1.9429 0.1376-2.9062 0.3125z" fill="url(#e)" fill-rule="evenodd"/>
 <path d="m76.625 23.281c-3.8271 3.8786-0.71173 10.932-1.7188 16.031 1.6387 4.6043 9.1807 2.7022 12.844 1.8438 1.6478-5.1257 0.61507-11.203 0.53125-16.625-2.677-2.8841-8.1308-1.2473-11.656-1.25z" fill="url(#f)" fill-rule="evenodd"/>
</svg>
