<?xml version="1.0" encoding="UTF-8"?>
<svg viewBox="0 0 631.72565 399.05856" xmlns="http://www.w3.org/2000/svg" xmlns:xlink="http://www.w3.org/1999/xlink">
 <defs>
  <linearGradient id="c">
   <stop stop-color="#0f0406" offset="0"/>
   <stop stop-color="#391e03" stop-opacity=".5" offset="1"/>
  </linearGradient>
  <linearGradient id="d">
   <stop stop-color="#e1b96f" stop-opacity=".5" offset="0"/>
   <stop stop-color="#ca9e4a" stop-opacity=".8" offset=".75979"/>
   <stop stop-color="#120b00" offset="1"/>
  </linearGradient>
  <linearGradient id="b">
   <stop stop-color="#b68b82" offset="0"/>
   <stop stop-color="#180f00" offset="1"/>
  </linearGradient>
  <linearGradient id="a">
   <stop stop-color="#b07355" offset="0"/>
   <stop stop-color="#b07355" stop-opacity="0" offset="1"/>
  </linearGradient>
  <linearGradient id="e">
   <stop stop-color="#d2b9aa" offset="0"/>
   <stop stop-color="#5b493c" offset="1"/>
  </linearGradient>
  <linearGradient id="ah" x1="44.534" x2="312.24" y1="456.47" y2="500.77" gradientTransform="matrix(-1 .08932 0 1.0392 705.8 -50.042)" gradientUnits="userSpaceOnUse" xlink:href="#d"/>
  <linearGradient id="ag" x1="44.534" x2="312.24" y1="452.19" y2="500.77" gradientUnits="userSpaceOnUse" xlink:href="#d"/>
  <radialGradient id="z" cx="348.49" cy="465.06" r="56.178" gradientUnits="userSpaceOnUse">
   <stop stop-color="#46180a" offset="0"/>
   <stop stop-color="#1a070a" offset="1"/>
  </radialGradient>
  <radialGradient id="u" cx="349.52" cy="481.21" r="38.861" gradientTransform="matrix(.98989 1.6274e-8 2.5021e-8 1.5087 4.2766 -242.68)" gradientUnits="userSpaceOnUse">
   <stop stop-color="#23090d" offset="0"/>
   <stop stop-color="#391e03" stop-opacity=".5" offset="1"/>
  </radialGradient>
  <radialGradient id="j" cx="86.746" cy="650.86" r="66.027" gradientTransform="matrix(1.5197 0 0 1.8169 223.52 -530.33)" gradientUnits="userSpaceOnUse">
   <stop stop-color="#f1dba5" offset="0"/>
   <stop stop-color="#d96c2b" offset=".5"/>
   <stop stop-color="#23090d" offset="1"/>
  </radialGradient>
  <radialGradient id="af" cx="295.67" cy="465.69" r="12.577" gradientTransform="matrix(.76893 .47034 -.31934 .52207 217.39 82.167)" gradientUnits="userSpaceOnUse" xlink:href="#a"/>
  <radialGradient id="ae" cx="260.54" cy="446.41" r="16.802" gradientTransform="matrix(.66904 .41611 -.29354 .47197 217.27 126.76)" gradientUnits="userSpaceOnUse" xlink:href="#a"/>
  <radialGradient id="ad" cx="233.69" cy="414" r="5.0737" gradientTransform="matrix(1.0797 -.4959 .75401 1.6417 -331.04 -149.97)" gradientUnits="userSpaceOnUse" xlink:href="#a"/>
  <radialGradient id="ac" cx="295.67" cy="465.69" r="12.577" gradientTransform="matrix(-.73248 .56618 .3042 .48226 470.3 72.495)" gradientUnits="userSpaceOnUse" xlink:href="#a"/>
  <radialGradient id="ab" cx="260.54" cy="446.41" r="16.802" gradientTransform="matrix(-.63733 .4995 .27963 .43538 470.41 117.07)" gradientUnits="userSpaceOnUse" xlink:href="#a"/>
  <radialGradient id="aa" cx="233.69" cy="414" r="5.0737" gradientTransform="matrix(-1.0285 -.36132 -.71827 1.7356 992.73 -228)" gradientUnits="userSpaceOnUse" xlink:href="#a"/>
  <radialGradient id="y" cx="378.93" cy="418.51" r="18.936" gradientTransform="matrix(1.9913 -1.6957e-7 1.9286e-7 2.2648 -375.64 -529.33)" gradientUnits="userSpaceOnUse" xlink:href="#c"/>
  <radialGradient id="x" cx="314.47" cy="421.43" r="18.936" gradientTransform="matrix(1.0158 -5.4774e-8 4.7494e-8 .88077 -4.9601 50.248)" gradientUnits="userSpaceOnUse" xlink:href="#c"/>
  <radialGradient id="w" cx="307.93" cy="421.01" r="9.7478" gradientTransform="matrix(1 0 0 1.2085 0 -87.697)" gradientUnits="userSpaceOnUse" xlink:href="#e"/>
  <radialGradient id="v" cx="307.93" cy="421.01" r="9.7478" gradientTransform="matrix(-1 0 0 1.2085 688.97 -92.062)" gradientUnits="userSpaceOnUse" xlink:href="#e"/>
  <radialGradient id="t" cx="269.2" cy="622.88" r="10.694" gradientTransform="matrix(.36036 .17107 -.95681 2.0155 768.17 -674.76)" gradientUnits="userSpaceOnUse" xlink:href="#a"/>
  <radialGradient id="s" cx="252.08" cy="658.34" r="9.8202" gradientTransform="matrix(.39526 .26773 -.66995 .98909 594.38 -60.059)" gradientUnits="userSpaceOnUse" xlink:href="#a"/>
  <radialGradient id="r" cx="238.23" cy="675.82" r="4.5973" gradientTransform="matrix(.74227 2.119e-7 -2.9735e-7 1.0416 61.399 -28.119)" gradientUnits="userSpaceOnUse" xlink:href="#a"/>
  <radialGradient id="q" cx="260.58" cy="564.65" r="15.949" gradientTransform="matrix(.95904 -.5434 .19763 .3488 -101.36 510.88)" gradientUnits="userSpaceOnUse" xlink:href="#a"/>
  <radialGradient id="p" cx="231.58" cy="599.03" r="6.7101" gradientTransform="matrix(.97378 .27908 -.67047 2.3394 407.18 -865.8)" gradientUnits="userSpaceOnUse" xlink:href="#a"/>
  <radialGradient id="o" cx="454.07" cy="558.33" r="16.401" gradientTransform="matrix(.85237 .44806 -.16568 .31518 157.53 181.16)" gradientUnits="userSpaceOnUse" xlink:href="#a"/>
  <radialGradient id="n" cx="482.19" cy="593.12" r="7.4319" gradientTransform="matrix(.72164 -.26344 .76528 2.0963 -321.4 -521.12)" gradientUnits="userSpaceOnUse" xlink:href="#a"/>
  <radialGradient id="m" cx="269.2" cy="622.88" r="10.694" gradientTransform="matrix(-.40488 .18651 1.1684 1.9727 -177.53 -659.44)" gradientUnits="userSpaceOnUse" xlink:href="#a"/>
  <radialGradient id="l" cx="252.08" cy="658.34" r="9.8202" gradientTransform="matrix(-.44107 .2846 .80214 .95946 44.083 -52.686)" gradientUnits="userSpaceOnUse" xlink:href="#a"/>
  <radialGradient id="k" cx="238.23" cy="675.82" r="4.5973" gradientTransform="matrix(-.8473 .03204 .03937 1.0409 653.69 -43.778)" gradientUnits="userSpaceOnUse" xlink:href="#a"/>
  <radialGradient id="i" cx="355.82" cy="687.63" r="59.645" gradientTransform="matrix(.52337 0 0 .12279 169.79 583.62)" gradientUnits="userSpaceOnUse" xlink:href="#b"/>
  <radialGradient id="h" cx="354.65" cy="691.34" r="49.107" gradientTransform="matrix(.50416 0 0 .1886 177.07 558.06)" gradientUnits="userSpaceOnUse" xlink:href="#b"/>
  <radialGradient id="g" cx="269.65" cy="780.6" r="65.731" gradientTransform="matrix(.34159 -3.5483e-8 1.3752e-8 .13239 262.48 512)" gradientUnits="userSpaceOnUse" xlink:href="#b"/>
  <radialGradient id="f" cx="353.27" cy="594.28" r="56.483" gradientTransform="matrix(.36426 3.2519e-8 -1.3303e-8 .14901 224.59 481.18)" gradientUnits="userSpaceOnUse" xlink:href="#b"/>
 </defs>
 <g transform="translate(-43.235 -338.83)">
  <path d="m447.17651,349.41155c-2.37426-.13417-8.32007,5.42622-12.59375,7.78125s-14.25757,9.22665-18.53125,14.03125-8.3075,8.59689-12.34375,11.40625-10.91919,8.01036-12.34375,8.46875-1.90735-.43581-5.46875,1.8125-12.5625,9.96875-12.5625,9.96875-.60314.55303-1.25,1.40625c-.0655-.0277-.12183-.0661-.1875-.0937l1.53125-9.6875-5.46875,8.125-1.09375-.40625 1.25-6.125-2.875,5.53125c-.0126-.004-.0186-.027-.0312-.0312l-.53125-5.78125-.8125,5.375-.5-.15625-1.34375-9.1875-1.875,7.9375-.53125-5.8125-1.59375,5.8125-1.3125-8.46875-2.125,8.46875-2.65625-5.28125-.1875,5.84375c-.41132.0859-.81824.17902-1.21875.28125l-2.5625-4 .90625,4.5c-.51332.16514-1.01972.34448-1.5.53125l-2.59375-3.46875 .6875,4.28125c-.48141.23933-.89661.49579-1.3125.75-1.259-.8573-9.83238-6.66345-13.5-8.375-3.95176-1.84416-4.4818-.79905-6.0625-1.0625s-9.20884-4.72269-13.6875-7.09375-8.94539-5.8026-13.6875-10.28125-15.82039-10.28085-20.5625-12.125-11.33425-6.8394-13.96875-6.3125-.53125,2.08899-.53125,3.40625-.50475,2.9193.8125,4.5 3.68235,1.8212 6.84375,2.875 13.69104,8.45015 17.90625,11.875 18.96319,11.83424 23.96875,14.46875 10.5625,3.4375 10.5625,3.4375-.79035,1.84334 0,3.6875 6.56645,3.14715 8.9375,3.9375c1.18139.3938 3.85236,1.72262 6.25,2.9375-.80709.61858-1.68313,1.25384-2.59375,1.90625l-7.5625-3.78125 3.09375,6.84375-.71875.46875-6.34375-5.71875 3.5,7.46875c-.23584.13944-.43451.24809-.65625.375l-4.71875-4.9375 2.46875,6.125c-.21768.0965-.42774.19466-.59375.25-3.18318,1.06106-3.4614-2.6541-9.5625-1.0625-.6516.16998-1.23599.43534-1.78125.75l-3-1.28125 .71875,3.28125c-.2859.36056-.57003.75334-.8125,1.15625l-3.34375-1 1.9375,4.1875c-.88718,2.69668-1.24075,5.59851-1.40625,7.75-.15455,2.00915.5284,4.36911 1.59375,6.84375l-2.9375,1.9375 3.75-.15625c.27505.5671.57661,1.14616.875,1.71875l-3.28125,2.65625 4.1875-.9375c.2987.54957.60453,1.07905.90625,1.625l-2.71875,3.03125 4.21875-.25c.56597,1.04867 1.12825,2.08085 1.59375,3.0625l-3.6875,3.28125 4.625-1.0625c.31756.84921.56408,1.66571.6875,2.40625 .31545,1.89272-.10723,6.2583-.8125,11.65625-1.482-1.36975-3.18623-2.30109-4.9375-2.90625l-1.53125-3.625-1.4375,2.875c-.30729-.0503-.64489-.0823-.96875-.125l-1.34375-6.03125-1.59375,5.75-.53125-.0312-1.15625-4.78125-1,4.6875c-.12617-.004-.2499-.0279-.375-.0312l-.96875-5.375-.40625,5.34375h-.3125l-2.09375-7.90625-.4375,7.90625h-.15625l-.8125-5.09375-1.4375,5.125c-.089.003-.46875.0312-.46875.0312l-.125-.0312-1.96875-3.96875-.96875,3.28125c-.26923-.067-.49843-.11272-.78125-.1875-.74386-1.21951-1.94645-3.3972-1.78125-4.71875 .23489-1.87917.46875-5.875.46875-5.875l-2.78125,8.34375-.78125-.5625-1.59375-11.78125-1.25,8.625c-.0997-.10113-.2034-.19082-.3125-.28125l-1.03125-7.875-2.25,6.90625-.78125-.53125-.96875-9.65625-2.09375,7.28125 .21875-8.9375-3.0625,5.875v-10.09375l-2.5625,5.40625-.46875-8.9375-2.28125,4.9375c-.27703-.47169-.57847-.92381-.90625-1.3125l-.34375-7.84375-1.65625,6.34375c-.49167-.19667-.97878-.34652-1.46875-.5l-1.09375-8.1875-2.15625,7.375c-1.50584-.26875-2.5625-.34375-2.5625-.34375s-.45156-2.59063-1.15625-4-2.84375-3.75-2.84375-3.75-.11516-.96786-.3125-2.375l1.5-5.375-1.9375,2.53125c-.0781-.4387-.15809-.91008-.25-1.375l.53125-7.03125-1.6875,2.375c-.11939-.40748-.2127-.82263-.34375-1.21875l1.09375-3.96875-2.03125,1.53125c-.0188-.0417-.0436-.0837-.0625-.125-.21451-.46802-.4553-.92035-.71875-1.34375l.9375-3.59375-2.25,1.84375c-.41981-.47948-.86274-.90779-1.3125-1.3125l.28125-4.0625-1.40625,3.15625c-.28176-.21436-.56877-.43802-.84375-.625l-.34375-6.28125-1.0625,5.375c-1.39739-.79143-2.4375-1.15625-2.4375-1.15625s-.19655-.36777-.34375-.625l-.375-6.40625-1.8125,3.03125c-1.17262-1.64938-2.61035-3.40025-4.0625-4.4375-.43492-.31065-.93748-.62501-1.5-.9375l-.625-5.1875-.375,4.6875c-.60645-.30692-1.22847-.6176-1.875-.90625l-1.25-3.53125-.6875,2.71875c-.62621-.25538-1.10113-.44456-1.65625-.65625l-.46875-3-1,2.4375c-.93578-.33975-1.59375-.5625-1.59375-.5625s-.22234-.36834-.46875-.75v-4.40625l-1.28125,2.5625c-.45697-.61978-.9796-1.24818-1.53125-1.875l-.71875-3.75-.875,2.15625c-.49884-.41807-.98993-.76924-1.46875-.96875-2.81874-1.17447-6.8125.21875-6.8125.21875s.002-2.59167-.9375-3.53125-4.46875.46875-4.46875.46875-.48386-1.63698-.71875-3.28125c-.20554-1.43873-.20887-2.15625-1.15625-2.15625-.13534,0-.29258.002-.46875.0312-1.40937.23489.47083,5.63802-.46875,6.8125s-6.8276,2.37188-7.0625,3.78125 4.24272,2.7974 7.53125,2.5625 1.87083,3.31042 3.75,4.25 8.23177,3.75 9.40625,3.75 4.45052-.69062 5.625.71875-.9427,2.80833 1.40625,4.6875c2.31206,1.84965 8.00242,4.37902 9.75,4.90625l.84375,3.78125 4.03125.375c.0761.15583.16763.38179.25.5625l-2.65625,1.40625h3.25c.0952.231.21254.50098.3125.75l-3.3125,3.71875 4.28125-1.3125 .125.34375-3,1.65625 3.875.625c.0514.13617.0733.26923.125.40625l-3.78125,2.5 5.28125,1.375c.19927.51499.39657,1.00215.59375,1.5l-2.5625,1.84375 3.6875.875c.61353,1.43693 1.18681,2.71132 1.6875,3.5625 .32431.55133.65859,1.08723 1,1.625l-1.9375,4.5 5.625,1.28125c.44171.81476.71875,1.51103.71875,2 0,1.35097-.77481,3.47351-.40625,4.84375l-2.40625,1.25 3.84375.375c.59771.46063 1.46435,1.09515 2.375,1.75l-2.21875,2.34375 3.78125-1.25c.58886.41746 1.13607.81769 1.75,1.25l-1.0625,2.8125 3.59375-1.03125c.55741.39298.96371.70331 1.46875,1.0625l-.84375,2.34375 2.96875-.84375c.16034.11708.54929.41837.75.5625l-2.3125,4.25 5.15625-2.25c.17639.12275.25381.15383.4375.28125l-1.84375,3.875 4.84375-1.8125c.42736.29211.84067.57568 1.28125.875l-.46875,3.03125 4.21875-.5 1.03125.6875-1.5,2.15625 5.03125.15625c.69328.44372 1.32896.81092 1.9375,1.1875l-4.625,3.375 7.96875-1.40625h.0312c.38854.18132.76736.33119 1.15625.5l-3.03125,2.0625 7.15625-.4375c1.08589.38221 2,.6875 2,.6875l.5.28125-3.78125,2.53125 7.21875-.53125c.34186.20929.68685.43794 1.03125.65625l-4.5,2.6875 7.75-.375c.24198.20513.46497.38709.625.5625l-2.96875,1.9375 4.75-.3125c.28537.23141.59948.45312.90625.6875l-3.78125,2.6875 5.875-1.15625c1.27957.89798 2.34375,1.625 2.34375,1.625s2.82593.68937 5.5.90625c-.13931.98868-.27256,1.95376-.40625,2.9375-.39162.13092-.80245.26298-1.21875.375-1.00968-.31462-1.78125-.4375-1.78125-.4375s-10.73175-1.14015-17.5625-1.9375c-14.45982-3.91218-44.1059-11.90202-77.71875-19.90625-11.51993-2.96198-22.56219-5.73873-27.5-6.625-10.27457-1.84415-30.03359-6.839-39.78125-8.15625s-33.46714-5.00435-40.84375-5.53125c-.46104-.0329-.97174-.0557-1.53125-.0625-.52454-.006-1.08757-.0155-1.6875,0-1.47223.0381-3.18491.153-5,.3125-5.18028-.041-9.57625.27736-12.96875,1.03125-38.52127,8.56028-28.53553,28.53347-24.96875,37.09375s39.23397,47.07329 57.78125,48.5c17.39076,1.33775 31.16488-1.61413 32.875-2-2.80325.67414-13.41328,3.81032-7.1875,11.28125 7.13356,8.56028 57.05615,32.8125 72.75,32.8125s61.34597-24.24572 69.90625-27.8125c1.29401-.53917 2.91454-1.37548 4.65625-2.3125-.17072.24367-.32746.50666-.46875.75 0,0 7.11074-3.69145 11.0625-6.0625 3.6461-2.18766 11.38854-5.6485 15.28125-7.21875 1.85387,4.3218 3.91338,8.40183 5.90625,11.96875-.15625.34134-.38092.81501-.5625,1.21875-.21651.00093-.39926-.005-.625,0-3.20545.0682-7.29729.55067-10.84375,2.1875-.24284.11208-.48857.24448-.71875.375l-3.65625-1.71875 2.21875,2.71875c-.38428.31477-.75082.63999-1.09375,1l-2.75-1.5625 1.75,2.75c-.29117.38109-.55578.78455-.8125,1.1875l-3.375-1.1875 2.4375,2.75c-2.11294,4.09637-2.71875,8.4375-2.71875,8.4375l-1.1875.28125-5.09375-2.75 1.15625,3.71875c-.51714.13135-1.08095.28859-1.65625.4375l-4.125-1.96875 1.40625,2.6875-1.5625.4375-5.3125-3.125 2.71875,3.8125-7.09375-3 4.28125,3.84375c-.26007.0759-.51991.14159-.78125.21875l-8.6875-1.875 6.0625,2.65625-.5.15625-10.46875-1.4375 4.90625,3.25c-.34487.12005-.69305.25405-1.03125.375l-6.3125-1.71875 3.5,2.75c-.82858.32409-1.59499.67495-2.34375,1l-6.0625-2.125 3.25,2.46875h-6.8125l5.28125,1.78125c-.63425.36335-1.24468.74466-1.84375,1.125l-8.34375-.46875 5.71875,2.28125c-.70022.50892-1.39611,1.0228-2.03125,1.53125l-6.15625.28125 4.15625,1.375c-.24566.21641-.45557.44493-.6875.65625l-8.09375-.375 4.625,3.78125c-1.20482,1.31-1.90625,2.21875-1.90625,2.21875s-.81593,1.08963-2.0625,2.78125l-5.03125.75 3.15625,1.8125c-.32385.45453-.65635.91436-1,1.40625l-4.875.34375 3.75,1.3125c-.35366.51884-.7036.99074-1.0625,1.53125l-5.96875,2.0625 3.84375,1.28125c-.26027.41944-.52886.82988-.78125,1.25l-4.40625.46875 3.21875,1.59375c-.48531.86248-.93085,1.70627-1.34375,2.53125l-4.34375.5 3.3125,1.75c-.31177.74046-.61336,1.43572-.8125,2.09375l-3.03125.8125 2.65625.96875c-.0921.53205-.1705,1.04883-.25,1.5625l-4.3125,1 3.9375,1.625c-.0464.37058-.0848.73942-.125,1.09375l-4.90625.5625 4.75.78125c-.0327.32986-.0662.65839-.0937.96875l-5.75,2.0625 5.5625.5625c-.10086,1.77105-.125,3-.125,3l-1.15625,1.03125-1.5625-1.59375-.875,3.6875-.75.65625-4.9375-2.71875 1.34375,5.6875-1.25.96875-7.1875-2 5.40625,3.375c-.0956.0719-.18532.14708-.28125.21875h-.0312l-7-2.5 3.875,4.71875c-.94055.64376-1.87531,1.26247-2.78125,1.8125-.44.26715-.90629.56214-1.40625.84375l-6.78125-2.1875 3.78125,3.78125-.78125.40625-5.15625-.65625 .65625,2.8125-1.59375.75-4-2.1875 .625,3.71875-1.0625.46875-3.65625-2 1,3.15625c-.64697.27886-1.29972.53661-1.875.78125l-4.03125-.6875 1.34375,1.84375-2.15625.90625-3.8125-2.46875-3.5625.5625 5.75,4.90625-.5625,1.90625 2.1875.28125 .5625,6.25 2.71875-7.09375 .25-.0625 1.9375,5 1.875-6.09375 .90625-.28125 2.125,2.53125 1.15625-3.625c.74274-.25709 1.45933-.48663 2.25-.78125l3.40625,3.59375 1.03125-5.40625c.57023-.24833 1.15039-.48509 1.71875-.75l1.34375,3.15625 1.125-4.375c.4865-.25353.96425-.51552 1.4375-.78125l1,3.25 .25-3.96875c.64823-.39167 1.27154-.80351 1.875-1.21875l1.125,2.46875 .34375-3.5625c.34703-.27138.70957-.53232 1.03125-.8125 .0728-.0634.14609-.12398.21875-.1875l1.40625,1.5625 1.34375-4c.36621-.33342.70345-.66835 1.0625-1l.59375,4.15625 4.65625-7.09375 2.4375,3.5625 1.8125-9.875c1.48207-1.52463 2.5625-2.6875 2.5625-2.6875s.53251-.0573 1.3125-.28125l2.5,2.1875 1.25-4.15625c.53794-.43297 1.08479-.94845 1.59375-1.5625l1.53125,3.8125v-6.21875c.13027-.26337.25608-.52639.375-.8125l2.90625,4.3125-1.125-9.5c.32677-.98081.57114-1.75815.9375-2.84375l2.375,2.53125-1.28125-5.78125c.29593-.86953.57696-1.72222.875-2.59375l1.75,2.375-1-4.5625c.16476-.4802.30776-.87542.46875-1.34375l2.1875,2.90625-1.375-5.28125c1.29438-3.74951 2.71875-7.8125 2.71875-7.8125s1.92751,2.01711 4.5625,3.0625l.625,3.75 1.8125-3.15625c.91679.0726 1.85928-.0355 2.8125-.40625 .0913-.0355.20217-.10393.3125-.15625l.53125,2.09375 1.0625-3c.72829-.45382 1.58203-1.00747 2.5625-1.6875l.71875,4.40625 1.65625-6.125c.63018-.45538 1.31969-.93562 2-1.4375l1.25,3.46875 .15625-4.53125 1.59375-1.1875 1.8125,3 .28125-4.59375c.60508-.46096 1.228-.93359 1.84375-1.40625l1.96875,3 1.0625-5.34375 2.78125-2.15625 2.15625,2.3125 .28125-4.21875c.76353-.60011 1.54792-1.2022 2.28125-1.78125l2.0625,1.90625 2.03125-5.15625c1.16381-.92616 1.93437-1.5598 2.875-2.3125l2.46875,2.8125 .40625-5.09375 1.78125-1.4375c0,0 3.01013,1.09375 7.375,1.09375h1.6875l-2.15625,5.3125 .625.25c-.44422,1.4186-.87942,2.86696-1.3125,4.34375l-1.0625-2.65625h-3.3125l3.5625,3.09375 .28125,1.40625c-.16221.56975-.30913,1.14166-.46875,1.71875-.26992.30306-.53572.58646-.84375.9375l-2.53125-2.875-4.5,1.1875 3.65625,5.75c-.53186.69082-1.00478,1.33855-1.28125,1.8125-1.65882,2.84369-1.90625,9.71875-1.90625,9.71875s-1.27924,1.05197-3.09375,2.65625l-4-2.40625 1.09375,5.03125c-.73427.69904-1.46797,1.45581-2.25,2.25l-3.8125-1.59375 2.1875,3.25c-.52304.56043-1.01493,1.13101-1.53125,1.71875l-2.5625-.71875 1.8125,1.625c-.61289.72191-1.23726,1.44038-1.8125,2.1875h-3.5625l1.84375,2.40625c-.67666,1.00663-1.31437,2.0229-1.84375,3.03125-.4363.83104-.92979,1.69915-1.40625,2.5625l-2.84375-.65625 1.0625,3.8125c-4.64741,8.1105-9.9027,16.48148-10.09375,19.15625-.23697,3.31764.96875,11.625.96875,11.625l-.34375.34375-3.6875-.8125 2.0625,2.375c-.25531.24799-.61268.62021-.90625.90625l-3.75-.90625 2,2.625c-.45261.44385-.825.8004-1.3125,1.28125l-3.0625-1.0625 1.625,2.46875-1.875,1.875-2.84375-.8125 1.375,2.3125c-2.36147,2.39756-4.57849,4.69344-5.875,6.21875-4.02857,4.73949-7.34375,9.5-7.34375,9.5l2.84375,3.78125c0,0-1.89585-.22914-2.84375.71875s-1.4375,5.4375-1.4375,5.4375-5.19013-.94789-6.375,0-.25,5.21875-.25,5.21875-4.7396.45836-5.6875,1.40625-1.40625,5.46875-1.40625,5.46875l-7.34375,2.59375 .6875,2.84375c0,0-2.349-1.41665-4.71875-.46875s-4.03125,2.375-4.03125,2.375l4.96875,5.4375c0,0-.9583,4.26822.9375,4.03125s3.09375-4.71875 3.09375-4.71875l1.65625,1.40625 4.25-5.21875 1.09375,4.125c-.16776-1.2276-.0101-3.08956 2-4.8125 .59639-.51119 1.40662-1.25225 2.1875-1.96875l1.125,3.125 .96875-5.125c.65025-.62204 1.30547-1.24716 1.9375-1.875l1.59375,4.65625v-6.25c1.6411-1.70213 2.90452-3.15105 3.09375-3.71875 .37515-1.12545.4212-2.29963.4375-2.84375l1.9375,3.3125-.34375-5.5c.0832-.0886.22432-.21901.3125-.3125l1.21875,5.34375 .5-7.09375c.26052-.26837.44607-.50488.71875-.78125l.90625,3.375 .53125-4.78125c.19524-.19055.39948-.37649.59375-.5625l1.71875,5.59375 1-8.03125c.91644-.73405 1.65665-1.21875 2.0625-1.21875 .28288,0 .63632.0419 1,.0937l1.375,6.0625 1.5625-5.75c1.48109,0 2.95835-.40368 3.90625-2.0625 .49329-.86326 1.67557-3.15362 3.15625-6l1.5625,1.96875-.625-3.78125c.44608-.86068.90227-1.77174 1.375-2.6875l3.75,1.71875-1.9375-5.15625c.15472-.3008.28358-.5443.4375-.84375l2.21875,1.75-1.3125-3.53125c.31683-.61756.32439-.66341.625-1.25l1.625,2.15625-.375-4.59375c.47641-.93121.87074-1.66261 1.21875-2.34375l2,1.75-1-3.75 1.25-2.4375c0,0 1.42056-.3188 3.03125-1.125l1.9375,4.21875-.125-5.3125c.91181-.69309 1.74993-1.58122 2.25-2.6875l2.875,3.03125-1.5-6.0625c1.67728-3.5529 3.93813-8.20917 5.375-11.96875l1.5625,3.5625-.375-6.59375c.35233-.79237.84416-1.74251 1.375-2.75l1.84375,6.28125 1-11.4375c1.20708-2.05962 2.42988-4.07299 3.5625-5.90625-.34253,7.02712-.0948,14.01273.9375,20.75 1.13563,7.41176 3.51013,15.91564 6.75,24.71875h-.0312l.25.65625c1.59148,4.27434 3.37755,8.61425 5.34375,12.9375 .006.0127.0255.0186.0312.0312 .63559,1.3968 1.29929,2.79778 1.96875,4.1875l.21875.46875c1.25303,2.58496 2.54948,5.15877 3.90625,7.6875 .57038,1.04341 1.1525,2.09928 1.75,3.15625 .064.11436.1233.22958.1875.34375 .5367.94597 1.09559,1.8858 1.65625,2.84375 1.18909,2.03464 2.38446,4.01947 3.625,5.96875l.34375.5625c2.03174,3.16611 4.11665,6.20597 6.25,9.0625 2.31669,3.16247 4.65207,5.97193 6.96875,8.5 .15401.16971.31456.33256.46875.5 .0644.0693.12306.14983.1875.21875 1.13241,1.22195 2.26782,2.37734 3.40625,3.46875 0,0 7.09066,10.43045 19.75,10.84375h.0625c.3885.0117.78862.008 1.1875,0 .778-.0206 1.55232-.0827 2.34375-.1875 11.58896-1.3895 20.97771-10.77905 22.15625-12 .0531-.0486.10316-.10744.15625-.15625l.0937-.0937c1.07143-.98836 2.1588-2.03628 3.21875-3.125 .49254-.50088.95989-.98419 1.4375-1.5l.25-.28125c.72961-.79578 1.45536-1.61301 2.15625-2.4375 3.71072-4.2973 7.31714-9.16511 10.6875-14.5 .10217-.16859.21116-.33141.3125-.5 3.81883-6.10251 7.34047-12.80836 10.4375-19.90625h.0312c.16471-.38851.30927-.77097.46875-1.15625 2.58076-6.04322 4.82707-12.37061 6.6875-18.875 .0601-.18664.12744-.37613.1875-.5625 1.65714-5.87773 2.9761-11.88952 3.90625-17.96875 .89706-5.86294 1.26516-11.78401 1.1875-17.6875l.8125-.21875-1.03125-8.59375c.57499.77326 1.15111,1.53027 1.71875,2.3125l1.59375,11.375 1.84375-6.34375c.64403.98386 1.25537,1.91091 1.6875,2.6875l-.1875,6.59375 1.65625-3.625c1.78227,3.69486 4.54486,8.27205 6.59375,11.75l-1.5,6.125 3.1875-3.15625c.61264,1.0839 1.58922,1.94052 2.65625,2.59375l.0625,5.3125 2.0625-4.3125c1.86908.73609 3.5,1 3.5,1l1.5,2.375-1,3.78125 2.21875-1.8125c.423.66563.92098,1.37127 1.5,2.28125l-.28125,4.59375 1.78125-2.21875c.36531.5732.365.61531.75,1.21875l-1.34375,3.59375 2.46875-1.84375c.18701.29259.34327.5186.53125.8125l-2.03125,5.25 4.21875-1.875 1.6875,2.625-.59375,3.78125 1.71875-2.03125c1.79777,2.78042 3.24804,5.03366 3.84375,5.875 1.14473,1.61672 2.84058,1.9389 4.53125,1.875l2,5.6875 1.34375-6.125c.41319-.0675.8021-.1128 1.125-.125 .46328-.0175 1.33238.43104 2.40625,1.125l1.4375,8 1.75-5.6875c.22879.17749.48868.34927.71875.53125l.78125,4.78125 .90625-3.4375c.32172.2644.53622.49307.84375.75l.84375,7.09375 1.1875-5.40625 .375.3125-.1875,5.5 2.0625-3.40625c.0392.54303.15423,1.7353.625,2.84375 .23746.55913 1.7186,1.93244 3.65625,3.5625l.25,6.25 1.65625-4.71875c.7452.60011 1.51548,1.18772 2.28125,1.78125l1.28125,5.09375 1.1875-3.1875c.91846.68227 1.8624,1.38993 2.5625,1.875 2.35966,1.63493 2.61385,3.48479 2.46875,4.71875l1.09375-4.15625 5.03125,5.03125 1.84375-1.46875c0,0 1.54574,4.40753 3.71875,4.5625s.90625-4.0625.90625-4.0625l5.46875-5.65625c0,0-1.9466-1.34258-4.6875-2.1875s-5.375.6875-5.375.6875l.6875-2.875-8.5-2.28125c0,0-.69465-4.49995-1.8125-5.40625s-6.53125-1.15625-6.53125-1.15625 .88835-4.32268-.5-5.21875-7.25.28125-7.25.28125-.72591-4.4687-1.84375-5.375-3.28125-.59375-3.28125-.59375l3.09375-3.90625c0,0-3.97225-4.59406-8.75-9.15625-1.53762-1.46824-4.15126-3.67485-6.9375-5.96875l1.5-2.375-3.21875.9375c-.74521-.60678-1.48318-1.18882-2.21875-1.78125l1.75-2.5625-3.4375,1.21875c-.57465-.45946-1.02907-.79476-1.5625-1.21875l2.1875-2.71875-4.25,1.0625c-.34592-.27316-.76169-.6382-1.0625-.875l2.28125-2.46875-4.1875,1-.40625-.34375c0,0 1.05213-8.35121.65625-11.65625-.31918-2.66461-6.63844-10.81468-12.25-18.71875l1.09375-3.84375-3.25.78125c-.57651-.84216-1.15805-1.68839-1.6875-2.5-.6424-.98477-1.40829-1.99206-2.21875-2.96875l2-2.46875-4.0625.15625c-.68487-.72176-1.42935-1.43007-2.15625-2.125l2.03125-1.6875-2.90625.84375c-.6116-.56503-1.19426-1.1188-1.8125-1.65625l2.375-3.34375-4.28125,1.75c-.92271-.75986-1.79166-1.48941-2.65625-2.15625l1.0625-5.0625-4.5,2.5625c-2.13191-1.5248-3.625-2.5-3.625-2.5s-.53023-6.88621-2.53125-9.65625c-.3335-.46168-.89802-1.08263-1.53125-1.75l3.9375-5.90625-5.1875-.96875-1.59375,1.71875c-.33924-.97718-.68609-1.92764-1.03125-2.875l-.28125-.78125c-.008-.0221-.0231-.0405-.0312-.0625l2.78125-2.28125-3.59375.125c-.32445-.8483-.64265-1.68053-.96875-2.5l-1.59375-4.25-.125.0312c-.0578-.13598-.12976-.27129-.1875-.40625l3.34375-.1875c4.3577-.25008 7.3125-1.53125 7.3125-1.53125s1.38484,1.01539 1.84375,1.34375l.6875,5.0625 2.3125-2.9375c.98221.69757 1.78504,1.26704 3,2.125l2.34375,5.03125 1.9375-2.03125c.7653.53608 1.57834,1.10087 2.375,1.65625l.53125,4.1875 2-2.40625c.97278.67412 1.92343,1.29305 2.90625,1.96875l1.375,5.28125 1.78125-3.09375c.64182.4366 1.30701.85572 1.9375,1.28125l.53125,4.5625 1.65625-3.09375c.56374.37607 1.11238.73476 1.65625,1.09375l.40625,4.53125 1.0625-3.53125c.70794.46208 1.40727.89397 2.0625,1.3125l2,6.03125 .46875-4.4375c1.01783.62274 1.90315,1.1199 2.65625,1.53125l1.25,2.9375 .40625-2.125 .3125.125c.9729.31555 1.93262.37501 2.84375.25l1.96875,3.0625 .40625-3.78125c2.57076-1.19464 4.40625-3.34375 4.40625-3.34375s1.64917,3.98706 3.15625,7.65625l-1.0625,5.34375 2-3.03125c.18756.45833.37049.84253.5625,1.3125l-.75,4.625 1.59375-2.46875 1.03125,2.53125-.9375,5.84375 2.21875-2.65625c.42796,1.06283.71132,1.82077 1.09375,2.78125l-.5625,9.5625 2.65625-4.46875c.13511.27883.2611.52578.40625.78125l.375,6.21875 1.28125-3.90625c.5433.58388 1.12564,1.06731 1.6875,1.46875l1.5,4.0625 2.375-2.3125c.79154.17889 1.3125.21875 1.3125.21875s1.15177,1.09403 2.71875,2.53125l2.375,9.75 2.21875-3.6875 5.0625,6.8125 .34375-4.1875c.37746.31054.74029.62561 1.125.9375l1.5625,3.90625 1.3125-1.625c.0762.0593.1737.0971.25.15625 .33721.26129.70049.49895 1.0625.75l.5625,3.53125 .96875-2.5c.62626.37998 1.26789.73986 1.9375,1.09375l.5,3.9375 .8125-3.28125c.48769.23818.96852.46226 1.46875.6875l1.375,4.3125 1.15625-3.25c.5826.23191 1.16648.44099 1.75.65625l1.34375,5.34375 3.1875-3.78125c.80625.24883 1.55625.44214 2.3125.65625l1.34375,3.5625 2-2.65625 .90625.21875 2.21875,5.96875 1.65625-5.09375 .25.0625 3.125,6.90625 .1875-6.25 2.1875-.40625-.6875-1.875 5.46875-5.25-3.59375-.34375-3.65625,2.6875-2.21875-.78125 1.25-1.9375-4,.9375-1.90625-.6875 .8125-3.1875-3.53125,2.1875c-.36774-.13758-.71721-.26391-1.09375-.40625l.40625-3.75-3.84375,2.40625-1.65625-.65625 .5-2.84375-5.125.96875c-.2696-.117-.51817-.25862-.78125-.375l3.5625-4-6.65625,2.59375c-.51527-.2525-.98292-.53974-1.4375-.78125-.93597-.49722-1.93036-1.03619-2.90625-1.625l3.625-4.9375-6.875,2.875-.0312.0312c-.0999-.0661-.18165-.15245-.28125-.21875l5.21875-3.6875-7.0625,2.40625c-.43965-.3041-.88716-.5739-1.3125-.875l1-5.75-4.75,2.96875-.78125-.59375-1.09375-3.625-1.46875,1.65625c-.58193-.46067-1.21875-.9375-1.21875-.9375s-.11033-1.23764-.3125-3l5.53125-.875-5.84375-1.71875c-.0452-.30827-.10475-.64131-.15625-.96875l4.6875-1.0625-4.9375-.28125c-.0604-.35145-.1199-.72644-.1875-1.09375l3.84375-1.84375-4.34375-.75c-.1088-.50827-.22132-1.00535-.34375-1.53125l2.59375-1.125-3.0625-.625c-.23651-.64554-.58382-1.34112-.9375-2.0625l3.1875-1.9375-4.34375-.25c-.45949-.79997-.96607-1.60424-1.5-2.4375l3.125-1.78125-4.4375-.21875c-.27605-.40497-.55987-.78366-.84375-1.1875l3.78125-1.5-6.09375-1.71875c-.38928-.51906-.77344-.97102-1.15625-1.46875l3.6875-1.53125-4.90625-.0625c-.37127-.4714-.71314-.90852-1.0625-1.34375l3.03125-2-5.0625-.46875c-1.34145-1.61742-2.21875-2.65625-2.21875-2.65625s-.75336-.85493-2.03125-2.09375l4.40625-4.03125-8.0625.8125c-.24366-.19769-.4611-.39177-.71875-.59375l4.0625-1.625-6.15625.0625c-.66323-.47122-1.39678-.93829-2.125-1.40625l5.59375-2.59375-8.3125.9375c-.61987-.34539-1.25223-.67358-1.90625-1l5.1875-2.09375-6.8125.375 3.09375-2.625-5.90625,2.46875c-.76615-.28161-1.56046-.59892-2.40625-.875l3.34375-2.9375-6.21875,2.0625-1.03125-.3125 4.6875-3.53125-10.34375,2.03125c-.16874-.0419-.36239-.0835-.53125-.125l5.90625-3-8.5625,2.375c-.26534-.0621-.51726-.0954-.78125-.15625l4.03125-4.09375-6.90625,3.40625 2.5-3.96875-5.125,3.4375c-.53542-.1132-1.08157-.26916-1.59375-.375l1.25-2.75-4,2.1875c-.58288-.1157-1.16369-.211-1.6875-.3125l.96875-3.78125-4.9375,3.03125-1.21875-.21875c0,0-.84334-4.31267-3.1875-8.28125l2.28125-2.875-3.3125,1.375c-.27939-.38758-.56247-.76122-.875-1.125l1.59375-2.84375-2.65625,1.71875c-.36299-.33977-.75456-.64526-1.15625-.9375l2.0625-2.84375-3.53125,1.90625c-.23728-.11712-.50114-.2145-.75-.3125-3.63442-1.43095-7.76466-1.67807-10.96875-1.5625-.36629.0132-.65938.041-1,.0625 1.90547-3.16554 3.60524-6.59084 4.96875-10.46875 3.63483,1.15934 12.10392,4.29573 15.9375,6.34375 3.95176,2.11113 11.0625,5.3125 11.0625,5.3125-.14819-.252-.31949-.50052-.5-.75 1.75284.82404 3.38669,1.55291 4.6875,2 8.56028,2.94218 54.2124,24.08921 69.90625,22.6875s65.61644-31.09165 72.75-40.625c6.22504-8.31918-4.35146-10.61189-7.15625-11.0625 3.12094.41047 16.61488,1.90311 32.84375-.84375 18.54728-3.13926 54.21446-46.37897 57.78125-55.59375s13.55252-30.85687-24.96875-36.3125c-3.35852-.47566-7.69992-.39758-12.8125.0937-1.86597-.006-3.64807-.00043-5.15625.0937-.59992.0375-1.16296.10315-1.6875.15625-.55951.057-1.07021.14335-1.53125.21875-7.37661,1.20643-31.09608,7.13543-40.84375,9.375s-29.50668,9.19705-39.78125,12.03125c-5.13728,1.4171-16.85721,5.55419-28.875,9.84375-33.06831,11.16429-62.08391,21.84189-76.34375,27.125-6.83069,1.43874-17.5625,3.59375-17.5625,3.59375s-.75681.21716-1.75.625c-1.55949-.29419-2.96114-.76531-4.15625-1.28125l1.375.0937-3.59375-2.21875c.29223-.27261.57191-.51427.84375-.78125l4.53125-.28125-2.84375-1.5625c.15245-.19536.39449-.42096.625-.65625l7.375-.59375-4.28125-2.125c.32808-.26123.6431-.52935.96875-.78125l6.875-.375-3.59375-2.0625c.1456-.10437.46875-.34375.46875-.34375s.87183-.41994 1.90625-.9375l6.8125-.4375-2.875-1.6875 1.09375-.65625h.0312l7.59375.40625-4.40625-2.78125c.5797-.45243 1.18334-.90737 1.84375-1.4375l4.78125-.78125-1.40625-1.96875 .96875-.8125 4.03125-.0312-.46875-2.96875c.4197-.35423.81165-.68587 1.21875-1.03125l4.625,1.21875-1.75-3.65625 .40625-.34375 4.90625,1.625-2.1875-3.96875 .71875-.65625 2.8125.46875-.78125-2.25c.4811-.42214.84402-.75629 1.375-1.21875l3.4375.5625-1.03125-2.6875 1.6875-1.46875 3.59375.78125-2.125-2.0625c.86749-.76836 1.71187-1.49612 2.28125-2.03125l3.65625-.875-2.28125-.9375c.35109-1.41618-.40625-3.43028-.40625-4.78125 0-.48897.26673-1.22393.6875-2.09375l5.375-2-1.84375-4.25c.32523-.58032.62856-1.15825.9375-1.75 .47696-.91359 1.04055-2.26785 1.625-3.78125l3.5-1.3125-2.4375-1.53125c.18783-.52243.37267-1.02267.5625-1.5625l5.03125-2.0625-3.59375-2c.0493-.14347.0447-.29493.0937-.4375l3.71875-1.09375-2.875-1.28125 .125-.375 4.0625.78125-3.15625-3.3125c.0952-.26148.2218-.53839.3125-.78125l3.09375-.40625-2.53125-1.0625c.0785-.19098.1775-.42843.25-.59375l3.84375-.90625 .78125-3.875c1.66474-.74505 7.11003-3.98717 9.3125-6.125 2.23761-2.17195.19369-3.28799 1.3125-4.84375s4.25619-1.29111 5.375-1.4375 7.17866-3.73245 8.96875-4.90625 .42983-4.54375 3.5625-4.71875 7.38001-2.11989 7.15625-3.5-5.8237-1.84888-6.71875-2.90625 .90507-6.6908-.4375-6.75c-.16782-.007-.30858.0144-.4375.0312-.90248.11808-.9292.8169-1.125,2.28125-.22375,1.67354-.6875,3.375-.6875,3.375s-3.35495-.96294-4.25.0937-.875,3.65625-.875,3.65625-3.81486-.9008-6.5.625c-.45612.25919-.93105.676-1.40625,1.15625l-.8125-2.0625-.6875,3.84375c-.5255.69558-1.03344,1.38576-1.46875,2.0625l-1.21875-2.40625v4.40625c-.23473.41238-.4375.8125-.4375.8125s-.63983.29361-1.53125.75l-.9375-2.3125-.46875,3.0625c-.52881.28089-.96597.54157-1.5625.875l-.65625-2.625-1.1875,3.6875c-.61588.36923-1.20355.74249-1.78125,1.125l-.375-4.625-.59375,5.25c-.53586.38261-1.02319.76015-1.4375,1.125-1.38332,1.21825-2.72671,3.14197-3.84375,4.9375l-1.75-2.78125-.34375,6.4375c-.14022.27557-.34375.65625-.34375.65625s-.98134.50314-2.3125,1.46875l-1-5.25-.34375,6.34375c-.26195.22126-.5441.46927-.8125.71875l-1.3125-2.96875 .25,4.03125c-.42844.46077-.85009.93694-1.25,1.46875l-2.125-1.5625 .875,3.46875c-.25096.45624-.48316.94274-.6875,1.4375-.018.0437-.0446.0809-.0625.125l-1.9375-1.28125 1.0625,3.84375c-.12484.41245-.23002.82764-.34375,1.25l-1.59375-2.15625 .5,6.96875c-.0876.47638-.1756.95782-.25,1.40625l-1.84375-2.28125 1.4375,5.1875c-.18798,1.43174-.28125,2.40625-.28125,2.40625s-2.04747,2.59655-2.71875,4.09375-1.09375,4.15625-1.09375,4.15625-1.00304.19981-2.4375.65625l-2.0625-7.09375-1.0625,8.3125c-.46674.21455-.90663.42955-1.375.6875l-1.59375-6.15625-.3125,7.90625c-.31224.42955-.6111.90003-.875,1.40625l-2.15625-4.625-.46875,8.96875-2.4375-5.0625v10.09375l-2.90625-5.5 .1875,8.90625-1.96875-7.03125-.9375,9.78125-.75.625-2.125-6.625-1,8c-.10393.10403-.18625.2302-.28125.34375l-1.1875-8.46875-1.53125,11.96875-.75.65625-2.65625-8c0,0 .245,3.9626.46875,5.8125 .15737,1.30096-1.01014,3.62528-1.71875,4.9375-.26941.11004-.46228.21194-.71875.3125l-.9375-3.1875-1.875,4.21875-.125.0625c0,0-.3527.0233-.4375.0312l-1.375-4.96875-.78125,5.21875c-.044.005-.0801-.005-.125,0l-.4375-7.84375-2,8.15625c-.11251.0157-.16679.0455-.28125.0625l-.375-5.3125-.9375,5.5c-.11917.0189-.22356.074-.34375.0937l-.96875-4.5625-1.09375,4.90625-.5.0937-1.53125-5.53125-1.28125,6.1875c-.30851.0831-.61352.1614-.90625.25l-1.375-2.6875-1.46875,3.8125c-.34614.17085-.68976.33226-1.03125.53125-1.66375-5.05252-2.98443-8.93457-3.34375-10.15625-.81357-2.76616 1.413-5.33449 3.65625-8.125l4.5625-.90625-1.53125-3.59375c.1788-.3832.34088-.75844.46875-1.15625 .44469-1.38349.72722-2.88574.875-4.46875l4.4375-.59375-4.34375-1.84375c.004-.53947.0248-1.07863 0-1.625l3.03125-.25-3.1875-1.71875c-.0725-.69481-.16751-1.40342-.28125-2.09375l2.9375-.40625-3.28125-1.40625c-.0886-.40591-.1793-.78824-.28125-1.1875l3.28125-.34375-3.78125-1.34375c-.17726-.56952-.3589-1.14282-.5625-1.6875l4.34375-1.21875-5.15625-.75c-.26124-.56309-.52289-1.10921-.8125-1.625l3.84375-3.4375-4.625,2.21875c-.13684-.2063-.26457-.43019-.40625-.625-.11103-.15266-.2523-.29406-.375-.4375l1.4375-3.5625-3.875,1.59375c-.88322-.50354-1.86497-.93323-2.90625-1.28125l.40625-2.96875-3.03125,2.25c-.74378-.1724-1.49673-.29999-2.25-.4375l1.03125-3.40625-4.15625,2.875c-1.45258-.22615-2.80248-.46174-4-.71875l-.15625-.28125v.25c-1.28739-.28373-2.37458-.60017-3.09375-1.0625-.93174-.59898-2.67532-1.54048-4.875-2.625 2.36135-1.60308 5.04728-3.39074 6.28125-4 2.13683-1.05503 7.35023-3.05358 8.0625-4.875s0-3.4375 0-3.4375 4.98889-1.49953 9.5-4.625 17.82619-12.93388 21.625-16.6875 13.27588-12.03079 16.125-13.4375 5.00037-1.97739 6.1875-3.625 .71875-3.05647.71875-4.28125 1.90551-2.99082-.46875-3.125zm65.28125,357.125-.34375,1.375c0,0 .24935-.57232.34375-1.375zm-279.78125,9.34375c.10913.79854.34375,1.34375.34375,1.34375l-.34375-1.34375z" fill-opacity=".5"/>
  <path d="m188.625,366.1875c-.13534,0-.29258.002-.46875.0312-1.40937.23489.47083,5.63802-.46875,6.8125s-6.8276,2.37188-7.0625,3.78125 4.24272,2.7974 7.53125,2.5625 1.87083,3.31042 3.75,4.25 8.23177,3.75 9.40625,3.75 4.45052-.69062 5.625.71875-.9427,2.80833 1.40625,4.6875c2.31206,1.84965 8.00242,4.37902 9.75,4.90625l.84375,3.78125 4.03125.375c.0761.15583.16763.38179.25.5625l-2.65625,1.40625h3.25c.0952.231.21254.50098.3125.75l-3.3125,3.71875 4.28125-1.3125 .125.34375-3,1.65625 3.875.625c.0514.13617.0733.26923.125.40625l-3.78125,2.5 5.28125,1.375c.19927.51499.39657,1.00215.59375,1.5l-2.5625,1.84375 3.6875.875c.61353,1.43693 1.18681,2.71132 1.6875,3.5625 .32431.55133.65859,1.08723 1,1.625l-1.9375,4.5 5.625,1.28125c.44171.81476.71875,1.51103.71875,2 0,1.35097-.77481,3.47351-.40625,4.84375l-2.40625,1.25 3.84375.375c.59771.46063 1.46435,1.09515 2.375,1.75l-2.21875,2.34375 3.78125-1.25c.58886.41746 1.13607.81769 1.75,1.25l-1.0625,2.8125 3.59375-1.03125c.55741.39298.96371.70331 1.46875,1.0625l-.84375,2.34375 2.96875-.84375c.16034.11708.54929.41837.75.5625l-2.3125,4.25 5.15625-2.25c.17639.12275.25381.15383.4375.28125l-1.84375,3.875 4.84375-1.8125c.42736.29211.84067.57568 1.28125.875l-.46875,3.03125 4.21875-.5 1.03125.6875-1.5,2.15625 5.03125.15625c.69328.44372 1.32896.81092 1.9375,1.1875l-4.625,3.375 7.96875-1.40625h.0312c.38854.18132.76736.33119 1.15625.5l-3.0312,2.06255 7.15625-.4375c1.08589.38221 2,.6875 2,.6875l.5.28125-3.78125,2.53125 7.21875-.53125c.34186.20929.68685.43794 1.03125.65625l-4.5,2.6875 7.75-.375c.24198.20513.46497.38709.625.5625l-2.96875,1.9375 4.75-.3125c.28537.23141.59948.45312.90625.6875l-3.78125,2.6875 5.875-1.15625c1.27957.89798 2.34375,1.625 2.34375,1.625s6.57241,1.62708 9.15625.6875 2.59167-3.05522 3.53125-6.34375c-.2188-8.97094-4.73914-13.03156-9.53125-14.6875l-1.53125-3.625-1.4375,2.875c-.30729-.0503-.64489-.0823-.96875-.125l-1.34375-6.03125-1.59375,5.75-.53125-.0312-1.15625-4.78125-1,4.6875c-.12617-.004-.2499-.0278-.375-.0312l-.96875-5.375-.40625,5.34375h-.3125l-2.09375-7.90635-.4375,7.90625h-.15625l-.8125-5.09375-1.4375,5.125c-.089.003-.46875.0312-.46875.0312l-.125-.0312-1.96875-3.96875-.96875,3.28125c-.26923-.067-.49843-.11272-.78125-.1875-.74386-1.21951-1.94645-3.3972-1.78125-4.71875 .23489-1.87917.46875-5.875.46875-5.875l-2.78125,8.34375-.78125-.5625-1.59375-11.78125-1.25,8.625c-.0997-.10113-.2034-.19082-.3125-.28125l-1.03125-7.875-2.25,6.90625-.78125-.53125-.96875-9.65625-2.09375,7.28125 .21875-8.9375-3.0625,5.875v-10.09375l-2.5625,5.40625-.46875-8.9375-2.28125,4.9375c-.27703-.47169-.57847-.92381-.90625-1.3125l-.34375-7.84375-1.65625,6.34375c-.49167-.19667-.97878-.34652-1.46875-.5l-1.09375-8.1875-2.15625,7.375c-1.50584-.26875-2.5625-.34375-2.5625-.34375s-.45156-2.59063-1.15625-4-2.84375-3.75-2.84375-3.75-.11516-.96786-.3125-2.375l1.5-5.375-1.9375,2.53125c-.0781-.4387-.15809-.91008-.25-1.375l.53125-7.03125-1.6875,2.375c-.11939-.40748-.2127-.82263-.34375-1.21875l1.09375-3.96875-2.03125,1.53125c-.0188-.0417-.0436-.0837-.0625-.125-.21451-.46802-.4553-.92035-.71875-1.34375l.9375-3.59375-2.25,1.84375c-.41981-.47948-.86274-.90779-1.3125-1.3125l.28125-4.0625-1.40625,3.15625c-.28176-.21436-.56877-.43802-.84375-.625l-.34375-6.28125-1.0625,5.375c-1.39739-.79143-2.4375-1.15625-2.4375-1.15625s-.19655-.36777-.34375-.625l-.375-6.40625-1.8125,3.03125c-1.17262-1.64938-2.61035-3.40025-4.0625-4.4375-.43492-.31065-.93748-.62501-1.5-.9375l-.625-5.1875-.375,4.6875c-.60645-.30692-1.22847-.6176-1.875-.90625l-1.25-3.53125-.6875,2.71875c-.62621-.25538-1.10113-.44456-1.65625-.65625l-.46875-3-1,2.4375c-.93578-.33975-1.59375-.5625-1.59375-.5625s-.22234-.36834-.46875-.75v-4.40625l-1.28125,2.5625c-.45697-.61978-.9796-1.24818-1.53125-1.875l-.71875-3.75-.875,2.15625c-.49884-.41807-.98993-.76924-1.46875-.96875-2.81874-1.17447-6.8125.21875-6.8125.21875s.002-2.59167-.9375-3.53125-4.46875.46875-4.46875.46875-.48386-1.63698-.71875-3.28125c-.20554-1.43873-.20887-2.15625-1.15625-2.15625z" fill="#23090d"/>
  <path d="m294.56 472.88c5.4026 1.1745 11.04 0 11.04-3.5234s-2.349-8.6911-5.1677-10.335-9.6307-3.7583-12.449-3.9932-7.0469-0.46979-7.5166 0.93958 7.0469 14.329 14.094 16.912z" fill="url(#af)"/>
  <path d="m276.71 455.26c0.93959-1.4094-6.1073-3.5234-7.0468-4.6979s0.23489-3.5234-1.6443-4.2281-5.6375-0.46979-7.0469-1.6443-12.449-8.6911-13.624-9.3958-2.349-2.5838-3.7583-1.1745 1.1745 3.2885 3.7583 4.6979 8.4562 5.4026 11.275 7.0469 5.8724 4.9328 7.2818 5.6375 7.9864 6.3422 10.805 3.7583z" fill="url(#ae)"/>
  <path d="m237.95 423.78c2.5838-1.1745-1.6443-5.8724-2.1141-7.0469s0-2.8187-0.70469-4.2281-3.0536-2.1141-3.2885-3.0536-0.70469-4.9328-2.349-4.9328-0.46979 4.2281-0.2349 5.6375 2.5838 2.349 2.5838 2.349-0.23489 2.8187 0 3.9932 2.5838 0.70469 2.8187 1.6443-1.1745 2.349-0.23489 4.2281 0.70468 2.1141 3.5234 1.4094z" fill="url(#ad)"/>
  <path d="m497.69553,352.93036c.12892-.0169.27871-.0345.44653-.0272 1.34257.0592-.44851,5.69671.44653,6.75408s6.50398,1.52087 6.72775,2.90096-4.04162,3.32622-7.17428,3.50121-1.78215,3.54361-3.57225,4.71741-7.8416,4.77602-8.96041,4.92241-4.23957-.1359-5.35838,1.41986 .89801,2.69083-1.3396,4.86278c-2.20247,2.13783-7.62312,5.37646-9.28786,6.12151l-.80376,3.88642-3.84018.87746c-.0725.16532-.15968.40268-.23815.59366l2.53035,1.07517-3.09595.40509c-.0907.24286-.20247.52747-.29769.78895l3.15549,3.30587-4.07832-.77888c-.0397.11407-.079.24374-.11908.35933l2.85781,1.28233-3.69134,1.10799c-.049.14257-.0698.27836-.11907.42183l3.60202,2.02869-5.03092,2.03327c-.18983.53983-.37778,1.05158-.56561,1.57401l2.44104,1.52435-3.51272,1.33462c-.58445,1.5134-1.13055,2.85924-1.60751,3.77283-.30894.59175-.62737,1.16932-.9526,1.74964l1.84566,4.25851-5.35838,1.98236c-.42077.86982-.68468,1.60062-.68468,2.08959 0,1.35097.73808,3.37693.38699,4.79311l2.2922.95008-3.66156.85409c-.56938.53513-1.39494,1.27767-2.26243,2.04603l2.11358,2.0672-3.60202-.7787c-.56095.49086-1.08222.95929-1.66705,1.46812l1.01214,2.68007-3.42342-.58332c-.53098.46246-.91803.82343-1.39913,1.24557l.80376,2.23859-2.82804-.47372c-.15274.13706-.52325.48683-.71445.65598l2.20289,3.96176-4.91185-1.60731-.41676.33578 1.75636,3.64519-4.61417-1.20877-1.22052,1.0347 .44654,2.97283-4.01879.0258c-.33062.27433-.65558.5464-.98237.81604l1.4289,1.96928-4.79278.78336c-.66041.53013-1.26596.97656-1.84566,1.42899l4.40578,2.79853-7.59104-.41301-.0297.004c-.37013.22975-.73099.42684-1.10145.64412l2.88753,1.68474-6.81706.45446c-1.03442.51756-1.9052.93679-1.9052.93679l-.4763.34357 3.60202,2.05995-6.87659.36851c-.32565.2519-.65429.52355-.98237.78478l4.28671,2.12661-7.38266.59098c-.23051.23529-.44293.44504-.59538.6404l2.82804,1.56747-4.52486.27955c-.27184.26698-.57106.52784-.86329.80045l3.60202,2.2162-5.59653-.42398c-1.21892,1.05747-2.23266,1.91713-2.23266,1.91713s-6.26089,2.44628-8.72226,1.82876-2.46883-2.73219-3.36387-5.90361c.20843-8.99821 4.51451-13.62226 9.07948-15.8755l1.45867-3.81585 1.36936,2.69582c.29273-.0886.61433-.16268.92284-.24574l1.28006-6.19874 1.5182,5.55135 .50607-.0974 1.10145-4.92537 .9526,4.56286c.12019-.0197.23806-.059.35723-.0779l.92283-5.49575 .38699,5.29311c.11446-.017.18518-.0232.29769-.0389l1.99451-8.16732 .41676,7.85172 .14885-.0195 .77399-5.19502 1.36936,4.94582 .44653-.0272 .11908-.0468 1.87543-4.21414 .92283,3.1605c.25647-.10056.47481-.17484.74422-.28488 .70861-1.31222 1.85419-3.6398 1.69682-4.94076-.22375-1.8499-.44653-5.81658-.44653-5.81658l2.64943,7.99709 .74422-.65988 1.5182-11.97989 1.19076,8.46919c.095-.11355.19375-.21617.29768-.3202l.98237-8.00353 2.14336,6.6258 .74422-.62862 .92283-9.777 1.99451,7.02028-.20838-8.91023 2.91734,5.49328v-10.09375l2.44104,5.08685 .44653-8.99592 2.17312,4.65316c.2639-.50622.55106-.99591.8633-1.42546l.32746-7.88659 1.57774,6.13731c.46837-.25795.93239-.46852 1.39913-.68307l1.04191-8.32383 2.05405,7.10624c1.43446-.45644 2.44104-.66314 2.44104-.66314s.43016-2.64691 1.10145-4.14412 2.70896-4.10445 2.70896-4.10445 .1097-.98221.29768-2.41395l-1.4289-5.18804 1.84567,2.28976c.0744-.44843.15059-.92978.23815-1.40616l-.50607-6.96503 1.60751,2.16466c.11373-.42236.20262-.84914.32746-1.26159l-1.04191-3.83243 1.93497,1.27808 .0595-.13279c.20434-.49476.43372-.9771.68468-1.43334l-.89306-3.4769 2.14335,1.56331c.39991-.53181.82185-1.01533 1.25029-1.4761l-.26792-4.02744 1.3396,2.98097c.2684-.24948.54181-.50891.80376-.73017l.32745-6.32409 1.01214,5.24257c1.33116-.96561 2.32197-1.46007 2.32197-1.46007s.18723-.39227.32745-.66784l.35723-6.45299 1.72659,2.80533c1.11704-1.79553 2.48662-3.72561 3.86994-4.94386 .41431-.36485.89305-.74185 1.42891-1.12446l.59537-5.2654 .35723,4.64076c.5777-.38251 1.17024-.77072 1.78612-1.13995l1.19076-3.68706 .65491,2.63306c.59653-.33343 1.04894-.5818 1.57775-.86269l.44653-3.05842 .9526,2.31286c.89142-.45639 1.51821-.76115 1.51821-.76115s.2118-.39605.44653-.80843v-4.40625l1.22052,2.40281c.43531-.67674.93317-1.37028 1.45867-2.06586l.68468-3.83959 .83353,2.04719c.4752-.48025.94301-.89263 1.39913-1.15182 2.68514-1.5258 6.4896-.63037 6.4896-.63037s-.002-2.59142.89306-3.6481 4.25694-.0883 4.25694-.0883 .46093-1.69729.68468-3.37083c.1958-1.46435.19897-2.18229 1.10145-2.30037z" fill="#23090d"/>
  <path d="m396.78 472.82c-5.1465 1.8479-10.517 1.3761-10.517-2.1474s2.2376-8.9839 4.9228-10.98 9.1742-4.9587 11.859-5.545 6.7128-1.3481 7.1604 3e-3 -6.7128 15.207-13.426 18.669z" fill="url(#ac)"/>
  <path d="m413.79 452.98c-0.89506-1.2923 5.8178-4.2846 6.7128-5.5762s-0.22376-3.4942 1.5663-4.4331 5.3703-1.1725 6.7128-2.5226 11.859-10.243 12.978-11.094 2.2376-2.8766 3.5802-1.6429-1.1188 3.4349-3.5802 5.1663-8.0554 6.4566-10.741 8.4522-5.594 5.6647-6.9366 6.5451-7.6079 7.3376-10.293 5.1051z" fill="url(#ab)"/>
  <path d="m450.71 416.67c-2.4614-0.85241 1.5663-6.0773 2.0139-7.3104s0-2.8187 0.67129-4.3159 2.9089-2.4947 3.1327-3.4635 0.67129-5.0206 2.2376-5.2256 0.44752 4.1696 0.22377 5.6082-2.4614 2.671-2.4614 2.671 0.22375 2.7895 0 3.9932-2.4614 1.0267-2.6851 1.9956 1.1188 2.2026 0.22376 4.1988-0.67128 2.2019-3.3564 1.8485z" fill="url(#aa)"/>
  <path d="m344.31 380.72-2.125 8.4688-2.6562-5.2812-0.1875 5.8438c-0.41132 0.0859-0.81824 0.17902-1.2188 0.28125l-2.5625-4 0.90625 4.5c-0.51332 0.16514-1.0197 0.34448-1.5 0.53125l-2.5938-3.4688 0.6875 4.2812c-1.8062 0.89793-3.1868 1.9232-3.875 2.9062-0.77653 1.1093-3.5598 3.3394-6.75 5.625l-7.5625-3.7812 3.0938 6.8438-0.71875 0.46875-6.3438-5.7188 3.5 7.4688c-0.23584 0.13944-0.43451 0.24809-0.65625 0.375l-4.7188-4.9375 2.4688 6.125c-0.21768 0.0965-0.42774 0.19466-0.59375 0.25-3.1832 1.0611-3.4614-2.6541-9.5625-1.0625-0.6516 0.16998-1.236 0.43534-1.7812 0.75l-3-1.2812 0.71875 3.2812c-0.2859 0.36056-0.57003 0.75334-0.8125 1.1562l-3.3438-1 1.9375 4.1875c-0.88718 2.6967-1.2408 5.5985-1.4062 7.75-0.15455 2.0092 0.5284 4.3691 1.5938 6.8438l-2.9375 1.9375 3.75-0.15625c0.27505 0.5671 0.57661 1.1462 0.875 1.7188l-3.2812 2.6562 4.1875-0.9375c0.2987 0.54957 0.60453 1.079 0.90625 1.625l-2.7188 3.0312 4.2188-0.25c0.56597 1.0487 1.1282 2.0808 1.5938 3.0625l-3.6875 3.2812 4.625-1.0625c0.31756 0.84921 0.56408 1.6657 0.6875 2.4062 1.0611 6.3664-5.9288 39.249-5.6537 53.659 0.41527 21.752 20.247 48.716 20.247 48.716l-7e-3 -3.7142 1.9515 2.3993 1.5722-2.0867 2.4534 2.538 1.1938-2.7243 2.352 2.2649 1.3738-2.879 2.2627 4.6886 0.77943-2.2866 1.9738 3.4118 1.8476-1.3745 1.7622 2.4289 0.40027-3.9692 3.5361 4.4013 0.19407-2.7358 1.7628 2.5656 0.59668-2.2347 2.4462 2.7692 1.0835-3.2193 2.6427 2.7764 1.9556-4.0037 3.6331 3.7173 0.2009-3.3065 3.0456 2.9614 1.6646-3.1281 1.3594 4.7207 1.7737-3.8116 3.3331 2.6782 0.1934-2.6267 5.0002 2.7582-1.081-2.8957 4.1278 1.4752-0.68358-2.1405 3.8097 2.7909 0.11331-2.7178 3.5638 2.1026c9.5982-13.016 22.998-24.442 22.4-51.719-0.19179-8.7557-13.918-48.272-15.244-52.781-0.81357-2.7662 1.413-5.3345 3.6562-8.125l4.5625-0.90625-1.5312-3.5938c0.1788-0.3832 0.34088-0.75844 0.46875-1.1562 0.44469-1.3835 0.72722-2.8857 0.875-4.4688l4.4375-0.59375-4.3438-1.8438c4e-3 -0.53947 0.0248-1.0786 0-1.625l3.0312-0.25-3.1875-1.7188c-0.0725-0.69481-0.16751-1.4034-0.28125-2.0938l2.9375-0.40625-3.2812-1.4062c-0.0886-0.40591-0.1793-0.78824-0.28125-1.1875l3.2812-0.34375-3.7812-1.3438c-0.17726-0.56952-0.3589-1.1428-0.5625-1.6875l4.3438-1.2188-5.1562-0.75c-0.26124-0.56309-0.52289-1.1092-0.8125-1.625l3.8439-3.4375-4.625 2.2188c-0.13684-0.2063-0.26457-0.43019-0.40625-0.625-0.11103-0.15266-0.2523-0.29406-0.375-0.4375l1.4375-3.5625-3.875 1.5938c-0.88322-0.50354-1.865-0.93323-2.9062-1.2812l0.40625-2.9688-3.0312 2.25c-0.74378-0.1724-1.4967-0.29999-2.25-0.4375l1.0312-3.4062-4.1562 2.875c-3.0935-0.48162-5.843-0.90803-7.25-1.8125-1.8239-1.1725-6.7709-3.6807-12.125-5.9375l1.5312-9.6875-5.4688 8.125-1.0938-0.40625 1.25-6.125-2.875 5.5312c-0.0126-4e-3 -0.0186-0.027-0.0312-0.0312l-0.53125-5.7812-0.8125 5.375-0.5-0.15625-1.3438-9.1875-1.875 7.9375-0.53125-5.8125-1.5938 5.8125z" fill="url(#z)"/>
  <path d="m379.88 408.07-1.0067-6.1575-1.0068 4.588-3.1461-6.1575-0.37752 6.6404-1.8876-4.588 0.54108 6.7128-5.5748-5.4041 1.5101 5.211-4.0274-1.9547 4.3431 4.67-6.4451-0.86808 5.9291 3.5243-5.8782 0.12073 6.0935 2.6877-8.4464 0.63377 6.7091 3.1029-4.4439 2.2094 3.8388 1.0081-2.958 3.2176 4.2291-1.7688-2.5931 4.1835 4.8583-2.9568-2.6186 5.1106 4.657-2.5523-0.52968 4.9598 5.0973-5.6201 1.1444 6.6258 1.8504-5.2869 1.8245 6.2069 1.586-4.8463 2.391 5.3618 0.22626-4.3404 4.3922 4.0144-2.0516-4.9476 6.6837 2.8758-5.387-4.6353 6.0781 0.27199-6.3184-2.9894 7.2629-1.4223-6.9976-2.4968 6.721-1.2654-3.9397-0.88133 4.782-2.7769-4.5558-4e-3 3.6113-3.1223-5.1091 1.3148 3.2355-4.0989-4.8592 2.2746 3.2232-5.4886-5.865 3.6908 4.369-7.3552-5.6274 5.0612-1.0067-2.5354-1.3843 3.622-0.25169-9.0552-1.8876 7.4856 0.50337-5.3124z" fill="url(#y)"/>
  <path d="m314.01 413.93 0.52909-9.103 2.5401 8.1756 2.4449-8.1703 0.32608 6.6219 2.7838-2.7969-1.0683 3.9684 6.0968-5.0404-3.0456 6.2915 8.0432-2.0366-6.0401 4.2152 5.4547-0.0385-4.5738 2.3325 3.1461 0.60367-3.8984 2.5434 6.9596 2.0128-4.068 1.1184 2.5989 3.3183-4.109-0.54138 1.636 2.7769-3.7572-1.8057 2.1212 4.2204-3.67-1.8906 1.9363 4.454-3.9293-2.0804 0.86526 5.0735-3.6338-2.1759-0.12585 3.0184-2.6427-3.1391-2.0854 3.3621-1.4382-4.9316-2.4244 7.1765-0.72168-5.7277-2.9483 5.6945-0.19781-4.8494-4.1733 4.4381 1.6565-5.2832-4.9694 0.35691 3.4084-3.0859-5.7455-0.88515 5.7783-2.3298-6.9134-0.90481 7.3166-3.0172-7.3733-1.9184 4.3454-1.9796-5.2802-3.2757 6.1611 0.49882-5.9963-8.1106 7.003 6.9033-4.0934-9.7704 6.8362 7.8107-2.2161-7.564 3.4798 3.7654 0.92193-3.898 3.6828 4.9196 1.1274-6.6669z" fill="url(#x)"/>
  <path d="m315.35 430.09c4.4786-4.2152 1.5807-7.3766-0.26345-9.4842s-7.3766-5.269-7.3766-6.8497 0.52691-4.2152-2.1076-4.4787-9.7477 8.9573-4.4786 15.28 9.7477 9.4842 14.226 5.5325z" fill="url(#w)"/>
  <path d="m373.62 425.73c-4.4786-4.2152-1.5807-7.3766 0.26345-9.4842s7.3766-5.269 7.3766-6.8497-0.52691-4.2152 2.1076-4.4787 9.7477 8.9573 4.4786 15.28-9.7477 9.4842-14.226 5.5325z" fill="url(#v)"/>
  <path d="m349.63 445.62 0.0655-16.958-4.8932 14.733-4.7357-17.913 0.80848 19.876-5.5832-13.969 2.4931 17.304-4.3499-5.8368 0.90148 10.354-9.6552-20.084 5.225 20.848-9.4026-8.877 8.1947 15.496-10.728-6.5138 7.5722 10.338-9.986-2.3272 8.1292 9.5027-8.5276-1.5104 5.3708 9.0002-10.583-0.69636 11.126 8.6015-6.2057 6.4971 9.8264-0.0333-8.4071 7.8013 10.092-3.2492-4.0181 7.3333 9.5221-4.4482-8.3532 16.26 11.935-7.5562-2.9951 17.009 9.2684-13.446 0.55696 9.6426 4.8414-11.136 2.2162 15.182 3.1694-11.484 4.6289 12.788 2.1486-9.7644 4.3108 11.693 0.71653-13.082 6.7912 10.371-1.7776-13.376 7.6663 5.193-2.4798-7.889 9.3101-0.67654-10.53-5.5599 9.0053-0.95803-9.9871-6.5124 9.7461-0.31564-6.3526-6.9983 9.0592 0.0139-7.8375-5.7316 11.393-5.5086-12.135-0.27689 12.055-8.7759-12.454 2.503 3.2487-10.858-6.6834 7.3832 4.11-16.054-8.4473 12.666 1.2196-10.963-3.979 6.2549 2.9433-18.626-6.3252 17.373 1.524-15.513-5.8348 7.9411 2.678-20.33-6.8958 19.061 0.0401-14.143z" fill="url(#u)"/>
  <path d="m292.66 565.84 3.5625 3.0938 0.46875 2.375c-0.50817 0.56428-0.94859 1.0591-1.5 1.6875l-2.5312-2.875-4.5 1.1875 3.6562 5.75c-0.53186 0.69082-1.0048 1.3386-1.2812 1.8125-1.6588 2.8437-1.9062 9.7188-1.9062 9.7188s-1.2792 1.052-3.0938 2.6562l-4-2.4062 1.0938 5.0312c-0.73427 0.69904-1.468 1.4558-2.25 2.25l-3.8125-1.5938 2.1875 3.25c-0.52304 0.56043-1.0149 1.131-1.5312 1.7188l-2.5625-0.71875 1.8125 1.625c-0.61289 0.72191-1.2373 1.4404-1.8125 2.1875h-3.5625l1.8438 2.4062c-0.67666 1.0066-1.3144 2.0229-1.8438 3.0312-0.4363 0.83104-0.92979 1.6992-1.4062 2.5625l-2.8438-0.65625 1.0625 3.8125c-4.6474 8.1105-9.9027 16.481-10.094 19.156-0.23697 3.3176 0.96875 11.625 0.96875 11.625l-0.34375 0.34375-3.6875-0.8125 2.0625 2.375c-0.25531 0.24799-0.61268 0.62021-0.90625 0.90625l-3.75-0.90625 2 2.625c-0.45261 0.44385-0.825 0.8004-1.3125 1.2812l-3.0625-1.0625 1.625 2.4688-1.875 1.875-2.8438-0.8125 1.375 2.3125c-2.3615 2.3976-4.5785 4.6934-5.875 6.2188-4.0286 4.7395-7.3438 9.5-7.3438 9.5l2.8438 3.7812s-1.8958-0.22914-2.8438 0.71875-1.4375 5.4375-1.4375 5.4375-5.1901-0.94789-6.375 0-0.25 5.2188-0.25 5.2188-4.7396 0.45836-5.6875 1.4062-1.4062 5.4688-1.4062 5.4688l-7.3438 2.5938 0.6875 2.8438s-2.349-1.4166-4.7188-0.46875-4.0312 2.375-4.0312 2.375l4.9688 5.4375s-0.9583 4.2682 0.9375 4.0312 3.0938-4.7188 3.0938-4.7188l1.6562 1.4062 4.25-5.2188 1.0938 4.125c-0.16776-1.2276-0.0101-3.0896 2-4.8125 0.59639-0.51119 1.4066-1.2522 2.1875-1.9688l1.125 3.125 0.96875-5.125c0.65025-0.62204 1.3055-1.2472 1.9375-1.875l1.5938 4.6562v-6.25c1.6411-1.7021 2.9045-3.151 3.0938-3.7188 0.37515-1.1254 0.4212-2.2996 0.4375-2.8438l1.9375 3.3125-0.34375-5.5c0.0832-0.0886 0.22432-0.21901 0.3125-0.3125l1.2188 5.3438 0.5-7.0938c0.26052-0.26837 0.44607-0.50488 0.71875-0.78125l0.90625 3.375 0.53125-4.7812c0.19524-0.19055 0.39948-0.37649 0.59375-0.5625l1.7188 5.5938 1-8.0312c0.91644-0.73405 1.6566-1.2188 2.0625-1.2188 0.28288 0 0.63632 0.0419 1 0.0937l1.375 6.0625 1.5625-5.75c1.4811 0 2.9584-0.40368 3.9062-2.0625 0.49329-0.86326 1.6756-3.1536 3.1562-6l1.5625 1.9688-0.625-3.7812c0.44608-0.86068 0.90227-1.7717 1.375-2.6875l3.75 1.7188-1.9375-5.1562c0.15472-0.3008 0.28358-0.5443 0.4375-0.84375l2.2188 1.75-1.3125-3.5312c0.31683-0.61756 0.32439-0.66341 0.625-1.25l1.625 2.1562-0.375-4.5938c0.47641-0.93121 0.87074-1.6626 1.2188-2.3438l2 1.75-1-3.75 1.25-2.4375s1.4206-0.3188 3.0312-1.125l1.9375 4.2188-0.125-5.3125c0.91181-0.69309 1.7499-1.5812 2.25-2.6875l2.875 3.0312-1.5-6.0625c1.6773-3.5529 3.9381-8.2092 5.375-11.969l1.5625 3.5625-0.375-6.5938c0.35233-0.79237 0.84416-1.7425 1.375-2.75l1.8438 6.2812 1-11.438c3.4021-5.8049 7.2812-11.812 7.2812-11.812l4.375-24.719 0.125-0.375 0.0312-0.5625 1.875-10.594s-0.81858 0.8455-1.8438 1.9688l-1.7188-4.3438h-3.3125zm-72.375 139.44c0.10913 0.79854 0.34375 1.3438 0.34375 1.3438l-0.34375-1.3438z" fill="#23090d"/>
  <path d="m283.18 598.79s-14.455 42.418-19.669 39.575 19.669-39.575 19.669-39.575z" fill="url(#t)"/>
  <path d="m261.86 645.95c-2.1328-1.4218-22.513 18.958-17.062 22.987s21.091-19.669 17.062-22.987z" fill="url(#s)"/>
  <path d="m242.19 671.78c-1.8958-3.0807-6.1613-0.9479-6.1613-0.9479l2.1328 4.5025-3.0807 0.71093-0.9479 4.9765s2.6067 1.4218 4.0286-0.47395 0.71093-4.2655 0.71093-4.2655 4.2655-0.71092 3.3176-4.5025z" fill="url(#r)"/>
  <path d="m308.46875,535.65625c-3.20545.0682-7.29729.55067-10.84375,2.1875-.24284.11208-.48857.24448-.71875.375l-3.65625-1.71875 2.21875,2.71875c-.38428.31477-.75082.63999-1.09375,1l-2.75-1.5625 1.75,2.75c-.29117.38109-.55578.78455-.8125,1.1875l-3.375-1.1875 2.4375,2.75c-2.11294,4.09637-2.71875,8.4375-2.71875,8.4375l-1.1875.28125-5.09375-2.75 1.15625,3.71875c-.51714.13135-1.08095.28859-1.65625.4375l-4.125-1.96875 1.40625,2.6875-1.5625.4375-5.3125-3.125 2.71875,3.8125-7.09375-3 4.28125,3.84375c-.26007.0759-.51991.14159-.78125.21875l-8.6875-1.875 6.0625,2.65625-.5.15625-10.46875-1.4375 4.90625,3.25c-.34487.12005-.69305.25405-1.03125.375l-6.3125-1.71875 3.5,2.75c-.82858.32409-1.59499.67495-2.34375,1l-6.0625-2.125 3.25,2.46875h-6.8125l5.28125,1.78125c-.63425.36335-1.24468.74466-1.84375,1.125l-8.34375-.46875 5.71875,2.28125c-.70022.50892-1.39611,1.0228-2.03125,1.53125l-6.15625.28125 4.15625,1.375c-.24566.21641-.45557.44493-.6875.65625l-8.09375-.375 4.625,3.78125c-1.20482,1.31-1.90625,2.21875-1.90625,2.21875s-.81593,1.08963-2.0625,2.78125l-5.03125.75 3.15625,1.8125c-.32385.45453-.65635.91436-1,1.40625l-4.875.34375 3.75,1.3125c-.35366.51884-.7036.99074-1.0625,1.53125l-5.96875,2.0625 3.84375,1.28125c-.26027.41944-.52886.82988-.78125,1.25l-4.40625.46875 3.21875,1.59375c-.48531.86248-.93085,1.70627-1.34375,2.53125l-4.34375.5 3.3125,1.75c-.31177.74046-.61336,1.43572-.8125,2.09375l-3.03125.8125 2.65625.96875c-.0921.53205-.1705,1.04883-.25,1.5625l-4.3125,1 3.9375,1.625c-.0464.37058-.0848.73942-.125,1.09375l-4.90625.5625 4.75.78125c-.0327.32986-.0662.65839-.0937.96875l-5.75,2.0625 5.5625.5625c-.10086,1.77105-.125,3-.125,3l-1.15625,1.03125-1.5625-1.59375-.875,3.6875-.75.65625-4.9375-2.71875 1.34375,5.6875-1.25.96875-7.1875-2 5.40625,3.375c-.0956.0719-.18532.14708-.28125.21875h-.0312l-7-2.5 3.875,4.71875c-.94055.64376-1.87531,1.26247-2.78125,1.8125-.44.26715-.90629.56214-1.40625.84375l-6.78125-2.1875 3.78125,3.78125-.78125.40625-5.15635-.65625 .65625,2.8125-1.59375.75-4-2.1875 .625,3.71875-1.0625.46875-3.65625-2 1,3.15625c-.64697.27886-1.29972.53661-1.875.78125l-4.03125-.6875 1.34375,1.84375-2.15625.90625-3.8125-2.46875-3.5625.5625 5.75,4.90625-.5625,1.90625 2.1875.28125 .5625,6.25 2.71875-7.09375 .25-.0625 1.9375,5 1.875-6.09375 .90625-.28125 2.125,2.53125 1.15625-3.625c.74274-.25709 1.45933-.48663 2.25-.78125l3.40625,3.59375 1.03125-5.40625c.57023-.24833 1.15039-.48509 1.71875-.75l1.34375,3.15625 1.125-4.375c.4865-.25353.96425-.51552 1.4375-.78125l1,3.25 .25-3.96875c.64823-.39167 1.27154-.80351 1.875-1.21875l1.125,2.46875 .34375-3.5625c.34703-.27138.70957-.53232 1.03125-.8125 .0728-.0634.14609-.12398.21875-.1875l1.40625,1.5625 1.34375-4c.36621-.33342.70345-.66835 1.0625-1l.59375,4.15625 4.65625-7.09375 2.4375,3.5625 1.8125-9.875c1.48207-1.52463 2.5625-2.6875 2.5625-2.6875s.53251-.0573 1.3125-.28125l2.5,2.1875 1.25-4.15625c.53794-.43297 1.08479-.94845 1.59375-1.5625l1.53125,3.8125v-6.21875c.13027-.26337.25608-.52639.375-.8125l2.90625,4.3125-1.125-9.5c.32677-.98081.57114-1.75815.9375-2.84375l2.375,2.53125-1.28125-5.78125c.29593-.86953.57696-1.72222.875-2.59375l1.75,2.375-1-4.5625c.16476-.4802.30776-.87542.46875-1.34375l2.1875,2.90625-1.375-5.28125c1.29438-3.74951 2.71875-7.8125 2.71875-7.8125s1.92751,2.01711 4.5625,3.0625l.625,3.75 1.8125-3.15625c.91679.0726 1.85928-.0355 2.8125-.40625 .0913-.0355.20217-.10393.3125-.15625l.53125,2.09375 1.0625-3c.72829-.45382 1.58203-1.00747 2.5625-1.6875l.71875,4.40625 1.65625-6.125c.63018-.45538 1.31969-.93562 2-1.4375l1.25,3.46875 .15625-4.53125 1.59375-1.1875 1.8125,3 .28125-4.59375c.60508-.46096 1.228-.93359 1.84375-1.40625l1.96875,3 1.0625-5.34375 2.78125-2.15625 2.15625,2.3125 .28125-4.21875c.76353-.60011 1.54792-1.2022 2.28125-1.78125l2.0625,1.90625 2.03125-5.15625c1.16381-.92616 1.93437-1.5598 2.875-2.3125l2.46875,2.8125 .40625-5.09375 1.78125-1.4375c0,0 3.01013,1.09375 7.375,1.09375h7.625l8.1875-22.65625c0,0-2.3258-.34945-5.53125-.28125z" fill="#23090d"/>
  <path d="m277.44 557.5c-1.0912-3.0008-23.734 7.3657-26.735 10.094s-6.8201 6.2745-4.3649 8.1841 6.0017 0.2728 10.639-3.0008 21.006-12.003 20.46-15.277z" fill="url(#q)"/>
  <path d="m237.07 582.59c-2.728-0.5456-18.278 30.008-10.639 31.372s13.367-30.554 10.639-31.372z" fill="url(#p)"/>
  <path d="m397.44 530.25c3.2041-0.11557 7.3168 0.13168 10.951 1.5626 0.24886 0.098 0.50177 0.21608 0.73905 0.3332l3.5518-1.9254-2.0593 2.8414c0.40169 0.29224 0.78626 0.59592 1.1492 0.93569l2.656-1.7175-1.5896 2.8458c0.31253 0.36378 0.59982 0.75142 0.87921 1.139l3.3014-1.3789-2.2759 2.8851c2.3442 3.9686 3.1977 8.2679 3.1977 8.2679l1.2017 0.21275 4.9278-3.0373-0.94129 3.7789c0.52381 0.1015 1.0957 0.22618 1.6786 0.34188l4.0054-2.2018-1.25 2.7637 1.585 0.34726 5.1247-3.4242-2.4959 3.962 6.9102-3.4015-4.054 4.0827c0.26399 0.0609 0.52716 0.11157 0.7925 0.17363l8.5658-2.3697-5.9004 2.9992 0.50813 0.12734 10.369-2.0349-4.712 3.5258c0.35118 0.10009 0.70647 0.21393 1.051 0.3153l6.2037-2.0776-3.3367 2.946c0.84579 0.27608 1.631 0.58246 2.3972 0.86407l5.9308-2.4688-3.1032 2.6509 6.8013-0.39031-5.1705 2.0809c0.65402 0.32642 1.2853 0.67213 1.9052 1.0175l8.3032-0.94603-5.5786 2.6052c0.72822 0.46796 1.4524 0.94113 2.1156 1.4124l6.1622-0.0719-4.0706 1.6109c0.25765 0.20198 0.48031 0.4181 0.72397 0.61579l8.059-0.83811-4.4008 4.04c1.2779 1.2388 2.0302 2.1059 2.0302 2.1059s0.87701 1.0411 2.2185 2.6585l5.066 0.46051-3.0472 1.9904 1.0789 1.3466 4.8867 0.0639-3.6686 1.5252c0.38281 0.49773 0.75921 0.9488 1.1485 1.4679l6.0771 1.7171-3.764 1.4994c0.28388 0.40384 0.57554 0.79822 0.85159 1.2032l4.4259 0.21553-3.1222 1.7755c0.53393 0.83326 1.0271 1.6501 1.4866 2.4501l4.3653 0.2503-3.2068 1.9369c0.35368 0.72138 0.69461 1.3982 0.93112 2.0438l3.0728 0.63749-2.5964 1.1193c0.12243 0.5259 0.23031 1.0373 0.33911 1.5456l4.3627 0.75128-3.8379 1.8479c0.0676 0.36731 0.12703 0.73334 0.18746 1.0848l4.9304 0.28048-4.6974 1.0521c0.0515 0.32744 0.10382 0.65352 0.14905 0.96179l5.8587 1.7297-5.5211 0.88028c0.20217 1.7624 0.29668 2.9879 0.29668 2.9879l1.2134 0.96331 1.4686-1.6807 1.0848 3.6313c0.2656 0.20211 0.49855 0.39575 0.78636 0.6122l4.7736-2.9972-1.0157 5.7552c0.42534 0.3011 0.8638 0.59144 1.3034 0.89554l7.0611-2.4085-5.204 3.6792c0.0996 0.0663 0.19345 0.13622 0.29333 0.20227l0.0311-2e-3 6.8453-2.897-3.5983 4.933c0.97589 0.58881 1.9446 1.153 2.8805 1.6502 0.45458 0.24151 0.93701 0.5093 1.4523 0.7618l6.6448-2.5724-3.5584 3.9917 0.80325 0.36082 5.1103-0.9506-0.49404 2.8455 1.6341 0.65746 3.8681-2.4131-0.41091 3.7484 1.0876 0.4071 3.5357-2.2062-0.81752 3.2084c0.66188 0.24133 1.3283 0.46126 1.9167 0.67254l3.9852-0.91734-1.2359 1.9177c1.0946 0.38342 2.2046 0.78122 2.2046 0.78122l3.6648-2.6831 3.5889 0.35746-5.4595 5.2276 0.67079 1.8709-2.1678 0.40612-0.20349 6.272-3.1207-6.9263s-0.23699-0.045-0.25317-0.0481l-1.6478 5.1028-2.221-5.9763-0.92088-0.22887-1.9765 2.6488-1.362-3.5528c-0.75625-0.21411-1.4848-0.40222-2.2911-0.65105l-3.1948 3.783-1.3393-5.3383c-0.58352-0.21526-1.1763-0.41839-1.7589-0.6503l-1.1607 3.2281-1.3738-4.3034c-0.50023-0.22524-0.99221-0.45943-1.4799-0.69761l-0.81216 3.302-0.47697-3.9479c-0.66961-0.35389-1.3155-0.72934-1.9418-1.1093l-0.9817 2.5292-0.5473-3.537c-0.36201-0.25105-0.7389-0.49079-1.0761-0.75208l-0.22913-0.17466-1.3144 1.6405-1.5707-3.9164c-0.38471-0.31189-0.74058-0.62694-1.118-0.93748l-0.35465 4.1834-5.055-6.8153-2.2294 3.6963-2.3753-9.7549c-1.567-1.4372-2.7123-2.5363-2.7123-2.5363s-0.53492-0.0267-1.3265-0.20559l-2.3706 2.3271-1.4861-4.0778c-0.56186-0.40144-1.1374-0.88474-1.6806-1.4686l-1.3103 3.894-0.3563-6.2085c-0.14515-0.25547-0.28582-0.51085-0.42093-0.78968l-2.6544 4.4719 0.57886-9.5488c-0.38243-0.96048-0.67093-1.7225-1.0989-2.7854l-2.2261 2.6632 0.94791-5.8452c-0.34526-0.85115-0.67468-1.6863-1.0222-2.5394l-1.611 2.4714 0.73696-4.6123c-0.19201-0.46997-0.35741-0.85635-0.54497-1.3147l-2.0174 3.0268 1.0702-5.3514c-1.5071-3.6692-3.1619-7.6439-3.1619-7.6439s-1.8088 2.1242-4.3795 3.3189l-0.40913 3.7796-1.9904-3.0472c-0.91113 0.12501-1.8583 0.0711-2.8312-0.24445-0.0932-0.0302-0.20779-0.0922-0.32094-0.13808l-0.41042 2.1207-1.2326-2.9342c-0.7531-0.41135-1.6372-0.91518-2.655-1.5379l-0.46511 4.4402-2.0045-6.02c-0.65523-0.41853-1.3711-0.85847-2.0791-1.3206l-1.0492 3.5347-0.41561-4.5149-1.6592-1.0942-1.6376 3.0989-0.54398-4.5701-1.9213-1.2983-1.7936 3.1079-1.3669-5.2741-2.9002-1.9934-2.0202 2.4322-0.52249-4.1957c-0.79666-0.55538-1.6143-1.1115-2.3796-1.6476l-1.9499 2.0213-2.3233-5.0314c-1.215-0.85796-2.0206-1.4464-3.0028-2.144l-2.3036 2.9493-0.69742-5.0621-1.8607-1.3331s-2.9425 1.2644-7.3002 1.5145l-7.6125 0.43686-9.4721-22.15s2.302-0.48213 5.506-0.59769z" fill="#23090d"/>
  <path d="m429.67 550.27c0.9175-3.0584 24.117 5.9938 27.269 8.5454s7.1684 5.8734 4.8266 7.9206-5.9762 0.61621-10.794-2.3864-21.659-10.78-21.302-14.08z" fill="url(#o)"/>
  <path d="m471.41 573.02c2.6923-0.701 19.967 28.912 12.419 30.711s-15.096-29.738-12.419-30.711z" fill="url(#n)"/>
  <path d="m412.15 559.74-3.9497 3.2453-0.44532 2.3935c0.6014 0.54194 1.1228 1.0174 1.776 1.6215l2.7808-2.9822 5.1816 0.99238-3.9563 5.9037c0.63323 0.66737 1.1976 1.2942 1.531 1.7559 2.001 2.77 2.5433 9.6295 2.5433 9.6295s1.5 0.99599 3.6319 2.5208l4.4751-2.5772-1.0584 5.0749c0.86459 0.66684 1.7307 1.3914 2.6534 2.1512l4.2918-1.7572-2.3742 3.3421c0.61824 0.53745 1.2013 1.0864 1.8129 1.6514l2.8979-0.82886-2.0076 1.7021c0.7269 0.69493 1.4668 1.3859 2.1516 2.1077l4.0666-0.1538-2.0137 2.4841c0.81046 0.97669 1.5768 1.9647 2.2192 2.9495 0.52945 0.81161 1.1256 1.6578 1.7021 2.5l3.2214-0.77855-1.0688 3.8556c5.6116 7.9041 11.927 16.042 12.246 18.707 0.39588 3.305-0.6665 11.659-0.6665 11.659l0.40539 0.32866 4.1786-0.97111-2.2646 2.4623 1.0687 0.86648 4.2464-1.0675-2.1838 2.7095c0.53343 0.42399 0.97199 0.76421 1.5466 1.2237l3.4557-1.194-1.7616 2.5371c0.73557 0.59243 1.466 1.1859 2.2112 1.7927l3.2154-0.93469-1.4822 2.3702c2.7862 2.2939 5.4037 4.4924 6.9414 5.9607 4.7778 4.5622 8.742 9.1762 8.742 9.1762l-3.1032 3.9013s2.1555-0.31083 3.2733 0.59546 1.8464 5.3716 1.8464 5.3716 5.8887-1.1713 7.2771-0.27522 0.4826 5.2042 0.4826 5.2042 5.4276 0.25342 6.5454 1.1597 1.8119 5.4041 1.8119 5.4041l8.481 2.2749-0.67731 2.8714s2.6278-1.517 5.3688-0.67213 4.6914 2.1993 4.6914 2.1993l-5.4664 5.6481s1.2552 4.2238-0.91781 4.0688-3.7099-4.5818-3.7099-4.5818l-1.8375 1.4768-5.0486-5.0316-1.0926 4.1693c0.1451-1.234-0.10523-3.0878-2.4649-4.7227-0.7001-0.48507-1.653-1.1906-2.5714-1.8729l-1.1661 3.1713-1.2995-5.0795c-0.76577-0.59353-1.5373-1.1899-2.2825-1.79l-1.6433 4.7217-0.2362-6.2455c-1.9376-1.6301-3.4346-3.0234-3.6721-3.5825-0.47077-1.1084-0.56771-2.2798-0.60688-2.8228l-2.0865 3.3938 0.18453-5.5109c-0.0983-0.085-0.26433-0.20917-0.36853-0.29879l-1.1892 5.3926-0.83884-7.0671c-0.30753-0.25693-0.52827-0.48526-0.84999-0.74966l-0.90693 3.4117-0.78712-4.7549-0.69903-0.53646-1.7506 5.664-1.445-7.9823c-1.0739-0.69396-1.9371-1.1464-2.4004-1.1288-0.3229 0.0122-0.72477 0.0693-1.138 0.13681l-1.3404 6.1175-2.0009-5.6784c-1.6907 0.0639-3.3922-0.27567-4.537-1.8924-0.59571-0.84134-2.0318-3.079-3.8296-5.8594l-1.7092 2.0348 0.57054-3.8055c-0.54173-0.84081-1.0969-1.7315-1.6711-2.6262l-4.2157 1.8794 2.0168-5.2362-0.53129-0.82426-2.4666 1.8445 1.3648-3.5854c-0.385-0.60344-0.39537-0.64893-0.76068-1.2221l-1.7735 2.2249 0.25446-4.6067c-0.57902-0.90998-1.0568-1.6238-1.4798-2.2895l-2.2169 1.8351 0.99978-3.7905-1.519-2.3818s-1.6336-0.25724-3.5027-0.99333l-2.0522 4.2994-0.0581-5.3141c-1.067-0.65323-2.0573-1.5045-2.67-2.5884l-3.1673 3.1532 1.4831-6.1229c-2.0489-3.478-4.8056-8.0333-6.5879-11.728l-1.649 3.6274 0.17887-6.6052c-0.43213-0.77659-1.0295-1.7048-1.6735-2.6887l-1.8673 6.3564-1.5738-11.386c-4.1029-5.6539-8.758-11.49-8.758-11.49l-5.9283-24.512-0.15686-0.36934-0.0569-0.56075-2.5407-10.505s0.96637 0.80955 2.179 1.8877l1.7978-4.4148 3.7812-0.14301zm87.886 136.21c-0.0944 0.80268-0.34161 1.3576-0.34161 1.3576l0.34161-1.3576z" fill="#23090d"/>
  <path d="m424.21 592.26s18.104 41.764 23.948 38.697-23.948-38.697-23.948-38.697z" fill="url(#m)"/>
  <path d="m450.34 638.46c2.3808-1.5129 26.415 17.972 20.345 22.233s-24.818-18.744-20.345-22.233z" fill="url(#l)"/>
  <path d="m473.77 663.43c2.0476-3.1603 6.9974-1.2132 6.9974-1.2132l-2.2644 4.5914 3.5435 0.57743 1.2701 4.932s-2.9218 1.5334-4.6165-0.29969-0.97273-4.2318-0.97273-4.2318-4.896-0.52626-3.9573-4.3561z" fill="url(#k)"/>
  <path d="m354.61 727.3c24.896-0.65863 57.169-45.05 64.545-93.261 7.3162-47.817-21.562-100.36-25.028-102.48l-4.0156 2.6193-4.028-2.554-3.0043 3.2014-4.3669-1.9254-2.3666 5.1561-3.3563-3.6671-3.5646 5.4224-2.3714-4.2609-2.1162 3.0169-4.1482-3.5685-2.5556 2.85-2.713-3.3407-2.3455 5.6797-3.1497-3.7904-3.041 4.5066-2.1449-4.0694-3.1445 3.547-4.0442-4.4176-3.6051 3.3612-1.5431-4.5689-2.8717 2.4036-2.8642-2.3356-3.4384 2.213-2.2938-2.8498-1.8587 1.9986-1.5798-2.9066-3.7203 3.8494-2.9988-5.3071s-27.294 55.301-20.549 99.321c5.4848 35.797 39.386 96.818 64.282 96.159z" fill="url(#j)"/>
  <path d="m297.06 655.86s30.869 6.4255 59.059 6.162 59.119-10.006 59.119-10.006c-2.1143 6.5611-4.2632 13.281-7.3582 20.581 0 0-29.834 6.7189-51.964 6.7189s-51.061-5.1878-51.061-5.1878c-3.0371-6.2357-5.5025-12.281-7.795-18.268z" fill="url(#i)"/>
  <path d="m308.78 681.83s25.809 2.7324 47.148 3.0236c21.902 0.29886 49.866-7.6746 49.866-7.6746-2.7014 5.273-5.4828 10.546-8.6786 15.819 0 0-21.13 4.9519-41.679 5.2154s-39.107-3.5099-39.107-3.5099c-2.781-4.4234-5.2685-8.7-7.55-12.874z" fill="url(#h)"/>
  <path d="m322.6 703.77s18.686 2.2157 32.651 2.3821c14.244 0.16974 37.471-6.6191 37.471-6.6191-3.2027 4.2489-6.4504 8.4527-10.145 12.21 0 0-16.454 4.3267-27.443 4.1976-10.814-0.12706-24.93-2.973-24.93-2.973-2.5345-2.7104-5.0689-5.7376-7.6034-9.1974z" fill="#180f00"/>
  <path d="m333.6 716.43s10.046 1.6679 20.914 1.7061c10.761 0.0378 24.856-3.2788 24.856-3.2788s-11.328 12.176-24.764 12.439-21.006-10.866-21.006-10.866z" fill="#180f00"/>
  <path d="m289.68 613.49s38.991 13.173 65.599 13.436 65.863-10.801 65.863-10.801l-2.1076-17.651s-36.62 12.382-64.018 12.382-64.018-13.699-64.018-13.699z" fill="url(#g)"/>
  <path d="m409.67 562.87s-31.087 11.592-54.534 12.646-57.432-11.592-57.432-11.592l4.7421-11.592s35.039 13.173 53.217 12.119 50.319-11.328 50.319-11.328z" fill="url(#f)"/>
  <path d="m363.29 399.27s7.5976-5.3026 9.7345-6.3577 7.3602-3.0624 8.0725-4.8838 0-3.4294 0-3.4294 4.986-1.4819 9.4971-4.6074 17.807-12.956 21.606-16.71 13.296-12.035 16.145-13.442 4.986-1.9718 6.1731-3.6194 0.71228-3.0462 0.71228-4.271 1.8994-2.9791-0.47486-3.1133-8.3099 5.4094-12.584 7.7644-14.246 9.2382-18.519 14.043-8.3099 8.5938-12.346 11.403-10.922 8.0053-12.346 8.4637-1.8994-0.45028-5.4608 1.798-12.584 9.969-12.584 9.969-3.7988 3.5087-2.6117 6.5152 4.986 0.47774 4.986 0.47774z" fill="#1e0f09"/>
  <path d="m360.68 397.45s5.9357-4.8087 7.8351-6.0731 6.8854-5.4409 6.8854-5.4409 0.9497-3.8166-0.94971-2.7972-0.47485 2.5207-1.662 3.1885-13.533 9.1314-12.109 11.123z" fill="#5c2d1b"/>
  <path d="m424.38859,346.34712c.56744-.0719 1.06807.12576 1.2955.56136 .3639.69695-.0816,1.76901-1.01387,2.38924-.76937.51184-1.6341.56204-2.11223.1712 .14283.67977-.31074,1.54379-1.12653,2.08651-.606.40315-1.26117.50919-1.74611.34874-.0317.61674-.46595,1.31291-1.15468,1.7711-.60799.40448-1.26072.51153-1.74612.34875 .14284.67977-.31074,1.57285-1.12652,2.11556-.61533.40936-1.28727.52448-1.77427.35296 .14283.67978-.31075,1.57285-1.12653,2.11556-.93232.62024-1.97364.55323-2.33754-.14372s.0816-1.76901 1.01388-2.38925c.61533-.40936 1.28727-.52447 1.77427-.35296-.14283-.67977.31074-1.57285 1.12652-2.11556 .60601-.40316 1.26118-.5092 1.74612-.34874-.14284-.67978.31074-1.57285 1.12652-2.11557 .60601-.40315 1.26117-.50919 1.74611-.34874 .0426-.61016.47596-1.29052 1.15469-1.74205 .76937-.51183 1.6341-.56203 2.11223-.17119-.14283-.67978.31074-1.57285 1.12652-2.11557 .34962-.23258.70157-.37446 1.04204-.41763z" fill="#5c2d1b"/>
  <path d="m405.32217,361.6109c.56745-.0719 1.06808.12577 1.29551.56136 .36389.69696-.10972,1.74417-1.04204,2.36441-.47602.31668-.97756.47622-1.40815.44344 .10931.67222-.33176,1.52872-1.12653,2.05745-.5827.38765-1.21115.50326-1.68978.3694 .0157.0245.0144.0566.0281.0829 .36389.69696-.0816,1.76901-1.01387,2.38925s-1.97365.55323-2.33754-.14372 .0816-1.76901 1.01387-2.38925c.5827-.38765 1.21116-.50326 1.68979-.36941-.0175-.0269-.0412-.0497-.0563-.0787-.36389-.69695.10971-1.77323 1.04203-2.39347 .47603-.31667.97757-.44715 1.40816-.41437-.12419-.67578.32228-1.52242 1.12652-2.05745 .34962-.23259.72973-.37868 1.0702-.42186z" fill="#5c2d1b"/>
  <path transform="matrix(-.80621 .53634 .34722 .66502 468.42 7.247)" d="m258.99 352.93c0 1.048-0.93747 1.8976-2.0939 1.8976s-2.0939-0.84958-2.0939-1.8976 0.93748-1.8976 2.0939-1.8976 2.0939 0.84958 2.0939 1.8976z" fill="#5c2d1b"/>
  <path d="m329.58 400.85s-8.4304-4.4787-10.801-5.269-8.167-2.1076-8.9573-3.9518 0-3.6883 0-3.6883-5.5325-0.79035-10.538-3.4248-19.759-11.065-23.974-14.49-14.753-10.801-17.915-11.855-5.5325-1.3173-6.8497-2.898-0.79035-3.1614-0.79035-4.4786-2.1076-2.898 0.5269-3.4249 9.2208 4.4787 13.963 6.3228 15.807 7.6401 20.549 12.119 9.2208 7.9035 13.699 10.275 12.119 6.8497 13.699 7.1132 2.1076-0.79035 6.0594 1.0538 13.963 8.6939 13.963 8.6939 4.2152 3.1614 2.898 6.5863-5.5325 1.3172-5.5325 1.3172z" fill="#1e0f09"/>
  <path d="m332.47 398.48s-6.5863-4.2152-8.6939-5.269-7.6401-4.7421-7.6401-4.7421-1.0538-3.9518 1.0538-3.1614 0.5269 2.6345 1.8442 3.1614 15.017 7.6401 13.436 10.011z" fill="#5c2d1b"/>
  <path d="m261.78125,353.78125c-.62964.0141-1.18514.30737-1.4375.8125-.40378.80821.0905,1.88942 1.125,2.40625 .8537.4265 1.81321.34114 2.34375-.15625-.15849.75411.3448,1.61027 1.25,2.0625 .67243.33594 1.39941.34441 1.9375.0937 .0352.65819.51703,1.33695 1.28125,1.71875 .67463.33704 1.3989.34699 1.9375.0937-.15849.75411.3448,1.64152 1.25,2.09375 .68278.34111 1.42837.35664 1.96875.0937-.15849.75411.3448,1.64152 1.25,2.09375 1.03451.51683 2.18997.27696 2.59375-.53125s-.0905-1.88942-1.125-2.40625c-.68278-.34111-1.42837-.35664-1.96875-.0937 .15849-.75411-.3448-1.64152-1.25-2.09375-.67243-.33594-1.39941-.34441-1.9375-.0937 .15849-.75411-.3448-1.64152-1.25-2.09375-.67243-.33594-1.39941-.34441-1.9375-.0937-.0473-.64936-.52813-1.31125-1.28125-1.6875-.8537-.4265-1.81321-.34114-2.34375.15625 .15849-.75411-.3448-1.64152-1.25-2.09375-.38794-.19381-.77846-.28968-1.15625-.28125z" fill="#5c2d1b"/>
  <path d="m282.9375,367.125c-.62964.0141-1.18514.30737-1.4375.8125-.40378.80821.12174,1.85817 1.15625,2.375 .5282.26388 1.08471.35464 1.5625.25-.12129.74059.36812,1.59067 1.25,2.03125 .64657.32302 1.34391.34609 1.875.125-.0174.0289-.016.0632-.0312.0937-.40378.80821.0905,1.88942 1.125,2.40625s2.18997.27696 2.59375-.53125-.0905-1.88942-1.125-2.40625c-.64657-.32302-1.34391-.34609-1.875-.125 .0194-.0317.0457-.0601.0625-.0937 .40378-.80821-.12174-1.88942-1.15625-2.40625-.5282-.26388-1.08471-.32339-1.5625-.21875 .1378-.74681-.35761-1.58542-1.25-2.03125-.38794-.19381-.80971-.28968-1.1875-.28125z" fill="#5c2d1b"/>
  <path transform="matrix(.89457 .44692 -.38528 .77118 212.92 -3.8243)" d="m258.99 352.93c0 1.048-0.93747 1.8976-2.0939 1.8976s-2.0939-0.84958-2.0939-1.8976 0.93748-1.8976 2.0939-1.8976 2.0939 0.84958 2.0939 1.8976z" fill="#5c2d1b"/>
  <path d="m394.06 519.15 4.2801-49.311s7.8469 7.454 19.261 3.4692 177.63-67.759 216.15-62.304 28.534 27.105 24.967 36.32-39.235 52.433-57.782 55.573-33.528 0.77052-33.528 0.77052 14.98 1.6274 7.8469 11.161-57.069 39.199-72.762 40.601-61.349-19.726-69.909-22.669-28.534-15.985-38.521-13.61z" fill="url(#ah)"/>
  <path d="m615.77 411.21c8.9989-0.56195 25.879 0.68508 32.594 3.4542 7.6401 3.1507 13.969 15.705 13.969 15.705s-13.181-11.395-21.875-14.999-36.077 1.5705-49.25 3.2946-50.312 14.367-50.312 14.367l-1.3438 3.9522 7.375-0.65871c3.6883-0.32942 9.5031-1.6932 15.562-2.2344s20.803-2.6744 25.281-3.622 15.825-1.97 21.094-2.9882 18.688-6.0209 18.688-6.0209-11.311 7.2872-16.844 8.8765-17.406 1.5547-17.406 1.5547 4.4727 2.6159 6.8438 3.773 4.4818 6.4378 6.0625 8.4869 3.1772 1.6368 9.5 1.6197 17.375 2.5726 17.375 2.5726-8.1598 0.43199-12.375 0.2609-16.875-0.4089-16.875-0.4089-5.2405 5.9652-7.875 9.2122-3.4375 8.491-3.4375 8.491 2.1151 2.0326 6.5938 5.1919 12.094 7.9482 12.094 7.9482-7.0973-1.003-11.312-4.1858-7.6562-6.9806-7.6562-6.9806-16.329 1.4491-22.125 2.788-18.438 4.115-18.438 4.115l0.28125 16.928s-2.375-12.091-2.375-15.377-6.8438-8.4172-6.8438-8.4172-1.3299 1.2135-3.4375 2.2231-26.36 4.2565-32.156 5.048-20.799 3.7688-22.906 5.326 0.78125 9.2509 0.78125 9.2509 11.851 0.84818 20.281 0.91657 43.75 2.6851 43.75 2.6851-9.2223 0.81955-13.438 0.64809-47.677-2.6032-55.844-2.969-32.671 3.1873-45.844 3.5425-26.344 1.541-26.344 1.541 4.4592 4.5426 7.0938 4.8549 14.243-2.098 26.625-2.9301 52.156-3.2902 74.812-2.8498 52.438 8.4369 52.438 8.4369-37.682-5.3796-44.531-5.863-31.344-0.4806-31.344-0.4806 13.678 7.5466 18.156 9.0631 23.99 6.0503 26.625 6.9102 7.375 5.6417 7.375 5.6417-3.9458-1.5633-6.8438-3.221-7.125-0.46782-7.125-0.46782-11.07 3.457-15.812 3.8805-17.906 0.5276-17.906 0.5276 5.5304 4.6784 9.2188 7.3606 12.125 7.4258 12.125 7.4258-10.798-4.2358-14.75-6.347-11.594-9.6492-11.594-9.6492-22.392 0.62202-24.5 1.084-3.1562 6.0434-3.1562 9.6026 6.8429 4.0276 10.531 6.9836 10 15.832 10 15.832-8.4189-10.224-11.844-13.751-16.32-8.6466-21.062-10.687-42.7-12.095-46.125-13.158-6.0625-5.2068-6.0625-5.2068-0.786 3.902 0.53125 5.7009 23.195 8.6343 27.938 16.698c0 0-7.1107-3.2012-11.062-5.3123s-12.919-5.4339-16.344-6.4969-7.1206-1.5625-6.5938-4.3475 3.4375-1.1189 3.4375-1.1189-2.911-9.325-1.5938-9.9903 3.4284 2.1624 4.2188 0.17529-3.6966-3.4922-2.9062-6.3006 3.9688-0.35405 3.9688-2.2706-1.5894-2.873-1.0625-6.2055 5.8125-1.6234 5.8125-1.6234 5.7761 0.84811 8.9375 0.56574 5.8164-0.52366 8.1875-1.2834 10.007 1.8477 16.594 2.9022 40.812-1.4368 40.812-1.4368l-1.0312-7.8646s-21.61 2.7605-29.25 3.7167-35.03 2.2938-42.406 2.1313-7.3841-1.5246-6.5938-6.5234 7.625-6.6892 7.625-6.6892 12.664-2.5181 19.25-3.9277 31.354-11.837 44-15.979 49.257-17.812 59.531-20.646 30.034-9.7899 39.781-12.029 33.467-8.1899 40.844-9.3963c0.46104-0.0754 0.97174-0.14468 1.5312-0.20172 0.52454-0.0531 1.0876-0.11324 1.6875-0.15072zm-78.062 22.366-21.312 7.0998s-0.78995 3.0904-1.8438 5.1011-2.9062 5.7156-2.9062 5.7156 27.38-10.368 26.062-17.916zm51.656-0.52172-29 4.2465s9.4992 2.9694 13.188 4.8303 7.125 4.5923 7.125 4.5923l23.438-1.5412s-1.5842-3.9731-4.2188-6.4757-10.531-5.6521-10.531-5.6521zm-39.25 5.162-11.594 2.1397-7.6562 6.692s7.6511 3.1579 10.812 3.9707 35.562-2.0721 35.562-2.0721-4.2266-3.4633-8.9688-6.0514-18.156-4.6788-18.156-4.6788zm-39.531 5.4469s-11.052 4.5591-17.375 7.0404-34.252 13.739-47.688 18.224-22.938 5.3288-22.938 5.3288 8.1832 1.7089 7.6562 4.2201c-0.22246 1.0602-1.6875 1.5878-3.2812 1.8519l-4.625 0.2507s2.4438 0.11071 4.625-0.2507c3.7587-0.1982 8.556-0.49377 11.719-0.9493 5.0056-0.72081 43.719-3.3526 43.719-3.3526s13.686-12.458 19.219-18.702 8.9688-13.662 8.9688-13.662zm17.656 3.6192s-2.9007 2.1933-7.9062 4.8306-11.844 2.4218-11.844 2.4218-4.7448 5.0671-7.9062 9.1825-12.125 11.475-12.125 11.475 9.7306-1.9638 16.844-3.4205 26.11-4.517 33.75-6.2945 5.2638-5.9348 3.1562-8.7582-13.969-9.4371-13.969-9.4371zm72.438 1.1946-8.9375 0.79826c-6.3228 0.56473-19.257 1.7385-27.688 2.7652s-20.531 1.5415-20.531 1.5415 4.7366 3.9654 5 6.4059-3.9375 5.8402-3.9375 5.8402l6.5625 5.9741s11.329-2.3989 18.969-3.9026 20.812-2.6708 20.812-2.6708 0.7943-4.4499 2.375-7.8765 7.375-8.8752 7.375-8.8752zm-196 54.464s1.5712 3.4366 2.625 3.89 0.0127 3.5524 3.4375 4.8892 50.594 15.454 50.594 15.454l1.8438-7.277s-12.923-3.4849-16.875-4.5009-22.401-5.9416-27.406-7.6848-14.219-4.7706-14.219-4.7706zm37.281-2.6478c-11.077 1.0664-24.094 2.834-24.094 2.834 2.6345 2.5026 42.405 12.659 47.938 13.808s32.936 0.60274 40.312 0.49146 16.844-5.0443 16.844-5.0443-13.682-3.9968-20.531-6.1229-12.906-8.4278-12.906-8.4278-26.886 1.3251-37.688 1.7423c-2.7004 0.10428-6.1826 0.36415-9.875 0.71961z" fill="#35260b" fill-opacity=".49"/>
  <path d="m311.74 520.91-4.2801-47.082s-7.8469 7.8469-19.261 4.9935-177.63-49.935-216.15-41.375-28.534 28.534-24.967 37.095 39.235 47.082 57.782 48.508 33.528-2.1401 33.528-2.1401-14.98 2.8534-7.8469 11.414 57.069 32.814 72.762 32.814 61.349-24.254 69.909-27.821 28.534-17.834 38.521-16.407z" fill="url(#ag)"/>
  <path d="m90.031 436.09c-8.9989 0.23266-25.879 2.8833-32.594 6.125-7.6401 3.6883-13.969 16.312-13.969 16.312s13.181-12.097 21.875-16.312 36.077-1.5894 49.25-1.0625 50.312 9.5 50.312 9.5l1.3438 3.6875h-7.375c-3.6883 0-9.5031-0.8125-15.562-0.8125s-20.803-0.7856-25.281-1.3125-15.825-0.5356-21.094-1.0625-18.688-4.1875-18.688-4.1875 11.311 6.04 16.844 7.0938 17.406 0 17.406 0-4.4727 2.9015-6.8438 4.2188-4.4818 6.5799-6.0625 8.6875-3.1772 1.8481-9.5 2.375-17.375 3.9688-17.375 3.9688 8.1598-0.2856 12.375-0.8125 16.875-1.8438 16.875-1.8438 5.2405 5.2896 7.875 8.1875 3.4375 7.875 3.4375 7.875-2.1151 2.1376-6.5938 5.5625-12.094 8.6875-12.094 8.6875 7.0973-1.5751 11.312-5 7.6562-7.375 7.6562-7.375 16.329-9e-3 22.125 0.78125 18.438 2.375 18.438 2.375l-0.28125 16.312s2.375-11.839 2.375-15 6.8438-8.6875 6.8438-8.6875 1.3299 1.0534 3.4375 1.8438 26.36 1.8303 32.156 2.0938 20.799 1.839 22.906 3.1562-0.78125 8.9688-0.78125 8.9688-11.851 1.8346-20.281 2.625-43.75 6.3438-43.75 6.3438 9.2223-4e-3 13.438-0.53125 47.677-6.6024 55.844-7.6562 32.671 0.2591 45.844-0.53125 26.344-0.78125 26.344-0.78125-4.4592 4.7544-7.0938 5.2812-14.243-0.7947-26.625-0.53125-52.156 1.3164-74.812 3.6875-52.438 12.625-52.438 12.625 37.682-8.415 44.531-9.4688 31.344-3.1562 31.344-3.1562-13.678 8.4371-18.156 10.281-23.99 7.8837-26.625 8.9375-7.375 6.0625-7.375 6.0625 3.9458-1.8434 6.8438-3.6875 7.125-1.0625 7.125-1.0625 11.07 2.375 15.812 2.375 17.906-1.0312 17.906-1.0312-5.5304 4.977-9.2188 7.875-12.125 8.1875-12.125 8.1875 10.798-5.0039 14.75-7.375 11.594-10.281 11.594-10.281 22.392-1.326 24.5-1.0625 3.1562 5.5439 3.1562 8.9688-6.8429 4.4636-10.531 7.625-10 16.094-10 16.094 8.4189-10.562 11.844-14.25 16.32-9.7227 21.062-12.094 42.7-15.308 46.125-16.625 6.0625-5.5312 6.0625-5.5312 0.786 3.6871-0.53125 5.5312-23.195 10.302-27.938 18.469c0 0 7.1107-3.6914 11.062-6.0625s12.919-6.339 16.344-7.6562 7.1206-2.1155 6.5938-4.75-3.4375-0.78125-3.4375-0.78125 2.911-9.2231 1.5938-9.75-3.4284 2.3754-4.2188 0.53125 3.6966-3.678 2.9062-6.3125-3.9688 4.1e-4 -3.9688-1.8438 1.5894-2.9011 1.0625-6.0625-5.8125-1.0625-5.8125-1.0625-5.7761 1.3125-8.9375 1.3125-5.8164-4e-3 -8.1875-0.53125-10.007 2.638-16.594 4.2188-40.812 2.125-40.812 2.125l1.0312-7.6562s21.61 0.79904 29.25 1.0625 35.03-0.8034 42.406-1.5938 7.3841-2.1016 6.5938-6.8438-7.625-5.7812-7.625-5.7812-12.664-1.3346-19.25-2.125-31.354-8.6958-44-11.594-49.257-12.906-59.531-14.75-30.034-6.839-39.781-8.1562-33.467-5.0044-40.844-5.5312c-0.46104-0.0329-0.97174-0.0557-1.5312-0.0625-0.52454-6e-3 -1.0876-0.0155-1.6875 0zm78.062 14.812 21.312 5s0.78995 2.9058 1.8438 4.75 2.9062 5.25 2.9062 5.25-27.38-7.6234-26.062-15zm-51.656 3.9375 29 1.5938s-9.4992 3.6736-13.188 5.7812-7.125 5.0312-7.125 5.0312l-23.438 0.53125s1.5842-3.9592 4.2188-6.5938 10.531-6.3438 10.531-6.3438zm39.25 1.5938 11.594 1.0625 7.6562 5.7812s-7.6511 3.6962-10.812 4.75-35.562 1.0625-35.562 1.0625 4.2266-3.6958 8.9688-6.5938 18.156-6.0625 18.156-6.0625zm39.531 1.8438s11.052 3.4371 17.375 5.2812 34.252 10.276 47.688 13.438 22.938 3.1562 22.938 3.1562-8.1832 2.3477-7.6562 4.7188c0.22246 1.0011 1.6875 1.3829 3.2812 1.5 2.19-0.0771 4.625-0.15625 4.625-0.15625s-2.4438 0.31656-4.625 0.15625c-3.7587 0.13233-8.556 0.26021-11.719 0.0937-5.0056-0.2634-43.719 0.5313-43.719 0.5313s-13.686-10.811-19.219-16.344-8.9688-12.375-8.9688-12.375zm-17.656 5s2.9007 1.8611 7.9062 3.9688 11.844 1.3125 11.844 1.3125 4.7448 4.468 7.9062 8.1562 12.125 10 12.125 10-9.7306-1.0534-16.844-1.8438-26.11-2.1024-33.75-3.1562-5.2638-5.2583-3.1562-8.1562 13.969-10.281 13.969-10.281zm-72.438 7.375h8.9375c6.3228 0 19.257 0.0178 27.688 0.28125s20.531-0.28125 20.531-0.28125-4.7366 4.2227-5 6.5938 3.9375 5.2812 3.9375 5.2812l-6.5625 6.3125s-11.329-1.3346-18.969-2.125-20.812-0.78125-20.812-0.78125-0.7943-4.2136-2.375-7.375-7.375-7.9062-7.375-7.9062zm196 35.562s-1.5712 3.4418-2.625 3.9688-0.0127 3.4193-3.4375 5-50.594 19.219-50.594 19.219l-1.8438-6.8438s12.923-4.464 16.875-5.7812 22.401-7.6424 27.406-9.75 14.219-5.8125 14.219-5.8125zm-37.281 0.65625c11.077 0.0741 24.094 0.65625 24.094 0.65625-2.6345 2.6345-42.405 15.826-47.938 17.406s-32.936 3.4106-40.312 3.9375-16.844-3.4062-16.844-3.4062 13.682-5.0217 20.531-7.6562 12.906-9.2188 12.906-9.2188 26.886-1.0356 37.688-1.5625c2.7004-0.13173 6.1826-0.18095 9.875-0.15625z" fill="#35260b" fill-opacity=".49"/>
 </g>
</svg>
