<?xml version="1.0" encoding="utf-8"?>
<!-- Generator: Adobe Illustrator 24.0.2, SVG Export Plug-In . SVG Version: 6.00 Build 0)  -->
<svg version="1.1" id="Warstwa_3" xmlns="http://www.w3.org/2000/svg" xmlns:xlink="http://www.w3.org/1999/xlink" x="0px" y="0px"
	 viewBox="0 0 2368.6086426 1651.6120605" style="enable-background:new 0 0 2368.6086426 1651.6120605;" xml:space="preserve">
<style type="text/css">
	.st0{fill:#E8A627;stroke:#000000;stroke-width:12.9581213;stroke-miterlimit:10;}
	.st1{fill:#C43124;stroke:#000000;stroke-width:12.9581213;stroke-miterlimit:10;}
	.st2{fill:none;stroke:#000000;stroke-width:12.9581213;stroke-miterlimit:10;}
	.st3{fill:#FCF6ED;stroke:#000000;stroke-width:12.9581213;stroke-miterlimit:10;}
</style>
<g>
	<path class="st0" d="M2036.3341064,217.5409851c91.8978271,55.6332703,193.1427002,118.5889282,221.96521,216.8892517
		c26.7521973,91.2362061-3.5166016,185.1552734-47.1704102,262.9973145
		c-55.2106934,98.4495239-138.0263672,178.6029663-236.2752686,234.1698608l-495.0554199,279.9897461l-635.6966553,289.3240967
		c-133.0219116,60.5421143-287.2944336,60.4273682-417.3140564-6.3189697
		c-87.2455444-44.7880859-171.1005249-121.8641357-216.0878143-253.8504639c0,0-134.6078644-306.6298828,24.7214355-457.1835327
		c39.6252899-37.442749,92.250412-57.9279785,146.6744537-61.1137695
		c117.7663269-6.8936157,452.5393066-40.3165894,687.5393066-200.8990479
		c189.387085-129.4149475,331.2858887-234.0534668,406.7880859-290.9553223
		c80.0986328-60.3659973,176.6981201-96.3261414,276.9786377-98.2460327
		c32.1794434-0.6160889,66.4450684,1.9346619,102.1452637,9.1200409
		C1936.4666748,157.7510529,1993.3725586,191.532196,2036.3341064,217.5409851z"/>
	<path class="st1" d="M94.7785339,1119.1540527c0,0-81.6076431-191.6567993,210.8197327-259.663147
		s632.4591675-170.0159302,632.4591675-170.0159302s487.7515259-149.5771484,798.6740112-496.4284058
		c25.7154541-28.687027,59.1348877-49.920517,96.3806152-59.7688141c3.2241211-0.8525238,6.5164795-1.6381226,9.869873-2.3424988
		c134.5687256-28.2661362,220.5288086,146.4872131,114.0289307,233.46698
		c-3.0454102,2.4871521-6.2578125,4.8973694-9.6459961,7.2202759
		c-59.0289307,40.4705811-115.4272461,84.6366577-167.5975342,133.632019
		c-85.8713379,80.6453857-228.1663818,194.817627-431.5598145,297.4176636
		c-31.3034668,15.7907715-62.0943604,32.6734009-92.5664063,50.0144653
		c-38.5650635,21.9467163-123.3132324,61.5150146-297.4320068,112.8312988
		c-93.4117432,27.5302734-189.1173096,46.4761963-285.6793213,59.1032715
		c-84.7937012,11.0881348-216.0124512,44.8569336-310.5393677,146.2086182
		c-30.4833069,32.684082-71.4159241,54.2404785-116.0348663,56.8165283
		C191.4183044,1230.7950439,125.8288956,1212.3739014,94.7785339,1119.1540527z"/>
	<path class="st2" d="M2120.6943359,377.9367676c0,0-94.9162598-32.6721191-168.7213135-9.4060364"/>
	<path class="st3" d="M229.3874207,1073.5323486c-15.680954-5.1196289-26.4617004-20.9178467-23.1508636-37.0776367
		c2.8008575-13.6708374,15.3259735-25.8283691,54.2229462-19.7752686c54.45578,8.4743652,72.6669312-17.8135376,78.692627-34.348938
		c6.4806824-17.7839966,15.4022217-34.6229858,28.3556213-48.4244385
		c35.3074951-37.6188965,111.0282898-83.553772,249.3436279-24.5238037c0,0,48.3146973,10.9487305,102.1567383-56.9376221
		c30.1549683-38.0206909,75.8146973-61.5220337,124.2629395-58.7539063
		c23.7610474,1.357605,50.1930542,7.8538818,77.5568848,23.4320068
		c59.2906494,33.7539673,101.7008667-6.2283936,125.1708374-40.961792
		c33.3852539-49.4072266,89.2834473-79.817627,148.7458496-75.3589478
		c18.7989502,1.409668,39.3692627,5.4709473,61.498291,13.3583984c0,0,52.5628662,8.0662842,22.7019043-63.1584473
		c-15.9969482-38.1561279,20.567627-57.9606323,57.96875-68.1256104c29.3520508-7.977356,60.0234375-9.1678467,90.2845459-6.0925903
		c36.7352295,3.7332764,101.560791-0.7701416,104.2960205-78.3115234
		c1.9210205-54.4568787,27.3659668-81.6697083,52.2277832-95.2681274
		c20.2531738-11.0776062,44.1210938-12.6852112,66.6333008-7.5765381
		c26.2506104,5.9570007,71.8807373,4.1665649,69.7213135-81.3398132c0,0-2.6481934-60.9767303,96.7592773-59.3521729
		c0,0,22.0119629,7.7033997,34.3696289-22.4436646c6.9689941-17.0009308,23.8446045-28.0777588,42.036377-25.4972534
		c17.8051758,2.5256805,32.3587646,13.3465881,16.210083,47.3498077
		c-31.2069092,65.7108612-74.1986084,54.6901398-74.1986084,54.6901398s-97.1917725-8.415802-71.6802979,95.3364563
		c0,0,7.1083984,51.9121704-83.3786621,32.1584778c-45.2435303-9.8768311-69.4549561,1.5728149-82.3554688,15.4916687
		c-9.7822266,10.5543823-14.3654785,24.8947754-14.0701904,39.2822571
		c0.6628418,32.2924194-4.916626,139.4400024-110.3145752,115.989563
		c-123.7479248-27.5332031-130.5855713,68.5869141-130.5855713,68.5869141s-17.307373,119.8386841-87.4783936,97.6962891
		c-70.1711426-22.142334-142.5289307-32.975647-205.2744141,46.4906006
		c-31.3727417,39.7331543-66.8752441,51.8196411-94.5345459,53.9727783
		c-20.2052612,1.572937-40.322937-3.1083984-58.7491455-11.5464478
		c-28.1069946-12.8710938-103.9572754-36.0905762-172.3781738,45.4360962
		c-20.8988037,24.9018555-47.9942627,44.2959595-79.4498291,52.5064087
		c-26.9863892,7.0439453-60.4141235,8.7718506-95.5348511-6.1501465
		c-83.8111572-35.6094971-119.1797791-32.5410767-164.6280823,43.972168
		C329.5624695,1091.3204346,261.7952881,1084.1130371,229.3874207,1073.5323486z"/>
	<path class="st2" d="M334.6946411,1195.2034912c0,0-38.0722961,42.8314209,0,109.4578857"/>
</g>
</svg>
