<?xml version="1.0" encoding="UTF-8"?>
<svg viewBox="0 0 640 640" xmlns="http://www.w3.org/2000/svg" xmlns:xlink="http://www.w3.org/1999/xlink">
 <defs>
  <filter id="g">
   <feGaussianBlur stdDeviation="2.9539"/>
  </filter>
  <filter id="b" x="-.20984" y="-.20984" width="1.4197" height="1.4197">
   <feGaussianBlur stdDeviation="2.88525"/>
  </filter>
  <linearGradient id="c">
   <stop stop-color="#7f5808" offset="0"/>
   <stop stop-color="#966909" offset="1"/>
  </linearGradient>
  <linearGradient id="f" x1="239" x2="448" y1="701.36" y2="824.36" gradientUnits="userSpaceOnUse" xlink:href="#c"/>
  <linearGradient id="e" x1="239" x2="160.61" y1="701.36" y2="824.36" gradientUnits="userSpaceOnUse" xlink:href="#c"/>
  <linearGradient id="d" x1="226" x2="549" gradientUnits="userSpaceOnUse" xlink:href="#c"/>
  <radialGradient id="a" cx="113" cy="584.36" r="16.5" gradientTransform="matrix(1.5134 .030304 -.028565 1.4265 -40.317 -255.64)" gradientUnits="userSpaceOnUse">
   <stop stop-color="#fff" offset="0"/>
   <stop stop-color="#fff" stop-opacity="0" offset="1"/>
  </radialGradient>
 </defs>
 <g transform="matrix(.96929 0 0 -.96929 -65.476 832.73)">
  <path d="m387.5 687.38c-89.148 0-161.5 25.984-161.5 58v36c0 32.016 72.352 58 161.5 58s161.5-25.984 161.5-58v-36c0-32.016-72.352-58-161.5-58z" fill="url(#d)"/>
  <path transform="translate(0,-21)" d="m549 766.36a161.5 58 0 1 1 -323 0 161.5 58 0 1 1 323 0z" fill="url(#e)"/>
 </g>
 <path d="m211.41 135.53-0.375 0.9375c62.81 29.05 125.62 25.946 188.31 1.0312l-0.25-1c-62.637 14.889-125.16 23.625-187.69-0.96875z" fill="#375e6f" fill-opacity=".79006" fill-rule="evenodd"/>
 <g transform="matrix(.96929 0 0 .96929 -61.19 -201.41)">
  <path d="m387.5 687.38c-89.148 0-161.5 25.984-161.5 58v36c0 32.016 72.352 58 161.5 58s161.5-25.984 161.5-58v-36c0-32.016-72.352-58-161.5-58z" fill="#7f5808"/>
  <path transform="translate(0,-21)" d="m549 766.36a161.5 58 0 1 1 -323 0 161.5 58 0 1 1 323 0z" fill="url(#f)"/>
 </g>
 <g transform="matrix(.96929 0 0 .96929 162.72 -347.78)">
  <path transform="translate(-12,105)" d="m152 484.86c0 16.836-13.664 30.5-30.5 30.5s-30.5-13.664-30.5-30.5 13.664-30.5 30.5-30.5 30.5 13.664 30.5 30.5z"/>
  <path d="m132 581.86c0 9.108-7.392 16.5-16.5 16.5s-16.5-7.392-16.5-16.5 7.392-16.5 16.5-16.5 16.5 7.392 16.5 16.5z" fill="url(#a)" filter="url(#b)"/>
 </g>
 <g transform="matrix(.96929 0 0 .96929 172.41 -178.15)">
  <path transform="translate(-12,105)" d="m152 484.86c0 16.836-13.664 30.5-30.5 30.5s-30.5-13.664-30.5-30.5 13.664-30.5 30.5-30.5 30.5 13.664 30.5 30.5z"/>
  <path d="m132 581.86c0 9.108-7.392 16.5-16.5 16.5s-16.5-7.392-16.5-16.5 7.392-16.5 16.5-16.5 16.5 7.392 16.5 16.5z" fill="url(#a)" filter="url(#b)"/>
 </g>
 <g transform="matrix(.96929 0 0 .96929 122.97 -76.377)">
  <path transform="translate(-12,105)" d="m152 484.86c0 16.836-13.664 30.5-30.5 30.5s-30.5-13.664-30.5-30.5 13.664-30.5 30.5-30.5 30.5 13.664 30.5 30.5z"/>
  <path d="m132 581.86c0 9.108-7.392 16.5-16.5 16.5s-16.5-7.392-16.5-16.5 7.392-16.5 16.5-16.5 16.5 7.392 16.5 16.5z" fill="url(#a)" filter="url(#b)"/>
 </g>
 <g transform="matrix(.96929 0 0 .96929 157.87 -57.96)">
  <path transform="translate(-12,105)" d="m152 484.86c0 16.836-13.664 30.5-30.5 30.5s-30.5-13.664-30.5-30.5 13.664-30.5 30.5-30.5 30.5 13.664 30.5 30.5z"/>
  <path d="m132 581.86c0 9.108-7.392 16.5-16.5 16.5s-16.5-7.392-16.5-16.5 7.392-16.5 16.5-16.5 16.5 7.392 16.5 16.5z" fill="url(#a)" filter="url(#b)"/>
 </g>
 <g transform="matrix(.96929 0 0 .96929 287.75 -71.53)">
  <path transform="translate(-12,105)" d="m152 484.86c0 16.836-13.664 30.5-30.5 30.5s-30.5-13.664-30.5-30.5 13.664-30.5 30.5-30.5 30.5 13.664 30.5 30.5z"/>
  <path d="m132 581.86c0 9.108-7.392 16.5-16.5 16.5s-16.5-7.392-16.5-16.5 7.392-16.5 16.5-16.5 16.5 7.392 16.5 16.5z" fill="url(#a)" filter="url(#b)"/>
 </g>
 <g transform="matrix(.96929 0 0 .96929 249.95 -57.96)">
  <path transform="translate(-12,105)" d="m152 484.86c0 16.836-13.664 30.5-30.5 30.5s-30.5-13.664-30.5-30.5 13.664-30.5 30.5-30.5 30.5 13.664 30.5 30.5z"/>
  <path d="m132 581.86c0 9.108-7.392 16.5-16.5 16.5s-16.5-7.392-16.5-16.5 7.392-16.5 16.5-16.5 16.5 7.392 16.5 16.5z" fill="url(#a)" filter="url(#b)"/>
 </g>
 <g transform="matrix(.96929 0 0 .96929 205.36 -50.206)">
  <path transform="translate(-12,105)" d="m152 484.86c0 16.836-13.664 30.5-30.5 30.5s-30.5-13.664-30.5-30.5 13.664-30.5 30.5-30.5 30.5 13.664 30.5 30.5z"/>
  <path d="m132 581.86c0 9.108-7.392 16.5-16.5 16.5s-16.5-7.392-16.5-16.5 7.392-16.5 16.5-16.5 16.5 7.392 16.5 16.5z" fill="url(#a)" filter="url(#b)"/>
 </g>
 <g transform="matrix(.96929 0 0 .96929 233.47 -105.46)">
  <path transform="translate(-12,105)" d="m152 484.86c0 16.836-13.664 30.5-30.5 30.5s-30.5-13.664-30.5-30.5 13.664-30.5 30.5-30.5 30.5 13.664 30.5 30.5z"/>
  <path d="m132 581.86c0 9.108-7.392 16.5-16.5 16.5s-16.5-7.392-16.5-16.5 7.392-16.5 16.5-16.5 16.5 7.392 16.5 16.5z" fill="url(#a)" filter="url(#b)"/>
 </g>
 <g transform="matrix(.96929 0 0 .96929 188.89 -102.55)">
  <path transform="translate(-12,105)" d="m152 484.86c0 16.836-13.664 30.5-30.5 30.5s-30.5-13.664-30.5-30.5 13.664-30.5 30.5-30.5 30.5 13.664 30.5 30.5z"/>
  <path d="m132 581.86c0 9.108-7.392 16.5-16.5 16.5s-16.5-7.392-16.5-16.5 7.392-16.5 16.5-16.5 16.5 7.392 16.5 16.5z" fill="url(#a)" filter="url(#b)"/>
 </g>
 <g transform="matrix(.96929 0 0 .96929 279.03 -119.03)">
  <path transform="translate(-12,105)" d="m152 484.86c0 16.836-13.664 30.5-30.5 30.5s-30.5-13.664-30.5-30.5 13.664-30.5 30.5-30.5 30.5 13.664 30.5 30.5z"/>
  <path d="m132 581.86c0 9.108-7.392 16.5-16.5 16.5s-16.5-7.392-16.5-16.5 7.392-16.5 16.5-16.5 16.5 7.392 16.5 16.5z" fill="url(#a)" filter="url(#b)"/>
 </g>
 <g transform="matrix(.96929 0 0 .96929 144.3 -124.84)">
  <path transform="translate(-12,105)" d="m152 484.86c0 16.836-13.664 30.5-30.5 30.5s-30.5-13.664-30.5-30.5 13.664-30.5 30.5-30.5 30.5 13.664 30.5 30.5z"/>
  <path d="m132 581.86c0 9.108-7.392 16.5-16.5 16.5s-16.5-7.392-16.5-16.5 7.392-16.5 16.5-16.5 16.5 7.392 16.5 16.5z" fill="url(#a)" filter="url(#b)"/>
 </g>
 <g transform="matrix(.96929 0 0 .96929 201.49 -153.92)">
  <path transform="translate(-12,105)" d="m152 484.86c0 16.836-13.664 30.5-30.5 30.5s-30.5-13.664-30.5-30.5 13.664-30.5 30.5-30.5 30.5 13.664 30.5 30.5z"/>
  <path d="m132 581.86c0 9.108-7.392 16.5-16.5 16.5s-16.5-7.392-16.5-16.5 7.392-16.5 16.5-16.5 16.5 7.392 16.5 16.5z" fill="url(#a)" filter="url(#b)"/>
 </g>
 <g transform="matrix(.96929 0 0 .96929 188.89 -305.13)">
  <path transform="translate(-12,105)" d="m152 484.86c0 16.836-13.664 30.5-30.5 30.5s-30.5-13.664-30.5-30.5 13.664-30.5 30.5-30.5 30.5 13.664 30.5 30.5z"/>
  <path d="m132 581.86c0 9.108-7.392 16.5-16.5 16.5s-16.5-7.392-16.5-16.5 7.392-16.5 16.5-16.5 16.5 7.392 16.5 16.5z" fill="url(#a)" filter="url(#b)"/>
 </g>
 <g transform="matrix(.96929 0 0 .96929 209.24 -256.66)">
  <path transform="translate(-12,105)" d="m152 484.86c0 16.836-13.664 30.5-30.5 30.5s-30.5-13.664-30.5-30.5 13.664-30.5 30.5-30.5 30.5 13.664 30.5 30.5z"/>
  <path d="m132 581.86c0 9.108-7.392 16.5-16.5 16.5s-16.5-7.392-16.5-16.5 7.392-16.5 16.5-16.5 16.5 7.392 16.5 16.5z" fill="url(#a)" filter="url(#b)"/>
 </g>
 <g transform="matrix(.96929 0 0 .96929 236.38 -322.58)">
  <path transform="translate(-12,105)" d="m152 484.86c0 16.836-13.664 30.5-30.5 30.5s-30.5-13.664-30.5-30.5 13.664-30.5 30.5-30.5 30.5 13.664 30.5 30.5z"/>
  <path d="m132 581.86c0 9.108-7.392 16.5-16.5 16.5s-16.5-7.392-16.5-16.5 7.392-16.5 16.5-16.5 16.5 7.392 16.5 16.5z" fill="url(#a)" filter="url(#b)"/>
 </g>
 <path d="m310.17 76.347c-51.736 0-102.87 14.479-116.44 43.436-19.221 41.016 90.87 172.04 90.871 196.34 7.4e-4 25.267-110.09 151.5-90.871 192.52 27.14 57.915 204.52 57.915 236.51 0 22.656-41.022-87.206-171.14-87.206-193.49 6.1e-4 -23.327 109.86-154.36 87.206-195.37-15.993-28.957-68.335-43.436-120.07-43.436z" fill="#005780" fill-opacity=".10497" fill-rule="evenodd"/>
 <path d="m310.17 75.862c-36.481 0.68712-75.995 5.2144-105.41 28.791-15.998 11.578-19.019 33.627-11.926 50.302 20.326 55.173 58.186 97.3 84.822 149.17 7.9824 19.725-8.4654 39.488-16.318 56.061-24.838 39.905-54.721 78.066-68.542 123.6-6.7734 18.29-2.8614 38.307 13.145 47.356 39.126 22.954 93.292 27.262 137.4 22.605 30.903-4.5099 70.015-15.581 89.5-42.158 11.616-19.654-2.3825-43.503-10.168-62.233-20.748-44.296-50.407-83.426-73.231-126.52-7.7644-19.337 19.143-46.417 26.493-62.917 24.183-39.707 45.523-66.746 58.677-111.91 6.8272-18.576-3.6285-38.742-20.148-48.194-30.035-19.195-69.333-23.529-104.3-23.964zm0.82321 4.2621c38.057 0.74253 78.53 2.4753 108.89 27.509 15.967 11.712 14.888 33.258 8.2811 49.766-19.417 53.708-56.892 98.023-82.883 148.31-8.1309 19.581 12.461 36.391 20.035 52.967 24.175 39.231 52.541 77.254 65.614 122.02 6.7343 18.181-3.03 37.328-19.211 46.54-38.628 23.661-86.164 26.742-130.29 22.83-30.373-3.9433-64.703-10.748-84.33-36.438-12.078-18.644 2.9192-40.575 10.6-58.428 21.795-45.251 51.654-84.753 74.635-129.28 8.2497-20.169-12.269-37.697-20.156-54.772-24.911-40.827-54.549-80.069-68.415-126.42-7.23-19.362 6.2659-36.599 23.366-45.267 28.249-15.905 61.913-19.017 93.862-19.351z" fill="#375e6f" fill-opacity=".79006" fill-rule="evenodd"/>
 <path transform="matrix(.96929 0 0 .96929 81.51 18.801)" d="m133.78 106.18c-19.83 42.316 84.749 175.5 84.75 200.56 7.6e-4 26.067-92.513 151.39-80.75 196.62 7.2922 28.04 20.558 22.177 35 24 47.967 6.0538 65.031-197.56 65.031-220.62 6.3e-4 -24.066-47.66-178.25-71.031-220.56-14.253 0.16027-24.017 9.2992-33 20z" fill="#fff" fill-opacity=".56906" fill-rule="evenodd" filter="url(#g)"/>
</svg>
