<?xml version="1.0" encoding="UTF-8"?>
<svg enable-background="new 0 0 256 256" version="1.1" viewBox="0 0 256 256" xml:space="preserve" xmlns="http://www.w3.org/2000/svg">
		<path d="m189 207h-122c-3.3 0-6-2.7-6-6v-146c0-3.3 2.7-6 6-6h122c3.3 0 6 2.7 6 6v146c0 3.3-2.7 6-6 6z" fill="#515151"/>
		<path d="m189 209h-122c-4.411 0-8-3.589-8-8v-146c0-4.411 3.589-8 8-8h122c4.411 0 8 3.589 8 8v146c0 4.411-3.589 8-8 8zm-122-158c-2.206 0-4 1.794-4 4v146c0 2.206 1.794 4 4 4h122c2.206 0 4-1.794 4-4v-146c0-2.206-1.794-4-4-4h-122z"/>
		<path d="m184 96c0 1.105-0.895 2-2 2h-108c-1.105 0-2-0.895-2-2v-31c0-1.105 0.895-2 2-2h108c1.105 0 2 0.895 2 2v31z" fill="#91BFAE"/>
		<path d="m182 100h-108c-2.206 0-4-1.794-4-4v-31c0-2.206 1.794-4 4-4h108c2.206 0 4 1.794 4 4v31c0 2.206-1.794 4-4 4zm-108-35v31h108v-31h-108z"/>
		<path d="m92 128c0 1.105-0.895 2-2 2h-16c-1.105 0-2-0.895-2-2v-16c0-1.105 0.895-2 2-2h16c1.105 0 2 0.895 2 2v16z" fill="#E08C2F"/>
		<path d="m90 132h-16c-2.206 0-4-1.794-4-4v-16c0-2.206 1.794-4 4-4h16c2.206 0 4 1.794 4 4v16c0 2.206-1.794 4-4 4zm-16-20v16h16v-16h-16z"/>
		<path d="m123 128c0 1.105-0.895 2-2 2h-16c-1.105 0-2-0.895-2-2v-16c0-1.105 0.895-2 2-2h16c1.105 0 2 0.895 2 2v16z" fill="#E08C2F"/>
		<path d="m121 132h-16c-2.206 0-4-1.794-4-4v-16c0-2.206 1.794-4 4-4h16c2.206 0 4 1.794 4 4v16c0 2.206-1.794 4-4 4zm-16-20v16h16v-16h-16z"/>
		<path d="m153 128c0 1.105-0.895 2-2 2h-16c-1.105 0-2-0.895-2-2v-16c0-1.105 0.895-2 2-2h16c1.105 0 2 0.895 2 2v16z" fill="#E08C2F"/>
		<path d="m151 132h-16c-2.206 0-4-1.794-4-4v-16c0-2.206 1.794-4 4-4h16c2.206 0 4 1.794 4 4v16c0 2.206-1.794 4-4 4zm-16-20v16h16v-16h-16z"/>
		<path d="m184 128c0 1.105-0.895 2-2 2h-16c-1.105 0-2-0.895-2-2v-16c0-1.105 0.895-2 2-2h16c1.105 0 2 0.895 2 2v16z" fill="#E08C2F"/>
		<path d="m182 132h-16c-2.206 0-4-1.794-4-4v-16c0-2.206 1.794-4 4-4h16c2.206 0 4 1.794 4 4v16c0 2.206-1.794 4-4 4zm-16-20v16h16v-16h-16z"/>
		<path d="m92 159c0 1.105-0.895 2-2 2h-16c-1.105 0-2-0.895-2-2v-16c0-1.105 0.895-2 2-2h16c1.105 0 2 0.895 2 2v16z" fill="#E08C2F"/>
		<path d="m90 163h-16c-2.206 0-4-1.794-4-4v-16c0-2.206 1.794-4 4-4h16c2.206 0 4 1.794 4 4v16c0 2.206-1.794 4-4 4zm-16-20v16h16v-16h-16z"/>
		<path d="m123 159c0 1.105-0.895 2-2 2h-16c-1.105 0-2-0.895-2-2v-16c0-1.105 0.895-2 2-2h16c1.105 0 2 0.895 2 2v16z" fill="#E08C2F"/>
		<path d="m121 163h-16c-2.206 0-4-1.794-4-4v-16c0-2.206 1.794-4 4-4h16c2.206 0 4 1.794 4 4v16c0 2.206-1.794 4-4 4zm-16-20v16h16v-16h-16z"/>
		<path d="m153 159c0 1.105-0.895 2-2 2h-16c-1.105 0-2-0.895-2-2v-16c0-1.105 0.895-2 2-2h16c1.105 0 2 0.895 2 2v16z" fill="#E08C2F"/>
		<path d="m151 163h-16c-2.206 0-4-1.794-4-4v-16c0-2.206 1.794-4 4-4h16c2.206 0 4 1.794 4 4v16c0 2.206-1.794 4-4 4zm-16-20v16h16v-16h-16z"/>
		<path d="m184 190c0 1.105-0.895 2-2 2h-16c-1.105 0-2-0.895-2-2v-47c0-1.105 0.895-2 2-2h16c1.105 0 2 0.895 2 2v47z" fill="#E84D10"/>
		<path d="m182 194h-16c-2.206 0-4-1.794-4-4v-47c0-2.206 1.794-4 4-4h16c2.206 0 4 1.794 4 4v47c0 2.206-1.794 4-4 4zm-16-51v47h16v-47h-16z"/>
		<path d="m92 190c0 1.105-0.895 2-2 2h-16c-1.105 0-2-0.895-2-2v-16c0-1.105 0.895-2 2-2h16c1.105 0 2 0.895 2 2v16z" fill="#E08C2F"/>
		<path d="m90 194h-16c-2.206 0-4-1.794-4-4v-16c0-2.206 1.794-4 4-4h16c2.206 0 4 1.794 4 4v16c0 2.206-1.794 4-4 4zm-16-20v16h16v-16h-16z"/>
		<path d="m123 190c0 1.105-0.895 2-2 2h-16c-1.105 0-2-0.895-2-2v-16c0-1.105 0.895-2 2-2h16c1.105 0 2 0.895 2 2v16z" fill="#E08C2F"/>
		<path d="m121 194h-16c-2.206 0-4-1.794-4-4v-16c0-2.206 1.794-4 4-4h16c2.206 0 4 1.794 4 4v16c0 2.206-1.794 4-4 4zm-16-20v16h16v-16h-16z"/>
		<path d="m153 190c0 1.105-0.895 2-2 2h-16c-1.105 0-2-0.895-2-2v-16c0-1.105 0.895-2 2-2h16c1.105 0 2 0.895 2 2v16z" fill="#E08C2F"/>
		<path d="m151 194h-16c-2.206 0-4-1.794-4-4v-16c0-2.206 1.794-4 4-4h16c2.206 0 4 1.794 4 4v16c0 2.206-1.794 4-4 4zm-16-20v16h16v-16h-16z"/>
</svg>
