<?xml version="1.0" encoding="UTF-8"?>
<svg viewBox="0 0 128 128" xmlns="http://www.w3.org/2000/svg">
 <defs>
  <radialGradient id="h" cx="211.15" cy="382.63" r="110.72" gradientTransform="matrix(.13337 -.5858 .43335 .098665 -140.53 197.47)" gradientUnits="userSpaceOnUse">
   <stop stop-color="#eddabc" offset="0"/>
   <stop stop-color="#d8af6e" offset="1"/>
  </radialGradient>
  <radialGradient id="i" cx="445.36" cy="201.93" r="119.48" gradientTransform="matrix(-.37117 .14518 -.14806 -.37854 312.37 40.739)" gradientUnits="userSpaceOnUse">
   <stop stop-color="#a37a39" offset="0"/>
   <stop stop-color="#c39854" offset="1"/>
  </radialGradient>
  <radialGradient id="j" cx="139.26" cy="162.96" r="134.88" gradientTransform="matrix(.50694 -.12997 .026216 .10226 -39.663 32.074)" gradientUnits="userSpaceOnUse">
   <stop stop-color="#fff" offset="0"/>
   <stop stop-color="#eddabc" offset="1"/>
  </radialGradient>
  <radialGradient id="k" cx="212.44" cy="280.07" r="228.86" gradientTransform="matrix(.03919 -.095704 .16374 .067048 -2.2216 38.192)" gradientUnits="userSpaceOnUse">
   <stop stop-color="#c29650" offset="0"/>
   <stop stop-color="#cca86e" offset="1"/>
  </radialGradient>
  <filter id="l" color-interpolation-filters="sRGB">
   <feGaussianBlur stdDeviation="1.84125"/>
  </filter>
  <filter id="m" color-interpolation-filters="sRGB">
   <feGaussianBlur stdDeviation="1.0013"/>
  </filter>
  <linearGradient id="n" x1="48.3" x2="72.26" y1="135.17" y2="131" gradientUnits="userSpaceOnUse">
   <stop offset="0"/>
   <stop stop-opacity="0" offset="1"/>
  </linearGradient>
 </defs>
 <path transform="matrix(.85693 -.47066 .46259 .87188 2.2336 .32238)" d="m55.132 114.02h13.842l1.4761 23.739h-13.842l-1.4761-23.739z" fill="url(#n)" filter="url(#m)" opacity=".425"/>
 <path transform="matrix(.48733 .40594 -.40594 .48733 80.573 -24.561)" d="m96.675 14.345c-28.986 12.84-56.115 26.74-84.995 39.839-19.288 25.489-37.849 47.862-56.895 73.504 0.15173 2.9051 3.7438 4.4362 5.1538 6.8072 23.016 25.232 45.517 50.398 68.677 75.46 6.2248-0.31571 11.138-0.98651 17.378-1.8305 25.938-4.6089 51.976-8.8944 77.852-13.704 3.2125-5.5558 5.2306-11.946 8.0167-17.798 10.536-24.605 21.426-49.111 31.741-73.778-2.5377-4.899-7.6334-7.6741-10.694-12.341-18.454-25.275-36.642-50.804-55.262-75.922-2.4398 2.7652-2.7272 2.0599-0.97298-0.23583z" filter="url(#l)" opacity=".637"/>
 <path transform="matrix(.48733 .40594 -.40594 .48733 80.573 -24.961)" d="m97.75 12.875a1.6879 1.6879 0 0 0 -0.59375 0.15625l-85.781 38.625a1.6879 1.6879 0 0 0 -0.65625 0.5l-57.281 75.719a1.6879 1.6879 0 0 0 0.09375 2.1562l73.188 80.656a1.6879 1.6879 0 0 0 1.5312 0.53125l94.969-16.562a1.6879 1.6879 0 0 0 1.2812 -1l38.969-90.156a1.6879 1.6879 0 0 0 -0.1875 -1.6562l-64.062-88.281a1.6879 1.6879 0 0 0 -1.4688 -0.6875z" fill="#debd87"/>
 <path d="m6.2472 20.34 2.886 68.177 52.582 30.239 0.71446-77.989-56.182-20.428z" fill="url(#h)"/>
 <path d="m122.34 21.87-59.789 18.791-0.84042 78.096 0.42814 0.24578 55.579-28.13 4.6223-69.002z" fill="url(#i)"/>
 <path d="m64.855 5.8469-58.639 13.661l0.031714 0.8325 56.308 20.321 59.789-18.791v-0.0079l-57.49-16.016z" fill="url(#k)"/>
 <path d="m6.098 19.742 56.574 21.079 60.069-19.113" fill="none" stroke="#debc85" stroke-width="1.123"/>
 <path d="m62.563 40.821-0.43686 78.635" fill="none" stroke="#debc85" stroke-width="1.123"/>
 <path d="m73.736 41.471-8.2361 11.128 3.9398-1.2498 0.19556 7.6758 8.9107-2.8435-0.19499-7.6536 3.9398-1.2498-8.5548-5.8076z" fill="#57401e"/>
 <g transform="matrix(.2603 -.077463 .0078222 .24496 -.12729 -3.5642)" fill="#57401e">
  <path d="m268.53 358.38c-2e-5 1.1493-0.17066 2.194-0.51194 3.1343-0.34131 0.94029-0.83235 1.7448-1.4731 2.4134-0.6408 0.66865-1.4244 1.1841-2.3507 1.5463-0.91941 0.36219-1.9607 0.54328-3.1239 0.54328-1.2328 0-2.3124-0.18806-3.2388-0.56418-0.9194-0.38308-1.689-0.91243-2.3089-1.588-0.6199-0.68258-1.0866-1.4905-1.4-2.4239-0.30646-0.93332-0.4597-1.9537-0.4597-3.0612 0-1.1492 0.1602-2.187 0.4806-3.1134 0.32736-0.92635 0.80447-1.7134 1.4313-2.3612 0.63383-0.65471 1.4104-1.1562 2.3298-1.5045 0.92636-0.35521 1.9886-0.53282 3.1866-0.53283 1.198 1e-5 2.2567 0.17762 3.1761 0.53283 0.92635 0.35524 1.703 0.86021 2.3298 1.5149 0.63381 0.65473 1.1144 1.4453 1.4418 2.3716 0.32735 0.91941 0.49103 1.9502 0.49105 3.0925m-3.1448 0c-2e-5 -0.77312-0.094-1.4696-0.28209-2.0895-0.18111-0.62685-0.45275-1.1632-0.81492-1.609-0.3622-0.44576-0.81145-0.78705-1.3478-1.0239-0.52936-0.24377-1.1458-0.36566-1.8492-0.36567-0.71742 1e-5 -1.3478 0.1219-1.891 0.36567-0.53632 0.23682-0.98557 0.57811-1.3478 1.0239-0.3622 0.44578-0.63384 0.9821-0.81493 1.609-0.18109 0.61991-0.27164 1.3164-0.27164 2.0895 0 0.76617 0.0906 1.4696 0.27164 2.1104 0.18806 0.63383 0.46318 1.1806 0.82537 1.6403s0.81144 0.81841 1.3478 1.0761c0.53631 0.25771 1.1562 0.38656 1.8597 0.38656 0.75223 0 1.4-0.12885 1.9433-0.38656 0.54327-0.26468 0.98903-0.62686 1.3373-1.0866 0.35521-0.46666 0.61641-1.0169 0.78358-1.6507 0.16715-0.64078 0.25073-1.3373 0.25075-2.0895"/>
  <path d="m281.61 360.11c-1e-5 0.85672-0.0871 1.6473-0.26119 2.3716-0.16718 0.71742-0.42837 1.3408-0.78358 1.8701-0.35523 0.52239-0.80797 0.92985-1.3582 1.2224-0.54329 0.29253-1.1876 0.4388-1.9328 0.4388-0.33433 0-0.66866-0.0348-1.003-0.10448-0.33433-0.0696-0.65125-0.18457-0.95074-0.34477-0.29951-0.1602-0.57463-0.36915-0.82537-0.62686-0.25075-0.25771-0.46667-0.57463-0.64776-0.95075h-0.0209c-1e-5 0.14627-7e-3 0.31344-0.0209 0.50149-7e-3 0.18806-0.0174 0.37264-0.0313 0.55373-0.0139 0.17413-0.0314 0.33085-0.0522 0.47015-0.0139 0.1393-0.0279 0.23681-0.0418 0.29254h-2.8522c0.0209-0.24378 0.0383-0.58856 0.0522-1.0343 0.0209-0.45273 0.0313-0.96815 0.0314-1.5463v-12.924h2.9358v4.3254c0 0.2229-3e-3 0.4423-0.0104 0.65821-1e-5 0.20896-3e-3 0.40399-0.0104 0.58507-7e-3 0.20897-0.0139 0.40747-0.0209 0.59552h0.0418c0.35522-0.78008 0.84278-1.3373 1.4627-1.6716 0.61989-0.33432 1.3373-0.50148 2.1522-0.50149 0.72437 1e-5 1.3478 0.14628 1.8701 0.4388 0.52238 0.28558 0.95073 0.68956 1.2851 1.2119 0.34128 0.51543 0.59203 1.1284 0.75224 1.8388 0.16018 0.71045 0.24028 1.4871 0.24029 2.3298m-3.0612 0c-1e-5 -1.2816-0.18806-2.2323-0.56417-2.8522-0.37613-0.61989-0.95772-0.92984-1.7448-0.92985-0.29951 1e-5 -0.59553 0.0592-0.88806 0.17761-0.29254 0.11842-0.55373 0.32737-0.78358 0.62686-0.22985 0.29255-0.41443 0.68956-0.55372 1.191-0.13931 0.49454-0.20896 1.1214-0.20896 1.8806 0 0.73831 0.0696 1.3512 0.20896 1.8388 0.13929 0.48756 0.32039 0.87761 0.54328 1.1701 0.22288 0.29254 0.48059 0.49801 0.77313 0.61642 0.29253 0.11841 0.58855 0.17761 0.88805 0.17761 0.74527 0 1.3199-0.30647 1.7239-0.9194 0.40396-0.61989 0.60595-1.6124 0.60596-2.9776"/>
  <path d="m288.62 366.02c-0.81493 0-1.5498-0.11841-2.2045-0.35522-0.64776-0.24378-1.2015-0.60945-1.6612-1.097-0.4597-0.49453-0.81144-1.1109-1.0552-1.8492-0.24378-0.74526-0.36567-1.6159-0.36567-2.6119 0-1.0796 0.14279-1.9885 0.42836-2.7268 0.29253-0.73829 0.68258-1.3338 1.1701-1.7866 0.49453-0.45969 1.0622-0.79053 1.703-0.99253 0.64079-0.20198 1.3164-0.30297 2.0269-0.30298 0.89153 1e-5 1.6507 0.15672 2.2776 0.47014 0.63382 0.30648 1.1527 0.73832 1.5567 1.2955 0.40396 0.55722 0.69998 1.2259 0.88805 2.006 0.18805 0.77314 0.28208 1.6298 0.28209 2.5701v0.0836h-7.2507c-1e-5 0.47363 0.0418 0.91592 0.12537 1.3269 0.0836 0.40398 0.2194 0.75572 0.40746 1.0552 0.18806 0.29254 0.43184 0.52587 0.73134 0.69999 0.2995 0.16717 0.66168 0.25075 1.0866 0.25075 0.51542 0 0.93681-0.10796 1.2642-0.32388 0.32735-0.22288 0.56068-0.56417 0.69999-1.0239l2.7686 0.2403c-0.12539 0.3204-0.303 0.66169-0.53284 1.0239-0.22289 0.36219-0.52239 0.69651-0.8985 1.003-0.37613 0.2995-0.84627 0.55024-1.4104 0.75223-0.55722 0.19503-1.2363 0.29254-2.0373 0.29254m0-9.8731c-0.29951 1e-5 -0.5816 0.0522-0.84627 0.15672-0.25771 0.0975-0.48408 0.25772-0.6791 0.48059-0.18806 0.21593-0.3413 0.49802-0.4597 0.84627-0.11841 0.34826-0.18458 0.76617-0.19851 1.2537h4.388c-0.0557-0.91242-0.27513-1.595-0.6582-2.0478-0.38309-0.45969-0.89851-0.68954-1.5463-0.68955"/>
  <path d="m303.23 365.81v-6.3418c-1e-5 -0.43879-0.0348-0.83929-0.10448-1.2015-0.0697-0.36915-0.18458-0.68258-0.34477-0.9403-0.16021-0.26466-0.36916-0.47013-0.62687-0.61641-0.25771-0.14626-0.57114-0.21939-0.94029-0.2194-0.35523 1e-5 -0.67911 0.0801-0.97164 0.24029-0.28557 0.15325-0.53284 0.37613-0.74178 0.66866-0.20896 0.28558-0.37264 0.63035-0.49105 1.0343-0.11144 0.39702-0.16716 0.83582-0.16716 1.3164v6.0597h-2.9358v-8.7761c0-0.24377-3e-3 -0.49452-0.0104-0.75224 0-0.2577-7e-3 -0.50148-0.0209-0.73134-7e-3 -0.2368-0.0139-0.44576-0.0209-0.62686-7e-3 -0.18805-0.0174-0.32735-0.0313-0.41791h2.8c0.0139 0.0836 0.0279 0.21941 0.0418 0.40746 0.0139 0.18111 0.0279 0.3831 0.0418 0.60597 0.0139 0.22289 0.0244 0.44578 0.0313 0.66865 0.0139 0.2229 0.0209 0.41096 0.0209 0.56418h0.0418c0.39701-0.86367 0.89501-1.4905 1.494-1.8806 0.599-0.39004 1.3129-0.58506 2.1418-0.58507 0.68258 1e-5 1.2572 0.11145 1.7239 0.33433 0.47362 0.22289 0.85671 0.52936 1.1492 0.91939 0.29949 0.39006 0.51541 0.84976 0.64776 1.3791 0.13233 0.52936 0.1985 1.1005 0.19851 1.7134v7.1776h-2.9254"/>
 </g>
 <path d="m34.377 29.724 57.179-16.513" fill="#eddabc" opacity=".708" stroke="#000" stroke-width=".381"/>
 <path d="m88.344 11.311-58.335 16.53-0.41228 9.1575 1.3399-0.45193-1.0624 1.0704 0.0555 0.02377 1.9742-0.74528-0.26164 1.2289 1.221-0.52328-0.42021 0.91971 0.03171 0.01586 1.3558-0.80871 0.08721 1.2686 0.8325-0.73735 0.47571 0.91178 0.79285-0.43607 0.26164 1.0545 0.95935-0.88007s0.11934 0.22588 0.15064 0.28543l0.46778-7.5242 60.182-17.663-9.6961-2.696z" fill="url(#j)" opacity=".708"/>
</svg>
