<?xml version="1.0" encoding="UTF-8" standalone="no"?>
<!-- Created with Inkscape (http://www.inkscape.org/) -->

<svg
   xmlns:dc="http://purl.org/dc/elements/1.1/"
   xmlns:cc="http://creativecommons.org/ns#"
   xmlns:rdf="http://www.w3.org/1999/02/22-rdf-syntax-ns#"
   xmlns:svg="http://www.w3.org/2000/svg"
   xmlns="http://www.w3.org/2000/svg"
   xmlns:sodipodi="http://sodipodi.sourceforge.net/DTD/sodipodi-0.dtd"
   xmlns:inkscape="http://www.inkscape.org/namespaces/inkscape"
   width="1600mm"
   height="1600mm"
   viewBox="0 0 1600 1600"
   version="1.1"
   id="svg8"
   inkscape:version="0.92.4 (5da689c313, 2019-01-14)"
   sodipodi:docname="Earth.svg">
  <defs
     id="defs2" />
  <sodipodi:namedview
     id="base"
     pagecolor="#ffffff"
     bordercolor="#666666"
     borderopacity="1.0"
     inkscape:pageopacity="0.0"
     inkscape:pageshadow="2"
     inkscape:zoom="0.061871843"
     inkscape:cx="3049.5478"
     inkscape:cy="3580.232"
     inkscape:document-units="mm"
     inkscape:current-layer="g1489"
     showgrid="false"
     inkscape:pagecheckerboard="false"
     showborder="true"
     inkscape:window-width="1366"
     inkscape:window-height="716"
     inkscape:window-x="-8"
     inkscape:window-y="-8"
     inkscape:window-maximized="1"
     inkscape:object-paths="true" />
  <metadata
     id="metadata5">
    <rdf:RDF>
      <cc:Work
         rdf:about="">
        <dc:format>image/svg+xml</dc:format>
        <dc:type
           rdf:resource="http://purl.org/dc/dcmitype/StillImage" />
        <dc:title></dc:title>
      </cc:Work>
    </rdf:RDF>
  </metadata>
  <g
     inkscape:label="Layer 1"
     inkscape:groupmode="layer"
     id="layer1"
     transform="translate(0,1303)">
    <g
       transform="matrix(17.25927,0,0,17.192592,-13289.273,-4953.7259)"
       id="g1489"
       inkscape:export-filename="C:\Users\GEO\Poliglota institut\HTML i CSS\HTML vjezbe\zemlja.png"
       inkscape:export-xdpi="96"
       inkscape:export-ydpi="96">
      <g
         id="g10049"
         transform="matrix(1.076568,0,0,1.076568,-62.233693,-19.851276)">
        <path
           style="opacity:1;fill:#003380;fill-opacity:1;fill-rule:evenodd;stroke:none;stroke-width:2.64583325;stroke-linecap:square;stroke-linejoin:miter;stroke-miterlimit:4;stroke-dasharray:none;stroke-dashoffset:0;stroke-opacity:1;paint-order:fill markers stroke"
           id="path1423"
           sodipodi:type="arc"
           sodipodi:cx="816.02734"
           sodipodi:cy="259.26321"
           sodipodi:rx="41.346375"
           sodipodi:ry="41.346375"
           sodipodi:start="1.5707963"
           sodipodi:end="1.56999"
           sodipodi:open="true"
           d="m 816.02734,300.60959 a 41.346375,41.346375 0 0 1 -41.34637,-41.33804 41.346375,41.346375 0 0 1 41.3297,-41.35471 41.346375,41.346375 0 0 1 41.36304,41.32137 41.346375,41.346375 0 0 1 -41.31303,41.37137" />
        <path
           style="fill:#00d400;fill-opacity:1;stroke:none;stroke-width:0.3144705px;stroke-linecap:butt;stroke-linejoin:miter;stroke-opacity:1"
           d="m 797.20052,243.15805 c -1.26073,0.78484 -3.36738,3.69063 -3.36738,3.69063 -1.2283,2.71092 -2.19625,9.32815 -0.6654,11.87778 1.66671,7.84937 10.73897,4.97707 13.73452,7.85813 1.54317,1.87282 1.56197,4.68342 1.67832,7.15672 0.11634,2.4733 0.0585,4.98115 0.6441,7.38582 0.63722,2.61675 2.09591,5.09263 4.31446,6.59506 1.10927,0.75123 2.39429,1.24787 3.72366,1.38501 1.32936,0.13713 2.70092,-0.0914 3.8937,-0.69878 1.1952,-0.60864 2.18609,-1.57972 2.94421,-2.69247 0.75811,-1.11276 1.29366,-2.36589 1.7152,-3.64722 0.84309,-2.56263 1.25072,-5.27332 2.33282,-7.74302 1.96467,-4.48404 5.90991,-7.69515 9.28017,-11.22856 0.5078,-0.53239 1.01719,-1.09518 1.26819,-1.78907 0.12549,-0.34695 0.18197,-0.72317 0.13092,-1.08887 -0.051,-0.36569 -0.21405,-0.7198 -0.4811,-0.97257 -0.31774,-0.30074 -0.76378,-0.44067 -1.1996,-0.43987 -0.43581,7.9e-4 -0.86307,0.13244 -1.25841,0.31735 -0.79068,0.36985 -1.47889,0.95389 -2.30342,1.23887 -0.55908,0.19323 -1.16457,0.24004 -1.74987,0.15737 -0.58531,-0.0827 -1.15032,-0.29308 -1.66024,-0.59432 -1.01985,-0.60249 -1.80381,-1.55503 -2.36514,-2.60378 -1.12266,-2.0975 -1.39515,-4.5412 -2.19738,-6.78316 -0.68638,-1.91824 -1.77411,-3.69806 -3.21834,-5.12582 -1.44423,-1.42775 -3.24796,-2.49636 -5.20762,-3.00158 -2.27612,-0.5868 -2.02314,1.99487 -4.36138,2.22514 -2.33823,0.23025 -8.23806,0.0839 -10.55428,-0.31252 -0.69376,-0.14698 -0.28979,-1.86956 -1.53113,-2.21558"
           id="path1425"
           inkscape:connector-curvature="0"
           sodipodi:nodetypes="ccccsscscsccccccccccccccsccc" />
        <path
           style="fill:#00d400;fill-opacity:1;stroke:none;stroke-width:0.26458332px;stroke-linecap:butt;stroke-linejoin:miter;stroke-opacity:1"
           d="m 833.7197,274.82124 c -0.51561,0.91156 -1.3529,1.52261 -2.15533,2.19337 -0.93939,0.78525 0.0714,2.50801 -0.92519,3.13929 -1.10701,0.70122 -2.46004,1.65482 -2.55254,2.9646 -0.0563,0.7978 -0.22226,2.26924 0.83955,2.3485 1.32046,0.0986 1.80918,-1.35376 2.3209,-2.29781 0.47434,-0.87509 1.37574,-1.36047 1.90199,-2.17766 0.89718,-1.39319 1.86539,-2.9548 1.81235,-4.59023 -0.0219,-0.67532 -0.009,-2.9403 -1.05933,-1.76482 0,0 -0.10268,0.10391 -0.10268,0.10391 0,0 -0.0797,0.0808 -0.0797,0.0808 0,0 0,0 0,0 z"
           id="path1429"
           inkscape:connector-curvature="0" />
        <path
           d="m 816.02734,300.60959 a 41.346375,41.346375 0 0 1 -41.34637,-41.33804 41.346375,41.346375 0 0 1 41.3297,-41.35471 41.346375,41.346375 0 0 1 41.36304,41.32137 41.346375,41.346375 0 0 1 -41.31303,41.37137"
           sodipodi:open="true"
           sodipodi:end="1.56999"
           sodipodi:start="1.5707963"
           sodipodi:ry="41.346375"
           sodipodi:rx="41.346375"
           sodipodi:cy="259.26321"
           sodipodi:cx="816.02734"
           sodipodi:type="arc"
           id="path1435"
           style="opacity:1;fill:#003380;fill-opacity:1;fill-rule:evenodd;stroke:none;stroke-width:2.64583325;stroke-linecap:square;stroke-linejoin:miter;stroke-miterlimit:4;stroke-dasharray:none;stroke-dashoffset:0;stroke-opacity:1;paint-order:fill markers stroke" />
        <path
           inkscape:connector-curvature="0"
           style="fill:#00d400;fill-opacity:1;stroke:none;stroke-width:0.26458332px;stroke-linecap:butt;stroke-linejoin:miter;stroke-opacity:1"
           d="m 774.67747,260.00336 a 41.346373,41.346373 0 0 0 7.72511,23.3102 c 0.0367,-0.12596 0.0614,-0.25541 0.0734,-0.38602 0.0253,-0.27636 -8e-4,-0.55597 -0.0563,-0.82786 -0.11124,-0.54376 -0.33828,-1.05576 -0.51832,-1.58078 -0.59447,-1.73358 -0.67064,-3.62324 -0.35243,-5.42809 0.18484,-1.04842 0.49864,-2.06984 0.71624,-3.11195 0.21759,-1.04212 0.33764,-2.12513 0.13022,-3.16932 -0.20172,-1.01549 -0.70676,-1.95169 -1.33583,-2.77399 -0.62909,-0.8223 -1.38187,-1.54066 -2.13941,-2.24638 -1.38703,-1.29214 -2.80211,-2.55358 -4.24264,-3.78581 z"
           id="path1427" />
        <path
           sodipodi:nodetypes="ccccsscscsccccccccccccccsccc"
           inkscape:connector-curvature="0"
           id="path1437"
           d="m 797.20052,243.15805 c -1.26073,0.78484 -3.36738,3.69063 -3.36738,3.69063 -1.2283,2.71092 -2.19625,9.32815 -0.6654,11.87778 1.66671,7.84937 10.73897,4.97707 13.73452,7.85813 1.54317,1.87282 1.56197,4.68342 1.67832,7.15672 0.11634,2.4733 0.0585,4.98115 0.6441,7.38582 0.63722,2.61675 2.09591,5.09263 4.31446,6.59506 1.10927,0.75123 2.39429,1.24787 3.72366,1.38501 1.32936,0.13713 2.70092,-0.0914 3.8937,-0.69878 1.1952,-0.60864 2.18609,-1.57972 2.94421,-2.69247 0.75811,-1.11276 1.29366,-2.36589 1.7152,-3.64722 0.84309,-2.56263 1.25072,-5.27332 2.33282,-7.74302 1.96467,-4.48404 5.90991,-7.69515 9.28017,-11.22856 0.5078,-0.53239 1.01719,-1.09518 1.26819,-1.78907 0.12549,-0.34695 0.18197,-0.72317 0.13092,-1.08887 -0.051,-0.36569 -0.21405,-0.7198 -0.4811,-0.97257 -0.31774,-0.30074 -0.76378,-0.44067 -1.1996,-0.43987 -0.43581,7.9e-4 -0.86307,0.13244 -1.25841,0.31735 -0.79068,0.36985 -1.47889,0.95389 -2.30342,1.23887 -0.55908,0.19323 -1.16457,0.24004 -1.74987,0.15737 -0.58531,-0.0827 -1.15032,-0.29308 -1.66024,-0.59432 -1.01985,-0.60249 -1.80381,-1.55503 -2.36514,-2.60378 -1.12266,-2.0975 -1.39515,-4.5412 -2.19738,-6.78316 -0.68638,-1.91824 -1.77411,-3.69806 -3.21834,-5.12582 -1.44423,-1.42775 -3.24796,-2.49636 -5.20762,-3.00158 -2.27612,-0.5868 -2.02314,1.99487 -4.36138,2.22514 -2.33823,0.23025 -8.23806,0.0839 -10.55428,-0.31252 -0.69376,-0.14698 -0.28979,-1.86956 -1.53113,-2.21558"
           style="fill:#00d400;fill-opacity:1;stroke:none;stroke-width:0.3144705px;stroke-linecap:butt;stroke-linejoin:miter;stroke-opacity:1" />
        <path
           inkscape:connector-curvature="0"
           id="path1442"
           d="m 833.7197,274.82124 c -0.51561,0.91156 -1.3529,1.52261 -2.15533,2.19337 -0.93939,0.78525 0.0714,2.50801 -0.92519,3.13929 -1.10701,0.70122 -2.46004,1.65482 -2.55254,2.9646 -0.0563,0.7978 -0.22226,2.26924 0.83955,2.3485 1.32046,0.0986 1.80918,-1.35376 2.3209,-2.29781 0.47434,-0.87509 1.37574,-1.36047 1.90199,-2.17766 0.89718,-1.39319 1.86539,-2.9548 1.81235,-4.59023 -0.0219,-0.67532 -0.009,-2.9403 -1.05933,-1.76482 0,0 -0.10268,0.10391 -0.10268,0.10391 0,0 -0.0797,0.0808 -0.0797,0.0808 0,0 0,0 0,0 z"
           style="fill:#00d400;fill-opacity:1;stroke:none;stroke-width:0.26458332px;stroke-linecap:butt;stroke-linejoin:miter;stroke-opacity:1" />
        <path
           id="path1444"
           d="m 816.12182,217.91695 a 41.346373,41.346373 0 0 0 -2.25154,0.0806 c -0.73064,0.40455 -1.40295,0.97151 -1.9942,1.76526 -3.03692,4.07708 2.55027,2.03282 4.18476,1.15859 3.96623,-2.12139 1.44097,-0.67694 4.36356,0.81339 4.17323,2.12808 -8.60717,3.29431 -12.36721,4.04471 -3.7137,0.74115 -1.83033,7.31968 -6.41924,7.37268 -8.14289,0.094 3.24262,9.28717 5.10976,2.73058 -0.0744,0.0518 2.64179,1.2288 3.10266,2.33319 2.19985,5.2716 4.98733,2.64162 1.74201,0.2496 -3.59412,-2.6491 0.01,-5.29078 1.8495,-1.64641 2.46342,4.87918 0.17991,-4.18029 3.50624,-2.25723 4.07367,2.35512 -0.0508,1.54176 -1.09347,3.36879 -0.82699,1.44912 11.25099,0.24488 5.86011,2.67167 -2.92388,1.31623 5.32735,5.20696 6.00893,8.67906 1.06134,5.40662 6.20277,6.01026 10.78436,3.66902 5.99824,-3.06517 -1.29984,-6.46123 -4.81986,-8.08788 -4.23641,-1.9577 0.22055,-1.86067 2.22518,-0.39274 5.11073,3.74242 8.94699,3.69427 11.43238,8.25066 2.56061,4.69427 4.29226,4.11864 4.47105,-0.50488 0.12671,-3.27685 -2.79183,-11.21513 1.70274,-7.72717 0.61428,0.47671 1.10838,0.74107 1.49965,0.83044 a 41.346373,41.346373 0 0 0 -38.89737,-27.40193 z"
           style="fill:#00d400;fill-opacity:1;stroke:none;stroke-width:0.26458332px;stroke-linecap:butt;stroke-linejoin:miter;stroke-opacity:1"
           inkscape:connector-curvature="0" />
        <path
           style="fill:#00d400;fill-opacity:1;stroke:none;stroke-width:0.26458332px;stroke-linecap:butt;stroke-linejoin:miter;stroke-opacity:1"
           d="m 805.63372,221.20115 c -0.43421,-0.0131 -0.93722,0.10749 -0.94103,0.4687 -0.13008,0.11653 -0.20456,0.288 -0.21962,0.46199 -0.0151,0.17399 0.0265,0.34992 0.10076,0.50798 0.002,0.004 0.004,0.007 0.006,0.0109 -0.0671,0.53767 -0.35561,1.04721 -0.78962,1.37304 -0.2086,0.1566 -0.44523,0.27079 -0.67386,0.39636 -0.22863,0.12556 -0.45438,0.26641 -0.6258,0.46302 -0.15068,0.17282 -0.25572,0.39065 -0.2682,0.6196 -0.006,0.11447 0.0108,0.23044 0.0532,0.33693 0.0425,0.1065 0.11047,0.20306 0.19896,0.27595 0.0915,0.0754 0.20331,0.12426 0.31884,0.15089 0.11553,0.0266 0.23507,0.0319 0.35347,0.0258 0.23681,-0.0121 0.46963,-0.0681 0.70642,-0.0806 0.24377,-0.0128 0.48827,0.0209 0.73225,0.0129 0.12199,-0.004 0.24434,-0.0186 0.36122,-0.0537 0.11687,-0.0352 0.22802,-0.0921 0.31884,-0.17364 0.10879,-0.0977 0.18488,-0.22851 0.22893,-0.36793 0.044,-0.13941 0.0575,-0.2869 0.0537,-0.43305 -0.008,-0.29231 -0.0831,-0.57893 -0.10852,-0.87023 -0.0425,-0.48678 0.059,-0.98847 0.30748,-1.40922 0.14484,-0.24526 0.34053,-0.46914 0.40876,-0.74569 0.0115,-0.0464 0.0169,-0.0941 0.0196,-0.14211 0.0413,-0.0626 0.0738,-0.13071 0.0806,-0.20516 0.01,-0.1038 -0.0253,-0.21151 -0.0941,-0.2899 0.27096,-0.17289 -0.0944,-0.31969 -0.52865,-0.3328 z m -3.33417,1.65416 c -0.14539,-0.005 -0.2918,0.0225 -0.42478,0.0816 -0.1773,0.0788 -0.32945,0.21332 -0.42994,0.3793 -0.0976,0.16113 -0.14522,0.3465 -0.20826,0.524 -0.0692,0.19495 -0.15971,0.39006 -0.154,0.59686 0.003,0.10341 0.0312,0.20798 0.093,0.29094 0.0309,0.0415 0.0703,0.0772 0.11524,0.10284 0.045,0.0256 0.0956,0.0407 0.14728,0.0424 0.0582,0.002 0.11609,-0.0134 0.16846,-0.0388 0.0524,-0.0254 0.0999,-0.0607 0.14315,-0.0997 0.0865,-0.078 0.15815,-0.17143 0.24804,-0.24546 0.15962,-0.13144 0.36629,-0.19482 0.52814,-0.3235 0.1889,-0.1502 0.30507,-0.38912 0.3023,-0.63045 -0.002,-0.1335 -0.038,-0.26684 -0.1049,-0.3824 -0.0669,-0.11557 -0.16408,-0.21327 -0.27905,-0.28112 -0.0476,-0.009 -0.0962,-0.0148 -0.1447,-0.0165 z"
           id="path1450"
           inkscape:connector-curvature="0" />
        <path
           inkscape:export-ydpi="96"
           inkscape:export-xdpi="96"
           inkscape:export-filename="C:\Users\GEO\Desktop\logo gradijent.png"
           inkscape:connector-curvature="0"
           style="fill:#00d400;fill-opacity:1;stroke:none;stroke-width:0.26458332px;stroke-linecap:butt;stroke-linejoin:miter;stroke-opacity:1"
           d="m 806.26011,221.38409 c -0.018,-0.002 -0.036,0.001 -0.053,-0.002 l 0.1193,0.0398 c -0.02,-0.016 -0.044,-0.0257 -0.066,-0.0377 z"
           id="path1454" />
        <path
           inkscape:export-ydpi="96"
           inkscape:export-xdpi="96"
           inkscape:export-filename="C:\Users\GEO\Desktop\logo gradijent.png"
           inkscape:connector-curvature="0"
           style="opacity:0.31799999;fill:#000000;fill-opacity:1;fill-rule:evenodd;stroke:none;stroke-width:2.64583325;stroke-linecap:square;stroke-linejoin:miter;stroke-miterlimit:4;stroke-dasharray:none;stroke-dashoffset:0;stroke-opacity:1;paint-order:fill markers stroke"
           d="m 783.24181,234.15591 a 41.346373,41.346373 0 0 0 -8.5607,25.11579 41.346373,41.346373 0 0 0 41.3463,41.33803 h 0.033 a 41.346373,41.346373 0 0 0 19.7223,-5.07204 46.638043,46.638043 0 0 1 -8.6051,0.83871 h -0.038 a 46.638043,46.638043 0 0 1 -46.6381,-46.62867 46.638043,46.638043 0 0 1 2.7399,-15.59182 z"
           id="path1462" />
      </g>
    </g>
  </g>
</svg>
