<?xml version="1.0" encoding="UTF-8"?>
<svg viewBox="0 0 128 128" xmlns="http://www.w3.org/2000/svg">
 <defs>
  <radialGradient id="e" cx="71.05" cy="39.913" r="53.36" gradientTransform="matrix(.90142 -.43862 .45046 .95015 -12.355 37.058)" gradientUnits="userSpaceOnUse">
   <stop stop-color="#555" offset="0"/>
   <stop stop-color="#323232" offset="1"/>
  </radialGradient>
  <radialGradient id="f" cx="70.55" cy="-2.875" r="52.734" gradientTransform="matrix(1.306 0 0 1.013 -19.854 -.86676)" gradientUnits="userSpaceOnUse">
   <stop stop-color="#eee" offset="0"/>
   <stop stop-color="#eee" stop-opacity="0" offset="1"/>
  </radialGradient>
  <radialGradient id="g" cx="-98.1" cy="50.891" r="27.603" gradientTransform="matrix(1 0 0 1.2692 0 -16.454)" gradientUnits="userSpaceOnUse">
   <stop stop-color="#e6e6e6" offset="0"/>
   <stop stop-color="#dbdbdb" offset="1"/>
  </radialGradient>
  <radialGradient id="h" cx="63.762" cy="119.67" r="48.33" gradientTransform="matrix(1 0 0 .071429 0 111.13)" gradientUnits="userSpaceOnUse">
   <stop offset="0"/>
   <stop stop-opacity="0" offset="1"/>
  </radialGradient>
 </defs>
 <path transform="translate(.23819 4.0613)" d="m112.09 119.67a48.329 3.4521 0 1 1 -96.658 0 48.329 3.4521 0 1 1 96.658 0z" fill="url(#h)" opacity=".372"/>
 <path transform="matrix(1.1245 0 0 1.11 -14.341 -9.8025)" d="m123.02 66.49a53.356 54.055 0 1 1 -106.71 0 53.356 54.055 0 1 1 106.71 0z" fill="#262626"/>
 <path transform="matrix(1.0683 0 0 1.0545 -10.424 -6.1124)" d="m123.02 66.49a53.356 54.055 0 1 1 -106.71 0 53.356 54.055 0 1 1 106.71 0z" fill="url(#e)"/>
 <path transform="matrix(1.0683 0 0 1.0545 -10.424 -6.1124)" d="m69.656 14.562c-28.279 0-51.219 23.241-51.219 51.938s22.938 51.906 51.219 51.906 51.25-23.211 51.25-51.906-22.971-51.938-51.25-51.938z" fill="none" opacity=".302" stroke="url(#f)" stroke-dashoffset="30" stroke-linecap="round" stroke-linejoin="round" stroke-width="3"/>
 <path transform="matrix(1.1231 0 0 .88485 170.35 -.41915)" d="m-67.945 61.116a27.603 35.034 0 1 1 -55.206 0 27.603 35.034 0 1 1 55.206 0z" fill="#323232"/>
 <path transform="matrix(1.0144 0 0 .79922 159.97 4.8142)" d="m-67.945 61.116a27.603 35.034 0 1 1 -55.206 0 27.603 35.034 0 1 1 55.206 0z" fill="#d2d2d2"/>
 <path transform="matrix(.9057 0 0 .71359 149.58 10.048)" d="m-67.945 61.116a27.603 35.034 0 1 1 -55.206 0 27.603 35.034 0 1 1 55.206 0z" fill="url(#g)"/>
 <path transform="scale(1.064 .93981)" d="m70.917 64.206c-2.5e-5 1.4004-0.23086 2.693-0.69249 3.878-0.46168 1.1695-1.1696 2.1852-2.1236 3.047-0.95412 0.84638-2.1621 1.5081-3.624 1.9851-1.4619 0.47705-3.2009 0.71558-5.2168 0.71558-2.0005 0-3.7395-0.23852-5.2168-0.71558-1.4619-0.47705-2.6776-1.1388-3.6471-1.9851-0.9541-0.86177-1.662-1.8774-2.1236-3.047-0.46166-1.1695-0.69249-2.4468-0.69249-3.8318-1e-6 -1.1849 0.18466-2.2314 0.55399-3.1393 0.36933-0.92331 0.86177-1.7158 1.4773-2.3776 0.61554-0.6617 1.3234-1.1849 2.1236-1.5696 0.80021-0.40009 1.6235-0.66939 2.4699-0.80791v-0.09233c-0.90794-0.20004-1.7235-0.53089-2.4468-0.99257-0.72328-0.46164-1.3388-1.0156-1.8466-1.662-0.50783-0.64631-0.90024-1.3619-1.1772-2.1467-0.26161-0.80019-0.39242-1.6312-0.39241-2.493-2e-6 -1.2926 0.23083-2.4699 0.69249-3.5317 0.47705-1.0618 1.1695-1.9697 2.0775-2.7238 0.90793-0.75402 2.0313-1.3311 3.3701-1.7312 1.3542-0.41546 2.9162-0.62321 4.6859-0.62324 1.8928 3.3e-5 3.524 0.21547 4.8936 0.64633 1.385 0.41553 2.5237 1.008 3.4163 1.7774 0.89252 0.75408 1.5542 1.662 1.9851 2.7238 0.43086 1.0618 0.6463 2.2314 0.64633 3.5086-2.4e-5 0.8464-0.13852 1.6697-0.4155 2.4699-0.26163 0.78485-0.64635 1.5004-1.1542 2.1467-0.50785 0.64634-1.1311 1.1926-1.8697 1.6389-0.72329 0.44629-1.5466 0.76176-2.4699 0.94641v0.09233c0.95408 0.1539 1.8389 0.4386 2.6546 0.85407 0.83097 0.40012 1.5465 0.93103 2.1467 1.5927 0.60014 0.64634 1.0695 1.4312 1.4081 2.3545 0.33853 0.90794 0.5078 1.939 0.50783 3.0931m-7.4789-14.842c-1.8e-5 -0.6463-0.06927-1.2388-0.20775-1.7774-0.13852-0.55397-0.36935-1.0233-0.69249-1.4081-0.32318-0.40008-0.76176-0.70785-1.3157-0.92332-0.53862-0.2308-1.2234-0.34622-2.0544-0.34625-0.80023 2.8e-5 -1.4696 0.11544-2.0082 0.34625-0.53862 0.21547-0.9695 0.52324-1.2927 0.92332-0.32317 0.38474-0.554 0.8541-0.69249 1.4081-0.13851 0.53863-0.20776 1.1311-0.20775 1.7774-9e-6 0.56941 0.05385 1.1311 0.16158 1.6851 0.1231 0.55402 0.33854 1.0541 0.64633 1.5004 0.30776 0.4309 0.73865 0.78484 1.2927 1.0618 0.55398 0.27702 1.2696 0.41552 2.1467 0.4155 0.92331 1.9e-5 1.662-0.13848 2.216-0.4155 0.56937-0.27698 1.0003-0.63861 1.2927-1.0849 0.29237-0.44625 0.48473-0.94638 0.57708-1.5004 0.09231-0.55397 0.13848-1.108 0.1385-1.662m0.76174 14.312c-1.8e-5 -0.6617-0.07696-1.3003-0.23083-1.9159-0.13852-0.61554-0.40012-1.1541-0.78482-1.6158-0.36935-0.47704-0.88487-0.85406-1.5466-1.1311-0.66173-0.29237-1.5004-0.43856-2.5161-0.43858-0.92334 1.5e-5 -1.7005 0.14621-2.3314 0.43858-0.61556 0.27701-1.1157 0.65403-1.5004 1.1311-0.36934 0.47706-0.63864 1.0311-0.80791 1.662-0.1539 0.61556-0.23084 1.2696-0.23083 1.9621-9e-6 0.81561 0.07693 1.562 0.23083 2.2391 0.16927 0.67711 0.44626 1.2619 0.83099 1.7543 0.4001 0.47706 0.92331 0.84638 1.5696 1.108 0.64632 0.26161 1.4542 0.39242 2.4237 0.39241 0.96948 4e-6 1.7697-0.1308 2.4006-0.39241 0.63092-0.27699 1.1311-0.66171 1.5004-1.1542 0.36931-0.49243 0.62322-1.0772 0.76174-1.7543 0.15387-0.69248 0.23081-1.4542 0.23083-2.2852" fill="#323232"/>
</svg>
