<?xml version="1.0" encoding="UTF-8"?>
<svg enable-background="new 0 0 256 256" version="1.1" viewBox="0 0 256 256" xml:space="preserve" xmlns="http://www.w3.org/2000/svg">
		<rect x="126" y="148" width="4" height="8"/>
		<rect x="126" y="100" width="4" height="8"/>
		<rect x="100" y="126" width="8" height="4"/>
		<rect x="148" y="126" width="8" height="4"/>
		<rect transform="matrix(.7071 .7071 -.7071 .7071 144.96 -60.048)" x="140.97" y="142.97" width="8.004" height="4"/>
		<rect transform="matrix(.7071 .7071 -.7071 .7071 111.02 -45.99)" x="107.03" y="109.03" width="8.004" height="4"/>
		<rect transform="matrix(.7071 .7071 -.7071 .7071 135.03 -36.05)" x="109.03" y="140.97" width="4" height="8.004"/>
		<rect transform="matrix(.7071 .7071 -.7071 .7071 120.97 -69.989)" x="142.97" y="107.03" width="4" height="8.004"/>
				<path d="m153.47 196.04c-7.24 0-15.424-2.77-23.984-8.229-13.369-8.525-26.188-22.671-36.095-39.831s-15.748-35.333-16.447-51.174c-0.719-16.308 4.094-28.296 13.553-33.758s22.249-3.635 36.012 5.141c13.369 8.525 26.188 22.671 36.095 39.831s15.748 35.333 16.447 51.174c0.719 16.308-4.095 28.296-13.554 33.757-3.575 2.065-7.628 3.089-12.027 3.089zm-50.922-132.08c-3.711 0-7.094 0.845-10.051 2.552-8.104 4.678-12.208 15.374-11.558 30.117 0.671 15.21 6.323 32.737 15.916 49.351 9.592 16.614 21.943 30.271 34.78 38.458 12.443 7.935 23.757 9.727 31.861 5.05 8.104-4.678 12.208-15.374 11.558-30.117-0.671-15.21-6.323-32.737-15.916-49.351-9.592-16.614-21.943-30.271-34.78-38.458-7.903-5.04-15.351-7.602-21.81-7.602z"/>
				<path d="m102.53 196.04c-4.4 0-8.451-1.023-12.027-3.088-9.459-5.461-14.272-17.45-13.554-33.757 0.699-15.841 6.54-34.015 16.447-51.174s22.726-31.305 36.095-39.831c13.762-8.775 26.553-10.604 36.012-5.141 9.459 5.461 14.272 17.45 13.554 33.757-0.699 15.841-6.54 34.015-16.447 51.174s-22.726 31.305-36.095 39.831c-8.56 5.458-16.744 8.229-23.985 8.229zm50.922-132.08c-6.459 0-13.906 2.562-21.811 7.602-12.837 8.187-25.188 21.844-34.78 38.458-9.593 16.614-15.245 34.14-15.916 49.351-0.65 14.743 3.454 25.439 11.558 30.117 8.102 4.677 19.417 2.885 31.861-5.05 12.837-8.187 25.188-21.844 34.78-38.458 9.593-16.614 15.245-34.14 15.916-49.351 0.65-14.743-3.454-25.439-11.558-30.117-2.955-1.706-6.34-2.552-10.05-2.552z"/>
				<path d="m128 167.96c-19.814 0-38.474-4.029-52.541-11.344-14.483-7.531-22.459-17.694-22.459-28.616s7.976-21.085 22.459-28.616c14.067-7.315 32.727-11.344 52.541-11.344s38.474 4.029 52.541 11.344c14.483 7.531 22.459 17.694 22.459 28.616s-7.976 21.085-22.459 28.616c-14.067 7.315-32.727 11.344-52.541 11.344zm0-75.92c-39.149 0-71 16.131-71 35.96s31.851 35.96 71 35.96 71-16.131 71-35.96-31.851-35.96-71-35.96z"/>
		<circle cx="128" cy="128" r="15" fill="#FF8C1A"/>
		<path d="m128 145c-9.374 0-17-7.626-17-17s7.626-17 17-17 17 7.626 17 17-7.626 17-17 17zm0-30c-7.168 0-13 5.832-13 13s5.832 13 13 13 13-5.832 13-13-5.832-13-13-13z"/>
</svg>
