<?xml version='1.0' encoding='utf-8'?>
<svg xmlns="http://www.w3.org/2000/svg" width="99.82682mm" height="108.55804mm" viewBox="0 0 99.82682 108.55804" version="1.1" id="svg8223"> <defs id="defs8217"/> <metadata id="metadata8220"> </metadata> <g id="layer1" transform="translate(-47.314188,-50.683102)"> <path id="path6996" d="m 86.687272,75.210605 c -32.26336,-0.08242 -39.182731,17.434088 -39.321683,43.916685 -0.117725,22.35876 19.764458,45.40947 49.861432,38.96363 30.097019,6.44584 49.975669,-16.60487 49.862629,-38.96363 C 146.93661,89.978656 138.562,71.694057 97.227021,75.783157 93.446499,75.408758 89.935629,75.219198 86.687272,75.210957 Z" style="display:inline;fill:#aa0000;stroke:#650000;stroke-width:1.102;stroke-linecap:round;stroke-linejoin:round;stroke-miterlimit:4;stroke-dasharray:none;stroke-opacity:1"/> <path id="path7001" d="m 88.11068,77.962233 c -3.222452,2.90173 -3.901781,5.803467 -2.424171,8.705196 3.957128,-3.307331 7.422097,-7.269404 14.766501,-6.0606 4.76128,1.685636 5.69848,4.805296 8.3746,7.272701 0.93013,-3.357143 2.08865,-6.755257 -1.54351,-9.256097 9.22466,-3.183241 15.74372,0.463886 19.0639,2.975094 -3.63808,-5.728835 -9.884,-8.628796 -18.29272,-9.476506 1.63184,-3.623926 5.10858,-4.013518 8.48527,-4.407822 -5.84799,-0.739374 -11.79367,-2.401112 -17.080049,2.203918 -3.030532,-4.083579 -5.698442,-8.501881 -15.536529,-7.162387 3.941815,2.998274 8.274534,5.973473 7.3821,9.25609 -5.442957,-2.685807 -11.647687,-2.074165 -17.960739,-0.991339 5.165124,1.747449 10.44794,3.21738 14.765347,6.941752 z" style="display:inline;fill:#338000;stroke:#013300;stroke-width:0.602;stroke-linecap:round;stroke-linejoin:round;stroke-miterlimit:4;stroke-dasharray:none;stroke-opacity:1"/> <path id="path7003" d="m 97.228212,75.783157 c 4.065448,-7.871046 3.225988,-17.080035 13.031098,-23.385655 -0.8124,-2.056507 -4.0172,-2.29351 -6.61092,-0.22017 -6.216512,7.125536 -4.319741,15.730075 -6.420178,23.605825 z" style="display:inline;fill:#225500;stroke:#013300;stroke-width:0.802;stroke-linecap:round;stroke-linejoin:round;stroke-miterlimit:4;stroke-dasharray:none;stroke-opacity:1"/> <ellipse style="opacity:1;fill:#ffffff;fill-opacity:0.35950413;stroke:none;stroke-width:0.80199999;stroke-linecap:round;stroke-linejoin:round;stroke-miterlimit:4;stroke-dasharray:none;stroke-dashoffset:0;stroke-opacity:1" id="path8960" cx="89.031685" cy="73.560272" rx="6.2808337" ry="12.160764" transform="rotate(16.930544)"/> </g> </svg>