<?xml version="1.0" encoding="utf-8"?>
<!-- Generator: Adobe Illustrator 19.2.0, SVG Export Plug-In . SVG Version: 6.00 Build 0)  -->
<svg version="1.1" id="Layer_1" xmlns="http://www.w3.org/2000/svg" xmlns:xlink="http://www.w3.org/1999/xlink" x="0px" y="0px"
	 viewBox="0 0 960 960" style="enable-background:new 0 0 960 960;" xml:space="preserve">
<style type="text/css">
	.st0{fill:#EB6841;}
	.st1{fill:#A26E3D;}
	.st2{clip-path:url(#SVGID_2_);fill:none;stroke:#8B523E;stroke-width:12.4179;stroke-miterlimit:10;}
	.st3{clip-path:url(#SVGID_4_);fill:none;stroke:#8B523E;stroke-width:12.4179;stroke-miterlimit:10;}
	.st4{clip-path:url(#SVGID_6_);fill:none;stroke:#8B523E;stroke-width:12.4179;stroke-miterlimit:10;}
	.st5{clip-path:url(#SVGID_8_);fill:none;stroke:#8B523E;stroke-width:12.4179;stroke-miterlimit:10;}
	.st6{fill:#37AA37;}
	.st7{fill:#1F871F;}
	.st8{clip-path:url(#SVGID_10_);fill:none;stroke:#8B523E;stroke-width:12.4179;stroke-miterlimit:10;}
	.st9{clip-path:url(#SVGID_12_);fill:none;stroke:#8B523E;stroke-width:12.4179;stroke-miterlimit:10;}
	.st10{clip-path:url(#SVGID_14_);fill:none;stroke:#8B523E;stroke-width:12.4179;stroke-miterlimit:10;}
	.st11{fill:#F8DF88;}
</style>
<g id="Layer_1_1_">
	<g>
		<circle class="st0" cx="527.7" cy="568.4" r="159.1"/>
		<path class="st1" d="M354.7,335.2h24.9c0,0,88.7,76.6,122.9,171.2s34.2,171.2,34.2,171.2h-68.5c0,0,14.8-62.6-22.6-171.2
			C412.1,408.7,354.7,335.2,354.7,335.2z"/>
		<g>
			<g>
				<defs>
					<path id="SVGID_1_" d="M354.7,335.2h24.9c0,0,88.7,76.6,122.9,171.2s34.2,171.2,34.2,171.2h-68.5c0,0,14.8-62.6-22.6-171.2
						C412.1,408.7,354.7,335.2,354.7,335.2z"/>
				</defs>
				<clipPath id="SVGID_2_">
					<use xlink:href="#SVGID_1_"  style="overflow:visible;"/>
				</clipPath>
				<line class="st2" x1="385.9" y1="423.3" x2="457.1" y2="386.6"/>
			</g>
			<g>
				<defs>
					<path id="SVGID_3_" d="M354.7,335.2h24.9c0,0,88.7,76.6,122.9,171.2s34.2,171.2,34.2,171.2h-68.5c0,0,14.8-62.6-22.6-171.2
						C412.1,408.7,354.7,335.2,354.7,335.2z"/>
				</defs>
				<clipPath id="SVGID_4_">
					<use xlink:href="#SVGID_3_"  style="overflow:visible;"/>
				</clipPath>
				<line class="st3" x1="417.5" y1="478.9" x2="489.5" y2="448.3"/>
			</g>
			<g>
				<defs>
					<path id="SVGID_5_" d="M354.7,335.2h24.9c0,0,88.7,76.6,122.9,171.2s34.2,171.2,34.2,171.2h-68.5c0,0,14.8-62.6-22.6-171.2
						C412.1,408.7,354.7,335.2,354.7,335.2z"/>
				</defs>
				<clipPath id="SVGID_6_">
					<use xlink:href="#SVGID_5_"  style="overflow:visible;"/>
				</clipPath>
				<line class="st4" x1="446.5" y1="528" x2="517.7" y2="509.6"/>
			</g>
			<g>
				<defs>
					<path id="SVGID_7_" d="M354.7,335.2h24.9c0,0,88.7,76.6,122.9,171.2s34.2,171.2,34.2,171.2h-68.5c0,0,14.8-62.6-22.6-171.2
						C412.1,408.7,354.7,335.2,354.7,335.2z"/>
				</defs>
				<clipPath id="SVGID_8_">
					<use xlink:href="#SVGID_7_"  style="overflow:visible;"/>
				</clipPath>
				<line class="st5" x1="457.1" y1="592.6" x2="536.9" y2="583.4"/>
			</g>
		</g>
		<path class="st6" d="M220,479.4l31.9,20.9l39.4-36.5l-18.4-33.4l31.9,20.9l39.4-36.5l-18.4-33.4l31.9,20.9l36.9-34.2
			c-30.8-33.3-99-20.1-152.3,29.3S170.7,513.7,201.5,547l36.9-34.2L220,479.4z"/>
		<path class="st7" d="M455.6,336.7l6.8,37.5l53.6,3.4l11.5-36.3l6.8,37.5l53.6,3.4l11.5-36.3l6.8,37.5l50.2,3.2
			c2.9-45.3-53.6-85.7-126.1-90.3s-133.7,28.3-136.6,73.6L444,373L455.6,336.7z"/>
		<path class="st7" d="M192.9,322l7.3,37.4l53.7,2.7l11.1-36.5l7.3,37.4l53.7,2.7l11.1-36.5l7.3,37.4l50.2,2.6
			c2.3-45.3-54.7-85-127.2-88.7s-133.3,30-135.6,75.3l50.2,2.6L192.9,322z"/>
		<path class="st6" d="M400.2,299.9l35,15.1l32.6-42.7l-23.9-29.7l35,15.1l32.6-42.7l-23.9-29.7l35,15.1l30.4-40
			c-36.1-27.5-101-2.9-145,54.9s-50.5,127-14.4,154.4l30.5-40L400.2,299.9z"/>
		<path class="st1" d="M689.6,470h-20.9c0,0-74.4,64.3-103.1,143.6s-28.7,143.6-28.7,143.6h57.4c0,0-12.4-52.5,18.9-143.6
			C641.5,531.7,689.6,470,689.6,470z"/>
		<g>
			<g>
				<defs>
					<path id="SVGID_9_" d="M689.6,470h-20.9c0,0-74.4,64.3-103.1,143.6s-28.7,143.6-28.7,143.6h57.4c0,0-12.4-52.5,18.9-143.6
						C641.5,531.7,689.6,470,689.6,470z"/>
				</defs>
				<clipPath id="SVGID_10_">
					<use xlink:href="#SVGID_9_"  style="overflow:visible;"/>
				</clipPath>
				<line class="st8" x1="552.5" y1="616.3" x2="628" y2="632.8"/>
			</g>
			<g>
				<defs>
					<path id="SVGID_11_" d="M689.6,470h-20.9c0,0-74.4,64.3-103.1,143.6s-28.7,143.6-28.7,143.6h57.4c0,0-12.4-52.5,18.9-143.6
						C641.5,531.7,689.6,470,689.6,470z"/>
				</defs>
				<clipPath id="SVGID_12_">
					<use xlink:href="#SVGID_11_"  style="overflow:visible;"/>
				</clipPath>
				<line class="st9" x1="570.8" y1="556.7" x2="645.2" y2="580.4"/>
			</g>
			<g>
				<defs>
					<path id="SVGID_13_" d="M689.6,470h-20.9c0,0-74.4,64.3-103.1,143.6s-28.7,143.6-28.7,143.6h57.4c0,0-12.4-52.5,18.9-143.6
						C641.5,531.7,689.6,470,689.6,470z"/>
				</defs>
				<clipPath id="SVGID_14_">
					<use xlink:href="#SVGID_13_"  style="overflow:visible;"/>
				</clipPath>
				<line class="st10" x1="608" y1="507.3" x2="666.8" y2="533.8"/>
			</g>
		</g>
		<path class="st6" d="M735.4,611.3l-24.5,5l-15.1-31.8l19.3-15.8l-24.5,5l-15.1-31.8l19.3-15.8l-24.5,5l-14.1-29.7
			c26.8-12.7,65.1,11.8,85.5,54.8s15.2,88.1-11.6,100.9L716,627.4L735.4,611.3z"/>
		<path class="st7" d="M616.4,479l-4.5,24.6l-35.1,2.2l-7.5-23.8l-4.5,24.6l-35.1,2.2l-7.5-23.8l-4.5,24.6l-32.8,2.1
			c-1.9-29.6,35.1-56.1,82.5-59.1c47.5-3,87.5,18.5,89.4,48.1l-32.8,2.1L616.4,479z"/>
		<path class="st7" d="M788.3,469.4l-4.8,24.5l-35.1,1.8l-7.2-23.9l-4.8,24.5l-35.1,1.8l-7.2-23.9l-4.8,24.5l-32.9,1.7
			c-1.5-29.6,35.8-55.6,83.3-58.1c47.5-2.4,87.2,19.6,88.8,49.3l-32.9,1.7L788.3,469.4z"/>
		<path class="st6" d="M652.6,454.9l-22.9,9.9l-21.3-28l15.6-19.5l-22.9,9.9l-21.3-28l15.6-19.5l-22.9,9.9l-19.9-26.2
			c23.6-18,66.1-1.9,94.9,36c28.8,37.8,33,83.1,9.4,101.1L637,474.4L652.6,454.9z"/>
		<path class="st11" d="M795.3,811c-37.2-85.7-135.9-147-251.8-147S329,725.3,291.8,811H795.3z"/>
	</g>
</g>
</svg>
