<?xml version="1.0" encoding="UTF-8"?>
<svg viewBox="0 0 256.25 206.25" xmlns="http://www.w3.org/2000/svg">
 <g transform="translate(-8.6636 -6.4977)">
  <path d="m143.85 9.1978c6.1318 2e-4 12.761 1.9061 19.887 5.7176-0.82879 2.8176-1.2431 6.5465-1.243 11.187-1.5e-4 9.9439 1.74 15.496 5.2204 16.656 0.49703-0.16556 1.9057-0.41416 4.2261-0.74578 7.6234-1.1599 15.413-1.1599 23.368 0 1.9886 1.1603 4.8888 2.569 8.7008 4.2261 2.32 0.49735 4.8888 0.58021 7.7064 0.24859 4.143-0.33129 6.7947-0.41416 7.955-0.24859 5.4688 0.99453 10.855 2.9833 16.159 5.9662 0.33123 0.16589 2.2371 2.3204 5.7176 6.4634 1.8228 1.6574 4.3087 4.1434 7.4578 7.4578 0.49695 1.326 1.2427 3.3976 2.2373 6.2148 1.657 2.9832 3.7286 7.375 6.2148 13.175 0.33121 1.9889 1.3256 8.3694 2.9831 19.142 2.1542 7.6236 3.2314 15.247 3.2317 22.871-2.6e-4 18.562-3.6463 33.892-10.938 45.99-1.989 1.9888-5.3864 5.6348-10.192 10.938-6.6294 7.6235-12.761 12.181-18.396 13.673-4.4749 1.1601-8.3695 1.7402-11.684 1.7402-0.66311 1e-5 -2.569-0.16572-5.7176-0.49719-2.9833-0.49717-4.6406-0.6629-4.9719-0.49718-1.9889 1.3258-4.8892 2.9831-8.7008 4.9718-2.4861 0.82865-7.3751 1.823-14.667 2.9831-4.4748 0.66292-9.3638 0.16573-14.667-1.4916-2.8175-1.9887-5.1377-2.7345-6.9606-2.2373-1.326 0.66292-3.149 1.6573-5.469 2.9831-6.2978 2.4859-13.507 3.7289-21.628 3.7289-6.9607 0-13.921-1.4916-20.882-4.4747-1.3259-0.49718-6.9607-3.3974-16.904-8.7008-2.3203 1.6573-8.2036 1.9059-17.65 0.74578-3.6461-0.49718-10.358-1.4916-20.136-2.9831-5.9663-1.9887-12.927-5.9662-20.882-11.932-1.9888-1.4915-5.6348-6.2148-10.938-14.17-7.7892-11.767-11.684-25.522-11.684-41.266 0-13.921 2.9831-27.428 8.9494-40.521 6.6291-14.253 15.413-24.693 26.351-31.323 15.91-9.6121 31.654-14.584 47.233-14.916 4.3089 1.7e-4 9.5293-0.41415 15.661-1.243 0.49709-0.66274 1.16-1.4085 1.9888-2.2373 9.4464-5.966 16.158-11.767 20.136-17.402 0.99425-2.9829 2.3201-6.0489 3.9775-9.1979 2.6515-0.66271 5.6346-0.99417 8.9494-0.99437" fill="#d3a51d" stroke="#000"/>
  <path d="m138.63 15.91c-0.82877 1.9889-2.2375 3.8948-4.2261 5.7176s-3.9776 3.5634-5.9662 5.2204c-7.7894 8.4523-14.17 14.667-19.142 18.644 0.16563 0.16589 0.74568 0.49735 1.7402 0.99437 4.9718-2.983 10.275-7.7891 15.91-14.418 7.4577-8.9492 12.181-14.335 14.17-16.159h-2.4859" fill="#e8c14d"/>
  <path d="m142.86 15.91c-2.4861 0.82884-8.7837 9.0324-18.893 24.611 6.629-1.4914 11.352-2.2372 14.17-2.2373 2.1543 1.7e-4 4.1431 0.24876 5.9662 0.74577 0.99424-2.6515 2.4858-6.7118 4.4747-12.181 0.16559-0.66273 0.57991-1.74 1.243-3.2317h1.4916c-1.1602 3.149-2.4861 7.6237-3.9775 13.424-0.16586 2.3204 0.08273 3.4805 0.74578 3.4803 1.16 1.7e-4 1.9886-1.1599 2.4859-3.4803-1.4e-4 -1.8228 0.08272-4.143 0.24859-6.9606 0.8285-5.1374 1.74-9.3635 2.7345-12.678-0.82878 1.9e-4 -2.6518-0.33127-5.469-0.99437-2.6518-0.66272-4.3919-0.82845-5.2204-0.49719" fill="#e8c14d"/>
  <path d="m156.53 18.893c-1.4917 4.4749-2.2375 9.3638-2.2373 14.667-1.4e-4 2.9833 0.24845 6.0493 0.74578 9.1979l1.4916-3.2317c0.33131-2.8172 0.49704-5.966 0.49719-9.4465s-0.16588-7.209-0.49719-11.187" fill="#e8c14d"/>
  <path d="m160.26 40.52c-1.5e-4 3.9776 0.99422 6.1321 2.9831 6.4634 0.82849 1.6e-4 1.4914-0.24843 1.9887-0.74578 0.16558 0.16589 0.41417-0.0827 0.74578-0.74578-1.326-1.1599-3.2319-2.8172-5.7176-4.9719" fill="#e8c14d"/>
  <path d="m102.84 42.758c-1.8231 0.66308-3.8118 1.326-5.9662 1.9887-3.8118 0.66308-7.5407 1.326-11.187 1.9888-2.8175 0.8288-5.3034 2.9004-7.4578 6.2148 5.9662 1.6e-4 9.6122 0.24875 10.938 0.74578 1.9887 0.8288 3.8945 2.4861 5.7176 4.9719 4.4746-2.6515 8.7835-5.8832 12.927-9.6951-0.49728-0.33129-1.7402-1.6571-3.7289-3.9775 0.49709-0.49702 0.66282-0.9942 0.49718-1.4916s-0.74587-0.74561-1.7402-0.74578" fill="#e8c14d"/>
  <path d="m124.71 48.227-7.4578 3.2317c-1.9888 0.49734-4.8891 1.4088-8.7008 2.7345-2.486 1.1603-5.8835 2.9004-10.192 5.2205 4.3088 1.5e-4 11.104-0.41418 20.385-1.243 9.2807-0.99422 16.49-1.4914 21.628-1.4916 4.3088 1.6e-4 10.109 0.41448 17.402 1.243 8.6177 0.82879 14.335 1.326 17.153 1.4916-0.49735-0.49704-1.5746-1.2428-3.2317-2.2373-13.756-7.9548-25.274-11.932-34.554-11.932-3.8119 1.6e-4 -7.9551 0.99453-12.43 2.9831" fill="#e8c14d"/>
  <path d="m174.68 46.984c-3.3147 0.49735-5.7178 0.99453-7.2092 1.4916l4.7233 5.2204c2.4858 2.6518 4.7231 3.6462 6.712 2.9831 0.66275-0.82849 1.6571-1.9057 2.9831-3.2317l10.441-4.4747c-7.7894-1.9886-13.673-2.6515-17.65-1.9887" fill="#e8c14d"/>
  <path d="m79.469 47.73c-2.8175 1.4917-6.132 2.9833-9.9437 4.4747-13.424 5.4692-24.196 13.756-32.317 24.859-2.3202 2.4861-5.2205 6.2978-8.7008 11.435-5.9662 12.761-8.9494 26.102-8.9493 40.023-1e-5 2.9832 0.16572 5.8006 0.49718 8.4522-0.16573 2.486-0.16573 6.2149 0 11.187 1.4916 7.2921 3.8118 13.756 6.9606 19.39 0.82862 0.66296 1.9059 1.7402 3.2317 3.2317 0.33143 1.3259 1.0772 3.1489 2.2373 5.469 1.823 2.3202 6.7948 5.8005 14.916 10.441 1.4915 1.3258 3.8946 2.8174 7.2092 4.4747 7.7892 2.6517 16.324 3.9775 25.605 3.9775 3.1488 2e-5 5.5518-0.24858 7.2092-0.74578-0.33153-0.33144-2.9003-2.403-7.7064-6.2148-0.82871-0.99435-1.1602-1.823-0.99437-2.4859 2.983 1.9888 5.7176 3.5632 8.2036 4.7233 17.899 8.7836 30.245 13.175 37.04 13.175 11.932 1e-5 28.92-5.8834 50.962-17.65 0.49702 0.33148 0.74561 0.7458 0.74578 1.243-1.7e-4 1.9888-3.2319 6.2148-9.6951 12.678 0.66276 1e-5 3.0658 0.2486 7.2092 0.74578 2.983 0.33146 5.6346 0.33146 7.955 0 6.629-0.99437 14.004-3.8946 22.125-8.7008 8.2862-4.9718 14.501-10.192 18.644-15.661 1.4914-3.3145 4.3916-7.7892 8.7008-13.424 0.66269 0.82869 0.99415 1.6573 0.99437 2.4859-2.2e-4 0.3315-1.7404 3.4803-5.2204 9.4465-4.1434 7.1264-9.0324 13.424-14.667 18.893 22.042-0.99435 35.466-15.993 40.272-44.995 0.8284-3.1488 1.9056-7.9549 3.2317-14.418 1.657-8.9493 1.077-20.633-1.7402-35.052-4.8064-24.693-15.082-40.355-30.826-46.984-3.6462-1.4914-6.7951-2.0714-9.4465-1.7402 3.3144 3.9776 6.7118 8.038 10.192 12.181 3.6458 4.8063 6.1317 9.3638 7.4578 13.673 0.16551 1.9889 0.66269 4.8891 1.4916 8.7008 1.3256 1.8231 2.9 4.972 4.7233 9.4465-1.989-1.6572-3.7291-4.3917-5.2204-8.2036-2.1547-5.4689-3.4805-8.6178-3.9775-9.4465-5.3035-9.6121-12.347-17.318-21.13-23.119l-1.243-0.2486c-2.1547-1.3257-5.3864-2.7344-9.6951-4.2261-1.6575-0.16556-4.4748 0.66308-8.4522 2.4859-3.8119 1.8232-6.2978 3.3976-7.4578 4.7233-0.33163 1.326-1.5746 2.8175-3.7289 4.4747-1.9889 0.33161-8.7009-0.41417-20.136-2.2373h-15.413c-10.275 1.5e-4 -25.854 0.74593-46.735 2.2373-0.663-3.4802-2.7346-5.5518-6.2148-6.2148l-11.187-0.49719c0.66285-1.1599 1.7401-3.0658 3.2317-5.7176 0.33139-0.16557 0.57998-0.3313 0.74578-0.49719-0.1658-0.3313-0.49726-0.41416-0.99437-0.24859" fill="#e8c14d"/>
  <path d="m179.16 69.606c1.9886 1.9889 5.1374 4.8063 9.4465 8.4522 3.4801 2.1546 7.6233 5.3034 12.43 9.4465 2.4857 0.82876 4.8059 1.8231 6.9606 2.9831 5.966 3.149 10.109 6.5464 12.43 10.192-1.1603 0.99448-8.4524 2.2374-21.876 3.7289-4.6406 0.49729-16.904 1.906-36.792 4.2261 3.6459-13.921 9.4464-26.931 17.402-39.029"/>
  <path d="m103.33 72.34c5.3032 10.11 8.5349 16.324 9.6951 18.644 3.6459 7.7894 5.8833 14.418 6.712 19.887-6.795-0.82854-19.059-2.403-36.792-4.7233-3.9776-0.33136-10.938-1.16-20.882-2.4859-0.16578-0.66281-0.16578-1.6572 0-2.9831 2.9831-2.3201 6.7948-4.9717 11.435-7.955 3.1488-1.9886 9.0321-5.6346 17.65-10.938 2.4858-2.4858 6.5462-5.6346 12.181-9.4465"/>
  <path d="m179.65 76.318c-0.66308 1.4917-1.5746 3.8948-2.7345 7.2092 2.983 3.149 7.8719 7.4579 14.667 12.927 0.99419 1.4917 2.4029 3.149 4.2261 4.9719 0.66273 0.16584 1.2428 0.2487 1.7402 0.2486 0.99419 1e-4 2.4029-0.33135 4.2261-0.99438s3.1486-1.0771 3.9775-1.243 2.32-0.41421 4.4747-0.74578c-3.9777-2.4858-8.7009-5.7175-14.17-9.6951-0.99456-1.3257-2.569-2.983-4.7233-4.9719-0.82882-0.16561-2.1546-0.66279-3.9775-1.4916-1.326-1.4914-3.8948-3.563-7.7064-6.2148" fill="#d3a51d" stroke="#000"/>
  <path d="m101.59 78.058c-6.9607 6.4635-11.684 10.441-14.17 11.932-2.486 1.3259-5.3034 2.9004-8.4522 4.7233s-5.8006 4.0605-7.955 6.712c1.3258 1.1e-4 3.1488 0.2487 5.469 0.74578 5.469 1.1602 8.4521 1.6574 8.9494 1.4916l20.136-17.899c-1e-4 -0.66279-1.3259-3.2316-3.9775-7.7064" fill="#d3a51d" stroke="#000"/>
  <path d="m141.87 107.89c2.3201 2.8175 5.7175 7.0436 10.192 12.678 1.4914 2.8175 3.9773 6.8778 7.4578 12.181 1.3257 1.1602 3.0658 3.3975 5.2205 6.712-3.149 0.33153-10.192 0.49726-21.13 0.49719-12.098 7e-5 -19.805-0.16566-23.119-0.49719 2.3201-4.9718 5.6347-10.441 9.9437-16.407 6.629-9.115 10.441-14.17 11.435-15.164"/>
  <path d="m141.37 113.36c-1.6574 3.9776-2.5689 6.0492-2.7345 6.2148 1.3257 2.1546 3.3973 5.552 6.2148 10.192 1.16 1.4916 2.9001 3.8947 5.2204 7.2092h8.7008c-1.6574-2.983-4.6406-6.9605-8.9494-11.932-4.1434-5.1375-6.9607-9.0321-8.4522-11.684" fill="#d3a51d" stroke="#000"/>
  <path d="m195.31 117.34c0.99418 5.4691 1.2428 9.3638 0.74578 11.684-0.82883-5.6347-1.0774-9.5293-0.74578-11.684" fill="#d3a51d"/>
  <path d="m54.859 125.54c2.4859 4.8062 6.712 9.9438 12.678 15.413 6.6291 5.8006 12.347 9.1151 17.153 9.9437s10.524 1.4088 17.153 1.7402c3.8117 0.16578 10.358 0.16578 19.639 0l19.639-0.24859c0.49705 2.1545 0.74564 5.3034 0.74578 9.4465h14.667c-1.5e-4 -4.6404 0.24845-8.0378 0.74578-10.192 1.9886 5e-5 11.767-1.2429 29.334-3.7289 1.9886-0.16566 5.5517-0.66285 10.689-1.4916 3.3144-2.3201 6.2975-4.226 8.9494-5.7176 7.4576-4.3089 15.33-9.115 23.616-14.418-0.82886 9.4466-1.6575 15.827-2.4859 19.142-1.989 6.7949-5.5521 11.85-10.69 15.164-0.16593 0.16578-4.392 2.3202-12.678 6.4634-2.3204 1.823-5.9664 4.2261-10.938 7.2092-0.16591 0.16577-4.8892 1.1601-14.17 2.9831-1.6574 0.66295-3.729 1.4087-6.2148 2.2373-4.1434 0.66294-12.43 0.82867-24.859 0.49718-12.927-0.33143-20.385-0.99434-22.373-1.9887v-11.684h-10.938c-1e-4 4.6404-0.24869 8.0379-0.74578 10.192-14.253 3e-5 -27.345-3.8946-39.278-11.684-13.424-8.9493-20.136-20.219-20.136-33.809-4e-5 -1.8229 0.16569-3.6459 0.49719-5.469"/>
  <path d="m222.16 136.23c-2.3204 1.1602-3.8948 3.3146-4.7233 6.4634-1.326 4.6405-2.2375 7.375-2.7345 8.2036-1.6575 2.486-7.9552 6.6292-18.893 12.43-2.3204 1.6573-5.8835 3.6461-10.689 5.9662-8.2866 2.8174-24.528 4.2261-48.724 4.2261-0.33158-1.3258-0.82877-3.7289-1.4916-7.2092-1.6574 0.16577-2.6518 0.49723-2.9831 0.99437-0.16585 0.3315-0.24872 1.4087-0.24859 3.2317-1.3e-4 3.8118 0.4142 5.8005 1.243 5.9662h6.4634c4.1431 0.66295 8.3692 0.9944 12.678 0.99437 16.241 3e-5 34.306-4.9718 54.193-14.916 2.6515-0.66287 5.966-2.3202 9.9437-4.9719 4.3087-6.1319 6.2975-13.258 5.9662-21.379" fill="#d3a51d" stroke="#000"/>
  <path d="m237.33 140.21c0.1655 0.99444-0.58028 6.7949-2.2373 17.402-0.16595-1.6572 0.57982-7.4577 2.2373-17.402" fill="#d3a51d"/>
  <path d="m63.559 144.93c5.6347 13.258 16.241 22.042 31.82 26.351 2.8173 0.16577 6.7119 0.66295 11.684 1.4916v-1.4916c0.33136-0.99433 0.82855-2.403 1.4916-4.2261-5.1377-0.8286-12.43-2.5688-21.876-5.2204-3.6461-1.6572-7.7064-4.3918-12.181-8.2036-5.4691-4.6403-9.1151-7.5406-10.938-8.7008" fill="#d3a51d" stroke="#000"/>
  <path d="m162.25 153.88v7.955c0.3313-0.16568 1.0771-0.41428 2.2373-0.74578-1.5e-4 -0.49714 0.16558-1.2429 0.49719-2.2373 0.3313-1.16 0.49703-1.9887 0.49719-2.4859-1.6e-4 -1.3258-1.0774-2.1544-3.2317-2.4859" fill="#d3a51d" stroke="#000"/>
  <path d="m184.38 179.98c-1.1603 1.9888-2.1546 3.2317-2.9831 3.7289 1.3257-2.1544 2.32-3.3974 2.9831-3.7289" fill="#d3a51d"/>
 </g>
</svg>
