<?xml version="1.0" encoding="UTF-8"?>
<svg enable-background="new 0 0 135.566 198.125" viewBox="0 0 135.566 198.125" xmlns="http://www.w3.org/2000/svg">
 <path d="m.487,171.105c1.404-11.196 2.016-25.561 1.98-44.208-.072-18.756-.936-40.536-2.448-66.744 6.84-2.376 16.38-5.976 29.448-10.8 13.104-4.896 28.764-10.908 48.096-18.18l5.4,3.924c1.979-9.576 3.996-16.992 6.443-22.788 2.341-5.868 4.788-10.188 7.776-11.7 2.916-1.584 3.672.252 9.9,2.592 6.264,2.268 15.228,6.048 27.323,11.196 1.152,1.692 1.549,3.204 1.044,4.68-.504,1.44-1.764,2.7-3.924,3.924-6.768-2.124-12.563-4.248-17.676-6.516-5.076-2.376-9.324-4.536-12.744-7.02-3.023,4.428-5.399,9.072-7.271,13.788-1.908,4.788-3.168,9.468-3.925,14.58l24.984,13.5c1.224,12.456 1.872,28.044 1.944,47.592s-.468,42.084-1.477,68.724c-15.443,7.704-29.231,14.04-42.191,19.152s-24.408,8.747-34.884,11.304c-6.192-3.42-12.276-7.309-18.648-11.809-6.334-4.499-12.67-9.61-19.15-15.191z" fill-rule="evenodd" stroke="#000" stroke-miterlimit="10" stroke-width=".036"/>
 <path d="m2.791,64.797c1.548,2.016 3.492,5.796 5.832,11.628 2.304,5.796 4.968,13.32 8.136,23.004-.144-3.996 0-7.992.288-12.528 .252-4.572.792-9.144 1.476-14.256-2.232-2.268-4.716-3.888-7.308-5.256-2.736-1.332-5.364-2.196-8.424-2.592z" fill="#f2c802" fill-rule="evenodd" stroke="#000" stroke-miterlimit="10" stroke-width=".036"/>
 <path d="m22.591,74.085c2.988,1.548 5.508,2.916 7.56,4.392 2.016,1.44 3.564,2.7 4.644,4.068-2.376,3.564-4.752,6.624-7.272,9.324-2.592,2.628-5.076,4.86-7.848,6.696 .396-8.856 1.008-15.12 1.44-19.224 .54-4.14.9-5.796 1.476-5.256z" fill="#f2c802" fill-rule="evenodd" stroke="#000" stroke-miterlimit="10" stroke-width=".036"/>
 <path d="m7.723,61.593c1.188-.144 5.184-1.476 12.528-4.392 7.344-2.952 21.096-8.892 30.852-12.816 9.576-3.996 18.36-7.56 26.496-10.836l4.824,2.808c-.685,2.88-1.044,4.968-1.368,6.264-.396,1.188-.36,1.08-.432,1.476-.072.36-.072.72 0,.936-2.664-.144-3.96-.036-3.889.468 0,.396 2.053,1.872 4.068,2.34 1.944.504 6.264.792 7.56.576 1.188-.36.9-1.044-.575-2.34l1.764-6.696 22.392,12.528c-3.996,2.088-12.096,5.436-24.443,10.188-12.528,4.752-28.656,10.584-49.5,18.036-3.024-2.736-5.544-4.824-7.56-6.408-2.052-1.584-3.6-2.556-4.644-2.916 9.936-4.104 14.4-6.336 13.68-6.696-.792-.432-6.912,1.08-18.36,4.392-2.52-2.16-4.716-3.816-6.984-4.968s-4.358-1.8-6.409-1.944z" fill="#f2c802" fill-rule="evenodd" stroke="#000" stroke-miterlimit="10" stroke-width=".036"/>
 <path d="m133.795,14.865c-.973.36-1.656,1.116-2.053,2.412-.432,1.224-.575,2.988-.432,5.148 1.656-.792 2.628-1.872 3.061-3.096 .396-1.296.252-2.736-.576-4.464z" fill="#fff" fill-rule="evenodd" stroke="#000" stroke-miterlimit="10" stroke-width=".036"/>
 <path d="m132.103,14.325c-3.924-1.656-7.74-3.348-11.988-4.932-4.283-1.656-9.684-3.528-13.14-4.788-3.456-1.332-5.508-2.916-7.416-2.952-1.944-.144-2.556-.828-4.356,2.268-1.943,3.024-5.147,9.18-7.271,15.984-2.232,6.732-4.212,14.652-5.94,24.192-.071,1.044.396,1.728 1.009,2.196 .72.396 1.584.54 2.987.432 .54-2.196 1.368-5.328 2.484-9.252 1.08-4.032 2.268-9.972 4.248-14.616 1.872-4.68 4.355-9.216 7.308-13.464-1.584-.324-2.52-.828-3.096-1.116-.648-.468-.72-1.224-.216-1.152 .468.108 1.439.468 3.06,1.476-.216-1.44-.288-2.34-.216-2.844 0-.576.324-.396.576,0 .107.396.432,1.188.576,2.376 2.016-1.584 3.168-2.34 3.312-2.268 .145.036-.576.864-2.304,2.628-.072.864 2.34,2.34 7.092,4.572 4.824,2.196 11.844,5.004 21.456,8.568-.18-2.124-.108-3.852.216-5.04 .287-1.26.827-2.016 1.619-2.268z" fill="#c0c0c0" fill-rule="evenodd" stroke="#000" stroke-miterlimit="10" stroke-width=".036"/>
 <path d="m39.294,84.201c-.936,1.296 4.608-.504 17.172-5.4 12.527-4.968 31.392-12.852 57.42-24.048 .144,25.956.144,47.627 0,66.276-.18,18.54-.504,32.94-.972,44.172-17.929,8.676-32.832,15.192-45.145,20.124-12.42,4.86-21.636,7.704-28.476,8.82 1.008-28.656 1.404-51.732 1.476-70.2-.07-18.504-.466-31.428-1.475-39.744z" fill="#f2c802" fill-rule="evenodd" stroke="#000" stroke-miterlimit="10" stroke-width=".036"/>
 <path d="m35.839,87.153c-1.008,1.332-3.132,3.456-6.372,6.372-3.348,2.916-7.668,6.372-13.248,10.8-1.656-3.528-3.312-7.812-5.4-13.248-2.052-5.436-4.392-11.772-6.876-19.152 1.368,12.672 2.016,26.964 1.944,43.704s-.936,35.064-2.448,55.944c7.776,5.437 14.148,9.972 19.656,13.752 5.472,3.78 9.54,6.624 12.744,8.82 1.332-12.744 1.944-27.685 1.98-45.648-.036-18.107-.649-38.052-1.98-61.344z" fill="#f2c802" fill-rule="evenodd" stroke="#000" stroke-miterlimit="10" stroke-width=".036"/>
 <path d="m103.698,91.725c-8.964-5.508-16.523-7.884-23.111-7.668-6.624.324-11.521,5.184-16.2,9.324-4.788,3.996-9.216,9.936-12.168,14.508-2.916,4.392-4.644,7.956-5.58,12.06-1.116,4.14-1.044,8.1-.9,12.276 .108,3.996.108,6.588 1.512,11.52 1.224,4.86 2.268,12.636 6.336,17.353 4.14,4.68 10.008,7.991 18.144,10.332 5.292.252 10.296-1.116 15.156-4.5 4.824-3.385 9.9-9.36 13.68-15.444 3.636-6.192 6.517-14.796 8.353-21.096 1.764-6.372 3.239-10.152 2.483-16.597-.9-6.552-3.421-13.716-7.705-22.068z" fill-rule="evenodd"/>
 <path d="m54.883,113.901c2.7-4.608 8.316-11.268 12.42-15.408 3.96-4.248 7.812-7.452 11.412-9.468 3.492-2.016 6.228-2.916 9.72-2.556 3.42.252 7.813,1.944 10.8,4.104 2.844,1.944 4.393,4.104 6.192,8.136 1.62,3.959 3.924,10.08 3.996,16.02-.036,5.904-1.908,13.104-3.816,19.368-2.016,6.228-4.5,12.456-7.452,17.424-3.06,4.788-6.66,8.352-10.224,11.52-3.564,3.061-7.021,6.048-10.764,7.021-3.853.792-8.208-.216-11.7-1.908-3.6-1.8-7.056-4.248-9.252-8.604-2.268-4.5-3.132-11.987-3.96-17.604-.972-5.76-1.656-11.556-1.224-16.272 .396-4.717 1.08-7.345 3.852-11.773z" fill="#ff8000" fill-rule="evenodd"/>
 <path d="m80.083,123.153c-1.225-7.668-2.196-13.716-2.628-18.288-.576-4.608-1.152-6.66-.324-9.072 .756-2.448 2.447-5.04 5.076-5.688 2.592-.828 9.504-1.224 10.584,1.332 .863,2.52-2.988,9.684-4.752,14.256-1.872,4.5-3.925,8.82-6.156,12.96-.576,1.476-1.189,2.989-1.8,4.5z" fill-rule="evenodd"/>
 <path d="m85.194,115.377c1.584-2.771 3.132-5.939 4.788-9.504 1.656-3.672 2.809-10.332 4.824-12.06 1.908-1.764 5.076.252 6.444,1.728 1.26,1.404 1.584,3.636 1.115,6.696-.396-.468-.396-.468 0,0 .252.36 2.448,1.368 2.16,2.736-.359,1.332-.611,2.34-4.067,5.651-3.637,3.313-9.072,7.849-16.992,14.004-.108-.468-.288-.792-.54-.972-.324-.252-.648-.36-1.116-.324 1.117-2.627 2.233-5.291 3.384-7.955z" fill-rule="evenodd"/>
 <path d="m85.446,125.781c1.765-1.979 8.532-6.479 11.952-8.784 3.313-2.412 6.229-5.256 7.776-5.076 1.296.181.647,3.42.576,5.977-.036,2.34.036,6.156-.9,8.388-1.008,2.088-2.196,4.356-5.112,4.716-3.06.36-10.26-1.8-12.708-2.592-2.447-.829-3.347-.865-1.584-2.629z" fill-rule="evenodd"/>
 <path d="m84.15,129.741c1.08-.144 3.24,1.296 5.94,2.232 2.664.792 7.775,1.655 9.647,2.592 1.62.756 1.116.899.721,2.771-.433,1.944-1.944,6.553-2.988,8.82-1.116,2.16-2.124,4.392-3.42,3.924-1.44-.684-2.772-4.464-4.536-7.308-1.872-2.988-4.896-7.524-5.868-9.72-.864-2.195-.647-3.202.504-3.311z" fill-rule="evenodd"/>
 <path d="m81.774,131.793c.937.828 2.772,6.984 4.536,10.116 1.584,3.061 4.608,5.904 5.328,8.244 .54,2.196-.324,3.42-1.188,5.076-.936,1.584-2.411,3.204-3.743,4.284-1.477,1.008-3.168,2.664-4.248,1.764-1.08-1.224-1.513-4.788-1.729-7.776-.216-2.952.324-6.84.36-9.576-.216-2.771-.648-5.039-.612-6.947 .037-2.124.289-5.977 1.296-5.185z" fill-rule="evenodd"/>
 <path d="m77.599 122c0-2.304-1.476-9.54-2.196-13.644-0.611-4.176-0.647-9.9-1.655-11.196-1.225-1.332-3.673 1.692-5.256 3.384-1.584 1.62-4.14 4.068-4.068 6.372 0.072 2.232 2.484 4.5 4.32 7.093 1.656 2.483 4.284 6.588 5.796 7.991 1.439 1.261 2.879 2.232 3.059 0z" fill-rule="evenodd"/>
 <path d="m75.979,128.085c-1.764-2.52-3.852-5.004-6.408-7.632-2.52-2.628-5.147-7.56-8.604-7.992-3.492-.468-4.104,3.925-5.292,6.192s-1.512,3.852-1.8,7.271c-.288,3.456-.684,10.765.108,13.104 .792,2.304 2.016,1.62 4.536.72 2.556-.936 7.488-4.176 10.44-6.155 2.951-1.944 5.22-3.78 7.02-5.508z" fill-rule="evenodd"/>
 <path d="m72.271,133.846c-1.908,1.079-4.608,2.951-7.272,4.788-2.772,1.8-7.164,4.247-8.748,6.084-1.62,1.728-1.332,2.376-.936,4.571 .36,2.232 1.368,6.084 2.88,8.353 1.404,2.124 3.996,4.031 5.436,4.319 1.404.217 1.188-.144 2.7-3.168 1.296-3.275 3.564-11.304 5.436-15.731 1.8-4.5 4.788-8.604 5.508-10.513 .612-1.979-.72-1.115-1.512-.899-.901.179-1.693,1.007-3.492,2.196z" fill-rule="evenodd"/>
 <path d="m77.742,135.609c-1.079,1.764-2.592,4.608-4.104,8.244-1.584,3.708-4.32,10.188-5.004,13.752-.864,3.384-.72,5.796.72,6.84 1.548.9 6.588.036 8.316-.792 1.476-.936 1.116-1.548 1.296-4.212 .072-2.772-.036-9.36.072-11.988 .144-2.592.647-1.836.827-3.708 .036-2.088-.252-6.228-.288-8.1-.071-2.017.253-2.988 0-3.061-.322.001-.934,1.01-1.835,3.025z" fill-rule="evenodd"/>
 <path d="m75.727,144.142c-.288-.288-1.979,3.6-2.592,5.832-.72,2.231-1.62,7.199-1.332,7.523 .216.108 1.944-3.96 2.7-6.228 .647-2.304 1.332-6.948 1.224-7.127z" fill="#ff8000" fill-rule="evenodd"/>
 <path d="m76.95,150.945c.217.216-.323,7.164-.792,8.496-.468,1.188-2.016.324-1.871-1.044 .18-1.547 2.232-7.595 2.663-7.452z" fill="#ff8000" fill-rule="evenodd"/>
 <path d="m82.675,139.965c-.216-.18.468,2.017.504,3.528-.036,1.477-.468,4.86-.324,5.148 .072.071 1.08-2.772 1.08-4.212-.073-1.548-1.188-4.283-1.26-4.464z" fill="#ff8000" fill-rule="evenodd"/>
 <path d="m85.771,143.997c.252.468 2.844,6.229 3.061,7.128 .107.721-1.404-1.368-1.908-2.52-.577-1.224-1.478-5.076-1.153-4.608z" fill="#ff8000" fill-rule="evenodd"/>
 <path d="m89.658,132.945c.469-.036-.107.18 1.477.936 1.584.792 7.271,3.24 7.884,3.744 .432.36-3.168-.576-4.968-1.26-1.944-.756-5.185-2.448-5.977-2.988-.72-.611.973-.575 1.584-.432z" fill="#ff8000" fill-rule="evenodd"/>
 <path d="m90.486,139.425c.072.396 1.225,1.765 2.196,2.988 .936,1.044 3.204,4.032 3.204,3.672-.145-.504-3.061-4.859-3.888-5.976-.972-1.223-1.619-1.08-1.512-.684z" fill="#ff8000" fill-rule="evenodd"/>
 <path d="m89.263,125.997c-.036.181 3.42.828 5.796,1.116 2.232.108 7.632.324 7.74.108-.072-.324-5.328-1.404-7.561-1.584-2.267-.216-6.011.001-5.975.36z" fill="#ff8000" fill-rule="evenodd"/>
 <path d="m98.479,122.974c.576.036 3.816-.108 4.032-.288-.036-.216-2.556-.973-3.24-.864-.72-.073-1.405,1.007-.792,1.152z" fill="#ff8000" fill-rule="evenodd"/>
 <path d="m99.595,107.241c-.072.252-3.204,3.6-4.68,5.328-1.549,1.62-4.32,4.14-4.284,4.068 .036-.324 2.556-3.708 4.212-5.292 1.439-1.656 4.643-4.32 4.752-4.104z" fill="#ff8000" fill-rule="evenodd"/>
 <path d="m97.831,98.961c-.324.828-4.824,7.884-5.437,8.676-.647.54.648-3.133 1.656-4.608 .9-1.44 3.961-4.932 3.781-4.068z" fill="#ff8000" fill-rule="evenodd"/>
 <path d="m90.486,109.653c-.144,0-1.332,1.944-2.304,3.744-1.044,1.764-3.888,6.336-3.672,6.516 .107-.036 3.204-4.716 4.284-6.408 .973-1.836 1.765-3.816 1.692-3.852z" fill="#ff8000" fill-rule="evenodd"/>
 <path d="m87.282,102.165c-.216.937-3.023,6.624-3.96,8.856-1.188,2.016-2.34,4.788-2.195,3.888 .216-.972 2.34-7.271 3.456-9.324 .972-2.195 2.844-4.356 2.699-3.42z" fill="#ff8000" fill-rule="evenodd"/>
 <path d="m80.73,97.27c-.18.54-.324,5.724-.144,6.264 .036.432.828-2.484.863-3.456-.106-1.081-.539-3.457-.719-2.808z" fill="#ff8000" fill-rule="evenodd"/>
 <path d="m85.734,93.165c-.216.072-.647,2.664-.611,3.204 .071.468.504-.072.72-.504 .036-.612 0-2.808-.109-2.7z" fill="#ff8000" fill-rule="evenodd"/>
 <path d="m87.463,93.597c-.252.324-.756,4.464-.685,5.04 .036.36.721-1.08.937-1.98 .072-.864-.145-3.456-.252-3.06z" fill="#ff8000" fill-rule="evenodd"/>
 <path d="m74.755,114.873c-.685-1.439-1.765-5.256-2.269-5.903-.611-.792-1.439-.145-.828,1.367 .612,1.404 3.673,6.48 4.32,7.309 .504.611-.683-1.333-1.223-2.773z" fill="#ff8000" fill-rule="evenodd"/>
 <path d="m66.655,107.602c.396.756 4.176,6.264 4.68,6.66 .252.323-1.477-3.637-2.269-4.681-.827-1.26-2.879-2.7-2.411-1.979z" fill="#ff8000" fill-rule="evenodd"/>
 <path d="m61.542,115.125c.576.36 6.48,6.66 7.417,7.813 .575.899-1.548-.468-2.88-1.729-1.369-1.332-5.004-6.407-4.537-6.084z" fill="#ff8000" fill-rule="evenodd"/>
 <path d="m68.887,125.025c.107-.216-2.916-1.224-4.608-1.908-1.764-.828-5.472-2.592-5.58-2.376-.252.18 2.916,2.556 4.644,3.384 1.728.721 5.292.973 5.544.9z" fill="#ff8000" fill-rule="evenodd"/>
 <path d="m70.902,129.489c-.288.54-5.832,5.076-7.74,6.516-1.944,1.225-3.852,1.549-3.636,1.116 .18-.54 2.52-2.52 4.536-3.852 1.836-1.295 6.985-4.32 6.84-3.78z" fill="#ff8000" fill-rule="evenodd"/>
 <path d="m67.123,140.146c-.36,0-6.516,5.076-7.488,6.048-1.008.864.396.36 1.692-.54 1.259-1.153 6.012-5.581 5.796-5.508z" fill="#ff8000" fill-rule="evenodd"/>
 <path d="m70.759,139.029c-.36.108-3.024,3.888-3.96,6.048-.828,2.017-1.728,6.336-1.332,6.3 .288-.252 1.908-4.896 2.916-6.983 .935-2.233 2.519-5.365 2.376-5.365z" fill="#ff8000" fill-rule="evenodd"/>
 <path d="m82.891,85.641-5.04-.396c-5.94,3.06-10.908,6.732-15.336,11.016-4.572,4.32-8.388,9.288-11.016,14.508-2.628,5.004-4.104,10.584-4.572,15.912-.504,5.328.612,11.483 1.26,15.695 .54,3.96 1.152,5.977 1.98,8.568 .684,2.592 1.512,4.968 2.628,6.984 1.008,1.943 2.448,3.527 3.924,4.752-2.268-5.257-3.888-10.404-5.148-15.841-1.26-5.508-2.628-11.231-2.304-16.632 .252-5.436 1.368-10.368 4.032-15.624 2.592-5.472 7.74-11.592 11.556-15.875 3.744-4.212 7.668-7.272 10.8-9.324 2.988-2.195 5.4-3.491 7.236-3.743z" fill="#ff8000" fill-rule="evenodd" stroke="#000" stroke-miterlimit="10" stroke-width=".036"/>
</svg>
