<?xml version="1.0" encoding="UTF-8"?>
<svg viewBox="0 0 125 125" xmlns="http://www.w3.org/2000/svg">
 <defs>
  <linearGradient id="b" x1=".68023" x2=".53488" y1=".625" y2=".21591">
   <stop stop-opacity=".40476" offset="0"/>
   <stop stop-opacity="0" offset="1"/>
  </linearGradient>
  <radialGradient id="a" cx=".52907" cy=".13636" fx=".63372" fy=".15341">
   <stop stop-color="#fff" offset="0"/>
   <stop stop-color="#fff" stop-opacity="0" offset="1"/>
  </radialGradient>
 </defs>
 <path d="m86.788 5.2858c-17.406-1.0212-44.72 16.205-37.635 45.705-13.671 9.9389-39.487 47.547-42.771 60.603-1.8809 7.5658 5.322 8.1747 21.197 7.1359 17.649-4.1046 8.6915-17.81 12.563-17.269 7.165 1.0027 12.957-3.2212 13.021-13.756 11.148 2.3411 18.182-7.722 17.844-14.231 43.572 7.9064 55.322-35.141 37.109-57.556-6.0036-6.2574-12.065-10.292-21.329-10.632zm5.6227 20.418c4.951-0.34626 11.054 5.122 11.054 10.146 1.0388 6.4085-3.6791 12.277-9.6689 12.97-5.2972 0-11.107-3.791-11.799-10.2-0.34628-4.6772 4.4244-12.569 10.414-12.916z" fill="#ffc800" fill-rule="evenodd" stroke="#000" stroke-linecap="round" stroke-linejoin="round" stroke-width="3.75"/>
 <path d="m86.847 5.0849c-17.406-1.0212-44.72 16.205-37.635 45.705-13.671 9.9389-39.487 47.547-42.771 60.603-1.8809 7.5658 5.322 8.1747 21.197 7.1359 17.649-4.1046 8.6915-17.81 12.563-17.269 7.165 1.0027 12.957-3.2213 13.021-13.756 11.148 2.3411 18.182-7.722 17.844-14.231 43.572 7.9064 55.322-35.141 37.109-57.556-6.0036-6.2574-12.065-10.292-21.329-10.632zm5.6227 20.418c4.951-0.34626 11.054 5.122 11.054 10.146 1.0388 6.4085-3.6791 12.277-9.6689 12.97-5.2972 0-11.107-3.791-11.799-10.2-0.34628-4.6772 4.4244-12.569 10.414-12.916z" fill="url(#b)" fill-rule="evenodd"/>
 <path d="m80.219 7.5312c-17.324 3.2243-32.548 19.481-29.938 37.812 3.0917 5.8688-2.2658 9.174-6.0521 12.611-14.085 15.521-26.944 32.781-35.184 52.139-3.8279 6.726 5.2433 6.8611 9.5482 6.7741 7.3882 0.54305 19.165-1.1895 18.501-10.961-2.0082-7.6166 5.9172-5.9398 10.173-8.1338 5.4293-2.3385 1.1385-11.979 7.1048-12.189 8.5013 1.7806 14.644-6.3708 15.441-13.864 9.8528 0.23895 20.944 1.6443 29.78-4.2917 22.002-12.638 18.743-50.927-5.5872-58.975-4.3893-1.6171-9.2012-1.3455-13.786-0.92069zm12.625 16c11.946 0.20086 17.546 17.41 7.5355 24.239-9.4953 8.775-25.709-5.2429-18.536-16.006 2.0105-4.1523 6.0964-8.2268 11-8.2331z" fill="url(#a)" fill-rule="evenodd"/>
</svg>
