<?xml version="1.0" encoding="UTF-8"?>
<svg viewBox="0 0 493.98468 433.82925" xmlns="http://www.w3.org/2000/svg" xmlns:xlink="http://www.w3.org/1999/xlink">
 <defs>
  <linearGradient id="b">
   <stop stop-color="#404040" offset="0"/>
   <stop stop-color="#202020" offset=".125"/>
   <stop offset="1"/>
  </linearGradient>
  <radialGradient id="c" cx="849.1" cy="207.73" r="59.489" gradientTransform="matrix(.60373 .58742 -.72093 .75863 101.05 -231.55)" gradientUnits="userSpaceOnUse">
   <stop stop-color="#7a7a7a" offset="0"/>
   <stop stop-color="#4a4a4a" offset="0"/>
   <stop stop-color="#1a1a1a" stop-opacity="0" offset="1"/>
  </radialGradient>
  <radialGradient id="d" cx="886.07" cy="109.63" r="52.249" gradientTransform="matrix(-.4717 .28008 -.51245 -.86306 996.23 169.55)" gradientUnits="userSpaceOnUse">
   <stop stop-color="#0f0f0f" offset="0"/>
   <stop stop-opacity="0" offset="1"/>
  </radialGradient>
  <radialGradient id="f" cx="327.98" cy="175.01" r="170.35" gradientTransform="matrix(.68297 2.9465 -3.2576 .75505 707.16 -896.72)" gradientUnits="userSpaceOnUse">
   <stop stop-color="#ff9696" offset="0"/>
   <stop stop-color="#a20000" offset=".33333"/>
   <stop stop-color="#690000" offset="1"/>
  </radialGradient>
  <radialGradient id="a" cx="395.14" cy="215.99" r="144.92" gradientTransform="matrix(.5471 2.189 -2.4615 .6152 710.62 -781.86)" gradientUnits="userSpaceOnUse" xlink:href="#b"/>
  <radialGradient id="e" cx="380.4" cy="251.12" r="144.92" gradientTransform="matrix(.16232 .62513 -.67962 .17647 471.28 -104.74)" gradientUnits="userSpaceOnUse" xlink:href="#b"/>
 </defs>
 <g transform="matrix(1.0027 0 0 1.0027 -153.05 -81.522)">
  <path d="m458.6 453.58c-1.4599 5.5614 1.0494 11.883 3.3647 17.212s2.7962-0.58703 5.8962 4.1032 3.6834 11.914 6.504 14.658 2.3441-5.795 4.7784-3.6833 4.0575 7.313 4.9587 12.13-2.782 7.1743-1.3539 7.1377 3.2443-5.223 7.0663-7.2841 8.1448 0.61126 8.2216-0.96031-4.6078-1.5452-7.9142-5.326-4.5094-5.3851-5.3112-9.7969 3.9317-4.9126 2.1041-7.8504-4.6368 2.4428-9.4144-3.9006-4.9709-17.363-9.696-21.473-7.7444-0.5278-9.2043 5.0336z" fill="#1a1a1a" fill-rule="evenodd" stroke="#000"/>
  <path d="m550.75 335.13c3.7056-4.3965 10.319-5.9862 16.009-7.1627s1.1306 2.624 6.7503 2.4569 11.861-3.8508 15.729-3.1252-3.3872 5.2539-0.25897 6.0277 8.3152-0.89492 12.772-2.9325 4.2626-6.4063 5.0552-5.2178-2.4012 5.6604-1.8848 9.9719 5.1906 6.3062 3.9502 7.2742-3.9171-2.8769-8.912-3.4023-6.9994-0.58489-11.068 1.3006-1.7516 6.0435-5.2058 6.2414-0.67364-5.1974-8.6109-5.4496-17.057 5.9365-23.138 4.4408-4.8918-6.027-1.1862-10.424z" fill="#1a1a1a" fill-rule="evenodd" stroke="#000"/>
  <path d="m411.54 441.69c-3.0731 4.8598-2.5927 11.644-1.997 17.424s2.8428 0.28589 4.3796 5.694-0.09134 12.47 1.7677 15.938 3.9866-4.815 5.6684-2.0661 1.6564 8.1975 1.059 13.061-4.821 5.9973-3.4487 6.3943 4.6717-3.9976 8.938-4.8066 7.5787 3.0453 8.1272 1.5705-3.9249-2.8661-5.9334-7.4696-2.6701-6.4965-2.1005-10.944 5.233-3.4939 4.3792-6.8468-5.1584 0.92644-7.7944-6.5646 0.51159-18.053-2.7497-23.4-7.2223-2.8447-10.295 2.0151z" fill="#1a1a1a" fill-rule="evenodd" stroke="#000"/>
  <path d="m522.73 287.66c1.3499-5.5892 6.5554-9.9671 11.119-13.562s2.1841 1.842 7.1366-0.81919 8.8894-8.7461 12.673-9.8255-0.68185 6.2138 2.4624 5.5079 7.0384-4.517 10.115-8.3317 0.94989-7.636 2.1901-6.927 0.3819 6.1367 2.7708 9.7628 7.4619 3.3213 6.7848 4.7417-4.7899-0.8228-9.493 0.93968-6.5228 2.6052-9.3195 6.1102 1.1342 6.1891-1.8673 7.91-2.9256-4.3483-10.139-1.0264-12.605 12.934-18.714 14.314-7.0698-3.2051-5.7199-8.7943z" fill="#1a1a1a" fill-rule="evenodd" stroke="#000"/>
  <path d="m374.69 138.79c3.6382-4.4525 3.9817-11.245 4.0893-17.055s-2.7874-0.62757-3.659-6.1818 1.5986-12.368 0.17262-16.035-4.5396 4.2976-5.8767 1.3655-0.65302-8.3376 0.5282-13.094 5.5108-5.3704 4.1966-5.9303-5.1208 3.4033-9.4536 3.6905-7.1549-3.9394-7.8776-2.5418 3.5496 3.3197 4.9866 8.1323 1.865 6.7717 0.76163 11.118-5.6171 2.8355-5.175 6.267 5.2326-0.29586 6.9434 7.459-2.6909 17.859-0.10006 23.56 6.8253 3.6972 10.464-0.7553z" fill="#1a1a1a" fill-rule="evenodd" stroke="#000"/>
  <path d="m210.97 347.23c-3.9545 4.1741-10.649 5.3774-16.397 6.2217s-0.9764-2.6851-6.5963-2.8444-12.065 3.156-15.883 2.2073 3.6864-5.0485 0.60827-6.0025-8.3531 0.41094-12.921 2.1865-4.6272 6.1481-5.3494 4.9156 2.7256-5.5115 2.4602-9.8457-4.816-6.5968-3.5214-7.4912 3.7435 3.0993 8.6996 3.9137 6.9537 0.99005 11.125-0.65621 2.0993-5.9317 5.5591-5.9288 0.37093 5.2278 8.2802 5.9401 17.373-4.9368 23.357-3.0908 4.5339 6.3006 0.5794 10.475z" fill="#1a1a1a" fill-rule="evenodd" stroke="#000"/>
  <g transform="matrix(-.13049 -.99145 .99145 -.13049 162.04 676.9)" fill="url(#f)" fill-rule="evenodd" stroke="#000">
   <path d="m231.01 285.39c-28.448-20.959-24.723-37.317-24.723-37.317s16.972-81.597 61.886-129.9c39.965-42.98 77.66-57.822 130.92-57.486 60.843 0.3843 111.46 29.749 109.98 30.383 1.2633 3.3688-35.188 58.904-85.025 118.02-52.686 62.497-119.12 126.66-119.37 126.14 0 0-15.067-5.6445-27.391-17.919-14.763-14.703-31.987-21.4-46.276-31.928z"/>
   <path d="m306.56 336.2s13.046 24.378 29.703 41.972c23.537 24.861 25.887 30.04 32.189 30.392 28.254 1.5991 59.639-11.932 89.781-31.036 45.011-28.528 77.554-86.24 85.694-146.23 4.2474-31.3 1.2593-58.578-7.9423-88.174-10.336-33.246-25.28-49.721-25.28-49.721s-32.361 54.241-83.696 114.94-120.45 127.85-120.45 127.85z"/>
  </g>
  <path d="m502.54 446.39c6.1593 6.7241 10 10.488 11.839 13.009s8.3998 7.1827 11.427 7.2865 9.7195 3.2416 14.612 0.33733 13.819-7.5954 16.749-8.2322 9.2274 1.7994 16.853-1.7158c3.8906-1.7935 16.948-16.929 17.482-23.649 0.77141-9.7026-4.5272-16.73-1.6963-18.614 3.4832-2.3171 6.4511-10.142 5.5738-16.808s-2.6436-10.82-8.3285-15.848-9.3476-6.531-14.455-12.646c-3.5014-4.1922-16.275-5.8792-18.066-3.8831-6.1328 6.835-5.8245 7.8793-9.3392 13.616s-9.4783 19.582-13.337 24.611-13.786 16.387-19.269 19.615c-7.6922 4.5286-11.349 11.701-11.518 14.234s1.1304 7.9788 1.4748 8.6869z" fill="#1a1a1a" fill-rule="evenodd" stroke="#000"/>
  <path d="m512.24 509.08c-0.83019 5.5588 1.319 4.3137 3.643 4.2034s3.9414 0.35993 5.653-4.6447-2.4926-7.9894 1.1934-15.374 5.1116-6.2832 13.551-14.164 20.079-16.072 20.205-17.359-10.381 4.8835-19.701 12.21-11.444 8.3142-17.58 17.096-6.1336 12.473-6.9638 18.032z" fill="#1a1a1a" fill-rule="evenodd" stroke="#000"/>
  <path d="m591.61 418.41c0.60611 1.2701 5.938-2.7914 12.951-8.5403s6.3691-10.499 15.102-14.455 13.7 1.5963 19.828-1.3702 5.7858-7.9236 4.6847-10.496-1.6478-1.7529-9.0888 0.20693-12.438 2.374-20.675 7.6325-6.5746 6.6459-12.275 13.402-11.133 12.351-10.527 13.621z" fill="#1a1a1a" fill-rule="evenodd" stroke="#000"/>
  <path d="m425.42 381.4c1.6505-2.9519 5.6221-10.369 6.5485-11.991 1.7938-3.141 5.1058-8.5468 6.4757-9.7906 2.2564-2.0486 7.0817-10.032 7.2891-12.388s-1.1524-7.0992-3.3323-6.8661c-4.7859 0.51186-11.103 3.8114-12.784 4.809s-5.5404 4.6735-8.1639 9.0769c-1.3961 2.3433-2.6241 7.5921-3.2399 10.779s-1.4256 10.799-0.20713 12.191 6.1198 6.4941 7.4138 4.1797z" fill="#e6e6e6" fill-rule="evenodd" stroke="#eaeaea"/>
  <g transform="matrix(-.13049 -.99145 .99145 -.13049 162.04 676.9)" fill="url(#a)">
   <g fill="url(#a)" fill-rule="evenodd" stroke="#000">
    <path d="m250.8 175.43c-0.54433 7.6206 1.4515 13.79 7.9834 13.064s17.6-8.3463 18.144-15.967-9.435-15.241-15.967-14.515-9.6164 9.7979-10.161 17.418z" fill="url(#a)"/>
    <path d="m339.34 175.43c-4.6586 7.8205 6.7852 15.614 12.04 19.284 8.9304 6.2366 19.175 7.6042 25.699 2.4889 4.3275-3.3926 8.0474-6.5276 8.7092-16.693 0.41416-6.361-0.38397-19.897-11.612-23.95-3.4133-1.2321-22.984-1.0278-34.837 18.87z" fill="url(#e)"/>
    <path d="m360.75 76.71c7.9049 10.297 22.892 16.107 38.742 10.068 7.6238-2.9047 11.255-3.5574 13.719-8.2909s-1.6216-7.9782-5.9467-10.481c-6.2817-3.6351-23.551-2.9231-35.43 0.45514-7.0988 2.0188-13.464 5.1496-11.085 8.2483z" fill="url(#a)"/>
    <path d="m528.73 184.87c8.6928 6.781 13.811 19.934 9.1281 34.109-2.2524 6.818-2.7197 10.05-6.592 12.336s-6.6437-1.2639-8.8053-5.042c-3.1394-5.4872-2.8994-20.804-0.34089-31.403 1.529-6.3336 3.9942-12.041 6.6101-10z" fill="url(#a)" stroke-width=".85711"/>
    <path d="m474.41 259.69c1.6766-8.6662-10.791-12.628-16.545-14.532-9.7773-3.236-19.204-1.5375-23.357 5.1417-2.7546 4.4298-5.0548 8.4422-2.4937 18.139 1.6027 6.068 6.4892 18.493 17.611 19.019 3.3809 0.16004 20.519-5.7187 24.785-27.768z" fill="url(#a)" stroke-width=".95481"/>
    <path d="m457.95 357.53c4.3421-5.6796 6.0795-11.635 0.938-14.703s-17.162-3.2512-21.504 2.4284-1.0061 17.221 4.1354 20.29 12.088-2.3355 16.431-8.015z" fill="url(#a)" stroke-width=".92799"/>
    <path d="m297.04 309.45c0.59591 3.7088 3.4351 11.275 1.8955 14.354s-4.8596 1.7175-4.3464 3.2571 8.5149 4.8596 9.7979 5.3728 6.0325-5.6766 7.3155-6.703 9.1544-8.3361 16.391-15.668c7.2332-7.3288 11.997-12.558 11.997-12.558s-4.2225-2.7413-7.0068-4.4094c-4.4408-2.6604-7.399-4.7967-9.4518-5.8231s-4.928-3.5434-8.8502-6.1898c-4.3464-2.9327-8.7558-5.4672-13.375-1.6182s-3.0477 11.882-3.0477 16.757-2.1491 8.0639-1.3194 13.228z"/>
    <path d="m332.41 344.23c-3.7069-0.60754-10.174-4.015-13.258-2.4851s-2.2774 5.6712-3.8154 5.1532-5.3776-8.8024-5.8867-10.087 5.6955-6.0147 6.7259-7.2944 7.8201-8.5835 15.175-15.797 12.323-11.958 12.323-11.958 3.5451 3.6864 5.2044 6.4759c2.6464 4.4491 4.7735 7.414 5.7934 9.47s3.5279 4.9391 6.162 8.8695c2.919 4.3556 5.4397 8.7729 1.5763 13.38s-11.892 3.0104-16.767 2.9952-8.0706 2.1238-13.232 1.2779z"/>
   </g>
  </g>
  <path d="m497.1 286.02c-2.3635 3.7175-8.5656 10.178-9.6494 11.7-2.5598 3.5937-6.5344 6.7066-8.6871 8.4566-2.3648 1.9224-8.4129 8.9449-10.68 9.6195s-7.1863 0.29067-7.3938-1.8919c-0.45562-4.7915 1.5138-11.641 2.1552-13.487s3.471-6.3632 7.2608-9.8143c2.0168-1.8365 6.9139-4.0895 9.9131-5.3302s10.296-3.5565 11.904-2.6411 6.6005 1.1511 5.178 3.3887z" fill="#e6e6e6" fill-rule="evenodd" stroke="#eaeaea"/>
  <path d="m571.47 420.33c2.6892-3.2058 9.4625-10.838 7.5309-13.695s-7.3372-10.442-10.637-7.9334-5.3314 8.7387-3.9496 15.298 4.3662 9.5365 7.0554 6.3307z" fill="#e6e6e6" fill-rule="evenodd" stroke="#000"/>
  <path d="m577.89 443.57c5.9867-7.3874 4.2812-20.755 3.396-19.602s-4.8769 11.802-8.1404 15.318c-4.303 4.6356-11.711 9.9392-13.072 11.415s11.91 0.15794 17.817-7.1305z" fill="#e6e6e6" fill-rule="evenodd" stroke="#000"/>
  <path d="m557.1 441.54c-2.8557 3.0584-9.6095 10.708-12.68 9.1373s-11.255-6.0158-9.1656-9.5953 8.0271-6.3525 14.705-5.7769 9.9959 3.1766 7.1401 6.235z" fill="#e6e6e6" fill-rule="evenodd" stroke="#000"/>
  <path d="m457.43 330.43c-5.2958 16.994-17.511 33.493-24.358 44.884-14.595 44.777-26.56 42.978-28.107 61.817-0.86493 10.533 14.397 23.928 19.63 25.905 8.3595 3.1585 40.116 0.90814 58.837-3.8473 17.078-4.3381 13.31-10.969 14.997-18.908 1.3602-6.4013 2.4943-10.954 9.5581-16.548 11.211-8.8783 17.979-14.062 24.924-25.706 10.139-16.998 9.5332-20.509 18.118-32.231s18.517-10.632 17.5-16.777c-2.4669-14.902-4.5399-28.991-12.864-49.364-0.78438-10.456-1.7377-18.823-8.0645-24.016-4.7352-3.8867-18.853-9.5531-26.248-4.1279-21.594 15.842-18.246 13.936-33.726 31.825-8.6205 9.962-16.384 15.603-30.197 27.094z" fill="#1a1a1a" fill-rule="evenodd" stroke="#000"/>
  <path d="m532.85 393.18c9.6102-16.112 7.9844-17.686 16.121-28.798s17.552-10.078 16.588-15.902c-2.3383-14.125-4.3031-27.479-12.193-46.79-0.74348-9.9105-1.6471-17.841-7.644-22.764-4.4882-3.684-17.87-9.0549-24.879-3.9127-20.468 15.016-17.294 13.209-31.967 30.165-8.171 9.4426-14.653 14.351-27.746 25.243" fill="url(#d)" fill-rule="evenodd"/>
  <path d="m458.17 334.46c-4.7504 15.882-15.707 31.301-21.85 41.947-13.092 41.847-23.825 40.166-25.212 57.772-0.77586 9.8434 12.914 22.362 17.609 24.21 7.4987 2.9518 35.985 0.84873 52.778-3.5956 15.319-4.0542 11.939-10.251 13.452-17.671 1.2201-5.9825 2.2374-10.237 8.5739-15.465 10.057-8.2974 16.127-13.142 22.358-24.024" fill="url(#c)" fill-rule="evenodd"/>
  <path d="m445.51 450.59c2.5851 3.0978 7.8127 6.6255 18.445 7.3159s19.995-4.8218 27.238-5.9722c4.4765-0.71455 3.3474-8.829 5.0666-15.995s5.4597-8.1726 3.6098-10.909-11.085 1.0536-15.496-1.1162-7.7032-6.9868-13.048-4.9256c-7.4055 2.8561-8.2525 6.8122-8.0029 10.314 0.27601 3.8733-2.8266 9.4616-8.1151 11.074s-12.283 7.1155-9.6974 10.213z" fill="#ececec" fill-rule="evenodd" stroke="#ccc"/>
  <path d="m542.34 358.27c0.14851-3.4214 0.47266-7.2405-1.8209-10.096-1.7446-2.3499-4.307-4.1923-5.1756-7.1055-1.2764-2.2687-3.4438-6.1513-2.292-8.8846 0.99049-3.2472 3.1085-5.0426 6.2396-6.5836 2.9182-1.6915 5.8512-3.8722 6.9345-7.2209 1.0563-2.9102-0.24388-8.0424 0.63814-10.973 1.33-2.49 4.9427 1.4382 6.1148 3.6425 3.0449 5.0468 4.6625 12.909 5.649 18.637 0.7954 5.4806 1.8533 7.9234 3.1014 13.323 0.21038 2.3434 1.5226 5.281-0.26706 7.2819-2.4524 2.6165-6.6764 1.7498-9.1722 4.3137-2.5763 2.348-4.2576 5.4661-6.5942 8.0228-2.6147 0.95898-2.7932-2.7486-3.3554-4.357z" fill="#ccc" fill-rule="evenodd" stroke="#000"/>
 </g>
</svg>
