<?xml version="1.0" encoding="UTF-8"?>
<svg viewBox="0 0 719.94464 667.4743" xmlns="http://www.w3.org/2000/svg" xmlns:xlink="http://www.w3.org/1999/xlink">
 <defs>
  <filter id="j">
   <feGaussianBlur stdDeviation="2.82097"/>
  </filter>
  <linearGradient id="e" x1="612.5" x2="670.52" y1="441.74" y2="449.49" gradientUnits="userSpaceOnUse">
   <stop stop-color="#ccc" offset="0"/>
   <stop stop-opacity=".20833" offset="1"/>
  </linearGradient>
  <linearGradient id="g" x1="408.07" x2="397.12" y1="799.76" y2="854.71" gradientUnits="userSpaceOnUse">
   <stop stop-color="#4d4d4d" stop-opacity=".93671" offset="0"/>
   <stop stop-color="#4d4d4d" stop-opacity="0" offset="1"/>
  </linearGradient>
  <linearGradient id="a">
   <stop stop-opacity=".40625" offset="0"/>
   <stop stop-color="#808080" offset=".51999"/>
   <stop stop-color="#fff" offset=".7847"/>
   <stop stop-opacity=".5625" offset="1"/>
  </linearGradient>
  <linearGradient id="b">
   <stop stop-color="#00b5fb" offset="0"/>
   <stop stop-color="#000075" offset="1"/>
  </linearGradient>
  <linearGradient id="h" x1="422.03" x2="415.12" y1="714.54" y2="803.63" gradientUnits="userSpaceOnUse" xlink:href="#a"/>
  <linearGradient id="f" x1="211.25" x2="527.6" gradientUnits="userSpaceOnUse" xlink:href="#a"/>
  <linearGradient id="i" x2="0" y1="725.44" y2="679.38" gradientUnits="userSpaceOnUse" xlink:href="#a"/>
  <radialGradient id="c" cx="714.63" cy="345.9" r="319.13" gradientTransform="matrix(1.19 -.27009 .27381 1.2064 -593.27 207.02)" gradientUnits="userSpaceOnUse" xlink:href="#b"/>
  <radialGradient id="d" cx="395.4" cy="586.49" r="3.8388" gradientUnits="userSpaceOnUse" xlink:href="#b"/>
 </defs>
 <g transform="translate(-8.5991 -158.63)">
  <path d="m103.52 211.86 592.19-52.605-83.161 547.44-602.57-21.785c-1.2611-1.401-2.0469-3.3566-0.58739-7.9317l85.832-455.78c0.83533-6.6978 4.2893-8.5324 8.2988-9.3354z" fill="#ccc" opacity=".75155"/>
  <path d="m9.9472 684.9 602.32 21.822c0.17674 11.799 16.061 14.731 31.069 18.157l-598.52-27.093c-16.703-1.3442-33.343-6.7722-34.86-12.886z" fill="#4d4d4d" opacity=".37267"/>
  <path d="m695.84 159.17c3.1865-0.71842 6.3107-0.87622 9.2656 0.48907l18.976 11.146c3.1435 2.7788 4.3405 6.0068 4.4649 9.4822l-81.676 538.66c-0.6717 3.0363-1.7952 5.1761-4.0729 5.9095-9.319-2.8588-30.663-4.3598-30.292-18.126l83.334-547.56z" fill="url(#e)"/>
  <path d="m108.48 237.64c-0.0466-4.1942 2.4251-5.8701 6.9313-5.5114l549.24-45.877c4.0087-0.12566 4.7167 1.9992 4.1937 4.9633l-73.319 479.58c0.30208 3.6239-0.96421 5.6794-4.386 5.5793l-555.06-18.59c-5.2112-0.28665-5.6242-1.1803-5.2257-4.8527l77.626-415.29z" filter="url(#j)" opacity=".44099"/>
  <path d="m110.48 237.64c-0.0466-4.1942 2.4251-5.8701 6.9313-5.5114l549.24-45.877c4.0087-0.12566 4.7167 1.9992 4.1937 4.9633l-73.319 479.58c-0.47418 3.4686-1.2747 5.6017-4.386 5.5793l-555.06-18.59c-5.2112-0.28665-5.6242-1.1803-5.2257-4.8527l77.626-415.29z" fill="url(#c)" opacity=".78261"/>
  <path d="m361.26 711.43 148.67 7.4072 15.028 58.353c0.46663 16.763-1.6933 30.9-16.671 32.218l-156.67-11.852c7.3821-3.8478 12.566-9.6493 16.009-19.966 1.032-4.2786 1.2599-8.5573 1.6814-12.836l-8.0472-53.323z" fill="url(#h)"/>
  <path d="m214.68 805.68 137.34-8.3826 159.26 11.708-78.966 9.7038c-18.69 0.89026-37.892 1.6523-64.245 0.62674l-153.63-10.242c-1.8014-0.74654-6.371-0.91752 0.24386-3.414z" fill="url(#g)"/>
  <path d="m211.25 808.82 146.24 9.8266c22.307 1.3729 44.13 1.7751 65.018 0.30937l82.662-9.3602c35.913-1.8752 11.096-56.432 4.7105-91.137l2.6506 0.35896c5.0712 24.793 15.309 46.354 15.061 71.928-0.78012 10.244-5.4339 20.343-21.862 23.942-129.46 23.589-195.68 3.5986-294.48 1.6004v-7.4686z" fill="url(#f)"/>
  <path d="m354.99 220.26 304.16-21.541-74.963 470.46-182.67-6.0315-46.529-442.89z" fill="#fff" fill-opacity=".4557"/>
  <path d="m101.66 315.91 117.18 229.2-179.22 101.67 62.039-330.87z" fill="#fff" fill-opacity=".4557" opacity=".53416"/>
  <path d="m113.73 232.33 553.18-45.667c-142.13 295.92-507.35 197.53-553.18 45.667z" fill="#fff" fill-opacity=".4557" opacity=".24845"/>
  <path d="m542.27 683.52 33.146 0.93151-0.69863 12.886-33.534-1.242 1.0868-12.575z" fill="#333" opacity=".44099"/>
  <path d="m542.74 683.98 32.137 0.77626-0.93151 12.187-32.059-1.4749 0.85388-11.489z" fill="url(#i)" opacity=".44099"/>
  <path transform="translate(-362.76 85.405)" d="m399.24 586.49c0.00108 2.1209-1.718 3.8408-3.8388 3.8408s-3.8399-1.7199-3.8388-3.8408 1.718-3.8408 3.8388-3.8408 3.8399 1.7199 3.8388 3.8408z" fill="url(#d)" opacity=".44099"/>
 </g>
</svg>
