<?xml version="1.0" encoding="UTF-8"?>
<svg enable-background="new 0 0 368.028 411.487" viewBox="0 0 368.028 411.487" xmlns="http://www.w3.org/2000/svg">
 <path d="m192.14 0.703c-29.699-3.204-57.671 4.212-85.175 22.644-27.576 18.54-60.732 58.788-78.66 87.3-17.892 28.44-25.668 55.8-28.044 81.936-2.304 25.992 9.216 46.908 14.004 73.296 4.608 26.496 0.864 62.893 14.04 84.061 13.212 20.807 33.192 30.852 64.656 40.967 31.608 10.188 83.088 24.949 122.9 19.404 39.709-5.939 76.645-23.58 113.15-53.893 18.287-15.191 29.879-34.811 35.604-60.371 5.508-25.705 4.32-60.408-2.16-91.62-6.66-31.176-23.363-67.716-36.648-93.78-13.211-26.028-19.727-43.092-42.047-61.452-22.573-18.504-52.561-34.344-91.622-48.492z" fill="#abd148" fill-rule="evenodd"/>
 <path d="m36.724,124.219c-.72-21.24 10.152-25.992 19.404-37.728 9.288-11.88 35.352-39.6 35.568-32.328-.144,7.632-35.136,55.548-35.568,76.536-.288,20.808 32.508,33.516 33.408,47.412 .612,13.716-20.232,43.417-29.088,34.524-8.964-9.36-22.896-67.068-23.724-88.416z" fill="#d1eca9" fill-rule="evenodd"/>
 <path d="m39.064,348.86c-.252,8.027 8.1,16.02 25.884,24.803 17.82,8.676 55.188,21.025 79.74,26.928 24.372,5.797 46.297,8.461 65.771,7.561 19.369-1.115 35.568-5.688 49.572-14.004-22.787-6.553-43.703-14.725-63.576-24.805-20.016-10.295-42.083-36.539-54.971-35.566-12.816,1.188-14.544,47.23-21.564,42.047-7.128-5.652-12.708-54.936-20.484-74.375-7.884-19.333-16.236-40.249-25.884-40.97-9.612-.648-25.488,21.709-31.248,36.648-5.868,14.832-6.768,31.752-3.24,51.733z" fill="#a2c644" fill-rule="evenodd"/>
 <path d="m100.44 220.27c-4.932-23.221-6.516-61.849-6.12-87.553 0.36-25.74 2.988-48.024 8.424-65.304 5.4-17.316 11.772-28.152 23.832-37.656 11.916-9.54 32.148-17.28 47.628-19.188 15.48-1.944 26.712-0.36 44.533 7.668 17.855 7.956 43.199 20.772 61.451 39.96 18.037 19.26 33.443 48.636 46.08 74.52 12.42 25.812 23.328 54.216 28.439 79.092 4.934 24.695 3.602 47.484 1.549 68.363-2.053 20.736-4.355 41.076-13.859 55.332-9.865 14.113-27 24.156-43.777 29.16-16.883 4.789-35.568 7.525-56.051 0-20.592-7.668-46.045-29.52-66.061-45.287-20.016-15.984-40.284-32.473-53.028-49.176-12.708-16.667-18.252-26.927-23.04-49.931z" fill="#e7f2d6" fill-rule="evenodd"/>
 <path d="m210.28 174.19c-27.36-21.168-48.24-38.052-63.756-51.48-15.444-13.428-23.616-18.036-28.404-28.404-4.968-10.584-7.02-23.472-0.756-33.804 6.336-10.44 27.18-33.084 38.376-27.648 11.052 5.724 19.728 40.104 27.684 60.66 7.848 20.376 14.111 40.284 19.188 60.696l7.668 19.98z" fill="#abd148" fill-rule="evenodd"/>
 <path d="m203.368,133.471c-3.131-13.824-7.344-28.656-13.031-45.324-5.868-16.704-21.528-42.408-20.736-53.784 .864-11.34 17.713-14.652 26.1-13.824s16.129,6.84 23.797,18.468c-2.557-.396-2.557-.396 0,0 2.52.324 12.131-3.168 15.371,2.304 3.096,5.58 5.4,9.288 3.852,30.708-1.619,21.528-5.832,53.136-13.066,96.768-1.621-1.188-3.025-1.692-4.609-1.512-1.619.144-3.023.864-4.607,2.304-4.358-12.024-8.714-24.048-13.071-36.108z" fill="#abd148" fill-rule="evenodd"/>
 <path d="m235.66 166.48c-0.072-11.592 8.424-46.98 12.275-64.512 3.744-17.604 4.896-36.144 9.973-39.924 5.004-3.708 12.816 9.576 19.979 17.64 7.094 8.028 18.828 19.692 22.285 29.988 3.313 10.224 6.156 20.412-2.305 30.708-8.748 10.188-38.699 25.452-49.176 29.952-10.477 4.32-12.924 7.524-13.031-3.852z" fill="#abd148" fill-rule="evenodd"/>
 <path d="m243.33 183.4c3.023-3.888 15.012-5.58 26.1-10.764 10.98-5.364 30.707-18.432 39.203-20.736 8.316-2.376 6.014-0.54 10.729 6.912 4.717 7.524 13.789 27.396 16.92 37.656 2.988 10.26 6.625 20.629 0.756 23.039-6.156 1.98-22.607-5.939-36.863-10.008-14.436-3.995-38.809-9.575-48.385-13.823-9.578-4.428-11.376-8.424-8.46-12.276z" fill="#abd148" fill-rule="evenodd"/>
 <path d="m241.78,197.227c5.688-.252 30.564,14.111 45.324,19.188 14.725,4.932 33.121,5.652 42.264,10.764 9,5.221 9.324,12.205 11.52,19.98 2.018,7.633 1.945,17.893.758,25.344-1.369,7.273-2.197,18.648-8.461,18.434-6.408-.361-19.691-11.232-29.16-19.98-9.576-8.82-19.225-23.365-27.684-32.256-8.604-8.893-17.209-13.861-23.041-20.736-5.76-7.058-17.245-20.45-11.52-20.738z" fill="#abd148" fill-rule="evenodd"/>
 <path d="m198.76,178.039c-6.588-7.884-33.732-26.136-48.384-37.656-14.76-11.7-31.428-30.672-39.168-31.5-7.668-.684-6.912,16.704-6.912,26.892-.144,10.08-.828,25.668 6.156,33.012 7.056,7.092 22.068,6.912 35.316,10.008 13.176,3.024 33.948,8.532 43.02,8.46 8.927-.108 16.236-1.512 9.972-9.216z" fill="#abd148" fill-rule="evenodd"/>
 <path d="m211.83 202.59c-13.32-2.7-27.648-4.464-43.776-5.364-16.164-0.9-39.564-9.036-52.236 0s-1.404 25.129 1.548 36.107 6.696 17.172 16.128 29.197c9.468 12.023 30.312 36.971 39.924 42.227 9.54 5.076 11.484-0.971 16.92-11.52 5.4-10.656 11.699-36.18 15.336-51.443s5.615-28.08 6.156-39.204z" fill="#abd148" fill-rule="evenodd"/>
 <path d="m217.19 232.54c-2.447 9.287-5.939 23.508-9.215 37.656-3.277 14.111-10.117 35.172-9.973 46.08 0.072 10.584 3.203 11.664 10.764 17.676 7.596 6.119 23.508 15.551 34.561 18.432 10.98 2.627 25.523 1.08 30.707-2.305 4.896-3.455 4.32-4.139-0.756-18.432-5.256-14.615-22.645-47.699-29.951-67.607-7.344-19.98-10.332-42.336-13.824-50.688-3.564-8.209-5.76-1.729-7.705 1.547-2.089 3.097-2.376 8.462-4.608 17.641z" fill="#abd148" fill-rule="evenodd"/>
 <path d="m240.268,221.815c2.484,9.217 5.221,22.465 11.52,39.168 6.121,16.668 17.209,46.404 25.344,59.904 8.029,13.428 15.014,21.061 23.041,19.98 7.92-1.404 21.816-20.016 24.588-27.648 2.664-7.633-1.08-8.244-8.461-17.676-7.559-9.613-28.619-30.168-36.107-39.168-7.416-9.037-2.916-7.92-8.459-14.58-5.832-6.877-19.514-19.369-25.346-25.381-5.832-5.975-8.207-10.872-9.215-9.971-.936.829.468,6.227 3.095,15.372z" fill="#abd148" fill-rule="evenodd"/>
 <path d="m259.456,255.583c-1.439.072 4.5,17.461 9.217,26.893 4.607,9.287 16.955,28.297 18.432,28.439 1.297-.143-5.363-19.152-9.973-28.439-4.68-9.433-16.272-26.821-17.676-26.893z" fill="#e7f2d6" fill-rule="evenodd"/>
 <path d="m284.04 274.05c1.621-0.359 20.592 24.48 23.041 29.951 2.195 5.438-5.365 7.129-9.217 2.305-3.886-5.039-15.443-31.896-13.824-32.256z" fill="#e7f2d6" fill-rule="evenodd"/>
 <path d="m269.428,221.024c-.9-.072 7.74,5.256 12.313,10.008 4.5,4.572 13.572,17.496 14.58,17.676 .863-.037-4.752-12.205-9.217-16.92-4.572-4.789-16.812-10.549-17.676-10.764z" fill="#e7f2d6" fill-rule="evenodd"/>
 <path d="m291.711,224.875c2.34.359 28.441,11.771 31.5,13.824 2.916,1.764-8.639.072-13.824-2.305-5.326-2.339-20.015-11.915-17.676-11.519z" fill="#e7f2d6" fill-rule="evenodd"/>
 <path d="m270.977,177.247c1.764-1.224.287.54 7.668-1.512 7.486-2.268 33.91-11.448 36.898-11.556 2.701-.108-11.879,7.416-19.979,10.764-8.316,3.168-24.229,8.064-28.441,8.46-4.068.36 1.801-4.932 3.854-6.156z" fill="#e7f2d6" fill-rule="evenodd"/>
 <path d="m293.26,195.679c1.512.792 9.756,2.196 16.127,3.096 6.338.864 22.896,3.204 21.492,2.304-1.727-1.008-24.371-6.768-30.707-7.704-6.336-.972-8.461,1.368-6.912,2.304z" fill="#e7f2d6" fill-rule="evenodd"/>
 <path d="m248.692,155.755c.648.828 14.184-7.668 22.285-13.824 8.063-6.228 25.775-22.14 25.344-23.04-.793-.828-21.168,11.304-29.197,17.64-8.1,6.048-19.008,18.288-18.432,19.224z" fill="#e7f2d6" fill-rule="evenodd"/>
 <path d="m269.43 118.1c2.305-1.26 12.24-12.096 12.313-13.068-0.289-1.008-10.945 4.68-13.068 6.948-2.089 2.196-1.512 7.2 0.755 6.12z" fill="#e7f2d6" fill-rule="evenodd"/>
 <path d="m225.653,63.559c.576.756.936,21.672.791,31.5-.145,9.648-.936,26.64-1.547,26.136-.721-.828-2.412-20.268-2.305-29.988 .073-9.792 2.34-28.224 3.061-27.648z" fill="#e7f2d6" fill-rule="evenodd"/>
 <path d="m194.94 42.067c1.439 3.42 8.281 40.248 8.424 44.532-0.143 4.032-6.984-12.564-8.424-19.944-1.44-7.632-1.44-27.864 0-24.588z" fill="#e7f2d6" fill-rule="evenodd"/>
 <path d="m203.368,98.911c-.359.216 1.801,10.548 3.852,19.188 1.873,8.64 7.201,32.4 7.668,32.256 .289-.36-3.49-25.128-5.363-33.768-2.089-8.712-5.761-17.892-6.157-17.676z" fill="#e7f2d6" fill-rule="evenodd"/>
 <path d="m170.36 84.295c2.088 3.672 10.584 30.528 13.824 40.716 2.988 10.008 6.66 22.716 4.607 19.224-2.195-3.78-13.751-30.636-16.883-40.716-3.132-10.116-3.6-22.824-1.548-19.224z" fill="#e7f2d6" fill-rule="evenodd"/>
 <path d="m134.25 88.147c1.368 2.412 16.488 19.368 18.432 20.736 1.692 1.044-4.608-10.368-7.668-13.824-3.168-3.528-11.988-9.216-10.764-6.912z" fill="#e7f2d6" fill-rule="evenodd"/>
 <path d="m138.1,59.743c-.216.72 6.228,10.692 7.668,12.276 1.368,1.224 1.944-1.728.756-3.852-1.44-2.196-8.28-9.036-8.424-8.424z" fill="#e7f2d6" fill-rule="evenodd"/>
 <path d="m145.012,55.891c.504,1.548 11.34,16.812 13.068,18.432 1.584,1.44-.936-6.12-3.096-9.216-2.304-3.096-10.44-10.8-9.972-9.216z" fill="#e7f2d6" fill-rule="evenodd"/>
 <path d="m168.052,163.423c-6.48-3.024-21.276-11.376-25.344-12.276-4.104-.972-4.752,3.924 1.512,6.912 6.336,2.952 31.932,9.72 36.108,10.728 3.924.828-6.048-2.448-12.276-5.364z" fill="#e7f2d6" fill-rule="evenodd"/>
 <path d="m119.668,164.179c3.708,1.368 32.796,7.776 35.316,7.704 2.16-.288-15.552-7.128-21.492-8.46-5.976-1.296-17.388-.72-13.824.756z" fill="#e7f2d6" fill-rule="evenodd"/>
 <path d="m125.79 204.14c2.628-0.576 41.832 2.016 47.628 3.061 5.364 1.008-6.624 3.563-14.58 3.096-8.172-0.721-35.388-5.545-33.048-6.157z" fill="#e7f2d6" fill-rule="evenodd"/>
 <path d="m179.572,214.112c-.144-1.08-13.032,4.859-20.736,7.703-7.884,2.844-25.272,8.137-25.344,9.217 .072.936 17.46-.289 25.344-3.096 7.704-2.953 20.592-12.744 20.736-13.824z" fill="#e7f2d6" fill-rule="evenodd"/>
 <path d="m199.551,222.571c.865,1.98-3.203,34.561-5.398,44.568-2.449,9.9-7.525,16.381-8.424,14.58-.828-2.053.612-16.271 3.059-26.137 2.267-10.115 9.793-34.775 10.763-33.011z" fill="#e7f2d6" fill-rule="evenodd"/>
 <path d="m219.497,268.651c-.721,1.152-5.725,36.252-6.121,42.264-.432,5.832 2.736.109 3.816-6.912 1.008-7.2 2.881-36.432 2.305-35.352z" fill="#e7f2d6" fill-rule="evenodd"/>
 <path d="m227.96 254.07c-0.504 1.297 1.945 21.889 5.4 31.5 3.385 9.324 13.896 25.668 14.58 24.588 0.396-1.404-8.172-21.996-11.52-31.5-3.492-9.397-7.884-25.741-8.46-24.588z" fill="#e7f2d6" fill-rule="evenodd"/>
 <path d="m31.396,264.799c-2.304-.828-7.704,2.447-8.28,3.6-.468.936 3.636.793 4.932,2.34 1.008,1.439.396,6.301 1.764,6.805 1.368.359 5.868-1.764 6.264-3.889 .144-2.34-2.484-7.883-4.68-8.856z" fill="#d1eca9" fill-rule="evenodd"/>
 <path d="m33.664,263.143c-2.34-.828-7.632,2.447-8.244,3.564-.54.863 3.744.863 4.932,2.375 .972,1.441.432,6.301 1.728,6.805 1.332.359 5.976-1.764 6.3-3.889 .18-2.339-2.556-7.882-4.716-8.855z" fill="#86a338" fill-rule="evenodd"/>
 <path d="m32.044,164.323c-2.088-.864-7.2,2.376-7.704,3.348-.54.9 3.492.648 4.608,2.16 .936,1.404.36,5.832 1.62,6.336 1.26.36 5.472-1.62 5.832-3.6 .108-2.016-2.268-7.452-4.356-8.244z" fill="#d1eca9" fill-rule="evenodd"/>
 <path d="m34.168,162.775c-2.088-.792-7.2,2.304-7.704,3.312-.54.864 3.492.756 4.608,2.196 .936,1.404.36,5.832 1.62,6.336 1.26.396 5.472-1.692 5.832-3.636 .108-2.052-2.268-7.38-4.356-8.208z" fill="#86a338" fill-rule="evenodd"/>
 <path d="m55.12,331.292c-3.024-1.117-10.44,3.313-11.16,4.824-.756,1.26 5.076,1.115 6.66,3.168 1.476,2.16.468,8.316 2.376,9.18 1.836.504 7.992-2.305 8.46-5.221 .252-2.989-3.384-10.729-6.336-11.951z" fill="#d1eca9" fill-rule="evenodd"/>
 <path d="m58.216,329.024c-3.024-1.117-10.44,3.311-11.16,4.822-.756,1.262 5.076,1.08 6.66,3.205 1.476,2.16.504,8.316 2.34,9.18 1.8.541 8.064-2.375 8.496-5.256 .252-2.988-3.384-10.728-6.336-11.951z" fill="#86a338" fill-rule="evenodd"/>
 <path d="m72.184,181.495c-1.548-.612-5.004,1.584-5.364,2.304-.36.54 2.376.54 3.204,1.548 .648,1.008.252,3.96 1.152,4.428 .9.288 3.78-1.152 4.068-2.521 .108-1.403-1.692-5.219-3.06-5.759z" fill="#d1eca9" fill-rule="evenodd"/>
 <path d="m73.696,180.415c-1.548-.504-4.968,1.512-5.4,2.304-.36.54 2.376.54 3.204,1.548 .648,1.008.252,3.96 1.152,4.428 .864.216 3.852-1.188 4.104-2.556 .036-1.404-1.584-5.256-3.06-5.724z" fill="#86a338" fill-rule="evenodd"/>
 <path d="m62.896,228.331c-.396.576 3.852,5.689 5.508,6.049 1.368.18 3.96-2.844 3.06-3.924-1.044-1.008-8.064-2.881-8.568-2.125z" fill="#d1eca9" fill-rule="evenodd"/>
 <path d="m64.3,227.612c-.396.576 3.852,5.688 5.508,6.047 1.368.18 3.96-2.844 3.06-3.924-1.044-1.008-8.064-2.879-8.568-2.123z" fill="#86a338" fill-rule="evenodd"/>
 <path d="m112.612,330.067c-.396.576 3.852,5.688 5.508,6.049 1.368.18 3.96-2.844 3.06-3.924-1.044-1.008-8.064-2.881-8.568-2.125z" fill="#d1eca9" fill-rule="evenodd"/>
 <path d="m114.016,329.311c-.396.576 3.852,5.688 5.508,6.049 1.368.18 3.96-2.846 3.06-3.924-1.044-1.01-8.064-2.881-8.568-2.125z" fill="#86a338" fill-rule="evenodd"/>
 <path d="m148.936,350.047c-.864,1.152 6.804,9.432 9.252,10.115 2.448.432 6.516-4.859 5.112-6.588-1.62-1.798-13.536-4.642-14.364-3.527z" fill="#d1eca9" fill-rule="evenodd"/>
 <path d="m151.276,348.823c-.828,1.152 6.732,9.432 9.216,10.117 2.34.432 6.588-4.861 5.112-6.588-1.656-1.801-13.464-4.644-14.328-3.529z" fill="#86a338" fill-rule="evenodd"/>
 <path d="m67.504,296.586c-.864,1.08 6.804,9.504 9.252,10.152 2.448.541 6.516-4.896 5.112-6.588-1.62-1.798-13.536-4.607-14.364-3.564z" fill="#d1eca9" fill-rule="evenodd"/>
 <path d="m69.844,295.364c-.828,1.08 6.732,9.504 9.216,10.152 2.34.539 6.588-4.896 5.112-6.59-1.656-1.799-13.464-4.607-14.328-3.562z" fill="#86a338" fill-rule="evenodd"/>
 <path d="m138.748,328.772c-.396.574 3.852,5.688 5.508,6.047 1.368.18 3.96-2.844 3.06-3.924-1.044-1.008-8.064-2.881-8.568-2.123z" fill="#d1eca9" fill-rule="evenodd"/>
 <path d="m140.116,328.051c-.396.576 3.852,5.688 5.508,6.049 1.368.18 3.96-2.846 3.06-3.926-1.044-1.007-8.064-2.879-8.568-2.123z" fill="#86a338" fill-rule="evenodd"/>
 <path d="m96.088,274.879c-.54.756-.144,1.98.9,2.736 1.044.719 2.304.719 2.88-.072 .54-.756.144-1.98-.9-2.736-1.008-.756-2.304-.721-2.88.072z" fill="#d1eca9" fill-rule="evenodd"/>
 <path d="m96.412,274.124c-.54.756-.144,1.98.9,2.736 1.008.756 2.304.719 2.88-.037 .54-.791.144-2.016-.9-2.736-1.044-.756-2.304-.756-2.88.037z" fill="#86a338" fill-rule="evenodd"/>
 <path d="m68.188,122.635c-.54.792-.144,2.016.9,2.772 1.044.72 2.304.72 2.88-.072 .54-.756.144-1.98-.9-2.736s-2.304-.72-2.88.036z" fill="#d1eca9" fill-rule="evenodd"/>
 <path d="m68.512,121.915c-.54.756-.144,1.98.864,2.736 1.044.756 2.34.72 2.88-.036 .576-.792.18-2.016-.864-2.772-1.044-.72-2.34-.72-2.88.072z" fill="#86a338" fill-rule="evenodd"/>
 <path d="m212.799,361.17c-.539.756-.18,1.98.865,2.736s2.34.721 2.879-.035c.576-.793.182-2.016-.863-2.736-1.045-.756-2.34-.72-2.881.035z" fill="#d1eca9" fill-rule="evenodd"/>
 <path d="m213.124,360.415c-.576.793-.18,2.018.865,2.736 1.043.756 2.34.756 2.879-.035 .541-.756.18-1.98-.863-2.736-1.046-.756-2.34-.721-2.881.035z" fill="#86a338" fill-rule="evenodd"/>
 <path d="m66.136,73.099c-.972,1.332-.288,3.528 1.548,4.824 1.836,1.332 4.104,1.296 5.112-.072 .972-1.368.288-3.528-1.584-4.86-1.8-1.296-4.104-1.26-5.076.108z" fill="#d1eca9" fill-rule="evenodd"/>
 <path d="m66.712,71.767c-.972,1.368-.288,3.528 1.548,4.824 1.836,1.332 4.104,1.296 5.076-.072 .972-1.332.288-3.528-1.548-4.824-1.836-1.332-4.104-1.296-5.076.072z" fill="#86a338" fill-rule="evenodd"/>
 <path d="m90.976,241.975c-.972,1.367-.288,3.527 1.548,4.859 1.836,1.297 4.14,1.26 5.112-.072 .972-1.367.288-3.527-1.584-4.859-1.8-1.332-4.068-1.295-5.076.072z" fill="#d1eca9" fill-rule="evenodd"/>
 <path d="m91.552,240.678c-.972,1.332-.288,3.529 1.548,4.824 1.836,1.332 4.104,1.297 5.076-.07s.288-3.529-1.548-4.861c-1.836-1.295-4.104-1.26-5.076.107z" fill="#86a338" fill-rule="evenodd"/>
 <path d="m27.76,222.067c-.972,1.369-.288,3.527 1.548,4.859s4.104,1.297 5.076-.07 .288-3.529-1.548-4.861-4.104-1.26-5.076.072z" fill="#d1eca9" fill-rule="evenodd"/>
 <path d="m28.3,220.772c-.972,1.367-.288,3.527 1.548,4.822 1.836,1.332 4.14,1.297 5.112-.07s.288-3.529-1.548-4.824c-1.836-1.332-4.104-1.297-5.112.072z" fill="#86a338" fill-rule="evenodd"/>
 <path d="m98.968,361.315c-.972,1.332-.288,3.527 1.548,4.824 1.836,1.332 4.104,1.297 5.076-.072s.288-3.527-1.548-4.859c-1.836-1.297-4.104-1.26-5.076.107z" fill="#d1eca9" fill-rule="evenodd"/>
 <path d="m99.508,359.983c-.936,1.369-.252,3.527 1.584,4.859 1.836,1.297 4.104,1.262 5.076-.07 .972-1.369.288-3.529-1.548-4.861s-4.104-1.295-5.112.072z" fill="#86a338" fill-rule="evenodd"/>
 <path d="m128.308,309.692c-.54.791-.18,2.016.864,2.734 1.044.758 2.34.758 2.88-.035 .576-.756.18-1.98-.864-2.736s-2.34-.719-2.88.037z" fill="#d1eca9" fill-rule="evenodd"/>
 <path d="m128.632,308.971c-.576.756-.18,1.98.864,2.736s2.34.719 2.88-.037c.54-.791.18-2.016-.864-2.771-1.044-.721-2.34-.721-2.88.072z" fill="#86a338" fill-rule="evenodd"/>
 <path d="m99.112,49.303c-.54.756-.144,2.016.864,2.736 1.044.756 2.34.72 2.88-.036 .576-.756.18-1.98-.864-2.736s-2.34-.72-2.88.036z" fill="#d1eca9" fill-rule="evenodd"/>
 <path d="m99.436,48.547c-.54.792-.18,2.016.864,2.772 1.044.72 2.34.72 2.88-.072 .54-.756.18-1.98-.864-2.736s-2.34-.72-2.88.036z" fill="#86a338" fill-rule="evenodd"/>
</svg>
