<?xml version="1.0" encoding="UTF-8"?>
<svg version="1.0" viewBox="0 0 250 250" xmlns="http://www.w3.org/2000/svg">
 <g transform="translate(-65.085,-497.1)">
  <g transform="matrix(2.1921 0 0 2.1921 -187.8 -578.38)">
   <path d="m166.74 521.38c-13.52-0.0534-29.192 0.92593-38.818 11.292-11.678 19.051 15.401 33.111 29.543 34.685 21.55 2.3195 52.029 9.1515 47.021-23.574-8.282-24.765-15.031-20.862-37.745-22.402z" color="#000000" fill="#228fff" style="block-progression:tb;text-indent:0;text-transform:none"/>
   <path d="m166.74 521.38c-13.52-0.0534-29.192 0.92593-38.818 11.292-11.678 19.051 15.401 33.111 29.543 34.685 21.55 2.3195 52.029 9.1515 47.021-23.574-8.282-24.765-15.031-20.862-37.745-22.402zm-0.26986 1.3193c20.265-0.88881 28.603 2.735 36.073 21.708 7.5067 29.236-25.474 17.924-42.297 16.71-11.961 0.57826-39.069-10.963-29.783-26.437 9.3271-9.2865 23.255-12.019 36.006-11.981z" color="#000000" fill="#5c2700" style="block-progression:tb;text-indent:0;text-transform:none"/>
   <path d="m219.15 537.5s-21.475-20.447-40.633-13.964c-14.448 4.8891-21.64 19.908 0.40217 24.193 22.042 4.2858 34.509-4.4344 34.509-4.4344l-22.443-7.0192 28.163 1.2246z" fill="#00a100"/>
   <path d="m178.12 523.62c-18.637 6.8832-17.891 21.561 0.32471 25.814 5.2271 1.9913 30.033 3.8067 35.392-7.36l-21.214-5.7905 26.463 2.4893c3.516-4.2444-9.2102-9.8917-12.447-11.852-8.8172-5.1073-18.682-5.9839-28.519-3.3012zm27.275 5.574c4.5434 2.5174 10.09 5.8385 12.339 7.6847-8.9896-0.30997-20.023-2.5281-28.026-0.81483l20.397 7.5253c-9.6762 4.7467-20.553 4.3762-30.954 2.8682-17.227-2.8725-14.555-15.527-0.21646-21.702 9.0952-2.966 18.287 0.27277 26.463 4.4376z" color="#000000" fill="#5c2700" style="block-progression:tb;text-indent:0;text-transform:none"/>
   <path d="m171.22 503.9c-5.0836 0.41149-4.9936 30.106-6.0906 47.25-0.12135 1.4189-0.25201 2.793-0.33464 4.0825-0.64305-10.21-1.4334-13.169-4.4843-17.401-0.30562 2.3833-0.98533 5.8616-1.2047 7.9646-1.3372-12.35-1.8517-14.44-6.8267-18.673-3.7112 41.549 1.8228 48.606 3.2794 64.251 1.7155-3.0838 0.38934-13.012 5.6888-8.0314 1.5361-2.6043 2.999-6.6016 5.0197 0 3.954-4.0026 4.6287-6.8747 4.8857 0.0669-1.1754-5.8679 7.021-8.6902 6.3583-2.0078 1.188-3.4978 3.3848-3.7683 7.0944 0.80314-2.5846-6.6761 13.32-45.134 1.6732-55.952-1.7584 6.0771-3.1714 11.39-4.2834 16.13 1.0228-12.224 0.97187-21.899-3.2126-19.342-1.4828 5.1247-2.7332 9.763-3.748 13.921 0.5466-10.809-1.3112-24.069-3.8148-33.064zm7.965 26.838z" color="#000000" fill="#00a100" style="block-progression:tb;text-indent:0;text-transform:none"/>
   <path d="m171.22 503.9c-5.0836 0.41149-4.9936 30.106-6.0906 47.25-0.12135 1.4189-0.25201 2.793-0.33464 4.0825-0.64305-10.21-1.4564-13.155-4.5072-17.388-0.30561 2.3833-0.96234 5.8484-1.1817 7.9511-1.3372-12.35-1.8517-14.44-6.8267-18.673-3.7112 41.549 1.8228 48.606 3.2794 64.251l0.87007-1.1378-2.3426-55.684c2.5022 7.3142 3.5488 14.699 4.1496 22.085l3.0134 26.705c3.5745 2.5786-0.0278-25.345-0.13493-38.416l5.1534 38.418c3.2899 6.6656 1.2214-34.604 1.3386-37.146 2.503 11.744 3.0125 24.484 3.5471 37.212l8.0336-52.673c2.298 16.658-0.544 34.529-1.6427 50.66 4.881-12.604 6.1167-31.59 9.1387-47.447 2.2972 16.659-2.2486 32.258-3.3464 48.39l1.2526-0.16238c-2.585-6.6757 13.339-45.107 1.6898-55.924-1.7584 6.0771-3.1714 11.39-4.2834 16.13 1.0228-12.224 0.97187-21.899-3.2126-19.342-1.4828 5.1247-2.7332 9.763-3.748 13.921 0.54661-10.809-1.3112-24.069-3.8148-33.064zm-0.0664 8.0978-0.13278 41.896c-0.54815-7.3384-1.4669-13.338-3.2794-14.055 0.19066-9.2783 0.63301-18.564 3.4135-27.842z" color="#000000" fill="#5c2700" style="block-progression:tb;text-indent:0;text-transform:none"/>
  </g>
 </g>
</svg>
