<?xml version="1.0" encoding="UTF-8"?>
<svg viewBox="0 0 3700 4000" xmlns="http://www.w3.org/2000/svg">
 <g transform="translate(6301.9 2019.7)">
  <path d="m-4470-1987.7-305.65 596.04c-34.679 64.776-96.818 58.766-158.96 22.583l-221.3-119.8 164.94 915.5c34.68 167.26-76.591 167.26-131.52 94.937l-386.18-452.01-62.7 229.54c-7.2268 30.144-39.014 61.804-86.712 54.265l-488.34-107.35 128.26 487.55c27.464 108.48 48.874 153.4-27.719 182.01l-174.05 85.531 840.64 713.91c33.27 26.996 50.091 75.572 38.237 119.55l-73.575 252.44c289.45-34.88 548.95-66.105 838.39-100.95 25.722-0.33206 68.367 22.523 68.186 53.495l-38.344 924.83h140.73l-22.156-922.84c-0.1749-30.985 38.498-55.816 64.22-55.484 289.44 34.841 548.94 66.066 838.39 100.95l-73.575-252.44c-11.854-43.982 4.9662-92.558 38.237-119.55l840.64-713.91-174.05-85.531c-76.592-28.613-55.183-73.53-27.719-182.01l128.26-487.55-488.34 107.35c-47.697 7.5393-79.485-24.121-86.712-54.265l-62.7-229.54-386.18 452.01c-54.932 72.319-166.2 72.319-131.52-94.937l164.94-915.5-221.3 119.8c-62.143 36.183-124.28 42.193-158.96-22.583" fill="#f00"/>
 </g>
</svg>
