<svg xmlns="http://www.w3.org/2000/svg" viewBox="0 0 25 25"><defs><style>.cls-1{fill:#253b56;}.cls-2{fill:none;}</style></defs><title>mdx-app_1</title><g id="Layer_2" data-name="Layer 2"><g id="Profile_MDX" data-name="Profile / MDX"><path class="cls-1" d="M12.5,24.5a12,12,0,1,1,12-12A12,12,0,0,1,12.5,24.5Zm0-22.3A10.3,10.3,0,1,0,22.8,12.5,10.31,10.31,0,0,0,12.5,2.2Z"/><path class="cls-1" d="M18.24,8.08a2.87,2.87,0,0,0-4,.29,2.48,2.48,0,0,0-.35,2.14,4.67,4.67,0,0,0-1.4-.24,4.62,4.62,0,0,0-1.4.24,2.48,2.48,0,0,0-.35-2.14,2.87,2.87,0,0,0-4-.29A2.87,2.87,0,0,0,5.81,12a2.57,2.57,0,0,0,2.54.92,4.6,4.6,0,0,0-.41,1.86,4.53,4.53,0,1,0,9,0,4.44,4.44,0,0,0-.41-1.86A2.56,2.56,0,0,0,19.12,12,2.85,2.85,0,0,0,18.24,8.08Z"/><rect class="cls-2" width="25" height="25"/></g></g></svg>