<?xml version='1.0' encoding='utf-8'?>
<svg xmlns="http://www.w3.org/2000/svg" version="1.1" width="600px" height="976px" viewBox="0 0 600 976"> <g id="layer1"> <g style="fill:rgb(201,193,67); fill-opacity:1.0; stroke-linejoin: miter"> <path d="M365.44507,460.2154Q360.40063,460.30676,356.91837,463.70554Q353.43884,467.21167,353.3267,472.23712Q353.3834,477.26398,356.82074,480.80972Q360.32867,484.2875,365.3539,484.39688Q370.3825,484.3372,373.92514,480.8987Q377.40057,477.38928,377.50815,472.36334Q377.44614,467.33707,374.00525,463.7942Q370.494,460.3205,365.4683,460.21573"/> </g> <g style="fill:rgb(255,239,0); fill-opacity:1.0; stroke-linejoin: miter"> <path d="M365.15033,461.43323Q360.64172,461.6233,357.55725,464.78842Q354.50217,468.06894,354.5447,472.55383Q354.71042,477.0367,357.90326,480.16907Q361.18906,483.22733,365.6834,483.1784Q370.19208,482.989,373.27707,479.8243Q376.33264,476.54416,376.29074,472.0592Q376.12567,467.5764,372.93335,464.44363Q369.6481,461.38498,365.15375,461.43314"/> </g> <g style="fill:rgb(7,31,37); fill-opacity:0.17254902; stroke-linejoin: miter"> <path d="M362.2769,466.98788L366.35782,467.0343L370.4388,467.0809L362.2769,466.98788 Z M366.3319,467.35196C366.33243,467.35196,366.33295,467.35196,366.3335,467.35196L366.33395,467.35196C366.33377,467.35196,366.3336,467.35196,366.3334,467.35196 Z M366.34634,470.48276C366.3443,470.48276,366.34225,470.48276,366.3402,470.48276C366.33817,470.48276,366.33612,470.48276,366.33408,470.48276 Z M362.2464,470.7596L370.40076,470.85257L366.3224,470.80615L362.2464,470.7596 Z M360.2827,465.72098C360.1618,465.72098,360.09708,465.7217,360.09592,465.7232C360.0907,465.73572,360.07208,467.1463,360.05508,468.8612L360.02206,471.97906L366.30054,472.0582L372.5791,472.13486L372.61493,468.99185L372.65076,465.8488L366.37973,465.77728C363.44812,465.74384,360.96667,465.72092,360.2827,465.72098 Z M367.64825,473.33075C367.58752,473.33075,367.5243,473.3329,367.45895,473.33728C367.3305,473.3429,366.8285,473.39896,366.33994,473.45605C364.55487,473.66763,364.09515,473.6927,362.1813,473.70102C360.93442,473.71057,360.37695,473.7904,359.9849,474.0285C359.3826,474.39502,358.203,475.58783,357.37955,476.6883L357.02686,477.15805L358.40698,478.67935L359.7868,480.20752L360.0695,479.9962C360.86108,479.40564,361.55606,478.9573,361.94434,478.77942L362.381,478.58447L364.19547,478.65756C365.17123,478.69443,365.87482,478.71512,366.41348,478.71512C367.37375,478.71512,367.80975,478.64932,368.32886,478.4919C369.6199,478.10092,371.45074,477.15787,372.72205,476.22015C373.41452,475.70425,373.51862,475.54904,373.4054,475.20517C373.2964,474.9019,373.01584,474.75626,372.4525,474.71442L371.97604,474.68472L370.2182,475.43005C368.8202,476.02304,368.36554,476.1832,367.99234,476.2272C367.90707,476.23627,367.79895,476.2404,367.67493,476.2404C366.75317,476.2404,364.95563,476.01288,365.17676,475.89606C365.21814,475.8785,365.68384,475.75943,366.21646,475.6446C367.50784,475.35492,367.8484,475.18762,368.2608,474.62723C368.5183,474.27948,368.58212,473.79852,368.4022,473.5514C368.3009,473.41174,368.02145,473.33075,367.64825,473.33075 Z"/> </g> <g style="fill:rgb(38,120,95); fill-opacity:1.0; stroke-linejoin: miter"> <path d="M359.70706,465.93927C359.70184,465.95178,359.68323,467.36237,359.66623,469.07727L359.6332,472.19513L365.9117,472.27432L372.19025,472.35095L372.22607,469.20795L372.2619,466.06488L365.9909,465.9934C362.5411,465.95404,359.71472,465.9293,359.70706,465.93927 Z M370.07593,467.44315C370.12784,467.743,370.27625,467.96097,370.53598,468.1173C370.63092,468.17374,370.73105,468.21265,370.8189,468.22623C370.89435,468.23462,370.96194,468.25555,370.96936,468.26822C370.99902,468.3163,370.9787,470.09653,370.94827,470.12137C370.933,470.13123,370.865,470.14807,370.79697,470.15732C370.63574,470.17557,370.3801,470.31598,370.26294,470.44785C370.14566,470.5848,370.05554,470.77246,370.03104,470.9356L370.0119,471.06866L365.93356,471.02228L361.85757,470.97574L361.82684,470.80942C361.81027,470.71872,361.7764,470.60266,361.7518,470.5521C361.63382,470.31683,361.34717,470.08978,361.11377,470.04938C361.05856,470.0412,360.98828,470.02783,360.95816,470.01993L360.9005,470.00925L360.91116,469.07895C360.92294,468.0379,360.8991,468.14328,361.12332,468.1132C361.28445,468.08987,361.4641,467.99377,361.60654,467.8546C361.75912,467.70544,361.88528,467.44537,361.88727,467.27692L361.88806,467.204L365.969,467.25043L370.04996,467.297L370.07593,467.44315 Z"/> </g> <g style="fill:rgb(38,120,95); fill-opacity:1.0; stroke-linejoin: miter"> <path d="M365.6935,467.58932C365.41132,467.63892,365.11792,467.78143,364.90704,467.97266C364.70374,468.15894,364.58353,468.33865,364.47992,468.60406C364.4074,468.78683,364.4019,468.8295,364.39862,469.11868C364.3954,469.4003,364.40237,469.45316,364.46332,469.6224C364.59232,469.99097,364.8229,470.28027,365.13004,470.4699C365.71194,470.82858,366.49475,470.7595,366.9928,470.3075C367.5747,469.77847,367.69254,468.9374,367.27243,468.28885C366.93625,467.76938,366.29324,467.48547,365.6935,467.58932 Z"/> </g> <g style="fill:rgb(42,175,134); fill-opacity:1.0; stroke-linejoin: miter"> <path d="M365.95972,467.56818C366.47568,467.57407,366.9857,467.84576,367.27243,468.28885C367.69254,468.9374,367.5747,469.77847,366.9928,470.3075C366.7038,470.5698,366.31885,470.7032,365.93292,470.6988C365.65387,470.6956,365.37418,470.62036,365.13004,470.4699C364.8229,470.28027,364.59232,469.99097,364.46332,469.6224C364.40237,469.45316,364.3954,469.4003,364.39862,469.11868C364.4019,468.8295,364.4074,468.78683,364.47992,468.60406C364.58353,468.33865,364.70374,468.15894,364.90704,467.97266C365.11792,467.78143,365.41132,467.63892,365.6935,467.58932C365.7817,467.57404,365.8708,467.5672,365.95972,467.56818 Z M361.88806,467.204L361.88727,467.27692C361.88528,467.44537,361.75912,467.70544,361.60654,467.8546C361.4641,467.99377,361.28445,468.08987,361.12332,468.1132C360.8991,468.14328,360.92294,468.0379,360.91116,469.07895L360.9005,470.00925L360.95816,470.01993C360.98828,470.02783,361.05856,470.0412,361.11377,470.04938C361.34717,470.08978,361.63382,470.31683,361.7518,470.5521C361.7764,470.60266,361.81027,470.71872,361.82684,470.80942L361.85757,470.97574L370.0119,471.06866L370.03104,470.9356C370.05554,470.77246,370.14566,470.5848,370.26294,470.44785C370.3801,470.31598,370.63574,470.17557,370.79697,470.15732C370.865,470.14807,370.933,470.13123,370.94827,470.12137C370.9787,470.09653,370.99902,468.3163,370.96936,468.26822C370.96194,468.25555,370.89435,468.23462,370.8189,468.22623C370.73105,468.21265,370.63092,468.17374,370.53598,468.1173C370.27625,467.96097,370.12784,467.743,370.07593,467.44315L370.04996,467.297 Z"/> </g> <g style="fill:rgb(255,186,125); fill-opacity:1.0; stroke-linejoin: miter"> <path d="M367.07013,473.5534C366.94168,473.55902,366.43967,473.61508,365.9511,473.67218C364.16605,473.88376,363.70633,473.9088,361.79248,473.91714C360.5456,473.9267,359.9881,474.00647,359.59604,474.24457C358.99374,474.6111,357.81415,475.80392,356.99072,476.9044L356.63803,477.37415L358.01813,478.89545L359.39795,480.42355L359.68063,480.21222C360.47226,479.62177,361.16724,479.17343,361.5555,478.99554L361.9922,478.8006L363.80664,478.8737C366.52197,478.97626,367.12976,478.95374,367.94003,478.70804C369.23105,478.31702,371.0619,477.37396,372.33322,476.4363C373.0257,475.9204,373.1298,475.7652,373.01657,475.42133C372.90756,475.11804,372.627,474.9724,372.06366,474.9305L371.5872,474.90082L369.82935,475.64615C368.43137,476.23914,367.9767,476.39932,367.60352,476.44333C366.88452,476.5197,364.53705,476.24472,364.78793,476.11218C364.8293,476.09464,365.295,475.97556,365.82764,475.86072C367.11902,475.57104,367.45956,475.40375,367.87198,474.84335C368.1295,474.49557,368.1933,474.01462,368.01337,473.76752C367.8956,473.60513,367.53693,473.52206,367.07013,473.5534 Z"/> </g> </g> </svg>