<?xml version="1.0" encoding="UTF-8"?>
<!DOCTYPE svg  PUBLIC '-//W3C//DTD SVG 1.1//EN'  'http://www.w3.org/Graphics/SVG/1.1/DTD/svg11.dtd'>
<svg enable-background="new 0 0 60 71" version="1.1" viewBox="0 0 60 71" xml:space="preserve" xmlns="http://www.w3.org/2000/svg">
<path d="m25.85 8.3c-0.3-0.3-0.917-0.717-1.85-1.25-1.367-0.433-2.117-0.716-2.25-0.85-0.167-0.167-0.05-0.4 0.35-0.7 0.3-0.233 0.6-0.417 0.9-0.55 0.167-0.067 0.683-0.167 1.55-0.3 0.433-0.067 0.65-0.35 0.65-0.85 0-0.433 0.033-0.716 0.1-0.85 0.067-0.233 0.25-0.483 0.55-0.75 0.667-0.6 1.5-1.067 2.5-1.4 0.7-0.2 1.784-0.4 3.25-0.6 1.067-0.167 1.717-0.233 1.95-0.2 0.267 0.033 0.667 0.2 1.2 0.5 0.467 0.267 0.866 0.383 1.2 0.35 0.133 0 0.583-0.067 1.35-0.2 0.5-0.1 0.95-0.1 1.351 0 0.633 0.133 1.366 0.4 2.199 0.8 0.466 0.267 1.15 0.633 2.05 1.1 1.166 0.6 2.066 1.167 2.699 1.7 0.5 0.367 0.767 0.717 0.801 1.05 0.033 0.2-0.017 0.383-0.15 0.55-0.134 0.2-0.25 0.35-0.35 0.45-0.167 0.233-0.25 0.417-0.25 0.55s0.083 0.316 0.25 0.55c0.366 0.6 0.983 1.434 1.85 2.5 0.967 1.333 1.35 2.317 1.15 2.95-0.2 0.533-0.9 0.8-2.101 0.8-1.399 0.033-2.95 0.867-4.649 2.5-0.367 0.367-0.65 0.767-0.851 1.2l-10.899-2.35c-1.567-0.633-2.65-1.05-3.25-1.25 0-0.9-0.066-1.7-0.2-2.4-0.2-1-0.3-1.55-0.3-1.65-0.2-0.6-0.467-1.067-0.8-1.4z" clip-rule="evenodd" fill="#DBB02C" fill-rule="evenodd"/>
<g clip-rule="evenodd" fill-rule="evenodd">
	<path d="m27.15 9.1c0-0.5-0.183-1.117-0.55-1.85l0.15 0.15c0.367 0.4 0.617 0.8 0.75 1.2 0 0.867-0.067 1.683-0.2 2.45-0.1 0.367-0.2 0.617-0.3 0.75l-0.05-0.45-0.05-0.15 0.2-0.4c0.033-0.167 0.05-0.733 0.05-1.7z" fill="#CFA832"/>
	<path d="m34.25 1.8c-0.167-0.267-0.267-0.466-0.3-0.6-0.101-0.233 0-0.367 0.3-0.4 0.1-0.033 0.384 0.034 0.85 0.2 0.167 0.033 0.483 0.067 0.95 0.1 0.1 0.1 0.217 0.4 0.35 0.9 0.566 0.9 0.899 1.817 1 2.75 0.033 0.567-0.034 1.367-0.2 2.4 0.033 0.5 0.083 0.833 0.149 1 0.134 0.367 0.367 0.567 0.7 0.6 0.234 0.033 0.451-0.05 0.651-0.25 0.3-0.267 0.483-0.417 0.55-0.45 0.033 0.067 0.083 0.284 0.15 0.65 0.066 0.267 0.166 0.45 0.3 0.55 0.533 0.333 1.283-0.05 2.25-1.15l0.95-1.05c0.366-0.433 0.633-0.683 0.8-0.75 0.1-0.066 0.383-0.1 0.85-0.1 0.134 0.267 0.066 0.7-0.2 1.3 0.434-0.367 0.801-0.3 1.101 0.2 0.066 0.1 0.217 0.55 0.45 1.35 0.033 0.2 0.099 0.517 0.199 0.95-0.033 0.2-0.166 0.417-0.399 0.65-0.267 0.267-0.467 0.45-0.601 0.55-0.8 0.867-1.366 1.667-1.699 2.4h-0.101c-0.267 0-0.483-0.15-0.649-0.45-0.134-0.233-0.2-0.633-0.2-1.2l0.149-0.3c0.034-0.1 0.351-0.533 0.95-1.3 0.6-0.767 0.85-1.583 0.75-2.45l-0.45 0.1-0.05-0.2c-0.166 0.167-0.267 0.333-0.3 0.5l-0.4 0.55c-0.3 0.433-0.55 0.75-0.75 0.95-0.333 0.333-1.083 0.867-2.25 1.6-0.333 0.2-0.649 0.3-0.949 0.3-0.434 0.033-0.7-0.117-0.801-0.45-0.066-0.167-0.083-0.4-0.05-0.7v-0.75c-0.133 0.034-0.217-0.017-0.25-0.15 0-0.167-0.017-0.283-0.05-0.35-0.267 0.2-0.5 0.367-0.7 0.5-0.366 0.2-0.633 0.267-0.8 0.2l-0.1-0.5h-0.05v-0.05l0.301-2.5c0.033-0.5 0.017-1.25-0.051-2.25l0.05-0.7c0-0.067-0.267-0.517-0.801-1.35-0.033 0.567-0.05 1.4-0.05 2.5-0.032 0.967-0.165 1.783-0.399 2.45-0.4 1.033-0.7 1.7-0.9 2-0.7 0.967-1.134 1.517-1.3 1.65-0.4 0.3-0.733 0.417-1 0.35-0.3-0.067-0.517-0.283-0.65-0.65-0.1-0.434-0.184-0.75-0.25-0.95-0.1 0.033-0.217 0.217-0.35 0.55-0.134 0.3-0.267 0.483-0.4 0.55-0.1 0.066-0.467 0.033-1.1-0.1h-0.15l-0.4-0.05-0.05-0.05c-0.133-0.066-0.283-0.217-0.45-0.45l0.25 0.05c0.333 0.133 0.6 0.183 0.8 0.15 0.233-0.1 0.55-0.35 0.95-0.75 0.5-0.3 0.8-0.55 0.899-0.75 0.101-0.566 0.184-1 0.25-1.3l0.401 0.15c0.467 0.1 0.899 0.15 1.3 0.15h0.65c0.133-0.066 0.267-0.3 0.399-0.7 0.367-0.967 0.483-2.15 0.351-3.55-0.067-1-0.2-1.7-0.4-2.1z" fill="#CFA832"/>
	<path d="m25.55 4.85c0.133 0.233 0.217 0.583 0.25 1.05l0.1 0.15c-0.267-0.367-0.567-0.65-0.9-0.85l-0.5-0.2 0.4-0.25 0.05-0.05c0.133-0.034 0.267-0.034 0.4 0l0.2 0.15z" fill="#CFA832"/>
	<path d="m45.5 6.9v-0.3c0.033-0.033 0.134-0.083 0.3-0.15-0.133 0.3-0.1 0.617 0.101 0.95 0.366 0.6 0.983 1.434 1.85 2.5l0.3 0.45c-0.033 0.2-0.1 0.517-0.2 0.95-0.066 0.367-0.183 0.65-0.35 0.85l0.05-0.2c0.233-0.233 0.3-0.6 0.2-1.1 0.033-0.233 0.033-0.4 0-0.5 0-0.033-0.134-0.25-0.4-0.65-0.466-0.534-0.816-0.967-1.05-1.3-0.501-0.6-0.768-1.1-0.801-1.5z" fill="#CFA832"/>
	<path d="m47.5 12.15c-0.066 0.467-0.25 0.717-0.55 0.75h-0.35c0.367-0.167 0.667-0.417 0.9-0.75z" fill="#C29D2F"/>
	<path d="m45.35 12.9c-0.899 0.533-1.566 0.8-2 0.8l0.051-0.1c0.199 0 0.466-0.1 0.8-0.3 0.533-0.333 1.033-0.483 1.5-0.45h0.1l-0.451 0.05z" fill="#C29D2F"/>
	<path d="m43.1 8.85l0.4-0.55-1.2 2c-0.267 0.333-0.633 0.667-1.1 1l-0.95 0.65-0.2 0.2c-0.166 0.1-0.6 0.15-1.3 0.15-0.467 0-0.783-0.033-0.95-0.1-0.233-0.067-0.399-0.25-0.5-0.55-0.066-0.333-0.133-0.583-0.2-0.75-0.366 0.2-0.6 0.184-0.699-0.05l0.099-0.85c0.167 0.067 0.434 0 0.8-0.2 0.2-0.133 0.434-0.3 0.7-0.5 0.033 0.067 0.05 0.184 0.05 0.35 0.033 0.133 0.117 0.184 0.25 0.15v0.75c-0.033 0.3-0.017 0.534 0.05 0.7 0.101 0.333 0.367 0.483 0.801 0.45 0.3 0 0.616-0.1 0.949-0.3 1.167-0.733 1.917-1.267 2.25-1.6 0.2-0.2 0.45-0.517 0.75-0.95z" fill="#C29D2F"/>
	<path d="m36.65 6.95l-0.301 2.5c-0.066-0.433-0.199-0.717-0.399-0.85-0.233 0.167-0.483 0.467-0.75 0.9-0.3 0.567-0.517 0.917-0.65 1.05-0.833 0.9-1.684 1.284-2.55 1.15-0.233 0-0.417-0.067-0.55-0.2-0.033-0.033-0.084-0.117-0.15-0.25-0.033-0.067-0.116-0.083-0.25-0.05-0.1 0.033-0.166 0.1-0.2 0.2-0.066 0.1-0.149 0.15-0.25 0.15-0.133 0-0.316-0.083-0.55-0.25-0.267-0.167-0.45-0.25-0.55-0.25l-0.2-0.05h0.15c0.633 0.133 1 0.167 1.1 0.1 0.134-0.067 0.267-0.25 0.4-0.55 0.133-0.333 0.25-0.517 0.35-0.55 0.066 0.2 0.15 0.517 0.25 0.95 0.134 0.367 0.351 0.583 0.65 0.65 0.267 0.066 0.6-0.05 1-0.35 0.166-0.133 0.6-0.683 1.3-1.65 0.2-0.3 0.5-0.967 0.9-2 0.233-0.667 0.366-1.483 0.399-2.45 0-1.1 0.017-1.933 0.05-2.5 0.535 0.833 0.801 1.283 0.801 1.35l-0.05 0.7c0.067 1 0.084 1.75 0.05 2.25z" fill="#C29D2F"/>
	<path d="m43.75 9.25c0.134-0.5 0.167-0.917 0.1-1.25l0.45-0.1c0.101 0.867-0.149 1.684-0.75 2.45-0.6 0.767-0.916 1.2-0.95 1.3l-0.149 0.3c0 0.566 0.066 0.966 0.2 1.2 0.166 0.3 0.383 0.45 0.649 0.45h0.1l-0.051 0.1c0.434 0 1.101-0.267 2-0.8l0.45-0.05 1.15 0.05c0.3-0.033 0.483-0.283 0.55-0.75 0.167-0.2 0.283-0.483 0.35-0.85 0.101-0.433 0.167-0.75 0.2-0.95l0.351 0.55v0.85c-0.034 0.333-0.267 0.65-0.7 0.95-0.367 0.233-0.767 0.383-1.2 0.45-0.9 0.1-1.366 0.15-1.4 0.15-0.966 0.3-1.5 0.45-1.6 0.45-0.566 0.1-1 0.1-1.3 0-0.134-0.033-0.283-0.133-0.45-0.3-0.2-0.167-0.366-0.25-0.5-0.25-0.033-0.667 0.283-1.233 0.95-1.7 0.366-0.267 0.717-0.65 1.05-1.15 0.2-0.267 0.366-0.633 0.5-1.1z" fill="#C29D2F"/>
	<path d="m27.75 9.65c0.067 0.667-0.017 1.317-0.25 1.95-0.1 0.3-0.233 0.533-0.4 0.7l-0.1-0.5c0.1-0.133 0.2-0.383 0.3-0.75 0.133-0.767 0.2-1.583 0.2-2.45l0.25 1.05z" fill="#C29D2F"/>
	<path d="m27.75 8.55c-0.067-0.3-0.267-0.617-0.6-0.95-0.5-0.533-0.767-0.817-0.8-0.85l-0.1-0.1 0.45 0.25c0.167 0.1 0.4 0.383 0.7 0.85 0.267 0.3 0.467 0.85 0.6 1.65v0.3l-0.25-1.15z" fill="#AD8D32"/>
	<path d="m26.25 6.6l0.3 0.5 0.05 0.15c-0.3-0.3-0.45-0.467-0.45-0.5-0.167-0.167-0.233-0.383-0.2-0.65 0 0.2 0.1 0.367 0.3 0.5z" fill="#AD8D32"/>
	<path d="m27.75 9.35c-0.1-0.533-0.183-0.85-0.25-0.95v0.2c-0.133-0.4-0.383-0.8-0.75-1.2l-0.15-0.15-0.05-0.15-0.2-0.35c0.033 0.033 0.3 0.317 0.8 0.85 0.333 0.333 0.533 0.65 0.6 0.95l0.25 1.15v0.45l-0.25-0.8z" fill="#AD8D32"/>
	<path d="m43.5 8.3c0.033-0.167 0.134-0.333 0.3-0.5l0.05 0.2c-0.133 0.033-0.25 0.133-0.35 0.3z" fill="#AD8D32"/>
	<path d="m27.5 8.6v-0.2c0.067 0.1 0.15 0.417 0.25 0.95l0.25 0.8-0.05 1.05c-0.034 0.233-0.117 0.566-0.25 1-0.133 0.367-0.184 0.683-0.15 0.95l-0.45 0.25v-1.1c0.167-0.167 0.3-0.4 0.4-0.7 0.233-0.633 0.317-1.283 0.25-1.95l-0.25-1.05z" fill="#AD8D32"/>
	<path d="m43.5 8.3c0.1-0.167 0.217-0.267 0.35-0.3 0.067 0.333 0.034 0.75-0.1 1.25-0.134 0.467-0.3 0.833-0.5 1.1-0.333 0.5-0.684 0.883-1.05 1.15-0.667 0.467-0.983 1.033-0.95 1.7 0.134 0 0.3 0.083 0.5 0.25 0.167 0.167 0.316 0.267 0.45 0.3 0.3 0.1 0.733 0.1 1.3 0 0.1 0 0.634-0.15 1.6-0.45 0.034 0 0.5-0.05 1.4-0.15 0.434-0.066 0.833-0.217 1.2-0.45 0.434-0.3 0.666-0.617 0.7-0.95v-0.85c0.3 0.467 0.466 0.883 0.5 1.25-0.167 0.267-0.467 0.517-0.9 0.75l-0.75 0.45h-1c-0.533-0.033-0.816 0.033-0.85 0.2l0.149 0.1c-0.333 0.033-0.566 0.083-0.7 0.15l-0.55 0.45c-0.467 0.3-1.333 0.417-2.6 0.35-0.367-0.067-0.566-0.117-0.601-0.15-0.033-0.233-0.066-0.4-0.1-0.5l-0.1-0.3-0.351-0.2c-0.066-0.067-0.083-0.15-0.05-0.25 0-0.133 0.083-0.284 0.25-0.45 0.1-0.067 0.233-0.183 0.4-0.35l1-1.2c0.133-0.2 0.199-0.333 0.199-0.4-0.133 0.3-0.35 0.55-0.649 0.75-0.367 0.2-0.65 0.367-0.851 0.5l-0.896 0.75c-0.233 0.167-0.601 0.25-1.101 0.25-0.933 0-1.449-0.083-1.55-0.25-0.066-0.066-0.1-0.233-0.1-0.5 0.033-0.267 0-0.45-0.101-0.55-0.433 0.433-0.699 0.6-0.8 0.5v-0.75l0.101-0.65c0.1 0.233 0.333 0.25 0.699 0.05 0.067 0.167 0.134 0.417 0.2 0.75 0.101 0.3 0.267 0.483 0.5 0.55 0.167 0.066 0.483 0.1 0.95 0.1 0.7 0 1.134-0.05 1.3-0.15l0.2-0.2 0.95-0.65c0.467-0.333 0.833-0.667 1.1-1l1.202-2z" fill="#AD8D32"/>
	<path d="m36 8.6c0.333 0.167 0.5 0.45 0.5 0.85v0.05c-0.4 0.067-0.684 0.2-0.85 0.4-0.134 0.233-0.267 0.417-0.4 0.55l-0.6 0.4c-0.101 0.367-0.217 0.633-0.351 0.8-0.399 0.467-1.066 0.633-2 0.5-0.399-0.033-0.633-0.066-0.7-0.1-0.199-0.033-0.333-0.167-0.399-0.4h-0.2c-0.033 0.233-0.15 0.333-0.35 0.3-0.134-0.034-0.267-0.133-0.4-0.3-0.2-0.233-0.583-0.433-1.15-0.6v-0.05h0.2l0.2 0.05c0.1 0 0.283 0.083 0.55 0.25 0.233 0.167 0.417 0.25 0.55 0.25 0.101 0 0.184-0.05 0.25-0.15 0.034-0.1 0.101-0.167 0.2-0.2 0.2-0.067 0.351 0.033 0.45 0.3 0.1 0.133 0.267 0.2 0.5 0.2 0.9 0.133 1.767-0.25 2.6-1.15 0.134-0.133 0.351-0.483 0.65-1.05 0.267-0.433 0.517-0.733 0.75-0.9z" fill="#AD8D32"/>
	<polygon points="36.35 9.5 36.4 9.5 36.5 10 36.45 10 36.35 9.8" fill="#856C2A"/>
	<polygon points="36.45 10 36.5 10 36.4 10.85 36.35 10.65 36.35 9.8" fill="#856C2A"/>
	<path d="m28 9.7l0.2 0.6c0.167 0.3 0.383 0.5 0.65 0.6l0.25 0.1c-0.267 0.067-0.483 0.067-0.65 0s-0.284-0.267-0.35-0.6l-0.1-0.25v-0.45z" fill="#856C2A"/>
	<path d="m48 12.9c0.434-0.233 0.733-0.483 0.9-0.75 0.066 0.267 0.066 0.5 0 0.7-0.2 0.533-0.9 0.8-2.101 0.8-1.399 0.033-2.95 0.867-4.649 2.5-0.367 0.367-0.65 0.767-0.851 1.2l-10.899-2.35c-1.567-0.633-2.65-1.05-3.25-1.25l-0.05-0.35 0.45-0.25c-0.033-0.267 0.017-0.583 0.15-0.95 0.133-0.434 0.216-0.767 0.25-1l0.05-1.05 0.1 0.25c0.066 0.333 0.183 0.533 0.35 0.6s0.383 0.067 0.65 0v0.05c0.566 0.167 0.95 0.367 1.15 0.6 0.134 0.167 0.267 0.267 0.4 0.3 0.199 0.033 0.316-0.067 0.35-0.3h0.2c0.066 0.233 0.2 0.367 0.399 0.4 0.067 0.034 0.301 0.067 0.7 0.1 0.934 0.133 1.601-0.033 2-0.5 0.134-0.167 0.25-0.433 0.351-0.8 0.1-0.1 0.267-0.233 0.5-0.4 0.533-0.534 0.933-0.85 1.199-0.95v1.15l0.051 0.2-0.1 0.65v0.75c0.101 0.1 0.367-0.067 0.8-0.5 0.101 0.1 0.134 0.283 0.101 0.55 0 0.267 0.033 0.434 0.1 0.5 0.101 0.167 0.617 0.25 1.55 0.25 0.5 0 0.867-0.083 1.101-0.25l0.899-0.75c0.2-0.133 0.483-0.3 0.851-0.5 0.3-0.2 0.517-0.45 0.649-0.75 0 0.067-0.066 0.2-0.199 0.4l-1 1.2c-0.167 0.167-0.301 0.283-0.4 0.35-0.167 0.167-0.25 0.317-0.25 0.45-0.033 0.1-0.017 0.183 0.05 0.25l0.351 0.2 0.1 0.3c0.033 0.1 0.066 0.267 0.1 0.5 0.034 0.033 0.233 0.083 0.601 0.15 1.267 0.066 2.133-0.05 2.6-0.35l0.55-0.45c0.134-0.066 0.367-0.117 0.7-0.15l-0.149-0.1c0.033-0.167 0.316-0.233 0.85-0.2h1l0.745-0.45z" fill="#856C2A"/>
	<path d="m21.75 6.2c-0.167-0.167-0.05-0.4 0.35-0.7 0.3-0.233 0.6-0.417 0.9-0.55s0.733-0.233 1.3-0.3c0.434-0.066 0.7-0.183 0.8-0.35 0 0.133-0.05 0.267-0.15 0.4-0.434 0.1-0.684 0.15-0.75 0.15l0.3 0.15-0.8 0.3c-0.267 0.034-0.45 0.067-0.55 0.1-0.2 0.067-0.3 0.2-0.3 0.4-0.033 0.2 0.1 0.367 0.4 0.5 0.133 0.067 0.35 0.15 0.65 0.25 0.3 0.2 0.75 0.55 1.35 1.05 0.5 0.3 0.767 0.617 0.8 0.95-0.066-0.133-0.133-0.216-0.2-0.25-0.3-0.3-0.917-0.717-1.85-1.25-1.367-0.433-2.117-0.717-2.25-0.85z" fill="#E3BB44"/>
	<path d="m24.95 4.7l-0.05 0.05-0.4 0.25-0.3-0.15c0.067 0 0.317-0.05 0.75-0.15z" fill="#E3BB44"/>
	<path d="m25.3 2.9c0.067-0.2 0.25-0.433 0.55-0.7 0.667-0.6 1.5-1.067 2.5-1.4 0.7-0.2 1.784-0.4 3.25-0.6 1.067-0.167 1.717-0.233 1.95-0.2 0.267 0 0.566 0.1 0.9 0.3-0.7 0-1.233 0.083-1.601 0.25-0.267 0.367-0.517 0.583-0.75 0.65-0.5-0.067-0.85-0.1-1.05-0.1h-0.7l-0.449 0.2-0.95 0.55-1.1 0.35c-0.434 0.2-0.8 0.45-1.1 0.75-0.333 0.4-0.45 0.783-0.35 1.15 0.033 0.167 0.1 0.417 0.2 0.75 0 0.1-0.067 0.2-0.2 0.3-0.1 0.267-0.083 0.567 0.05 0.9 0.033 0.034 0.183 0.3 0.45 0.8l-0.85-0.55v-0.05c-0.133-0.7-0.3-1.167-0.5-1.4l-0.3-0.5-0.05-0.5v-0.15c0-0.4 0.033-0.667 0.1-0.8z" fill="#E3BB44"/>
	<path d="m37.15 1.1c-0.5-0.167-0.767-0.267-0.801-0.3l0.351-0.05 2.2 1v0.8c0 0.767-0.084 1.383-0.25 1.85-0.134 0.367-0.384 0.883-0.75 1.55 0.066-1.2 0.017-2.383-0.15-3.55 0-0.367-0.017-0.633-0.05-0.8-0.066-0.2-0.25-0.367-0.55-0.5z" fill="#E3BB44"/>
	<path d="m39.9 1.7c0.267 0.133 1.066 0.367 2.399 0.7l0.45 0.05 0.15 0.1c1.166 0.6 2.066 1.167 2.699 1.7 0.367 0.233 0.617 0.517 0.75 0.85l-7.448-3.35v-0.1c0.1-0.233 0.433-0.217 1 0.05z" fill="#E3BB44"/>
	<path d="m47.7 11l-0.15 0.85v0.1c-0.166 0.167-0.35 0.25-0.55 0.25-0.733 0.033-1.283 0.1-1.65 0.2-0.633 0.434-1.083 0.617-1.35 0.55 0.4-0.133 0.9-0.5 1.5-1.1 0.5-0.434 0.9-0.967 1.2-1.6 0-0.233 0.05-0.45 0.149-0.65l0.301 0.3c0.267 0.167 0.466 0.483 0.6 0.95l-0.05 0.15z" fill="#E3BB44"/>
	<path d="m47.75 10.85c0.1 0.5 0.033 0.867-0.2 1.1v-0.1l0.15-0.85 0.05-0.15z" fill="#E3BB44"/>
</g>
<path d="m38.4 21.85c-3.601 1.667-7.417 1.2-11.45-1.4l-2.2-1.275c-6e-3 -0.239-0.073-0.931-0.2-2.075-0.167-1.2 0.167-2.15 1-2.85 0.3-0.233 1.233-0.733 2.8-1.5 1-0.467 2.45-0.617 4.35-0.45 1.8 0.167 3.45 0.534 4.95 1.1 1.333 0.533 2.466 1.233 3.399 2.1 0.767 0.767 1.25 1.517 1.45 2.25 0.1 0.367-0.217 0.967-0.95 1.8-0.865 0.967-1.915 1.733-3.149 2.3z" clip-rule="evenodd" fill="#855F26" fill-rule="evenodd"/>
<path d="m37.65 13.4l0.199 0.1c-1.066-0.4-2.033-0.617-2.899-0.65-0.2 0-1.017-0.133-2.45-0.4-1.033-0.2-1.85-0.217-2.45-0.05-0.5 0.1-0.966 0.317-1.4 0.65-0.5 0.434-0.883 0.75-1.15 0.95-0.833-0.1-1.583 0.217-2.25 0.95l-0.7 0.9c0.167-0.733 0.633-1.367 1.4-1.9 0.3-0.2 1.1-0.6 2.4-1.2 1-0.467 2.45-0.617 4.35-0.45 1.8 0.167 3.45 0.533 4.95 1.1z" clip-rule="evenodd" fill="#A67D41" fill-rule="evenodd"/>
	<path d="m40.1 14.75c1.301 0.967 2.101 1.967 2.4 3 0.1 0.367-0.217 0.967-0.95 1.8-0.866 0.967-1.916 1.733-3.149 2.3-3.601 1.667-7.417 1.2-11.45-1.4l-2.2-1.25-0.2-2.1c-0.1-0.567-0.066-1.067 0.1-1.5 0.8-0.233 1.483-0.517 2.05-0.85 0.667-0.367 1.8-0.633 3.399-0.8 1.834-0.2 3.367-0.133 4.601 0.2 1.166 0.367 2.333 0.767 3.5 1.2 0.967 0.4 1.517 0.65 1.649 0.75 0.733-0.267 0.817-0.717 0.25-1.35z" clip-rule="evenodd" fill="#694B1E" fill-rule="evenodd"/>
<path d="m28.1 11.5c0.433-0.267 0.917-0.333 1.45-0.2 0.367 0.067 0.8 0.367 1.3 0.9l-0.65 1.35c-0.033 0.3 0.017 0.667 0.149 1.1-0.7 0.2-1.25 0.267-1.649 0.2-0.934 0.066-1.517 0-1.75-0.2-0.167-0.133-0.3-0.417-0.4-0.85-0.066-0.433-0.066-0.767 0-1 0.067-0.267 0.583-0.7 1.55-1.3z" clip-rule="evenodd" fill="#855F26" fill-rule="evenodd"/>
<path d="m29.35 12.5c0-0.1-0.083-0.267-0.25-0.5 0.4 0 0.617-0.017 0.65-0.05 0.1-0.133 0.033-0.35-0.2-0.65 0.367 0.1 0.8 0.4 1.3 0.9l-0.65 1.35c-0.033 0.3 0.017 0.667 0.149 1.1-0.7 0.2-1.25 0.267-1.649 0.2-0.934 0.066-1.517 0-1.75-0.2-0.1-0.1-0.217-0.333-0.35-0.7 0.533 0.233 1.15 0.2 1.85-0.1 0.2-0.033 0.433-0.3 0.7-0.8 0.167-0.267 0.233-0.45 0.2-0.55z" clip-rule="evenodd" fill="#694B1E" fill-rule="evenodd"/>
<path d="m28.4 11.95c-0.233 0.033-0.4 0.133-0.5 0.3 0.233 0 0.4 0.1 0.5 0.3-0.667-0.066-1.183 0.034-1.55 0.3-0.167 0.2-0.283 0.333-0.35 0.4l0.05-0.45c0.067-0.267 0.583-0.7 1.55-1.3 0.433-0.267 0.917-0.333 1.45-0.2h0.1c-0.467 0.1-0.783 0.2-0.95 0.3-0.133 0.2-0.233 0.317-0.3 0.35z" clip-rule="evenodd" fill="#A67D41" fill-rule="evenodd"/>
<path d="m27.25 15c8.333-1.633 14.884 1.717 19.65 10.05 3.267 5.733 4.983 11.367 5.149 16.9 0.066 2 1.167 5.383 3.3 10.149 2.334 5.134 3.584 8.15 3.75 9.051 0.334 1.8-0.116 3.166-1.35 4.1-1.066 0.8-2.65 1.2-4.75 1.2-1.066 0-3.517 0.666-7.35 2-4 1.399-7.4 2.184-10.2 2.35-3.867 0.233-8.233 0.15-13.1-0.25-4.833-0.399-8.45-0.967-10.85-1.7-2.1-0.633-4-1.383-5.7-2.25-0.9-0.433-2.433-1.283-4.6-2.55-1.367-0.8-1.583-2.383-0.65-4.75 1.268-2.434 1.984-3.9 2.151-4.4 0.233-0.567 0.383-1.851 0.45-3.851 0.1-3.866 0.167-6.1 0.2-6.7 0.167-2.833 0.583-5.183 1.25-7.05 0.833-2.233 2.5-5.183 5-8.85 2.3-3.333 5.65-6.483 10.05-9.45 3.5-2.366 6.033-3.699 7.6-3.999z" clip-rule="evenodd" fill="#DBB02C" fill-rule="evenodd"/>
<g clip-rule="evenodd" fill-rule="evenodd">
	<path d="m30.15 15.8l-0.65 0.65c-0.167 0.267-0.317 0.583-0.45 0.95-0.533 0.667-0.983 1.117-1.35 1.35-0.567 0.367-1.184 0.467-1.85 0.3-0.133-0.9 0.383-1.933 1.55-3.1l-0.05 0.25c-0.333 0.433-0.6 0.9-0.8 1.4 0.733 0.167 1.483-0.067 2.25-0.7 0.4-0.367 0.983-0.917 1.75-1.65l0.05 0.35-0.35 0.3-0.1-0.1z" fill="#CFA832"/>
	<path d="m7.15 56.75c-1.3-0.4-2.683-1.434-4.15-3.1 0.033-0.2 0.117-2.567 0.25-7.101 0.367 1.5 1.017 3.2 1.95 5.101 0.233 0.433 0.667 1.283 1.3 2.55 0.533 1.133 0.75 1.984 0.65 2.55z" fill="#CFA832"/>
	<path d="m37.75 18.35c0.3 0.566 0.667 1.267 1.1 2.1 0.4 0.667 0.867 1.316 1.4 1.95 0.866 1.033 1.384 2.283 1.55 3.75 0.167 1.667-0.3 2.85-1.399 3.55 0.966 0.033 1.533 0.466 1.699 1.3 0.101 0.5 0.117 1.367 0.051 2.6 0.033 0.667 0.166 1.533 0.399 2.6 0.3 1.3 0.483 2.166 0.55 2.6 0.101 0.667 0.284 1.667 0.551 3 0.166 1.167 0.233 2.167 0.199 3-0.066 1-0.35 1.9-0.85 2.7-0.634 0.934-1.134 1.717-1.5 2.35 0.167 0 0.866-0.116 2.1-0.35 1.101-0.2 1.75-0.233 1.95-0.1 0.5 0.366 0.667 1.017 0.5 1.949-0.133 0.7-0.383 1.334-0.75 1.9-0.733 1.1-1.1 1.667-1.1 1.7 0 0.066 0.45 0.7 1.35 1.899 0.834 1.134 1.5 2.367 2 3.7-0.5 0-1.166-0.333-2-1-0.833-0.7-1.566-1.05-2.2-1.05-0.933 0.033-1.566 0.316-1.899 0.85-0.233 0.334-0.5 1.017-0.8 2.051-0.567 1.733-1 2.8-1.301 3.199-0.5 0.7-1.033 1.167-1.6 1.4-0.733 0.134-1.35 0.283-1.85 0.45-4.7 1.6-10.05 2.399-16.05 2.399-1.167 0-2.367-0.116-3.6-0.35-0.3-0.066-1.433-0.35-3.4-0.85-1.367-0.101-2.333-0.25-2.9-0.45-0.3-0.134-0.817-0.434-1.55-0.9-0.633-0.434-1.167-0.717-1.6-0.85-1.233-0.4-2.267-0.867-3.1-1.4-0.833-0.5-1.717-1.217-2.65-2.149-0.267-0.267-0.566-0.7-0.9-1.301l0.35-1.25c-0.033 0.9 0.067 1.534 0.3 1.9 0.233 0.3 0.8 0.684 1.7 1.15 0.433 0.237 1.267 0.77 2.5 1.603 0.933 0.634 1.783 1.05 2.55 1.25 5.1 1.233 8.233 2.017 9.4 2.35 2.466 0.7 5.433 0.867 8.9 0.5 2.2-0.267 3.483-0.466 3.85-0.6 1-0.4 1.767-1.316 2.3-2.75 0.6-1.566 1.2-2.816 1.8-3.75 0.733-1.1 1.684-2.1 2.851-3 0.966-0.767 1.566-1.634 1.8-2.6 0.166-0.667 0.184-1.784 0.05-3.351-0.533-0.033-1.8 0.05-3.8 0.25-1.634 0.167-2.9 0.101-3.8-0.2 2.399-0.632 4.099-1.199 5.099-1.699 1.866-1 2.884-2.301 3.05-3.9 0.033-0.6-0.066-1.217-0.3-1.85-0.4-1-0.616-1.584-0.65-1.75-0.233-1.101-0.416-2.483-0.55-4.15-0.1-1.9-0.184-3.317-0.25-4.25-0.2-1.467-0.316-2.517-0.35-3.15-0.066-1.133 0.083-2.15 0.45-3.05 0.1-0.233 0.383-0.716 0.85-1.45 0.4-0.633 0.65-1.15 0.75-1.55 0.3-1.167 0.233-2.583-0.2-4.25-0.467-1.6-1.1-2.867-1.899-3.8 0.066 0.267 0.366 1.183 0.899 2.75 0.367 1.033 0.517 2 0.45 2.9-0.8-0.066-1.5-0.717-2.1-1.95-0.534-1.434-0.95-2.367-1.25-2.8l-0.9-1.85-0.65-0.15c-0.166 0.4-0.25 0.967-0.25 1.7-0.433 0.8-0.75 1.283-0.949 1.45-0.101-0.1-0.25-0.267-0.45-0.5h0.1c0.233-0.4 0.417-0.983 0.55-1.75 0.167-0.833 0.317-1.417 0.45-1.75 0.467-0.066 0.967 0.45 1.5 1.55 0.634 1.3 1.084 2.05 1.351 2.25 0.066-1.3 0-2.25-0.2-2.85 0.533 0.033 1 0.283 1.399 0.75 0.232 0.233 0.533 0.683 0.899 1.35z" fill="#CFA832"/>
	<path d="m30.85 17.05c0.134 0.267 0.25 0.4 0.351 0.4 0.133 0.633 0.3 1.083 0.5 1.35-0.334 0.067-0.601 0.067-0.8 0 0-0.1-0.101-1.167-0.301-3.2l0.051-0.05 0.249 0.45c-0.167 0.4-0.183 0.75-0.05 1.05z" fill="#C29D2F"/>
	<path d="m38.85 20.45c-0.433-0.833-0.8-1.534-1.1-2.1-0.366-0.667-0.667-1.117-0.9-1.35-0.399-0.467-0.866-0.717-1.399-0.75 0.2 0.6 0.267 1.55 0.2 2.85-0.267-0.2-0.717-0.95-1.351-2.25-0.533-1.1-1.033-1.617-1.5-1.55-0.133 0.333-0.283 0.917-0.45 1.75-0.133 0.767-0.316 1.35-0.55 1.75h-0.1c-0.2-0.267-0.367-0.716-0.5-1.35 0.233-0.034 0.35-0.55 0.35-1.55 0.533-0.733 1.167-0.883 1.9-0.45 0.366 0.233 0.934 0.8 1.7 1.7 0-0.7-0.067-1.25-0.2-1.65 0.633 0.333 1.434 0.883 2.399 1.65 1.101 0.867 1.9 1.45 2.4 1.75 0.2 0.133 0.75 0.383 1.65 0.75 0.666 0.267 1.149 0.583 1.449 0.95 0.134 0.133 0.25 0.4 0.351 0.8 0.133 0.4 0.25 0.667 0.35 0.8 0.134 0.233 0.467 0.683 1 1.35 0.5 0.6 0.816 1.05 0.95 1.35 0.233 0.6 0.233 1.434 0 2.5-0.333 1.367-0.5 2.117-0.5 2.25 0.033 0.733 0.3 1.65 0.8 2.75 0.033 0.067 0.5 0.95 1.4 2.65 0.233 0.467 0.684 1.3 1.35 2.5 0.533 1.134 0.717 2.033 0.55 2.7-0.033 0.066-0.517 0.866-1.449 2.4-0.334 0.566 0.083 1.283 1.25 2.149 0.933 0.733 1.517 1.334 1.75 1.8 0.3 0.7 0.25 1.551-0.15 2.551-0.6 1.566-2 2.983-4.2 4.25 0.233 0.033 1.334-0.051 3.3-0.25 1.367-0.134 2.351 0.05 2.95 0.55 0.566 0.5 0.917 1.149 1.05 1.95 0.101 0.466 0.217 1.183 0.351 2.149 0.066 0.267 0.366 0.851 0.899 1.75 0.434 0.733 0.617 1.367 0.551 1.9-0.101 0.967-0.817 1.733-2.15 2.3-1.2 0.5-2.333 0.684-3.4 0.55-0.267-0.033-0.783-0.25-1.55-0.649-0.6-0.334-1.133-0.45-1.6-0.351-0.7 0.134-1.15 0.617-1.351 1.45-0.233 1-0.416 1.566-0.55 1.7-0.3 0.3-0.7 0.467-1.2 0.5-0.6-0.033-1.083-0.033-1.449 0-0.434 0.033-1.2 0.166-2.301 0.399-0.933 0.2-1.699 0.301-2.3 0.301-1.267 0.033-2.767 0.3-4.5 0.8-2.233 0.633-3.683 1-4.35 1.1-1.8 0.3-3.867 0.351-6.2 0.15-0.033 0-2.067-0.25-6.1-0.75-1.767-0.334-3.066-0.55-3.9-0.65-1.033-0.267-2.183-0.649-3.45-1.149-1.367-1-2.683-1.75-3.95-2.25-1.333-0.601-2.467-0.917-3.4-0.95-0.633-0.4-1.133-0.783-1.5-1.15-0.233-0.6-0.25-1.333-0.05-2.2 0.333 0.601 0.633 1.034 0.9 1.301 0.934 0.933 1.817 1.649 2.65 2.149 0.833 0.533 1.867 1 3.1 1.4 0.434 0.133 0.967 0.416 1.6 0.85 0.733 0.467 1.25 0.767 1.55 0.9 0.566 0.2 1.533 0.35 2.9 0.45 1.967 0.5 3.1 0.783 3.4 0.85 1.233 0.233 2.433 0.35 3.6 0.35 6 0 11.35-0.8 16.05-2.399 0.5-0.167 1.116-0.316 1.85-0.45 0.566-0.233 1.1-0.7 1.6-1.4 0.301-0.399 0.733-1.466 1.301-3.199 0.3-1.034 0.566-1.717 0.8-2.051 0.333-0.533 0.967-0.816 1.899-0.85 0.634 0 1.367 0.35 2.2 1.05 0.834 0.667 1.5 1 2 1-0.5-1.333-1.166-2.566-2-3.7-0.899-1.199-1.35-1.833-1.35-1.899 0-0.033 0.366-0.601 1.1-1.7 0.367-0.566 0.617-1.2 0.75-1.9 0.167-0.933 0-1.583-0.5-1.949-0.2-0.134-0.85-0.101-1.95 0.1-1.233 0.233-1.933 0.35-2.1 0.35 0.366-0.633 0.866-1.416 1.5-2.35 0.5-0.8 0.783-1.7 0.85-2.7 0.034-0.833-0.033-1.833-0.199-3-0.267-1.333-0.45-2.333-0.551-3-0.066-0.434-0.25-1.3-0.55-2.6-0.233-1.067-0.366-1.934-0.399-2.6 0.066-1.233 0.05-2.1-0.051-2.6-0.166-0.833-0.733-1.267-1.699-1.3 1.1-0.7 1.566-1.883 1.399-3.55-0.166-1.467-0.684-2.717-1.55-3.75-0.533-0.636-1-1.286-1.4-1.953z" fill="#C29D2F"/>
	<path d="m30.65 15.55l-0.05 0.05-0.05-0.35c-0.767 0.733-1.35 1.283-1.75 1.65-0.767 0.633-1.517 0.867-2.25 0.7 0.2-0.5 0.467-0.967 0.8-1.4l-0.05 0.25 0.2-0.2c-0.1 0.333-0.133 0.583-0.1 0.75l0.7-1.05c0.267-0.1 0.667-0.267 1.2-0.5 0.434-0.2 0.783-0.467 1.05-0.8h0.25c0.334 0.1 0.567 0.3 0.7 0.6l-0.4 0.75-0.25-0.45z" fill="#C29D2F"/>
	<path d="m27.9 15.5l-0.5 0.45c0.133-0.3 0.383-0.667 0.75-1.1l0.35-0.05-0.6 0.7z" fill="#AD8D32"/>
	<path d="m0.2 62.8c0.367 0.367 0.867 0.75 1.5 1.15l-0.55 0.05c-0.467-0.3-0.783-0.7-0.95-1.2z" fill="#AD8D32"/>
	<path d="m9.55 67.55l-0.5-0.399c1.267 0.5 2.417 0.883 3.45 1.149l-1.5-0.15c-0.533-0.067-1.017-0.266-1.45-0.6z" fill="#AD8D32"/>
	<path d="m31.5 14.65c-3e-3 0.106-0.087 0.306-0.25 0.6-0.167-0.3-0.4-0.5-0.7-0.6 0.319-0.01 0.637-0.01 0.95 0 3.75 0.076 7.116 1.359 10.1 3.85 2.634 2.233 4.851 5.3 6.65 9.2l0.2 0.45 0.05 0.05c-0.9-0.2-1.233 0.55-1 2.25 0.2 1.533 0.5 2.5 0.9 2.9 2 2.133 3.05 4.034 3.149 5.7 0.066 1.434 0.017 2.601-0.149 3.5 0 0.066-0.067 0.217-0.2 0.45-0.101 0.2-0.15 0.366-0.15 0.5 0 0.2 0.066 0.434 0.2 0.7l0.4 0.8c0.8 1.667 1.866 4.233 3.199 7.7 0.634 1.533 1 2.866 1.101 4 0 0.133-0.033 0.434-0.101 0.899-0.033 0.367-0.017 0.634 0.051 0.801 0.1 0.233 0.35 0.566 0.75 1 0.466 0.433 0.75 0.783 0.85 1.05 0.3 0.733 0.366 1.483 0.2 2.25-0.233 1.066-0.517 1.816-0.851 2.25-0.466 0.566-1.183 0.866-2.149 0.899-1.5 0-2.467-0.033-2.9-0.1-1.399-0.434-2.416-0.6-3.05-0.5-0.566 0.066-1.267 0.366-2.1 0.9-1.1 0.667-1.784 1.051-2.05 1.151-1.433 0.5-2.483 0.934-3.149 1.3-0.367 0.233-0.867 0.534-1.5 0.9-0.533 0.267-1.084 0.417-1.65 0.45-3.033 0.133-5.233 0.333-6.6 0.6l-2.201 0.35c-2.2-0.067-4.333-0.167-6.4-0.301l-0.35-0.1c-3.033-0.767-5.15-1.283-6.35-1.55 4.033 0.5 6.067 0.75 6.1 0.75 2.333 0.2 4.4 0.149 6.2-0.15 0.667-0.1 2.116-0.467 4.35-1.1 1.733-0.5 3.233-0.767 4.5-0.8 0.601 0 1.367-0.101 2.3-0.301 1.101-0.233 1.867-0.366 2.301-0.399 0.366-0.033 0.85-0.033 1.449 0 0.5-0.033 0.9-0.2 1.2-0.5 0.134-0.134 0.316-0.7 0.55-1.7 0.2-0.833 0.65-1.316 1.351-1.45 0.467-0.1 1 0.017 1.6 0.351 0.767 0.399 1.283 0.616 1.55 0.649 1.067 0.134 2.2-0.05 3.4-0.55 1.333-0.566 2.05-1.333 2.15-2.3 0.066-0.533-0.117-1.167-0.551-1.9-0.533-0.899-0.833-1.483-0.899-1.75-0.134-0.967-0.25-1.684-0.351-2.149-0.133-0.801-0.483-1.45-1.05-1.95-0.6-0.5-1.583-0.684-2.95-0.55-1.966 0.199-3.066 0.283-3.3 0.25 2.2-1.267 3.601-2.684 4.2-4.25 0.4-1 0.45-1.851 0.15-2.551-0.233-0.466-0.817-1.066-1.75-1.8-1.167-0.866-1.584-1.583-1.25-2.149 0.933-1.534 1.416-2.334 1.449-2.4 0.167-0.667-0.017-1.566-0.55-2.7-0.666-1.2-1.116-2.033-1.35-2.5-0.9-1.7-1.367-2.583-1.4-2.65-0.5-1.1-0.767-2.017-0.8-2.75 0-0.133 0.167-0.883 0.5-2.25 0.233-1.066 0.233-1.9 0-2.5-0.134-0.3-0.45-0.75-0.95-1.35-0.533-0.667-0.866-1.117-1-1.35-0.1-0.133-0.217-0.4-0.35-0.8-0.101-0.4-0.217-0.667-0.351-0.8-0.3-0.367-0.783-0.684-1.449-0.95-0.9-0.367-1.45-0.617-1.65-0.75-0.5-0.3-1.3-0.883-2.4-1.75-0.966-0.767-1.767-1.316-2.399-1.65 0.133 0.4 0.184 0.95 0.149 1.65-0.767-0.9-1.333-1.467-1.699-1.7-0.733-0.434-1.367-0.284-1.9 0.45v-1.25z" fill="#AD8D32"/>
	<path d="m30.35 14.65c-0.267 0.333-0.616 0.6-1.05 0.8-0.533 0.233-0.933 0.4-1.2 0.5l0.75-1.2 1.5-0.1z" fill="#AD8D32"/>
	<path d="m18.1 20.1c0.4-0.2 1.066-0.483 2-0.85 0.9-0.3 1.566-0.583 2-0.85 1.9-1.033 3.133-1.733 3.7-2.1l0.15 1.1c-0.367 0.767-1.017 2.017-1.95 3.75-0.2 0.434-0.417 1.383-0.65 2.85-0.233 1.233-0.533 2.133-0.9 2.7-0.367 0.566-1.117 0.883-2.25 0.95-1.267-0.066-2.167-0.117-2.7-0.15-0.3 0-0.75-0.083-1.35-0.25s-1.05-0.25-1.35-0.25c-0.566 0-1.25 0.317-2.05 0.95-0.9 0.667-1.55 1.05-1.95 1.15 0.067-1.567 1.217-3.533 3.45-5.9 1-0.933 2.283-1.967 3.85-3.1z" fill="#E3BB44"/>
	<path d="m28.4 21.7c-0.1-1.667 0.117-3.1 0.65-4.3l1.2-1.5c0.2 0.333 0.283 0.85 0.25 1.55-0.033 0.367-0.1 0.883-0.2 1.55-0.166 1.133-0.283 1.817-0.35 2.05-0.267 0.6-0.783 0.817-1.55 0.65z" fill="#E3BB44"/>
	<path d="m29.5 16.45l0.65-0.65 0.1 0.1-1.2 1.5c0.133-0.367 0.283-0.683 0.45-0.95z" fill="#E3BB44"/>
	<path d="m33.1 17.85c0.233-0.467 0.45-0.7 0.65-0.7 0.267-0.033 0.634 0.267 1.1 0.9 0.267 0.8 0.4 1.45 0.4 1.95 0.066 1 0.083 1.583 0.05 1.75-0.1 0.633-0.434 0.75-1 0.35-0.366-0.233-0.666-0.8-0.899-1.7-0.201-0.8-0.301-1.65-0.301-2.55z" fill="#E3BB44"/>
	<path d="m33.35 16.15l0.65 0.15 0.85 1.75c-0.466-0.633-0.833-0.933-1.1-0.9-0.2 0-0.417 0.233-0.65 0.7 0-0.733 0.084-1.3 0.25-1.7z" fill="#E3BB44"/>
	<path d="m18 42.2c0.8 0.7 1.567 1.75 2.3 3.149 0.9 1.634 1.567 2.717 2 3.25 0.534 0.667 1.333 1.15 2.4 1.45 1.433 0.4 2.3 0.684 2.6 0.851-1.167 0.666-1.85 1.083-2.05 1.25-0.6 0.466-1 1.066-1.2 1.8-0.267 1-0.483 1.633-0.65 1.899-0.3 0.601-0.783 1.084-1.45 1.45-1.833 0.934-4.267 1.15-7.3 0.65-1.066-0.167-1.867-0.384-2.4-0.65-0.533-0.3-1.083-0.85-1.65-1.649-0.333-0.467-0.883-1.017-1.65-1.65-0.833-0.733-1.4-1.267-1.7-1.6-0.467-0.567-0.967-1.284-1.5-2.15-0.533-1.033-0.95-1.8-1.25-2.3-0.233-0.367-0.65-0.917-1.25-1.65l0.1-1.95c0.133-2.1 0.367-3.8 0.7-5.1 0.4-1.634 1.1-3.383 2.1-5.25 0.1 1.367 0.567 2.616 1.4 3.75 0.267 0.366 0.45 0.55 0.55 0.55 0.4-0.033 0.633-0.05 0.7-0.05 0.467 0.066 1.35 0.116 2.65 0.15 1.233 0.199 2.4 0.649 3.5 1.35 0.767 0.467 1.783 1.283 3.05 2.45z" fill="#E3BB44"/>
	<path d="m31.45 46.3c0.8-0.866 1.45-1.783 1.95-2.75 0.633-1.333 0.767-2.399 0.399-3.2l1 0.301c1-0.167 1.7 0.716 2.101 2.649 0.333 1.601 0.383 2.967 0.149 4.101-0.3 1.333-1.666 2.1-4.1 2.3-0.934 0.1-2.717 0.066-5.35-0.101-0.033-0.433 0.5-1.017 1.6-1.75 1.435-0.966 2.185-1.484 2.251-1.55z" fill="#E3BB44"/>
	<path d="m3.25 58.3c0.933-0.333 1.667-0.666 2.2-1l0.15 0.35c0.3 0.333 0.717 0.616 1.25 0.85 0.333 0.134 0.85 0.316 1.55 0.55 1.733 0.634 3.45 1.533 5.15 2.7 0.6 0.4 1.417 1.017 2.45 1.85 0.567 0.367 1.267 0.717 2.1 1.051 0.467 0.199 1.2 0.483 2.2 0.85 0.867 0.333 2.1 0.616 3.7 0.85 1.733 0.2 2.967 0.417 3.7 0.65-0.4 0.134-0.9 0.217-1.5 0.25-0.667 0.033-1.167 0.083-1.5 0.15-0.6 0.133-1.534 0.133-2.8 0-1.767-0.2-2.7-0.301-2.8-0.301-1.5-0.066-2.5-0.149-3-0.25-0.767-0.166-1.6-0.55-2.5-1.149-0.467-0.3-1.1-0.601-1.9-0.9-1-0.366-1.633-0.616-1.9-0.75-1.167-0.568-3.1-1.917-5.8-4.051-0.967-0.833-1.217-1.4-0.75-1.7z" fill="#E3BB44"/>
	<path d="m28.1 15.95l-0.7 1.05c-0.033-0.167 0-0.417 0.1-0.75l0.6-0.3z" fill="#7D6524"/>
	<polygon points="27.9 15.5 28.5 14.8 28.8 14.75 28.7 14.85" fill="#9C7F2D"/>
	<polygon points="27.8 15.65 28.8 14.75 28.85 14.75 28.1 15.95 27.5 16.25" fill="#7D6524"/>
	<path d="m30.85 17.05c-0.133-0.3-0.116-0.65 0.051-1.05 0.133 0.3 0.233 0.783 0.3 1.45-0.101 0-0.218-0.133-0.351-0.4z" fill="#7D6524"/>
	<path d="m31.55 15.9c0 1-0.116 1.517-0.35 1.55-0.066-0.667-0.167-1.15-0.3-1.45l0.399-0.75c0.134 0.3 0.167 0.617 0.101 0.95l0.15-0.3z" fill="#7D6524"/>
	<path d="m31.6 14.65l-0.05 1.25-0.15 0.3c0.066-0.333 0.033-0.65-0.101-0.95l0.301-0.6z" fill="#7D6524"/>
	<path d="m1.7 63.95c0.933 0.033 2.066 0.35 3.4 0.95 1.267 0.5 2.583 1.25 3.95 2.25l-1.75-0.7c-2.933-1.2-4.8-2.033-5.6-2.5z" fill="#9C7F2D"/>
	<path d="m48.4 33.35c-0.4-0.4-0.7-1.367-0.9-2.9-0.233-1.7 0.1-2.45 1-2.25 1.134 2.566 2.033 5.283 2.7 8.149 0.533 2.334 0.816 4.2 0.85 5.601 0.066 2 1.167 5.383 3.3 10.149 2.334 5.134 3.584 8.15 3.75 9.051 0.334 1.8-0.116 3.166-1.35 4.1-1.066 0.8-2.65 1.2-4.75 1.2-1.066 0-3.517 0.666-7.35 2-4 1.399-7.4 2.184-10.2 2.35-1.233 0.066-3.217 0.101-5.95 0.101l2.2-0.351c1.366-0.267 3.566-0.467 6.6-0.6 0.566-0.033 1.117-0.184 1.65-0.45 0.633-0.366 1.133-0.667 1.5-0.9 0.666-0.366 1.717-0.8 3.149-1.3 0.267-0.1 0.95-0.483 2.051-1.149 0.833-0.534 1.533-0.834 2.1-0.9 0.634-0.1 1.65 0.066 3.05 0.5 0.434 0.066 1.4 0.1 2.9 0.1 0.967-0.033 1.684-0.333 2.149-0.899 0.334-0.434 0.617-1.184 0.851-2.25 0.166-0.767 0.1-1.517-0.2-2.25-0.1-0.267-0.384-0.617-0.85-1.05-0.4-0.434-0.65-0.767-0.75-1-0.067-0.167-0.084-0.434-0.051-0.801 0.067-0.466 0.101-0.767 0.101-0.899-0.101-1.134-0.467-2.467-1.101-4-1.333-3.467-2.399-6.033-3.199-7.7l-0.4-0.8c-0.134-0.267-0.2-0.5-0.2-0.7 0-0.134 0.05-0.3 0.15-0.5 0.133-0.233 0.2-0.384 0.2-0.45 0.166-0.899 0.216-2.066 0.149-3.5-0.099-1.668-1.149-3.569-3.149-5.702z" fill="#7D6524"/>
	<path d="m7.3 66.45l1.75 0.7 0.5 0.399c0.434 0.334 0.917 0.533 1.45 0.601l1.5 0.149c1.1 0.267 2.167 0.45 3.2 0.55l0.7 0.101c1.2 0.267 3.317 0.783 6.35 1.55l0.35 0.1c-5.1-0.366-8.967-0.949-11.6-1.75-2.1-0.633-4-1.383-5.7-2.25-0.9-0.433-2.433-1.283-4.6-2.55l-0.05-0.05 0.55-0.05c0.8 0.467 2.667 1.3 5.6 2.5z" fill="#9C7F2D"/>
	<path d="m39.6 18.45c-0.533-0.467-0.883-0.767-1.05-0.9l-1.65-1.25c-0.9-0.566-1.767-0.833-2.601-0.8l-0.05 0.4c-0.366-0.3-0.634-0.517-0.8-0.65-0.367-0.267-0.7-0.4-1-0.4-0.134-0.033-0.233-0.017-0.3 0.05-0.101 0.1-0.184 0.15-0.25 0.15-0.301 0-0.483 0.034-0.551 0.1-0.133 0.1-0.199 0.25-0.199 0.45-0.034 0.267-0.067 0.433-0.101 0.5l-0.5-0.5-0.2-0.3c-0.1 0.034-0.233 0.017-0.399-0.05-0.2-0.1-0.35-0.167-0.45-0.2-0.133-0.066-0.3-0.066-0.5 0-0.4 0.267-0.717 0.45-0.95 0.55 0.267-0.333 0.25-0.567-0.05-0.7 5.1-0.8 9.55 0.333 13.35 3.4v0.05c-0.433-0.033-1-0.367-1.699-1 0.133 0.133 0.383 0.35 0.75 0.65 0.333 0.333 0.483 0.633 0.449 0.9-0.332 0.067-0.749-0.083-1.249-0.45z" fill="#7D6524"/>
</g>
<path d="m22.65 65.95l0.65 0.15c0.1 0.034 0.7 0.101 1.8 0.2 0.733 0.101 1.233 0.351 1.5 0.75-0.9 0.434-2.05 0.684-3.45 0.75-1.267 0.033-2.45-0.083-3.55-0.35-1.667-0.434-2.133-0.934-1.4-1.5 0.3-0.233 1-0.3 2.1-0.2 0.6 0.033 1.383 0.1 2.35 0.2z" clip-rule="evenodd" fill="#F2CD5E" fill-rule="evenodd"/>
<path d="m15.65 65.1l0.15 0.2v0.8c-0.633-0.033-1.233-0.149-1.8-0.35-0.133-0.5 0.017-0.75 0.45-0.75 0.233-0.033 0.633 0 1.2 0.1z" clip-rule="evenodd" fill="#F2CD5E" fill-rule="evenodd"/>
<path d="m31.3 60.85l0.351 0.601c-0.101 0.733-0.384 1.316-0.851 1.75-0.166 0.2-0.8 0.583-1.9 1.149-0.367 0.167-0.717 0.25-1.05 0.25-0.434-0.033-0.767-0.05-1-0.05-0.4 0-0.717 0.05-0.95 0.15l-0.05 0.2c-0.333 0.1-0.717 0.083-1.15-0.051-0.5-0.166-0.883-0.283-1.15-0.35l-1.55-0.249c-0.533-0.134-1.583-0.566-3.15-1.3-0.8-0.367-1.233-0.7-1.3-1 0.333-0.033 0.8 0.017 1.4 0.149 0.6 0.134 1.05 0.184 1.35 0.15l-0.05-0.05c3.033 0 4.85-0.017 5.45-0.05 0.633-0.101 0.983-0.167 1.05-0.2 1.1 0.066 2.033-0.017 2.8-0.25 0.433-0.133 1.016-0.416 1.75-0.849z" clip-rule="evenodd" fill="#CFA832" fill-rule="evenodd"/>
<path d="m27.9 65.2v-0.1c0.4 0 0.533 0.25 0.4 0.75-1.033 0.101-1.583-0.05-1.65-0.449 0.267-0.201 0.683-0.267 1.25-0.201z" clip-rule="evenodd" fill="#CFA832" fill-rule="evenodd"/>
<path d="m27.75 14.95c0.167-0.067 0.383-0.1 0.65-0.1 0.233-0.033 0.4-0.067 0.5-0.1-0.066 0.267-0.316 0.567-0.75 0.9-0.1 0.2-0.25 0.633-0.45 1.3-0.2 0.533-0.417 0.95-0.65 1.25-0.333 0.367-1.083 0.9-2.25 1.6-0.7 0.367-1.517 0.55-2.45 0.55-0.567 0-0.917-0.017-1.05-0.05-0.167-0.066-0.25-0.183-0.25-0.35l0.15-0.45c0.033-0.1 0.066-0.267 0.1-0.5 0.1-0.267 0.5-0.517 1.2-0.75 0.3-0.1 0.617-0.267 0.95-0.5 0.2-0.133 0.483-0.35 0.85-0.65 0.434-0.3 0.883-0.767 1.35-1.4 0.367-0.534 0.667-0.833 0.9-0.9l0.1-0.05c0.5 0.267 0.867 0.333 1.1 0.2z" clip-rule="evenodd" fill="#7D6524" fill-rule="evenodd"/>
<path d="m30.05 14.95l0.45-0.65h0.25c0.366 0 0.566 0.1 0.6 0.3 0 0.133-0.05 0.383-0.149 0.75-0.167 0.533-0.167 1.117 0 1.75 0.033 0.133 0.1 0.85 0.2 2.15 0 0.633 0.017 1 0.05 1.1 0.066 0.233 0.267 0.316 0.6 0.25 0.566 0 0.884-0.083 0.95-0.25 0.1-0.133 0.083-0.567-0.05-1.3l-0.751-3.45c-0.167-0.467-0.233-0.8-0.2-1 0.267 0.066 0.517 0.316 0.75 0.75l2.2 3.9c0.267 0.467 0.416 0.917 0.45 1.35 0 0.1 0.017 0.283 0.05 0.55s0.017 0.467-0.05 0.6c-0.134 0.333-0.65 0.483-1.551 0.45-0.633 0-1.25-0.067-1.85-0.2-0.333-0.033-0.583-0.067-0.75-0.1-0.233-0.1-0.434-0.25-0.6-0.45-0.034-0.067-0.2-0.534-0.5-1.4-0.134-0.466-0.2-1.167-0.2-2.1 1e-3 -1.333 0.034-2.333 0.101-3z" clip-rule="evenodd" fill="#7D6524" fill-rule="evenodd"/>
<path d="m26.7 13.9l0.25 0.4c0.133 0.233 0.333 0.434 0.6 0.6-0.033 0.967-0.167 1.6-0.4 1.9-0.467 0.534-1.033 1.083-1.7 1.65-0.434 0.367-1.034 0.75-1.8 1.15-0.5 0.3-1.283 0.517-2.35 0.65-1.233 0.167-1.867-0.067-1.9-0.7v-1.15c0.033-0.467 0.4-0.95 1.1-1.45 1.033-0.6 2.3-1.067 3.8-1.4 0.767-0.233 1.567-0.783 2.4-1.65zm-0.5 1.8l0.55-0.95c-0.567 0.633-1.1 1.1-1.6 1.4-0.667 0.434-1.35 0.767-2.05 1l-1.25 0.45c-0.6 0.133-0.917 0.25-0.95 0.35-0.233 0.367-0.333 0.6-0.3 0.7 0.167 0.434 0.633 0.533 1.4 0.3 0.067-0.034 0.333-0.1 0.8-0.2 0.333-0.1 0.567-0.217 0.7-0.35 0.2-0.167 0.55-0.367 1.05-0.6 0.333-0.233 0.883-0.933 1.65-2.1z" clip-rule="evenodd" fill="#855F26" fill-rule="evenodd"/>
<g clip-rule="evenodd" fill="#694B1E" fill-rule="evenodd">
	<path d="m25.85 14.7l0.05-0.05 0.4 0.6c-0.4 0.4-0.783 0.7-1.15 0.9-0.667 0.434-1.35 0.767-2.05 1l-1.25 0.45c-0.167 0.033-0.317 0.066-0.45 0.1-0.233 0.066-0.383 0.133-0.45 0.2-0.333-0.066-0.55-0.2-0.65-0.4 0.5-0.067 1.5-0.367 3-0.9l1.35-0.45c0.133-0.066 0.383-0.167 0.75-0.3 0.167-0.2 0.317-0.583 0.45-1.15z"/>
	<path d="m26.6 15l0.25-0.35 0.1-0.3c0.133 0.2 0.333 0.383 0.6 0.55-0.033 0.967-0.167 1.6-0.4 1.9-0.467 0.534-1.033 1.083-1.7 1.65-0.434 0.367-1.034 0.75-1.8 1.15-0.5 0.3-1.283 0.517-2.35 0.65-1.233 0.167-1.867-0.067-1.9-0.7v-1.15c0-0.167 0.083-0.367 0.25-0.6 0.067 0.733 0.184 1.167 0.35 1.3 0.3 0.267 0.667 0.367 1.1 0.3 0.3 0 0.75-0.066 1.35-0.2 0.833-0.167 1.367-0.333 1.6-0.5 0.434-0.4 1.117-0.967 2.05-1.7 0.533-0.4 0.8-0.817 0.8-1.25 0-0.4-0.15-0.55-0.45-0.45l0.15-0.3z"/>
	<path d="m26.75 14.75l-0.45 0.5-0.4-0.6c0.367-0.333 0.633-0.583 0.8-0.75l0.25 0.4v0.05l-0.1 0.3-0.25 0.35 0.15-0.25z"/>
</g>
<path d="m30.45 13.6c0.188 0.378 0.188 1.345 0 2.9-0.066 1.2-0.05 2.083 0.05 2.65 0.066 0.4 0.184 0.65 0.35 0.75 0.101 0.067 0.367 0.117 0.801 0.15 0.833 0.1 1.316-0.017 1.449-0.35 0.134-0.267 0.067-1.017-0.199-2.25-0.4-1.633-1.101-2.817-2.101-3.55-0.14-0.103-0.257-0.203-0.35-0.3zm0.3-1.35c0.733 0.6 1.417 1.317 2.05 2.15 0.5 0.667 1.017 1.85 1.55 3.55 0.167 0.466 0.25 1.333 0.25 2.6 0 0.3-0.1 0.534-0.3 0.7-0.133 0.1-0.383 0.233-0.75 0.4-0.399 0.133-0.684 0.2-0.85 0.2-2.066 0.233-3.267-0.567-3.6-2.4-0.2-1.233-0.017-2.7 0.55-4.4 0.3-0.833 0.45-1.367 0.45-1.6 0.072-0.024 0.14-0.024 0.2 0-0.151-0.17-0.219-0.32-0.2-0.45 0-0.167 0.067-0.317 0.2-0.45 0.167-0.167 0.334-0.25 0.5-0.25l-0.05-0.05z" clip-rule="evenodd" fill="#855F26" fill-rule="evenodd"/>
<g clip-rule="evenodd" fill-rule="evenodd">
	<path d="m30.4 13.6l-0.15-0.15c-0.134-0.133-0.184-0.284-0.15-0.45 0-0.167 0.067-0.317 0.2-0.45 0.167-0.167 0.334-0.25 0.5-0.25l-0.05-0.05c0.733 0.6 1.417 1.317 2.05 2.15 0.5 0.667 1.017 1.85 1.55 3.55 0.167 0.466 0.25 1.333 0.25 2.6 0 0.3-0.1 0.534-0.3 0.7-0.133 0.1-0.383 0.233-0.75 0.4-0.399 0.133-0.684 0.2-0.85 0.2-0.967 0.1-1.733-0.017-2.3-0.35l1.25-0.05c1.066-0.1 1.75-0.333 2.05-0.7 0.166-0.167 0.25-0.617 0.25-1.35 0.066-0.467-0.017-1.066-0.25-1.8-0.434-0.667-0.717-1.184-0.851-1.55l-0.699-1.6c-0.334-0.567-0.767-0.85-1.301-0.85h-0.449z" fill="#694B1E"/>
	<path d="m30.2 14.75c0-0.533 0.1-0.8 0.3-0.8 0.1 0.533 0.083 1.383-0.05 2.55-0.066 1.2-0.05 2.083 0.05 2.65 0.066 0.367 0.167 0.617 0.3 0.75 0.127 0.064 0.36 0.114 0.7 0.15-0.333 0.1-0.767 0.067-1.3-0.1-0.233-0.067-0.383-0.167-0.45-0.3-0.033-0.1-0.05-0.3-0.05-0.6 0-1.3 0.066-2.25 0.2-2.85 0.2-0.6 0.3-1.083 0.3-1.45z" fill="#694B1E"/>
	<path d="m29.25 18.45c0 0.4-0.05 0.65-0.15 0.75-0.133-1.133 0.05-2.517 0.55-4.15l0.2-0.5-0.1 0.75c0 0.167-0.05 0.383-0.15 0.65-0.033 0.2-0.033 0.483 0 0.85-0.233 0.933-0.35 1.483-0.35 1.65z" fill="#A67D41"/>
	<path d="m33.15 18.9c-0.134-0.767-0.217-1.25-0.25-1.45-0.167-0.667-0.351-1.184-0.551-1.55 0.2 0.2 0.351 0.417 0.45 0.65l0.601 1.8c0 0.333-0.084 0.517-0.25 0.55z" fill="#A67D41"/>
</g>
<g clip-rule="evenodd" fill-rule="evenodd">
	<path d="m20.2 35.1c-1.267 1.333-2.067 3.45-2.4 6.35-0.133 0.833-0.2 1.717-0.2 2.649 1.667-3.633 3.55-7.183 5.65-10.649-1.133 0.233-2.15 0.783-3.05 1.65zm7.75-0.55l-0.15-0.15c-0.533-0.433-1.117-0.717-1.75-0.85-3.066 4.9-5.65 9.834-7.75 14.8l0.35 0.65c0.3 0.5 0.667 0.917 1.1 1.25 2.133-5.267 4.867-10.5 8.2-15.7zm-2.8-5l0.55 0.05 1.7-2.55h3.05l-2.05 2.95c0.7 0.2 1.367 0.483 2 0.85l2.699-3.7 3.351 0.3c-1.4 1.733-2.684 3.466-3.851 5.2 0.801 0.967 1.417 2.167 1.851 3.6l-4.95 1.1v-0.05c-2.833 4.467-5.283 9.184-7.35 14.15 0.3 0.1 0.65 0.149 1.05 0.149 1.433 0.067 2.733-0.416 3.9-1.449 1.1-1 1.9-2.551 2.4-4.65l5.25 1.95c-0.833 3.366-2.217 5.85-4.15 7.45-2.1 1.666-4.683 2.433-7.75 2.3-0.9-0.033-1.817-0.167-2.75-0.4-0.567 1.667-1.117 3.45-1.65 5.351-0.833-0.233-1.684-0.434-2.55-0.601 0.567-2.033 1.167-3.967 1.8-5.8-0.534-0.267-1.117-0.7-1.75-1.3-0.667 1.899-1.333 4.133-2 6.7l-1.75-0.25-0.45-0.351c0.833-3.1 1.667-5.816 2.5-8.149h-0.05c-1.833-2.801-2.367-6.367-1.6-10.7 0.7-4.066 2.2-7.133 4.5-9.2 2.167-1.967 4.85-2.95 8.05-2.95z" fill="#AD8D32"/>
		<linearGradient id="a" x1="22.44" x2="55.013" y1="-30.553" y2="-30.553" gradientTransform="matrix(-.1742 .9847 -.9847 -.1742 -.00040108 .00025159)" gradientUnits="userSpaceOnUse">
		<stop stop-color="#58A617" offset="0"/>
		<stop stop-color="#388C00" offset="1"/>
	</linearGradient>
	<path d="m19.8 34.5c-1.233 1.233-2.05 3.333-2.45 6.3l-0.2 2.7c1.6-3.467 3.483-7.017 5.65-10.65-1.133 0.267-2.133 0.817-3 1.65zm5.45-5.5l1.75-2.5 3.05-0.05c-0.9 1.233-1.6 2.216-2.1 2.95 0.667 0.2 1.35 0.483 2.05 0.85l2.65-3.7 3.35 0.3c-1.4 1.733-2.684 3.467-3.85 5.2 0.8 0.967 1.416 2.167 1.85 3.6l-4.95 1.1v-0.05c-2.867 4.533-5.316 9.233-7.35 14.1l1.05 0.15c1.433 0.066 2.733-0.417 3.9-1.45 1.067-1 1.867-2.55 2.4-4.65l5.25 1.95c-0.8 3.3-2.2 5.767-4.2 7.4-2.033 1.7-4.6 2.467-7.7 2.3-0.933 0-1.85-0.134-2.75-0.4-0.667 1.967-1.217 3.75-1.65 5.351l-2.5-0.601c0.433-1.699 1.017-3.616 1.75-5.75-0.8-0.533-1.367-0.966-1.7-1.3-0.867 2.601-1.533 4.816-2 6.65l-1.75-0.25-0.45-0.351c0.6-2.233 1.417-4.933 2.45-8.1-1.833-2.833-2.367-6.384-1.6-10.65 0.7-4.066 2.2-7.133 4.5-9.2 2.167-1.967 4.833-2.95 8-2.95l0.55 0.051zm2.1 4.8c-0.533-0.433-1.117-0.716-1.75-0.85-3.133 4.967-5.717 9.883-7.75 14.75l0.35 0.649c0.233 0.4 0.6 0.817 1.1 1.25 2.233-5.399 4.967-10.616 8.2-15.649l-0.15-0.15z" fill="url(#a)"/>
	<g fill="#327D00">
		<path d="m19.5 33.65c0.867-0.9 1.867-1.45 3-1.65l-0.7 1.15c-0.733 0.3-1.4 0.75-2 1.35-1.233 1.233-2.05 3.333-2.45 6.3l-0.1 0.95-0.4 0.85c0-0.933 0.066-1.816 0.2-2.649 0.4-3.034 1.217-5.134 2.45-6.301z"/>
		<path d="m12.5 48.95c0.233 0.633 0.567 1.267 1 1.899v0.051l-0.05 0.2c-0.333-0.567-0.65-1.284-0.95-2.15z"/>
		<path d="m33.675 34.75l0.325 0.9-4.95 1.1v-0.05c-2.8 4.434-5.133 8.883-7 13.35l-0.65-0.1c1.934-4.767 4.383-9.483 7.35-14.15v0.05l4.925-1.1z"/>
		<path d="m17.95 47.55l-0.4-0.7c2.1-4.966 4.684-9.899 7.75-14.8 0.733 0.233 1.317 0.517 1.75 0.85l0.15 0.15-0.25 0.45c-0.534-0.3-0.983-0.483-1.35-0.55-3.033 4.833-5.583 9.7-7.65 14.6z"/>
		<path d="m35.05 26.75l0.95 0.1c-1.434 1.833-2.667 3.483-3.7 4.95l-0.45-0.65 3.2-4.4z"/>
		<path d="m29.8 53.35c1.8-1.5 3.134-3.75 4-6.75l0.5 0.2c-0.8 3.3-2.2 5.767-4.2 7.4-2.033 1.7-4.6 2.467-7.7 2.3-0.933 0-1.85-0.134-2.75-0.4-0.667 1.967-1.217 3.75-1.65 5.351l-2.5-0.601 0.2-0.75 2 0.5c0.533-1.899 1.083-3.683 1.65-5.35 0.933 0.233 1.85 0.366 2.75 0.4 3.033 0.166 5.6-0.6 7.7-2.3z"/>
		<path d="m16.75 54.75c-0.667-0.5-1.067-0.816-1.2-0.95-0.867 2.601-1.533 4.816-2 6.65l-1.75-0.25-0.45-0.351 0.15-0.5 1.7 0.25c0.4-1.5 1.066-3.716 2-6.649 0.733 0.6 1.316 1.017 1.75 1.25l-0.2 0.55z"/>
		<path d="m27.65 28.55l1.45-2.1h0.95c-0.733 0.966-1.283 1.75-1.65 2.35l-0.75-0.25z"/>
	</g>
	<g fill="#65B821">
		<path d="m27.45 34.05l0.6 0.4c-3.233 5.033-5.983 10.267-8.25 15.7l-0.65-0.65 0.15 0.1c2.133-5.234 4.85-10.416 8.15-15.55z"/>
		<path d="m22.3 33.7l1.05-0.3c-2.167 3.567-4.05 7.1-5.65 10.6l0.1-1.8c1.4-2.933 2.9-5.766 4.5-8.5z"/>
		<path d="m27.15 50.05c-1.133 1.033-2.433 1.517-3.9 1.45l-1.05-0.15 0.2-0.449 0.35 0.05c1.433 0.066 2.733-0.417 3.9-1.45 1.067-1 1.867-2.55 2.4-4.65l5.25 1.95-0.1 0.3-4.65-1.701c-0.5 2.1-1.3 3.65-2.4 4.65z"/>
		<path d="m24.7 28.95l0.55 0.05 1.75-2.5 3.05-0.05-0.4 0.55-2.15 0.05-1.7 2.5-0.6-0.05c-3.167 0-5.833 0.983-8 2.95-2.3 2-3.8 5.066-4.5 9.2-0.767 4.267-0.233 7.816 1.6 10.649h0.05c-0.9 2.434-1.717 5.084-2.45 7.95l-0.1-0.05-0.45-0.351c0.6-2.233 1.417-4.933 2.45-8.1-1.833-2.833-2.367-6.384-1.6-10.65 0.7-4.066 2.2-7.133 4.5-9.2 2.167-1.965 4.833-2.948 8-2.948z"/>
		<path d="m16.1 61l-0.6-0.15c0.533-2.033 1.1-3.899 1.7-5.6l0.55 0.35c-0.6 1.8-1.15 3.6-1.65 5.4z"/>
		<path d="m28.65 29.65l1.35 0.6 2.65-3.7 3.35 0.3-0.35 0.45-2.5-0.2-2.65 3.7c-0.733-0.4-1.417-0.683-2.05-0.85l0.2-0.3z"/>
	</g>
</g>
</svg>
