<?xml version="1.0" encoding="UTF-8"?>
<svg version="1.1" viewBox="0 0 157.29019 133.63273" xmlns="http://www.w3.org/2000/svg" xmlns:xlink="http://www.w3.org/1999/xlink">
 <defs>
  <linearGradient id="b">
   <stop stop-color="#fff" stop-opacity="0" offset="0"/>
   <stop stop-color="#fff" offset="1"/>
  </linearGradient>
  <linearGradient id="a">
   <stop stop-color="#565248" offset="0"/>
   <stop stop-color="#807d74" offset=".5"/>
   <stop stop-color="#fff" offset="1"/>
  </linearGradient>
  <linearGradient id="e" x1="53.335" x2="54.856" y1="91.645" y2="49.989" gradientTransform="matrix(1.3681 0 0 .90908 -10.002 -24.959)" gradientUnits="userSpaceOnUse">
   <stop stop-color="#9db8d2" offset="0"/>
   <stop stop-color="#4b6983" offset=".76209"/>
   <stop stop-color="#314e6c" offset="1"/>
  </linearGradient>
  <linearGradient id="c" x1=".67451" x2=".15294" y1="1.9767" y2=".52326">
   <stop stop-opacity=".35052" offset="0"/>
   <stop stop-opacity=".13402" offset=".65"/>
   <stop stop-opacity="0" offset="1"/>
  </linearGradient>
  <linearGradient id="n" x1="111.5" x2="107.05" y1="131.25" y2="148.79" gradientTransform="matrix(1.3649 0 0 .91122 -10.002 -24.959)" gradientUnits="userSpaceOnUse">
   <stop stop-opacity=".52893" offset="0"/>
   <stop stop-opacity=".17355" offset=".5"/>
   <stop stop-opacity="0" offset="1"/>
  </linearGradient>
  <linearGradient id="l" x1="146.7" x2="74.534" y1="224.58" y2="81.477" gradientTransform="matrix(1.3238 0 0 .93947 -10.002 -24.959)" gradientUnits="userSpaceOnUse">
   <stop offset="0"/>
   <stop stop-color="#fff" offset="1"/>
  </linearGradient>
  <linearGradient id="k" x1="101.11" x2="95.1" y1="177.78" y2="173.03" gradientTransform="matrix(1.5169 0 0 .81991 -10.002 -24.959)" gradientUnits="userSpaceOnUse">
   <stop stop-opacity="0" offset="0"/>
   <stop stop-opacity=".22" offset="1"/>
  </linearGradient>
  <linearGradient id="f" x1="92.438" x2="27.674" y1="-3.9103" y2="91.077" gradientTransform="matrix(1.3681 0 0 .90908 -10.002 -24.959)" gradientUnits="userSpaceOnUse" xlink:href="#a"/>
  <linearGradient id="d" x1="-77.726" x2="95.644" y1="208.44" y2="11.699" gradientTransform="matrix(1.2227 0 0 1.0172 -10.002 -24.959)" gradientUnits="userSpaceOnUse" xlink:href="#a"/>
  <linearGradient id="u" x1="45.686" x2="42.571" y1="110.44" y2="239.58" gradientTransform="matrix(2.1303 0 0 .58382 -10.002 -24.959)" gradientUnits="userSpaceOnUse" xlink:href="#a"/>
  <linearGradient id="t" x1="31.45" x2="31.617" y1="203.5" y2="251.22" gradientTransform="matrix(2.3477 0 0 .52977 -10.002 -24.959)" gradientUnits="userSpaceOnUse" xlink:href="#b"/>
  <linearGradient id="s" x1="39.811" x2="17.876" y1="90.197" y2="113.72" gradientTransform="matrix(1.4729 0 0 .84439 -10.002 -24.959)" gradientUnits="userSpaceOnUse" xlink:href="#b"/>
  <linearGradient id="r" x1="52.281" x2="79.135" y1="55.708" y2="23.3" gradientTransform="scale(1.3291 .75236)" gradientUnits="userSpaceOnUse" xlink:href="#b"/>
  <linearGradient id="q" x1="35.19" x2="8.3461" y1="76.278" y2="105.43" gradientTransform="scale(1.3284 .75279)" gradientUnits="userSpaceOnUse" xlink:href="#b"/>
  <linearGradient id="p" x1="13.388" x2="13.388" y1="178.49" y2="234.27" gradientTransform="matrix(2.7007 0 0 .46051 -10.002 -24.959)" gradientUnits="userSpaceOnUse" xlink:href="#a"/>
  <linearGradient id="o" x1="51.461" x2="-16.225" y1="269.86" y2="176.29" gradientTransform="matrix(2.7007 0 0 .46051 -10.002 -24.959)" gradientUnits="userSpaceOnUse" xlink:href="#a"/>
  <linearGradient id="m" x1="141.6" x2="88.447" y1="228.39" y2="133.55" gradientTransform="matrix(1.3203 0 0 .94201 -10.002 -24.959)" gradientUnits="userSpaceOnUse" xlink:href="#a"/>
  <linearGradient id="j" x1="88.756" x2="88.997" y1="169.1" y2="182.99" gradientTransform="matrix(1.5274 0 0 .81427 -10.002 -24.959)" gradientUnits="userSpaceOnUse" xlink:href="#b"/>
  <linearGradient id="i" x1="-231.22" x2="-294.69" y1="277.35" y2="100.47" gradientTransform="scale(1.0902 .91729)" gradientUnits="userSpaceOnUse" xlink:href="#c"/>
  <linearGradient id="h" x1="-231.54" x2="-297.18" y1="283.78" y2="100.87" gradientTransform="scale(1.088 .91911)" gradientUnits="userSpaceOnUse" xlink:href="#c"/>
  <linearGradient id="g" x1="-231.05" x2="-298.72" y1="289.79" y2="101.23" gradientTransform="scale(1.0871 .91984)" gradientUnits="userSpaceOnUse" xlink:href="#c"/>
 </defs>
 <path d="m25.155 0c-3.3591-1e-5 -6.064 2.7049-6.064 6.064v54.924c0 3.3591 2.7049 6.064 6.064 6.064h2.0562v4.6003h-5.6806c-1.5501 1e-5 -3.2061 1.1428-3.9381 2.5092l-10.698 19.97c-1.4489 2.7045 2.2988 7.4929 5.367 7.4929h98.069c2.6074 0 6.5483-3.391 5.367-5.7155l-1.2546-2.5092c3.5041-1.1138 7.3676-5.1693 13.417-2.1607 9.1361 4.4201 14.156 6.1346 20.841 0.80156 7.5034-3.2968 3.2527 2.2039-2.6835 9.3051-0.8907-0.50091-1.6797-1.0936-2.7183-1.394 0 0-9.3057-1.9677-15.369 1.7774-6.0634 3.745-15.216 10.693-16.554 12.476-1.5159 1.9617-1.514 6.038 0.52276 7.4929l6.2382 4.4609c3.8746 2.7676 11.182 4.163 14.811 1.0804l16.589-14.114c2.0185-1.7146 3.0264-6.2148 1.2198-7.8414-0.61192-0.94133-1.5922-1.9616-2.788-2.8926 2.4019-2.1632 5.236-5.4287 7.0398-9.9324 4.4834-10.887-9.7932 2.2562-15.892 0.10455-6.0987-2.1516-15.518-8.4194-22.723-3.1714-1.5484 1.1278-2.5372 1.519-3.2062 1.5683l-0.80156-1.5334c0.61243-1.7315 2.8355-4.341 5.7503-5.2276 5.8297-2.0196 8.8745-5.4264 8.9217-8.6429 0.0472-2.9701-5.4894-5.9564-11.048-8.6429-5.8047-2.6865-13.879-4.2463-15.857-3.8684-0.34718-0.11465-0.55995 0.02098-0.87126 0 0.23317-0.64562 0.38336-1.3282 0.38336-2.0562v-54.922c-0.013-3.3591-2.718-6.064-6.077-6.064h-68.446zm77.751 65.101c7.3741 0.27779 21.161 6.2768 21.398 10.072 0.18313 3.1026-9.3902 6.4966-13.87 10.385l-5.7852-11.396c-0.85165-1.6758-2.7901-2.5092-4.67-2.5092h-8.5384v-4.6003h2.1607c1.5453 0 2.9392-0.62315 4.0078-1.5683 0.60234 0.14115 1.3629 0.22918 2.6138-0.13941 0.73402-0.21628 1.63-0.28363 2.6835-0.24395z" fill="#fff" fill-rule="evenodd"/>
 <g transform="matrix(1.1152 0 0 .96416 386.22 -10.996)">
  <path d="m-270.86 33.815c-18.498 0.111-37.075-0.22221-55.523 0.16675-5.0536 1.7146-4.6412 7.9179-4.3042 12.172-0.0726 14.074 0.14987 28.145 0.47357 42.215 1.9987 2.6714 6.994 2.2501 7.527 6.1708 1.9042 1.7204 5.634 0.34313 8.2458 0.79422l47.667 0.0811c0.41628-4.9492 6.6461-6.5899 10.954-5.8741-0.19905-0.48187-5.8777-1.6009-3.7981-5.0487 0.1591-15.764 0.41857-31.609-0.20473-47.323-1.3733-4.1876-7.5212-3.3346-11.037-3.3532zm34.206 63.445c1.8616 2.866-0.4354 5.8334-3.2771 6.9031-2.7022 1.7518-5.6621 3.4664-8.6 4.6045-4.6484-0.57725-2.8953-6.8833-6.4839-8.8714-5.3231-3.4496-12.198-1.4572-18.22-1.9574l-55.775 0.02893c-6.4508 5.5976-10.158 13.435-12.542 21.354 4.2989 4.8843 11.654 2.954 17.446 3.0782 25.459-0.16831 50.988 0.21544 76.405-0.1546 4.2972-1.0987 0.25212-7.3965 4.1141-9.201 0.84623-0.31067-4.2276 1.3938-3.6772-1.4149 1.7709-4.9693 8.1209-5.6336 11.339-9.2614 1.5321-2.6124-0.3462-5.4456-2.4071-7.1076l1.6786 2zm-3.9907 14.492c-2.9983 1.3796 3.6146-1.0573 5.0874 0.22106 5.844 0.77048 11.391 5.2226 17.432 3.2558-7.8528 1.0865-14.675-6.1994-22.519-3.4769zm28.632 0.58461c-3.9709 1.513 3.7954-0.15959 1.932 3.5384-2.4308 4.0629 3.0888-2.0095 0.46447-3.3289-0.54762-0.60045-1.6655-0.0701-2.3965-0.20953zm-1.9637 8.4922c-6.1642 3.4967-14.404-1.7482-19.885 3.5649-4.5047 3.6062-10.711 5.9575-13.183 11.357-0.61592 3.8508 3.7922 6.1513 6.5976 7.9669 4.8444 2.827 11.623 2.0358 15.245-2.2897 4.574-3.4672 8.759-7.3435 12.715-11.461-0.34109-3.0173-1.951-6.3281-1.4886-9.1384z" fill="url(#i)"/>
  <path d="m-269.68 32.257c-19.085 0.09423-38.191-0.0074-57.263 0.09231-5.6909 1.3142-6.9565 7.942-6.268 12.8 0.096 14.748 0.14126 29.511 0.59868 44.246 0.73146 3.9155 7.7572 2.7039 7.5063 7.0461-2.9609-0.25618-6.4424-0.12376-7.9615 2.8056-5.8531 5.7374-8.9206 13.418-11.2 21.04 4.047 5.6795 12.008 5.0277 18.243 4.4307 25.863 0.0102 51.746 0.10292 77.597 0.0615 4.0082 8e-3 5.1257-4.423 4.4658-7.5692 1.0807-4.2745 6.9258-3.2644 10.159-2.2248 5.7887 1.6578 12.543 5.4456 18.227 1.3908 4.2189-2.6578 2.523 2.027-0.19954 3.0575-5.046 2.8245-11.312-0.45166-16.617 1.7751-4.1356 2.681-8.3503 5.6439-12.37 8.5381-3.5754 2.268-7.1427 7.6396-3.3707 11.226 4.3447 5.0563 11.763 8.4796 18.455 6.1134 4.5886-2.2268 7.8904-6.3325 12.067-9.1999 2.5108-2.1919 5.123-4.6182 6.7779-7.3845-0.0273-3.5801-3.8478-8.589 0.58549-10.932 2.9958-1.618 4.4415-7.4492 0.49886-8.6907-4.4167-1.4325-7.1984 4.2189-11.684 2.8066-7.0361-0.9185-14.119-6.4812-21.262-2.9617-4.1962 2.3411-0.77243-1.2887 1.2441-2.1589 3.5991-1.7192 8.7238-4.1975 7.5089-8.9477-0.32552-4.5339-5.2759-6.4202-9.0068-7.8946-4.663-2.6482-10.317-2.378-15.108-4.7898 0.16834-16.548 0.47277-33.169-0.20489-49.672-0.94349-4.8678-7.3325-5.3006-11.419-5.0042zm11.022 59.507c7.1567 0.47533 15.451 1.7101 20.08 7.5076-0.38013 3.7884-5.4206 4.5306-7.9458 6.8692-2.3945 2.34-4.5955-0.33579-4.5014-2.8692-1.6789-4.9352-7.1762-7.5608-12.289-6.7384-3.6872 0.1923-0.40094-4.5957 1.9234-4.153 0.91118-0.20185 1.8198-0.42643 2.7324-0.61618z" fill="url(#h)"/>
  <path d="m-324.04 30.709c-12.309 0.11146-11.117 8.9437-10.755 14.604 0.24786 15.123 0.40862 30.286 0.78242 45.385 0.80718 2.3591 3.2998 3.2874 5.2576 4.5538-5.7006 1.2242-8.2152 7.1799-11.357 11.341-2.2212 4.7723-7.7284 9.3356-5.8094 14.843 1.9191 5.5077 13.704 6.2454 20.967 5.6922 25.885-0.0308 51.784 0.0204 77.66-0.0615 3.9941-0.89757 6.297-5.0311 5.796-8.8307 3.1969-3.2827 8.1725-0.20606 11.965 0.39357 3.8165 0.68311-3.0317 0.64525-3.6607 1.9185-5.0424 2.4095-9.423 6.106-13.716 9.5566-3.537 2.8684-5.5132 8.0023-2.6644 11.977 3.361 3.8405 8.1592 6.7605 13.27 7.7139 5.6491 1.0415 10.733-1.9695 14.688-5.5555 4.7418-3.6424 9.5284-7.4579 12.772-12.435 1.0806-3.5416-2.6309-7.9388 0.76013-10.708 3.1491-2.6368 4.0146-8.0772 0.66512-10.831-5.4015-3.4545-10.948 4.2838-16.479 1.024-4.045-1.1254-8.0161-2.7653-12.28-2.8393 4.6496-2.5717 6.5477-9.6696 2.0873-13.299-5.5261-5.749-14.366-6.3595-21.312-9.4089-0.4681-6.8042-0.13483-13.772-0.30746-20.646-0.0982-9.368-0.0294-18.786-0.23097-28.123-2.0961-5.7395-9.3999-6.5363-14.823-6.2461-18.644 0.04103-41.124-0.13238-53.277-0.02092zm68.575 63.774c5.1196 1.1382 10.772 1.7336 14.633 5.5692-1.5438 2.4982-4.4432 3.5928-6.9679 4.923-1.9146-5.2904-6.598-10.005-12.713-9.8368-0.15525-1.007 3.7812-0.58708 5.0486-0.6554z" fill="url(#g)"/>
 </g>
 <path d="m27.164 62.762h64.201v9.2735h-64.201z" fill="url(#p)" fill-rule="evenodd" stroke="url(#o)" stroke-width="2.0176"/>
 <path d="m100.1 63.063c-3.9447-1.3027-5.8243 4.0458 0.0478 2.3155 5.8722-1.7303 23.826 5.4672 24.097 9.8043 0.27055 4.5836-21.048 9.7979-15.204 16.314 5.4502 7.0005 9.6061-4.7794 18.742-0.23604 9.1362 4.4201 14.178 6.1463 20.863 0.81326 7.6341-3.3542 3.1127 2.3807-2.984 9.6608s4.933 1.6472 9.2932-9.2395c4.4834-10.887-9.7927 2.2476-15.891 0.09602-6.0987-2.1516-15.53-8.4265-22.735-3.1785-7.2049 5.248-4.0676-3.4155 1.7622-5.1886 5.8297-2.0196 8.8741-5.417 8.9213-8.6335 0.0472-2.9701-5.4977-5.9661-11.056-8.6526-5.8047-2.6865-13.878-4.2533-15.857-3.8754z" fill="url(#l)" fill-rule="evenodd"/>
 <path d="m6.8407 94.154c-1.4489 2.7045 2.2819 7.4901 5.3501 7.4901h98.085c2.6075 0 6.5314-3.3822 5.3501-5.7068l-11.06-21.752c-0.85165-1.6758-2.7569-2.4967-4.6367-2.4967h-78.468c-1.5501 0-3.1914 1.1303-3.9234 2.4967l-10.701 19.973z" fill="url(#u)" fill-rule="evenodd"/>
 <path d="m25.074 0.036999h68.481a6.0634 6.0634 0 0 1 6.064 6.0634v54.928a6.0634 6.0634 0 0 1 -6.0634 6.0634h-68.482a6.0634 6.0634 0 0 1 -6.063 -6.063v-54.928a6.0634 6.0634 0 0 1 6.0634 -6.0634" fill="url(#d)" fill-rule="evenodd"/>
 <path d="m27.231 10.389h64.881v42.428h-64.881z" fill="url(#e)" fill-rule="evenodd" stroke="url(#f)" stroke-width="2.0422"/>
 <path d="m20.879 33.971-0.35667 24.432c-0.05687 3.8948 2.1631 6.3888 6.0634 6.4201l44.406 0.35667 4.2801-9.9868-49.577-0.35667-0.35667-21.044-4.4584 0.17834z" fill="url(#s)" fill-rule="evenodd"/>
 <g transform="matrix(1.1152 0 0 1.1152 -10.002 -24.959)" fill-rule="evenodd">
  <path d="m42.062 33.46 35.279-0.4523c5.4459-0.06982 12.212 5.4087 12.212 10.855v16.283l-47.943-0.4523 0.4523-26.233z" fill="url(#r)"/>
  <path d="m78.338 67.629-31.614 0.096c-4.88 0.014-10.895-4.954-10.847-9.834l0.14305-14.589 42.953 0.82647-0.63573 23.501z" fill="url(#q)"/>
 </g>
 <path d="m143.22 99.972s-9.2735-1.9617-15.337 1.7834c-6.0634 3.745-15.248 10.7-16.585 12.484-1.5159 1.9617-1.5018 6.0352 0.53499 7.4901l6.2418 4.4584c3.8746 2.7676 11.173 4.1527 14.802 1.07l16.585-14.089c2.0185-1.7147 3.055-6.2202 1.2484-7.8468-1.2839-1.975-4.035-4.3508-7.4901-5.3501z" fill="url(#m)" fill-rule="evenodd"/>
 <path d="m148.75 110.14-18.332 13.894c-3.2775 2.484-8.0916 0.58105-10.737 0.19467-2.6453-0.38638-4.9042-2.1103-4.6367-1.605 0.26752 0.50529 3.2992 3.7748 6.2417 4.6367 2.9426 0.86197 8.0656 2.6802 10.915-0.373 2.8496-3.0532 19.759-14.072 16.548-16.747z" fill="url(#k)" fill-rule="evenodd"/>
 <path d="m137.33 117.25c3.5667-5.1718-13.375-16.05-25.68-0.53502 1.2483 4.1017 8.6112 6.1996 14.206 5.9055 5.4206-0.28498 8.5619-2.636 11.475-5.3705z" fill="url(#j)" fill-rule="evenodd"/>
 <path d="m144.61 100.71c-2.9429 0.60716-7.0451 1.9491-9.7686 4.1269-1.2326-0.78457-5.0717-2.0252-6.9229-2.8312l-0.47057 0.29022c7.1677 3.4902 14.709 4.246 14.092 9.7822 0.50723 0.12164 1.3092 0.24573 0.94792-0.54428-0.35035-3.8862-4.713-5.7491-6.3623-6.2155 2.3924-2.843 5.8304-3.4643 8.4842-4.6084z" fill="url(#n)" fill-rule="evenodd"/>
 <path d="m11.066 93.794c-1.0184 2.0431 0.31483 5.6582 3.7604 5.6582h92.291c1.8327 0 4.5908-2.555 3.7604-4.311l-7.7716-16.436c-0.59862-1.266-1.9378-1.8861-3.259-1.8861l-78.503-1.1e-5c-1.0896 0-2.2431 0.85385-2.7576 1.8861l-7.5209 15.088z" fill="url(#t)" fill-rule="evenodd"/>
</svg>
