<?xml version="1.0" encoding="UTF-8"?>
<svg viewBox="0 0 640 480" xmlns="http://www.w3.org/2000/svg">
 <g fill-rule="evenodd" stroke-width=".5">
  <path d="m354 70q8-0.5 16.5 1.5t25 12 21 11 17.5-6 25-11 28-4.5 27 2 23 8.5 22 14 19.2 19.7q9.3 11.8 23.3 30.8t38 44.5 35 38.5 15.5 22 5 18-0.5 12.5-7 14-35.7 40.7q-29.8 30.3-36.8 40.8t-20.2 37.8q-13.3 27.2-24.8 47.7t-21.5 32-24.7 22.7q-14.8 11.3-36.8 22.3t-36.5 26.5-26.7 25.8q-12.3 10.2-29 19.4-16.8 9.3-37.8 17.3t-43.5 13-50 5-43.5-4-34.5-12.5-31.5-17.5-20.5-18.5-11.3-19.2q-3.7-9.8-4.2-20.3t1.5-20.5 9-27 15.5-36.5 17.5-55 16-56 7.5-33-2-23.5-13-34-11-32 2.5-16.5 7.7-13.3q4.8-5.7 16.8-15.2t44.2-40.8q32.3-31.2 48-44.4 15.8-13.3 29.8-21.8t26-12.5 20-4.5zm119.5 464l-1.5 0.5-1 0.5-1 0.5-1 0.5-1 0.5-1 0.3-1 0.2 0.2-1.5 0.3-1.5 0.5-1 0.5-1 0.5-1 0.5-1 0.5-1q0.5-1 1-2t23-68 29-80 14.5-22 19.7-17.8q11.8-8.7 38.8-21.7t33.2-17.3q6.3-4.2 7.8-9.7t-1-12-10-15.5-19.5-19.5-30.3-22.7q-18.2-12.3-37.2-20.8t-36.5-13.5-29.5-5.5-23.5 2.5-35 3.5-41.5-2.5-31-4-16.5-0.5-21 7-43.5 18-33 17.5-9.8 13.3q-2.7 7.2-1.2 14.7t7.5 17.5 7.3 13.5q1.2 3.5 0.2 3.5t-1.5 1.2q-0.5 1.3-12.7 16.6l-12.3 15.2-0.3 0.2-0.2 0.3-0.2 0.3-0.3 0.2-0.5 1-0.5 1-0.3 0.2-0.2 0.3-0.2 0.3-0.3 0.2-0.3 0.2-0.2 0.3h-1l-0.2-0.3-0.3-0.2-3-15.5q-3-15.5-10.5-32.5t-11-25-2.5-15 4.5-12.5 11.2-12.3q7.8-6.7 15.6-13 7.7-6.2 40.4-38 32.8-31.7 49.3-44.7t30-20 20-8.5 16.5-1 17 4 20 11.5 21.5 8 26.5-9 28-11 22-1.5 25 5 23.2 11.8q10.3 7.2 17.3 14.2t24.7 31.2q17.8 24.3 40.6 49 22.7 24.8 33.7 36.8t16 20.5 6 11.5 0.5 9-4.8 13.8q-4.2 7.7-16.4 21-12.3 13.2-32.3 33.2t-30.5 38-26.8 51.2q-16.2 33.3-26 46.6-9.7 13.2-21 23-11.2 9.7-27.2 19.2t-19 11-4.5 2zm-213.5-313l-0.5-1-0.5-1-0.5-1-0.5-1-0.5-1-0.3-1.5-0.2-1.5 1-0.2 1-0.3 32-12.5q32-12.5 36.5-13.2 4.5-0.8 3.7 19.2-0.70001 20-7.4 22.8-6.8 2.7-27.8 2.7t-26-2.5-7.2-4.8q-2.3-2.2-2.8-3.2zm75.2-18.2l0.8-16.3 10.5 1.5q10.5 1.5 28.5 4t24 2.8l6 0.2v20q0 20-4 21.2-4 1.3-19.5 1.8t-25.5-1.5-13.5-4.5-5.7-7.8q-2.3-5.2-1.6-21.4zm114.3-12.3q12.5-3 24-2.3 11.5 0.8 13.3 22.8 1.7 22 0.70001 23.5-1 1.5-4.7 3.3-3.8 1.7-30.3 2.2t-33.5-2-8.8-5.2q-1.7-2.8-1.4-20.3 0.20001-17.5 14.2-18.3 14-0.7 26.5-3.7zm103 24.5l14.5 8.5 0.2 0.3 0.3 0.2 0.3 0.2 0.2 0.3 1 0.3 1 0.2-0.2 1-0.3 1-0.5 1-0.5 1-0.5 1-0.5 1-0.3 0.2-0.2 0.3-0.2 0.3-0.3 0.2-0.3 0.2-0.2 0.3-1 0.5q-1 0.5-7.5 2.5t-28.5 2-27-1.5-7.8-6.2q-2.7-4.8-4-22.3-1.2-17.5 4.3-16.3 5.5 1.3 24.5 8.3t33.5 15.5zm-256.5 20.5h9l0.2-0.3 0.3-0.2 0.3 0.2 0.2 0.3 3.5 0.5 3.5 0.5-1 0.5-1 0.5-2 0.5-2 0.5-1 0.5-1 0.5-1.5 0.5q-1.5 0.5-16 6.5t-30 16.7q-15.5 10.8-15.5 11.8t-1 1.2l-1 0.3-0.2 0.3-0.3 0.2-0.3 0.2-0.2 0.3h-2l-0.2-0.3-0.3-0.2-7-12q-7-12-7.5-15t0.5-8.5 7.7-12.3q6.8-6.7 15.3-10.4 8.5-3.8 12.3 2.7 3.7 6.5 9.4 9.7 5.8 3.3 12.8 3.8t16 0.5zm209.2 163.5h-0.20001l-0.2 1.5q-0.29999 1.5-4.3 13t-19 57.5-22 60-20.5 29-25.2 24.8q-11.8 9.7-27.8 18.2t-35.5 16-40.5 12-46.5 4.5-37-2.5-30-10.5-31-16-19.7-16.3q-7.3-8.2-10.8-16.7t-4-18 1.5-18.5 17-43.5 22.5-63.5 14-52 14.5-38.5 19.3-29.7q11.2-14.3 24.4-26.6 13.3-12.2 26.6-20.2l13.2-8h0.5l0.3-0.2 0.2-0.3 1-0.5 1-0.5 1-0.5 1-0.5 1-0.5 1-0.5 19-5.5q19-5.5 28.5-6.5t17.5 0.5 24 1 22.5-2.5 12 1 8.5 3.5 26.5 0.5 30.5-2 9-4.7q2-2.8 8.5 0.39999 6.5 3.3 32.5 3.3t32.5-3 8.5-6.3q2-3.2 5.8-1.2 3.7 2 18.7 14.5t22.5 21 9.5 12.5 1.5 9-14.2 12.2q-13.8 7.3-33.8 17.3t-31.2 18.7q-11.3 8.8-19.3 17.8t-14 21-8.5 18.5-2.8 6.5z" stroke="#000"/>
  <path d="m296 235.5h9l0.2-0.3 0.3-0.2 0.3 0.2 0.2 0.3 3.5 0.5 3.5 0.5-1 0.5-1 0.5-2 0.5-2 0.5-1 0.5-1 0.5-1.5 0.5q-1.5 0.5-16 6.5t-30 16.7q-15.5 10.8-15.5 11.8t-1 1.2l-1 0.3-0.2 0.3-0.3 0.2-0.3 0.2-0.2 0.3h-2l-0.2-0.3-0.3-0.2-7-12q-7-12-7.5-15t0.5-8.5 7.7-12.3q6.8-6.7 15.3-10.4 8.5-3.8 12.3 2.7 3.7 6.5 9.4 9.7 5.8 3.3 12.8 3.8t16 0.5z" fill="#600200" stroke="#600200"/>
  <path d="m361.5 255l2.5 0.5 1.5 0.5 1.5 0.5 1 0.3 1 0.2-0.2 1-0.3 1-0.5 1-0.5 1-0.3 0.2-0.2 0.3-0.2 0.3-0.3 0.2-11.5 15q-11.5 15-22.5 35t-20 44-13 40-4.5 19.5l-0.5 3.5-0.3 1-0.2 1h2l0.2 1 0.3 1 0.3-1 0.2-1h2l0.2-1 0.3-1 17.7-37.8q17.8-37.7 31-60 13.3-22.2 24.6-36.4 11.2-14.3 12.7-16.6 1.5-2.2 2.5-2.2t3.5-2.8q2.5-2.7 13-2.7t18 2 8.5 3-0.5 1.3q-1.5 0.20001-1.5 1.2 0 1 3.5 2.8 3.5 1.7 33.7 28 30.3 26.2 30.6 27.2 0.20001 1 1.2 1 1 0-0.20001 6-1.3 6-8.3 21t-8 20.5-0.29999 7.7q0.79999 2.3 1.8 3.3t6.5 6.5 7.3 5.8q1.7 0.20001 2.4 1 0.79999 0.70001 1.8 1l1 0.2 0.2-1q0.29999-1 0.59998-2.5l0.2-1.5h2v4l-0.2 1.5q-0.29999 1.5-4.3 13t-19 57.5-22 60-20.5 29-25.2 24.8q-11.8 9.7-27.8 18.2t-35.5 16-40.5 12-46.5 4.5-37-2.5-30-10.5-31-16-19.7-16.3q-7.3-8.2-10.8-16.7t-4-18 1.5-18.5 17-43.5 22.5-63.5 14-52 14.5-38.5 19.3-29.7q11.2-14.3 24.4-26.6 13.3-12.2 26.6-20.2l13.2-8v0.5l0.2 0.3 0.3 0.2 0.3 0.2 0.2 0.3 2 0.5 2 0.5 0.2 0.3 0.3 0.2 0.3-0.2 0.2-0.3 1-0.5 1-0.5 15-2.5q15-2.5 29-2t18.5 1.5 7 1.5z" fill="#de1929" stroke="#de1929"/>
  <g fill="#fefefe" stroke="#fefefe">
   <path d="m541 119l0.5 2v4l-0.5 1-0.5 1-0.3 0.2-0.2 0.3-1 0.5-1 0.5h-2l-1.5-0.5-1.5-0.5-1-0.5q-1-0.5-4.5-3t-13-6.5-27.5-6.5l-18-2.5-1-0.5-1-0.5-0.2-0.3-0.3-0.2-0.3-0.2-0.2-0.3-0.2-0.3-0.3-0.2-0.5-1-0.5-1v-3l0.5-1 0.5-1 0.3-0.2 0.2-0.3 0.2-0.3 0.3-0.2 0.3-0.2 0.2-0.3 0.2-0.3 0.3-0.2 0.3-0.2 0.2-0.3 8-2.5q8-2.5 18-2t19.5 4.5 16.7 9.7q7.3 5.8 8.8 8.3t2 4.5z"/>
   <path d="m316.5 120l-1.5 0.5-2 0.5-2 0.5h-3l-0.2-0.3-0.3-0.2v-3l0.5-1 0.5-1 0.5-1 0.5-1 0.3-0.2 0.2-0.3 0.2-0.3 0.3-0.2 7.3-7.2q7.2-7.3 16.7-11.8t21-4.5 14 1.3q2.5 1.2 3.7 4.7 1.3 3.5-1.4 6.3-2.8 2.7-17.8 5.2t-25.5 7.5-12 5.5z"/>
  </g>
  <path d="m505.2 399h-0.20001v-1q0-1-1-0.79999-1 0.29999-1.5 1.6l-0.5 1.2-1-0.2q-1-0.29999-1.8-1-0.70001-0.79999-2.4-1-1.8-0.29999-7.3-5.8t-6.5-6.5-1.8-3.3q-0.70001-2.2 0.29999-7.7t8-20.5 8.3-21q1.2-6 0.20001-6-1 0-1.2-1-0.29999-1-30.6-27.2-30.2-26.3-33.7-28-3.5-1.8-3.5-2.8t1.5-1.2q1.5-0.29999 0.5-1.3t-8.5-3-18-2-13 2.7q-2.5 2.8-3.5 2.8t-2.5 2.2q-1.5 2.3-12.7 16.6-11.3 14.2-24.6 36.4-13.2 22.3-31 60l-17.7 37.8-0.3 1-0.2 1h-2v2h-3l0.2-2 0.3-2 0.5-3.5q0.5-3.5 4.5-19.5t13-40 20-44 22.5-35l11.5-15 0.3-0.2 0.2-0.3 0.2-0.3 0.3-0.2 0.5-1 0.5-1 0.3-1 0.2-1-1-0.2-1-0.3-1.5-0.5-1.5-0.5-2.5-0.5q-2.5-0.5-7-1.5t-18.5-1.5-29 2l-15 2.5-1 0.5-1 0.5-0.2 0.3-0.3 0.2-0.3-0.2-0.2-0.3-2-0.5-2-0.5-0.2-0.3-0.3-0.2-0.3-0.2-0.2-0.3v-0.5h0.5l0.3-0.2 0.2-0.3 1-0.5 1-0.5 1-0.5 1-0.5 1-0.5 1-0.5 19-5.5q19-5.5 28.5-6.5t17.5 0.5 24 1 22.5-2.5 12 1 8.5 3.5 26.5 0.5 30.5-2 9-4.7q2-2.8 8.5 0.39999 6.5 3.3 32.5 3.3t32.5-3 8.5-6.3q2-3.2 5.8-1.2 3.7 2 18.7 14.5t22.5 21 9.5 12.5 1.5 9-14.2 12.2q-13.8 7.3-33.8 17.3t-31.2 18.7q-11.3 8.8-19.3 17.8t-14 21-8.5 18.5-2.8 6.5z" fill="#950a14" stroke="#950a14"/>
  <path d="m473.5 534l-1.5 0.5-1 0.5-1 0.5-1 0.5-1 0.5-1 0.3-1 0.2 0.2-1.5 0.3-1.5 0.5-1 0.5-1 0.5-1 0.5-1 0.5-1q0.5-1 1-2t23-68 29-80 14.5-22 19.7-17.8q11.8-8.7 38.8-21.7t33.2-17.3q6.3-4.2 7.8-9.7t-1-12-10-15.5-19.5-19.5-30.3-22.7q-18.2-12.3-37.2-20.8t-36.5-13.5-29.5-5.5-23.5 2.5-35 3.5-41.5-2.5-31-4-16.5-0.5-21 7-43.5 18-33 17.5-9.8 13.3q-2.7 7.2-1.2 14.7t7.5 17.5 7.3 13.5q1.2 3.5 0.2 3.5t-1.5 1.2q-0.5 1.3-12.7 16.6l-12.3 15.2-0.3 0.2-0.2 0.3-0.2 0.3-0.3 0.2-0.5 1-0.5 1-0.3 0.2-0.2 0.3-0.2 0.3-0.3 0.2-0.3 0.2-0.2 0.3h-1l-0.2-0.3-0.3-0.2-3-15.5q-3-15.5-10.5-32.5t-11-25-2.5-15 4.5-12.5 11.2-12.3q7.8-6.7 15.6-13 7.7-6.2 40.4-38 32.8-31.7 49.3-44.7t30-20 20-8.5 16.5-1 17 4 20 11.5 21.5 8 26.5-9 28-11 22-1.5 25 5 23.2 11.8q10.3 7.2 17.3 14.2t24.7 31.2q17.8 24.3 40.6 49 22.7 24.8 33.7 36.8t16 20.5 6 11.5 0.5 9-4.8 13.8q-4.2 7.7-16.4 21-12.3 13.2-32.3 33.2t-30.5 38-26.8 51.2q-16.2 33.3-26 46.6-9.7 13.2-21 23-11.2 9.7-27.2 19.2t-19 11-4.5 2zm-157-414l-1.5 0.5-2 0.5-2 0.5h-3l-0.2-0.3-0.3-0.2v-3l0.5-1 0.5-1 0.5-1 0.5-1 0.3-0.2 0.2-0.3 0.2-0.3 0.3-0.2 7.3-7.2q7.2-7.3 16.7-11.8t21-4.5 14 1.3q2.5 1.2 3.7 4.7 1.3 3.5-1.4 6.3-2.8 2.7-17.8 5.2t-25.5 7.5-12 5.5zm224.5-1l0.5 2v4l-0.5 1-0.5 1-0.3 0.2-0.2 0.3-1 0.5-1 0.5h-2l-1.5-0.5-1.5-0.5-1-0.5q-1-0.5-4.5-3t-13-6.5-27.5-6.5l-18-2.5-1-0.5-1-0.5-0.2-0.3-0.3-0.2-0.3-0.2-0.2-0.3-0.2-0.3-0.3-0.2-0.5-1-0.5-1v-3l0.5-1 0.5-1 0.3-0.2 0.2-0.3 0.2-0.3 0.3-0.2 0.3-0.2 0.2-0.3 0.2-0.3 0.3-0.2 0.3-0.2 0.2-0.3 8-2.5q8-2.5 18-2t19.5 4.5 16.7 9.7q7.3 5.8 8.8 8.3t2 4.5z" fill="#c91724" stroke="#c91724"/>
  <path d="m449.5 190.5q12.5-3 24-2.3 11.5 0.8 13.3 22.8 1.7 22 0.70001 23.5-1 1.5-4.7 3.3-3.8 1.7-30.3 2.2t-33.5-2-8.8-5.2q-1.7-2.8-1.4-20.3 0.20001-17.5 14.2-18.3 14-0.7 26.5-3.7z" fill="#eaebeb" stroke="#eaebeb"/>
  <path d="m335.2 202.8l0.8-16.3 10.5 1.5q10.5 1.5 28.5 4t24 2.8l6 0.2v20q0 20-4 21.2-4 1.3-19.5 1.8t-25.5-1.5-13.5-4.5-5.7-7.8q-2.3-5.2-1.6-21.4z" fill="#ebecec" stroke="#ebecec"/>
  <path d="m260 221l-0.5-1-0.5-1-0.5-1-0.5-1-0.5-1-0.3-1.5-0.2-1.5 1-0.2 1-0.3 32-12.5q32-12.5 36.5-13.2 4.5-0.8 3.7 19.2-0.70001 20-7.4 22.8-6.8 2.7-27.8 2.7t-26-2.5-7.2-4.8q-2.3-2.2-2.8-3.2z" fill="#e5e5e6" stroke="#e5e5e6"/>
  <path d="m552.5 215l14.5 8.5 0.2 0.3 0.3 0.2 0.3 0.2 0.2 0.3 1 0.3 1 0.2-0.2 1-0.3 1-0.5 1-0.5 1-0.5 1-0.5 1-0.3 0.2-0.2 0.3-0.2 0.3-0.3 0.2-0.3 0.2-0.2 0.3-1 0.5q-1 0.5-7.5 2.5t-28.5 2-27-1.5-7.8-6.2q-2.7-4.8-4-22.3-1.2-17.5 4.3-16.3 5.5 1.3 24.5 8.3t33.5 15.5z" fill="#e6e7e8" stroke="#e6e7e8"/>
 </g>
</svg>
