<?xml version="1.0" encoding="UTF-8"?>
<!DOCTYPE svg  PUBLIC '-//W3C//DTD SVG 1.1//EN'  'http://www.w3.org/Graphics/SVG/1.1/DTD/svg11.dtd'>
<svg enable-background="new 0 0 102.55 138.1" version="1.1" viewBox="0 0 102.55 138.1" xml:space="preserve" xmlns="http://www.w3.org/2000/svg" xmlns:xlink="http://www.w3.org/1999/xlink">
<symbol id="f" viewBox="0 -20.15 58.7 20.15">
				<radialGradient id="h" cx="441.32" cy="78.63" r="28.914" gradientTransform="matrix(.9999 .0117 .0233 -.4639 -413.77 15.823)" gradientUnits="userSpaceOnUse">
				<stop stop-opacity=".698" offset="0"/>
				<stop stop-opacity="0" offset="1"/>
			</radialGradient>
			<path d="m48.1-20.15c-1.6 0.333-2.65 0.5-3.15 0.5-0.2-0.067-0.35-0.067-0.45 0-0.233 0.133 0.25 0.167 1.45 0.1 1.133-0.1 1.617-0.117 1.45-0.05-0.233 0.067-0.883 0.417-1.95 1.05-1.034 0.566-1.7 0.867-2 0.9-1.067 0-2.184 0.283-3.35 0.85-1.133 0.533-2.25 0.783-3.35 0.75-1.133 0.8-2.033 1.383-2.7 1.75-1.2 0.667-2.2 0.533-3-0.4-2.367-1.233-3.917-2-4.65-2.3-0.967-0.4-2.167-0.717-3.6-0.95-0.533-0.1-0.867-0.7-1-1.8h-0.1c-0.6 0.2-1.4 0.567-2.4 1.1-1.133 0.6-1.9 0.983-2.3 1.15-1.7 0.7-3.433 1.033-5.2 1-0.533-0.033-1.633-0.233-3.3-0.6 1.267-0.767 1.85-1.133 1.75-1.1l-1.85 1.05c-0.533 0.066-0.883-0.184-1.05-0.75-0.1-0.367-0.233-0.967-0.4-1.8-1.333 0.367-2.767 0.583-4.3 0.65-0.8 0.933-1.45 2.083-1.95 3.45-0.467 1.233-0.7 2.233-0.7 3 0 3.467 2.867 6.434 8.6 8.9 5.733 2.467 12.65 3.7 20.75 3.7 8.133 0 15.05-1.233 20.75-3.7 5.733-2.466 8.6-5.433 8.6-8.9 0-1.633-1.017-3.217-3.05-4.75-2.167-1.633-4.683-2.567-7.55-2.8z" clip-rule="evenodd" fill="url(#h)" fill-rule="evenodd"/>
				<use transform="translate(5.3999 -9.2998)" x="-0.028" y="-9.733" width="46.778" height="9.735" enable-background="new" opacity=".2109" xlink:href="#g"/>
</symbol>
<symbol id="g" viewBox="-0.028 -9.733 46.778 9.735">
		<path d="m45.7-5.05c0.267-0.667 0.417-1.017 0.45-1.05 0.2-0.133 0.35-0.433 0.45-0.9l0.15-0.1-1.05-0.95c-1.067-0.367-2.233-0.917-3.5-1.65h-0.1l-0.25 1.35c-0.1 0.733-3.117 0.583-9.05-0.45-1.3 1.367-3.85 1.833-7.65 1.4-4.2-0.733-6.983-1.1-8.35-1.1-0.933 0-1.683-0.383-2.25-1.15-0.267-0.3-1.333 0.217-3.2 1.55-1.6 0.667-3.25 0.967-4.95 0.9-0.533-0.033-1.633-0.233-3.3-0.6l-0.5 0.05 0.4-0.1-1.6 0.05-1.05 1.35c-0.367 0.034-0.467 0.3-0.3 0.8 0.067 0.267 0.167 0.35 0.3 0.25 0.066-0.067 0.1-0.017 0.1 0.15 0 0.1 0.167 0.15 0.5 0.15 0.333-0.033 0.517 0.217 0.55 0.75l0.1 0.6 0.4 0.4 0.3 0.15h0.55c0.1 0 0.233-0.267 0.4-0.8s0.3-0.767 0.4-0.7c0.067 0.034 0.533 1.034 1.4 3 0.133 0.034 1.2 0.083 3.2 0.15 1.2 0.067 1.783 0.583 1.75 1.55 4.633 0.033 14.133-0.3 28.5-1 0.433 0 1.6-0.517 3.5-1.55 1.867-1.034 2.883-1.55 3.05-1.55 0.2 0 0.417-0.317 0.65-0.95z" clip-rule="evenodd" fill-rule="evenodd"/>
</symbol>
				<use transform="matrix(1 0 0 -1 29.9 108.8)" y="-20.15" width="58.7" height="20.15" enable-background="new" opacity=".6914" xlink:href="#f"/>
			<path d="m47.7 53.45c-0.034 5.233 1.316 10.017 4.05 14.35 0.167 0.3 0.634 0.983 1.4 2.05-0.7 1.067-1.584 1.016-2.65-0.15l-0.15-0.15-0.6-1c-2.233-4.7-3.15-9.716-2.75-15.05l0.7-0.05zm9.75 0.5c1.434 4.733 3.383 9.15 5.85 13.25l1.45 2.4-1.4-0.2c-1.366-0.6-2.3-1.617-2.8-3.05l-0.25-0.5c-0.333-0.633-0.649-1.333-0.95-2.1-0.866-2.4-1.583-5.667-2.149-9.8h0.249zm4.35 0.2c1.3 4.8 3.117 9.5 5.45 14.1 1 1.934 1.134 3.967 0.4 6.1h-0.2l-1.5-0.55c0.934-0.8 1.399-1.783 1.399-2.95 0.101-1.167-0.216-2.216-0.949-3.149-3.267-4.233-5.684-8.784-7.25-13.65l2.65 0.099zm-4.2 5.95l0.851 4.55-1.551 0.15-1.4-10.95 1.3 0.05c0.066 1.667 0.334 3.733 0.8 6.2zm7.55-6.35c1.233 5.533 4.517 9.1 9.85 10.7 0.667 0.2 1.283 0.55 1.85 1.05-0.533 0-1.033 0.1-1.5 0.3-0.5-0.367-1-0.65-1.5-0.85-5.1-1.867-8.416-5.534-9.949-11l1.249-0.2zm2.35-0.4c1.667 5.167 4.816 9.15 9.45 11.95 2.833 1.733 2.649 3.583-0.55 5.55h-1.6v-0.95l2.851-3-0.101-0.4c-0.1-0.4-0.333-0.733-0.7-1h0.35c-4.934-2.833-8.267-6.883-10-12.15h0.3zm-25.65 0.4c-0.133 4.467-1.217 8.35-3.25 11.65-1.3 2.2-3 4.1-5.1 5.7l-2.25-2.8-1.1-1.85c0.567-0.2 1.133-0.45 1.7-0.75 4.733-2.7 7.617-6.7 8.65-12l1.35 0.05zm-15.55 12.25l1.6-0.15c0.434 0.733 0.6 1.566 0.5 2.5l-1.4-1.2-0.7-1.15z" clip-rule="evenodd" fill="#AEAA8F" fill-rule="evenodd"/>
			<path d="m55.5 53.85l1.4 10.95-2 0.5c-2.067 0.8-2.65 2.25-1.75 4.35v0.2c-0.767-1.067-1.233-1.75-1.4-2.05-2.733-4.333-4.083-9.117-4.05-14.35l7.8 0.4zm1.7 0.1c0.566 4.133 1.283 7.4 2.149 9.8 0.301 0.767 0.617 1.467 0.95 2.1-0.566-0.7-1.184-1.1-1.85-1.2l-0.849-4.55c-0.466-2.467-0.733-4.533-0.8-6.2l0.4 0.05zm1.95 0.1c1.566 4.867 3.983 9.417 7.25 13.65 0.733 0.933 1.05 1.983 0.949 3.149-0.5-0.899-1.35-1.3-2.55-1.2l-0.05-0.05-1.45-2.4c-2.467-4.1-4.416-8.517-5.85-13.25l1.701 0.101zm4.75-0.1c1.533 5.466 4.85 9.133 9.949 11 0.5 0.2 1 0.483 1.5 0.85-0.6 0.2-1.233 0.567-1.899 1.1-0.867 0.733-1.634 1.667-2.3 2.8-0.867 1.8-2 3.316-3.4 4.55l-0.1 0.1c0.733-2.133 0.6-4.166-0.4-6.1-2.333-4.6-4.15-9.3-5.45-14.1l2.1-0.2zm3.3-0.6c1.733 5.267 5.066 9.316 10 12.15h-0.35c-0.566-0.5-1.183-0.85-1.85-1.05-5.333-1.6-8.616-5.167-9.85-10.7l2.05-0.4zm-26.7 0.35c-1.033 5.3-3.917 9.3-8.65 12-0.567 0.3-1.133 0.55-1.7 0.75-0.9-1.733-1.65-1.983-2.25-0.75v0.15l-1.6 0.15-0.15-0.5c-0.3-1.1-0.017-1.75 0.85-1.95 5.7-0.9 9.4-4.3 11.1-10.2l2.4 0.35zm-7 17.4c2.1-1.6 3.8-3.5 5.1-5.7 2.033-3.3 3.117-7.183 3.25-11.65l5.15-0.25c-0.4 5.333 0.517 10.35 2.75 15.05l0.6 1-0.15 0.2c-1.767 4.767-5.217 6.35-10.35 4.75l-0.7-0.2c-2.267-0.7-4.15-1.767-5.65-3.2zm6.8 39.05l0.15-0.9 1.55-0.35-0.05 0.199c0 1.4 0.8 2.301 2.4 2.7l1.1 0.55 1.75 0.65c1.566 0.5 3.083 0.9 4.55 1.2l0.95 0.149c1.633 0.233 3.017 0.351 4.149 0.351h0.151c3.134-0.066 6.033-0.75 8.7-2.05l0.5-0.15c2.399-0.6 3.1-2 2.1-4.2l1.9 1.3-0.4 1.5-0.1 0.15c-3.4 4.2-7.851 6.167-13.351 5.9-1.233-0.034-2.416-0.417-3.55-1.15-3.933 0-7.367-1.333-10.3-4l-2.199-1.85zm0 12.4c-0.833-0.934-1.25-2.116-1.25-3.55 0-1.2 0.467-1.917 1.4-2.15l0.2 0.801c0.633 1.333 1.65 2.05 3.05 2.149 5.167 0.2 10.333 0.75 15.5 1.65l3.899-1.05c0.434-0.134 0.9-0.351 1.4-0.65l0.7-0.6c0.2-0.101 0.684-0.15 1.45-0.15-0.334 0.467-1.4 1.083-3.2 1.85-4.833 2.1-9.883 3.15-15.149 3.15-2.5 0-4.733-0.134-6.7-0.4l-1.3-1.05zm-0.8 3.75l-0.05-0.8c0.466 0.733 1.216 1.283 2.25 1.65 1.1 0.433 2.433 0.649 4 0.649 0.667 0 1.8-0.1 3.4-0.3 1.5-0.233 2.483-0.35 2.95-0.35l5.9 0.6c1.066 0.1 1.8 0.134 2.2 0.1h0.05c-1 0.167-2.733 0.567-5.2 1.2l-2.3 0.55c-1.066 0.167-1.85 0.25-2.35 0.25-1.033 0-2.567-0.233-4.6-0.699-1.467-0.334-2.533-0.634-3.2-0.9-0.667-0.3-1.466-0.733-2.4-1.3-0.133-0.033-0.333-0.217-0.6-0.55l-0.05-0.1zm31.85-11.85h1.4c2.866 2.3 2.884 4.366 0.05 6.2-0.767 0.433-2.033 0.866-3.8 1.3l-6.15 1.5 0.351-0.3c3.566-1.834 6.416-4.233 8.55-7.2l-0.401-1.5z" clip-rule="evenodd" fill="#E0D6A6" fill-rule="evenodd"/>
			<path d="m39.85 74.5c5.133 1.6 8.583 0.017 10.35-4.75l0.15-0.2 0.15 0.15c1.066 1.166 1.95 1.217 2.65 0.15v-0.2c-0.9-2.1-0.317-3.55 1.75-4.35l0.8 4.45-3.1 1.75-1.35 0.4-1.4-0.15c-1.133 4.134-4.133 5.167-9 3.1l-1-0.35zm-12.85-7.35l1.4 1.2c0.1-0.934-0.066-1.767-0.5-2.5v-0.15c0.6-1.233 1.35-0.983 2.25 0.75l1.1 1.85-1.85 1.25c-1.2-0.433-2-1.233-2.4-2.4zm49.85-1.65c0.367 0.267 0.601 0.6 0.7 1l0.101 0.4-2.851 3v0.95h1.05c-1.866 1.4-3.433 1.017-4.699-1.149 0.666-1.133 1.433-2.067 2.3-2.8 0.666-0.533 1.3-0.9 1.899-1.1 0.466-0.201 0.966-0.301 1.5-0.301zm-9.4 8.85l-0.15 0.1c-0.733 0.333-1.5 0.399-2.3 0.2l-0.65-0.301-1-4.95 1.4 0.2 0.05 0.05c1.2-0.1 2.05 0.3 2.55 1.2 0 1.167-0.466 2.15-1.399 2.95l1.499 0.551z" clip-rule="evenodd" fill="#A29A7A" fill-rule="evenodd"/>
			<path d="m40.85 74.85c4.867 2.067 7.867 1.034 9-3.1l1.4 0.15c0.2 4.366 0.5 8.783 0.9 13.25 0.399 4.433 0.767 9.399 1.1 14.899 0.3 4.733 0.116 9.5-0.55 14.3l-0.95-0.149c-0.366-2.367-0.5-4.9-0.4-7.601 0.434-7.6 0-15.216-1.3-22.85-0.466-2.733-1.183-5.283-2.15-7.65-0.5 2.601-0.633 5.167-0.4 7.7 0.433 5.066 0.45 10.217 0.05 15.45-0.333 4.934-0.45 9.517-0.35 13.75l-1.75-0.65c0.7-4.767 1.133-9.816 1.3-15.149 0.1-5-0.833-9.816-2.8-14.45l-0.35-0.851c0.9 5 1.533 10.333 1.9 16 0.3 4.666-0.083 9.3-1.15 13.899-1.6-0.399-2.4-1.3-2.4-2.7l0.05-0.2c1.9-4.967 2.333-10.084 1.3-15.351-1-5.033-1.75-10.116-2.25-15.25-0.133-1.532-0.2-2.683-0.2-3.449zm14.05-9.55l0.35-0.1 2.1 15.1c0.3 2.433 0.65 4.967 1.05 7.6-0.5-4.233-0.4-8.45 0.3-12.65 0.934 5.566 1.4 11.283 1.4 17.15 0 2.267 0.267 4.416 0.801 6.449-0.534-3.633-0.817-7.199-0.851-10.699 0-2.9 0.184-5.567 0.55-8 0.134-0.767 0.2-1.584 0.2-2.45 0.7 5.666 1.434 12.55 2.2 20.649 0.5 4.9 1.4 9.667 2.7 14.301-2.667 1.3-5.566 1.983-8.7 2.05h-0.15c-0.1-4.101-0.5-8.55-1.199-13.351-0.967-6.267-1.75-11.133-2.351-14.6-0.866-4.9-1.1-9.983-0.7-15.25l3.101-1.75-0.801-4.45zm0.8 23.65c-0.733-2.634-1.2-5.384-1.4-8.25-0.733 4.833-0.533 9.649 0.601 14.45 1.267 5.366 2.366 10.683 3.3 15.949l0.3-7.449c-0.534-4.766-1.468-9.667-2.801-14.7z" clip-rule="evenodd" fill="#C5BC91" fill-rule="evenodd"/>
			<path d="m43.95 82.75c1.966 4.634 2.9 9.45 2.8 14.45-0.167 5.333-0.6 10.383-1.3 15.149l-1.1-0.55c1.066-4.6 1.45-9.233 1.15-13.899-0.367-5.667-1-11-1.9-16l0.35 0.849zm9.35 4c0.601 3.467 1.384 8.333 2.351 14.6 0.699 4.801 1.1 9.25 1.199 13.351-1.133 0-2.517-0.117-4.149-0.351 0.666-4.8 0.85-9.566 0.55-14.3-0.333-5.5-0.7-10.467-1.1-14.899-0.4-4.467-0.7-8.884-0.9-13.25l1.35-0.4c-0.401 5.266-0.167 10.349 0.699 15.249zm-5.4-10.65c0.967 2.367 1.684 4.917 2.15 7.65 1.3 7.634 1.733 15.25 1.3 22.85-0.1 2.7 0.034 5.233 0.4 7.601-1.467-0.3-2.983-0.7-4.55-1.2-0.1-4.233 0.017-8.816 0.35-13.75 0.4-5.233 0.383-10.384-0.05-15.45-0.233-2.533-0.1-5.1 0.4-7.7zm7 19.05c-1.134-4.801-1.334-9.617-0.601-14.45 0.2 2.866 0.667 5.616 1.4 8.25 1.333 5.033 2.267 9.934 2.8 14.7l-0.3 7.449c-0.932-5.27-2.032-10.58-3.299-15.95z" clip-rule="evenodd" fill="#DBD1A2" fill-rule="evenodd"/>
			<path d="m63.35 69.4l1 4.95 0.65 0.3c0.134 4.767 0.05 9.716-0.25 14.85-0.4 5.033 0.25 10.083 1.95 15.15 0.5 1.399 1.033 2.616 1.6 3.649 1 2.2 0.3 3.601-2.1 4.2l-0.5 0.15c-1.3-4.634-2.2-9.4-2.7-14.301-0.767-8.1-1.5-14.983-2.2-20.649 0 0.866-0.066 1.684-0.2 2.45-0.366 2.433-0.55 5.1-0.55 8 0.033 3.5 0.316 7.066 0.851 10.699-0.535-2.033-0.801-4.182-0.801-6.449 0-5.867-0.466-11.584-1.399-17.15-0.7 4.2-0.8 8.417-0.3 12.65-0.4-2.634-0.75-5.167-1.051-7.601l-2.1-15.1 1.65-0.4 1.55-0.15c0.666 0.1 1.283 0.5 1.85 1.2l0.25 0.5c0.5 1.434 1.433 2.451 2.8 3.051z" clip-rule="evenodd" fill="#A69E7A" fill-rule="evenodd"/>
			<path d="m42.5 112c2.167 4.6 6.233 6.65 12.2 6.15 2.533-0.267 5.017-0.2 7.45 0.199l3.05 0.801-0.7 0.6c-0.5 0.3-0.967 0.517-1.4 0.65l-3.899 1.05c-5.167-0.9-10.333-1.45-15.5-1.65-1.4-0.1-2.417-0.816-3.05-2.149l0.1-0.9c0.133-2.4 0.467-4.2 1-5.4l0.749 0.65zm-0.9 11.6c2.033 1.367 4.25 2.483 6.65 3.351l0.1-0.2c2.333-2.333 5.083-2.9 8.25-1.7 1.9 0.267 5.233 1.084 10 2.45l-0.399 0.25c-2 0.533-3.717 0.95-5.15 1.25-2.233 0.4-4.633 0.6-7.2 0.6h-1.151l2.3-0.55c2.467-0.633 4.2-1.033 5.2-1.2h-0.05c-0.4 0.034-1.134 0-2.2-0.1l-5.9-0.6c-0.467 0-1.45 0.116-2.95 0.35-1.6 0.2-2.733 0.3-3.4 0.3-1.567 0-2.9-0.217-4-0.649-1.034-0.367-1.784-0.917-2.25-1.65 0.033-0.634 0.25-1.4 0.65-2.3l0.2-0.65 1.3 1.05z" clip-rule="evenodd" fill="#DBD1A2" fill-rule="evenodd"/>
			<path d="m40.05 128c0.667 1.167 2.1 2.1 4.3 2.8 5.2 0.767 10.784 0.9 16.75 0.4 5.834-0.566 9.351-1.417 10.551-2.55 1.199-1.101 1.699-1.95 1.5-2.551 0.199 0.334 0.283 0.95 0.25 1.851-0.034 0.967-0.267 1.649-0.7 2.05-0.4 0.467-1.4 0.917-3 1.35-1.5 0.434-3.167 0.65-5 0.65l-10.55 0.35c-3.7 0-6.817-0.233-9.351-0.699-2-0.4-3.167-0.7-3.5-0.9-0.933-0.434-1.4-1.217-1.4-2.35 0-0.17 0.05-0.3 0.15-0.4zm26.55-5.55l2.4-0.5c1.767-0.434 3.033-0.867 3.8-1.3 0.233 1.399 0.367 2.55 0.4 3.449-1.233-0.033-2.851-0.383-4.851-1.05l-1.749-0.6zm-4.45-4.1c-2.434-0.399-4.917-0.466-7.45-0.199-5.967 0.5-10.034-1.551-12.2-6.15 2.933 2.667 6.367 4 10.3 4 1.134 0.733 2.316 1.116 3.55 1.15 5.5 0.267 9.95-1.7 13.351-5.9 0.5 4.5-1.9 6.866-7.2 7.1h-0.351zm-5.55 6.7c-3.166-1.2-5.917-0.633-8.25 1.7l-0.1 0.2c-2.4-0.867-4.617-1.983-6.65-3.351 1.967 0.267 4.2 0.4 6.7 0.4 5.267 0 10.316-1.05 15.15-3.15l-2.601 1.7c-1.866 1.2-3.283 2.03-4.249 2.5z" clip-rule="evenodd" fill="#A69E7A" fill-rule="evenodd"/>
			<path d="m69.95 111.4c0.633 1.166 1.1 2.183 1.399 3.05l0.4 1.5c-2.134 2.967-4.983 5.366-8.55 7.2l-0.351 0.3 3.75-1 1.75 0.6c2 0.667 3.617 1.017 4.851 1.05 0.066 0.667 0.05 1.334-0.05 2 0.199 0.601-0.301 1.45-1.5 2.551-1.2 1.133-4.717 1.983-10.551 2.55-5.966 0.5-11.55 0.366-16.75-0.4 10.466 0 17.75-1.017 21.85-3.05l0.399-0.25c-4.767-1.366-8.1-2.184-10-2.45 0.967-0.467 2.384-1.3 4.25-2.5l2.601-1.7c1.8-0.767 2.866-1.383 3.2-1.85-0.767 0-1.25 0.05-1.45 0.15l-3.05-0.801h0.35c5.3-0.233 7.7-2.6 7.2-7.1l0.1-0.15 0.152 0.3z" clip-rule="evenodd" fill="#C5BC91" fill-rule="evenodd"/>
			<path d="m42.55 128.25c0.667 0.267 1.733 0.566 3.2 0.9 2.033 0.466 3.567 0.699 4.6 0.699 0.5 0 1.284-0.083 2.35-0.25h1.149c2.567 0 4.967-0.199 7.2-0.6 1.434-0.3 3.15-0.717 5.15-1.25-4.101 2.033-11.384 3.05-21.85 3.05-2.2-0.7-3.633-1.633-4.3-2.8-0.333-0.6-0.517-1.167-0.55-1.7l0.05 0.101c0.267 0.333 0.467 0.517 0.6 0.55 0.934 0.57 1.734 1 2.401 1.3z" clip-rule="evenodd" fill="#BEBDA5" fill-rule="evenodd"/>
			<path d="m43.15 77.15c-1.1-0.5-1.667-1.117-1.7-1.851 5.767 0.867 8.75-0.633 8.95-4.5l0.55 1.101c0.2-0.267 0.517-0.5 0.95-0.7 0.533-0.267 0.883-0.467 1.05-0.601 0.333-0.3 0.616-0.683 0.85-1.149 0.267-0.567 0.5-0.967 0.7-1.2 0.967-1.167 2.116-1.65 3.45-1.45 1.2 0.167 2.3 0.833 3.3 2 1.134 1.367 1.816 2.233 2.05 2.601 0.667 1.033 1.033 2.05 1.101 3.05 0.066 0.833 0.033 2.017-0.101 3.55-0.1 1.733-0.149 2.95-0.149 3.65-0.2-1.267-0.733-2.601-1.601-4-0.5-0.834-1.316-2.084-2.45-3.75-1.033 0.8-1.833 0.767-2.399-0.101-0.7-1.133-1.3-1.7-1.8-1.7-0.9 0.034-1.634 0.784-2.2 2.25-0.7 1.667-1.25 2.617-1.65 2.851-0.233 0.133-0.684 0.184-1.35 0.149-0.7-0.066-1.184-0.1-1.45-0.1-0.367 0-0.967 0.1-1.8 0.3-0.767 0.2-1.284 0.283-1.55 0.25-0.901 0-1.818-0.217-2.751-0.65z" clip-rule="evenodd" fill="#8C8668" fill-rule="evenodd"/>
			<path d="m70.85 70.2c-0.133-1.067 0.4-2.083 1.601-3.05s2.333-1.333 3.399-1.1c-0.033 0.667-0.449 1.35-1.25 2.05-1 0.833-1.6 1.45-1.8 1.85l-1.95 0.25z" clip-rule="evenodd" fill="#8C8668" fill-rule="evenodd"/>
			<path d="m54.35 60c-0.767-0.733-1.633-1.167-2.6-1.3-1.6-0.2-2.717 0.033-3.35 0.7-0.633 1.2-1.217 2.267-1.75 3.2-0.233-0.167-0.767-0.783-1.6-1.85-0.733-0.9-1.3-1.4-1.7-1.5-0.8-0.2-1.45 0.117-1.95 0.95-0.241 0.531-0.45 0.98-0.625 1.35 0.184-0.614 0.275-1.431 0.275-2.45-0.033-1.667-0.283-2.817-0.75-3.45l-4.5-6.2c0.2-1.733 2.117-2.717 5.75-2.95 1.934-0.133 4.483-0.083 7.65 0.15 1.5 0 4.983-0.033 10.45-0.1 4.933 0.267 7.933 1.333 9 3.2 0.466 0.867 0.566 2.45 0.3 4.75-0.367 2.533-0.584 4.217-0.65 5.05-0.899-0.7-1.717-0.966-2.45-0.8-0.1 1.533-0.116 2.45-0.05 2.75 0.101 0.567 0.467 1.467 1.101 2.7 0.566 1.1 0.85 1.983 0.85 2.65-0.6-0.367-1.7-1.6-3.3-3.7-1.3-1.767-2.55-2.683-3.75-2.75-0.4 0.833-0.233 1.684 0.5 2.55 0.934 1.066 1.434 1.8 1.5 2.2-0.667-0.267-1.617-1.05-2.851-2.35-1.199-1.3-2.199-2.1-3-2.4 0.034 0.167 0 0.417-0.1 0.75-0.1 0.3-0.167 0.483-0.2 0.55-0.533-0.233-1.267-0.8-2.2-1.7z" clip-rule="evenodd" fill="#8C8668" fill-rule="evenodd"/>
			<path d="m57.65 48.6c0.966 0 2.316-0.017 4.05-0.05 1.434 0.133 2.583 0.7 3.45 1.7 0.8 0.833 1.55 1.983 2.25 3.45 0.933 1.9 0.983 3.133 0.149 3.7-0.267 0.167-0.95-0.316-2.05-1.45-1.233-1.267-2.134-1.934-2.7-2-0.133 0.833 0.084 1.966 0.65 3.4 0.533 1.433 0.75 2.517 0.649 3.25-0.767-0.567-1.883-1.017-3.35-1.35-1.6-0.267-2.717-0.467-3.35-0.6-0.767-0.133-1.834-0.433-3.2-0.9-1.434-0.533-2.517-0.867-3.25-1-1.467-0.3-2.583-0.4-3.35-0.3-0.533 0.1-1.1 0.466-1.7 1.1s-1.066 1-1.4 1.1c-0.333 0.067-0.917-0.083-1.75-0.45-0.833-0.333-1.467-0.434-1.9-0.3-0.3 0.133-0.65 0.434-1.05 0.9-0.367 0.434-0.75 0.684-1.15 0.75-0.7-1.6-1-3.1-0.9-4.5l19.902-6.45z" clip-rule="evenodd" fill="#807A5F" fill-rule="evenodd"/>
			<path d="m59.35 78.65l4.75 1.65c0.467 0.667 0.717 2.084 0.75 4.25-0.1 2.4-0.149 3.95-0.149 4.65-0.033 1.467-0.066 2.583-0.101 3.35-0.033 1.334 0.017 2.434 0.15 3.3 0.1 0.934 0.45 2.534 1.05 4.801 0.5 2 0.783 3.616 0.851 4.85 0.1 2.167 0.033 3.6-0.2 4.3-0.334 1.066-1.217 2.066-2.65 3-1.434 0.9-2.666 1.483-3.7 1.75-1.3 0.367-2.649 0.351-4.05-0.05-0.133-0.767-0.05-1.767 0.25-3 0.367-1.533 0.55-2.55 0.55-3.05 0.067-4.767 0.051-9.066-0.05-12.9 0.334 0.767 0.634 1.867 0.9 3.3 0.333 1.733 0.583 2.851 0.75 3.351 0.633 1.967 1.883 5.033 3.75 9.2 0-1.5-0.316-3.567-0.95-6.2-0.667-2.834-1.033-4.9-1.1-6.2-0.101-1.634-0.084-4.116 0.05-7.45 0-1.233-0.167-3.399-0.5-6.5-0.335-2.8-0.451-4.934-0.351-6.4z" clip-rule="evenodd" fill="#A69E7A" fill-rule="evenodd"/>
			<path d="m62.45 103.3c-0.267-2-0.434-4.333-0.5-7-0.134-3.8 0.116-5.85 0.75-6.149l0.85 0.849c0.533 1.533 1.233 4.066 2.101 7.6 0.8 3.334 1.533 5.917 2.199 7.75 1 2.767 0.467 5-1.6 6.7-1.934 1.566-4.4 2.233-7.4 2-0.199-3.2-0.216-6.55-0.05-10.05 0.733 0.3 1.566 1.517 2.5 3.65 0.9 2.3 1.45 3.699 1.65 4.199 0.2-2.13 0.033-5.32-0.5-9.55z" clip-rule="evenodd" fill="#8C8668" fill-rule="evenodd"/>
			<path d="m60.45 80.05l0.6 0.55c0.434 0.4 0.65 1.134 0.65 2.2 0 0.167-0.05 1.017-0.15 2.55-0.8 0.034-1.267-0.699-1.399-2.199-0.101-1.267-1e-3 -2.301 0.299-3.101z" clip-rule="evenodd" fill="#8C8668" fill-rule="evenodd"/>
			<path d="m68.9 112.6c0.5-0.366 0.966-0.25 1.399 0.351 0.4 0.533 0.617 1.267 0.65 2.2 0.066 2.433-1.017 3.449-3.25 3.05 0-0.033 0.133-0.351 0.399-0.95 0.167-0.467 0.334-0.8 0.5-1-0.133 0.033-0.433 0.066-0.899 0.1-0.367 0-0.667 0.051-0.9 0.15 0.233-0.267 0.584-0.65 1.05-1.15 0.367-0.433 0.534-0.883 0.5-1.35l0.551-1.4z" clip-rule="evenodd" fill="#A69E7A" fill-rule="evenodd"/>
			<path d="m69.45 122.95l3.1-0.25c0 1.967-0.184 3.366-0.55 4.2-0.5 1.066-1.533 2.017-3.1 2.85-1.967 1.066-4.95 1.566-8.95 1.5-3.934-0.033-6.851-0.566-8.75-1.6 0.767-0.4 2.133-0.551 4.1-0.45 2.8 0.133 4.283 0.2 4.45 0.2 1.134-0.067 2.5-0.584 4.1-1.551 1.7-1 1.617-1.616-0.25-1.85 0.267-0.2 0.7-0.4 1.301-0.6 0.6-0.2 1.017-0.367 1.25-0.5-0.334-0.2-1-0.351-2-0.45-0.967-0.066-1.667-0.267-2.101-0.601 0.767-0.033 2.05-0.083 3.851-0.149 1.632-0.1 2.816-0.35 3.549-0.75z" clip-rule="evenodd" fill="#A69E7A" fill-rule="evenodd"/>
			<path d="m68.35 121.85l-0.3-0.55c0.101 0 0.917-0.233 2.45-0.7 0.934-0.3 1.684-0.05 2.25 0.75 0.366 0.534 0.4 1.217 0.1 2.051-0.466 0.966-0.783 1.649-0.949 2.05-0.434 1.133-1.017 2.083-1.75 2.85-0.9 1.033-1.851 1.5-2.851 1.4-1.366-0.134-1.7-0.783-1-1.95 1-1.7 1.483-2.717 1.45-3.05-1.2 0.066-2.066 0.066-2.6 0-1-0.101-1.317-0.55-0.95-1.351 0.2-0.5 0.833-0.866 1.899-1.1 0.168-0.07 0.918-0.2 2.251-0.4z" clip-rule="evenodd" fill="#8C8668" fill-rule="evenodd"/>
			<path d="m68.05 112.85h-0.3c1.1-0.833 1.884-0.716 2.35 0.351 0.334 0.733 0.483 1.733 0.45 3-0.666-0.066-1.2-0.483-1.6-1.25-0.367-0.97-0.667-1.67-0.9-2.1z" clip-rule="evenodd" fill="#8C8668" fill-rule="evenodd"/>
			<path d="m68.7 130c-0.334 0.366-2.316 1.483-5.95 3.35-2.3 1.167-5.15 1.534-8.55 1.101-3.233-0.434-6-1.417-8.3-2.95l-0.65-4.6c0-0.634-0.133-2.334-0.4-5.101-0.033-2.434 0.533-3.666 1.7-3.7-0.033 1.167 0 1.917 0.1 2.25 0.2 0.7 0.717 1.134 1.55 1.301 0 2.333 0.65 3.383 1.95 3.149-0.033 0.467-0.183 1.017-0.45 1.65 0.2 0.133 0.683 0.366 1.45 0.7 0.166-1.967 1.133-2.4 2.899-1.301 1.066 0.7 2.2 1.75 3.4 3.15 0.166 0.2 0.467 0.434 0.899 0.7 0.434 0.3 0.717 0.533 0.851 0.7 0.1 0.133 0.233 0.466 0.399 1 0.101 0.366 0.384 0.633 0.851 0.8 0.934 0.333 1.483 0.033 1.649-0.9 0.067-0.5 0.067-1.333 0-2.5 0.767 0.233 1.317 0.434 1.65 0.601 0.066-0.534-0.05-1.233-0.35-2.101-0.4-1.133-0.617-1.816-0.65-2.05 0.434 0.2 1.05 0.517 1.85 0.95 0.7 0.366 1.351 0.566 1.95 0.6 0.101-0.3 0.2-0.85 0.3-1.649 0.167-0.634 0.467-1.034 0.9-1.2 2.136 2.53 2.452 4.55 0.952 6.05z" clip-rule="evenodd" fill="#8C8668" fill-rule="evenodd"/>
			<g clip-rule="evenodd" fill-rule="evenodd">
					<radialGradient id="i" cx="33.091" cy="-22.47" r="67.848" gradientTransform="matrix(.6946 .7194 .7194 -.6946 32.331 -31.214)" gradientUnits="userSpaceOnUse">
					<stop stop-color="#F2923B" offset="0"/>
					<stop stop-color="#F17F41" offset=".3686"/>
					<stop stop-color="#E16036" offset=".6157"/>
					<stop stop-color="#923F3B" offset="1"/>
				</radialGradient>
				<path d="m74.05 4.8c7.267 2.767 12.867 6.617 16.8 11.55 0.4 0.5 1.25 1.833 2.551 4 1.199 2.066 2.5 4.4 3.899 7 3.5 6.467 5.25 10.45 5.25 11.95 0 5.534-4.416 9.733-13.25 12.6-9.033 2.934-22.767 4.4-41.2 4.4-7 0-13.483-0.35-19.45-1.05-5.933-0.767-10.967-1.783-15.1-3.05-4.233-1.3-7.5-2.85-9.8-4.65s-3.45-3.75-3.45-5.85l0.05-0.5c-0.233-0.8-0.35-1.6-0.35-2.4 0-0.533 0.533-1.966 1.6-4.3 1-2.033 2.283-4.467 3.85-7.3 1.233-2.3 2.683-4.75 4.35-7.35 1.6-2.434 2.733-3.917 3.4-4.45 6.667-5.367 14.5-9.25 23.5-11.65 6.233-1.633 12.55-2.45 18.95-2.45 2.933 0 5.883 0.267 8.85 0.8 3.333 0.667 6.517 1.567 9.55 2.7z" fill="url(#i)"/>
				<g fill="url(#j)">
						<radialGradient id="j" cx="23.623" cy="-23.257" r="63.715" gradientTransform="matrix(.6427 .7661 .7661 -.6427 35.635 -29.896)" gradientUnits="userSpaceOnUse">
						<stop stop-color="#E8DECE" offset="0"/>
						<stop stop-color="#E6DBC8" offset=".0745"/>
						<stop stop-color="#DDCFB2" offset=".4039"/>
						<stop stop-color="#D8C7A4" offset=".7176"/>
						<stop stop-color="#D6C5A0" offset="1"/>
					</radialGradient>
					<path d="m90.65 14.15c0.333 0.367 0.5 0.733 0.5 1.1 0 0.333-0.084 0.567-0.25 0.7-0.167 0.167-0.4 0.25-0.7 0.25-0.467 0-0.983-0.35-1.55-1.05l-0.7-1.05c0-0.5 0.166-0.8 0.5-0.9 0.3-0.1 0.666-0.05 1.1 0.15 0.433 0.2 0.8 0.467 1.1 0.8zm-29.15-13.4c0.434 0.433 0.65 0.75 0.65 0.95 0 0.167-0.184 0.316-0.551 0.45-0.366 0.133-0.949 0.2-1.75 0.2-1.066 0-1.783-0.083-2.149-0.25-0.267-0.167-0.4-0.283-0.4-0.35 0-0.2 0.267-0.55 0.8-1.05 0.466-0.467 1.05-0.7 1.75-0.7 0.667 0 1.216 0.25 1.65 0.75zm-13.4-0.05c0.5 0.367 0.75 0.833 0.75 1.4 0 0.6-0.167 0.917-0.5 0.95l-2.1 0.25c-1 0.167-1.633 0.117-1.9-0.15-0.233-0.3-0.35-0.533-0.35-0.7l0.05-0.35c0-0.533 0.25-0.983 0.75-1.35 0.434-0.267 0.983-0.433 1.65-0.5 0.667 0 1.217 0.15 1.65 0.45zm5.1-0.35c0.566 0 1.05 0.15 1.45 0.45 0.399 0.3 0.6 0.733 0.6 1.3 0 0.6-0.2 0.9-0.6 0.9l-1.75 0.15c-0.8 0.1-1.317 0.083-1.55-0.05l-0.149-1c0-0.567 0.2-1 0.6-1.3 0.399-0.3 0.866-0.45 1.399-0.45zm0.4 5c0.767 0.066 1.384 0.3 1.851 0.7 0.566 0.5 0.85 1.167 0.85 2 0 0.534-0.116 0.95-0.35 1.25-0.334 0.5-1 0.75-2 0.75-1.5 0-2.45-0.4-2.851-1.2-0.133-0.233-0.2-0.517-0.2-0.85l0.05-0.35c0-0.767 0.283-1.367 0.85-1.8 0.433-0.4 1.033-0.567 1.8-0.5zm-7.8 2.35c0 0.466-0.133 0.85-0.4 1.15-0.267 0.467-0.717 0.7-1.35 0.7-0.8 0-1.333-0.283-1.6-0.85l-0.2-0.95c0-0.567 0.167-1.017 0.5-1.35 0.367-0.267 0.8-0.4 1.3-0.4 0.434 0 0.833 0.133 1.2 0.4 0.367 0.367 0.55 0.8 0.55 1.3zm1.9 4.7c0.767 0.567 1.15 1.367 1.15 2.4 0 0.8-0.233 1.5-0.7 2.1-0.633 0.9-1.667 1.35-3.1 1.35-1.4 0-2.417-0.417-3.05-1.25-0.367-0.467-0.55-0.967-0.55-1.5 0-1.233 0.4-2.2 1.2-2.9 0.667-0.667 1.5-1 2.5-1 0.967-0.033 1.817 0.233 2.55 0.8zm15.2-7.55c0.366 0.3 0.55 0.617 0.55 0.95 0 0.733-0.533 1.1-1.601 1.1-0.866 0-1.433-0.183-1.699-0.55-0.1-0.1-0.15-0.317-0.15-0.65 0-0.5 0.184-0.85 0.55-1.05 0.267-0.233 0.65-0.316 1.15-0.25 0.467 0.067 0.866 0.217 1.2 0.45zm-4.85 6.45c0-0.466 0.283-0.9 0.851-1.3 0.366-0.3 0.933-0.533 1.699-0.7 0.767-0.066 1.367 0.017 1.801 0.25 0.533 0.367 0.8 0.867 0.8 1.5 0 0.7-0.351 1.25-1.05 1.65-0.535 0.3-1.251 0.45-2.151 0.45-0.866 0-1.45-0.3-1.75-0.9l-0.2-0.95zm9.95-10c0.866 0 1.517 0.133 1.95 0.4 0.6 0.367 0.899 0.85 0.899 1.45 0 0.434-0.166 0.867-0.5 1.3-0.3 0.4-0.899 0.5-1.8 0.3l-2.3-0.55c-0.699-0.2-1.049-0.55-1.049-1.05 0-0.6 0.3-1.05 0.899-1.35 0.568-0.333 1.201-0.5 1.901-0.5zm4.05 5.5l-0.2-0.1c0-0.667 0.267-1.15 0.801-1.45 0.5-0.233 1.083-0.333 1.75-0.3 0.633 0.033 1.233 0.25 1.8 0.65 0.532 0.433 0.799 0.883 0.799 1.35 0 1.233-0.65 1.75-1.95 1.55-1.3-0.267-2.083-0.6-2.35-1-0.367-0.467-0.584-0.7-0.65-0.7zm-2.6 0.15c0.6 0.4 0.899 0.983 0.899 1.75 0 0.667-0.25 1.216-0.75 1.65-0.566 0.433-1.283 0.55-2.149 0.35-0.967-0.2-1.65-0.417-2.05-0.65-0.467-0.267-0.7-0.533-0.7-0.8v-0.35c0-0.667 0.3-1.233 0.899-1.7 0.467-0.367 1.101-0.583 1.9-0.65 0.801-0.067 1.451 0.067 1.951 0.4zm4.7 5.5c0-0.867 0.25-1.45 0.75-1.75 0.433-0.233 1-0.25 1.699-0.05 0.601 0.267 1.15 0.617 1.65 1.05 0.5 0.5 0.75 1 0.75 1.5 0 0.3-0.1 0.617-0.3 0.95-0.334 0.5-0.816 0.75-1.45 0.75-1.233 0-2.134-0.383-2.7-1.15l-0.349-0.85-0.05-0.45zm8.25-4.75c0.633 0.2 1.149 0.5 1.55 0.9 0.467 0.533 0.7 1.117 0.7 1.75 0 0.4-0.117 0.7-0.351 0.9-0.3 0.333-0.75 0.5-1.35 0.5-0.834 0-1.55-0.517-2.15-1.55-0.399-0.733-0.6-1.3-0.6-1.7 0-0.433 0.217-0.717 0.649-0.85l1.552 0.05zm1.05 8.9c0.767-0.1 1.383 0.017 1.85 0.35 0.566 0.3 0.851 0.783 0.851 1.45 0 0.633-0.217 1.184-0.65 1.65-0.6 0.667-1.467 1-2.6 1-0.9 0-1.534-0.333-1.9-1l-0.201-1.05c0-0.667 0.283-1.233 0.851-1.7 0.533-0.433 1.132-0.667 1.799-0.7zm-10.3-0.5c0 0.7-0.134 1.267-0.4 1.7-0.4 0.8-1.083 1.2-2.05 1.2-1.467 0-2.483-0.4-3.05-1.2-0.167-0.233-0.284-0.517-0.351-0.85l-0.05-0.4c0-0.933 0.316-1.617 0.95-2.05 0.467-0.433 1.133-0.65 2-0.65 0.767 0.033 1.45 0.233 2.05 0.6 0.601 0.467 0.901 1.017 0.901 1.65zm-7.15 10.45c0 0.434-0.116 0.817-0.35 1.15-0.301 0.5-0.784 0.75-1.45 0.75-0.8 0-1.334-0.3-1.601-0.9l-0.199-1c0-0.6 0.183-1.083 0.55-1.45 0.333-0.333 0.75-0.5 1.25-0.5 0.467 0 0.866 0.167 1.2 0.5 0.4 0.367 0.6 0.85 0.6 1.45zm7.4-3.8c0.466-0.067 0.816 0 1.05 0.2 0.3 0.267 0.45 0.617 0.45 1.05 0 0.367-0.101 0.7-0.301 1-0.3 0.333-0.699 0.5-1.199 0.5-0.667 0-1.117-0.233-1.351-0.7l-0.2-0.75c0-0.367 0.167-0.667 0.5-0.9 0.335-0.233 0.684-0.367 1.051-0.4zm7.4 7.25c0 0.833-0.2 1.45-0.6 1.85-0.533 0.467-1.4 0.7-2.601 0.7-1.1 0-1.833-0.383-2.199-1.15-0.101-0.167-0.184-0.433-0.25-0.8v-0.35c0-0.833 0.3-1.533 0.899-2.1 0.601-0.5 1.25-0.767 1.95-0.8 0.767 0 1.417 0.217 1.95 0.65 0.568 0.5 0.851 1.167 0.851 2zm-21.2-11c-0.933 0-1.55-0.317-1.85-0.95-0.134-0.233-0.2-0.617-0.2-1.15 0-0.667 0.25-1.233 0.75-1.7 0.5-0.4 1.066-0.6 1.7-0.6 0.634-0.1 1.184 0.033 1.65 0.4 0.5 0.4 0.75 0.933 0.75 1.6 0 0.566-0.217 1.066-0.65 1.5-0.5 0.6-1.217 0.9-2.15 0.9zm-4.1 2.55c0 1.2-0.884 1.8-2.65 1.8-1.233 0-2.1-0.317-2.6-0.95-0.233-0.333-0.35-0.683-0.35-1.05 0-0.6 0.283-1.1 0.85-1.5 0.566-0.3 1.217-0.45 1.95-0.45s1.383 0.184 1.95 0.55c0.567 0.367 0.85 0.9 0.85 1.6zm-7.65 11.65c0-1.4 0.533-2.55 1.6-3.45 0.966-0.767 2.133-1.2 3.5-1.3 1.434-0.034 2.616 0.25 3.55 0.85 1.033 0.7 1.55 1.717 1.55 3.05 0 1.1-0.399 2.15-1.2 3.15-1.1 1.267-2.616 1.9-4.55 1.9-1.933 0-3.25-0.6-3.95-1.8-0.333-0.533-0.5-1.333-0.5-2.4zm49.3-7.4c0.633 0.2 1.25 0.534 1.85 1 0.566 0.567 0.85 1.117 0.85 1.65s-0.216 1.066-0.649 1.6c-0.566 0.667-1.3 1-2.2 1-0.967 0-1.684-0.5-2.15-1.5-0.233-0.5-0.35-1.066-0.35-1.7 0-0.967 0.283-1.6 0.85-1.9 0.465-0.3 1.066-0.35 1.799-0.15zm-3.6-6.2c0.5 0.5 0.75 1.133 0.75 1.9 0 0.6-0.166 1.117-0.5 1.55-0.467 0.567-1.184 0.85-2.149 0.85-1.134 0-1.884-0.333-2.25-1-0.101-0.2-0.15-0.65-0.15-1.35 0-0.867 0.267-1.55 0.8-2.05 0.5-0.433 1.084-0.65 1.75-0.65 0.666 0.067 1.249 0.317 1.749 0.75zm-0.9 9.95c0.433 0.434 0.649 1.017 0.649 1.75 0 0.4-0.166 0.784-0.5 1.15-0.399 0.5-0.934 0.75-1.6 0.75-0.967 0-1.65-0.417-2.05-1.25l-0.25-0.9-0.049-0.35c0-0.633 0.233-1.133 0.7-1.5 0.434-0.3 0.95-0.4 1.55-0.3 0.6 0.067 1.117 0.283 1.55 0.65zm-75.5-16.85l-0.2-0.95c0-0.633 0.2-1.15 0.6-1.55 0.5-0.434 1.15-0.65 1.95-0.65 0.933 0 1.6 0.267 2 0.8 0.167 0.2 0.25 0.517 0.25 0.95 0 0.567-0.25 1.067-0.75 1.5-0.567 0.567-1.317 0.85-2.25 0.85-0.767 0-1.3-0.317-1.6-0.95zm6.45-3.65c0-0.966 0.283-1.7 0.85-2.2 0.5-0.5 1.15-0.75 1.95-0.75 0.767 0 1.417 0.25 1.95 0.75 0.6 0.5 0.85 1.05 0.75 1.65-0.1 0.567-0.4 1.083-0.9 1.55-0.5 0.5-1.25 0.867-2.25 1.1-1.034 0.3-1.75 0.05-2.15-0.75-0.133-0.233-0.2-0.683-0.2-1.35zm10.2-0.05c0.667 0.1 1.267 0.367 1.8 0.8 0.5 0.5 0.75 1.083 0.75 1.75 0 0.534-0.167 1.05-0.5 1.55-0.434 0.533-1.067 0.8-1.9 0.8-1.067 0-1.85-0.383-2.35-1.15-0.233-0.367-0.35-0.783-0.35-1.25 0-0.9 0.267-1.567 0.8-2 0.433-0.4 1.017-0.567 1.75-0.5zm6.4-4.5c0 0.567-0.25 1-0.75 1.3s-1.3 0.667-2.4 1.1c-1.066 0.367-1.716 0.317-1.95-0.15-0.2-0.5-0.3-0.9-0.3-1.2v-0.45c0-0.733 0.284-1.383 0.85-1.95 0.467-0.4 1.083-0.633 1.85-0.7 0.733-0.034 1.35 0.117 1.85 0.45 0.567 0.333 0.85 0.867 0.85 1.6zm-36.95 25.25c0.7-0.1 1.267 0 1.7 0.3 0.5 0.4 0.75 1 0.75 1.8 0 0.633-0.267 1.267-0.8 1.9-0.533 0.733-1.25 1.1-2.15 1.1-1 0-1.617-0.367-1.85-1.1-0.067-0.133-0.1-0.383-0.1-0.75l0.05-0.35c0-0.733 0.25-1.383 0.75-1.95 0.433-0.467 0.983-0.783 1.65-0.95zm37.95-7.75c0.867-0.1 1.566 0.067 2.1 0.5 0.667 0.467 1 1.15 1 2.05 0 0.7-0.25 1.267-0.75 1.7-0.533 0.633-1.35 0.95-2.45 0.95-1.167 0-2.033-0.4-2.6-1.2-0.167-0.333-0.267-0.6-0.3-0.8l-0.05-0.4c0-0.8 0.317-1.466 0.95-2 0.567-0.467 1.267-0.733 2.1-0.8zm-15.2 4.05c0.6 0 1.1 0.15 1.5 0.45 0.433 0.3 0.65 0.733 0.65 1.3 0 0.367-0.167 0.767-0.5 1.2-0.433 0.667-1 1-1.7 1-0.767 0-1.35-0.35-1.75-1.05l-0.35-1.1c0-0.567 0.217-1 0.65-1.3 0.433-0.267 0.933-0.433 1.5-0.5zm0.9-3.5c-1.467 0-2.5-0.617-3.1-1.85-0.2-0.4-0.35-0.85-0.45-1.35v-0.6c0-0.833 0.333-1.483 1-1.95 0.566-0.433 1.3-0.617 2.2-0.55 0.9 0.1 1.617 0.45 2.15 1.05 0.7 0.767 1.05 1.733 1.05 2.9 0 0.667-0.183 1.183-0.55 1.55-0.433 0.533-1.2 0.8-2.3 0.8zm-1.6 14.4c0.4-0.4 1.067-0.6 2-0.6 0.967 0 1.667 0.267 2.1 0.8 0.233 0.3 0.35 0.617 0.35 0.95 0 0.467-0.183 0.917-0.55 1.35-0.434 0.5-1.117 0.75-2.05 0.75-1.066 0-1.767-0.317-2.1-0.95-0.133-0.267-0.2-0.483-0.2-0.65v-0.3c0-0.6 0.15-1.05 0.45-1.35zm-9.1-16.1c-0.767 0.967-1.917 1.45-3.45 1.45-1.867 0-3.133-0.55-3.8-1.65-0.233-0.433-0.367-0.85-0.4-1.25l-0.05-0.55c0-1.267 0.433-2.283 1.3-3.05 0.8-0.7 1.784-1.017 2.95-0.95 1.1 0 2.067 0.35 2.9 1.05 0.867 0.7 1.3 1.65 1.3 2.85 0 0.767-0.25 1.467-0.75 2.1zm-4.45 8.6c0.8-0.633 1.85-0.9 3.15-0.8 1.2 0.167 2.25 0.617 3.15 1.35 0.967 0.733 1.45 1.633 1.45 2.7 0 1.233-0.433 2.283-1.3 3.15-0.967 1.033-2.417 1.55-4.35 1.55-1.6 0-2.684-0.717-3.25-2.15-0.167-0.567-0.25-1.083-0.25-1.55l-0.05-0.8c0-1.533 0.483-2.683 1.45-3.45z"/>
					<path d="m70.75 37.95c-0.934 0-1.517-0.267-1.75-0.8-0.134-0.167-0.2-0.45-0.2-0.85 0-0.533 0.2-0.95 0.601-1.25 0.3-0.3 0.733-0.483 1.3-0.55 0.5 0 0.934 0.133 1.3 0.4 0.4 0.3 0.6 0.733 0.6 1.3 0 0.466-0.083 0.833-0.25 1.1-0.334 0.433-0.868 0.65-1.601 0.65zm12.7-7.1c0-0.367 0.133-0.65 0.399-0.85 0.167-0.167 0.434-0.25 0.801-0.25 0.767 0 1.149 0.417 1.149 1.25 0 0.7-0.35 1.05-1.05 1.05-0.6 0-0.983-0.183-1.15-0.55l-0.149-0.65zm-1.95 7.4c-0.134-0.233-0.2-0.483-0.2-0.75 0-0.4 0.15-0.7 0.45-0.9 0.2-0.167 0.5-0.25 0.9-0.25 0.433 0.1 0.75 0.25 0.949 0.45 0.267 0.267 0.4 0.567 0.4 0.9 0 0.367-0.083 0.633-0.25 0.8-0.2 0.3-0.55 0.45-1.05 0.45-0.532 0-0.932-0.233-1.199-0.7zm-18.55-4.25c0.733-0.033 1.1 0.267 1.1 0.9 0 0.3-0.1 0.567-0.3 0.8-0.233 0.267-0.533 0.4-0.9 0.4-0.399 0-0.699-0.15-0.899-0.45l-0.05-0.6c-1e-3 -0.633 0.349-0.983 1.049-1.05zm-16.9 4.85c0.333 0.3 0.5 0.717 0.5 1.25 0 0.333-0.117 0.617-0.35 0.85-0.267 0.367-0.7 0.55-1.3 0.55-0.7 0-1.167-0.217-1.4-0.65l-0.15-0.75c0-0.434 0.167-0.817 0.5-1.15 0.3-0.233 0.667-0.383 1.1-0.45 0.467 0 0.833 0.117 1.1 0.35zm16.9 1.05c0.3-0.233 0.649-0.35 1.05-0.35 0.434 0 0.8 0.1 1.1 0.3 0.334 0.233 0.5 0.583 0.5 1.05 0 0.333-0.1 0.617-0.3 0.85-0.3 0.433-0.8 0.65-1.5 0.65s-1.149-0.233-1.35-0.7l-0.05-0.65c0-0.467 0.183-0.85 0.55-1.15zm-6.05 4.95c0.267 0.2 0.399 0.483 0.399 0.85 0 0.3-0.066 0.533-0.2 0.7-0.199 0.3-0.55 0.45-1.05 0.45-0.467 0-0.8-0.15-1-0.45-0.1-0.2-0.149-0.383-0.149-0.55 0-0.767 0.383-1.184 1.149-1.25 0.368-0.033 0.651 0.05 0.851 0.25zm20.05-1.45c0.233-0.333 0.649-0.5 1.25-0.5 0.967 0 1.45 0.483 1.45 1.45 0 0.233-0.101 0.5-0.301 0.8-0.3 0.3-0.683 0.45-1.149 0.45-0.566 0-0.983-0.233-1.25-0.7-0.134-0.233-0.2-0.483-0.2-0.75 0-0.333 0.066-0.583 0.2-0.75zm8.7-18.45c0-0.667 0.416-1.034 1.25-1.1 0.866-0.033 1.3 0.3 1.3 1 0 0.267-0.101 0.5-0.3 0.7-0.267 0.267-0.617 0.4-1.051 0.4-0.5 0-0.866-0.167-1.1-0.5l-0.099-0.5zm7.95 11.3c0.301 0.3 0.45 0.783 0.45 1.45 0 1-0.5 1.5-1.5 1.5-0.7 0-1.149-0.233-1.35-0.7l-0.05-0.7c0-0.433 0.166-0.816 0.5-1.15 0.233-0.333 0.566-0.55 1-0.65 0.367-0.1 0.683-0.017 0.95 0.25zm7.85-2.25c0.3 0.2 0.45 0.483 0.45 0.85 0 0.467-0.184 0.8-0.551 1-0.233 0.167-0.633 0.25-1.199 0.25-0.5 0-0.817-0.167-0.95-0.5l-0.15-0.55c0-0.8 0.467-1.233 1.4-1.3 0.4 0 0.73 0.083 1 0.25zm-11.55 7.7c0.3-0.3 0.716-0.45 1.25-0.45 0.5 0 0.899 0.183 1.199 0.55 0.233 0.367 0.351 0.633 0.351 0.8 0 0.233-0.084 0.483-0.25 0.75-0.3 0.367-0.684 0.55-1.15 0.55-0.7 0-1.2-0.217-1.5-0.65-0.133-0.333-0.2-0.583-0.2-0.75 0-0.267 0.1-0.533 0.3-0.8zm-53.8-21.15c-0.3 0.333-0.65 0.5-1.05 0.5-0.433 0-0.733-0.133-0.9-0.4l-0.1-0.5c0-0.3 0.133-0.583 0.4-0.85 0.2-0.267 0.483-0.45 0.85-0.55 0.8-0.3 1.2 0 1.2 0.9 0 0.267-0.133 0.567-0.4 0.9zm-5.45 12.05c0.4-0.333 0.833-0.5 1.3-0.5 0.5-0.067 0.917 0.066 1.25 0.4 0.4 0.367 0.6 0.883 0.6 1.55 0 0.333-0.117 0.617-0.35 0.85-0.3 0.4-0.784 0.6-1.45 0.6-0.767 0-1.333-0.283-1.7-0.85l-0.2-0.95c0-0.433 0.183-0.8 0.55-1.1zm7.75 3.15c0-0.3 0.133-0.583 0.4-0.85 0.267-0.3 0.534-0.5 0.8-0.6 0.833-0.233 1.25 0.117 1.25 1.05 0 0.367-0.067 0.617-0.2 0.75-0.2 0.367-0.566 0.55-1.1 0.55-0.533 0-0.883-0.15-1.05-0.45l-0.1-0.45zm-18.9-11.1c0.267 0.267 0.4 0.633 0.4 1.1 0 0.3-0.083 0.617-0.25 0.95-0.267 0.433-0.683 0.65-1.25 0.65-0.5 0-0.833-0.233-1-0.7l-0.1-0.7c0-0.434 0.15-0.8 0.45-1.1 0.2-0.233 0.483-0.383 0.85-0.45 0.333-0.033 0.633 0.05 0.9 0.25zm-9.85 0.4c0.934-0.1 1.4 0.317 1.4 1.25 0 0.367-0.066 0.633-0.2 0.8-0.267 0.333-0.617 0.5-1.05 0.5-0.633 0-1.083-0.2-1.35-0.6-0.133-0.233-0.2-0.467-0.2-0.7 0-0.3 0.15-0.583 0.45-0.85 0.2-0.2 0.517-0.333 0.95-0.4zm10.4 20.4c-0.533 0-0.883-0.233-1.05-0.7v-0.75c0-0.6 0.15-1.05 0.45-1.35 0.3-0.233 0.65-0.333 1.05-0.3 0.467 0.066 0.817 0.217 1.05 0.45 0.333 0.3 0.5 0.667 0.5 1.1 0 0.333-0.15 0.65-0.45 0.95-0.333 0.4-0.85 0.6-1.55 0.6zm-12.5-6c0.3-0.3 0.633-0.467 1-0.5 0.4-0.1 0.733-0.034 1 0.2 0.333 0.233 0.5 0.567 0.5 1 0 1.167-0.583 1.75-1.75 1.75-0.667 0-1.05-0.217-1.15-0.65l-0.05-0.65c0-0.467 0.15-0.85 0.45-1.15zm28 7.3c-0.667 0-1.167-0.267-1.5-0.8l-0.25-0.75c0-0.5 0.2-0.883 0.6-1.15 0.367-0.267 0.833-0.433 1.4-0.5 0.434 0 0.883 0.117 1.35 0.35 0.4 0.267 0.6 0.633 0.6 1.1 0 0.3-0.183 0.667-0.55 1.1-0.533 0.433-1.083 0.65-1.65 0.65z"/>
				</g>
			</g>
			<path d="m39.9 119.55c1.7-0.2 3.617 0.934 5.75 3.4 1.167 1.333 2.583 3.217 4.25 5.649 0.333 0.434 0.917 1.101 1.75 2 0.334 0.465 0.551 0.924 0.649 1.375-0.025-0.595-0.075-1.369-0.149-2.324-0.101-1.4-0.117-2.5-0.051-3.301 1.5 0.934 3.051 2.25 4.65 3.95 1.767 1.867 2.9 3.533 3.4 5 0.267-1.666 0.916-2.616 1.949-2.85 0.2-1.467 0.567-2.483 1.101-3.05 0.3 1.366 0.633 2.517 1 3.449 0.8-0.866 1.483-2.466 2.05-4.8 0.634-2.533 1.233-4.217 1.8-5.05 0.4 0.767 0.601 2.083 0.601 3.95-0.034 2.6-0.034 4 0 4.2 1.699-3.567 2.733-5.601 3.1-6.101 1.434-2.033 3.267-3.2 5.5-3.5-0.1 1.134-0.5 2.934-1.2 5.4-0.633 2.366-0.983 4.2-1.05 5.5-0.033 0-1.667 0.033-4.9 0.1-2.033 0.066-3.633 0.334-4.8 0.8-0.233 0.101-0.983 0.483-2.25 1.15-0.833 0.434-1.616 0.7-2.35 0.8-2.8 0.4-6.717 0.267-11.75-0.399-5.667-0.767-9.583-1.101-11.75-1l4.5-1.101c-0.8-0.399-1.717-1.033-2.75-1.899-0.875-0.798-1.583-1.423-2.125-1.875 0.52 0.362 1.212 0.671 2.075 0.925 0.633 0.2 1.55 0.467 2.75 0.8-0.4-1.267-1.316-2.9-2.75-4.9-1.566-2.133-2.566-3.716-3-4.75 1.267 0.134 2.684 0.917 4.25 2.351 0.833 0.8 2 1.934 3.5 3.399-0.066-1.1-0.566-2.366-1.5-3.8-1.1-1.58-1.85-2.74-2.25-3.51z" clip-rule="evenodd" fill="#354F0C" fill-rule="evenodd"/>
			<path d="m41.4 132.45c-0.1-0.8-0.533-1.783-1.3-2.95-0.833-1.2-1.3-2.184-1.4-2.95 2.367 0.767 4.117 2.066 5.25 3.9 1.133 1.866 1.583 4.217 1.35 7.05-3.184 0.228-5.117-0.798-5.8-3.075-2.371-1.108-3.571-1.634-3.6-1.575-0.5-0.533-1.833-2.083-4-4.649 0.767-0.5 2.367-0.117 4.8 1.149 2.033 1.08 3.6 2.11 4.7 3.11z" clip-rule="evenodd" fill="#577820" fill-rule="evenodd"/>
			<path d="m52.05 138.1c0.134-3.466-0.7-7.166-2.5-11.1 2.4 2.1 3.884 3.483 4.45 4.15 1.634 1.866 2.45 3.733 2.45 5.6l-3 0.05-1.4 1.3z" clip-rule="evenodd" fill="#577820" fill-rule="evenodd"/>
			<path d="m72.6 124.1c0.767 2.801 0.817 5.067 0.15 6.801-0.467 1.199-1.217 2.133-2.25 2.8-0.767 0.5-1.866 0.934-3.3 1.3l-5.601 0.3c0.034-0.666-0.017-1.733-0.149-3.2-0.134-1.366-0.167-2.433-0.101-3.199 1.301-0.034 2.867 1.983 4.7 6.05-0.7-4.434-1.883-8.316-3.55-11.65 0.434 0.634 1.45 1.384 3.05 2.25 1.434 0.8 2.351 1.684 2.75 2.65 0.134 0.366 0.233 0.934 0.3 1.7 0.067 0.8 0.15 1.366 0.25 1.699 0.067-0.833 0-3.033-0.199-6.6-0.134-2.8 0.033-4.917 0.5-6.35 1.5 0.73 2.65 2.55 3.45 5.45z" clip-rule="evenodd" fill="#577820" fill-rule="evenodd"/>
</svg>
