<?xml version="1.0" encoding="utf-8"?>
<svg xmlns="http://www.w3.org/2000/svg" xmlns:xlink="http://www.w3.org/1999/xlink" version= "1.1" width="720px" height="1424px" viewBox="0 0 720 1424">
<g id="layer1">
<g style="fill:rgb(0,0,0); fill-opacity:0.13333334; stroke-linejoin: miter">
<path d="M815.2435,1080.2369L811.2899,1090.7579Q804.90015,1097.8798,792.94073,1104.4607Q790.4421,1108.0891,744.5304,1122.9854Q703.9024,1134.5237,640.9953,1143.8972Q626.7355,1146.9117,540.30756,1155.5408Q433.947,1164.768,304.89493,1164.329Q222.77545,1163.3444,155.20789,1158.333L122.333565,1155.5757Q90.36875,1152.5668,62.04194,1148.5511Q-147.28412,1116.3651,-57.492043,1066.4615Q57.082516,1017.40186,363.69415,1009.9577Q448.75983,1009.0415,521.1868,1012.4495Q557.40015,1014.1536,590.4539,1016.9388Q670.3236,1024.8478,682.50586,1027.7267Q739.1341,1036.5403,771.64606,1047.8922Q787.9019,1053.5681,798.1288,1059.8783Q807.01013,1062.6368,815.2434,1080.2369"/>
</g>
<g style="fill:rgb(255,184,146); fill-opacity:1.0; stroke-linejoin: miter">
<path d="M273.65018,527.5024L274.49216,524.8078Q276.85318,516.69867,280.69962,508.81534Q283.33267,503.57028,287.45126,498.55112Q296.16635,488.58557,310.80972,479.52148Q316.0649,476.08655,329.42758,468.239L344.93436,478.65442L305.4553,538.9086L273.65018,527.5024"/>
</g>
<g style="fill:rgb(255,184,146); fill-opacity:1.0; stroke-linejoin: miter">
<path d="M430.87207,724.2701L430.87207,724.2708L436.0041,729.7807L454.01874,722.60077Q459.2851,712.29425,461.09796,707.1514Q462.75647,702.08954,462.75,701.25446Q463.08655,699.4008,463.06543,697.7347Q463.0335,696.0744,462.64392,694.60126L462.1811,693.16656Q461.63702,691.7745,460.83282,690.5185Q458.88733,687.3449,453.38245,682.6816L430.87207,724.2701"/>
</g>
<g style="fill:rgb(255,184,146); fill-opacity:1.0; stroke-linejoin: miter">
<path d="M616.6268,478.1877L641.8565,467.66708L667.9401,437.71545L685.01575,437.26245L695.77075,429.30112L699.43353,435.6735L686.47595,446.25296L677.9131,460.14755L689.195,451.87494L694.39343,458.75198L666.2608,487.35757L643.5095,489.12204L621.3034,497.77313L616.6268,478.1877"/>
</g>
<g style="fill:rgb(255,255,255); fill-opacity:1.0; stroke-linejoin: miter">
<path d="M608.5668,475.80386L608.5667,475.8039L621.9925,475.08392Q622.5772,489.30807,623.1619,503.53232Q614.682,503.99252,606.202,504.45273L608.5668,475.80386"/>
</g>
<g style="fill:rgb(255,255,255); fill-opacity:1.0; stroke-linejoin: miter">
<path d="M450.96948,694.8107L451.18823,696.28876Q452.4699,704.4748,452.12183,708.836Q451.71942,713.90594,449.20422,717.0489Q446.68353,720.1838,443.09167,720.71014Q441.3286,720.9545,439.4328,720.7305Q436.57867,720.35785,433.61255,719.5898L450.96948,694.8107"/>
</g>
<g style="fill:rgb(0,0,0); fill-opacity:1.0; stroke-linejoin: miter">
<path d="M668.9422,1043.0354L670.3469,1044.7273Q685.09155,1062.5803,700.2867,1073.7299Q717.3027,1086.2169,729.74005,1089.7368Q740.24554,1092.7557,746.3904,1092.2654Q752.5884,1091.9878,755.1214,1088.9886Q757.06805,1087.156,755.50586,1081.8818Q754.634,1079.3978,752.914,1076.5529Q752.42615,1075.2106,746.3723,1067.6918Q745.2483,1066.079,737.9094,1058.9526Q731.8352,1053.3763,726.02856,1049.6567Q720.25464,1045.9847,714.9954,1043.626Q711.9568,1042.1763,700.6671,1037.6692L694.664,1034.8497Q688.07825,1031.4736,679.5982,1025.7812L668.9422,1043.0354"/>
</g>
<g style="fill:rgb(255,184,146); fill-opacity:1.0; stroke-linejoin: miter">
<path d="M537.6679,954.0853L541.68604,957.9176Q567.16473,982.828,591.78143,1000.06506Q613.16595,1015.3876,669.6441,1046.0156L702.3834,1071.9343L704.7155,1073.1892Q728.04175,1086.9193,737.7653,1081.8926Q741.8545,1079.7128,740.45715,1073.8403Q738.26184,1067.0269,729.89795,1058.7913Q721.4267,1049.0244,691.134,1034.9065Q639.35364,981.3485,621.3096,965.61743Q601.8654,947.9148,578.66895,934.6046L537.6679,954.0853"/>
</g>
<g style="fill:rgb(0,0,0); fill-opacity:1.0; stroke-linejoin: miter">
<path d="M238.99028,1056.1206L240.89009,986.645Q251.5111,982.47754,256.50528,983.3091Q260.14066,983.63354,265.9042,985.975Q266.64725,986.2699,267.38974,986.569L272.81418,989.74097L270.56277,1017.34106L257.95663,1018.91943Q256.97452,1029.394,257.88785,1034.7958Q257.91885,1035.4668,258.81985,1038.0437Q262.49423,1045.5035,263.42056,1049.2772Q265.03207,1055.0786,265.7883,1063.666Q266.2349,1070.5718,266.12473,1071.8784Q266.11093,1074.5625,265.8953,1076.9973Q265.67966,1079.4321,265.23172,1081.4573L264.72098,1083.3489Q264.14847,1085.1183,263.3685,1086.4572Q260.89157,1091.3986,253.33022,1092.3046Q246.0413,1093.1615,242.00343,1088.5343Q240.82411,1086.7257,240.60463,1085.8276Q239.79887,1083.4448,239.53773,1080.5314Q239.42125,1079.8369,239.2942,1076.0911Q239.26854,1066.1525,238.99028,1056.1206"/>
</g>
<g style="fill:rgb(0,0,0); fill-opacity:1.0; stroke-linejoin: miter">
<path d="M356.69003,454.7919L355.85794,453.5985Q345.36044,440.1536,346.58865,426.2025Q346.99966,420.8698,348.68338,415.3716Q351.03616,408.6442,351.8517,407.46936Q355.70798,399.75577,361.78757,395.04883Q374.43765,385.78104,390.60742,389.28702Q409.5003,393.65973,418.74036,406.1064Q420.54614,408.59253,423.1978,413.7957L377.7924,478.09338L356.69003,454.7919"/>
</g>
<g style="fill:rgb(0,0,0); fill-opacity:1.0; stroke-linejoin: miter">
<path d="M55.816116,1054.4127L56.366905,1055.2845Q60.170105,1060.868,60.36705,1065.6477Q60.715675,1069.8312,56.62667,1079.9935L35.230816,1088.3654Q30.85365,1092.7163,25.931683,1094.8616Q21.56439,1096.7642,15.216986,1097.6599Q2.783108,1099.114,-4.449181,1096.9668Q-7.4884424,1096.2385,-10.901206,1094.0625Q-11.889746,1093.6642,-14.508773,1090.5695Q-16.387236,1087.218,-16.212042,1086.4163Q-16.433714,1084.9517,-16.146048,1083.4292Q-15.52748,1080.3823,-12.894699,1077.2834Q-8.36297,1071.864,4.282397,1063.2155L25.446064,1040.1761Q27.68769,1036.0594,30.201233,1033.1537Q32.38861,1031.1451,32.91876,1031.1559Q36.382404,1029.5741,41.153996,1034.4996Q46.275646,1039.6599,55.816116,1054.4127"/>
</g>
<g style="fill:rgb(0,0,0); fill-opacity:1.0; stroke-linejoin: miter">
<path d="M52.576942,1056.696L52.576927,1056.696L69.21633,1037.4137Q55.211945,1028.7937,41.20754,1020.17395Q33.957905,1031.0563,26.708263,1041.9386L52.576942,1056.696"/>
</g>
<g style="fill:rgb(0,0,0); fill-opacity:1.0; stroke-linejoin: miter">
<path d="M100.431366,1063.0477L35.592777,1021.87585L75.01453,958.8113L142.81445,868.6266L218.95203,759.092L302.3558,807.7063L100.431366,1063.0477"/>
</g>
<g style="fill:rgb(57,68,88); fill-opacity:1.0; stroke-linejoin: miter">
<path d="M300.67233,814.5519L290.73837,802.125Q258.8926,792.4558,246.27043,783.9934Q233.05925,776.17847,213.23825,753.29254Q261.1937,643.413,261.40634,637.6595Q268.17538,621.28204,279.50015,564.5357Q283.96396,548.5008,285.4783,545.5927Q290.31332,529.7963,311.4103,506.74765Q323.4258,494.0692,349.44052,473.14838L432.39496,483.5277L498.55762,485.50037Q544.67316,472.33093,612.8958,473.95615L612.2972,513.2756L544.97437,518.3144L452.17102,540.92267L452.20642,555.4782L300.67233,814.5519"/>
</g>
<g style="fill:rgb(0,0,0); fill-opacity:1.0; stroke-linejoin: miter">
<path d="M499.06952,973.2478L513.73975,1038.6813Q506.85046,1047.6882,496.1128,1046.9827Q486.67645,1047.2067,453.21808,1037.2362L438.8271,976.67505L499.06952,973.2478"/>
</g>
<g style="fill:rgb(0,0,0); fill-opacity:1.0; stroke-linejoin: miter">
<path d="M510.69165,1039.0336L521.92474,1050.4216Q539.393,1057.1766,544.31555,1061.8383Q548.525,1065.5691,543.61316,1072.7247L520.2476,1072.284Q510.81104,1073.2098,506.23633,1073.1001Q502.5257,1073.0598,499.51758,1072.3632Q492.09595,1070.67,487.15472,1061.1163L486.47174,1074.0276L453.8523,1067.9166L454.2975,1057.6958Q449.18695,1051.0125,449.7881,1046.8473Q449.82593,1042.8292,456.21448,1033.1462L510.69165,1039.0336"/>
</g>
<g style="fill:rgb(99,112,121); fill-opacity:1.0; stroke-linejoin: miter">
<path d="M489.86816,651.17267L489.86816,651.1728L489.8681,651.1729L489.86816,651.17267"/>
</g>
<g style="fill:rgb(255,255,255); fill-opacity:1.0; stroke-linejoin: miter">
<path d="M356.02914,482.139L359.89548,473.69003Q372.9761,489.61038,378.6259,495.28595Q384.43457,501.36923,394.2707,508.96634L415.99725,496.73355Q421.69366,527.0434,422.5868,540.77106Q424.07788,557.8184,419.6175,566.7143Q418.04773,569.56586,415.81427,571.50836Q415.01276,572.91144,407.95227,575.7452Q398.74615,578.1409,387.74805,578.0821Q387.76166,562.5456,387.00488,554.34357Q386.2375,544.4216,383.4689,535.62604Q382.1979,531.10785,377.58267,521.89594L365.59756,500.70676Q361.4761,493.14563,356.02914,482.139"/>
</g>
<g style="fill:rgb(255,255,255); fill-opacity:1.0; stroke-linejoin: miter">
<path d="M412.76337,460.44107L412.76337,460.44128L412.7633,460.44147L412.76337,460.44107"/>
</g>
<g style="fill:rgb(0,0,0); fill-opacity:1.0; stroke-linejoin: miter">
<path d="M385.57928,520.9981L394.22742,509.1547L403.3095,518.50336L401.0871,525.10675Q406.17255,533.7,407.51202,541.44366Q409.06622,548.5723,409.76794,569.7238L389.61047,583.46075Q387.95947,552.8868,388.266,543.9665Q388.37054,533.9101,390.8437,526.53046L385.57928,520.9981"/>
</g>
<g style="fill:rgb(0,0,0); fill-opacity:1.0; stroke-linejoin: miter">
<path d="M402.57117,603.50323L402.5711,603.50336L402.5711,603.5035L402.57117,603.50323"/>
</g>
<g style="fill:rgb(255,232,64); fill-opacity:1.0; stroke-linejoin: miter">
<path d="M343.09653,697.5135L348.45944,687.7486L365.71616,663.0612L380.3654,635.5644L378.6758,627.26483L315.6813,609.3211L279.31436,554.8542L275.77945,548.0173Q267.27475,533.659,272.17795,520.54486L290.13474,518.48016L293.64816,528.67926Q297.26077,527.78265,369.3373,577.0749L389.57733,579.5889L407.1629,564.79803L407.93378,505.72006L426.51715,481.83487Q435.5067,492.27032,438.38147,499.63327Q440.48956,505.63858,440.34753,514.0645Q446.799,521.62897,449.07483,528.9992Q450.77563,535.14886,451.1275,545.5949L461.3073,555.29535L493.2848,588.39923Q498.94678,605.0063,494.66968,617.5911Q491.66113,629.4119,471.4281,661.616Q469.4718,669.75775,467.0487,674.4504Q464.859,680.8674,448.91968,691.352L422.94568,725.66656L343.09653,697.5135"/>
</g>
<g style="fill:rgb(0,0,0); fill-opacity:1.0; stroke-linejoin: miter">
<path d="M465.29742,556.79047L465.05188,553.6551Q463.51355,540.8282,466.42902,530.2778Q468.9839,522.5031,476.8579,517.6474Q488.04712,511.25125,498.9015,509.67282Q500.4215,509.31326,505.21887,509.02823Q519.1897,509.89786,518.8935,509.3818Q535.6076,505.7134,541.38007,505.58725Q548.6031,505.70108,549.9632,506.3765Q552.7655,507.06058,555.38165,508.46585Q560.62573,511.34457,564.92456,516.5302Q571.4094,524.44867,575.1086,535.034Q578.47327,545.061,578.87775,553.1884Q580.1957,568.19464,572.57166,580.9384Q564.70544,592.4084,545.2576,603.3676Q551.6474,608.4278,553.35626,614.14557Q555.18945,620.5983,551.3515,628.3907Q545.8692,637.8338,531.9567,639.19135Q525.7222,639.59064,521.55817,636.9826Q517.1344,634.8167,512.05975,623.5556Q504.70367,623.99786,500.31372,621.44794Q496.05084,619.3924,486.1012,609.7387L465.29742,556.79047"/>
</g>
<g style="fill:rgb(255,232,64); fill-opacity:1.0; stroke-linejoin: miter">
<path d="M466.03778,583.91473L467.50818,583.53253Q473.46448,581.7707,478.8236,581.86957Q483.15344,582.3182,485.33057,584.10614Q489.81628,587.5234,492.80273,593.3035Q495.32428,598.1402,495.90454,600.3482Q496.3612,601.81683,496.60382,603.4362L496.77747,605.11273Q497.03333,608.52155,495.93945,613.1595Q494.82263,617.8233,491.9549,624.2391Q488.23303,633.283,471.35718,662.6337L466.03778,583.91473"/>
</g>
<g style="fill:rgb(255,184,146); fill-opacity:1.0; stroke-linejoin: miter">
<path d="M441.25854,572.47675L442.4571,571.0434Q450.00757,561.5788,457.85535,556.63654Q464.64447,552.1286,483.37152,546.2764Q486.7962,537.51337,489.27563,535.2524Q491.61823,532.6131,497.8376,531.5755L498.18823,522.4069L507.18536,522.44635Q529.94214,516.66327,537.4972,516.9106Q555.3853,516.55756,562.39404,532.62213Q567.6102,543.54767,567.8065,554.2729Q568.10486,562.74603,562.91833,569.3547Q560.8572,572.3046,554.441,576.7603Q553.147,577.8947,535.98126,587.07745Q534.53217,588.14935,532.6626,589.1767Q527.9527,591.8328,517.6342,592.70514Q513.7381,592.8997,511.56934,591.9305Q509.1748,591.12604,507.76953,586.7093Q502.01184,587.45465,497.23938,582.9262L478.5708,584.79144L441.25854,572.47675"/>
</g>
<g style="fill:rgb(57,68,88); fill-opacity:1.0; stroke-linejoin: miter">
<path d="M318.14023,640.9411L326.17,664.83075Q355.4841,688.8265,390.03558,711.04047L428.4181,731.3581L458.3847,695.9185L419.0498,668.9079L369.00967,628.231L318.14023,640.9411"/>
</g>
<g style="fill:rgb(255,184,146); fill-opacity:1.0; stroke-linejoin: miter">
<path d="M364.51144,481.57117L358.0612,474.24783Q350.04764,463.73932,348.94626,460.35226Q346.84195,455.9141,349.871,452.42313Q355.03323,447.85492,361.21414,449.8691Q365.05148,451.1593,371.27707,460.65427L378.4163,450.96948L367.16476,437.25092Q366.40714,432.76495,366.86728,430.34375Q367.25638,427.42453,369.9556,424.6938Q375.91324,419.67538,383.33542,418.2105Q387.2444,417.32883,391.61664,417.16208L406.06738,416.88754Q409.71136,416.673,412.02997,415.613Q417.00317,413.04507,417.67462,404.98926L422.20142,409.9218Q428.34027,416.44568,432.00507,424.2393Q435.2373,432.25482,435.29602,441.89923L435.25867,460.8071Q435.20947,463.47055,434.8722,465.96167Q434.70758,471.9221,427.09845,481.5094Q430.48163,497.5147,425.97443,501.55545Q422.93878,504.88724,416.719,505.8489Q412.28088,506.67166,407.7616,503.79727L395.23633,509.52298L382.38748,500.23587L364.51144,481.57117"/>
</g>
<g style="fill:rgb(255,184,146); fill-opacity:1.0; stroke-linejoin: miter">
<path d="M252.63045,862.0824L206.17136,860.9783Q218.47195,877.1301,222.72638,899.12415Q227.31905,918.6345,232.71262,985.4916L242.2614,989.0073Q244.7249,1015.6052,244.14857,1027.8104Q243.89488,1040.2107,239.77122,1062.824Q219.93605,1050.4569,213.65752,1032.3678Q212.40707,1029.2932,209.87383,1021.80176Q205.98398,1002.782,200.61972,982.47205Q196.95255,968.8524,191.53789,953.7036Q188.80324,946.10547,185.4679,937.98145L181.97539,929.7189L162.90706,886.75696Q154.34424,865.86084,153.58488,862.38745Q148.41754,846.9066,148.89474,835.7611Q149.68204,824.8301,155.31079,818.0106Q160.93954,811.1913,169.25864,807.3275Q188.4791,797.20557,234.55809,796.60986L252.63045,862.0824"/>
</g>
<g style="fill:rgb(0,0,0); fill-opacity:1.0; stroke-linejoin: miter">
<path d="M269.8658,1075.9447L269.8658,1075.9447L269.8658,1075.9448L269.8658,1075.9447"/>
</g>
<g style="fill:rgb(255,2,2); fill-opacity:1.0; stroke-linejoin: miter">
<path d="M433.239,732.4775L435.43243,734.12274Q450.7663,745.6624,455.16248,753.0517Q463.653,766.1149,468.60858,791.3672Q485.3894,803.7782,491.2166,814.80347Q497.50128,824.9685,504.94403,854.93787Q525.4068,863.15784,534.29315,871.3683Q544.4406,881.7438,546.14667,901.68066Q574.62537,910.1686,587.6516,938.8628Q572.2557,963.1902,550.14294,969.7594Q541.86365,971.8568,531.66583,972.5437Q497.10303,973.6476,464.13312,976.84827Q449.86163,977.99036,433.5788,977.08325Q395.70074,973.46216,368.98904,960.5917Q337.92453,947.13416,308.46713,925.4358Q279.27182,903.7565,258.48752,877.1173Q234.13625,846.2716,206.38046,792.3734L296.40756,778.8375Q296.66995,767.6702,300.7581,765.3233Q302.7963,763.6396,310.56607,763.01373Q311.24887,758.6788,313.56882,758.3913Q315.4161,757.957,322.5778,761.6213Q324.6387,746.07306,327.04465,739.06244Q329.35928,730.159,341.91714,706.8553Q339.647,694.75714,347.67093,680.8298Q403.34137,721.3304,433.239,732.4775"/>
</g>
<g style="fill:rgb(0,0,0); fill-opacity:1.0; stroke-linejoin: miter">
<path d="M734.17706,1076.0864L734.1771,1076.0864L734.1772,1076.0864L734.17706,1076.0864"/>
</g>
<g style="fill:rgb(0,0,0); fill-opacity:1.0; stroke-linejoin: miter">
<path d="M677.5356,1006.13354L677.53564,1006.13354L677.5357,1006.13354L677.5356,1006.13354"/>
</g>
<g style="fill:rgb(255,255,255); fill-opacity:1.0; stroke-linejoin: miter">
<path d="M482.49615,718.8309L482.49603,718.831L482.4959,718.8311L482.49615,718.8309"/>
</g>
<g style="fill:rgb(255,184,146); fill-opacity:1.0; stroke-linejoin: miter">
<path d="M462.72534,689.34174L461.61847,689.5932Q458.30865,690.4255,454.9007,690.5567Q451.1026,690.51776,448.62,689.4062Q443.00433,687.0683,433.81116,678.5878L448.49554,667.3378L472.22113,666.3975Q472.49927,677.8647,470.74792,681.50165Q469.33398,685.51276,462.72534,689.34174"/>
</g>
<g style="fill:rgb(0,0,0); fill-opacity:0.10980392; stroke-linejoin: miter">
<path d="M379.58817,628.9112L384.89258,631.5087Q403.8438,640.8769,416.52692,645.6817Q422.60913,647.99115,428.95648,649.5518Q434.03455,650.6871,436.87,650.8348L440.4444,650.9212L443.77374,650.65204Q448.24377,650.05475,452.5144,648.034Q455.48596,646.6788,458.9721,644.0549Q465.2497,639.0269,468.4914,635.51276Q463.12628,647.31635,461.06183,650.1005Q458.2271,654.6088,455.6115,656.9942Q451.86914,660.543,447.60913,661.74774L444.39636,662.35455L440.8625,662.3851L436.9878,661.8044L432.79187,660.6475Q426.76227,658.6785,418.56854,654.24347Q401.51624,644.6132,379.58817,628.9112"/>
</g>
<g style="fill:rgb(0,0,0); fill-opacity:0.105882354; stroke-linejoin: miter">
<path d="M348.2195,681.8278L329.51114,667.60626L288.57962,581.0101Q300.61948,630.22455,304.74472,642.3129Q310.23203,658.9113,311.12387,660.7836Q314.17667,668.05695,316.81418,672.5373Q322.8171,682.23627,329.1168,684.2375Q335.15286,686.78314,348.2195,681.8278"/>
</g>
<g style="fill:rgb(0,0,0); fill-opacity:0.101960786; stroke-linejoin: miter">
<path d="M360.2325,550.326L358.42453,569.69183L368.39297,576.7663L360.2325,550.326"/>
</g>
<g style="fill:rgb(0,0,0); fill-opacity:0.101960786; stroke-linejoin: miter">
<path d="M550.55164,941.4828L541.7107,940.7411Q509.28882,938.1222,488.86084,932.05225Q469.44324,925.4591,463.89136,922.31067Q451.7459,916.0288,437.40778,905.0442Q403.6031,877.8823,344.41287,793.1996Q376.35916,826.9492,400.86304,850.3241Q421.33423,870.7733,450.4936,892.55164Q453.37036,895.53735,476.94965,909.54944Q486.9178,915.1008,498.41846,920.4994Q521.4199,931.29663,550.55164,941.4828"/>
</g>
<g style="fill:rgb(0,0,0); fill-opacity:0.105882354; stroke-linejoin: miter">
<path d="M350.21927,809.52185L350.88992,818.39453Q353.55038,854.00024,356.00223,871.0156Q357.7891,882.2854,359.5021,889.9479Q361.25705,896.4592,363.01437,900.1907Q366.61075,907.1865,370.11295,909.43604Q371.70377,910.5547,373.65823,911.505Q376.5638,912.9437,382.6746,915.1526L387.03107,917.44324Q388.4906,918.26184,393.3745,923.07935Q398.9156,928.29626,412.43115,951.125L350.21927,809.52185"/>
</g>
<g style="fill:rgb(0,0,0); fill-opacity:0.101960786; stroke-linejoin: miter">
<path d="M261.61307,804.93384L265.59427,814.41455Q279.5759,847.92444,282.37918,852.62134Q287.97855,864.10364,293.58377,873.91504Q304.16245,892.8329,317.2911,907.8861Q328.28946,921.0503,351.2081,935.51245Q367.75735,945.7206,397.19025,958.7737Q349.5687,946.4608,336.60196,939.1415Q318.98996,929.7427,316.70663,927.6791Q308.28445,921.1765,302.2733,914.38696Q296.28897,907.5652,290.48392,897.9241Q285.689,888.78076,280.11148,875.0416Q273.48093,860.12366,261.61307,804.93384"/>
</g>
<g style="fill:rgb(0,0,0); fill-opacity:0.10980392; stroke-linejoin: miter">
<path d="M367.78378,807.7511L371.04935,808.8834Q382.3431,812.87146,391.65753,815.3413Q400.0445,817.4574,405.73956,817.8296Q409.30273,818.10486,413.20093,817.881Q416.76416,817.64844,419.7281,817.1531Q425.7021,816.1876,434.99878,813.47925Q430.74677,815.8801,423.3651,819.2942Q419.34662,821.0731,416.34393,821.9769Q411.99377,823.32654,408.1684,823.68445L405.40356,823.82886L402.6153,823.7229L399.80225,823.35144L396.96594,822.72974Q393.01178,821.70886,388.3377,819.5902Q383.33688,817.6454,367.78378,807.7511"/>
</g>
<g style="fill:rgb(255,232,64); fill-opacity:1.0; stroke-linejoin: miter">
<path d="M401.55225,716.2513L342.1863,706.5179Q340.283,698.0197,341.31906,693.6672Q342.00046,689.33307,347.3386,680.4582L401.55225,716.2513"/>
</g>
</g>
</svg>