<?xml version="1.0" encoding="UTF-8" standalone="no"?>
<!-- Created with Inkscape (http://www.inkscape.org/) -->

<svg
   xmlns:dc="http://purl.org/dc/elements/1.1/"
   xmlns:cc="http://creativecommons.org/ns#"
   xmlns:rdf="http://www.w3.org/1999/02/22-rdf-syntax-ns#"
   xmlns:svg="http://www.w3.org/2000/svg"
   xmlns="http://www.w3.org/2000/svg"
   xmlns:xlink="http://www.w3.org/1999/xlink"
   xmlns:sodipodi="http://sodipodi.sourceforge.net/DTD/sodipodi-0.dtd"
   xmlns:inkscape="http://www.inkscape.org/namespaces/inkscape"
   width="210mm"
   height="297mm"
   viewBox="0 0 210 297"
   version="1.1"
   id="svg8"
   inkscape:version="0.92.4 (5da689c313, 2019-01-14)"
   sodipodi:docname="pepper fibeesoft.svg">
  <defs
     id="defs2">
    <linearGradient
       inkscape:collect="always"
       id="linearGradient1106">
      <stop
         style="stop-color:#ff6900;stop-opacity:1"
         offset="0"
         id="stop1102" />
      <stop
         style="stop-color:#920000;stop-opacity:1"
         offset="1"
         id="stop1104" />
    </linearGradient>
    <linearGradient
       inkscape:collect="always"
       xlink:href="#linearGradient1106"
       id="linearGradient1108"
       x1="113.09287"
       y1="19.560137"
       x2="138.94989"
       y2="43.129124"
       gradientUnits="userSpaceOnUse"
       gradientTransform="translate(-12.931314,31.659425)" />
  </defs>
  <sodipodi:namedview
     id="base"
     pagecolor="#ffffff"
     bordercolor="#666666"
     borderopacity="1.0"
     inkscape:pageopacity="0.0"
     inkscape:pageshadow="2"
     inkscape:zoom="1.6782738"
     inkscape:cx="357.08614"
     inkscape:cy="873.66464"
     inkscape:document-units="mm"
     inkscape:current-layer="layer1"
     showgrid="false"
     inkscape:window-width="1920"
     inkscape:window-height="1017"
     inkscape:window-x="-8"
     inkscape:window-y="-8"
     inkscape:window-maximized="1" />
  <metadata
     id="metadata5">
    <rdf:RDF>
      <cc:Work
         rdf:about="">
        <dc:format>image/svg+xml</dc:format>
        <dc:type
           rdf:resource="http://purl.org/dc/dcmitype/StillImage" />
        <dc:title></dc:title>
      </cc:Work>
    </rdf:RDF>
  </metadata>
  <g
     inkscape:label="Layer 1"
     inkscape:groupmode="layer"
     id="layer1">
    <path
       style="fill:#008400;fill-opacity:1;stroke:#006d00;stroke-width:0.1;stroke-linecap:butt;stroke-linejoin:miter;stroke-miterlimit:4;stroke-dasharray:none;stroke-opacity:1"
       d="m 115.97342,37.676981 c -0.0975,-0.111476 0.065,-1.059031 2.0153,-3.316438 1.95028,-2.257405 2.27533,-3.232827 1.91778,-4.319728 -0.35755,-1.086899 -1.66216,-5.852535 -4.19754,-6.521396 -0.66324,-0.649154 2.08031,-2.424621 2.79543,-2.145929 0.7151,0.278692 2.4579,0.887614 3.3849,3.427913 1.03026,2.823266 2.00658,5.702467 3.85935,6.677889 1.85278,0.975423 4.78693,1.738614 5.85959,2.909122 1.07266,1.170506 -3.57553,3.204959 -5.49331,3.650867 -1.91778,0.445907 -10.1415,-0.3623 -10.1415,-0.3623 z"
       id="path828"
       inkscape:connector-curvature="0"
       sodipodi:nodetypes="ccsccscssc"
       inkscape:export-xdpi="191.72446"
       inkscape:export-ydpi="191.72446" />
    <path
       style="fill:url(#linearGradient1108);fill-opacity:1;stroke:#9d0000;stroke-width:0.1;stroke-linecap:butt;stroke-linejoin:miter;stroke-miterlimit:4;stroke-dasharray:none;stroke-opacity:1"
       d="m 73.57472,83.521835 c 2.93617,-0.961053 9.587009,-0.613123 15.885456,-3.734476 5.7135,-2.831474 8.72128,-5.123508 10.3116,-6.855826 3.121364,-3.400043 5.715904,-6.763439 7.524694,-10.423086 1.19838,-2.424621 2.48036,-6.646806 3.33037,-11.558754 0.85001,-4.911949 1.26805,-10.51366 3.63693,-13.021889 2.64377,-2.799286 6.46565,-0.947553 9.69848,-1.839369 2.82077,-0.778145 7.74765,-2.563968 10.36736,0.222954 2.6197,2.786921 3.40004,6.855827 1.67214,11.705069 -1.7279,4.849242 -4.71003,9.767359 -6.40992,13.321484 -1.92177,4.018044 -6.18696,8.695194 -8.08207,10.924729 -1.8951,2.229538 -8.77461,9.038567 -12.20671,11.203426 -3.623,2.285273 -8.25271,4.052111 -12.485404,5.016458 -4.4875,1.022397 -12.596887,0.613122 -17.000224,-0.445908 -3.165545,-0.761334 -7.558524,-4.084123 -6.242702,-4.514812 z"
       id="path826"
       inkscape:connector-curvature="0"
       sodipodi:nodetypes="ssssssszzscssss"
       inkscape:export-xdpi="191.72446"
       inkscape:export-ydpi="191.72446" />
  </g>
  <g
     inkscape:groupmode="layer"
     id="layer2"
     inkscape:label="Layer 2"
     style="display:none">
    <path
       sodipodi:nodetypes="ssssssszzscssss"
       inkscape:connector-curvature="0"
       id="path1085"
       d="m 86.506034,51.862407 c 2.93617,-0.961054 9.587009,-0.613124 15.885456,-3.734478 5.7135,-2.831472 8.72128,-5.123508 10.3116,-6.855825 3.12136,-3.400044 5.7159,-6.76344 7.52469,-10.423085 1.19838,-2.424622 2.48036,-6.646807 3.33037,-11.558755 0.85001,-4.91195 1.26805,-10.513661 3.63693,-13.0218901 2.64377,-2.799286 6.46565,-0.947553 9.69848,-1.839369 2.82077,-0.778145 7.74765,-2.563968 10.36736,0.222954 2.6197,2.7869211 3.40004,6.8558271 1.67214,11.7050691 -1.7279,4.849243 -4.71003,9.76736 -6.40992,13.321484 -1.92177,4.018045 -6.18696,8.695196 -8.08207,10.924731 -1.8951,2.229538 -8.58371,9.19684 -11.81654,11.649332 -3.23283,2.452489 -8.64288,3.606204 -12.87557,4.57055 -4.4875,1.022397 -12.596887,0.613124 -17.000224,-0.445908 -3.165545,-0.761333 -7.558524,-4.084121 -6.242702,-4.51481 z"
       style="fill:#e00000;fill-opacity:1;stroke:#9d0000;stroke-width:0.26458332px;stroke-linecap:butt;stroke-linejoin:miter;stroke-opacity:1" />
    <path
       sodipodi:nodetypes="ssssssszzscssss"
       inkscape:connector-curvature="0"
       id="path832"
       d="m 86.506034,51.862417 c 2.93617,-0.961054 9.587009,-0.613124 15.885456,-3.734477 5.7135,-2.831473 8.72128,-5.123509 10.3116,-6.855826 3.12136,-3.400044 5.7159,-6.76344 7.52469,-10.423085 1.19838,-2.424622 2.48036,-6.646808 3.33037,-11.558756 0.85001,-4.911949 1.26805,-10.5136597 3.63693,-13.0218888 2.64377,-2.799286 6.46565,-0.947553 9.69848,-1.8393691 2.82077,-0.7781449 7.74765,-2.563968 10.36736,0.2229541 2.6197,2.7869211 -2.28528,3.9574293 -4.01318,8.8066708 -1.7279,4.849242 -5.26741,13.000188 -6.9673,16.554313 -1.92177,4.018045 -5.40663,9.809962 -7.30174,12.039497 -1.8951,2.229538 -6.80008,6.5214 -10.03291,8.973889 -3.23283,2.452489 -7.41663,3.383251 -11.64932,4.347599 -4.4875,1.022395 -9.921443,1.114766 -14.32478,0.05574 -3.165545,-0.761336 -7.781478,-3.136572 -6.465656,-3.567261 z"
       style="fill:#ef2400;fill-opacity:1;stroke:none;stroke-width:0.26458332px;stroke-linecap:butt;stroke-linejoin:miter;stroke-opacity:1" />
    <path
       sodipodi:nodetypes="cssssssccccc"
       inkscape:connector-curvature="0"
       id="path830"
       d="m 87.537196,51.695198 c 2.93617,-0.961054 8.555848,-0.445907 14.854294,-3.56726 5.7135,-2.831476 8.72128,-5.123508 10.3116,-6.855828 3.12136,-3.400041 5.7159,-6.763438 7.52469,-10.423086 1.19838,-2.42462 2.48036,-6.646806 3.33037,-11.558754 0.85001,-4.911949 1.26805,-10.5136604 3.63693,-13.0218895 2.64377,-2.799286 6.46565,-0.9475529 9.69848,-1.8393689 2.82077,-0.778145 -3.49663,4.2776541 -5.68531,9.5870094 -6.61379,16.952873 -5.02373,23.303833 -24.69213,34.780778 -3.76234,1.922976 -5.52152,2.35209 -10.255858,2.926268 -5.865271,0.348456 -9.754227,0.139345 -8.723066,-0.02787 z"
       style="opacity:0.69599998;fill:#f74e31;fill-opacity:1;stroke:none;stroke-width:0.26458332px;stroke-linecap:butt;stroke-linejoin:miter;stroke-opacity:1" />
  </g>
</svg>
