<?xml version="1.0" encoding="UTF-8"?>
<svg viewBox="0 0 48 48" xmlns="http://www.w3.org/2000/svg" xmlns:xlink="http://www.w3.org/1999/xlink">
 <defs>
  <linearGradient id="a">
   <stop offset="0"/>
   <stop stop-color="#424242" offset=".5"/>
   <stop stop-color="#7c7c7c" offset="1"/>
  </linearGradient>
  <linearGradient id="h" x1="12.834" x2="33.027" gradientUnits="userSpaceOnUse">
   <stop stop-color="#3c3c3c" offset="0"/>
   <stop stop-color="#585858" offset="1"/>
  </linearGradient>
  <linearGradient id="m" x1="21.357" x2="32.643" gradientUnits="userSpaceOnUse">
   <stop stop-color="#b6b6b6" offset="0"/>
   <stop stop-color="#6a6a6a" offset="1"/>
  </linearGradient>
  <linearGradient id="l" x1="31.264" x2="36.062" gradientUnits="userSpaceOnUse">
   <stop stop-color="#e7e7e7" offset="0"/>
   <stop stop-color="#a0a0a0" offset="1"/>
  </linearGradient>
  <linearGradient id="k" x1="11.953" x2="37.096" gradientUnits="userSpaceOnUse">
   <stop stop-color="#fff7b1" offset="0"/>
   <stop stop-color="#ecd300" offset=".5"/>
   <stop stop-color="#b5a200" offset="1"/>
  </linearGradient>
  <linearGradient id="g" x2="0" y1="21.13" y2="26.433" gradientUnits="userSpaceOnUse">
   <stop stop-color="#2a2500" offset="0"/>
   <stop stop-color="#6e6200" offset="1"/>
  </linearGradient>
  <linearGradient id="f" x1="12.84" x2="36.098" gradientUnits="userSpaceOnUse">
   <stop stop-color="#393939" offset="0"/>
   <stop stop-color="#747474" offset=".15888"/>
   <stop offset="1"/>
  </linearGradient>
  <linearGradient id="e" x1="13.923" x2="31.951" gradientUnits="userSpaceOnUse">
   <stop stop-color="#fff" offset="0"/>
   <stop stop-color="#fff" stop-opacity="0" offset="1"/>
  </linearGradient>
  <linearGradient id="d" x2="0" y1="18" y2="23.945" gradientUnits="userSpaceOnUse">
   <stop stop-color="#222" offset="0"/>
   <stop stop-color="#afafaf" offset="1"/>
  </linearGradient>
  <linearGradient id="j" x1="21.357" x2="31.929" gradientUnits="userSpaceOnUse" xlink:href="#a"/>
  <linearGradient id="i" x1="32.786" x2="19.375" y1="15.143" y2="15" gradientTransform="matrix(1 0 0 1.1739 0 -3.4446)" gradientUnits="userSpaceOnUse" xlink:href="#a"/>
  <radialGradient id="c" cx="25.456" cy="36.686" r="15.758" gradientTransform="matrix(1 0 0 .65385 0 12.699)" gradientUnits="userSpaceOnUse">
   <stop offset="0"/>
   <stop stop-opacity="0" offset="1"/>
  </radialGradient>
  <radialGradient id="b" cx="24.786" cy="18.357" r="9.7857" gradientTransform="matrix(1 0 0 .66423 0 6.1637)" gradientUnits="userSpaceOnUse">
   <stop stop-opacity="0" offset="0"/>
   <stop stop-color="#4d4d4d" stop-opacity=".88166" offset=".7757"/>
   <stop stop-color="#595959" stop-opacity="0" offset="1"/>
  </radialGradient>
 </defs>
 <path d="m13.334 32.04 0.20203-20.203s-0.35355-4.3942 4.2426-6.667 14.748-2.4244 14.748-2.4244v5.9599s-6.465 1.0102-7.4751 3.4345-2.0203 12.223-2.0203 12.223l-9.6975 7.6772z" fill="url(#h)" fill-rule="evenodd" stroke="#3d3d3d" stroke-linecap="round" stroke-linejoin="round"/>
 <path transform="translate(-.80812,.80812)" d="m41.214 36.686a15.758 10.304 0 1 1 -31.517 0 15.758 10.304 0 1 1 31.517 0z" display="block" fill="url(#c)"/>
 <path d="m36.31 16.959 0.28571 19.655c0.03571 4.2143-5.6429 7.7602-11.286 8.0102s-10.797-2.8302-11.714-5.7857c-0.45457-1.4647-1.1429-2.4119-1.1429-4.7857l0.10968-23.144 3.8903 8.7648 13.429-0.14286 6.4286-2.5714z" fill="url(#k)" fill-rule="evenodd" stroke="url(#g)"/>
 <path d="m29.395 26.029 2.0203-0.75761-0.10102 17.324-1.9193 0.80812v-17.375z" display="block" fill="#544b00"/>
 <path d="m31.416 25.246-0.15152 17.299c2.4244-1.1112 4.3942-3.0305 4.8487-5.2528l-0.20203-15.708c-0.75761 1.4647-2.0203 2.3486-4.4952 3.6618z" fill="url(#l)" fill-rule="evenodd"/>
 <path transform="matrix(.70272,-.71147,0,1,0,0)" d="m22.80427,24.74765h.67766a.45177,.61872 0 0,1 .45177.61872v1.23744a.45177,.61872 0 0,1 -.45177.61872h-.67766a.45177,.61872 0 0,1 -.45177-.61872v-1.23744a.45177,.61872 0 0,1 .45177-.61872" display="block" fill="#e7e7e7" opacity=".46203"/>
 <path d="m35.507 17.696 0.26623 18.529c0.03328 3.927-5.2581 7.2311-10.516 7.464s-10.061-2.6372-10.916-5.3912c-0.42358-1.3648-1.0649-2.4617-1.0649-4.6737l0.1022-21.566 3.6251 8.1672 12.513-0.13312 5.9903-2.3961z" fill="none" opacity=".49367" stroke="#fff"/>
 <path d="m25.096 12.258c-4.3069 0-7.9185 1.5213-9.8438 3.6562l-2.292-1.9865s-0.38445 4.576 0.22164 6.1649c1.2122 4.1387 5.645 6.4902 11.914 6.4902s11.002-3.0795 11.002-5.0969c0-1.8926-0.08846-2.7356-0.08846-2.7356s-7.7794-6.4923-10.914-6.4923z" display="block" fill="url(#f)"/>
 <path d="m31.951 3.1919s-9.1753 0.13341-13.772 2.4062-4.25 6.6875-4.25 6.6875l0.09375 0.15625s-0.34619-4.4147 4.25-6.6875c4.5582-2.2541 13.513-2.4036 13.678-2.4062v-0.15625z" fill="url(#e)" fill-rule="evenodd" opacity=".42405"/>
 <path d="m25.096 9.7264c-4.3069 0-7.9185 1.5213-9.8438 3.6563l-1.2054-2.7232-1.3929 0.14732s1.1339 5.7715 1.1339 5.7946c1.0859 4.164 5.0389 6.8438 11.308 6.8438s11.344-3.0586 11.344-6.8438-5.0746-6.875-11.344-6.875z" display="block" fill="#3f3f3f" stroke="url(#d)"/>
 <path transform="matrix(1,0,0,.94505,.42857,-.90208)" d="m34.571 18.357a9.7857 6.5 0 1 1 -19.571 0 9.7857 6.5 0 1 1 19.571 0z" display="block" fill="url(#b)"/>
 <path d="m25.031 10.605c-2.8389 0-5.1562 1.6956-5.1562 3.7784v1.6507c0 2.0828 2.3174 3.7784 5.1562 3.7784s5.125-1.6956 5.125-3.7784v-1.6507c0-2.0828-2.2861-3.7784-5.125-3.7784z" display="block" fill="url(#i)"/>
 <path transform="translate(-1.9755 -3.8755)" d="m32.143 17.643a5.1429 3.2143 0 1 1 -10.286 0 5.1429 3.2143 0 1 1 10.286 0z" display="block" fill="url(#j)"/>
 <path d="m12.715 10.833 1.4774-0.15152 1.2122 2.9231s2.4804-2.3926 6.667-3.1315c4.2932-0.75761 7.9297 0.40406 7.9297 0.40406s-5.1013-0.75761-8.4853 0.05051c-3.4318 0.81954-4.5015 1.6731-6.4713 3.3398l-1.2816-2.9231-1.048-0.51139z" fill="#fff" fill-rule="evenodd" opacity=".31646"/>
 <path transform="matrix(.97084 0 0 .97084 -1.1882 -3.3611)" d="m32.143 17.643a5.1429 3.2143 0 1 1 -10.286 0 5.1429 3.2143 0 1 1 10.286 0z" display="block" fill="none" stroke="url(#m)" stroke-width=".51502"/>
 <text transform="rotate(90)" x="29.07974" y="-23.27803" font-family="Bitstream Vera Sans" font-size="5.9316" font-weight="bold">
  <tspan x="29.07974" y="-23.27803">800</tspan>
 </text>
 <path transform="matrix(.99655 -.083045 0 1 0 0)" d="m29.64937,6.50798h.91229a.60819,.61872 0 0,1 .60819.61872v1.23744a.60819,.61872 0 0,1 -.60819.61872h-.91229a.60819,.61872 0 0,1 -.60819-.61872v-1.23744a.60819,.61872 0 0,1 .60819-.61872" display="block" fill="#e7e7e7"/>
 <path transform="matrix(.99313,-.11704,0,1,0,0)" d="m25.98801,7.60817h.91543a.61029,.61872 0 0,1 .61029.61872v1.23744a.61029,.61872 0 0,1 -.61029.61872h-.91543a.61029,.61872 0 0,1 -.61029-.61872v-1.23744a.61029,.61872 0 0,1 .61029-.61872" display="block" fill="#e7e7e7"/>
 <path transform="matrix(.9863,-.16493,0,1,0,0)" d="m22.25393,8.95737h.81203a.54135,.61872 0 0,1 .54135.61872v1.23744a.54135,.61872 0 0,1 -.54135.61872h-.81203a.54135,.61872 0 0,1 -.54135-.61872v-1.23744a.54135,.61872 0 0,1 .54135-.61872" display="block" fill="#e7e7e7" opacity=".78481"/>
 <path transform="matrix(.91641,-.40024,0,1,0,0)" d="m20.37659,14.65972h.8031a.5354,.61872 0 0,1 .5354.61872v1.23744a.5354,.61872 0 0,1 -.5354.61872h-.8031a.5354,.61872 0 0,1 -.5354-.61872v-1.23744a.5354,.61872 0 0,1 .5354-.61872" display="block" fill="#e7e7e7" opacity=".55316"/>
 <path d="m20.683 28.555v1.3258c-2.2097-0.44194-5.2149-1.9445-6.5407-3.8891v-1.5026c1.3258 2.1213 3.7123 3.4471 6.5407 4.0659z" fill="#222" fill-rule="evenodd" opacity=".75949"/>
 <path d="m20.683 39.003v1.3258c-4.1542-1.7678-5.4801-3.0936-6.5407-5.3033v-1.5026c1.591 2.8284 3.8007 4.331 6.5407 5.4801z" fill="#222" fill-rule="evenodd" opacity=".37342"/>
 <path d="m20.683 36.168v1.3258c-4.1542-1.7678-5.4801-3.0936-6.5407-5.3033v-1.5026c1.591 2.8284 3.8007 4.331 6.5407 5.4801z" fill="#222" fill-rule="evenodd" opacity=".37342"/>
</svg>
