<?xml version="1.0" encoding="UTF-8"?>
<svg viewBox="0 0 744.09448819 1052.3622047" xmlns="http://www.w3.org/2000/svg" xmlns:xlink="http://www.w3.org/1999/xlink">
 <defs>
  <linearGradient id="g" x1=".00593" x2=".70485" y1=".72176" y2=".25266">
   <stop stop-color="#fc0" offset="0"/>
   <stop stop-color="#fc0" stop-opacity="0" offset="1"/>
  </linearGradient>
  <linearGradient id="f" x1=".09143" x2=".82495" y1=".90958" y2=".3314">
   <stop stop-color="#d5f6ff" offset="0"/>
   <stop stop-color="#d5f6ff" stop-opacity="0" offset="1"/>
  </linearGradient>
  <linearGradient id="e" x1=".22375" y1=".62397" y2="1">
   <stop stop-color="#00aad4" offset="0"/>
   <stop stop-color="#00aad4" stop-opacity="0" offset="1"/>
  </linearGradient>
  <linearGradient id="a">
   <stop stop-color="#08a" offset="0"/>
   <stop stop-color="#08a" stop-opacity="0" offset="1"/>
  </linearGradient>
  <linearGradient id="c" x1=".26365" y1=".80575" y2="-.96735">
   <stop stop-color="#2ad4ff" offset="0"/>
   <stop stop-color="#2ad4ff" stop-opacity="0" offset="1"/>
  </linearGradient>
  <linearGradient id="d" x1=".46102" x2=".45277" y1=".82232" y2=".19117" xlink:href="#a"/>
  <linearGradient id="b" x1=".20751" x2=".5" y1=".79708" y2=".39607" xlink:href="#a"/>
 </defs>
 <path d="m460.47 598.95c67.68 31.315 163.64 58.589 163.64 58.589s41.416 14.142 27.274 15.152-50.508-6.0609-66.67-9.0913-106.07-27.274-106.07-27.274l-18.183-37.376z" fill="#80e5ff"/>
 <path d="m478.63 636.01c71.701 18.294 140.44 39.711 140.44 39.711s14.142 10.102-3.0305 7.0711-104.79-20.315-104.79-20.315l-32.62-26.467z" fill="#00aad4"/>
 <path d="m329.54 219.59c-14.482-0.06732-43.742 23.996-64.781 65.781-2.0166 3.1633-3.8238 6.5765-5.625 10.75-29.141 67.524-28.571 112.85-50 128.56s-14.281 47.156-4.2812 87.156l92.844 37.156 64.281-40 10-117.16s-12.839-30.009-17.125-41.438c-0.6824-1.8197-2.2045-6.0414-4.0625-11.219 5.5178-8.1542 8.6546-16.493 7.6562-24.156-1.3676-6.3958-8.5206-7.6769-18-4.8438-2.6383-7.428-5.1107-14.405-7.8438-22.125 11.103-11.619 18.737-24.464 17.25-35.875-1.3312-6.2257-8.1146-7.5759-17.219-5.0312 4.082-6.9887 6.2276-14.018 5.375-20.562-1.0067-4.7082-4.0433-6.9795-8.4688-7z" fill="#00aad4"/>
 <path d="m329.54 219.59c-14.482-0.06732-43.742 23.996-64.781 65.781-2.0166 3.1633-3.8238 6.5765-5.625 10.75-29.141 67.524-28.571 112.85-50 128.56s-14.281 47.156-4.2812 87.156l92.844 37.156 64.281-40 10-117.16s-12.839-30.009-17.125-41.438c-0.6824-1.8197-2.2045-6.0414-4.0625-11.219 5.5178-8.1542 8.6546-16.493 7.6562-24.156-1.3676-6.3958-8.5206-7.6769-18-4.8438-2.6383-7.428-5.1107-14.405-7.8438-22.125 11.103-11.619 18.737-24.464 17.25-35.875-1.3312-6.2257-8.1146-7.5759-17.219-5.0312 4.082-6.9887 6.2276-14.018 5.375-20.562-1.0067-4.7082-4.0433-6.9795-8.4688-7z" fill="url(#b)"/>
 <path d="m261.27 496.14c19.121-6.2197 31.868 0 39.834-29.543s1.5934-55.977 1.5934-55.977l-4.3532-12.825s-2.0203-2.7238 4.3532-15.163 124.28-110.4 141.81-124.39 46.208-24.879 46.208-24.879c25.834-0.59412 42.539 17.016 28.681 74.636 1.9783 10.884-9.5603 97.96-20.714 107.29s-60.495 62.741-58.901 79.846 15.838 86.303-17.623 72.309-65.87-25.276-72.243-23.721-5.7903 20.838-12.164 20.838-60.548-7.7746-70.109-23.324-3.1868-43.538-6.3735-45.093z" fill="#80e5ff"/>
 <path d="m109.49 508.57c10.99 7.512 53.366 62.927 61.326 81.975 7.235 17.313 16.567 35.147 27.851 47.585 39.221 43.363 68.958 61.407 127.62 61.808 14.957 0.15204 56.957-7.506 101.39-19.179 39.839-10.467 42.655 5.713 59.373 7.201 66.84 5.949 93.549 9.357 117.72 3.25-79.386-45.561-258.7-181.89-342.39-195.91-33.595-3.111-63.569-15.893-74.995-23.057-6.012-3.769-20.956-11.463-28.556-23.234-8.999-13.938-24.853-24.659-43.473-18.863-17.982 5.596-30.944 13.078-35.095 26.148-3.7876 11.927 1.8641 18.713 6.6879 27.864 10.828 20.54 9.9627 16.005 22.54 24.409z" fill="#80e5ff"/>
 <path d="m109.49 508.57c10.99 7.512 50.476 53.846 58.436 72.894 7.236 17.313 19.457 44.228 30.741 56.666 39.221 43.363 68.958 61.407 127.62 61.808 14.957 0.15204 56.957-7.506 101.39-19.179 39.839-10.467 42.655 5.713 59.373 7.201 66.84 5.949 93.549 9.357 117.72 3.25-79.386-45.561-258.7-181.89-342.39-195.91-33.595-3.111-63.569-15.893-74.995-23.057-6.012-3.769-20.956-11.463-28.556-23.234-8.999-13.938-24.853-24.659-43.473-18.863-17.982 5.596-30.944 13.078-35.095 26.148-3.7876 11.927 1.8641 18.713 6.6879 27.864 10.828 20.54 9.9627 16.005 22.54 24.409z" fill="url(#c)"/>
 <path d="m105.9 506.83c29.219 28.79 56.461 67.039 57.77 69.04 15.082 23.036 37.572-85.821 93.895-81.272-30.359-4.6198-47.615-12.547-68.11-21.993-6.4175-2.9575-14.945-8.6287-28.22-24.205-10.742-12.604-25.141-23.816-44.188-19.549-17.395 3.8964-33.197 14.572-37.348 27.642-3.7876 11.926 0.27489 21.98 6.5419 30.21 11.24 14.761 5.8442 10.074 19.659 20.129z" fill="url(#d)"/>
 <g transform="matrix(-1.0675 .4978 .51504 1.1045 -752.2 127.23)" fill-rule="evenodd">
  <path d="m-545.3 554.89c0 4.9311-4.6371 8.9286-10.357 8.9286s-10.357-3.9975-10.357-8.9286 4.6371-8.9286 10.357-8.9286 10.357 3.9975 10.357 8.9286z" fill="#fff"/>
  <path d="m-546.43 555.87c0 3.1702-2.6099 5.7402-5.8295 5.7402s-5.8295-2.57-5.8295-5.7402 2.61-5.7402 5.8295-5.7402 5.8295 2.57 5.8295 5.7402z"/>
  <path d="m-550.83 553.19c0 2.4163-2.2786 4.375-5.0892 4.375s-5.0894-1.9587-5.0894-4.375 2.2786-4.375 5.0894-4.375 5.0892 1.9587 5.0892 4.375z" fill="#fff"/>
 </g>
 <g transform="matrix(-1.3361 .62303 .51647 1.1076 -884 183.69)" fill-rule="evenodd">
  <path d="m-509.81 556.71c0 4.3394-1.679 7.8572-3.75 7.8572s-3.75-3.5178-3.75-7.8572 1.679-7.8571 3.75-7.8571 3.75 3.5177 3.75 7.8571z" fill="#fff"/>
  <path d="m-512.16 558.41c0 2.4005-0.98657 4.3464-2.2036 4.3464s-2.2036-1.9459-2.2036-4.3464 0.98663-4.3464 2.2036-4.3464 2.2036 1.946 2.2036 4.3464z"/>
  <path d="m-511.06 556.98c0 1.8246-0.7995 3.3036-1.7857 3.3036s-1.7857-1.479-1.7857-3.3036 0.7995-3.3036 1.7857-3.3036 1.7857 1.4791 1.7857 3.3036z" fill="#fff"/>
 </g>
 <path d="m105.3 502.23c5.8851 1.6176 21.729-9.5494 19.39-14.566-0.18401-0.39459 0.31813-0.50732 0.0592-0.17175-0.9075 1.1763-2.6633 2.0286-3.8518 3.0933-3.0201 2.7054-8.6144 4.4229-11.002 6.2834-1.5338 1.195-4.404 2.7957-4.492 5.361h-0.10318z" fill="#a40"/>
 <path d="m95.552 485.54c-2.0257-7.4686 11.319-14.153 16.035-12.522 0.84346 0.29187 4.2882 0.91943 3.44 1.9992-1.5046 1.9154-8.8127 2.597-11.708 3.874-3.5952 1.5858-6.0534 5.0664-7.8262 6.8202" fill="#fff"/>
 <path d="m105.42 502.23c5.6527 0.02087 9.4267-2.3945 14.036-6.0219 1.6903-1.2078 5.1339-4.6119 5.4868-7.2683 1.6638 3.568-2.2899 12.294-3.4191 15.568-3.1398 5.4422-3.9865 10.571-2.231 15.92-2.0231 0.96722-2.9092-0.14477-5.8246-3.1951-5.1148-8.69-6.0857-9.1974-8.0477-15.003z" fill="#006680"/>
 <path d="m254.73 493.55c-44.045-2.2324-55.911 33.662-74.357 68.531-5.9731 7.5134-10.709 12.047-14.762 16.093 0.99106 1.1251 2.6849 6.1573 7.0979 15.435 17.897-0.91925 38.924-45.388 43.955-62.536 5.3133-18.109 23.351-29.785 38.066-37.522z" fill="#00aad4"/>
 <path d="m108.88 475.29c-10.212 2.8658-11.66 6.0281-15.215 14.878-0.26566 3.9746 0.60883 6.9799 1.7843 10.698 1.7504 4.9489 3.3002 7.9736 6.4964 7.0598 5.0038-1.4308 1.0394-5.1186 6.1579-9.5015 3.9294-3.3646 6.2982-3.2252 11.231-6.3902s6.3143-4.3857 6.0233-7.9974c0.07651-9.4549-8.939-9.53-16.478-8.7468z" fill="#ff7f2a"/>
 <path d="m111.25 481.25c1.2093-0.6355 1.7675-0.05328 2.2686 0.38342 2.3897 2.0826-3.6458 7.4192-4.0698 6.5099-0.32976-0.70715 1.8998-3.5591 2.1042-4.152 0.0768-0.22284-3.735-0.1842-0.30304-2.7413z" fill="#a40"/>
 <path d="m98.838 482.06c-2.5399 3.4265-3.3166 7.2538-2.6538 11.633 0.61023 4.0319 2.9935 10.222 2.9935 10.222 0.1248-6.0158-0.06331-12.444 3.5371-17.344 3.4908-4.5247 4.2876-7.7065 4.2876-7.7065s-3.6101-0.55872-8.1644 3.1956z" fill="#fca"/>
 <path d="m261.27 496.14c19.121-6.2197 31.868 0 39.834-29.543s1.5934-55.977 1.5934-55.977l-4.3532-12.825s-2.0203-2.7238 4.3532-15.163 124.28-110.4 141.81-124.39 46.208-24.879 46.208-24.879c25.834-0.59412 42.539 17.016 28.681 74.636 1.9783 10.884-9.5603 97.96-20.714 107.29s-60.495 62.741-58.901 79.846 15.838 86.303-17.623 72.309-65.87-25.276-72.243-23.721-5.7903 20.838-12.164 20.838-60.548-7.7746-70.109-23.324-3.1868-43.538-6.3735-45.093z" fill="#2ad4ff"/>
 <path d="m337.17 535.15c89.405 36.159 96.418 43.327 125.45 44.358s21.708-3.6651 6.9834-14.698-29.942-19.064-29.942-19.064 18.821 6.1569 20.558-0.94232c1.0671-4.3621-10.066-16.888-17.588-21.535-6.5095-4.0215 18.539-1.9244 17.567-4.8555-1.1476-3.4584-35.436-35.54-35.436-35.54s4.6785 3.2565 0.7767 19.207c-4.0499 16.556-12.567 22.414-25.892 28.701-13.039 6.1522-59.268 4.1186-62.475 4.3684z" fill="#08a"/>
 <path d="m579.42 184.18c-36.347-0.27193-141.35 71.767-157.94 92.875 7.9228 0.40912 20.328-2.1234 34.875-6.7188-2.7534 1.8017-4.9595 3.408-6.4375 4.75 5.5382 1.0048 14.071 0.63974 24.25-0.71875-12.455 4.2163-22.218 8.2494-26.688 11.188 4.8741 1.6981 12.431 2.6659 21.562 3-7.9999 2.0696-14.256 4.1879-17.719 6.125 7.0524 4.5196 20.688 8.1242 37 10.406-13.247 1.0904-23.83 2.7381-28.938 4.6562 7.6389 5.64 24.283 11.142 43.844 15.25-24.51 0.54804-46.278 2.8968-54.375 5.9375 7.8837 5.8207 25.376 11.478 45.75 15.625-27.307 0.24289-52.6 3.0991-61.469 6.9062 10.571 8.9224 38.377 17.541 67.312 22.062-33.414-1.0174-68.387 1.7684-79.156 5.8125 5.1383 3.7938 14.349 7.5583 25.781 10.844-15.712-0.45953-28.553 0.09122-34.5 1.6875 6.9684 6.2739 22.713 13.283 41.469 19.219-22.082-2.9148-41.354-3.5315-49.156-1.4375 8.1792 9.8033 29.438 21.608 53.406 30.938-30.22-4.6552-60.307-6.2652-70.562-4 8.92 8.786 33.387 19.548 59.969 27.469-31.586-3.1802-63.824-2.2836-74.469 1.625 8.8717 9.5919 32.53 20.013 58.5 27.094-29.44-4.8804-58.34-6.7417-68.375-4.5625 20.601 21.453 125.67 54.944 145.62 35.406-1.7715-9.6539-20.785-17.887-44.656-24.062 25.279 3.509 47.8 2.1008 55.75-8.2188-1.2604-6.8381-8.9658-12.349-20.281-16.656 15.643 1.3332 28.267 0.0127 33.906-5.4375-0.96051-4.7802-6.4517-9.167-14.812-13.062 14.735 1.2918 26.565-0.4325 31.969-6.7812-1.6755-10.154-17.21-18.808-37.656-25.5 21.575 2.3879 39.842 1.2661 46.656-5.9375-1.6713-6.7383-12.512-12.219-27.656-16.5 18.223-0.44608 32.865-3.5479 38.219-10.438-2.459-6.9485-15.091-11.464-32.062-14.219 20.818 0.0993 38.007-3.2915 43.906-11.969-1.9009-6.1405-9.8664-10.659-21.219-13.844 17.616-0.55936 31.711-3.6503 36.938-10.375-1.7241-4.8716-8.4548-8.5572-18.156-11.281 13.68-1.1826 24.277-4.2713 28.656-9.9062-3.0386-8.5862-21.524-13.513-44.656-15.906 18.127-2.6892 32.423-7.8372 37-16.062-3.5621-8.1376-19.254-11.525-39.281-12 17.854-4.9665 31.529-11.391 35.094-18.875-5.4619-7.3523-27.301-6.5233-52.781-2.0938 25.223-9.2993 46.098-20.681 49.219-31.188-6.3195-6.2032-26.597-2.4985-50.062 5.2812 24.65-15.059 43.438-31.151 45.312-43.875-2.1169-1.7126-5.1462-2.5031-8.9062-2.5313z" fill="#5df"/>
 <path d="m275.34 354.27c12.631 6.455 83.064-38.012 78.811-70.661-4.6023-21.523-74.647 14.984-78.811 70.661z" fill="#00aad4"/>
 <path d="m260.55 561.84c18.571 13.449 27.143 22.416 54.286 22.416s58.571-9.8629 58.571-9.8629-38.571 25.106-60 20.622-57.143-33.175-52.857-33.175z" fill="url(#e)"/>
 <path d="m579.42 184.18c-36.347-0.27193-141.35 71.767-157.94 92.875 7.9228 0.40912 20.328-2.1234 34.875-6.7188-2.7534 1.8017-4.9595 3.408-6.4375 4.75 5.5382 1.0048 14.071 0.63974 24.25-0.71875-12.455 4.2163-22.218 8.2494-26.688 11.188 4.8741 1.6981 12.431 2.6659 21.562 3-7.9999 2.0696-14.256 4.1879-17.719 6.125 7.0524 4.5196 20.688 8.1242 37 10.406-13.247 1.0904-23.83 2.7381-28.938 4.6562 7.6389 5.64 24.283 11.142 43.844 15.25-24.51 0.54804-46.278 2.8968-54.375 5.9375 7.8837 5.8207 25.376 11.478 45.75 15.625-27.307 0.24289-52.6 3.0991-61.469 6.9062 10.571 8.9224 38.377 17.541 67.312 22.062-33.414-1.0174-68.387 1.7684-79.156 5.8125 5.1383 3.7938 14.349 7.5583 25.781 10.844-15.712-0.45953-28.553 0.09122-34.5 1.6875 6.9684 6.2739 22.713 13.283 41.469 19.219-22.082-2.9148-41.354-3.5315-49.156-1.4375 8.1792 9.8033 29.438 21.608 53.406 30.938-30.22-4.6552-60.307-6.2652-70.562-4 8.92 8.786 33.387 19.548 59.969 27.469-31.586-3.1802-63.824-2.2836-74.469 1.625 8.8717 9.5919 32.53 20.013 58.5 27.094-29.44-4.8804-58.34-6.7417-68.375-4.5625 20.601 21.453 125.67 54.944 145.62 35.406-1.7715-9.6539-20.785-17.887-44.656-24.062 25.279 3.509 47.8 2.1008 55.75-8.2188-1.2604-6.8381-8.9658-12.349-20.281-16.656 15.643 1.3332 28.267 0.0127 33.906-5.4375-0.96051-4.7802-6.4517-9.167-14.812-13.062 14.735 1.2918 26.565-0.4325 31.969-6.7812-1.6755-10.154-17.21-18.808-37.656-25.5 21.575 2.3879 39.842 1.2661 46.656-5.9375-1.6713-6.7383-12.512-12.219-27.656-16.5 18.223-0.44608 32.865-3.5479 38.219-10.438-2.459-6.9485-15.091-11.464-32.062-14.219 20.818 0.0993 38.007-3.2915 43.906-11.969-1.9009-6.1405-9.8664-10.659-21.219-13.844 17.616-0.55936 31.711-3.6503 36.938-10.375-1.7241-4.8716-8.4548-8.5572-18.156-11.281 13.68-1.1826 24.277-4.2713 28.656-9.9062-3.0386-8.5862-21.524-13.513-44.656-15.906 18.127-2.6892 32.423-7.8372 37-16.062-3.5621-8.1376-19.254-11.525-39.281-12 17.854-4.9665 31.529-11.391 35.094-18.875-5.4619-7.3523-27.301-6.5233-52.781-2.0938 25.223-9.2993 46.098-20.681 49.219-31.188-6.3195-6.2032-26.597-2.4985-50.062 5.2812 24.65-15.059 43.438-31.151 45.312-43.875-2.1169-1.7126-5.1462-2.5031-8.9062-2.5313z" fill="url(#f)"/>
 <g transform="matrix(1.2957 0 0 1.5958 -20.829 -1153.8)">
  <path d="m143.98 1152.4 119.48-2.6599s12.662-0.57007 16.619 17.63c1.985 20.68 0.95499 49.61-4.886 79.16-9.118-1.34-131.21-21.39-131.21-21.39v-72.74z" fill="#fea"/>
  <path d="m263.92 1159.6c-60.609 43.437-61.619 43.437-61.619 43.437l-55.558-49.497 56.569 58.589 60.609-52.528z" fill="#d4aa00"/>
  <path d="m146.57 1152.2 119.48-2.6614s12.662-0.57202 16.619 17.629c1.985 20.683 0.95483 49.609-4.886 79.161-9.1182-1.3474-131.21-21.398-131.21-21.398v-72.731z" fill="url(#g)"/>
 </g>
 <path d="m266.26 677.79c-8.0812-2.0203-19.538 1.4791-22.223 7.0711s-2.8459 23.049-2.8459 23.049l5.4635-4.2153s-0.797-6.1744 1.423-11.491c2.1454-5.1379 9.0914-11.383 9.0914-11.383l-3.3996 13.132-0.82556 17.498s6.0946 4.5576 6.0172 0.18451c-0.15973-9.0289 2.2485-25.764 2.2485-25.764l5.0508-8.0813z" fill="#e9afaf"/>
 <path d="m264.24 680.82c-3.0305 8.0813-3.0305 31.315-3.0305 31.315s6.7638 7.5691 7.0711 0c0.29056-7.1569 1.0101-26.264 1.0101-26.264s10.514-5.9208 4.0406-9.0914c-6.8078-3.3346-9.0914 4.0406-9.0914 4.0406z" fill="#e9afaf"/>
 <path d="m224.13 677.63c-5.6045-1.144-17.474-1.7498-20.159 2.5593s-4.9098 20.651-4.9098 20.651l5.4636-3.2482s-0.79703-4.7579 1.4229-8.8547c2.1455-3.9592 8.2658-7.1207 8.2658-7.1207l-2.574 8.4681-0.82559 13.484s6.0946 3.5121 6.0173 0.14221c-0.15973-6.9575 2.2485-19.853 2.2485-19.853l5.0508-6.2274z" fill="#e9afaf"/>
 <path d="m221.28 679.14c-3.0305 6.2273-0.55368 22.067-0.55368 22.067s4.287 7.8966 4.5943 2.064c0.29056-5.515 1.0102-16.524 1.0102-16.524s9.883-3.1119 6.9302-7.4184-11.981-0.18878-11.981-0.18878z" fill="#e9afaf"/>
</svg>
