<?xml version='1.0' encoding='utf-8'?>
<svg xmlns="http://www.w3.org/2000/svg" width="1058.3334mm" height="1058.3334mm" viewBox="0 0 1058.3334 1058.3334" version="1.1" id="svg8"> <defs id="defs2"/> <metadata id="metadata5"> </metadata> <g id="layer1" transform="translate(58.964287,801.3988)"> <rect style="opacity:1;fill:#ffffff;fill-opacity:1;stroke:none;stroke-width:6.00000048;stroke-linecap:round;stroke-linejoin:round;paint-order:fill markers stroke" id="rect10" width="1058.3334" height="1058.3334" x="-58.964287" y="-801.3988"/> <path style="opacity:1;fill:#fe9551;fill-opacity:1;stroke:none;stroke-width:6;stroke-linecap:round;stroke-linejoin:round;paint-order:fill markers stroke" d="m 258.32279,-490.65138 c 0,0 -68.1422,-80.91885 -2e-5,-140.54326 38.59498,-33.77061 163.96716,14.9061 247.01545,10.64721 83.04829,-4.25888 198.03821,-44.71831 257.66265,-2.12944 59.62441,42.58887 17.03554,166.09658 -44.71831,223.59155 -61.75386,57.49499 -240.62711,368.393708 -247.01545,436.535901 -6.38831,68.142189 -76.65995,0 -106.47217,-97.954384 C 334.98275,-158.45822 234.89891,-301.13092 258.32279,-490.65138 Z" id="path12"/> <path style="opacity:1;fill:#feb383;fill-opacity:1;stroke:none;stroke-width:6;stroke-linecap:round;stroke-linejoin:round;paint-order:fill markers stroke" d="m 307.29998,-631.19464 c 0,0 -46.84776,0 -59.62441,31.94165 -12.77668,31.94165 0,95.82494 57.49496,95.82494 57.49496,0 119.24882,-25.55332 208.68545,-4.25889 89.43662,21.29444 163.96715,36.20056 172.48491,21.29444 8.51779,-14.9061 -19.16499,-44.71829 2.12945,-72.40107 21.29443,-27.68276 59.62441,-48.97719 44.71831,-59.62441 -14.90609,-10.64722 -78.7894,-17.03555 -121.37826,-4.25889 -42.58887,12.77666 -146.93159,25.55332 -202.29714,31.94165 44.71832,-14.9061 61.75386,-17.03554 53.2361,-17.03554 -8.51778,0 -110.73106,-29.81221 -155.44937,-23.42388 z" id="path14"/> <path style="opacity:1;fill:#ffdc72;fill-opacity:1;stroke:none;stroke-width:6;stroke-linecap:round;stroke-linejoin:round;paint-order:fill markers stroke" d="m 392.47771,-497.03971 c 0,0 -108.60161,0 -123.50771,25.55333 -14.90612,25.55332 6.38831,140.54325 19.16499,185.26156 12.77665,44.71832 23.42388,17.03554 38.32998,34.07111 14.90609,17.03554 -17.03555,25.5533 -2.12945,48.97718 14.9061,23.42388 36.20053,104.342725 51.10665,129.896051 14.9061,25.553325 36.20053,106.472168 59.62441,93.695518 23.42388,-12.7766757 48.97721,-189.520459 102.21328,-253.403759 53.23609,-63.8833 153.31992,-185.26159 151.19048,-200.16769 -2.12945,-14.90609 -29.81222,-34.07108 -57.49496,-36.20053 -27.68278,-2.12944 -134.15495,-19.16498 -166.09658,-17.03556 -31.94167,2.12944 -114.98995,25.55332 -114.98995,25.55332 0,0 10.6472,-31.94164 42.58886,-36.20053 z" id="path16"/> <path style="opacity:1;fill:#feb383;fill-opacity:1;stroke:none;stroke-width:6;stroke-linecap:round;stroke-linejoin:round;paint-order:fill markers stroke" d="m 752.35364,-601.38243 c 0,0 -53.23607,31.94165 -57.49496,63.8833 -4.2589,31.94164 19.16498,59.62441 36.20053,63.8833 17.03554,4.25889 31.94166,-14.90609 31.94166,-40.45942 0,-25.55333 -2.12945,-36.20056 -21.29443,-23.42388 -19.16502,12.77665 -29.81222,2.12945 -21.29444,-10.64723 8.51776,-12.77665 38.32998,4.25889 46.84773,-12.77665 8.51779,-17.03555 10.64723,-48.9772 -14.90609,-40.45942 z" id="path18"/> <path style="opacity:1;fill:#42474c;fill-opacity:1;stroke:none;stroke-width:6;stroke-linecap:round;stroke-linejoin:round;paint-order:fill markers stroke" d="m 279.6172,-452.3214 c 0,0 46.84776,-27.68277 89.43663,-8.51778 42.58887,19.16498 36.20055,-21.29444 23.42388,-40.45943 -12.77665,-19.16498 -48.97721,-40.45942 -104.34272,-29.81219 -55.36552,10.64721 -63.88331,40.45942 -51.10666,66.01275 12.77668,25.5533 23.42388,25.5533 42.58887,12.77665 z" id="path20"/> <path id="path22" d="m 605.52789,-450.19196 c 0,0 -46.84776,-27.68277 -89.43663,-8.51778 -42.58887,19.16498 -36.20055,-21.29444 -23.42388,-40.45943 12.77665,-19.16498 48.97721,-40.45942 104.34272,-29.81219 55.36552,10.64721 63.88331,40.45942 51.10666,66.01275 -12.77668,25.5533 -23.42388,25.5533 -42.58887,12.77665 z" style="opacity:1;fill:#42474c;fill-opacity:1;stroke:none;stroke-width:6;stroke-linecap:round;stroke-linejoin:round;paint-order:fill markers stroke"/> <g id="g41" transform="translate(-12.77666,-23.575212)"> <circle style="opacity:1;fill:#42474c;fill-opacity:1;stroke:none;stroke-width:6;stroke-linecap:round;stroke-linejoin:round;paint-order:fill markers stroke" id="circle35" cx="342.43579" cy="-368.05704" r="43.653587"/> <circle style="opacity:1;fill:#ffffff;fill-opacity:1;stroke:none;stroke-width:6;stroke-linecap:round;stroke-linejoin:round;paint-order:fill markers stroke" id="circle37" cx="333.91803" cy="-382.96313" r="18.100266"/> <circle r="9.5824919" cy="-355.28036" cx="361.60077" id="circle39" style="opacity:1;fill:#ffffff;fill-opacity:1;stroke:none;stroke-width:6;stroke-linecap:round;stroke-linejoin:round;paint-order:fill markers stroke"/> </g> <g id="g33" transform="translate(195.90879,-23.575212)"> <circle r="43.653587" cy="-368.05704" cx="342.43579" id="path24" style="opacity:1;fill:#42474c;fill-opacity:1;stroke:none;stroke-width:6;stroke-linecap:round;stroke-linejoin:round;paint-order:fill markers stroke"/> <circle r="18.100266" cy="-382.96313" cx="333.91803" id="circle28" style="opacity:1;fill:#ffffff;fill-opacity:1;stroke:none;stroke-width:6;stroke-linecap:round;stroke-linejoin:round;paint-order:fill markers stroke"/> <circle style="opacity:1;fill:#ffffff;fill-opacity:1;stroke:none;stroke-width:6;stroke-linecap:round;stroke-linejoin:round;paint-order:fill markers stroke" id="circle26" cx="361.60077" cy="-355.28036" r="9.5824919"/> </g> <path style="opacity:1;fill:#42474c;fill-opacity:1;stroke:none;stroke-width:6;stroke-linecap:round;stroke-linejoin:round;paint-order:fill markers stroke" d="m 377.57162,-254.28315 c 0,0 87.30718,-2.12945 132.02546,-31.94167 -4.25886,40.45942 -12.77665,74.53053 -55.36551,91.56608 -42.58887,17.03554 -59.62441,-44.71832 -59.62441,-44.71832 0,0 -10.64723,6.38834 -17.03554,-14.90609 z" id="path43"/> <path style="opacity:1;fill:#e15361;fill-opacity:1;stroke:none;stroke-width:6;stroke-linecap:round;stroke-linejoin:round;paint-order:fill markers stroke" d="m 406.17321,-240.72286 c 0,0 67.73333,-5.82083 91.01666,-25.4 -6.87916,41.80417 -36.5125,58.20833 -50.27083,60.85417 -13.75833,2.64583 -31.22083,-3.70417 -40.74583,-35.45417 z" id="path45"/> <path style="opacity:1;fill:#fed7bd;fill-opacity:1;stroke:none;stroke-width:6;stroke-linecap:round;stroke-linejoin:round;paint-order:fill markers stroke" d="m 390.82737,-603.73118 c 0,0 -75.14166,-23.28333 -109.00833,-10.58333 -33.86666,12.7 -30.69166,68.79165 -6.35,68.79165 24.34167,0 57.15,-11.64165 88.9,-4.23333 31.75,7.40833 57.15,-1.05833 62.44167,-10.58332 5.29166,-9.525 -10.58334,-19.05 -38.1,-16.93333 -27.51667,2.11666 -32.80834,-20.10834 2.11666,-26.45834 z" id="path47"/> <path style="opacity:1;fill:#fed7bd;fill-opacity:1;stroke:none;stroke-width:6;stroke-linecap:round;stroke-linejoin:round;paint-order:fill markers stroke" d="m 475.49404,-579.38951 c 0,0 158.75,-41.275 200.025,-32.80833 41.275,8.46666 6.35,28.575 -12.7,42.33333 -19.05,13.75833 -4.23334,35.98332 -31.75,29.63332 -27.51667,-6.35 -67.73333,-17.99165 -98.425,-11.64167 -30.69167,6.35 -100.54167,-14.81665 -57.15,-27.51665 z" id="path49"/> <path style="opacity:1;fill:#fed7bd;fill-opacity:1;stroke:none;stroke-width:6;stroke-linecap:round;stroke-linejoin:round;paint-order:fill markers stroke" d="m 753.8357,-585.73951 c -4.23333,2.11667 -31.75,13.75833 -12.7,19.05 19.05,5.29167 25.4,-24.34167 12.7,-19.05 z" id="path51"/> <path style="opacity:1;fill:#fed7bd;fill-opacity:1;stroke:none;stroke-width:6;stroke-linecap:round;stroke-linejoin:round;paint-order:fill markers stroke" d="m 745.36904,-520.12286 c -5.29167,0 -24.34167,2.11667 -17.99167,16.93334 6.35,14.81666 14.81667,16.93333 21.16667,5.29166 6.35,-11.64166 12.7,-25.4 -3.175,-22.225 z" id="path53"/> <path style="opacity:1;fill:#ffe69c;fill-opacity:1;stroke:none;stroke-width:6;stroke-linecap:round;stroke-linejoin:round;paint-order:fill markers stroke" d="m 449.03571,-455.56452 c 0,0 -10.58334,7.40833 -33.86667,12.69999 -23.28333,5.29167 -29.63333,13.75834 -15.875,29.63334 13.75833,15.875 15.875,40.21666 3.175,52.91666 -12.7,12.7 -39.15833,21.16667 -66.675,32.80834 -27.51666,11.64166 -11.64167,20.10833 6.35,33.86666 17.99167,13.75834 32.80833,7.40834 66.675,3.175 33.86667,-4.23333 97.36667,-8.46666 106.89167,-24.34166 9.525,-15.875 6.35,-25.4 -25.4,-27.51667 -31.75,-2.11667 -50.8,-41.275 -39.15834,-51.85833 11.64167,-10.58334 44.45,-33.86667 23.28334,-34.925 -21.16667,-1.05834 0,-39.15833 -25.4,-26.45833 z" id="path55"/> <path style="opacity:1;fill:#ffe69c;fill-opacity:1;stroke:none;stroke-width:6;stroke-linecap:round;stroke-linejoin:round;paint-order:fill markers stroke" d="m 385.53571,-186.74786 c -4.23334,0 -25.4,7.40833 -19.05,23.28333 6.35,15.875 27.51666,113.241668 43.39166,123.825001 15.875,10.583333 30.69167,8.466666 31.75,-20.108333 1.05834,-28.575 41.275,-91.016668 33.86667,-105.833338 -7.40833,-14.81666 -22.225,2.11667 -42.33333,-1.05833 -20.10834,-3.175 -24.34167,-28.575 -47.625,-20.10833 z" id="path57"/> <path style="opacity:1;fill:#ffdc72;fill-opacity:1;stroke:none;stroke-width:6;stroke-linecap:round;stroke-linejoin:round;paint-order:fill markers stroke" d="m 578.15237,-259.77286 c 0,0 -41.275,46.56667 -51.85833,63.5 -10.58333,16.93333 -57.15,149.224998 -52.91667,166.158331 4.23334,16.933333 66.675,-135.466671 83.60834,-159.808331 16.93333,-24.34167 106.89166,-157.69167 121.70833,-176.74167 14.81666,-19.05 32.80833,-41.275 26.45833,-49.74166 -6.35,-8.46667 -17.99167,7.40833 -26.45833,21.16666 -8.46667,13.75834 -78.31667,111.125 -100.54167,135.46667 z" id="path59"/> <g id="g73" transform="translate(0,-15.057439)"> <path id="path61" d="m 439.51071,-446.85708 c 0,0 -26.45834,4.23333 -31.75,29.63333 -5.29167,25.4 10.58333,45.50833 32.80833,42.33333 22.225,-3.175 40.21667,-30.69167 37.04167,-46.56667 -3.175,-15.875 -14.81667,-33.86666 -38.1,-25.39999 z" style="opacity:1;fill:#dc3545;fill-opacity:1;stroke:none;stroke-width:6;stroke-linecap:round;stroke-linejoin:round;paint-order:fill markers stroke"/> <path id="path63" d="m 422.57737,-435.21542 c 0,0 -9.525,10.05417 -10.05416,19.57917 -0.52917,9.525 2.11666,18.52083 8.46666,20.10833 6.35,1.5875 13.75834,-1.05833 10.58334,-6.87917 -3.175,-5.82083 -13.75834,-4.7625 -11.1125,-8.99583 2.64583,-4.23333 6.87916,0.52917 10.58333,-5.29167 3.70417,-5.82083 1.05833,-25.39999 -8.46667,-18.52083 z" style="opacity:1;fill:#e7727d;fill-opacity:1;stroke:none;stroke-width:6;stroke-linecap:round;stroke-linejoin:round;paint-order:fill markers stroke"/> <path id="path65" d="m 450.09404,-442.09458 c 0,0 -16.93333,-2.11667 -15.34583,6.34999 1.5875,8.46667 5.29166,14.2875 12.17083,11.1125 6.87917,-3.175 12.7,0 9.525,5.29167 -3.175,5.29167 -10.58333,-2.11667 -9.525,4.23333 1.05833,6.35 10.58333,7.9375 15.875,1.5875 5.29167,-6.35 1.5875,-28.57499 -12.7,-28.57499 z" style="opacity:1;fill:#e7727d;fill-opacity:1;stroke:none;stroke-width:6;stroke-linecap:round;stroke-linejoin:round;paint-order:fill markers stroke"/> <path id="path67" d="m 446.91904,-405.58209 c 0,0 -10.05417,-4.7625 -11.1125,1.05834 -1.05833,5.82083 3.70417,9.525 -0.52917,12.7 -4.23333,3.175 -11.64166,0.52916 -8.99583,4.7625 2.64583,4.23333 14.81667,5.29166 23.28333,-1.5875 8.46667,-6.87917 9.525,-10.58334 6.35,-13.22917 -3.175,-2.64583 -8.99583,-3.70417 -8.99583,-3.70417 z" style="opacity:1;fill:#e7727d;fill-opacity:1;stroke:none;stroke-width:6;stroke-linecap:round;stroke-linejoin:round;paint-order:fill markers stroke"/> </g> <g id="g83" transform="matrix(0.57135173,0.51448571,-0.51448571,0.57135173,-63.406595,-117.94476)" style="stroke-width:1.30063498"> <path style="opacity:1;fill:#dc3545;fill-opacity:1;stroke:none;stroke-width:7.80381012;stroke-linecap:round;stroke-linejoin:round;paint-order:fill markers stroke" d="m 439.51071,-446.85708 c 0,0 -26.45834,4.23333 -31.75,29.63333 -5.29167,25.4 10.58333,45.50833 32.80833,42.33333 22.225,-3.175 40.21667,-30.69167 37.04167,-46.56667 -3.175,-15.875 -14.81667,-33.86666 -38.1,-25.39999 z" id="path75"/> <path style="opacity:1;fill:#e7727d;fill-opacity:1;stroke:none;stroke-width:7.80381012;stroke-linecap:round;stroke-linejoin:round;paint-order:fill markers stroke" d="m 422.57737,-435.21542 c 0,0 -9.525,10.05417 -10.05416,19.57917 -0.52917,9.525 2.11666,18.52083 8.46666,20.10833 6.35,1.5875 13.75834,-1.05833 10.58334,-6.87917 -3.175,-5.82083 -13.75834,-4.7625 -11.1125,-8.99583 2.64583,-4.23333 6.87916,0.52917 10.58333,-5.29167 3.70417,-5.82083 1.05833,-25.39999 -8.46667,-18.52083 z" id="path77"/> <path style="opacity:1;fill:#e7727d;fill-opacity:1;stroke:none;stroke-width:7.80381012;stroke-linecap:round;stroke-linejoin:round;paint-order:fill markers stroke" d="m 450.09404,-442.09458 c 0,0 -16.93333,-2.11667 -15.34583,6.34999 1.5875,8.46667 5.29166,14.2875 12.17083,11.1125 6.87917,-3.175 12.7,0 9.525,5.29167 -3.175,5.29167 -10.58333,-2.11667 -9.525,4.23333 1.05833,6.35 10.58333,7.9375 15.875,1.5875 5.29167,-6.35 1.5875,-28.57499 -12.7,-28.57499 z" id="path79"/> <path style="opacity:1;fill:#e7727d;fill-opacity:1;stroke:none;stroke-width:7.80381012;stroke-linecap:round;stroke-linejoin:round;paint-order:fill markers stroke" d="m 446.91904,-405.58209 c 0,0 -10.05417,-4.7625 -11.1125,1.05834 -1.05833,5.82083 3.70417,9.525 -0.52917,12.7 -4.23333,3.175 -11.64166,0.52916 -8.99583,4.7625 2.64583,4.23333 14.81667,5.29166 23.28333,-1.5875 8.46667,-6.87917 9.525,-10.58334 6.35,-13.22917 -3.175,-2.64583 -8.99583,-3.70417 -8.99583,-3.70417 z" id="path81"/> </g> <g transform="rotate(26.364788,379.37416,-361.61416)" id="g97"> <path style="opacity:1;fill:#73ba25;fill-opacity:1;stroke:none;stroke-width:6;stroke-linecap:round;stroke-linejoin:round;paint-order:fill markers stroke" d="m 366.84951,-323.04029 c 0,0 -8.98025,14.21874 -19.45722,20.95394 -10.47697,6.73518 -9.7286,17.21215 -0.74835,21.70229 8.98025,4.49011 22.45064,-18.70887 29.93419,-29.18584 7.48356,-10.47697 6.73518,-31.43089 -9.72862,-13.47039 z" id="path93"/> <path style="opacity:1;fill:#85d52d;fill-opacity:1;stroke:none;stroke-width:6;stroke-linecap:round;stroke-linejoin:round;paint-order:fill markers stroke" d="m 366.10116,-314.80839 c 0,0 -10.47697,8.98025 -15.71545,14.96711 -5.23849,5.98683 -5.98684,13.47039 3.74179,8.2319 9.72859,-5.23848 20.20556,-21.70229 11.97366,-23.19901 z" id="path95"/> </g> <g id="g91" transform="rotate(71.004086,455.26087,-202.39135)"> <path id="path85" d="m 366.84951,-323.04029 c 0,0 -8.98025,14.21874 -19.45722,20.95394 -10.47697,6.73518 -9.7286,17.21215 -0.74835,21.70229 8.98025,4.49011 22.45064,-18.70887 29.93419,-29.18584 7.48356,-10.47697 6.73518,-31.43089 -9.72862,-13.47039 z" style="opacity:1;fill:#73ba25;fill-opacity:1;stroke:none;stroke-width:6;stroke-linecap:round;stroke-linejoin:round;paint-order:fill markers stroke"/> <path id="path87" d="m 366.10116,-314.80839 c 0,0 -10.47697,8.98025 -15.71545,14.96711 -5.23849,5.98683 -5.98684,13.47039 3.74179,8.2319 9.72859,-5.23848 20.20556,-21.70229 11.97366,-23.19901 z" style="opacity:1;fill:#85d52d;fill-opacity:1;stroke:none;stroke-width:6;stroke-linecap:round;stroke-linejoin:round;paint-order:fill markers stroke"/> </g> <path style="opacity:1;fill:#ec9099;fill-opacity:1;stroke:none;stroke-width:6;stroke-linecap:round;stroke-linejoin:round;paint-order:fill markers stroke" d="m 452.91032,-233.32807 c 0,0 -26.94078,-2.99342 -23.19901,8.2319 3.74176,11.22532 19.45722,2.99341 26.19242,-0.74835 6.73518,-3.74176 3.74177,-8.2319 -2.99341,-7.48355 z" id="path99"/> <path style="opacity:1;fill:#52585f;fill-opacity:1;stroke:none;stroke-width:6;stroke-linecap:round;stroke-linejoin:round;paint-order:fill markers stroke" d="m 307.7295,-523.68968 c 0,0 -36.66937,-0.74835 -52.38482,14.21874 -15.71546,14.9671 -5.23849,34.42432 1.49669,39.66278 6.73521,5.23849 34.42433,-15.71543 56.87497,-18.70884 22.45063,-2.99342 43.40457,3.74176 50.13975,-3.74179 6.73521,-7.48353 -23.94733,-36.66937 -56.12659,-31.43089 z" id="path113"/> <path style="opacity:1;fill:#52585f;fill-opacity:1;stroke:none;stroke-width:6;stroke-linecap:round;stroke-linejoin:round;paint-order:fill markers stroke" d="m 573.3954,-522.19296 c -4.49011,0.74835 -23.94733,-3.74179 -48.64304,8.98025 -24.6957,12.72201 -28.43749,33.67596 -5.98685,29.18582 22.45066,-4.49011 61.3651,1.49672 83.81573,5.98686 22.45064,4.49011 23.19899,-44.9013 -29.18584,-44.15293 z" id="path115"/> <g id="g135" transform="translate(0,-15.057439)"> <path id="path101" d="m 282.28545,-259.43013 c 0,0 -74.83546,49.39141 -142.1874,28.43747 -13.47038,25.44405 2.99342,34.42433 2.99342,34.42433 0,0 53.88154,16.4638 151.16765,-31.43091 0,-22.45064 -11.97367,-31.43089 -11.97367,-31.43089 z" style="opacity:1;fill:#42474c;fill-opacity:1;stroke:none;stroke-width:6;stroke-linecap:round;stroke-linejoin:round;paint-order:fill markers stroke"/> <path id="path103" d="m 150.57502,-226.50254 c 0,0 4.49013,-20.95391 -10.47697,-41.90785 -14.96709,-20.95394 -19.45722,-52.38483 -10.47696,-77.82888 8.98025,-25.44406 -5.98684,-28.43747 -29.934188,-13.47039 -23.94735,14.96708 -4.490127,50.88811 -8.980257,64.35849 -4.490127,13.47039 -14.79693,18.84498 -32.927604,10.47697 -19.45722,-8.98026 -62.8617929,-1.49672 -32.927605,29.93419 -19.4572223,9.65182 -19.4752911,36.6739 0,41.90786 -19.4572223,15.69286 -4.499163,38.96865 10.476966,37.41775 -10.495035,19.43914 16.463801,31.43088 43.40457,29.93419 26.940768,-1.49672 58.371668,-13.47039 76.332178,-52.38483 -7.48355,-10.47697 -4.49013,-28.4375 -4.49013,-28.4375 z" style="opacity:1;fill:#42474c;fill-opacity:1;stroke:none;stroke-width:6;stroke-linecap:round;stroke-linejoin:round;paint-order:fill markers stroke"/> <path id="path105" d="m 86.216518,-266.91367 c 0,0 5.986838,19.45722 -8.980255,20.95391 17.252813,13.41618 10.476966,28.43747 -2.993419,31.43092 21.008137,6.68549 19.45722,25.44405 8.980255,29.93416 9.687956,2.21345 22.450641,11.97369 14.967095,19.45722 10.476966,0 17.960516,-2.99342 14.967096,-20.95391 -2.99342,-17.96053 14.96709,-26.94078 14.96709,-26.94078 -40.911973,-12.87513 -8.84422,-34.33103 -41.907862,-53.88152 z" style="opacity:1;fill:#232323;fill-opacity:1;stroke:none;stroke-width:6;stroke-linecap:round;stroke-linejoin:round;paint-order:fill markers stroke"/> <path id="path117" d="m 115.702,-360.42041 c 0,0 -19.574669,5.27013 -19.574669,15.81034 0,10.5402 5.270099,18.06892 9.787329,11.29307 4.51724,-6.77584 12.04596,-17.31605 14.30457,-20.32754 2.25862,-3.01148 3.76436,-10.54023 -4.51723,-6.77587 z" style="opacity:1;fill:#52585f;fill-opacity:1;stroke:none;stroke-width:6;stroke-linecap:round;stroke-linejoin:round;paint-order:fill markers stroke"/> <path id="path119" d="m 61.495222,-273.84012 c 0,0 -27.10339,-12.79882 -32.373493,-4.51723 -5.270103,8.28159 19.574669,16.56318 32.373493,15.05744 12.798822,-1.50575 0,-10.54021 0,-10.54021 z" style="opacity:1;fill:#52585f;fill-opacity:1;stroke:none;stroke-width:6;stroke-linecap:round;stroke-linejoin:round;paint-order:fill markers stroke"/> <path id="path121" d="m 56.977991,-242.97237 c 0,0 -30.114877,-11.29308 -33.879237,0 -3.764362,11.29308 8.281591,9.78733 26.350516,9.78733 18.068927,0 17.316055,-8.28159 7.528721,-9.78733 z" style="opacity:1;fill:#52585f;fill-opacity:1;stroke:none;stroke-width:6;stroke-linecap:round;stroke-linejoin:round;paint-order:fill markers stroke"/> <path id="path123" d="m 63.753838,-210.59888 c -4.517232,-0.75287 -32.373493,-1.50575 -33.126365,9.03446 -0.752872,10.54021 4.517231,9.03446 23.33903,6.02298 18.821797,-3.01149 19.574669,-14.30457 9.787335,-15.05744 z" style="opacity:1;fill:#52585f;fill-opacity:1;stroke:none;stroke-width:6;stroke-linecap:round;stroke-linejoin:round;paint-order:fill markers stroke"/> <path id="path125" d="m 79.564147,-178.22539 c -6.022975,0.75287 -42.913699,3.01149 -33.126365,11.29308 9.787337,8.28159 19.574671,5.2701 29.362006,2.25861 9.787336,-3.01149 12.045952,-12.79882 3.764359,-13.55169 z" style="opacity:1;fill:#52585f;fill-opacity:1;stroke:none;stroke-width:6;stroke-linecap:round;stroke-linejoin:round;paint-order:fill markers stroke"/> </g> <g id="g153" transform="matrix(-1,0,0,1,881.59002,-17.186882)"> <path style="opacity:1;fill:#42474c;fill-opacity:1;stroke:none;stroke-width:6;stroke-linecap:round;stroke-linejoin:round;paint-order:fill markers stroke" d="m 282.28545,-259.43013 c 0,0 -74.83546,49.39141 -142.1874,28.43747 -13.47038,25.44405 2.99342,34.42433 2.99342,34.42433 0,0 53.88154,16.4638 151.16765,-31.43091 0,-22.45064 -11.97367,-31.43089 -11.97367,-31.43089 z" id="path137"/> <path style="opacity:1;fill:#42474c;fill-opacity:1;stroke:none;stroke-width:6;stroke-linecap:round;stroke-linejoin:round;paint-order:fill markers stroke" d="m 150.57502,-226.50254 c 0,0 4.49013,-20.95391 -10.47697,-41.90785 -14.96709,-20.95394 -19.45722,-52.38483 -10.47696,-77.82888 8.98025,-25.44406 -5.98684,-28.43747 -29.934188,-13.47039 -23.94735,14.96708 -4.490127,50.88811 -8.980257,64.35849 -4.490127,13.47039 -14.79693,18.84498 -32.927604,10.47697 -19.45722,-8.98026 -62.8617929,-1.49672 -32.927605,29.93419 -19.4572223,9.65182 -19.4752911,36.6739 0,41.90786 -19.4572223,15.69286 -4.499163,38.96865 10.476966,37.41775 -10.495035,19.43914 16.463801,31.43088 43.40457,29.93419 26.940768,-1.49672 58.371668,-13.47039 76.332178,-52.38483 -7.48355,-10.47697 -4.49013,-28.4375 -4.49013,-28.4375 z" id="path139"/> <path style="opacity:1;fill:#232323;fill-opacity:1;stroke:none;stroke-width:6;stroke-linecap:round;stroke-linejoin:round;paint-order:fill markers stroke" d="m 86.216518,-266.91367 c 0,0 5.986838,19.45722 -8.980255,20.95391 17.252813,13.41618 10.476966,28.43747 -2.993419,31.43092 21.008137,6.68549 19.45722,25.44405 8.980255,29.93416 9.687956,2.21345 22.450641,11.97369 14.967095,19.45722 10.476966,0 17.960516,-2.99342 14.967096,-20.95391 -2.99342,-17.96053 14.96709,-26.94078 14.96709,-26.94078 -40.911973,-12.87513 -8.84422,-34.33103 -41.907862,-53.88152 z" id="path141"/> <path style="opacity:1;fill:#52585f;fill-opacity:1;stroke:none;stroke-width:6;stroke-linecap:round;stroke-linejoin:round;paint-order:fill markers stroke" d="m 115.702,-360.42041 c 0,0 -19.574669,5.27013 -19.574669,15.81034 0,10.5402 5.270099,18.06892 9.787329,11.29307 4.51724,-6.77584 12.04596,-17.31605 14.30457,-20.32754 2.25862,-3.01148 3.76436,-10.54023 -4.51723,-6.77587 z" id="path143"/> <path style="opacity:1;fill:#52585f;fill-opacity:1;stroke:none;stroke-width:6;stroke-linecap:round;stroke-linejoin:round;paint-order:fill markers stroke" d="m 61.495222,-273.84012 c 0,0 -27.10339,-12.79882 -32.373493,-4.51723 -5.270103,8.28159 19.574669,16.56318 32.373493,15.05744 12.798822,-1.50575 0,-10.54021 0,-10.54021 z" id="path145"/> <path style="opacity:1;fill:#52585f;fill-opacity:1;stroke:none;stroke-width:6;stroke-linecap:round;stroke-linejoin:round;paint-order:fill markers stroke" d="m 56.977991,-242.97237 c 0,0 -30.114877,-11.29308 -33.879237,0 -3.764362,11.29308 8.281591,9.78733 26.350516,9.78733 18.068927,0 17.316055,-8.28159 7.528721,-9.78733 z" id="path147"/> <path style="opacity:1;fill:#52585f;fill-opacity:1;stroke:none;stroke-width:6;stroke-linecap:round;stroke-linejoin:round;paint-order:fill markers stroke" d="m 63.753838,-210.59888 c -4.517232,-0.75287 -32.373493,-1.50575 -33.126365,9.03446 -0.752872,10.54021 4.517231,9.03446 23.33903,6.02298 18.821797,-3.01149 19.574669,-14.30457 9.787335,-15.05744 z" id="path149"/> <path style="opacity:1;fill:#52585f;fill-opacity:1;stroke:none;stroke-width:6;stroke-linecap:round;stroke-linejoin:round;paint-order:fill markers stroke" d="m 79.564147,-178.22539 c -6.022975,0.75287 -42.913699,3.01149 -33.126365,11.29308 9.787337,8.28159 19.574671,5.2701 29.362006,2.25861 9.787336,-3.01149 12.045952,-12.79882 3.764359,-13.55169 z" id="path151"/> </g> <ellipse style="opacity:1;fill:#d2d5d8;fill-opacity:1;stroke:none;stroke-width:6;stroke-linecap:round;stroke-linejoin:round;paint-order:fill markers stroke" id="path155" cx="462.74933" cy="136.4697" rx="332.19315" ry="28.747486"/> </g> </svg>