<?xml version="1.0" encoding="UTF-8"?>
<!DOCTYPE svg  PUBLIC '-//W3C//DTD SVG 1.0//EN'  'http://www.w3.org/TR/2001/REC-SVG-20010904/DTD/svg10.dtd'>
<svg width="88.906mm" height="124.81mm" clip-rule="evenodd" fill-rule="evenodd" image-rendering="optimizeQuality" shape-rendering="geometricPrecision" text-rendering="geometricPrecision" version="1.0" viewBox="0 0 11231 15768" xml:space="preserve" xmlns="http://www.w3.org/2000/svg">
 <defs>
  <style type="text/css">
   <![CDATA[
    .fil1 {fill:none}
    .fil0 {fill:#009846}
   ]]>
  </style>
   <clipPath id="a" clip-rule="nonzero">
    <path d="m6892 11755h-2727c-7-393-10-629-10-716 0-880 145-1603 439-2174 291-567 873-1207 1749-1919 876-709 1399-1174 1570-1396 265-349 396-734 396-1152 0-578-233-1076-701-1487-466-414-1094-621-1887-621-763 0-1399 218-1915 651-513 436-865 1097-1058 1988l-2748-349c80-1276 622-2356 1628-3246 1007-891 2330-1334 3966-1334 1723 0 3093 451 4111 1348 1018 898 1526 1941 1526 3137 0 658-185 1287-559 1876-375 589-1171 1392-2396 2410-632 523-1025 948-1177 1268-153 320-222 891-207 1716zm-2727 4013v-2988h2727v2988h-2727z"/>
   </clipPath>
 </defs>
  <g clip-path="url(#a)">
      <path class="fil0" d="m-3531 1790c735-562 3516-1356 5328-1844 533-165 1069-321 1613-478 1616-536 3360-1094 3776-1158 14-6 29-11 44-16-2 1 0 0-6 4l-2 7c26-3 44-2 52 2l-9 51c-7 4-5 3-11 5-614 223-1234 423-1858 612 91-22 180-43 268-64 152-34 268-55 356-65 419-99 828-177 1222-229 205-35 388-61 538-73 653-170 1304-326 1951-468 0 0 848-207 654-27-93 86-1367 514-2571 910 65-14 129-28 193-41 88-18 152-28 195-30l25-12 4 12c10 0 18 1 24 3 472-146 921-277 1234-351 211-77 434-152 559-173l36-14c4-2 6-2 9-4-7 4-10 8-12 14 33-4 56-2 66 8-8 37-3 37-35 50-64 25-128 50-193 75 1 6 0 12-5 20-2 3-13 9-31 16v1l-4 1c-63 25-206 71-402 131-809 304-1667 597-2486 884-717 289-1417 586-2047 859-163 71-326 142-488 214 1317-534 2667-1030 4013-1432 590-201 1075-346 1140-305 10 7 17 13 20 20 559-155 1108-280 997-134-1 0-11 3-29 7l1 7c-14 1-28 3-42 4-160 41-543 138-549 140-505 148-1055 341-1623 559 612-208 1039-327 1131-290 19 8 31 17 37 25l25-6c350-89 278 22-66 159-454 181-923 355-1398 525 721-249 1925-640 1744-407-80 102-2318 831-2691 984-1382 566-2742 1212-4089 1894 126-59 222-104 277-129 1797-830 3945-1824 5810-2453 0 0 708-237 918-237 2-1 6-2 9-2v2c49 1 65 19 29 59-1 2-11 5-26 9v3l-21 3c-47 12-123 30-205 48-60 25-120 49-180 74-155 101-319 138-533 218-114 47-230 94-347 141-1777 736-3337 1430-5061 2361-26 14-63 34-109 59 1188-580 2375-1130 3515-1624 532-231 1160-503 1775-712 478-196 895-332 980-254 86 81-219 103-219 103-164 37-348 89-547 153-2476 885-8294 4518-10910 6190 1764-1e3 3418-2174 5259-3129 1710-888 3671-1933 5444-2636 7-3 1419-538 1323-314 127-23 192-10 162 54-1 2-12 8-29 18l1 2c-3 1-6 1-9 2-268 142-1906 889-2099 985-2856 1423-5569 3114-8312 4748 1026-579 2051-1165 3071-1724 1906-1045 4227-2348 6217-3176 0 0 1144-475 1033-266 0 0-11 5-30 14l1 5c-6 1-12 2-17 3-264 121-1568 698-1697 761-3201 1572-7157 4061-10093 6242 2288-1253 4341-2827 6725-4050 397-203 797-407 1198-610 1768-1010 3557-1996 3762-1977 201 17-392 307-392 307-157 85-314 170-471 254 381-193 763-382 1143-566 0 0 550-280 471-133-8 14-587 362-1381 835 575-248 1245-501 1274-351 1 4-15 16-42 35l1 8c-5 1-11 1-16 2-354 233-2238 1282-2465 1412-1145 661-2399 1394-3653 2169 470-272 947-541 1423-802 442-256 898-503 1370-740 792-423 1580-810 2347-1145l16-7c13-6 18-9 26-11 571-248 1131-467 1673-651l41 56s-7 5-19 11l1 2-10 4c-320 184-3247 1840-4181 2376 1188-622 2374-1177 3451-1592 125-49 214-79 272-95l23-13 4 6c76-18 77 0 26 42l7 13c-15 6-31 12-46 17-350 254-1820 1030-1860 1053-324 181-647 361-970 541 463-238 919-459 1357-652 55-24 810-341 1031-356 4 0 7-1 10-2l1 2c47-1 65 14 35 55-1 2-10 5-25 11v4c-11 3-23 6-35 8-169 58-635 202-681 221-1625 675-4154 2399-6407 4032 1344-882 2698-1674 4084-2419 1092-669 2128-1233 2960-1537 78-29 139-48 184-59l29-14 3 7c75-14 80 5 20 48l4 13c-17 5-35 12-52 18-39 23-90 50-153 81-1049 507-2037 1012-2986 1526-1206 737-2469 1597-3611 2389 2413-1563 4832-3035 7526-4185 339-144 227-115 360-149l29 62c-148 131-2102 1236-2451 1443-2294 1363-4467 2667-6626 4241-650 473-1299 970-2020 1329-19 7-40-3-47-22-8-19 2-40 21-47 715-356 1359-850 2002-1319 1979-1442 3915-2622 6013-3876 856-511 1782-1026 2642-1547-1896 826-3599 1752-5378 2845-330 202-3086 1980-4033 2589-99 68-196 134-290 198l-5-9c-14 9-22 14-22 14-46-9-40-35-12-65l-1-1 6-4c58-58 189-129 198-135 1177-802 2860-2012 4537-3104-1720 982-3335 2022-4993 3209-514 384-983 735-1383 1033-14 10-470 394-675 499l-39 30-8-10c-35 12-55 6-51-24 1-5 6-13 15-24l4-4c135-148 974-759 1866-1392 2046-1527 4859-3592 7046-4861-248 132-484 262-698 378-865 471-1824 1006-2767 1562l-47 30c-993 636-1982 1258-2961 1902-536 383-1425 1015-1768 1207-29 20-58 41-87 62l-9-14c-24 9-38 11-43 5-4-7 3-20 20-38l-9-14c25-15 49-31 73-47 317-270 1441-1005 1993-1364 516-359 1039-714 1593-1050l327-197c559-362 1120-718 1660-1043 1636-984 3414-1950 5109-2889-1371 551-2983 1336-4583 2233-2086 1327-4026 2806-6074 4211-14 10-27 17-40 23l-13 13-3-5c-56 21-81-3-48-48 288-390 2193-1777 2667-2103 1046-717 2272-1478 3542-2192 923-580 1853-1124 2867-1701 712-405 1521-824 2238-1241-433 156-875 333-1324 528-158 103-1286 638-2166 1061-330 171-672 351-1021 539-748 420-1495 868-2231 1332-1877 1248-3598 2611-5511 3902-92 62-164 108-218 140-18 14-36 28-53 42l-7-9c-84 44-87 25-27-37l-9-13c27-19 54-37 82-56 58-52 138-118 234-193 1543-1199 3417-2543 5385-3785-789 463-1569 942-2294 1416-972 665-1894 1344-2710 2023-21 17-182 186-274 231-37 19-63 16-62-26 3-172 1916-1563 2147-1722 366-252 759-513 1172-777 2695-1826 5751-3558 8316-4992-537 85-1041 336-1527 570-17 8-34 16-50 24-1575 937-3612 2142-3960 2357-1969 1217-3784 2469-5695 3758-7 4-1229 890-1116 615 100-243 3286-2458 3699-2722 2109-1348 4549-2833 6776-3944 36-18 155-75 320-151 600-350 1173-687 1510-894-874 399-1815 915-2647 1347-1265 656-2771 1380-3971 2131-617 387-5123 3529-5363 3467-28-7-28-30-4-65l-2-3 6-4c306-425 3787-2553 4262-2840 268-162 1180-701 2275-1335-1885 994-3423 2059-5237 3183-2 1-1303 784-1722 979-18 14-36 27-53 40l-9-13c-73 29-91 21-26-41l-4-7c10-6 20-11 31-17 49-42 126-104 237-187 2928-2194 7959-5400 11465-6900-425 140-857 348-1232 521-2435 1126-4992 2571-7344 3881-1154 643-2387 1385-3543 1983-39 20-73 37-102 49l-44 25-2-7c-81 28-87 4-15-53l-3-9 56-30c35-23 78-50 129-79 4149-2355 7976-4942 12346-6907-104 28-211 59-320 93-301 131-622 269-671 291-3743 1730-7508 4131-11033 6266 0 0-670 476-683 326 10-11 23-23 37-35h-4c2 0 4-1 5-2 511-463 2986-2010 3600-2405 2024-1299 4629-2725 6809-3741 91-42 1269-562 2030-822 68-29 135-57 202-84-566 86-1281 432-1772 650-1756 780-3790 1799-5480 2733-658 364-4873 3006-5327 3176l-7 4-1-1c-15 5-25 7-30 6-25-8-22-28 1-57l-6-11c11-6 23-12 34-18 157-147 655-425 671-436 2913-1858 6160-3888 9223-5455 65-32 259-129 514-252-1301 538-2771 1251-3664 1685-697 339-1440 702-2194 1082-1703 941-4034 2229-4496 2460-18 11-35 22-52 32l-4-5c-15 7-24 10-26 10-27-8-24-27 0-55l-7-13 44-23c209-180 937-557 975-578 1112-628 2297-1265 3505-1885 607-336 1215-671 1826-1e3 150-81 299-161 447-238-349 178-675 346-970 496-484 248-4775 2493-5339 2765-10 7-20 14-29 21l-4-5c-17 7-27 12-28 11-28-8-27-29-2-61l-5-7 18-8c308-347 2809-1713 3127-1875 1561-798 3181-1518 4813-2207 476-230 937-447 1374-646-1641 674-3319 1459-4852 2182-242 114-531 250-849 400-1450 764-2887 1550-4322 2302-20 10-399 269-378 131 32-202 2427-1401 4343-2329 2e3 -1058 4022-2082 6082-2927 346-142 2070-709 2545-905-501 72-1716 517-2060 647-1376 517-2838 1127-4284 1768-1162 589-5375 2742-6732 3412-127 70-256 139-388 205l-4-16c-19 9-31 13-32 12-94-68 258-190 259-191 1011-541 1837-1132 2905-1649 1185-575 2461-1172 3754-1748 679-339 1357-673 2034-999 812-392 1359-558 2214-860 576-203 1525-507 2150-779-41 10-83 20-125 30-84 26-167 45-178 48-1303 410-2719 940-4146 1526-318 143-624 282-912 413-2384 1080-4712 2228-7079 3328-128 60-169 115-222 47 2-9 14-23 36-41h-4l7-3c497-397 5497-2664 6274-3002 417-181 839-363 1265-542 191-88 389-178 591-269-1430 570-2748 1117-3161 1300-1533 678-3116 1391-4670 2020-374 185-749 368-1127 551-5 2-8 3-13 5l-41-56c43-40 246-150 539-297-6-9-2-24 16-46 56-73 683-394 1504-793 61-34 122-67 183-100-1105 430-2e3 732-1941 556 31-91 670-453 1315-796-304 115-601 221-880 311-59 19-104 26-135 25-50 20-100 39-150 58-49 19-89 32-121 40-173 76-324 134-405 149l-3 2s1-1 2-1c-35 6-57 4-63-8-3-8 13-25 44-49-3-1-7-1-12-1 8-2 15-4 23-7 278-199 1540-818 2280-1176 320-165 650-326 989-485-316 116-630 233-941 351-369 140-3004 1366-3045 1195-21-87 473-369 1131-702 66-77 236-188 454-311-150 64-297 125-441 184 0 0-631 262-479 89 183-209 2773-1436 3108-1557 801-291 1641-580 2494-862 762-321 1533-629 2294-900-2158 681-5025 1701-5543 1951-878 425-1734 975-2585 1385-133 65-155-3 21-121 82-55 163-108 245-162-265 130-514 244-726 327-9 5-18 10-26 15l-1-5c-9 4-18 7-26 10-139-76 301-255 324-268 653-377 1391-732 2150-1061 67-35 134-69 202-103 319-161 637-314 950-449 127-55 262-110 403-165 396-164 792-314 1189-456-1767 520-3341 1059-3804 1404-12 17-35 20-51 8s-20-35-7-51zm4770-1529c-456 159-917 326-1375 498 370-130 745-257 1129-389 341-117 706-243 1082-372-293 91-574 179-836 263zm-3067 1170c-106 44-211 89-315 134-32 17-65 33-98 50-309 157-701 369-1105 581-273 157-533 311-733 441 550-288 1129-635 1667-918 195-103 389-198 584-288zm6700-2199c-798 248-1623 554-2452 887 1226-392 2461-764 3633-1099 10-3 58-17 135-38 283-83 566-163 849-240-244 39-498 86-760 140 9 31-33 69-43 71-288 43-767 142-1362 279zm-3322 1247c-496 209-990 425-1476 640 189-70 380-140 572-209 775-316 1560-615 2352-897-484 152-968 308-1448 466zm-2729 1200c-420 188-829 371-1226 545-274 135-526 271-747 405 131-63 264-127 398-191 623-308 1259-606 1905-892-111 44-221 88-330 133zm9425-3178c141-12 213 4 169 63 0 0-14 5-39 12v1h-4c-263 81-1695 511-2994 902 1089-308 2183-608 3276-926 7-2 134-54 212-62l6-2 1 2c33-2 56 5 50 32 306-104 611-211 915-321 97-36 228-95 340-144-178 31-424 88-431 89-497 110-998 228-1501 354zm-11873 4456c-6 5-12 10-18 14l-6-7c-3 1-7 2-10 3-457 232-836 438-1002 560 501-152 2386-1015 2876-1201 557-211 1125-420 1698-626 1666-790 4017-1677 6102-2280 307-102 611-202 909-300-2668 748-5322 1478-7892 2572-241 103-912 410-1624 750-260 139-829 447-1033 515zm10556-3709c-570 186-1033 337-1212 400-95 33-188 66-282 99 488-163 967-307 1435-427 17-4 70-16 145-32 229-75 480-157 736-238-276 61-550 127-822 198zm-4654 1703c-1638 669-3225 1384-4934 2183-12 6-29 14-53 26 1649-689 3445-1537 5230-2291-81 27-162 55-243 82zm4366-1469c-390 132-752 256-1050 355-622 207-1252 417-1885 630-862 342-1743 721-2608 1102 1760-705 3578-1317 5372-1928 265-108 529-219 793-333-9 2-19 5-29 7-211 59-412 116-593 167zm-5473 1851c-302 106-603 212-903 318-317 138-640 283-970 436-235 113-472 229-713 348-197 98-453 220-726 352-115 62-228 124-340 186 1249-579 2443-1123 3652-1640zm-3633 1805c206-79 429-167 657-257 114-59 221-114 317-164-334 147-660 288-974 421zm1506-602c480-197 898-371 1107-455 1341-538 2641-1054 3960-1555-1713 597-3460 1250-5067 2010zm3395-980c-342 163-682 329-1022 495 1576-678 3151-1377 4728-2004 40-16 102-40 180-70-1317 480-2640 1030-3886 1579zm-1934 945l-77 39 252-113c-57 25-116 49-175 74zm-1742 872l-51 25c1613-709 4042-1804 4522-2005 1235-519 2488-1e3 3760-1420 935-393 1858-753 2641-1001-1132 297-2559 863-3433 1207-2435 960-4996 2041-7439 3194zm-1762 762c75-36 152-74 231-112 6-6 13-13 22-20-92 47-177 91-253 132zm782-375c163-77 329-156 493-232 404-202 805-402 1205-600-56 23-112 46-169 69-368 175-743 355-1094 526-127 69-254 138-380 207-15 8-33 18-55 30zm8098-3546c669-264 1334-516 1991-748-647 221-1319 478-1991 748zm805-28c-62 27-124 53-185 80 469-181 940-356 1410-523-89 27-179 56-268 84-301 110-623 231-957 359zm2419-846c39-12 78-25 116-37-103 26-231 62-380 109l264-72zm-9495 3442c1143-540 2246-1048 2581-1196 168-74 337-148 507-222 818-385 1642-760 2480-1124-522 203-899 346-899 346-1542 621-3138 1396-4669 2196zm8e3 -2702c-561 196-1123 387-1667 578-357 125-975 431-1530 715 1082-464 2158-903 3187-1290l10-3zm1643-242c-678 230-1484 575-2314 960 538-222 1075-441 1611-661 160-66 321-133 484-200 81-33 153-67 219-99zm-3491 1524c-132 65-265 131-396 196 169-82 338-163 507-242l-111 46zm1952 1271c644-331 1285-665 1917-1007-575 266-1273 646-1917 1007zm-1427 809c-84 48-168 96-253 144 260-137 521-275 782-413-176 90-353 180-529 269zm-3329 1933c-1166 700-2315 1423-3367 2150-268 184-524 364-769 566 1425-769 2757-1787 4136-2716zm1909 472c-1710 1021-3334 2137-4545 3190 1224-859 2445-1725 3668-2586 296-209 588-410 877-604zm-2817 1313c-801 555-1570 1112-2290 1654 782-553 1537-1108 2290-1654zm6014-4351c-1914 995-3942 2242-5703 3351-532 335-3299 2219-3954 2823 345-194 958-630 1219-808 2403-1635 4654-3126 7154-4619 184-110 689-402 1284-747zm612-1875c-1783 726-3886 1913-5198 2646-1578 882-2953 1773-4458 2764-298 197-644 443-980 672 668-405 1590-993 1835-1143 2500-1531 5900-3582 8801-4939zm-4076 925c-2319 1008-4654 2132-6356 3293 1401-725 3944-2091 6356-3293zm-4903 2204c-825 409-1653 841-2284 1220 759-401 1520-811 2284-1220zm1780-1298c-719 333-1421 667-2095 993-612 297-1168 632-1721 963 1266-650 2540-1308 3816-1956zm3925-2157c-642 242-1257 486-1807 714-100 41-295 125-555 239 663-273 1505-615 2362-953zm-6701 2571c884-465 1795-916 2666-1359 754-384 1509-718 2265-1033-1147 440-2285 892-3454 1362-617 248-1324 548-2017 824-583 302-1142 621-1667 959 448-79 898-253 1319-411 296-111 592-225 888-342zm9243-4065l5-1 8-3-13 4zm-6059 3170c-996 452-1957 908-2846 1342-300 146-744 356-1169 568 1339-632 2672-1279 4015-1910zm-358-1154c242-83 484-167 726-250 192-78 385-156 578-234-441 155-873 315-1304 484zm5591-2333c-1592 435-3197 949-4766 1529 1877-618 3810-1176 5612-1699-50 4-101 8-152 13-221 40-459 96-694 157zm-8930 3082c125-57 224-101 280-125 697-313 1430-646 2181-973-564 192-1118 386-1656 581-310 112-2317 1062-2921 1428 109-42 226-91 240-96 575-236 1207-515 1876-815z"/>
     <path class="fil1" d="m-3502 1811c467-620 8960-2866 9735-2895 228-430-6926 2036-7801 2423-1122 496-4647 2596-1759 805 3077-1909 7193-2618 10569-3815 169-60-8710 2434-12122 4566 78 16 3218-1641 3633-1811 1669-683 7612-2503 9361-2503-3147 0-8815 2915-11791 4146-1707 707 2055-1169 2388-1300 1004-396 9042-3057 9675-2885-2422 705-10524 3014-12056 4402 4156-2183 8823-3796 13409-4832 2448-553-3046 1160-3064 1166-3597 1228-5536 2031-8957 3639-4487 2109 571-405 1535-861 4026-1907 6676-2314 10630-3559-705 0-10882 3534-11962 3982-421 175-4514 2018-1729 533 4477-2388 8002-3115 12691-4488-3808 1228-8872 2838-12252 4931-658 407 6342-2523 8297-3210 108-38 6349-2264 4990-1801-5048 1720-8608 3597-13322 5955-1914 957 1579-804 1717-867 1968-904 10443-4716 12283-4784-2614 430-15099 6680-13598 5875 3107-1668 9169-4372 12508-5371 130-308-6379 2266-7095 2598-382 177-6980 3081-5661 2392 3488-1825 9069-4391 12839-5326-3139 680-11810 5003-13259 5077 3033-2057 8214-3623 11749-4867-2851 300-8736 3290-11647 4420-1001 389 3035-1588 3047-1594 2146-1090 6375-2595 8764-3043-2247 1065-4384 1662-6862 2943-23 12-6862 3465-2907 1691 3843-1725 6951-3222 11112-4291 1158-298-3692 1382-3717 1392-1061 439-9622 4857-9665 4860 599-276 1911-1159 2769-1587 1743-870 9108-4261 10784-4455 543-63-2106 781-2269 846-3579 1428-7289 3568-10738 5364 1236-1e3 11968-6028 13343-6084-1633 104-10125 4747-12294 5832 2732-2071 8745-4412 12084-5790 20-9-3457 1384-4958 2171-2560 1340-5051 2800-7546 4123 1961-1247 10544-5661 12504-5959-1610 0-10608 5693-12504 6924 1795-898 3817-2411 5927-3497 799-412 6196-3265 6913-3091-2937 1133-8455 4436-11158 6115-4976 3091 2351-1714 3185-2185 1641-927 6395-3650 8141-3888-4608 2005-8611 4758-12902 7179 119-7 11235-6470 12776-6592-3295 1265-9395 5147-12211 7301 2061-1058 4305-2767 6574-3979 435-232 6617-3368 5347-2815-1905 829-10280 5700-11414 6833 1571-755 4177-2839 6078-3906 26-15 8508-4483 5629-2811-3584 2081-6352 3706-9818 6102-4844 3348-367-60 1217-1095 1151-752 7989-5014 9087-4871-3450 1924-8908 5074-11777 7549 2034-2033 7866-5208 10697-6538 867-408-2721 1322-2731 1328-3327 1792-5397 3672-8343 5630 3332-2631 8934-6391 12882-7671 29-10-4662 2540-6539 3838-333 231-5057 3569-5084 3581 2399-2318 8014-5511 11214-6679-19 18-5171 2883-5725 3242-1759 1142-3811 2390-5489 3605 1073-669 2138-1535 3395-2300 1178-718 6136-3716 7360-3875-2153 374-9193 5807-11301 7350 3969-3070 6953-4884 11455-7049-2233 708-6962 4162-9063 5580 3370-2206 6419-4282 10161-5828 35-15-5539 3199-7994 4895-570 394-2524 1896-3090 2108"/>
      <path class="fil0" d="m-2498 2404c622-350 1591-770 2282-1098 1053-499 1948-935 3056-1314 456-156 5579-1921 5060-1383-284 294-4118 1822-4851 2162-2112 981-4256 2183-6282 3376 1138-512 2326-1115 3447-1640 2231-1045 4795-2263 7106-3075 41-14 1894-627 1785-372-90 211-4634 2018-5346 2363-1213 588-2581 1424-3766 2096-77 44-568 324-1125 641 453-220 900-431 1288-620 2255-1098 4819-2352 7143-3249 67-26 1437-538 1271-305 0 1-12 5-34 13v2l-12 2c-225 79-1201 419-1293 456-2283 927-5146 2557-7700 4164 2127-1189 4462-2387 6575-3345 146-67 2569-1143 2597-897 2 17-14 33-40 47 268-109 491-184 656-219 54-11 100-18 138-20 15-3 31-6 46-8v6c66 2 77 23 4 50l1 16c-773 120-2606 1042-4664 2204 259-130 524-260 797-392 1091-526 2195-1027 3289-1549l-2 1 4-2 31 66c-250 132-499 263-747 392 425-180 779-294 737-158-77 252-5622 3266-6304 3680-384 233-756 486-1121 747 532-352 1080-695 1702-1037 510-280 1021-556 1534-829 491-294 989-574 1498-838 1554-934 3435-2011 3313-1682-1 2-12 10-29 21v2c-2 0-4 1-6 2-141 89-708 400-1454 804 69-29 138-57 207-85 167-68 281-109 353-130l44-26 6 14c62-13 62 5 21 43l4 9c-9 4-19 8-29 11-255 205-1343 805-1425 853-1754 1047-3518 2123-5243 3256 245-157 497-314 762-476 910-553 5533-3270 6298-3405 81-14 68 17 20 63l3 6-17 7c-71 64-196 147-242 178-1517 1024-3520 1892-5148 2860-1314 782-2840 1888-4087 2805-492 361-1230 890-1681 1349 1300-725 2899-1948 4139-2803 1694-1168 3992-2482 5830-3408 1054-531 1760-793 1567-586l2 5c-3 1-6 2-9 3-70 71-236 192-516 370 606-296 1346-625 1287-440-18 59-576 392-1312 811 555-299 956-475 984-377 2 5-10 16-31 29l5 16c-28 9-57 18-87 29-212 106-650 280-666 287-1824 888-5208 3148-7419 4751 1124-800 2340-1597 3377-2271 875-568 4657-2987 5426-2945 44 3 59 50 12 72-128 62-475 165-681 262-1957 917-4794 2922-6580 4208-1303 939-3206 2318-4408 3474 1282-895 2453-2088 3783-3002 1803-1239 4216-2910 6147-3843 174-84 1342-572 1073-332l5 11c-9 2-17 4-26 6-52 43-140 104-274 187-45 28-90 56-134 83 605-286 1123-472 1420-454 56 3 49 29 3 68l2 5c-4 0-7 1-10 1-165 132-731 394-757 408-2139 1178-4580 2692-6729 4170 376-248 766-493 1180-738 1834-1083 3705-2082 5594-3063 159-92 224-162 344-178l119-62c-12 22-23 42-34 59 21 1 43 3 67 7l-117 60c-94 101-200 105-413 216-388 205-753 404-1108 602 421-210 839-406 1253-587 687-404 1209-668 1449-705 231-35-64 201-269 350l11 29s-11 7-29 20l4 1c-3 1-6 2-10 3-322 220-2856 1947-4546 3103 1052-691 2108-1351 3127-1966 252-162 471-295 643-389 590-387 985-617 1075-605 178 24-201 197-202 198-155 85-310 171-464 259 45 60-458 373-458 373-623 407-1260 808-1902 1205-523 367-1084 764-1655 1171 549-326 1111-648 1623-951 251-149 2232-1384 2295-1261 13 26-92 118-255 242 148-84 277-148 353-168l12-9 2 5c42-8 63 1 56 32-29 130-4189 2930-5974 4144-1154 883-2295 1782-3441 2700 315-231 662-505 895-677 2601-1915 5380-3996 8097-5721 7-5 1094-752 984-480-137 339-7566 5771-8483 6545-265 223-540 447-778 702l3 3c11 17 7 39-10 51-23 15-109 81-132 79-32-3-34-26-14-63l-3-4 8-5c124-208 849-794 879-819 952-803 7616-5671 8393-6437-226 119-738 445-808 489-2967 1885-5997 4178-8839 6269-82 60-432 365-596 426l-12 11c3-3 4-6 5-9-19 6-35 9-48 8-122 98-244 197-366 295 0 0-225 217-218 91 1-3 11-15 28-33-2 1-4 2-7 3 4-2 8-5 12-8 340-342 3222-2778 3466-2959 1613-1194 3401-2434 5104-3551 528-365 1084-751 1390-973-540 291-1684 981-1961 1145-784 465-1689 974-2484 1476-939 671-1873 1344-2693 1932-1066 833-2123 1718-3077 2519l-4-1c-11 10-21 21-32 31l-6-41-45-12c468-442 1004-899 1564-1351-391 278-694 490-875 611-383 255-394 161-44-135-9-18-6-38 6-61l-2 1 2-2c58-115 326-280 402-342 686-570 1414-1136 2167-1693 1946-1504 3920-2831 5978-4219 62-41 126-84 192-127-1051 649-2140 1282-3170 1891-67 39-198 120-377 232-1372 1004-5887 4358-5979 4376-377 78 1411-1351 1437-1371 235-182 663-499 1214-897-967 616-1786 1137-1950 1242l-10 9-1-2c-13 8-20 13-20 13-287 49 847-771 894-806 1965-1440 4248-2881 6328-4169 155-96 542-306 967-535 223-142 439-277 645-403-791 370-1603 798-2414 1260-303 186-611 379-933 583-1090 691-2247 1415-3371 2160-248 173-491 345-726 514-199 143-2039 1522-2420 1806-13 13-25 26-38 39l-6-6c-16 12-25 18-25 18-37-2-39-26-18-63l-2-2 7-5c107-165 639-565 676-593 840-650 1787-1300 2753-1934 1354-941 2775-1856 4190-2656 112-68 223-135 334-201-1055 569-2101 1153-3136 1764-1523 901-2716 1797-4107 2889-237 186-330 325-538 407-32 30-64 62-95 93 11-26 23-50 36-73-28 8-57 16-89 23 920-923 2279-1857 3377-2608 2227-1524 5041-3334 7445-4585-557 132-1215 414-1890 762-648 382-1292 745-1935 1119-564 354-1078 696-1483 964-2201 1459-4156 3118-6282 4655-54 39-99 67-134 84l-12 12c2-2 3-5 5-8-106 51-115 5 0-94 1750-1506 3661-2935 5565-4241 1005-689 2021-1278 3041-1865 230-136 466-272 702-405 480-278 959-561 1438-858-1771 574-5165 2950-6665 3968-1301 883-2276 1799-3484 2758-13 11-594 450-849 601-12 13-25 26-37 39l-10-12c-73 38-97 35-35-42l-1-2 7-5c31-37 81-91 155-164 1558-1547 7681-6027 10707-7584-1419 667-3385 1947-4281 2529-1606 1044-3641 2384-5100 3571-174 142-1475 1312-1808 1501-5 5-10 10-14 16 2-4 3-7 4-10-35 18-58 25-65 16-6-8 4-28 28-58-3 0-6 0-10 1 6-3 11-7 16-10 273-336 1997-1764 2250-1966 1140-910 2517-1849 3824-2710-220 143-434 283-639 418-701 459-1772 1124-2409 1636-886 712-1747 1479-2641 2179-187 147-266 121-106-36 1487-1457 3601-2955 5321-4152 2026-1410 4178-2332 6197-3638-514 167-1157 470-1841 835-383 221-754 427-1116 625-1121 654-2230 1365-2973 1838-726 462-1528 962-2305 1480-1200 910-2357 1849-3569 2749-24 17-25 22-50 27l-35-26c1-8 12-24 34-47-9 1-10 1-15 4 8-6 5-4 22-17l16-12c357-357 2269-1845 2504-2007 307-212 624-429 949-649 605-460 1219-913 1856-1354 1201-830 2497-1479 3751-2167 224-128 446-252 665-372 475-273 939-557 1387-865-1496 514-4763 2464-6062 3268-577 358-5247 3668-5440 3628-436-89 4532-3494 4999-3809 1921-1294 4186-2190 6050-3438-1036 435-2110 1038-3074 1579-1477 829-3386 1905-4750 2881-545 390-2929 2153-3462 2441-6 4-10 8-13 11 2-2 4-5 5-7-17 9-31 16-43 21-84-50 68-133 107-163 3362-2613 7047-4844 10708-7016-378 156-745 319-1104 488-536 287-1105 592-1645 881-1310 803-2751 1730-4055 2608-243 177-488 358-734 543-279 209-2851 2201-3318 2514-5 6-11 14-16 20l-7-4c-29 18-46 27-49 25-225-149 1763-1566 3676-2860 879-650 1770-1281 2685-1873-321 172-554 297-651 351-1371 758-2536 1677-3809 2482-162 105-325 206-491 304-16 9-140 96-219 124l-9 5-1-2c-40 13-66 6-52-40 0-1 8-6 21-15l-4-7c64-36 127-72 190-110 146-91 344-214 508-316 816-530 1569-1123 2374-1690 2244-1579 4966-2678 7187-4241-954 234-2143 947-2972 1416-2553 1444-5366 3194-7778 4852-90 62-522 408-716 483l-23 17c4-4 6-7 7-11-30 10-53 12-67 3l-1-30c0-2 9-9 25-22-2 1-3 1-5 2l10-6c282-222 2433-1729 2655-1886 2223-1576 4613-2893 7031-4148-1241 586-2462 1173-3685 1841-579 341-1158 689-1722 1033-1513 971-4064 2646-4692 3041-26 19-51 38-75 56-9 6-17 13-26 20 7-7 10-13 10-19-29 17-47 27-51 28-31-35-30-47 5-74 637-497 2260-1557 4151-2719 850-545 1652-1028 2480-1488 739-432 1473-852 2166-1235-1658 861-3339 1811-4940 2742-1169 706-2322 1423-3495 2158-134 85-280 238-350 152 17-139 1690-1140 3402-2129 2660-1622 6055-3614 7899-4369-828 264-1868 758-2465 1039-2305 1083-4921 2434-7163 3743-806 524-1563 1032-2239 1500-3 2-338 246-447 305l-3 2 1-1c-13 7-22 11-27 12l-35-44c4-7 12-16 22-26l-2 1 2-2c247-252 2097-1461 2413-1646 173-101 349-203 526-305 2490-1606 5464-3393 7959-4487-2541 1048-5248 2373-7690 3590-600 299-1287 693-1873 968l39-67-30-5c17-11 35-22 52-33l8-13c103-102 5202-2959 5851-3326 1915-1084 4175-1664 6032-2705-574 35-1278 304-1793 492-2444 893-5041 2126-7404 3238-1072 505-2248 1114-3316 1569-59 25-104 43-138 54l-11 6-1-2c-99 30-80-4-15-57l-3-9 31-13c47-35 107-74 164-108 2103-1245 4363-2523 6578-3550 612-284 4487-1844 4819-2138-431-27-4163 1220-4625 1376-1099 371-1731 646-2786 1141-953 446-1975 979-2919 1393-20 2-38-13-40-33-1-20 13-38 34-40zm11091-1947c-100 32-233 51-242 54-1126 384-3305 1617-4857 2518 72-40 132-73 175-96 955-524 3238-1785 4762-2407 55-24 109-47 162-69zm-4013 2432c-379 207-759 419-1141 637-1381 790-2482 1503-3772 2415-58 41-116 82-174 122 1614-1054 3362-2166 5087-3174zm2692-846c606-324 1210-651 1810-985-482 218-1189 600-2021 1084 70-34 141-67 211-99zm-7372 4707c-960 679-1741 1271-2184 1674 728-557 1454-1119 2184-1674zm788-223c-494 338-983 681-1466 1031 212-147 384-266 466-325 347-248 676-481 1e3 -706zm4703-1926c-744 418-1487 863-2277 1419-122 86-244 173-365 260 861-566 1754-1136 2642-1679zm1337-407c-694 385-1260 697-1424 795-1177 705-2541 1654-3773 2588 134-97 275-197 428-301 1471-1004 3139-2111 4769-3082zm-6056 4049c-255 202-500 400-731 592-325 269-745 619-1109 950 412-332 945-800 1187-1002 239-199 450-375 653-540zm-1201 1201c-317 263-678 566-955 824 289-234 642-548 955-824zm5112-2921c-35 25-71 49-107 74-1729 1186-3461 2472-5077 3826 423-316 898-699 1214-940 1347-1025 2606-2011 3970-2960zm-3057 2590c-282 209-562 421-834 642 284-221 560-434 834-642zm9113-5129c43-5 66 3 28 46 255-125 492-229 641-264 124-84 238-164 352-267-176 32-539 209-1021 485zm-2451 1433c-24 14-44 26-60 36-2078 1287-4360 2727-6324 4166-164 120-314 234-462 352 919-606 1881-1211 2821-1805 1231-869 2701-1882 4025-2749zm-2677 1896c156-97 313-193 470-289 321-232 643-461 966-686-493 331-979 662-1436 975zm1447-877c1363-810 2742-1604 4052-2471-1202 492-2905 1662-4052 2471zm-3140 2051c-390 274-684 483-838 596-673 491-2014 1454-2616 2107 705-449 1634-1205 2295-1701 757-568 1552-1168 2363-1766-376 238-788 500-1204 764zm145 511l-35 27 75-56-40 29zm6708-4365c-237 156-508 338-804 541 313-199 618-398 907-598-13 7-27 13-41 21l-62 36zm-3714 2320c299-179 591-353 859-516 189-135 379-268 566-398-467 295-944 600-1425 914zm-3144 2405c291-224 582-442 871-653 344-257 1224-904 2222-1621-287 175-573 350-858 525-1025 629-1963 1395-2919 2124-588 449-1485 1096-2087 1617 400-266 1135-788 2041-1439 245-188 490-372 730-553zm5430-3170c-858 601-1698 1208-2528 1824 1376-915 2759-1815 4008-2744-27 16-60 35-99 57-445 260-911 553-1381 863zm-5299 3851c-584 429-1141 862-1682 1327 562-446 1121-888 1682-1327zm-204 42c590-441 1203-871 1826-1296 306-234 614-467 924-699l-102 72c-707 494-1812 1219-2448 1756-66 55-132 111-200 167zm-3245-2184c-205 152-403 304-593 457-89 72-186 149-287 228 294-228 587-457 880-685zm3913-4221c-506 311-1004 636-1501 975 741-488 1290-841 1406-915 22-14 54-34 95-60z"/>
     <path class="fil1" d="m-2495 2441c1 0 4009-1950 4685-2186 3357-1173 9807-3196 2001-24-2320 943-5706 2850-7945 4182 159 0 11292-5567 12826-5367-1327 816-4216 1692-6067 2724-24 13-7895 4470-5609 3200 1291-716 10309-5114 11144-5005-3151 856-9603 4906-12432 6872-1494 1039 1157-844 1355-970 1592-1014 9696-5386 11203-5482-1359 218-9215 4960-10707 5920-2330 1499-811 465 206-168 1628-1013 9929-5809 11341-5920-1673 122-10830 5849-12756 7252-652 474 4438-2956 5562-3605 2571-1485 4136-2119 6634-3315 36-17-6092 3026-8717 4948-388 284-4971 3495-1989 1441 1368-943 9428-6134 10678-6134-1315 1e3 -4922 2785-6630 3872-1227 781-2571 1930-3776 2590 1309-720 2678-1885 4322-2800 2199-1225 4544-2397 6706-3623-1392 239-12000 7225-12172 7892 3579-2713 7030-5614 11340-7259-3967 2351-7291 4343-11014 7179-1294 986 3434-2408 3472-2434 1458-988 6399-3907 7930-4437-1326 986-4325 2292-6147 3507-769 512-4759 3231-5192 3864 1001-491 3948-2694 5188-3483 991-631 5466-3286 6519-3483-1492 1111-3907 2108-5802 3406-2078 1424-3547 2640-5479 4125-504 388 2014-1660 2175-1775 1282-917 8345-5589 9839-5798-1934 1302-4100 2162-6402 3773-1953 1367-3387 2390-5154 3997-1157 1053 2437-1981 2606-2102 1486-1062 7053-4733 8622-5213-1520 396-8297 5038-9556 6091-2110 1764-3320 2926-457 464 1339-1152 9101-6486 10657-6632-1864 441-10373 6502-11959 8224 1071-658 2663-2246 4101-3217 1270-857 5849-4032 7199-4230-1675 1075-3316 1842-5174 3111-2438 1664-3530 2525-5703 4322-1100 909 4531-3430 4933-3711 1161-810 5432-3732 6938-3828-2366 1183-9450 5624-11042 7305-14 14 2604-2097 3891-2881 2288-1394 4542-2592 6911-3816 13-7-2181 1124-3159 1753-1271 817-6907 4318-7678 5234 3195-2494 6774-4938 10480-6625 1432-652-1589 916-1844 1072-1359 831-6626 4173-7545 5091 32-4 4725-3044 5191-3313 22-13 7334-4303 5337-3446-1736 746-10482 6674-11200 7766 327-61 8985-7022 11207-7549 36-8-5570 3700-7437 5147-549 425-4971 3996-1867 1441 1982-1632 7305-5140 9606-6361-74-298-9848 6846-10697 7406-1463 965 4279-3375 4498-3516 316-203 6522-3977 5345-3389-1813 906-8976 6228-10487 7703-20 19 3630-3075 5546-4315 19-12 6456-3899 4689-2693-3627 2476-6341 4568-9756 7334-1001 810 3084-2666 3133-2704 730-566 6456-4593 7094-4783-2873 2222-7335 4691-9821 7195-160 161 7062-5295 10063-7087 2173-1297-7341 5716-7664 5980-216 176-1212 989-1378 1230l108-73"/>
      <path class="fil0" d="m510 4296l251-125c18-10 40-2 49 16 10 18 2 40-16 49l-252 126c-18 9-40 2-49-17-9-18-1-40 17-49z"/>
     <path class="fil1" d="m526 4329l252-126"/>
      <path class="fil0" d="m5144 2351c-521 263-1044 532-1569 805 964-438 1928-877 2881-1336-255 68-584 186-965 340-102 46-207 93-315 143 1 3 2 6 2 10 1 20-14 37-34 38zm-2778 1440c-477 253-955 508-1431 764l-22 12c733-387 1472-761 2213-1119 55-27 141-67 250-118-337 153-673 307-1010 461zm-3907 2105c-328 179-655 357-979 534-197 107-417 234-638 361 81-40 165-83 251-127 457-252 912-509 1366-768zm-2415 1267h-7c-126 83-229 155-300 212 79-35 183-86 289-139-51-1-35-30 18-73zm-6-1l12-3c12-10 26-21 41-32-18 12-35 24-53 35zm3599-1819c751-375 1529-738 2310-1096 981-504 1960-1010 2935-1520-771 342-1472 665-1724 787-1191 575-2364 1187-3521 1829zm3483-1630c533-242 1062-482 1579-724 471-219 2069-932 2635-1263-332 97-1004 372-1719 680-702 369-1577 828-2495 1307zm2624-1439c205-108 410-217 615-325-652 314-1309 618-1968 919 425-190 902-401 1353-594zm1008-534c75-40 116-63 192-105-66 15-136 33-208 53 54-2 70 11 16 52zm405-148l1 4c-4 1-9 2-13 2-104 56-385 205-791 420 571-235 1021-403 1138-401 263 5-582 404-582 404-1734 861-3539 1673-5316 2487-2208 1149-4248 2199-4337 2207-56 6-64-8-47-31-444 248-831 458-1139 611 0 0-606 321-492 131 170-283 3330-2036 3840-2298 837-430 1688-836 2543-1233 593-330 1188-653 1790-964-1999 939-4379 2184-5511 2740l-243 134c-253 153-466 274-596 329l-81 45-3-15c-30 7-47 4-50-10-1-4 13-16 40-34l-2-10c18-8 36-16 54-24 52-33 124-76 211-127-43-4-29-30 19-68l-1-4 12-5c181-138 738-407 754-416 163-92 322-182 476-270 519-352 1042-715 1496-961 2308-1252 4856-2265 7060-3671 17-11 40-6 51 10 11 17 7 40-10 51-987 629-1972 1134-3017 1652-1345 668-2970 1387-4245 2130-48 28-200 128-411 267 627-348 1249-674 1997-1009 53-24 106-48 159-71 1435-749 2953-1485 4298-1983 234-87 208 3 31 91-269 135-546 268-828 401 197-80 389-154 574-220 618-253 1274-487 1204-310 0 1-12 7-33 19zm-3972 1438c849-374 1711-758 2524-1149-797 319-1675 728-2524 1149zm-1200 611c-331 172-647 339-941 496-342 183-683 367-1024 553 625-314 1250-628 1877-936 462-226 979-485 1512-743-482 213-960 423-1424 630zm-894 744c-550 262-1097 530-1638 808-401 206-2193 1198-3176 1816 197-117 423-236 423-236 1320-733 2661-1453 4003-2166 129-74 259-148 388-222z"/>
     <path class="fil1" d="m5142 2315c-115 8-16052 8514-5489 3057 614-317 9329-4260 7629-3655-3202 1137-7115 3206-10029 4962 45-4 9002-4598 9903-5119-1693 108-9168 4737-11102 5703-1630 814 1725-1204 1736-1210 2906-1670 5923-2846 8947-4329-815-98-8999 4200-9148 4200 1501-782 2324-1415 4105-2193 19-9 6250-2796 4245-1972-3165 1300-5667 2757-8636 4388 175 13 2542-1604 2845-1772 2053-1139 5519-2624 7260-3780"/>
      <path class="fil0" d="m6125 6417c-1742 1048-3507 2505-5074 3921 1566-1214 3471-2496 5056-3495 320-202 2696-1689 3002-1492 125 80-1304 1022-1475 1140-1330 926-2889 1922-4077 2992-532 480-1051 969-1575 1451 750-583 2359-1958 2788-2276 1511-1119 3119-2182 4669-3273 188-147 485-375 643-458l37-25 6 5c36-15 59-16 63 1 2 5-6 16-22 32l8 6-100 73c-136 109-377 282-629 458-2249 1642-4855 3594-6806 5400-394 365-792 739-1108 1175 1215-819 2768-2312 3901-3268 1603-1352 3842-2807 5668-3860 0 0 915-566 806-304-20 48-155 170-365 338 177-87 307-131 334-90-9 11-22 26-39 43 6 1 12 3 17 5l-36 15c-537 534-4027 3268-4569 3706-1139 916-2239 1806-3312 2787 367-301 777-664 1060-900 980-814 1945-1661 3002-2375 295-199 2960-2022 3414-2212l3-3c0 1-1 2-1 3 35-15 58-20 63-13 105 139-3216 2269-3507 2479-414 299-853 638-1300 1001 1686-1256 3594-2484 5302-3349 243-123 287-57 61 124-807 647-2031 1424-2918 2025-815 552-1488 1001-2259 1612-161 127-323 256-484 385 553-396 1010-717 1148-814 1513-1057 3101-2178 4663-3156 613-384 787-436 663-297l3 5c-4 2-9 4-13 6-90 96-302 270-597 483-69 50-138 99-207 148 108-46 183-58 114 37-168 233-3426 2501-3999 2958-1405 1122-3369 2614-4656 4021 2181-2015 7112-6023 9115-6758 368-135 237 54 41 255 38-22 76-43 114-65l-1 46c235-112 397-147 453-74 57 74-270 217-280 224-21 13-41 27-62 41-48 53-115 113-156 151-20 19-41 38-62 57 396-255 639-365 623-240-29 240-4814 3932-5426 4463-695 602-1414 1272-2116 1947 1195-1058 2464-2118 3633-3097 505-423 4094-3432 3993-2974-15 65-602 567-1412 1236 759-518 1378-839 1733-823 504 23-6058 5092-6915 5805-542 453-1418 1167-1930 1803 1369-1303 3143-2716 4608-3883 388-309 4063-3221 4108-2811l-35 25 1 16c-15 5-31 11-47 17l-174 123c299-160 467-194 379 5-11 24-206 189-519 441 185-93 306-123 332-63 3 6-10 23-35 48l1 3c-2 1-4 1-6 2-334 325-2666 1991-3989 2941-733 581-1320 1054-1504 1222-84 77-321 298-618 572 1788-1392 3776-2927 5646-4155 51-34 1585-1065 1244-422-36 68-710 641-1607 1387 652-434 1347-874 1923-1189 106-59 128 10 61 60-1071 804-2503 1735-3906 2715-1302 1070-2530 2072-2809 2308-93 78-1126 999-1349 1181l-15 18-3-3c-14 11-22 17-24 17-80 2-37-84 81-222-768 714-1487 1432-2121 2122-150 163-271 334-487 400-20 3-38-11-41-31s10-38 30-41c150-47 245-160 350-274 871-935 1737-1807 2686-2663 1318-1190 3062-2618 4508-3634 152-107 315-220 486-338 873-703 2004-1621 2138-1788 426-530-1054 424-1105 458-1949 1281-4028 2895-5874 4333-923 719-1503 1431-2338 2181-54 48-177 160-260 215-3 4-6 8-9 13l-4-4c-56 35-89 38-58-35 205-479 1559-1702 2481-2499 1008-884 2154-1831 2304-1954 192-157 2386-1950 3535-2675 384-294 807-632 820-715-164-27-1256 743-1608 994-2162 1642-4389 3437-6455 5171-116 97-230 194-343 291-110 107-234 221-323 286-20 18-40 36-60 55l-11-11c-32 15-51 13-52-14 0-5 5-12 14-24l-3-3c1600-1557 3899-3337 5702-4708 76-58 590-454 1186-887 432-339 881-679 1259-939-1020 594-2525 1816-3250 2390-1556 1233-3410 2714-4826 4059-26 25-150 157-235 224-3 4-5 8-8 12l-4-3c-54 40-87 46-61-31 229-658 3333-3088 4140-3724 1367-1078 3776-2853 4898-4077l-242 48c-595 187-1569 861-2566 1643-330 268-668 543-1e3 811-857 714-1641 1413-2111 1836-367 332-2842 2660-3270 3062-12 15-23 30-35 45l-7-6c-14 13-21 20-21 20-29 1-33-20-19-56l-8-7 20-19c104-201 578-703 602-729 1576-1750 3636-3298 5613-4865 28-22 55-43 83-65 862-684 1707-1373 2489-2084-976 567-3288 2546-4095 3226-1602 1350-3467 2899-4950 4343l-12-11c-70 51-86 39-31-31l-9-9c1272-1267 2749-2721 4117-3866 1537-1288 3546-2653 4954-4031l-95 39c-182 92-452 262-784 490-556 460-1199 920-1876 1386-539 416-1113 871-1688 1337-425 348-856 702-1286 1059-217 182-430 362-637 540-794 748-1481 1420-1923 1873-139 154-276 306-411 458-55 61-102 112-142 152l-77 94-12-11c-71 59-84 45-38-30l-7-5 41-46c39-55 98-128 175-218 116-133 286-314 497-531 89-98 179-197 269-296-534 496-926 895-1088 1127l-13-6c-72 71-79 44-47-22l-5-3c7-10 15-20 22-30 26-47 65-105 110-161 36-45 77-94 122-145-56-76 212-435 500-779-289 275-652 622-767 722l-9 11-2-2c-14 13-23 20-26 20-43 4-48-19-28-60l-2-1 5-5c91-174 592-631 630-666 341-316 696-632 1062-947 349-327 718-638 1100-938 397-337 785-661 1144-961 84-71 261-220 502-418 437-402 882-792 1337-1166-771 533-1525 1077-2217 1622-738 580-1612 1461-2332 2123-122 113-1559 1521-1619 1365-72-185 2303-2246 2559-2460 1264-1058 3149-2541 4809-3579 504-366 1019-707 1543-1017 208-178 350-313 381-377-39 3-111 29-128 36-2116 777-7663 5345-9429 7056-56 55-102 96-138 127-12 14-23 28-34 42l-9-8c-69 50-80 34-40-35l-6-5c8-8 17-16 25-25 38-57 100-138 184-239 1175-1399 3444-3127 4917-4302 571-456 3263-2316 3876-2841-167 87-384 217-639 381-218 146-435 290-653 433-2389 1635-6587 4927-7401 5968-9 11-146 287-211 266-336-107 1789-1934 1964-2082 1223-1035 2702-2254 4006-3152 420-290 920-609 1430-940 394-271 740-500 1017-672 398-271 773-541 1091-801-861 468-2242 1458-2944 1938-1321 903-2783 1883-4145 2891-593 473-1188 944-1782 1396-14 10-14 11-31 16l-40-42c3-7 9-15 17-26 119-143 775-640 1517-1182 653-518 1304-1043 1950-1555 593-469 4069-2776 4837-3367-2149 1093-4720 2803-6861 4594-663 586-1299 1178-1852 1714-9 8-361 406-530 520-8 8-17 17-25 26l-8-7c-33 17-54 15-56-16-5-156 2034-1973 2282-2182 99-83 199-166 301-250 815-716 1648-1403 2443-1998 495-371 2706-1789 3493-2383-1053 663-2076 1351-3109 2049-1105 746-2195 1704-3224 2560-148 123-1061 936-1338 1083-5 6-10 11-13 16 2-4 3-7 4-11-37 19-62 24-69 11-3-7 7-25 28-52-2 0-4 0-6 1l13-9c237-286 1597-1459 1794-1625 1961-1649 4033-3246 6029-4864 79-65 210-194 334-290-140 66-288 144-443 231-1094 827-3024 2165-3402 2459-65 50-145 112-236 183-372 304-710 585-991 820-378 315-3833 3320-3850 3321-456 39 2697-2526 4188-3716 1100-909 2212-1777 3278-2512 76-52 549-369 983-626 338-254 589-454 684-553-95 37-260 124-285 137-1292 686-2835 1726-4049 2556-1856 1269-3259 2674-4969 4078-593 487-925 723-1066 785l-8 11-5-6c-260 102 240-488 925-1145 1474-1412 3501-2988 5342-4364-1155 791-2391 1628-3412 2456-230 186-2590 2177-2669 2105-8-7 1-29 26-63-3 1-6 1-8 2 3-2 7-4 11-6 240-322 1747-1640 1874-1754 940-848 1967-1528 3004-2249 554-384 1949-1295 2467-1746l-139 22c-1269 330-5544 3332-6878 4303-150 109-1317 1003-1655 1260l-64 60-6-6c-13 10-21 16-21 16-47-3-44-29-21-63l-1-1 5-4c44-60 147-138 150-141 1707-1583 3747-3328 5738-4526 17-11 40-5 50 13 10 17 5 39-13 50zm-1429 3752c-632 527-1216 1033-1595 1404 513-455 1047-927 1595-1404zm7222-2448c-251 201-508 399-766 595 318-222 637-449 957-694-63 32-127 65-191 99zm-3703 2862l-155 124c24-17 47-33 71-49l84-75zm-1271 1019c-153 125-306 250-458 375-424 372-837 739-1232 1095-328 340-614 688-846 1044 97-96 147-141 400-371 22-21 45-41 68-62 485-487 1002-981 1530-1469 258-268 519-534 785-797-83 61-165 123-247 185zm3214-2738c113-87 227-175 340-262l-5 4c-112 85-223 171-335 258zm2279-1301c-492 352-1006 750-1516 1157 434-331 847-639 1203-891 106-87 210-176 313-266zm-3898 2816c33-23 66-45 100-68 182-162 365-323 545-481-212 175-428 359-645 549zm564-381c249-167 497-333 744-500 610-501 1264-1033 1904-1518-546 398-1275 898-1638 1145-327 276-666 570-1010 873zm3683-2764c-102 22-237 82-400 175l1 2c69-22 73-4 29 45l7 12c-12 5-24 11-36 17-55 52-146 127-262 217 224-165 446-322 661-468zm-4054 3094c-329 293-659 593-982 889 418-345 835-685 1244-1020 109-89 221-180 335-274-199 134-398 269-597 405zm-610 420c-643 576-1276 1174-1823 1682l-12 11-12 13c115-98 230-196 346-294 512-483 1068-996 1630-1502l-129 90zm-47 1199c-480 388-839 680-974 796-848 730-1623 1445-2337 2278 738-712 1976-1886 3311-3074zm4649-2077c-516 412-1184 939-1858 1471 724-507 1822-1248 2434-1777-160 66-356 171-576 306zm-7118 5925c-66 53-120 94-157 118-1 1-3 3-4 5 1-1 1-3 1-4-29 19-48 27-54 23-9-6-11-17-7-32-242 249-458 490-636 713 301-272 579-548 857-823zm6397-4226c-248 205-504 417-763 630 874-601 1751-1191 2611-1809-594 372-1334 835-1423 894-140 92-282 188-425 285zm-2566 1907c284-210 570-416 857-619 241-196 480-391 716-584l16-13c-525 383-1058 791-1589 1216zm75 18c-944 699-1820 1410-2495 2108 796-710 1648-1416 2495-2108zm2325-3025c-801 578-1716 1314-2460 1928 814-648 1645-1291 2460-1928zm-4436 3597c-600 521-1352 1189-1735 1591 592-504 1161-1059 1735-1591zm2258-2308c-929 717-1864 1465-2748 2208 968-786 2049-1650 2748-2208zm-2209-495c73-65 145-130 217-194-22 16-45 33-68 49-50 48-99 97-149 145zm-1293 563c-28 23-55 47-83 70-364 304-1934 1673-2412 2231 372-313 1200-1083 1376-1246 348-320 732-691 1119-1055zm2448-1650l-26 23c297-235 591-469 879-698 164-131 580-441 1064-806 179-146 352-286 518-416-796 580-1619 1227-2435 1897zm4139-3009c99-29 151-32 172-20 48-31 95-61 141-91-87 15-195 55-313 111zm-2362-1432c-486 321-1e3 697-1504 1082 482-344 1020-729 1504-1082z"/>
     <path class="fil1" d="m6107 6385c-1913 1132-4245 3132-5888 4667 1146-1008 7827-5753 8871-5670-98 188-4405 3038-5157 3714-4504 4049-1371 1376 722-305 459-368 5477-3826 5498-3874-1797 1303-7891 5796-8759 7268 1080-630 3853-3343 5415-4443 3290-2317 8727-5524 1476-476-600 418-5504 4319-5619 4742 1692-1500 7302-6480 9175-7126 13 32-6087 4877-6780 5493-4291 3813 1090-835 2504-1888 14-11 4951-3358 3672-2354-1200 942-2645 1675-4108 2867-1682 1371-2951 2461-4463 3973 2262-2502 6306-5329 9322-6885 1117-576-4239 2975-4497 3178-305 241-6143 4868-2768 2171 852-680 7644-5420 8118-5534-732 704-3720 2458-4986 3503-668 552-4646 3592-4769 4280 524-1108 7535-6385 8944-7080 761-376-3341 2484-3627 2714-1386 1114-4394 3423-5401 4786 1756-1756 7480-6443 9617-7238 1022-380-2575 2212-2644 2267-866 694-5703 4508-6092 5181 1004-1091 8486-7585 9301-7298-1101 607-8013 6312-8965 7340 1292-2497 6609-5103 8675-7168-823-190-7989 6469-8759 7545 2331-2628 5524-5994 8643-7678 24-13-3853 2490-5547 3857-337 272-5475 5125-3108 2697 1606-1648 6118-5204 8285-6177-756 645-2117 1426-3152 2291-755 631-4849 4299-5289 5010 216-634 8260-7303 9273-7511-1027 1098-4267 3387-5703 4696-1127 1028-2414 2247-3500 3332 846-880 8731-7692 9287-7692-2572 2425-6993 5287-8996 7937 1354-1332 7755-7479 9353-7479-1374 1644-8356 6433-9105 7874 965-1021 8096-6934 8940-6993-391 59-8167 6327-8710 6885 1755-1755 9481-7787 8812-6671-15 23-4977 3900-5410 4283-289 256-4633 4279-1895 1587 752-738 6396-5521 7143-5510-326 366-4244 3028-5098 3752-980 830-3193 2603-3846 3650 741-595 1418-1476 2430-2273 573-451 8126-6320 7218-4888-97 152-6564 5328-7662 6413 1462-1884 5987-4669 8085-6228 300-223-2457 1475-3529 2295-2576 1970-4397 3457-6622 5845-102 110-307 365-465 389"/>
      <path class="fil0" d="m6328 15945c-32 9-59 14-82 17-139 137-276 273-411 408-80 82-733 844-972 1046l-29 35c3-6 5-11 5-16-26 20-45 31-55 30-52-82 88-173 179-277 717-822 1509-1752 2257-2534 157-164 883-821 1734-1558-115 86-203 153-253 195-1478 1219-2823 2500-4205 3820-132 127-184 77-69-65 618-767 1587-1806 2286-2509 292-294 601-597 919-904-1305 1042-2434 1920-2706 2073h-1c-33 19-54 27-59 22-89-79 120-378 443-748-114 96-229 190-344 283-103 83-164 39-32-95 1086-1097 2401-2259 3617-3335-1076 902-2060 1835-3133 2751 0 0-772 703-707 464 18-67 163-238 385-471-53 18-72 0-45-66 43-109 207-301 446-542-81 49-132 60-121 0 59-298 2789-2886 3149-3173 264-211 2659-2091 3457-2728-1092 683-4520 3248-5056 3691-256 211-2395 2155-2492 2040-106-125 2333-2166 3520-3152-822 640-1510 1178-1674 1314-565 467-1089 958-1640 1424-249 209-305 149-109-88 1094-1326 2719-2839 4137-4062-1555 1137-3372 2467-3668 2696-155 121-1369 1144-1438 1067-59-67 464-626 1023-1187-179 143-357 287-535 431-2 2-777 619-540 206 23-42 54-88 90-139 3-6 6-13 9-19 181-380 926-1127 1257-1442 15-14 38-13 52 2 13 15 13 38-2 52-203 192-478 452-726 729 1009-1050 2766-2571 3444-3100 622-486 2275-1672 2952-1738 49-4 47 20 13 62l5 9-18 6c-103 115-400 338-623 499 270-162 454-233 498-164 4 6-8 23-32 49l4 7c-5 1-10 3-15 4-261 266-1633 1295-1828 1446-1153 891-2317 1770-3463 2671-581 556-1233 1207-1442 1494 126-89 244-192 364-288 1724-1385 3524-2652 5312-3941 234-194 1297-1064 1565-1142l2-2 1 1c43-12 64-2 57 36 0 0-9 7-25 18l4 8c-19 10-39 21-59 32-201 148-769 564-1480 1083-842 699-1722 1521-2290 2042-676 619-1202 1151-1829 1824-44 46-365 416-593 676 50-45 87-79 90-82 1496-1337 3023-2503 4572-3688 699-584 1632-1344 1947-1505l49-39 10 13c35-11 52-5 49 21 0 0-8 6-21 17l5 8c-52 37-104 73-156 110-314 245-1026 798-1817 1412-92 77-185 155-279 235-514 435-3705 3073-4501 3871 403-303 923-776 1246-1056 1451-1254 2787-2254 4347-3359 157-111 2013-1491 2052-1316 1 4-11 19-36 43h2c-1 0-2 1-3 1-375 360-3428 2728-3700 2944-566 451-2455 2292-3035 3003 198-152 559-469 613-516 46-40 110-94 190-160 1050-939 2414-2047 2791-2345 104-81 209-164 314-246 1306-1099 3454-2852 3365-2433-6 26-86 107-223 230 118-69 236-136 354-202 242-153 406-240 463-237 174 9-187 171-283 218-237 141-571 366-966 644l-1 2 1 2-5 4c-227 321-1820 1594-2638 2241-391 347-782 696-1170 1046 1300-1107 3188-2644 3713-2774 58-14 61 8 20 58l6 10-26 14c-396 435-3143 2403-3589 2769-922 759-1818 1636-2732 2437-351 384-617 723-756 988 86-55 81-54 297-215 998-743 2001-1554 2984-2353 821-772 1675-1541 2461-2212 138-117 1670-1408 1720-1132 0 2-14 16-39 39l3 4c-3 0-5 1-8 1-306 279-2185 1825-3989 3276-466 445-922 886-1361 1305-338 324-1717 1769-2330 2484 845-808 1675-1600 2557-2379 900-795 1639-1395 2536-2055 926-779 1831-1498 2213-1688 688-564 1340-1054 1299-848-13 63-525 458-1207 962-365 395-1743 1494-3075 2575-921 822-1850 1673-2704 2507 9 4 16 12 19 22 7 19-4 40-23 46zm-170 1c-2-2-4-5-6-8-35 39-69 78-104 117 36-36 73-73 110-109zm987-1102c645-574 1468-1247 2047-1712 442-393 880-779 1305-1152l46-41c-295 214-580 420-836 605-1110 934-2229 1935-2521 2255l-41 45zm3222-2653c363-295 861-703 1237-1023-131 96-264 193-398 290-317 274-569 496-661 576l-178 157zm1657-1395c34-32 61-59 80-81-14 7-29 14-45 22-100 82-201 166-300 250 88-63 177-127 265-191zm-478 278c-242 176-533 402-850 657 139-98 286-199 436-304 128-110 268-230 414-353zm-4875 4291c-147 162-295 325-443 489-7 14-11 25-13 36 529-520 1090-1047 1660-1569-482 400-905 763-1204 1044zm2947-4482c229-206 539-483 864-769-1282 1027-2670 2124-2956 2391-112 104-1543 1451-2183 1919-198 204-363 382-471 516 97-74 212-170 232-187 1281-1058 2436-2208 3741-3259 203-164 473-376 773-611zm-4359 3526c494-501 1240-1200 1900-1806-279 223-519 418-704 572-631 562-1172 1079-1311 1311 31-18 70-44 115-77zm5134-4548c598-445 1217-879 1846-1268 176-147 313-267 399-348-548 275-1394 917-2245 1616zm-198 386c-772 583-1570 1199-2257 1739l-110 98c-376 336-1270 1149-2002 1860 629-543 1446-1302 1650-1492 302-282 1527-1254 2719-2205zm-5149 1108c231-225 441-425 586-561-603 498-1202 1001-1800 1510-20 17-67 62-117 104 119-85 250-192 288-223 347-281 694-557 1043-830zm3664-3033c-216 168-431 338-646 507-795 641-1561 1311-1977 1664-80 68-232 205-423 382 233-180 466-360 700-540 1265-976 2661-2e3 3892-3013-390 164-951 546-1546 1e3zm-5138 4179h-11c-1 2-2 5-3 7 4-2 9-5 14-7zm135-221c-11 20-21 41-31 61 2204-1876 4417-3659 6722-5409-1113 393-2172 1207-3080 1942-600 486-2956 2565-3611 3406zm4995-972c971-753 2048-1572 2928-2213 58-48 115-94 170-138-894 591-1806 1288-2598 1913-175 152-343 299-500 438zm1917-1219c431-349 845-695 1153-982-43 36-86 73-129 109-339 285-681 576-1024 873zm-4185 3808c492-445 981-897 1443-1308 1272-1132 2696-1981 3956-3069-100 51-154 86-394 242-926 602-3373 2542-5005 4135zm2691-1563c1032-835 2080-1730 3118-2548-301 129-692 453-876 598-740 582-1498 1257-2242 1950zm3079-1670c329-244 639-488 897-720-210 128-551 391-918 691 10 3 17 8 21 17 1 3 1 7 0 12z"/>
     <path class="fil1" d="m6317 15910c-1203 388 5689-4882 5846-5210 216-448-3906 2913-4916 3979-257 271-4074 4564-1633 1868 693-766 7211-6768 7668-6721-546 586-3620 2612-4605 3437-1596 1337-2718 2380-4207 3822-516 500 1873-2152 2386-2637 650-615 4878-4748 5545-4748-13 45-7225 5917-7511 6e3 156-926 5975-5871 7175-6336-1120 1042-2750 1978-4164 3252-1089 982-5414 4849-1196 934 426-396 5272-4760 5444-4773-311 444-3653 2988-4406 3682-1405 1295-5109 4588-1385 926 836-822 5502-5005 6413-5241 25 159-4607 3714-5077 4154-4209 3943-2744 1998 241-454 1397-1148 3850-3094 5462-3861-330-38-6433 4683-6973 5161-2919 2591 1352-1684 1865-2112 304-254 3961-3130 3975-3147 202-243-4244 2857-5662 4099-3965 3472-1566 1098 344-438 1476-1186 2888-2543 4448-3608-2265 1794-4377 3244-6566 5230-1392 1263 1475-1738 1618-1866 890-798 3546-3321 4503-3770-2441 1816-4649 3275-7108 5269-1083 879 1643-1854 1843-2017 717-586 4010-3497 4745-3560-46 79-5755 4443-6149 4778-3004 2553 3540-4490 6314-5173-2497 1887-4622 3599-7008 5637 32-350 1056-1362 1304-1591"/>
      <path class="fil0" d="m3572 12328s-94 89-166 137l-4 6c1-1 1-2 1-4-53 36-93 47-69-21 51-150 1248-1318 1873-1903-524 444-1101 983-1551 1377-176 154-2330 2088-2412 1986-83-104 1180-1272 2355-2319-550 456-1081 896-1493 1231-414 391-830 781-1249 1166-185 169-129 121-270 237-17 10-40 5-50-12-11-18-5-40 12-51 130-108 80-65 258-228 201-185 401-370 600-556-21 15-38 27-51 36l-2 3-1-1c-17 11-28 17-32 17-243-12 861-1081 1919-2051-545 436-1094 865-1655 1278-9 7-417 346-269 37 347-721 6576-5658 7363-5974 218-88-96 243-119 265-157 149-318 295-483 440 421-286 770-490 955-528 45-9 65 35 31 66-65 58-1018 663-1196 788-547 384-1081 786-1608 1197-227 193-451 388-669 588-934 858-1852 1735-2772 2609 1389-1154 2741-2350 4182-3438 1327-1044 2957-2226 4017-2624 84-31 143-50 182-58l5-4 1 2c68-13 69 8 26 52l5 10c-8 3-17 7-26 10-88 79-282 211-494 348 148 36-369 345-434 393-178 128-357 257-535 386 324-172 615-295 847-345l11-8c132-90 1120-824 1348-993 10-9 20-17 28-24-3 3-4 4-5 7l23-18 44 45c-12 22-11 19-30 34-380 314-762 626-1147 936 2 1 3 1 5 1 185 23-671 594-1086 865-1517 1207-3050 2398-4552 3611-274 222-1597 1505-2028 1921-29 30-58 61-88 91l-7 9c-5 6-4 6-8 10 2-2 3-5 3-7-494 510-998 1020-1527 1523-75 71-132 121-173 153-2 4-4 7-6 11l-4-3c-362 273 638-1020 647-1032 584-702 2135-2338 3786-3910-445 364-1739 1575-2262 2172 3 2 5 4 8 7 14 14 13 37-2 51zm3556-3347c621-472 1323-980 1966-1381 404-298 916-693 1329-973-278 172-517 314-519 315-401 234-761 447-1103 655-514 391-1084 865-1673 1384zm1933-769c-796 548-1495 1047-2283 1702-605 504-1312 1088-1984 1699-58 59-116 118-174 178 269-253 557-505 891-765 1183-922 2369-1866 3550-2814zm627-505c302-243 604-487 905-730h-3c-1062 730-2181 1415-3201 2242-585 475-1131 966-1655 1467 543-464 1076-900 1535-1277 745-610 1602-1147 2419-1702zm-3180 1753c574-531 1145-1037 1679-1478-450 289-887 592-1367 955-605 482-1149 937-1567 1290-439 371-3197 2791-3830 3512 676-501 1579-1343 2185-1874 614-538 1461-1343 2092-1812 267-198 537-396 808-593zm2159-1866c291-229 567-432 819-601-424 270-862 575-1296 893 159-100 318-196 477-292zm1359-930c205-109 383-182 530-210 5-1 10-2 14-3 133-86 266-174 397-264-291 121-608 284-941 477zm-800 930c-921 660-1847 1319-2760 1986l-46 37c-2093 1917-4245 4197-4895 5209 543-519 1066-1052 1584-1588 419-517 973-1072 1568-1619 610-618 1234-1226 1896-1805 1278-1120 2407-1841 3757-2758-336 118-712 308-1104 538zm-4901 2806c329-292 571-503 638-560 347-293 1391-1154 2353-1871 555-468 1086-923 1288-1131-1040 583-6842 5138-7217 5872 1e3 -734 1968-1522 2938-2310zm915-642c-444 358-885 719-1328 1078-981 879-1847 1727-2361 2333 161-126 321-253 480-381 1070-1009 2129-2032 3209-3030zm4172-2603c270-159 539-317 806-482-232 111-504 275-806 482z"/>
     <path class="fil1" d="m3547 12302c-821 772 1434-1554 1839-1889 826-681 4338-3583 5483-3521-213 225-2863 1946-3577 2545-1462 1229-2676 2167-3962 3609-1008 1131 1178-1242 2060-1881 325-236 8050-6423 6381-5105-1579 1248-2879 1837-4750 3416-2326 1964-3634 3661-5656 5553 528-1291 7985-8640 9343-8553-9 24-4794 3451-5093 3687-452 357-7139 6342-2995 2359 1625-1561 6611-5876 8606-6473-1080 805-2512 1438-3857 2427-2145 1577-4010 3359-6046 4917 852-1269 6344-5975 7721-6462-2525 1540-5269 4099-7710 5863-225-650 12381-10015 5132-4087-1001 819-5719 5375-5898 5483"/>
  </g>
</svg>
