<?xml version="1.0" encoding="UTF-8"?>
<svg viewBox="0 0 48 48" xmlns="http://www.w3.org/2000/svg" xmlns:xlink="http://www.w3.org/1999/xlink">
 <defs>
  <linearGradient id="a">
   <stop stop-color="#fff" offset="0"/>
   <stop stop-color="#fff" stop-opacity="0" offset="1"/>
  </linearGradient>
  <linearGradient id="c" x1="6.8943" x2="27.4" y1="-359.82" y2="-381.3" gradientTransform="matrix(-.053586 .10285 -.092814 -.05938 198.91 -255.69)" gradientUnits="userSpaceOnUse" xlink:href="#a"/>
  <linearGradient id="d" x1="284.8" x2="288.9" y1="-441.23" y2="-436.83" gradientUnits="userSpaceOnUse" xlink:href="#a"/>
  <linearGradient id="e" x1="286.67" x2="289.77" y1="-439.48" y2="-436.71" gradientUnits="userSpaceOnUse" xlink:href="#a"/>
  <linearGradient id="f" x1="240.94" x2="244.98" y1="-230.1" y2="-224.92" gradientUnits="userSpaceOnUse" xlink:href="#a"/>
  <linearGradient id="g" x1="285.94" x2="289.39" y1="-439.94" y2="-436.44" gradientUnits="userSpaceOnUse" xlink:href="#a"/>
  <linearGradient id="h" x1="286.51" x2="289.85" y1="-441.29" y2="-436.14" gradientUnits="userSpaceOnUse" xlink:href="#a"/>
  <linearGradient id="i" x1="287.52" x2="289.68" y1="-439.75" y2="-436.32" gradientUnits="userSpaceOnUse" xlink:href="#a"/>
  <linearGradient id="j" x1="237.02" x2="251.03" y1="-234.05" y2="-224.97" gradientUnits="userSpaceOnUse" xlink:href="#a"/>
  <linearGradient id="k" x1="238" x2="245.65" y1="-388.47" y2="-382.65" gradientUnits="userSpaceOnUse" xlink:href="#a"/>
  <linearGradient id="l" x1="230.88" x2="235.26" y1="-390.44" y2="-386.96" gradientUnits="userSpaceOnUse" xlink:href="#a"/>
  <linearGradient id="m" x1="246.74" x2="252.7" y1="-391.31" y2="-385.35" gradientUnits="userSpaceOnUse" xlink:href="#a"/>
  <linearGradient id="n" x1="240.07" x2="245.83" y1="-393.41" y2="-388.55" gradientUnits="userSpaceOnUse" xlink:href="#a"/>
  <linearGradient id="o" x1="297.5" x2="335.36" y1="-237.31" y2="-224.27" gradientUnits="userSpaceOnUse" xlink:href="#a"/>
  <radialGradient id="b" cx="21.92" cy="-382.96" r="21.744" gradientTransform="matrix(.070652 .041548 -.062015 .10941 207.48 -189.82)" gradientUnits="userSpaceOnUse" xlink:href="#a"/>
 </defs>
 <g transform="translate(-202.95 271.01)">
  <path d="m231.63-228.77c-1.0392-0.59579-1.3957-1.9169-0.79571-2.9488 1.3315-2.0828 3.1051-1.5462 4.0122-3.7417 1.2609 1.3336 0.79314 8.2477-3.2164 6.6905z" fill="#729fcf" stroke="#204a87" stroke-miterlimit="2" stroke-width="1.0746"/>
  <path d="m234.31-229.9c-0.48958 0.86374-1.5752 1.16-2.4231 0.66134s-1.1389-1.6044-0.64929-2.4682 2.606-0.45204 3.3461-2.2897c0.84799 0.49867 0.21588 3.2328-0.27371 4.0965z" fill="url(#b)" opacity=".46111"/>
  <path d="m233.02-229c-4.6146-1.0738 0.23748-4.7194 0.97763-3.9215-3.5824 1.3704-0.97763 3.9215-0.97763 3.9215z" fill="url(#c)"/>
 </g>
 <g transform="matrix(.99967 0 0 1 -286.85 245)">
  <path d="m311.5-243c-2.7724 0-5.1082 1.5737-6.4062 3.8125-0.94436-0.47504-1.9652-0.8125-3.0938-0.8125-3.864 0-7 3.136-7 7s3.136 7 7 7c2.4197 0 4.4301-1.3193 5.6875-3.1875 1.1342 0.68962 2.389 1.1875 3.8125 1.1875 0.91312 0 1.753-0.23202 2.5625-0.53125 0.50994 0.86773 1.1791 1.5797 2 2.1562-0.00724 0.13038-0.0625 0.24282-0.0625 0.375 0 3.864 3.136 7 7 7s7-3.136 7-7c0-2.3697-1.259-4.3583-3.0625-5.625 0.00724-0.13038 0.0625-0.24282 0.0625-0.375 0-3.864-3.136-7-7-7-0.6227 0-1.1752 0.22219-1.75 0.375-1.1945-2.5588-3.7413-4.375-6.75-4.375z" fill="#555753"/>
  <path d="m311.5-242c-2.7805 0-5.1345 1.7618-6.0625 4.2188-0.98542-0.70944-2.1314-1.2188-3.4375-1.2188-3.312 0-6 2.688-6 6s2.688 6 6 6c2.4278 0 4.4932-1.4556 5.4375-3.5312 1.1208 0.91756 2.5021 1.5312 4.0625 1.5312 1.0745 0 2.0443-0.31896 2.9375-0.78125 0.3984 0.99976 1.1011 1.7863 1.9375 2.4375-0.18001 0.59562-0.375 1.1896-0.375 1.8438 0 3.588 2.912 6.5 6.5 6.5s6.5-2.912 6.5-6.5c0-2.3608-1.3343-4.3302-3.2188-5.4688 0.06259-0.34723 0.21875-0.66608 0.21875-1.0312 0-3.312-2.688-6-6-6-0.85298 0-1.6713 0.17868-2.4062 0.5-0.85377-2.5939-3.2152-4.5-6.0938-4.5z" fill="url(#o)"/>
  <path transform="matrix(.96445 0 0 .96445 89.289 144.53)" d="m248.55-383.67a6.7396 6.7396 0 1 1 -13.479 0 6.7396 6.7396 0 1 1 13.479 0z" fill="#888a85"/>
  <path transform="matrix(.88263 0 0 .88263 96.181 108.11)" d="m250.18-389.3a6.2314 6.2314 0 1 1 -12.463 0 6.2314 6.2314 0 1 1 12.463 0z" fill="#888a85"/>
  <path transform="matrix(.88263 0 0 .88263 96.181 108.11)" d="m250.18-389.3a6.2314 6.2314 0 1 1 -12.463 0 6.2314 6.2314 0 1 1 12.463 0z" fill="url(#n)" opacity=".49444"/>
  <path transform="matrix(.91173 0 0 .91173 90.454 120.23)" d="m257.25-385.79a6.0325 6.0325 0 1 1 -12.065 0 6.0325 6.0325 0 1 1 12.065 0z" fill="#888a85"/>
  <path transform="matrix(.91173 0 0 .91173 90.454 120.23)" d="m257.25-385.79a6.0325 6.0325 0 1 1 -12.065 0 6.0325 6.0325 0 1 1 12.065 0z" fill="url(#m)" opacity=".49444"/>
  <path transform="matrix(1.1428 0 0 1.1428 35.232 210.28)" d="m237.81-387.89a4.3752 4.3752 0 1 1 -8.7504 0 4.3752 4.3752 0 1 1 8.7504 0z" fill="#888a85"/>
  <path transform="matrix(1.1428 0 0 1.1428 35.232 210.28)" d="m237.81-387.89a4.3752 4.3752 0 1 1 -8.7504 0 4.3752 4.3752 0 1 1 8.7504 0z" fill="url(#l)" opacity=".49444"/>
  <path transform="matrix(1.0386 0 0 1.0386 59.849 169.49)" d="m248.55-383.67a6.7396 6.7396 0 1 1 -13.479 0 6.7396 6.7396 0 1 1 13.479 0z" fill="#888a85"/>
  <path transform="matrix(1.0386 0 0 1.0386 59.849 169.49)" d="m248.55-383.67a6.7396 6.7396 0 1 1 -13.479 0 6.7396 6.7396 0 1 1 13.479 0z" fill="url(#k)" opacity=".49444"/>
  <g transform="translate(72 7.9999)">
   <path d="m246.5-238.5c-2.2708 0-4.1099 1.5503-4.7188 3.625-0.69323-0.36383-1.4445-0.625-2.2812-0.625-2.76 0-5 2.24-5 5 0 0.57893 0.16252 1.1077 0.34375 1.625-1.3735 0.77074-2.3438 2.189-2.3438 3.875 0 2.484 2.016 4.5 4.5 4.5h19c2.484 0 4.5-2.016 4.5-4.5 0-1.686-0.97028-3.1043-2.3438-3.875 0.18124-0.51729 0.34375-1.0461 0.34375-1.625 0-2.76-2.24-5-5-5-0.83674 0-1.588 0.26117-2.2812 0.625-0.60884-2.0747-2.4479-3.625-4.7188-3.625z" fill="#888a85" stroke="#555753" stroke-miterlimit="2" stroke-width="1.0002"/>
   <path d="m246.5-238c-2.1897 0-3.7236 1.3358-4.3956 3.8435-0.66846-0.34362-1.5476-0.83335-2.3544-0.83335-2.7165 0-4.7551 1.9388-4.7551 4.5455 0 0.54677 0.26721 1.3334 0.44196 1.822-1.3244 0.72795-2.4368 1.8905-2.4368 3.3726 0 2.346 1.5462 4.2501 4.3393 4.2501h18.321c2.771 0 4.3393-1.904 4.3393-4.2501 0-1.5924-1.1124-2.6667-2.4368-3.3946 0.17476-0.48856 0.46407-1.2532 0.46407-1.7999 0-2.6067-2.1158-4.5676-4.7772-4.5676-0.80687 0-1.6418 0.48974-2.3103 0.83336-0.64885-2.4215-2.25-3.8214-4.4397-3.8214z" fill="url(#j)"/>
   <path transform="matrix(1.0566 0 0 1.0566 -58.198 228.86)" d="m291.69-437.59a3.3125 3.3125 0 1 1 -6.625 0 3.3125 3.3125 0 1 1 6.625 0z" fill="#888a85"/>
   <path transform="matrix(1.0566 0 0 1.0566 -58.198 228.86)" d="m291.69-437.59a3.3125 3.3125 0 1 1 -6.625 0 3.3125 3.3125 0 1 1 6.625 0z" fill="url(#i)" opacity=".47778"/>
   <path d="m237-231h20v9h-20z" fill="#888a85"/>
   <path transform="matrix(.90566 0 0 .90566 -24.17 171.31)" d="m291.69-437.59a3.3125 3.3125 0 1 1 -6.625 0 3.3125 3.3125 0 1 1 6.625 0z" fill="#888a85"/>
   <path transform="matrix(1.0566 0 0 1.0566 -51.198 231.86)" d="m291.69-437.59a3.3125 3.3125 0 1 1 -6.625 0 3.3125 3.3125 0 1 1 6.625 0z" fill="#888a85"/>
   <path transform="matrix(1.0566 0 0 1.0566 -51.198 231.86)" d="m291.69-437.59a3.3125 3.3125 0 1 1 -6.625 0 3.3125 3.3125 0 1 1 6.625 0z" fill="url(#h)" opacity=".47778"/>
   <path transform="matrix(1.0566 0 0 1.0566 -65.198 231.86)" d="m291.69-437.59a3.3125 3.3125 0 1 1 -6.625 0 3.3125 3.3125 0 1 1 6.625 0z" fill="#888a85"/>
   <path transform="matrix(1.0566 0 0 1.0566 -65.198 231.86)" d="m291.69-437.59a3.3125 3.3125 0 1 1 -6.625 0 3.3125 3.3125 0 1 1 6.625 0z" fill="url(#g)" opacity=".47778"/>
   <path d="m245.47-233.97c-3.5794 0-6.4688 2.9206-6.4688 6.5 0 2.3707 1.3494 4.3378 3.25 5.4688h6.4688c1.9006-1.131 3.25-3.1293 3.25-5.5 0-3.5794-2.9206-6.4688-6.5-6.4688z" fill="#888a85"/>
   <path d="m245.5-234c-3.588 0-6.5 2.912-6.5 6.5 0 2.3764 1.3448 4.3663 3.25 5.5h6.5c1.9052-1.1337 3.25-3.1236 3.25-5.5 0-3.588-2.912-6.5-6.5-6.5z" fill="url(#f)" opacity=".47778"/>
   <path transform="matrix(.90566 0 0 .90566 -24.17 171.31)" d="m291.69-437.59a3.3125 3.3125 0 1 1 -6.625 0 3.3125 3.3125 0 1 1 6.625 0z" fill="url(#e)" opacity=".47778"/>
   <path d="m258.96-230.33c-0.00153 2.6846-3.2693 3.714-3.2693 3.714s2.3487-1.626 2.3368-3.705l0.93241-0.00894z" fill="#555753" fill-rule="evenodd"/>
   <path transform="matrix(1.2076 0 0 1.2076 -98.227 302.42)" d="m291.69-437.59a3.3125 3.3125 0 1 1 -6.625 0 3.3125 3.3125 0 1 1 6.625 0z" fill="#888a85"/>
   <path transform="matrix(1.2076 0 0 1.2076 -98.227 302.42)" d="m291.69-437.59a3.3125 3.3125 0 1 1 -6.625 0 3.3125 3.3125 0 1 1 6.625 0z" fill="url(#d)" opacity=".47778"/>
  </g>
  <g transform="translate(56.986 3.9839)">
   <path d="m246.5-238.5c-2.2708 0-4.1099 1.5503-4.7188 3.625-0.69323-0.36383-1.4445-0.625-2.2812-0.625-2.76 0-5 2.24-5 5 0 0.57893 0.16252 1.1077 0.34375 1.625-1.3735 0.77074-2.3438 2.189-2.3438 3.875 0 2.484 2.016 4.5 4.5 4.5h19c2.484 0 4.5-2.016 4.5-4.5 0-1.686-0.97028-3.1043-2.3438-3.875 0.18124-0.51729 0.34375-1.0461 0.34375-1.625 0-2.76-2.24-5-5-5-0.83674 0-1.588 0.26117-2.2812 0.625-0.60884-2.0747-2.4479-3.625-4.7188-3.625z" fill="#888a85" stroke="#555753" stroke-miterlimit="2" stroke-width="1.0002"/>
   <path d="m246.5-238c-2.1897 0-3.7236 1.3358-4.3956 3.8435-0.66846-0.34362-1.5476-0.83335-2.3544-0.83335-2.7165 0-4.7551 1.9388-4.7551 4.5455 0 0.54677 0.26721 1.3334 0.44196 1.822-1.3244 0.72795-2.4368 1.8905-2.4368 3.3726 0 2.346 1.5462 4.2501 4.3393 4.2501h18.321c2.771 0 4.3393-1.904 4.3393-4.2501 0-1.5924-1.1124-2.6667-2.4368-3.3946 0.17476-0.48856 0.46407-1.2532 0.46407-1.7999 0-2.6067-2.1158-4.5676-4.7772-4.5676-0.80687 0-1.6418 0.48974-2.3103 0.83336-0.64885-2.4215-2.25-3.8214-4.4397-3.8214z" fill="url(#j)"/>
   <path transform="matrix(1.0566 0 0 1.0566 -58.198 228.86)" d="m291.69-437.59a3.3125 3.3125 0 1 1 -6.625 0 3.3125 3.3125 0 1 1 6.625 0z" fill="#888a85"/>
   <path transform="matrix(1.0566 0 0 1.0566 -58.198 228.86)" d="m291.69-437.59a3.3125 3.3125 0 1 1 -6.625 0 3.3125 3.3125 0 1 1 6.625 0z" fill="url(#i)" opacity=".47778"/>
   <path d="m237-231h20v9h-20z" fill="#888a85"/>
   <path transform="matrix(.90566 0 0 .90566 -24.17 171.31)" d="m291.69-437.59a3.3125 3.3125 0 1 1 -6.625 0 3.3125 3.3125 0 1 1 6.625 0z" fill="#888a85"/>
   <path transform="matrix(1.0566 0 0 1.0566 -51.198 231.86)" d="m291.69-437.59a3.3125 3.3125 0 1 1 -6.625 0 3.3125 3.3125 0 1 1 6.625 0z" fill="#888a85"/>
   <path transform="matrix(1.0566 0 0 1.0566 -51.198 231.86)" d="m291.69-437.59a3.3125 3.3125 0 1 1 -6.625 0 3.3125 3.3125 0 1 1 6.625 0z" fill="url(#h)" opacity=".47778"/>
   <path transform="matrix(1.0566 0 0 1.0566 -65.198 231.86)" d="m291.69-437.59a3.3125 3.3125 0 1 1 -6.625 0 3.3125 3.3125 0 1 1 6.625 0z" fill="#888a85"/>
   <path transform="matrix(1.0566 0 0 1.0566 -65.198 231.86)" d="m291.69-437.59a3.3125 3.3125 0 1 1 -6.625 0 3.3125 3.3125 0 1 1 6.625 0z" fill="url(#g)" opacity=".47778"/>
   <path d="m245.47-233.97c-3.5794 0-6.4688 2.9206-6.4688 6.5 0 2.3707 1.3494 4.3378 3.25 5.4688h6.4688c1.9006-1.131 3.25-3.1293 3.25-5.5 0-3.5794-2.9206-6.4688-6.5-6.4688z" fill="#888a85"/>
   <path d="m245.5-234c-3.588 0-6.5 2.912-6.5 6.5 0 2.3764 1.3448 4.3663 3.25 5.5h6.5c1.9052-1.1337 3.25-3.1236 3.25-5.5 0-3.588-2.912-6.5-6.5-6.5z" fill="url(#f)" opacity=".47778"/>
   <path transform="matrix(.90566 0 0 .90566 -24.17 171.31)" d="m291.69-437.59a3.3125 3.3125 0 1 1 -6.625 0 3.3125 3.3125 0 1 1 6.625 0z" fill="url(#e)" opacity=".47778"/>
   <path d="m258.96-230.33c-0.00153 2.6846-3.2693 3.714-3.2693 3.714s2.3487-1.626 2.3368-3.705l0.93241-0.00894z" fill="#555753" fill-rule="evenodd"/>
   <path transform="matrix(1.2076 0 0 1.2076 -98.227 302.42)" d="m291.69-437.59a3.3125 3.3125 0 1 1 -6.625 0 3.3125 3.3125 0 1 1 6.625 0z" fill="#888a85"/>
   <path transform="matrix(1.2076 0 0 1.2076 -98.227 302.42)" d="m291.69-437.59a3.3125 3.3125 0 1 1 -6.625 0 3.3125 3.3125 0 1 1 6.625 0z" fill="url(#d)" opacity=".47778"/>
  </g>
 </g>
 <g transform="translate(-222.95 261.01)">
  <path d="m231.63-228.77c-1.0392-0.59579-1.3957-1.9169-0.79571-2.9488 1.3315-2.0828 3.1051-1.5462 4.0122-3.7417 1.2609 1.3336 0.79314 8.2477-3.2164 6.6905z" fill="#729fcf" stroke="#204a87" stroke-miterlimit="2" stroke-width="1.0746"/>
  <path d="m234.31-229.9c-0.48958 0.86374-1.5752 1.16-2.4231 0.66134s-1.1389-1.6044-0.64929-2.4682 2.606-0.45204 3.3461-2.2897c0.84799 0.49867 0.21588 3.2328-0.27371 4.0965z" fill="url(#b)" opacity=".46111"/>
  <path d="m233.02-229c-4.6146-1.0738 0.23748-4.7194 0.97763-3.9215-3.5824 1.3704-0.97763 3.9215-0.97763 3.9215z" fill="url(#c)"/>
 </g>
 <g transform="translate(-193.96 268.01)">
  <path d="m231.63-228.77c-1.0392-0.59579-1.3957-1.9169-0.79571-2.9488 1.3315-2.0828 3.1051-1.5462 4.0122-3.7417 1.2609 1.3336 0.79314 8.2477-3.2164 6.6905z" fill="#729fcf" stroke="#204a87" stroke-miterlimit="2" stroke-width="1.0746"/>
  <path d="m234.31-229.9c-0.48958 0.86374-1.5752 1.16-2.4231 0.66134s-1.1389-1.6044-0.64929-2.4682 2.606-0.45204 3.3461-2.2897c0.84799 0.49867 0.21588 3.2328-0.27371 4.0965z" fill="url(#b)" opacity=".46111"/>
  <path d="m233.02-229c-4.6146-1.0738 0.23748-4.7194 0.97763-3.9215-3.5824 1.3704-0.97763 3.9215-0.97763 3.9215z" fill="url(#c)"/>
 </g>
 <g transform="translate(-224.96 271.01)">
  <path d="m231.63-228.77c-1.0392-0.59579-1.3957-1.9169-0.79571-2.9488 1.3315-2.0828 3.1051-1.5462 4.0122-3.7417 1.2609 1.3336 0.79314 8.2477-3.2164 6.6905z" fill="#729fcf" stroke="#204a87" stroke-miterlimit="2" stroke-width="1.0746"/>
  <path d="m234.31-229.9c-0.48958 0.86374-1.5752 1.16-2.4231 0.66134s-1.1389-1.6044-0.64929-2.4682 2.606-0.45204 3.3461-2.2897c0.84799 0.49867 0.21588 3.2328-0.27371 4.0965z" fill="url(#b)" opacity=".46111"/>
  <path d="m233.02-229c-4.6146-1.0738 0.23748-4.7194 0.97763-3.9215-3.5824 1.3704-0.97763 3.9215-0.97763 3.9215z" fill="url(#c)"/>
 </g>
 <g transform="translate(-214.96 266.01)">
  <path d="m231.63-228.77c-1.0392-0.59579-1.3957-1.9169-0.79571-2.9488 1.3315-2.0828 3.1051-1.5462 4.0122-3.7417 1.2609 1.3336 0.79314 8.2477-3.2164 6.6905z" fill="#729fcf" stroke="#204a87" stroke-miterlimit="2" stroke-width="1.0746"/>
  <path d="m234.31-229.9c-0.48958 0.86374-1.5752 1.16-2.4231 0.66134s-1.1389-1.6044-0.64929-2.4682 2.606-0.45204 3.3461-2.2897c0.84799 0.49867 0.21588 3.2328-0.27371 4.0965z" fill="url(#b)" opacity=".46111"/>
  <path d="m233.02-229c-4.6146-1.0738 0.23748-4.7194 0.97763-3.9215-3.5824 1.3704-0.97763 3.9215-0.97763 3.9215z" fill="url(#c)"/>
 </g>
 <g transform="translate(-200.96 261.01)">
  <path d="m231.63-228.77c-1.0392-0.59579-1.3957-1.9169-0.79571-2.9488 1.3315-2.0828 3.1051-1.5462 4.0122-3.7417 1.2609 1.3336 0.79314 8.2477-3.2164 6.6905z" fill="#729fcf" stroke="#204a87" stroke-miterlimit="2" stroke-width="1.0746"/>
  <path d="m234.31-229.9c-0.48958 0.86374-1.5752 1.16-2.4231 0.66134s-1.1389-1.6044-0.64929-2.4682 2.606-0.45204 3.3461-2.2897c0.84799 0.49867 0.21588 3.2328-0.27371 4.0965z" fill="url(#b)" opacity=".46111"/>
  <path d="m233.02-229c-4.6146-1.0738 0.23748-4.7194 0.97763-3.9215-3.5824 1.3704-0.97763 3.9215-0.97763 3.9215z" fill="url(#c)"/>
 </g>
</svg>
