<?xml version="1.0" encoding="UTF-8"?>
<!DOCTYPE svg  PUBLIC '-//W3C//DTD SVG 1.1//EN'  'http://www.w3.org/Graphics/SVG/1.1/DTD/svg11.dtd'>
<svg enable-background="new 0 0 595.28 841.89" version="1.1" viewBox="0 0 595.28 841.89" xml:space="preserve" xmlns="http://www.w3.org/2000/svg">
	<circle cx="297.26" cy="420.94" r="150" fill="#8B0304"/>
	<path d="m297.82 270.95v299.99c82.587-0.3 149.44-67.335 149.44-149.99 0-82.657-66.858-149.69-149.44-149.99z" fill="#A70E13"/>
			<path d="m234.76 372.77c0-10.58-3.853-19.796-9.551-24.633v27.332h-5.399v-30.372c-1.208-0.371-2.458-0.566-3.738-0.566-1.428 0-2.816 0.25-4.153 0.708v30.23h-5.398v-26.971c-5.47 4.926-9.136 13.951-9.136 24.272 0 12.294 5.201 22.749 12.458 26.626v91.73c0 3.441 2.789 6.23 6.229 6.23s6.229-2.789 6.229-6.23v-91.73c7.258-3.877 12.459-14.332 12.459-26.626z" fill="#D1D3D4"/>
			<path d="m397.14 372.77c0-15.597-8.368-28.239-18.688-28.239-10.321 0-18.688 12.643-18.688 28.239 0 12.294 5.202 22.749 12.46 26.626v91.73c0 3.441 2.789 6.23 6.229 6.23s6.229-2.789 6.229-6.23v-91.73c7.255-3.877 12.458-14.332 12.458-26.626z" fill="#D1D3D4"/>
			<circle cx="297.68" cy="424.06" r="49.973" fill="#F1F2F2"/>
			<path d="m297.68 486.49c-34.425 0-62.432-28.006-62.432-62.431 0-34.426 28.007-62.433 62.432-62.433s62.433 28.006 62.433 62.433c-1e-3 34.425-28.008 62.431-62.433 62.431zm0-99.946c-20.685 0-37.515 16.829-37.515 37.516 0 20.686 16.83 37.515 37.515 37.515 20.686 0 37.516-16.829 37.516-37.515-1e-3 -20.687-16.831-37.516-37.516-37.516z" fill="#D1D3D4"/>
			<path d="m211.92 345.24v30.23h-5.398v-26.971c-5.47 4.926-9.136 13.951-9.136 24.272 0 12.294 5.201 22.749 12.458 26.626v91.73c0 3.441 2.789 6.23 6.229 6.23v-152.82c-1.428 0-2.817 0.249-4.153 0.708z" fill="#BCBEC0"/>
			<path d="m359.76 372.77c0 12.294 5.202 22.749 12.46 26.626v91.73c0 3.441 2.789 6.23 6.229 6.23v-152.82c-10.322 0-18.689 12.642-18.689 28.239z" fill="#BCBEC0"/>
			<path d="m247.7 424.06c0 27.599 22.374 49.974 49.973 49.974v-99.948c-27.599-1e-3 -49.973 22.373-49.973 49.974z" fill="#E6E7E8"/>
			<path d="m260.16 424.06c0-20.687 16.83-37.516 37.515-37.516v-24.917c-34.425 0-62.432 28.006-62.432 62.433 0 34.425 28.007 62.431 62.432 62.431v-24.916c-20.685-1e-3 -37.515-16.83-37.515-37.515z" fill="#BCBEC0"/>
</svg>
