<?xml version="1.0" encoding="utf-8"?>
<!-- Generator: Adobe Illustrator 21.1.0, SVG Export Plug-In . SVG Version: 6.00 Build 0)  -->
<svg version="1.1" id="Capa_1" xmlns="http://www.w3.org/2000/svg" xmlns:xlink="http://www.w3.org/1999/xlink" x="0px" y="0px"
	 viewBox="0 0 504 504" style="enable-background:new 0 0 504 504;" xml:space="preserve">
<style type="text/css">
	.st0{fill:#BC9E6C;}
	.st1{fill:#3C2C17;}
	.st2{fill:#F7EC45;}
</style>
<g>
	<path class="st0" d="M535.5,382.9c0,147.3-129,243.5-288.1,243.5c-159.1,0-288.1-96.3-288.1-243.5c0-56.9,20.2-112.2,56.1-156.3
		c17.8-21.9,39.2-40.9,62.9-56.3c24.7-16.2,54.6-24.4,80.6-38.4c5.5-3,11.3-6.1,15-11.1c5.9-8,5.5-19.5,1.1-28.5
		c-4.4-9-12.1-15.9-20-21.9c-16.3-12.4-35.8-19.2-53.7-28.8C77.5,28.9,62.5-22.3,97.8-30c4.8-1,9.6-2.1,14.5-2
		c7.8,0.1,15.5,3.3,21.1,8.6c3-6.6,6.3-13.3,11.4-18.5c21.7-22.2,60.1,6,80.1,17.3c-4-2.3,15.8-21.5,18.2-22.9
		c10.6-6.1,22.9-6.5,34.6-2.4c11.5,4,24.7,27.3,34.5,29c19.1,3.2,29.7-21.7,46.1-26.7c21.3-6.5,44.8,8.8,45.1,31.5
		c0.4,27.4-20.4,52.3-40.5,68.5c-11.9,9.5-22.3,20.9-30.8,33.6c-3,4.5-5.9,9.5-5.9,15c0,3.2,0.9,6.3,2,9.3
		c11.3,30.1,38.7,34.1,64.6,46.3c28.5,13.4,54.8,34.9,76.1,58C511.1,260.2,535.5,320.4,535.5,382.9z"/>
	<path class="st0" d="M247.4,627.6c-167.7,0-289.4-102.9-289.4-244.8c0-56.7,20-112.4,56.3-157.1c17.7-21.7,38.9-40.7,63.1-56.6
		c14.4-9.4,30.8-16.2,46.6-22.9c11.4-4.8,23.3-9.7,34.2-15.6c5.1-2.8,10.9-5.9,14.6-10.8c5.2-7.1,5.6-17.7,1-27.2
		c-4.5-9.2-12.5-16-19.7-21.5c-10.8-8.2-23.2-14-35.2-19.7c-6-2.8-12.3-5.8-18.3-9C85.1,34.4,73.4,10.1,76-8.2
		c1.7-12.2,9.4-20.4,21.5-23c4.5-1,9.7-2.1,14.8-2c7.5,0.1,14.9,3,20.7,7.8c2.8-6.1,6-12.4,10.9-17.4c19.7-20.1,52-0.6,73.4,12.2
		c2.2,1.3,4.2,2.5,6.1,3.7c2.1-6.3,17.2-20.5,19.1-21.6c10.4-6,23.1-6.9,35.6-2.5c6,2.1,12.1,8.9,18.1,15.4
		c5.7,6.3,11.6,12.7,16.2,13.5c10.6,1.8,18.4-5.6,26.6-13.4c5.8-5.5,11.8-11.1,18.8-13.3c10.9-3.3,23-1.2,32.4,5.6
		c8.9,6.5,14.1,16.4,14.3,27c0.5,32.6-28.5,59.4-41,69.4c-11.8,9.5-22.1,20.7-30.5,33.3c-3,4.4-5.7,9.2-5.7,14.3c0,3.1,1,6.2,2,8.8
		c8.7,23.1,27.5,30.6,47.3,38.5c5.5,2.2,11.1,4.4,16.6,7c33.3,15.6,59.9,40.3,76.5,58.2c43.2,46.9,67,107,67,169.4
		C536.8,524.7,415.1,627.6,247.4,627.6z M111.6-30.8c-4.6,0-9.2,1-13.6,2C83.8-25.7,79.5-15.7,78.4-7.9C76,9.6,87.1,32.6,101.7,40.5
		c5.9,3.2,12.2,6.1,18.2,8.9c12.1,5.7,24.7,11.6,35.7,19.9C163,75,171.3,82.1,176,91.7c5,10.3,4.6,22-1.2,29.8
		c-4,5.4-10,8.6-15.4,11.5c-11,5.9-22.9,10.9-34.4,15.7c-15.7,6.6-31.9,13.4-46.2,22.6c-24,15.7-45.1,34.5-62.6,56
		c-36,44.2-55.8,99.4-55.8,155.5c0,140.4,120.6,242.3,286.9,242.3s286.9-101.9,286.9-242.3c0-61.7-23.5-121.3-66.3-167.7
		c-16.4-17.8-42.8-42.2-75.7-57.7c-5.5-2.6-11.1-4.8-16.5-7c-20.4-8.1-39.7-15.8-48.7-40c-1.1-2.8-2.2-6.2-2.1-9.7
		c0-5.7,3-10.9,6.1-15.6c8.6-12.8,19-24.2,31-33.9c12.2-9.8,40.6-36,40.1-67.5c-0.1-9.9-5-19-13.3-25.1c-8.8-6.4-20.1-8.4-30.3-5.3
		c-6.5,2-12.3,7.4-17.9,12.7c-8.3,7.9-17,16-28.8,14.1c-5.4-0.9-11.3-7.4-17.6-14.3c-5.8-6.3-11.8-12.9-17.1-14.8
		c-11.9-4.2-23.8-3.3-33.6,2.3c-3.2,1.8-18.8,18.1-18.1,20.9l-1.3,2c-2.5-1.4-5.3-3.1-8.3-4.9c-20.7-12.5-52-31.3-70.3-12.6
		c-5,5.1-8.2,11.8-11.1,18.2l-0.7,1.6l-1.3-1.2c-5.4-5.1-12.8-8.1-20.3-8.2C112-30.8,111.8-30.8,111.6-30.8z"/>
</g>
<path class="st1" d="M345.3,253.3c-17.5-36.4-67.8-45.1-103.2-34.4c-40.1,12-68.1,54.9-49,95.3c8.5,18,22.7,34.8,39.9,44.9
	c14.9,8.8,31.8,12.5,47.5,19.2c14.5,6.2,26.7,16,30.2,32c2.9,13.2,0,28.2-8.5,38.9c-13,16.2-38.1,18.4-57.3,16.9
	c-18-1.5-35.7-8.3-43.6-25.3c-10.1-21.7-42.1-2.8-32.1,18.8c16.1,34.6,58.7,46.4,94,43.7c40-3,76.4-24.7,84-66.5
	c6.8-37.2-10.9-72.4-45.1-89c-15.4-7.5-32.6-10.9-47.6-19c-13.9-7.5-31.3-25.4-30.8-42.2c1.2-40.3,73.7-47.2,89.4-14.4
	C323.5,293.6,355.6,274.8,345.3,253.3L345.3,253.3z"/>
<path class="st1" d="M231,202.2c0.4,90.9,0.8,181.7,1.2,272.6c0.1,13.1,0.1,26.2,0.2,39.4c0.1,11.9,18.6,12,18.6,0
	c-0.4-90.9-0.8-181.7-1.2-272.6c-0.1-13.1-0.1-26.2-0.2-39.4C249.5,190.2,230.9,190.2,231,202.2L231,202.2z"/>
<path class="st1" d="M264.4,202.1c0.4,90.9,0.8,181.7,1.2,272.6c0.1,13.1,0.1,26.2,0.2,39.4c0.1,11.9,18.6,12,18.6,0
	c-0.4-90.9-0.8-181.7-1.2-272.6c-0.1-13.1-0.1-26.2-0.2-39.4C282.9,190.2,264.3,190.2,264.4,202.1L264.4,202.1z"/>
<path class="st1" d="M340.7,114.7c-58,1.1-115.9,0.8-173.9-1c2.7,4.7,5.3,9.3,8,14c6.4-9.1,24.1-9.1,33.9-10.6
	c14.6-2.2,29.3-4.2,44.1-5.4c28.7-2.4,57.3-1.9,85.5,4.4c5.8,1.3,11.8-2.7,11.8-9c-0.2-26.3-25.3-33-47-33.6
	c-30.9-0.8-61.9,0.7-92.7,3.4c-17.5,1.5-53.5-1-56.5,23.5c-1.8,15,21.6,25,33.8,20.1c11-4.4,6.2-22.3-4.9-17.9
	c-2.3,0.9-7.9-0.7-9.8-2.2c-3.1-1.3-2.6-1.7,1.5-1.3c2.6,0,5.1-0.3,7.6-0.8c3.2-0.3,6.3-0.7,9.5-1c16.6-1.7,33.2-3.1,49.8-4
	c15.8-0.9,31.7-1.4,47.5-1.3c12.3,0,42.6-3.7,42.7,15.2c3.9-3,7.8-6,11.8-9c-34.4-7.7-69.5-7.6-104.4-3.7
	c-16.3,1.8-32.7,4.1-48.9,6.8c-12.8,2.2-23.4,6.1-31.1,17c-4.3,6,1.5,13.8,8,14c58,1.8,115.9,2.1,173.9,1
	C352.7,133.1,352.7,114.5,340.7,114.7L340.7,114.7z"/>
<path class="st2" d="M246.4-88c-1.7-31.9-3.5-63.7-5.2-95.6c-0.4-7-11.2-7-10.9,0c1.7,31.9,3.5,63.7,5.2,95.6
	C235.9-81,246.7-81,246.4-88L246.4-88z"/>
<path class="st2" d="M79.6-64C54-83.1,28.5-102.2,2.9-121.3c-5.6-4.2-11,5.2-5.5,9.4C23-92.8,48.6-73.7,74.1-54.6
	C79.7-50.5,85.1-59.9,79.6-64L79.6-64z"/>
<g>
	<g>
		<path class="st2" d="M402.4-71.1c22.9-22.3,45.7-44.5,68.6-66.8c3.5-3.4-1.8-8.7-5.3-5.3c-22.9,22.3-45.7,44.5-68.6,66.8
			C393.6-73,398.9-67.7,402.4-71.1L402.4-71.1z"/>
	</g>
</g>
<path class="st2" d="M-72.6,313.5c-31.4-5.7-62.8-11.4-94.2-17.1c-6.8-1.2-9.8,9.2-2.9,10.5c31.4,5.7,62.8,11.4,94.2,17.1
	C-68.6,325.2-65.7,314.7-72.6,313.5L-72.6,313.5z"/>
<path class="st2" d="M-88.1,481.1c-24.5,20.4-49,40.9-73.5,61.3c-5.4,4.5,2.3,12.1,7.7,7.7c24.5-20.4,49-40.9,73.5-61.3
	C-75,484.3-82.7,476.7-88.1,481.1L-88.1,481.1z"/>
<path class="st2" d="M-13.3,159.4c-20.4-24.5-40.9-49-61.3-73.5c-4.5-5.4-12.1,2.3-7.7,7.7c20.4,24.5,40.9,49,61.3,73.5
	C-16.5,172.4-8.8,164.7-13.3,159.4L-13.3,159.4z"/>
<path class="st2" d="M579.6,373.9c31.4-5.7,62.8-11.4,94.2-17.1c6.9-1.3,4-11.7-2.9-10.5c-31.4,5.7-62.8,11.4-94.2,17.1
	C569.8,364.7,572.7,375.2,579.6,373.9L579.6,373.9z"/>
<path class="st2" d="M584.5,538.8c24.5,20.4,49,40.9,73.5,61.3c5.3,4.4,13.1-3.2,7.7-7.7c-24.5-20.4-49-40.9-73.5-61.3
	C586.9,526.6,579.1,534.3,584.5,538.8L584.5,538.8z"/>
<path class="st2" d="M525.1,217c20.4-24.5,40.9-49,61.3-73.5c4.4-5.3-3.2-13.1-7.7-7.7c-20.4,24.5-40.9,49-61.3,73.5
	C513,214.7,520.6,222.4,525.1,217L525.1,217z"/>
</svg>
