<?xml version="1.0" encoding="UTF-8"?>
<!DOCTYPE svg  PUBLIC '-//W3C//DTD SVG 1.1//EN'  'http://www.w3.org/Graphics/SVG/1.1/DTD/svg11.dtd'>
<svg enable-background="new 0 0 93.05 89.85" version="1.1" viewBox="0 0 93.05 89.85" xml:space="preserve" xmlns="http://www.w3.org/2000/svg" xmlns:xlink="http://www.w3.org/1999/xlink">
<symbol id="w" viewBox="0 -50.85 55.6 50.85">
			<linearGradient id="n" x1="16161" x2="16301" y1="-28.742" y2="-28.742" gradientTransform="matrix(7.1023e-6 1 -1 -.001 -1.0576 -16301)" gradientUnits="userSpaceOnUse">
			<stop stop-opacity=".4157" offset="0"/>
			<stop stop-opacity="0" offset="1"/>
		</linearGradient>
		<polygon points="55.6 -50.85 0 -50.85 0 0 55.6 0" clip-rule="evenodd" fill="url(#n)" fill-rule="evenodd"/>
</symbol>
<symbol id="x">
</symbol>
			<linearGradient id="o" x1="-36.435" x2="145.94" y1="-47.2" y2="-47.2" gradientTransform="matrix(5.4832e-6 1 -1 -.001 -.00025566 -2.7731e-5)" gradientUnits="userSpaceOnUse">
			<stop stop-opacity=".749" offset="0"/>
			<stop stop-opacity=".1059" offset=".9333"/>
			<stop stop-opacity="0" offset="1"/>
		</linearGradient>
		<rect x="1.25" width="91.9" height="89.35" clip-rule="evenodd" fill="url(#o)" fill-rule="evenodd"/>
		<linearGradient id="p" x1="-55.75" x2="97.55" y1="86" y2="86" gradientUnits="userSpaceOnUse">
			<stop stop-color="#fff" stop-opacity=".5137" offset="0"/>
			<stop stop-color="#fff" stop-opacity=".1765" offset=".6549"/>
		</linearGradient>
		<polygon points="91.25 83 93.15 89.35 1.25 89.35 7.6 82.65" clip-rule="evenodd" fill="url(#p)" fill-rule="evenodd"/>
			<linearGradient id="q" x1="76.791" x2="146.32" y1="-46.599" y2="-46.599" gradientTransform="matrix(1.4383e-5 1 -1 -.001 -2.1009e-5 -2.7731e-5)" gradientUnits="userSpaceOnUse">
			<stop stop-color="#fff" stop-opacity=".5137" offset="0"/>
			<stop stop-color="#fff" stop-opacity=".1765" offset=".6549"/>
		</linearGradient>
		<rect x=".1" y="89.35" width="93" height="1.5" clip-rule="evenodd" fill="url(#q)" fill-rule="evenodd"/>
			<linearGradient id="r" x1="-19.385" x2="7.8902" y1="-47.199" y2="-47.199" gradientTransform="matrix(3.6664e-5 1 -1 -.001 -.0001717 -2.404e-5)" gradientUnits="userSpaceOnUse">
			<stop stop-opacity=".749" offset="0"/>
			<stop stop-opacity="0" offset="1"/>
		</linearGradient>
		<polygon points="93.15 0 90.2 5.1 7.45 5.1 1.25 0" clip-rule="evenodd" fill="url(#r)" fill-rule="evenodd"/>
		<rect x="7.35" y="4.1" width="82.75" height="77.55" clip-rule="evenodd" fill="#757575" fill-rule="evenodd"/>
		<path d="m62.3 47c6.833-4.233 13.2-8.533 19.101-12.9l-0.5 19.7 3-4.8c1 7.833 1.666 11.384 2 10.65 1.166-2.534 2.5-8.934 4-19.2v39.5h-79.501v-40l3 16 3.5-12.3 1.25 2.25c1.1 1.833 2.317 3.533 3.65 5.1 4.167 4.967 8.534 7.684 13.1 8.15 4.6 0.433 13.733-3.617 27.4-12.15z" clip-rule="evenodd" fill="#6F6F6F" fill-rule="evenodd"/>
		<path d="m85.75 75.25c2.652-0.746 4.103-1.479 4.35-2.2v8.601h-82.75v-8.601l0.65 0.85c0.9 0.699 2.467 1.333 4.7 1.899 7.1 1.8 19.55 2.601 37.35 2.4 17.433-0.166 29.333-1.149 35.7-2.949z" clip-rule="evenodd" fill="#616161" fill-rule="evenodd"/>
		<path d="m89.9 79.65h-79.5l3-6.7 5.4 3c3.833 1.967 6.367 2.8 7.6 2.5 2-0.467 5.667-1.851 11-4.15l0.75 2.101c1 1.366 2.75 2.05 5.25 2.05 2.1 0 5.733-0.45 10.9-1.351 5.167-0.933 8.533-1.4 10.1-1.4 2.1 0 4.767 0.366 8 1.1 1.767 0.4 3.933 0.95 6.5 1.65 1.267 0.3 2.732-0.867 4.399-3.5 0.833-1.334 1.533-2.684 2.101-4.05l4.5 8.75z" clip-rule="evenodd" fill="#616161" fill-rule="evenodd"/>
		<path d="m77.4 14.6c-1.233-0.567-2.733-1.15-4.5-1.75-3.5-1.167-6.5-1.75-9-1.75-4.5-0.067-8.15-0.083-10.95-0.05-5.033 0.067-9.55 0.417-13.55 1.05-3.733 0.6-8.1 0.617-13.1 0.05-6.5-0.7-10.133-1.05-10.9-1.05-2.7 0-4.383 1.517-5.05 4.55-0.112 0.504-0.195 1.004-0.25 1.5l-0.2-13.45h80.45l-0.45 16.4c-0.5-1.233-1.084-2.483-1.75-3.75-1.334-2.5-2.417-3.75-3.25-3.75-0.834 0-2.334 0.333-4.5 1l-3 1z" clip-rule="evenodd" fill="#6F6F6F" fill-rule="evenodd"/>
			<linearGradient id="s" x1="-210.75" x2="-6.6485" y1="48.726" y2="48.726" gradientTransform="matrix(4.8996e-6 -1 1 -.001 -.00012457 .00046055)" gradientUnits="userSpaceOnUse">
			<stop stop-opacity=".4784" offset="0"/>
			<stop stop-opacity="0" offset="1"/>
		</linearGradient>
		<rect x="7.35" y="4.1" width="82.75" height="77.55" clip-rule="evenodd" fill="url(#s)" fill-rule="evenodd"/>
		<rect x="7.25" y="3.65" width="3" height="77.35" clip-rule="evenodd" fill="#4D4D4D" fill-rule="evenodd"/>
			<rect x="17.5" y="12.7" width="63.15" height="60.35" clip-rule="evenodd" fill="#333" fill-rule="evenodd"/>
			<rect x="19.2" y="14.4" width="59.899" height="56.5" clip-rule="evenodd" fill="#595959" fill-rule="evenodd"/>
			<rect x="21.15" y="16.6" width="55.6" height="50.85" clip-rule="evenodd" fill="#737373" fill-rule="evenodd"/>
			<path d="m53.95 61.5c4 0.233 6.816 0.267 8.45 0.1 1.967-0.199 3.517-1.216 4.649-3.05 0.567-0.934 0.934-1.833 1.101-2.7l1 1.4c0.933 0.866 2.017 1.15 3.25 0.85 1.267-0.3 2.366-2.733 3.3-7.3l1.05-6.7v23.35h-55.35v-22.6l0.6 4.15c0.533 2.8 1.167 4.25 1.9 4.35 0.733 0.101 1.417-0.533 2.05-1.899l0.7-2.101 0.8 5.351c0.7 3.533 1.517 5.25 2.45 5.149 0.633-0.066 1.65-0.966 3.05-2.699 1.1-1.367 1.917-1.634 2.45-0.801 0.8 1.2 2.383 2.384 4.75 3.551 2.5 1.199 4.583 1.683 6.25 1.449 1.133-0.166 3.65-0.117 7.55 0.15z" clip-rule="evenodd" fill="#6B6B6B" fill-rule="evenodd"/>
			<path d="m76.6 17.3l-0.2 9.3-2.75-5.25-2.75 11.25c-0.167-6.833-0.584-10.583-1.25-11.25-0.634-0.633-3.801-0.3-9.5 1-1.033 0.233-3.467 0.05-7.301-0.55-4.199-0.633-7.433-0.867-9.7-0.7-2.667 0.2-5.033 1.083-7.1 2.65-1.833 1.733-3.133 2.85-3.9 3.35-0.733 0.5-1.35 0.133-1.85-1.1-0.667-1.6-1.55-2.483-2.65-2.65-1.367-0.2-2.816 2.117-4.35 6.95-0.767 2.4-1.4 4.833-1.9 7.3v-20l55.201-0.3z" clip-rule="evenodd" fill="#6E6E6E" fill-rule="evenodd"/>
			<path d="m76.75 60.15v7.199h-55.35v-8.5l0.85 2.351c0.8 1.633 1.767 2.616 2.9 2.95 1.167 0.366 1.9 0.133 2.2-0.7l0.05-1.35 3.05 1.051c2.433 0.699 4.583 1.1 6.45 1.199 8.833 0.5 14.75 0.667 17.75 0.5 1.933-0.1 4.75-0.133 8.449-0.1 1.9 0.033 4.084 0.066 6.551 0.1 1.166 0 3.534-1.567 7.1-4.7z" clip-rule="evenodd" fill="#636363" fill-rule="evenodd"/>
				<use transform="matrix(1 0 0 -1 21.15 16.6)" y="-50.85" width="55.6" height="50.85" enable-background="new" opacity=".75" xlink:href="#w"/>
			<rect x="20.6" y="16.3" width="56" height="1.15" clip-rule="evenodd" fill="#A3A3A3" fill-rule="evenodd"/>
			<polygon points="80.35 70.9 19 70.9 21.15 67.45 76.75 67.45" clip-rule="evenodd" fill="#424242" fill-rule="evenodd"/>
			<polygon points="76.6 16.3 20.6 16.3 19 14.4 79.35 14.4" clip-rule="evenodd" fill="#787878" fill-rule="evenodd"/>
		<g clip-rule="evenodd" fill-rule="evenodd">
			<path d="m67.6 43c0 4.833-1.732 8.967-5.199 12.4s-7.65 5.149-12.551 5.149c-4.866 0-9.033-1.717-12.5-5.149-3.467-3.434-5.2-7.567-5.2-12.4 0-4.867 1.733-9.017 5.2-12.45 3.466-3.433 7.633-5.15 12.5-5.15 4.9 0 9.084 1.717 12.551 5.15 3.466 3.433 5.199 7.583 5.199 12.45z" fill="#4A4A4A"/>
			<path d="m65.95 43.15c0 4.466-1.567 8.267-4.7 11.4-3.133 3.134-6.934 4.7-11.4 4.7-4.433 0-8.216-1.566-11.35-4.7-3.133-3.166-4.7-6.967-4.7-11.4s1.567-8.233 4.7-11.4c3.133-3.133 6.917-4.7 11.35-4.7 4.467 0 8.268 1.567 11.4 4.7 3.133 3.167 4.7 6.967 4.7 11.4z" fill="#969696"/>
			<path d="m63.85 43.15c0 4-1.366 7.417-4.1 10.25-2.767 2.833-6.1 4.25-10 4.25-3.867 0-7.184-1.417-9.95-4.25-2.767-2.834-4.15-6.25-4.15-10.25s1.383-7.417 4.15-10.25 6.083-4.25 9.95-4.25c3.9 0 7.233 1.417 10 4.25 2.733 2.833 4.1 6.25 4.1 10.25z" fill="#787878"/>
			<path d="m63.3 43.2c0 3.8-1.316 7.033-3.95 9.7-2.633 2.666-5.8 4-9.5 4-3.732 0-6.899-1.334-9.5-4-2.633-2.667-3.95-5.9-3.95-9.7 0-3.767 1.317-6.983 3.95-9.65 2.6-2.667 5.767-4 9.5-4 3.7 0 6.867 1.333 9.5 4s3.95 5.883 3.95 9.65z" fill="#404040"/>
			<path d="m62.6 43.25c0 3.566-1.25 6.6-3.75 9.1-2.467 2.534-5.467 3.801-9 3.801-3.5 0-6.483-1.267-8.95-3.801-2.5-2.5-3.75-5.533-3.75-9.1s1.25-6.6 3.75-9.1c2.467-2.533 5.45-3.8 8.95-3.8 3.533 0 6.533 1.267 9 3.8 2.5 2.5 3.75 5.533 3.75 9.1z"/>
				<path d="m60.6 43.3c0 3-1.033 5.566-3.1 7.7s-4.566 3.2-7.5 3.2-5.45-1.066-7.55-3.2c-2.067-2.134-3.1-4.7-3.1-7.7s1.033-5.55 3.1-7.65c2.1-2.133 4.616-3.2 7.55-3.2s5.434 1.066 7.5 3.2c2.066 2.1 3.1 4.65 3.1 7.65z" fill="#262626"/>
				<path d="m59.65 43.35c0 2.8-0.934 5.2-2.801 7.2-1.866 1.967-4.133 2.95-6.8 2.95s-4.95-0.983-6.85-2.95c-1.867-2-2.8-4.399-2.8-7.2 0-2.767 0.934-5.15 2.8-7.15 1.9-1.967 4.183-2.95 6.85-2.95 2.634 0 4.9 0.983 6.8 2.95 1.868 2 2.801 4.383 2.801 7.15z" fill="#474747"/>
				<path d="m56.2 43.3c0 1.9-0.65 3.517-1.95 4.851-1.3 1.333-2.867 2-4.7 2-1.866 0-3.45-0.667-4.75-2-1.3-1.334-1.95-2.95-1.95-4.851 0-1.867 0.65-3.466 1.95-4.8 1.333-1.333 2.917-2 4.75-2s3.4 0.667 4.7 2 1.95 2.933 1.95 4.8z" fill="#262626"/>
				<path d="m55.75 43.25c0 1.7-0.6 3.167-1.8 4.4-1.2 1.199-2.65 1.8-4.351 1.8-1.699 0-3.149-0.601-4.35-1.8-1.2-1.233-1.8-2.7-1.8-4.4 0-1.733 0.6-3.2 1.8-4.4s2.65-1.8 4.35-1.8 3.15 0.6 4.351 1.8c1.2 1.2 1.8 2.667 1.8 4.4z"/>
				<path d="m54.9 43.15c0 1.533-0.518 2.833-1.551 3.9-1.033 1.101-2.283 1.65-3.75 1.65s-2.732-0.55-3.8-1.65c-1.033-1.066-1.55-2.367-1.55-3.9s0.517-2.833 1.55-3.9c1.067-1.1 2.333-1.65 3.8-1.65s2.717 0.55 3.75 1.65c1.034 1.067 1.551 2.367 1.551 3.9z" fill="#363636"/>
				<path d="m53.85 43.15c0 1.233-0.416 2.267-1.25 3.1-0.866 0.866-1.883 1.3-3.05 1.3s-2.167-0.434-3-1.3c-0.833-0.833-1.25-1.867-1.25-3.1 0-1.2 0.417-2.233 1.25-3.1s1.833-1.3 3-1.3 2.184 0.433 3.05 1.3c0.834 0.867 1.25 1.9 1.25 3.1z" fill="#1C1C1C"/>
				<path d="m52.05 40.7c0.634 0.667 0.95 1.483 0.95 2.45s-0.316 1.8-0.95 2.5c-0.667 0.666-1.45 1-2.35 1s-1.667-0.334-2.3-1c-0.634-0.7-0.95-1.534-0.95-2.5s0.316-1.783 0.95-2.45c0.633-0.7 1.399-1.05 2.3-1.05 0.9 0 1.683 0.35 2.35 1.05z" fill="#696969"/>
				<path d="m52.15 41.35c0.566 0.6 0.85 1.333 0.85 2.2s-0.283 1.601-0.85 2.2c-0.567 0.6-1.25 0.9-2.051 0.9-0.8 0-1.467-0.301-2-0.9-0.566-0.6-0.85-1.333-0.85-2.2s0.283-1.6 0.85-2.2c0.533-0.6 1.2-0.9 2-0.9 0.801 0 1.484 0.3 2.051 0.9z" fill="#474747"/>
				<path d="m52.05 43.1c0 0.7-0.233 1.316-0.7 1.85-0.467 0.5-1.033 0.75-1.699 0.75-0.667 0-1.233-0.25-1.7-0.75-0.467-0.534-0.7-1.15-0.7-1.85 0-0.733 0.233-1.35 0.7-1.85 0.467-0.533 1.033-0.8 1.7-0.8 0.666 0 1.232 0.267 1.699 0.8 0.466 0.5 0.7 1.117 0.7 1.85z" fill="#363636"/>
				<path d="m48.3 33.9c1.067-0.2 2-0.233 2.8-0.1l-0.699 2c-0.533 0-1.184 0.083-1.95 0.25-1.5 0.367-2.783 1-3.85 1.9s-1.767 2.183-2.1 3.85c-0.133 0.833-0.184 1.583-0.15 2.25l-1.251 2.15c-0.2-0.834-0.284-1.85-0.25-3.05 0.1-2.367 0.833-4.4 2.2-6.1s3.117-2.75 5.25-3.15z" fill="#696969"/>
				<path d="m56.9 43.15l2.149 0.4-0.2 2.75c-0.5 2.101-1.683 3.767-3.55 5-1.6 1.066-3.616 1.566-6.05 1.5l-3.15-0.45 0.95-1.75 1.951 0.35c1.667 0 3.316-0.533 4.95-1.601 1.3-0.8 2.183-2.083 2.649-3.85l0.301-2.349z" fill="#5C5C5C"/>
				<path d="m42.55 40.5l-1.15-0.4 0.8-1.45c0.6-1.033 1.083-1.767 1.45-2.2 0.633-0.7 1.833-1.383 3.6-2.05l0.2 1.7c-1.233 0.633-2.184 1.25-2.85 1.85-0.433 0.367-0.9 0.9-1.4 1.6l-0.65 0.95z" fill="#878787"/>
				<path d="m58.25 47.75c-0.033 0.333-0.2 0.733-0.5 1.2-0.566 0.899-1.417 1.684-2.55 2.35-1.134 0.7-2.351 1.15-3.65 1.351l-1.55 0.099v-1.55l1.8-0.55c1.267-0.434 2.083-0.784 2.45-1.051 0.533-0.399 1.417-1.216 2.65-2.449l1.35 0.6z" fill="#757575"/>
				<path d="m53.15 36.75l1-1.65 1.05 0.6c0.767 0.5 1.333 0.983 1.7 1.45 1.033 1.233 1.583 2.35 1.649 3.35l-2.049 0.5c-0.2-1.133-0.566-2.017-1.1-2.65-0.334-0.367-0.8-0.75-1.4-1.15l-0.85-0.45z" fill="#3D3D3D"/>
				<path d="m42.75 46.2l0.35 0.8c0.267 0.6 0.55 1.083 0.85 1.45 0.5 0.6 1.183 1.217 2.05 1.85l-0.9 1.4c-1.3-0.867-2.117-1.533-2.45-2-0.2-0.3-0.433-0.783-0.7-1.45l-0.3-0.9 1.1-1.15z" fill="#3D3D3D"/>
				<path d="m43.35 39.2l-1.25-0.85 1.55-1.9c0.5-0.567 1.034-0.934 1.6-1.1l0.5 1.5-2.4 2.35z" fill="#A8A8A8"/>
				<polygon points="53.65 50.2 55.1 48.75 56.5 50.6 54.45 52.05" fill="#878787"/>
				<path d="m46.7 41.9l0.25-0.65c0.233-0.467 0.616-0.833 1.149-1.1 0.801-0.467 1.518-0.617 2.15-0.45l0.3 0.7c-0.833 0-1.566 0.133-2.2 0.4-0.399 0.167-0.699 0.6-0.899 1.3-0.101 0.367-0.167 0.7-0.2 1l-0.55-1.2z" fill="#878787"/>
				<path d="m45.25 42.45l-0.7 0.15c0-0.267 0.05-0.617 0.15-1.05 0.233-0.8 0.633-1.55 1.2-2.25 0.6-0.7 1.967-1.2 4.1-1.5l-0.45 0.95c-0.8 0.2-1.649 0.517-2.55 0.95-0.566 0.3-1.033 0.85-1.4 1.65-0.166 0.4-0.284 0.767-0.35 1.1z" fill="#474747"/>
				<path d="m53.1 45.9c0.4-0.467 0.684-0.9 0.851-1.3l0.95-0.1c-0.033 0.533-0.25 1.083-0.65 1.65-0.767 1.166-1.967 1.916-3.6 2.25-1.233 0.267-2.367 0.116-3.4-0.45l-1.2-0.9 0.15-0.55 1.3 0.65c1.066 0.399 2.083 0.5 3.05 0.3 0.966-0.167 1.816-0.683 2.549-1.55z" fill="#292929"/>
				<rect x="49.5" y="30" width="1.2" height="4.3"/>
				<rect x="49.35" y="30" width=".95" height="4.3" fill="#A8A8A8"/>
				<rect x="37.15" y="42.8" width="4.3" height="1.2"/>
				<rect x="37.15" y="43.2" width="4.3" height=".9" fill="#A8A8A8"/>
				<polygon points="43.8 35.85 43 36.75 40.5 34.55 41.25 33.65"/>
				<polygon points="43.55 36.15 42.9 36.85 40.4 34.65 41 33.95" fill="#A8A8A8"/>
				<polygon points="56.1 35.85 58.65 33.65 59.4 34.55 56.9 36.75"/>
				<polygon points="56.35 36.15 58.9 33.95 59.5 34.65 56.95 36.85" fill="#A8A8A8"/>
				<polygon points="43.95 51.05 41.4 53.25 40.6 52.35 43.15 50.15"/>
				<polygon points="43.65 50.75 41.15 52.95 40.55 52.25 43.05 50.05" fill="#A8A8A8"/>
				<polygon points="56.25 51.05 57 50.15 59.55 52.35 58.8 53.25"/>
				<polygon points="56.5 50.75 57.1 50.05 59.65 52.25 59.05 52.95" fill="#A8A8A8"/>
				<rect x="58.8" y="42.8" width="3.851" height="1.2"/>
				<rect x="58.8" y="43.2" width="3.851" height=".9" fill="#A8A8A8"/>
				<rect x="49.5" y="51.8" width="1.2" height="4.3"/>
				<rect x="49.35" y="51.8" width=".95" height="4.3" fill="#A8A8A8"/>
					<path d="m53.45 32.7c0 0.3-0.083 0.55-0.25 0.75s-0.384 0.3-0.65 0.3-0.483-0.1-0.649-0.3c-0.167-0.2-0.25-0.45-0.25-0.75s0.083-0.55 0.25-0.75c0.166-0.2 0.383-0.3 0.649-0.3s0.483 0.1 0.65 0.3 0.25 0.45 0.25 0.75z"/>
					<path d="m53.3 32.5c0 0.6-0.283 0.9-0.85 0.9-0.533 0-0.8-0.3-0.8-0.9 0-0.233 0.083-0.433 0.25-0.6 0.133-0.167 0.316-0.25 0.55-0.25s0.433 0.083 0.6 0.25 0.25 0.367 0.25 0.6z" fill="#A8A8A8"/>
					<path d="m61.35 40.9c0 0.267-0.083 0.517-0.25 0.75-0.199 0.2-0.416 0.3-0.649 0.3s-0.45-0.1-0.65-0.3c-0.167-0.233-0.25-0.483-0.25-0.75 0-0.3 0.083-0.55 0.25-0.75 0.2-0.233 0.417-0.35 0.65-0.35s0.45 0.117 0.649 0.35c0.167 0.2 0.25 0.45 0.25 0.75z"/>
					<path d="m61.2 40.7c0 0.6-0.267 0.9-0.8 0.9-0.567 0-0.851-0.3-0.851-0.9s0.283-0.9 0.851-0.9c0.534 0 0.8 0.3 0.8 0.9z" fill="#A8A8A8"/>
					<path d="m61.8 46.5c0 0.3-0.083 0.55-0.25 0.75s-0.383 0.3-0.649 0.3c-0.268 0-0.483-0.1-0.65-0.3s-0.251-0.45-0.251-0.75 0.083-0.55 0.25-0.75 0.383-0.3 0.65-0.3 0.482 0.1 0.649 0.3 0.251 0.45 0.251 0.75z"/>
					<path d="m61.65 46.3c0 0.233-0.084 0.45-0.25 0.65-0.167 0.166-0.367 0.25-0.601 0.25s-0.417-0.084-0.55-0.25c-0.166-0.167-0.249-0.384-0.249-0.65 0-0.233 0.083-0.434 0.25-0.6 0.133-0.167 0.316-0.25 0.55-0.25s0.434 0.083 0.601 0.25c0.165 0.166 0.249 0.366 0.249 0.6z" fill="#A8A8A8"/>
					<path d="m53.45 54.4c0 0.3-0.083 0.55-0.25 0.75-0.167 0.199-0.384 0.3-0.65 0.3s-0.483-0.101-0.649-0.3c-0.167-0.2-0.25-0.45-0.25-0.75 0-0.301 0.083-0.551 0.25-0.75 0.166-0.2 0.383-0.301 0.649-0.301s0.483 0.101 0.65 0.301 0.25 0.45 0.25 0.75z"/>
					<path d="m53.3 54.2c0 0.6-0.283 0.899-0.85 0.899-0.533 0-0.8-0.3-0.8-0.899 0-0.233 0.083-0.434 0.25-0.601 0.133-0.166 0.316-0.25 0.55-0.25s0.433 0.084 0.6 0.25c0.167 0.168 0.25 0.368 0.25 0.601z" fill="#A8A8A8"/>
					<path d="m56.75 53.1c0 0.301-0.083 0.551-0.25 0.75-0.167 0.2-0.383 0.301-0.65 0.301s-0.482-0.101-0.649-0.301c-0.167-0.199-0.25-0.449-0.25-0.75 0-0.3 0.083-0.55 0.25-0.75 0.167-0.199 0.383-0.3 0.649-0.3 0.268 0 0.483 0.101 0.65 0.3 0.167 0.2 0.25 0.45 0.25 0.75z"/>
					<path d="m56.6 52.95c0 0.233-0.083 0.434-0.25 0.6-0.133 0.167-0.316 0.25-0.55 0.25-0.566 0-0.85-0.283-0.85-0.85 0-0.601 0.283-0.9 0.85-0.9 0.533 0 0.8 0.3 0.8 0.9z" fill="#A8A8A8"/>
					<path d="m60.2 49.65c0 0.3-0.083 0.55-0.25 0.75-0.167 0.199-0.384 0.3-0.65 0.3s-0.483-0.101-0.649-0.3c-0.167-0.2-0.25-0.45-0.25-0.75 0-0.301 0.083-0.551 0.25-0.75 0.166-0.2 0.383-0.301 0.649-0.301s0.483 0.101 0.65 0.301 0.25 0.45 0.25 0.75z"/>
					<path d="m60.05 49.5c0 0.233-0.083 0.434-0.25 0.6-0.133 0.167-0.316 0.25-0.55 0.25-0.566 0-0.85-0.283-0.85-0.85 0-0.6 0.283-0.9 0.85-0.9 0.533 0 0.8 0.3 0.8 0.9z" fill="#A8A8A8"/>
					<path d="m60.05 37.75c0 0.267-0.083 0.517-0.25 0.75-0.2 0.2-0.417 0.3-0.649 0.3-0.233 0-0.45-0.1-0.65-0.3-0.167-0.233-0.25-0.483-0.25-0.75 0-0.3 0.083-0.55 0.25-0.75s0.383-0.3 0.65-0.3 0.482 0.1 0.649 0.3 0.25 0.45 0.25 0.75z"/>
					<path d="m59.9 37.55c0 0.6-0.268 0.9-0.801 0.9-0.232 0-0.433-0.083-0.6-0.25-0.167-0.2-0.25-0.417-0.25-0.65 0-0.566 0.283-0.85 0.85-0.85 0.534 0 0.801 0.283 0.801 0.85z" fill="#A8A8A8"/>
					<path d="m56.45 34.45c0 0.267-0.083 0.517-0.25 0.75-0.2 0.2-0.417 0.3-0.65 0.3s-0.45-0.1-0.649-0.3c-0.167-0.233-0.25-0.483-0.25-0.75 0-0.3 0.083-0.55 0.25-0.75 0.199-0.233 0.416-0.35 0.649-0.35s0.45 0.117 0.65 0.35c0.167 0.2 0.25 0.45 0.25 0.75z"/>
					<path d="m56.3 34.25c0 0.567-0.267 0.85-0.8 0.85-0.566 0-0.85-0.283-0.85-0.85 0-0.233 0.083-0.45 0.25-0.65 0.166-0.167 0.366-0.25 0.6-0.25 0.533 0 0.8 0.3 0.8 0.9z" fill="#A8A8A8"/>
					<path d="m46.2 33.15c0-0.267 0.1-0.517 0.3-0.75 0.2-0.2 0.417-0.3 0.65-0.3 0.232 0 0.449 0.1 0.649 0.3 0.167 0.233 0.25 0.483 0.25 0.75 0 0.3-0.083 0.567-0.25 0.8-0.2 0.2-0.417 0.3-0.649 0.3-0.268 0-0.483-0.1-0.65-0.3-0.2-0.233-0.3-0.5-0.3-0.8z"/>
					<path d="m46.4 33c0-0.233 0.083-0.45 0.25-0.65 0.133-0.167 0.316-0.25 0.55-0.25s0.433 0.083 0.6 0.25c0.167 0.2 0.25 0.417 0.25 0.65 0 0.567-0.283 0.85-0.85 0.85-0.533 0-0.8-0.283-0.8-0.85z" fill="#A8A8A8"/>
					<path d="m38.55 41.2c0-0.3 0.083-0.55 0.25-0.75 0.2-0.233 0.417-0.35 0.65-0.35s0.45 0.117 0.65 0.35c0.167 0.2 0.25 0.45 0.25 0.75 0 0.267-0.083 0.517-0.25 0.75-0.2 0.2-0.417 0.3-0.65 0.3s-0.45-0.1-0.65-0.3c-0.167-0.233-0.25-0.483-0.25-0.75z"/>
					<path d="m38.7 41c0-0.233 0.083-0.45 0.25-0.65 0.167-0.167 0.366-0.25 0.6-0.25 0.534 0 0.8 0.3 0.8 0.9s-0.267 0.9-0.8 0.9c-0.233 0-0.433-0.083-0.6-0.25-0.167-0.2-0.25-0.417-0.25-0.65z" fill="#A8A8A8"/>
					<path d="m38.25 46.05c0-0.267 0.1-0.517 0.3-0.75 0.2-0.2 0.417-0.3 0.65-0.3s0.45 0.1 0.65 0.3c0.167 0.233 0.25 0.483 0.25 0.75 0 0.3-0.083 0.55-0.25 0.75s-0.383 0.3-0.65 0.3-0.483-0.1-0.65-0.3c-0.2-0.2-0.3-0.45-0.3-0.75z"/>
					<path d="m38.45 45.9c0-0.601 0.267-0.9 0.8-0.9 0.233 0 0.434 0.083 0.6 0.25 0.167 0.2 0.25 0.417 0.25 0.65s-0.083 0.433-0.25 0.6-0.367 0.25-0.6 0.25-0.417-0.083-0.55-0.25c-0.167-0.167-0.25-0.366-0.25-0.6z" fill="#A8A8A8"/>
					<path d="m46.45 54.4c0-0.301 0.083-0.551 0.25-0.75 0.167-0.2 0.383-0.301 0.649-0.301 0.268 0 0.483 0.101 0.65 0.301 0.167 0.199 0.25 0.449 0.25 0.75 0 0.3-0.083 0.55-0.25 0.75-0.167 0.199-0.383 0.3-0.65 0.3s-0.482-0.101-0.649-0.3c-0.167-0.2-0.25-0.45-0.25-0.75z"/>
					<path d="m46.6 54.2c0-0.233 0.084-0.434 0.25-0.601 0.167-0.166 0.367-0.25 0.601-0.25s0.417 0.084 0.55 0.25c0.167 0.167 0.25 0.367 0.25 0.601 0 0.6-0.267 0.899-0.8 0.899-0.233 0-0.434-0.083-0.601-0.25-0.166-0.199-0.25-0.415-0.25-0.649z" fill="#A8A8A8"/>
					<path d="m43.1 53c0-0.3 0.083-0.55 0.25-0.75s0.383-0.3 0.65-0.3 0.483 0.1 0.65 0.3 0.25 0.45 0.25 0.75-0.083 0.55-0.25 0.75-0.383 0.3-0.65 0.3-0.483-0.1-0.65-0.3-0.25-0.45-0.25-0.75z"/>
					<path d="m43.25 52.85c0-0.233 0.083-0.449 0.25-0.649 0.167-0.167 0.367-0.25 0.6-0.25 0.533 0 0.8 0.3 0.8 0.899 0 0.233-0.083 0.434-0.25 0.601-0.133 0.166-0.316 0.25-0.55 0.25s-0.433-0.084-0.6-0.25c-0.167-0.168-0.25-0.368-0.25-0.601z" fill="#A8A8A8"/>
					<path d="m39.55 49.65c0-0.301 0.083-0.551 0.25-0.75 0.167-0.2 0.384-0.301 0.65-0.301s0.484 0.101 0.65 0.301c0.167 0.199 0.25 0.449 0.25 0.75 0 0.3-0.083 0.55-0.25 0.75-0.167 0.199-0.383 0.3-0.65 0.3s-0.483-0.101-0.65-0.3c-0.167-0.2-0.25-0.45-0.25-0.75z"/>
					<path d="m39.7 49.5c0-0.233 0.083-0.45 0.25-0.65 0.167-0.166 0.366-0.25 0.6-0.25 0.534 0 0.8 0.301 0.8 0.9 0 0.233-0.083 0.434-0.25 0.6-0.133 0.167-0.317 0.25-0.55 0.25s-0.433-0.083-0.6-0.25c-0.167-0.166-0.25-0.367-0.25-0.6z" fill="#A8A8A8"/>
					<path d="m39.4 38c0-0.267 0.1-0.517 0.3-0.75 0.2-0.2 0.417-0.3 0.65-0.3s0.45 0.1 0.65 0.3c0.167 0.233 0.25 0.483 0.25 0.75 0 0.3-0.083 0.567-0.25 0.8-0.2 0.2-0.417 0.3-0.65 0.3-0.267 0-0.483-0.1-0.65-0.3-0.2-0.233-0.3-0.5-0.3-0.8z"/>
					<path d="m39.6 37.85c0-0.6 0.267-0.9 0.8-0.9 0.233 0 0.434 0.083 0.6 0.25 0.167 0.2 0.25 0.417 0.25 0.65s-0.083 0.433-0.25 0.6-0.367 0.25-0.6 0.25-0.417-0.083-0.55-0.25c-0.166-0.167-0.25-0.367-0.25-0.6z" fill="#A8A8A8"/>
					<path d="m43.3 34.7c0-0.267 0.083-0.517 0.25-0.75 0.2-0.2 0.417-0.3 0.65-0.3s0.45 0.1 0.65 0.3c0.167 0.233 0.25 0.483 0.25 0.75 0 0.3-0.083 0.55-0.25 0.75s-0.383 0.3-0.65 0.3-0.483-0.1-0.65-0.3-0.25-0.45-0.25-0.75z"/>
					<path d="m43.45 34.55c0-0.233 0.083-0.45 0.25-0.65 0.167-0.167 0.366-0.25 0.6-0.25 0.534 0 0.8 0.3 0.8 0.9 0 0.233-0.083 0.434-0.25 0.6-0.133 0.167-0.317 0.25-0.55 0.25s-0.433-0.083-0.6-0.25-0.25-0.367-0.25-0.6z" fill="#A8A8A8"/>
			<path d="m53.2 27.65l-0.45 0.85c-1.4-0.3-3.05-0.333-4.95-0.1-3.767 0.533-6.85 2.2-9.25 5s-3.633 5.983-3.7 9.55c0 1.8 0.216 3.3 0.65 4.5l-0.7-0.25c-0.566-1.134-0.866-2.6-0.9-4.4 0-3.566 1.4-6.95 4.2-10.15 2.8-3.167 6.167-4.95 10.1-5.35 1.933-0.2 3.6-0.083 5 0.35z" fill="#C4C4C4"/>
			<path d="m65.4 41v5c-0.667 3.866-2.584 7.083-5.75 9.65-3.167 2.6-6.584 3.767-10.25 3.5l-4.55-1.2 0.15-0.7 4.65 0.7c3.633 0.033 6.783-1.017 9.449-3.15 2.7-2.166 4.384-5.083 5.051-8.75l0.25-4.9 1-0.15z" fill="#828282"/>
			<path d="m63.8 47.45l1.3-0.7-0.95 2.85c-0.967 2.167-2.217 4-3.75 5.5-1.567 1.467-3.801 2.601-6.7 3.4l-3.851 0.75-0.1-1 2.95-0.3c2.333-0.5 4.366-1.417 6.1-2.75 1.934-1.4 3.351-3.117 4.25-5.15l0.751-2.6z" fill="#666"/>
			<path d="m43.05 29c1.134-0.6 2.167-1.1 3.101-1.5v1.15c-2.601 1.033-4.8 2.184-6.601 3.45-1.133 0.767-2.2 2.367-3.2 4.8-0.467 1.2-0.833 2.333-1.1 3.4l-0.75-0.6c0.2-0.7 0.5-1.517 0.9-2.45 0.767-1.867 1.667-3.4 2.7-4.6s2.683-2.417 4.95-3.65z" fill="#E8E8E8"/>
		</g>
		<rect x="7.55" y="3.7" width="82.8" height="3.15" clip-rule="evenodd" fill="#4D4D4D" fill-rule="evenodd"/>
		<g clip-rule="evenodd" fill-rule="evenodd">
			<rect x="9.1" y="18.75" width="2.55" height="14" fill="#3B3B3B"/>
				<rect x="10.15" y="20.15" width="16.1" height="11.1" fill="#5C5C5C"/>
				<rect x="11.1" y="21.05" width="14.05" height="8.75" fill="#8C8C8C"/>
					<linearGradient id="t" x1="-44.618" x2="-15.618" y1="18.127" y2="18.127" gradientTransform="matrix(3.4483e-5 -1 1 -.001 .00013485 .00046055)" gradientUnits="userSpaceOnUse">
					<stop offset=".0039"/>
					<stop stop-opacity=".7961" offset=".0941"/>
					<stop stop-opacity="0" offset="1"/>
				</linearGradient>
				<rect x="11.1" y="21.05" width="14.05" height="8.75" fill="url(#t)"/>
			<polygon points="26.45 31.05 10.15 31.25 11.1 29.8 25.15 29.8" fill="#333"/>
			<polygon points="26.25 20.15 25.15 21.3 11.25 21.3 10.15 20.15" fill="#949494"/>
			<rect x="11.25" y="21" width="13.8" height=".75" fill="#A3A3A3"/>
		</g>
			<linearGradient id="u" x1="-22.81" x2="44.715" y1="-48.675" y2="-48.675" gradientTransform="matrix(1.4809e-5 1 -1 -.001 -.00045694 -2.7731e-5)" gradientUnits="userSpaceOnUse">
			<stop stop-opacity=".8627" offset=".0431"/>
			<stop stop-opacity="0" offset="1"/>
		</linearGradient>
		<rect x="7.3" y="3.45" width="82.75" height="77.6" clip-rule="evenodd" fill="url(#u)" fill-rule="evenodd"/>
		<g clip-rule="evenodd" fill-rule="evenodd">
			<rect x="9.1" y="52.35" width="2.55" height="14" fill="#3B3B3B"/>
				<rect x="10.15" y="53.8" width="16.1" height="11.05" fill="#5C5C5C"/>
				<rect x="11.1" y="54.65" width="14.05" height="8.75" fill="#8C8C8C"/>
					<linearGradient id="v" x1="-78.218" x2="-49.218" y1="18.128" y2="18.128" gradientTransform="matrix(3.4483e-5 -1 1 -.001 .00013485 .00046055)" gradientUnits="userSpaceOnUse">
					<stop offset=".0039"/>
					<stop stop-opacity=".7961" offset=".0941"/>
					<stop stop-opacity="0" offset="1"/>
				</linearGradient>
				<rect x="11.1" y="54.65" width="14.05" height="8.75" fill="url(#v)"/>
			<polygon points="11.1 63.4 25.15 63.4 26.45 64.65 10.15 64.85" fill="#333"/>
			<polygon points="11.25 54.9 10.15 53.8 26.25 53.8 25.15 54.9" fill="#949494"/>
			<rect x="11.25" y="54.65" width="13.8" height=".75" fill="#A3A3A3"/>
		</g>
			<linearGradient id="m" x1="-198.5" x2="361.4" y1="-1503.2" y2="-1503.2" gradientTransform="matrix(1.7721e-6 1.0149 -.9922 -.001 -1442.9 -162.15)" gradientUnits="userSpaceOnUse">
			<stop stop-opacity=".749" offset="0"/>
			<stop stop-opacity="0" offset="1"/>
		</linearGradient>
		<polygon points="89.533 9.113 14.277 8.91 13.631 81.627 7.332 81.322 8.174 3.328 89.831 3.328" clip-rule="evenodd" fill="url(#m)" fill-rule="evenodd"/>
		<use transform="matrix(1 0 0 -1 46.5 94.45)" x="16383" y="16383" width="-32766" height="-32766" xlink:href="#x"/>
</svg>
