<?xml version="1.0" encoding="UTF-8"?>
<svg version="1.1" viewBox="0 0 528.55854 553.79524" xmlns="http://www.w3.org/2000/svg">
 <defs>
  <filter id="e" x="-.31462" y="-.34689" width="1.6292" height="1.6938" color-interpolation-filters="sRGB">
   <feGaussianBlur stdDeviation="2.84711"/>
  </filter>
  <linearGradient id="d" x1="597.79" x2="629.83" y1="215.6" y2="223.03" gradientUnits="userSpaceOnUse">
   <stop stop-color="#9e220d" offset="0"/>
   <stop stop-color="#ec330d" offset="1"/>
  </linearGradient>
  <linearGradient id="c" x1="608.62" x2="580.13" y1="197.16" y2="255.14" gradientUnits="userSpaceOnUse">
   <stop stop-color="#d4392d" offset="0"/>
   <stop stop-color="#881900" offset="1"/>
  </linearGradient>
  <linearGradient id="b" x1="374.5" x2="419.07" y1="363.97" y2="367.9" gradientUnits="userSpaceOnUse">
   <stop stop-color="#fba220" offset="0"/>
   <stop stop-color="#f9efe9" offset=".2818"/>
   <stop stop-color="#f7c97a" offset=".57881"/>
   <stop stop-color="#f3f1d4" offset="1"/>
  </linearGradient>
  <radialGradient id="a" cx="530.08" cy="276.82" r="10.859" gradientTransform="matrix(1 7.3477e-8 -6.6642e-8 .90698 1.8448e-5 25.75)" gradientUnits="userSpaceOnUse">
   <stop stop-color="#d43800" offset="0"/>
   <stop stop-color="#d40000" stop-opacity="0" offset="1"/>
  </radialGradient>
 </defs>
 <g transform="matrix(1.3281 .32812 -.32812 1.3281 -402.51 -351.35)">
  <path transform="matrix(.79577 0 0 .54327 236.3 29.89)" d="m629.83 223.03c0 29.01-15.942 52.528-35.608 52.528s-35.608-23.518-35.608-52.528 15.942-52.528 35.608-52.528 35.608 23.518 35.608 52.528z"/>
  <path d="m530.32 207.87c21.367-93.36 90.538-102.57 160.61-73.236l-2.5254 6.566c-65.956 16.969-67.583 53.113-70.711 75.256l-87.378-8.5863z" fill-rule="evenodd" stroke="#000"/>
  <path d="m533.33 205.78c19.965-87.263 86.617-99.435 152.09-72.016l-3.3698 7.1551c-61.627 15.861-64.158 52.188-67.08 72.886l-81.644-8.0255z" fill="#d40000" fill-rule="evenodd" stroke="#d40000" stroke-width=".93453"/>
  <path d="m625.9 121.48c-19.064 0.23408-36.793 5.1342-51.79 15.655 34.62-17.515 78.391-14.235 108.55-0.42067l-1.0002 2.3738c-62.846 5.2171-77.854 50.054-81.044 69.802l15.127 1.4122c2.923-19.75 5.4349-54.427 67.073-69.561l3.3755-6.8209c-20.465-8.1762-41.057-12.676-60.291-12.44z" fill="#ff5817" fill-rule="evenodd" stroke="#ff5324" stroke-width=".91296"/>
  <path transform="matrix(.68234 0 0 .46583 302.91 46.179)" d="m629.83 223.03c0 29.01-15.942 52.528-35.608 52.528s-35.608-23.518-35.608-52.528 15.942-52.528 35.608-52.528 35.608 23.518 35.608 52.528z" fill="#fafafb" stroke="#f1f3ed" stroke-linecap="round" stroke-linejoin="round" stroke-width="5.4235"/>
  <path transform="matrix(1.843 0 0 1.6475 -482.16 -4.8492)" d="m629.83 223.03c0 29.01-15.942 52.528-35.608 52.528s-35.608-23.518-35.608-52.528 15.942-52.528 35.608-52.528 35.608 23.518 35.608 52.528z" fill="#502d16" stroke="#000" stroke-width="1.9363"/>
  <g transform="matrix(1.1533 0 0 1 -84.405 0)">
   <path d="m532.86 239.51h77.143a13.571 27.857 0 0 1 13.571 27.857v100a13.571 27.857 0 0 1 -13.571 27.857h-77.143a13.571 27.857 0 0 1 -13.571 -27.857v-100a13.571 27.857 0 0 1 13.571 -27.857" fill="#deb798" stroke="#000" stroke-linecap="round" stroke-linejoin="round" stroke-width="2.9"/>
   <path d="m606.75 238.08c5.0611 3.6909 8.6644 14.112 8.6644 26.438v100c1e-5 15.433-5.6805 27.844-12.747 27.844h-69.83c1.2759 0.93047 2.6304 1.4375 4.0532 1.4375h72.517c7.0665 0 12.747-12.442 12.747-27.875v-100c0-15.433-5.6805-27.844-12.747-27.844h-2.6434z" fill="#eed3ca"/>
  </g>
  <path transform="matrix(.56448 0 0 .40917 291.98 141.12)" d="m629.83 223.03c0 29.01-15.942 52.528-35.608 52.528s-35.608-23.518-35.608-52.528 15.942-52.528 35.608-52.528 35.608 23.518 35.608 52.528z"/>
  <path transform="matrix(.4979 0 0 .35935 295.58 122.24)" d="m629.83 223.03c0 29.01-15.942 52.528-35.608 52.528s-35.608-23.518-35.608-52.528 15.942-52.528 35.608-52.528 35.608 23.518 35.608 52.528z"/>
  <path transform="matrix(.4979 0 0 .35935 271.84 124.7)" d="m629.83 223.03c0 29.01-15.942 52.528-35.608 52.528s-35.608-23.518-35.608-52.528 15.942-52.528 35.608-52.528 35.608 23.518 35.608 52.528z"/>
  <path transform="matrix(.4979 0 0 .35935 249.62 129.75)" d="m629.83 223.03c0 29.01-15.942 52.528-35.608 52.528s-35.608-23.518-35.608-52.528 15.942-52.528 35.608-52.528 35.608 23.518 35.608 52.528z"/>
  <path transform="matrix(.4979 0 0 .35935 227.9 134.8)" d="m629.83 223.03c0 29.01-15.942 52.528-35.608 52.528s-35.608-23.518-35.608-52.528 15.942-52.528 35.608-52.528 35.608 23.518 35.608 52.528z"/>
  <path transform="matrix(.4979 0 0 .35935 313.76 139.35)" d="m629.83 223.03c0 29.01-15.942 52.528-35.608 52.528s-35.608-23.518-35.608-52.528 15.942-52.528 35.608-52.528 35.608 23.518 35.608 52.528z"/>
  <path transform="matrix(.47408 0 0 .35727 345.34 152.49)" d="m629.83 223.03c0 29.01-15.942 52.528-35.608 52.528s-35.608-23.518-35.608-52.528 15.942-52.528 35.608-52.528 35.608 23.518 35.608 52.528z" fill="#fafafb" stroke="#f1f3ed" stroke-linecap="round" stroke-linejoin="round" stroke-width="5.4235"/>
  <path transform="matrix(.42777 0 0 .31626 355.19 148.71)" d="m629.83 223.03c0 29.01-15.942 52.528-35.608 52.528s-35.608-23.518-35.608-52.528 15.942-52.528 35.608-52.528 35.608 23.518 35.608 52.528z" fill="#fafafb" stroke="#f1f3ed" stroke-linecap="round" stroke-linejoin="round" stroke-width="5.4235"/>
  <path transform="matrix(.42777 0 0 .31626 337.26 132.29)" d="m629.83 223.03c0 29.01-15.942 52.528-35.608 52.528s-35.608-23.518-35.608-52.528 15.942-52.528 35.608-52.528 35.608 23.518 35.608 52.528z" fill="#fafafb" stroke="#f1f3ed" stroke-linecap="round" stroke-linejoin="round" stroke-width="5.4235"/>
  <path transform="matrix(.42805 0 0 .30965 313.35 136.14)" d="m629.83 223.03c0 29.01-15.942 52.528-35.608 52.528s-35.608-23.518-35.608-52.528 15.942-52.528 35.608-52.528 35.608 23.518 35.608 52.528z" fill="#fafafb" stroke="#f1f3ed" stroke-linecap="round" stroke-linejoin="round" stroke-width="5.4235"/>
  <path transform="matrix(.42805 0 0 .30965 290.62 141.19)" d="m629.83 223.03c0 29.01-15.942 52.528-35.608 52.528s-35.608-23.518-35.608-52.528 15.942-52.528 35.608-52.528 35.608 23.518 35.608 52.528z" fill="#fafafb" stroke="#f1f3ed" stroke-linecap="round" stroke-linejoin="round" stroke-width="5.4235"/>
  <path transform="matrix(.42805 0 0 .30965 269.41 145.74)" d="m629.83 223.03c0 29.01-15.942 52.528-35.608 52.528s-35.608-23.518-35.608-52.528 15.942-52.528 35.608-52.528 35.608 23.518 35.608 52.528z" fill="#fafafb" stroke="#f1f3ed" stroke-linecap="round" stroke-linejoin="round" stroke-width="5.4235"/>
  <path transform="matrix(.86325 0 0 .57603 18.88 110.72)" d="m629.83 223.03c0 29.01-15.942 52.528-35.608 52.528s-35.608-23.518-35.608-52.528 15.942-52.528 35.608-52.528 35.608 23.518 35.608 52.528z"/>
  <path transform="matrix(.74959 0 0 .51284 86.698 124.45)" d="m629.83 223.03c0 29.01-15.942 52.528-35.608 52.528s-35.608-23.518-35.608-52.528 15.942-52.528 35.608-52.528 35.608 23.518 35.608 52.528z" fill="#fafafb" stroke="#f1f3ed" stroke-linecap="round" stroke-linejoin="round" stroke-width="5.4235"/>
  <path transform="matrix(.92313 -.14412 .14745 .90228 -39.331 102.48)" d="m586.89 244.15c0.18104 2.5032-1.5887 4.6878-3.9528 4.8795-2.3641 0.19169-4.4274-1.6822-4.6084-4.1853-0.18104-2.5032 1.5887-4.6878 3.9528-4.8795 0.96798-0.0785 1.9325 0.19272 2.7362 0.76936l-2.4084 3.7631z"/>
  <path transform="matrix(.92343 0 0 .63042 38.174 106.2)" d="m629.83 223.03c0 29.01-15.942 52.528-35.608 52.528s-35.608-23.518-35.608-52.528 15.942-52.528 35.608-52.528 35.608 23.518 35.608 52.528z"/>
  <path transform="matrix(.80185 0 0 .56127 110.42 121.34)" d="m629.83 223.03c0 29.01-15.942 52.528-35.608 52.528s-35.608-23.518-35.608-52.528 15.942-52.528 35.608-52.528 35.608 23.518 35.608 52.528z" fill="#fafafb" stroke="#f1f3ed" stroke-linecap="round" stroke-linejoin="round" stroke-width="5.4235"/>
  <path d="m603.25 220.49c4.2602 5.3763 6.8244 12.264 6.8244 19.764-1e-5 17.183-13.441 31.115-29.988 31.115-5.9777 0-11.563-1.8143-16.241-4.9494 5.4997 6.9192 13.823 11.35 23.131 11.351 16.548 0 29.988-13.965 29.988-31.148 0-10.959-5.4644-20.585-13.715-26.133z" fill="#ccc"/>
  <path transform="matrix(.98748 -.15773 .15773 .98748 -28.413 97.095)" d="m586.89 244.15c0.18104 2.5032-1.5887 4.6878-3.9528 4.8795-2.3641 0.19169-4.4274-1.6822-4.6084-4.1853-0.18104-2.5032 1.5887-4.6878 3.9528-4.8795 0.96798-0.0785 1.9325 0.19272 2.7362 0.76936l-2.4084 3.7631z"/>
  <path d="m516.6 214.44c-4.0883 4.974-6.5491 11.346-6.5491 18.286 1e-5 15.898 12.898 28.787 28.778 28.787 5.7366 0 11.097-1.6786 15.586-4.579-5.2779 6.4015-13.265 10.501-22.198 10.501-15.88 0-28.778-12.92-28.778-28.817 0-10.139 5.2439-19.045 13.161-24.177z" fill="#ccc"/>
  <path transform="matrix(.37 -.16196 .12822 .29292 199.57 400.64)" d="m629.83 223.03c0 29.01-15.942 52.528-35.608 52.528s-35.608-23.518-35.608-52.528 15.942-52.528 35.608-52.528 35.608 23.518 35.608 52.528z"/>
  <path transform="matrix(.43497 -.1904 .1128 .25768 162.06 436.42)" d="m629.83 223.03c0 29.01-15.942 52.528-35.608 52.528s-35.608-23.518-35.608-52.528 15.942-52.528 35.608-52.528 35.608 23.518 35.608 52.528z"/>
  <path transform="matrix(.31802 -.13921 .12822 .29292 236.07 410.03)" d="m629.83 223.03c0 29.01-15.942 52.528-35.608 52.528s-35.608-23.518-35.608-52.528 15.942-52.528 35.608-52.528 35.608 23.518 35.608 52.528z"/>
  <path transform="matrix(.0828 -.26354 .30505 .09584 338.14 520.48)" d="m629.83 223.03c0 29.01-15.942 52.528-35.608 52.528s-35.608-23.518-35.608-52.528 15.942-52.528 35.608-52.528 35.608 23.518 35.608 52.528z"/>
  <path d="m445.91 354.09c-3.2883 0.0279-6.4539 1.311-8.75 3.8438-3.5236 3.8868-3.9216 9.5868-1.4688 14.281-5.3712 1.7887-7.7476 7.7595-5.2812 13.938 2.1849 5.4729 7.4704 9.4023 12.75 9.9062 2.5054 8.0831 9.3136 13.22 15.406 11.5 4.9597-1.4002 7.9637-6.9189 7.7812-13.344 5.6121-2.2702 8.3114-10.097 6.0625-18.062-2.0157-7.1395-7.3623-12.08-12.75-12.312-1.5917-4.2247-4.9865-7.4467-8.8438-8.8438-0.23322-0.0906-0.45156-0.17278-0.6875-0.25l-0.13-0.03c-1.3444-0.42587-2.7312-0.63654-4.0938-0.625z" fill="#e3c0a7"/>
  <path d="m445.88 353.95c-3.2883 0.0279-6.4539 1.311-8.75 3.8438-0.25502 0.28131-0.49637 0.57577-0.71875 0.875 2.0767-1.5868 4.5891-2.4155 7.1875-2.4375 1.3626-0.0115 2.7493 0.19912 4.0938 0.625l0.125 0.0312c0.23594 0.0772 0.45429 0.15939 0.6875 0.25 3.8572 1.397 7.2521 4.6191 8.8438 8.8438 5.3877 0.23253 10.734 5.173 12.75 12.312 1.5938 5.6452 0.68322 11.204-1.9688 14.781 4.3486-3.0774 6.24-10.014 4.25-17.062-2.0157-7.1395-7.3623-12.08-12.75-12.312-1.5917-4.2247-4.9865-7.4467-8.8438-8.8438-0.23323-0.0906-0.45156-0.17278-0.6875-0.25l-0.125-0.0312c-1.3444-0.42586-2.7312-0.63654-4.0938-0.625zm-12.906 19.562c-0.7372 0.56697-1.3867 1.2413-1.9062 2 0.69142-0.47522 1.4645-0.87387 2.3125-1.1562-0.14673-0.28083-0.27998-0.55633-0.40625-0.84375zm33.344 21.5c-0.69295 0.55709-1.4558 1.0098-2.2812 1.3438 0.10715 3.7735-0.90813 7.2212-2.75 9.7188 3.0795-2.2025 4.9406-6.3235 5.0312-11.062z" fill="#f4e3d7"/>
  <path d="m436.95 359.39c-2.7684 3.3794-3.2698 7.937-1.6661 11.999 0.66344-0.42814 1.3981-0.78059 2.2005-1.0408-1.8729-3.4905-2.087-7.5408-0.5344-10.959zm-5.0612 16.101c-2.3426 2.703-2.9773 6.7945-1.2575 10.989 2.198 5.361 7.515 9.21 12.826 9.7037 2.5204 7.9178 9.3691 12.95 15.498 11.265 2.8474-0.78278 5.0458-2.8984 6.3816-5.7242-1.2708 1.5614-2.9066 2.7129-4.8412 3.2448-6.129 1.685-12.978-3.347-15.498-11.265-5.311-0.49366-10.628-4.3426-12.826-9.7037-1.2514-3.0524-1.2718-6.0603-0.28292-8.5098zm40.396 13.408c-1.0709 1.3392-2.3965 2.3836-3.961 2.9999 0.0171 0.5847-0.0256 1.1474-0.0629 1.7142 1.7268-1.0761 3.0935-2.7049 4.0238-4.7141z" fill="#b49984"/>
  <path transform="matrix(.84592 0 0 .54327 -17.31 244.91)" d="m629.83 223.03c0 29.01-15.942 52.528-35.608 52.528s-35.608-23.518-35.608-52.528 15.942-52.528 35.608-52.528 35.608 23.518 35.608 52.528z"/>
  <g transform="matrix(-.95909 -.18636 .17968 -.95555 804.04 958.16)">
   <path transform="matrix(.70551 0 0 .49568 15.767 425.03)" d="m629.83 223.03c0 29.01-15.942 52.528-35.608 52.528s-35.608-23.518-35.608-52.528 15.942-52.528 35.608-52.528 35.608 23.518 35.608 52.528z" fill="#c43223"/>
   <path d="m438.02 509.74c10.674 3.003 18.531 13.116 18.531 25.125-3e-5 14.372-11.258 26.031-25.125 26.031-1.0294 0-2.0342-0.0626-3.0312-0.1875 2.1012 0.5914 4.3127 0.90625 6.5938 0.90625 13.867 0 25.125-11.659 25.125-26.031 0-13.31-9.653-24.292-22.094-25.844z" fill="#d35f5f"/>
  </g>
  <path transform="matrix(.71554 0 0 .48185 75.884 354.53)" d="m629.83 223.03c0 29.01-15.942 52.528-35.608 52.528s-35.608-23.518-35.608-52.528 15.942-52.528 35.608-52.528 35.608 23.518 35.608 52.528z"/>
  <path transform="matrix(.55445 0 0 .38197 158.52 415.24)" d="m629.83 223.03c0 29.01-15.942 52.528-35.608 52.528s-35.608-23.518-35.608-52.528 15.942-52.528 35.608-52.528 35.608 23.518 35.608 52.528z"/>
  <path transform="matrix(.50822 0 0 .34846 185.58 423.21)" d="m629.83 223.03c0 29.01-15.942 52.528-35.608 52.528s-35.608-23.518-35.608-52.528 15.942-52.528 35.608-52.528 35.608 23.518 35.608 52.528z" fill="#27282c"/>
  <path transform="matrix(-.54311 -.35397 -.2605 .40304 882.25 581.56)" d="m629.83 223.03c0 29.01-15.942 52.528-35.608 52.528s-35.608-23.518-35.608-52.528 15.942-52.528 35.608-52.528 35.608 23.518 35.608 52.528z" fill="url(#d)"/>
  <path transform="matrix(2.4057 0 0 1.6764 -871.9 18.2)" d="m629.83 223.03c0 29.01-15.942 52.528-35.608 52.528s-35.608-23.518-35.608-52.528 15.942-52.528 35.608-52.528 35.608 23.518 35.608 52.528z"/>
  <path transform="matrix(2.3254 0 0 1.6015 -823.93 34.827)" d="m629.83 223.03c0 29.01-15.942 52.528-35.608 52.528s-35.608-23.518-35.608-52.528 15.942-52.528 35.608-52.528 35.608 23.518 35.608 52.528z" fill="url(#c)"/>
  <path transform="matrix(.79577 0 0 .54327 167.85 247.63)" d="m629.83 223.03c0 29.01-15.942 52.528-35.608 52.528s-35.608-23.518-35.608-52.528 15.942-52.528 35.608-52.528 35.608 23.518 35.608 52.528z"/>
  <path transform="matrix(.72557 0 0 .48861 179.21 351.95)" d="m629.83 223.03c0 29.01-15.942 52.528-35.608 52.528s-35.608-23.518-35.608-52.528 15.942-52.528 35.608-52.528 35.608 23.518 35.608 52.528z"/>
  <g transform="matrix(.903 -.59391 .68288 .78535 -120.48 205.85)">
   <path transform="matrix(.70551 0 0 .49568 15.767 425.03)" d="m629.83 223.03c0 29.01-15.942 52.528-35.608 52.528s-35.608-23.518-35.608-52.528 15.942-52.528 35.608-52.528 35.608 23.518 35.608 52.528z" fill="#c43223"/>
   <path d="m438.02 509.74c10.674 3.003 18.531 13.116 18.531 25.125-3e-5 14.372-11.258 26.031-25.125 26.031-1.0294 0-2.0342-0.0626-3.0312-0.1875 2.1012 0.5914 4.3127 0.90625 6.5938 0.90625 13.867 0 25.125-11.659 25.125-26.031 0-13.31-9.653-24.292-22.094-25.844z" fill="#d35f5f"/>
  </g>
  <path d="m474.28 390.93 2.1238 18.574c48.128 24.307 97.001 25.085 156.45-9.644-4.8951-1.1582-6.2037-3.9249-6.9023-6.9651-47.172 24.469-97.04 31.921-151.67-1.9645z" fill="#280b0b" fill-rule="evenodd" stroke="#280b0b" stroke-width=".9956"/>
  <path transform="matrix(.47482 0 0 .31975 363.21 304.2)" d="m629.83 223.03c0 29.01-15.942 52.528-35.608 52.528s-35.608-23.518-35.608-52.528 15.942-52.528 35.608-52.528 35.608 23.518 35.608 52.528z"/>
  <path transform="matrix(.47482 0 0 .31975 382.85 300.33)" d="m629.83 223.03c0 29.01-15.942 52.528-35.608 52.528s-35.608-23.518-35.608-52.528 15.942-52.528 35.608-52.528 35.608 23.518 35.608 52.528z"/>
  <path transform="matrix(.47482 0 0 .31975 385 313.91)" d="m629.83 223.03c0 29.01-15.942 52.528-35.608 52.528s-35.608-23.518-35.608-52.528 15.942-52.528 35.608-52.528 35.608 23.518 35.608 52.528z"/>
  <path transform="matrix(.36449 0 0 .20417 422.34 345.76)" d="m629.83 223.03c0 29.01-15.942 52.528-35.608 52.528s-35.608-23.518-35.608-52.528 15.942-52.528 35.608-52.528 35.608 23.518 35.608 52.528z"/>
  <path transform="matrix(.36449 0 0 .31975 438.06 324.62)" d="m629.83 223.03c0 29.01-15.942 52.528-35.608 52.528s-35.608-23.518-35.608-52.528 15.942-52.528 35.608-52.528 35.608 23.518 35.608 52.528z"/>
  <path transform="matrix(.89507 0 0 .61105 -75.751 350.23)" d="m629.83 223.03c0 29.01-15.942 52.528-35.608 52.528s-35.608-23.518-35.608-52.528 15.942-52.528 35.608-52.528 35.608 23.518 35.608 52.528z"/>
  <path transform="matrix(.82175 0 0 .56101 -32.574 362.01)" d="m629.83 223.03c0 29.01-15.942 52.528-35.608 52.528s-35.608-23.518-35.608-52.528 15.942-52.528 35.608-52.528 35.608 23.518 35.608 52.528z" fill="#27282c"/>
  <path d="m452.14 457.51c0.81609 0 1.6212 0.0424 2.4181 0.12499-13.207 1.3832-23.57 13.872-23.57 29.031s10.363 27.617 23.57 29c-0.797 0.0826-1.602 0.125-2.4181 0.125-14.353 0-25.988-13.041-25.988-29.125s11.635-29.156 25.988-29.156z" fill="#4c505a"/>
  <path transform="matrix(.56448 0 0 .40917 267.4 401.86)" d="m629.83 223.03c0 29.01-15.942 52.528-35.608 52.528s-35.608-23.518-35.608-52.528 15.942-52.528 35.608-52.528 35.608 23.518 35.608 52.528z"/>
  <path transform="matrix(.55743 0 0 .38201 273.79 407)" d="m629.83 223.03c0 29.01-15.942 52.528-35.608 52.528s-35.608-23.518-35.608-52.528 15.942-52.528 35.608-52.528 35.608 23.518 35.608 52.528z" fill="#27282c"/>
  <g transform="translate(285 -79.286)">
   <path transform="matrix(.60861 -.39501 .29192 .44977 -101.04 675.7)" d="m629.83 223.03c0 29.01-15.942 52.528-35.608 52.528s-35.608-23.518-35.608-52.528 15.942-52.528 35.608-52.528 35.608 23.518 35.608 52.528z"/>
   <path transform="matrix(.59224 -.38988 .28406 .44393 -91.703 672.53)" d="m629.83 223.03c0 29.01-15.942 52.528-35.608 52.528s-35.608-23.518-35.608-52.528 15.942-52.528 35.608-52.528 35.608 23.518 35.608 52.528z" fill="#9e220d"/>
   <path d="m322.56 513.1c6.6598 1.6397 12.896 5.971 17.094 12.531 8.2365 12.872 5.4845 29.524-6.1562 37.188-4.229 2.784-9.0544 3.9802-13.875 3.7812 6.3994 1.5683 13.175 0.68982 18.875-3.0625 11.641-7.6633 14.393-24.347 6.1562-37.219-5.238-8.1859-13.655-12.86-22.094-13.219z" fill="#f23109"/>
  </g>
  <path transform="matrix(.90216 0 0 .6159 97.636 354.29)" d="m629.83 223.03c0 29.01-15.942 52.528-35.608 52.528s-35.608-23.518-35.608-52.528 15.942-52.528 35.608-52.528 35.608 23.518 35.608 52.528z"/>
  <g transform="matrix(.97748 0 0 1.0628 14.961 -32.067)">
   <path transform="matrix(.89089 0 0 .54103 103.33 372.62)" d="m629.83 223.03c0 29.01-15.942 52.528-35.608 52.528s-35.608-23.518-35.608-52.528 15.942-52.528 35.608-52.528 35.608 23.518 35.608 52.528z" fill="#27282c"/>
   <path d="m632.68 465.64c-0.96061 0-1.9082 0.0399-2.8463 0.11763 15.546 1.3016 27.744 13.054 27.744 27.32s-12.198 25.989-27.744 27.29c0.93813 0.0777 1.8857 0.11763 2.8463 0.11763 16.895 0 30.59-12.272 30.59-27.408s-13.695-27.437-30.59-27.437z" fill="#4c505a"/>
  </g>
  <path d="m620 499.51c0 7.1008-6.0761 12.857-13.571 12.857-7.4953 0-13.571-5.7563-13.571-12.857 0-7.1008 6.0761-12.857 13.571-12.857 7.4953 0 13.571 5.7563 13.571 12.857z" fill="#27282c"/>
  <path transform="matrix(.50822 0 0 .30766 176.58 427.32)" d="m629.83 223.03c0 29.01-15.942 52.528-35.608 52.528s-35.608-23.518-35.608-52.528 15.942-52.528 35.608-52.528 35.608 23.518 35.608 52.528z" fill="#27282c"/>
  <g transform="translate(129.29 50.714)">
   <path transform="rotate(7.1836)" d="m432.79 300.4h10.714a13.571 14.286 0 0 1 13.571 14.286 13.571 14.286 0 0 1 -13.571 14.286h-10.714a13.571 14.286 0 0 1 -13.571 -14.286 13.571 14.286 0 0 1 13.571 -14.286" fill="#280b0b"/>
   <path d="m375 349.5-2.8438 29.281 42.844 7.5 3.5625-32.844l-43.56-3.94zm7 6.1562 27.812 2.5-2.2812 21l-27.34-4.78 1.81-18.72z" fill="url(#b)" fill-rule="evenodd" stroke="#000"/>
  </g>
  <path d="m566.69 292.53c-6.9199 0-12.942 3.9008-16.031 9.625-2.7076-1.6044-5.8521-2.5312-9.2188-2.5312-4.4354 0-8.4941 1.5955-11.656 4.25-2.5487-1.3646-5.4453-2.1562-8.5312-2.1562-10.065 0-18.25 8.207-18.25 18.344 0 0.30598 0.0165 0.60393 0.0312 0.90625-9.0997 1.0287-16.187 8.7812-16.188 18.219 0 1.234 0.11294 2.459 0.34375 3.625-5.5091 2.6302-9.49 7.9517-10.281 14.281-2.0203 2.9562-3.1875 6.5176-3.1875 10.375 0 10.137 8.1534 18.375 18.219 18.375 8.0523 0 14.868-5.2949 17.281-12.594 0.36346 0.37324 0.7625 0.72144 1.1562 1.0625-0.19264 1.0679-0.3125 2.1587-0.3125 3.2812 0 10.137 8.1846 18.344 18.25 18.344 6.4467 0 12.101-3.3789 15.344-8.4688 3.1086 5.6564 9.0988 9.5 15.969 9.5 10.065 0 18.25-8.2383 18.25-18.375 0-1.1065-0.12599-2.1972-0.3125-3.25 8.2436-1.762 14.437-9.1442 14.438-17.969 0-1.8012-0.26937-3.5424-0.75-5.1875 8.4754-1.5788 14.906-9.041 14.906-18.031 0-3.412-0.95065-6.6054-2.5625-9.3438 2.2271-3.045 3.5625-6.8058 3.5625-10.875 0-10.137-8.1847-18.375-18.25-18.375-3.3551 0-6.4861 0.93701-9.1875 2.5312-3.3109-3.4078-7.9267-5.5625-13.031-5.5625z"/>
  <path transform="matrix(.28695 .12834 -.12757 .24083 529.06 257.58)" d="m629.83 223.03c0 29.01-15.942 52.528-35.608 52.528s-35.608-23.518-35.608-52.528 15.942-52.528 35.608-52.528 35.608 23.518 35.608 52.528z" fill="#e3c0a7"/>
  <path transform="matrix(.34277 0 0 .29541 450.64 330.64)" d="m629.83 223.03c0 29.01-15.942 52.528-35.608 52.528s-35.608-23.518-35.608-52.528 15.942-52.528 35.608-52.528 35.608 23.518 35.608 52.528z" fill="#e3c0a7" stroke="#000" stroke-width="3.6516"/>
  <path transform="matrix(.3285 -.01868 .01706 .30004 455.83 338.18)" d="m629.83 223.03c0 29.01-15.942 52.528-35.608 52.528s-35.608-23.518-35.608-52.528 15.942-52.528 35.608-52.528 35.608 23.518 35.608 52.528z" fill="#e3c0a7"/>
  <path transform="matrix(-.08412 -.31809 .29053 -.07683 627.9 595.6)" d="m629.83 223.03c0 29.01-15.942 52.528-35.608 52.528s-35.608-23.518-35.608-52.528 15.942-52.528 35.608-52.528 35.608 23.518 35.608 52.528z" fill="#e3c0a7"/>
  <path transform="matrix(.47482 0 0 .31975 382.28 300.96)" d="m629.83 223.03c0 29.01-15.942 52.528-35.608 52.528s-35.608-23.518-35.608-52.528 15.942-52.528 35.608-52.528 35.608 23.518 35.608 52.528z" fill="#e3c0a7"/>
  <path transform="matrix(.47482 0 0 .31975 363.84 304.75)" d="m629.83 223.03c0 29.01-15.942 52.528-35.608 52.528s-35.608-23.518-35.608-52.528 15.942-52.528 35.608-52.528 35.608 23.518 35.608 52.528z" fill="#e3c0a7"/>
  <path transform="matrix(.45562 0 0 .29723 318.04 246.85)" d="m629.83 223.03c0 29.01-15.942 52.528-35.608 52.528s-35.608-23.518-35.608-52.528 15.942-52.528 35.608-52.528 35.608 23.518 35.608 52.528z" fill="#fafafb" stroke="#f1f3ed" stroke-linecap="round" stroke-linejoin="round" stroke-width="5.4235"/>
  <path transform="matrix(.45562 0 0 .29723 317.12 267.86)" d="m629.83 223.03c0 29.01-15.942 52.528-35.608 52.528s-35.608-23.518-35.608-52.528 15.942-52.528 35.608-52.528 35.608 23.518 35.608 52.528z" fill="#fafafb" stroke="#f1f3ed" stroke-linecap="round" stroke-linejoin="round" stroke-width="5.4235"/>
  <path transform="matrix(.45562 0 0 .29723 302.47 291.43)" d="m629.83 223.03c0 29.01-15.942 52.528-35.608 52.528s-35.608-23.518-35.608-52.528 15.942-52.528 35.608-52.528 35.608 23.518 35.608 52.528z" fill="#fafafb" stroke="#f1f3ed" stroke-linecap="round" stroke-linejoin="round" stroke-width="5.4235"/>
  <path transform="matrix(.45562 0 0 .29723 288.54 312.86)" d="m629.83 223.03c0 29.01-15.942 52.528-35.608 52.528s-35.608-23.518-35.608-52.528 15.942-52.528 35.608-52.528 35.608 23.518 35.608 52.528z" fill="#fafafb" stroke="#f1f3ed" stroke-linecap="round" stroke-linejoin="round" stroke-width="5.4235"/>
  <path transform="matrix(.45562 0 0 .29723 257.83 311.79)" d="m629.83 223.03c0 29.01-15.942 52.528-35.608 52.528s-35.608-23.518-35.608-52.528 15.942-52.528 35.608-52.528 35.608 23.518 35.608 52.528z" fill="#fafafb" stroke="#f1f3ed" stroke-linecap="round" stroke-linejoin="round" stroke-width="5.4235"/>
  <path transform="matrix(.45562 0 0 .29723 221.04 301.43)" d="m629.83 223.03c0 29.01-15.942 52.528-35.608 52.528s-35.608-23.518-35.608-52.528 15.942-52.528 35.608-52.528 35.608 23.518 35.608 52.528z" fill="#fafafb" stroke="#f1f3ed" stroke-linecap="round" stroke-linejoin="round" stroke-width="5.4235"/>
  <path transform="matrix(.45562 0 0 .29723 224.26 292.5)" d="m629.83 223.03c0 29.01-15.942 52.528-35.608 52.528s-35.608-23.518-35.608-52.528 15.942-52.528 35.608-52.528 35.608 23.518 35.608 52.528z" fill="#fafafb" stroke="#f1f3ed" stroke-linecap="round" stroke-linejoin="round" stroke-width="5.4235"/>
  <path transform="matrix(.45562 0 0 .29723 234.62 272.5)" d="m629.83 223.03c0 29.01-15.942 52.528-35.608 52.528s-35.608-23.518-35.608-52.528 15.942-52.528 35.608-52.528 35.608 23.518 35.608 52.528z" fill="#fafafb" stroke="#f1f3ed" stroke-linecap="round" stroke-linejoin="round" stroke-width="5.4235"/>
  <path transform="matrix(.45562 0 0 .29723 250.69 253.21)" d="m629.83 223.03c0 29.01-15.942 52.528-35.608 52.528s-35.608-23.518-35.608-52.528 15.942-52.528 35.608-52.528 35.608 23.518 35.608 52.528z" fill="#fafafb" stroke="#f1f3ed" stroke-linecap="round" stroke-linejoin="round" stroke-width="5.4235"/>
  <path transform="matrix(.45562 0 0 .29723 271.04 250.71)" d="m629.83 223.03c0 29.01-15.942 52.528-35.608 52.528s-35.608-23.518-35.608-52.528 15.942-52.528 35.608-52.528 35.608 23.518 35.608 52.528z" fill="#fafafb" stroke="#f1f3ed" stroke-linecap="round" stroke-linejoin="round" stroke-width="5.4235"/>
  <path transform="matrix(.45562 0 0 .29723 295.69 243.57)" d="m629.83 223.03c0 29.01-15.942 52.528-35.608 52.528s-35.608-23.518-35.608-52.528 15.942-52.528 35.608-52.528 35.608 23.518 35.608 52.528z" fill="#fafafb" stroke="#f1f3ed" stroke-linecap="round" stroke-linejoin="round" stroke-width="5.4235"/>
  <path transform="matrix(.45562 0 0 .29723 291.04 263.93)" d="m629.83 223.03c0 29.01-15.942 52.528-35.608 52.528s-35.608-23.518-35.608-52.528 15.942-52.528 35.608-52.528 35.608 23.518 35.608 52.528z" fill="#fafafb" stroke="#f1f3ed" stroke-linecap="round" stroke-linejoin="round" stroke-width="5.4235"/>
  <path transform="matrix(.45562 0 0 .29723 277.12 289.29)" d="m629.83 223.03c0 29.01-15.942 52.528-35.608 52.528s-35.608-23.518-35.608-52.528 15.942-52.528 35.608-52.528 35.608 23.518 35.608 52.528z" fill="#fafafb" stroke="#f1f3ed" stroke-linecap="round" stroke-linejoin="round" stroke-width="5.4235"/>
  <path transform="matrix(.45562 0 0 .29723 262.83 270)" d="m629.83 223.03c0 29.01-15.942 52.528-35.608 52.528s-35.608-23.518-35.608-52.528 15.942-52.528 35.608-52.528 35.608 23.518 35.608 52.528z" fill="#fafafb" stroke="#f1f3ed" stroke-linecap="round" stroke-linejoin="round" stroke-width="5.4235"/>
  <path transform="matrix(.45562 0 0 .29723 249.26 292.86)" d="m629.83 223.03c0 29.01-15.942 52.528-35.608 52.528s-35.608-23.518-35.608-52.528 15.942-52.528 35.608-52.528 35.608 23.518 35.608 52.528z" fill="#fafafb" stroke="#f1f3ed" stroke-linecap="round" stroke-linejoin="round" stroke-width="5.4235"/>
  <g transform="matrix(.87472 0 0 1 71.338 0)">
   <path transform="matrix(.44865 .39034 -.4292 .34039 370.06 -30.291)" d="m629.83 223.03c0 29.01-15.942 52.528-35.608 52.528s-35.608-23.518-35.608-52.528 15.942-52.528 35.608-52.528 35.608 23.518 35.608 52.528z" fill="#e3c0a7" stroke="#000" stroke-width="3.1048"/>
   <path d="m547.5 255.43c-7.3757 0.18634-15.532 3.1236-22.248 8.5457-11.941 9.6392-14.758 23.546-6.2966 31.039 1.211 1.0724 2.5724 1.9572 4.0778 2.6553l-0.20989-0.18312c-8.4612-7.4933-5.644-21.4 6.2966-31.039 10.213-8.2445 23.789-10.709 32.802-6.5619-3.6858-3.1239-8.8172-4.5976-14.422-4.456z" fill="#eed6cc"/>
   <path d="m567.02 266.91c-0.35305 6.4465-4.234 13.549-11.276 19.204-12.103 9.72-28.897 11.495-37.474 3.9393-2.2558-1.9874-3.6938-4.4233-4.4069-7.1093-0.25379 4.634 1.3064 8.9042 4.8932 12.064 8.5764 7.556 25.371 5.8114 37.474-3.9086 8.9199-7.1634 12.787-16.664 10.789-24.19z" fill="#c8b7b7"/>
   <path transform="matrix(1.7209 0 0 1.6667 -377.86 -180.5)" d="m540.94 276.82c0 5.4394-4.8618 9.849-10.859 9.849-5.9973 0-10.859-4.4095-10.859-9.849 0-5.4394 4.8618-9.849 10.859-9.849 5.9973 0 10.859 4.4095 10.859 9.849z" fill="url(#a)" filter="url(#e)" opacity=".85502"/>
  </g>
  <path d="m532.86 476.29-1.7857 7.5c2.2619-4.7786 3.0952-7.7304 5.3572-7.8572l-3.5714 0.35715z" fill-rule="evenodd" stroke="#000"/>
  <path d="m568.68 477.93 0.92757 7.4289c-1.1749-4.7333-1.6078-7.6572-2.7827-7.7827l1.8551 0.35377z" fill-rule="evenodd" stroke="#000" stroke-width=".7173"/>
  <path d="m638.1 166.09 5.6074 5.2911c-4.5126-2.7545-6.8287-4.7653-8.7894-3.6304l3.182-1.6606z" fill-rule="evenodd" stroke="#000"/>
  <path d="m566.15 140-4.5174-6.2476c2.1446 4.8324 3.8373 7.3902 2.4572 9.1867l2.0601-2.9391z" fill-rule="evenodd" stroke="#000"/>
  <path d="m591.44 124.76-0.11143-6.1956c-0.44448 4.1835-0.46048 6.6493-1.482 7.2225l1.5934-1.0269z" fill-rule="evenodd" stroke="#000" stroke-width=".618"/>
 </g>
</svg>
