<?xml version='1.0' encoding='utf-8'?>
<svg xmlns="http://www.w3.org/2000/svg" width="793.70081" height="1122.5197" viewBox="0 0 210 297" version="1.1" id="svg4256"> <defs id="defs4250"/> <metadata id="metadata4253"> </metadata> <g id="layer1"> <path id="path4968" d="m 7998.6478,-1637.8046 -5475.6886,-3161.3903 -5475.6881,3161.3903 5475.6881,3161.39 z" style="fill:#217821;stroke:none;stroke-width:4.8636775px;stroke-linecap:butt;stroke-linejoin:miter;stroke-opacity:1"/> <path id="path4970" d="m 6735.0275,-1394.6208 -4212.0683,-2431.8386 -4212.069,2431.8386 4212.069,2431.8388 z" style="fill:#53536c;stroke:none;stroke-width:4.8636775px;stroke-linecap:butt;stroke-linejoin:miter;stroke-opacity:1"/> <path id="path4972" d="m 6735.0275,-1394.6208 421.2069,-243.1838 -4633.2752,-2675.0226 v 486.3678 z" style="fill:#16502d;stroke:none;stroke-width:4.8636775px;stroke-linecap:butt;stroke-linejoin:miter;stroke-opacity:1"/> <path id="path4974" d="m 2522.9592,-4312.8272 -4633.2762,2675.0226 421.2072,243.1838 4212.069,-2431.8386 z" style="fill:#37c871;fill-opacity:1;stroke:none;stroke-width:4.8636775px;stroke-linecap:butt;stroke-linejoin:miter;stroke-opacity:1"/> <path id="path4976" d="m 2522.9592,-3826.4594 -421.2067,243.184 4212.0682,2431.8385 421.2068,-243.1839 z" style="fill:#3a3a4e;fill-opacity:1;stroke:none;stroke-width:4.8636775px;stroke-linecap:butt;stroke-linejoin:miter;stroke-opacity:1"/> <path id="path4978" d="m 7998.6478,-1637.8046 v 486.3677 L 2522.9592,2009.953 v -486.3676 z" style="fill:#de8787;fill-opacity:1;stroke:none;stroke-width:4.8636775px;stroke-linecap:butt;stroke-linejoin:miter;stroke-opacity:1"/> <path id="path4980" d="m -2952.7289,-1637.8046 v 486.3677 L 2522.9592,2009.953 v -486.3676 z" style="fill:#16502d;fill-opacity:1;stroke:none;stroke-width:4.8636775px;stroke-linecap:butt;stroke-linejoin:miter;stroke-opacity:1"/> <path id="path4982" d="M 7577.4458,-908.25352 V 3955.4237 L 4628.9931,5657.7109 4207.7916,5414.527 2944.1661,6144.0786 v 486.3678 l -421.2022,243.1838 V 2009.9525 Z" style="fill:#ececec;stroke:none;stroke-width:4.8636775px;stroke-linecap:butt;stroke-linejoin:miter;stroke-opacity:1"/> <path style="fill:#b3b3b3;stroke:none;stroke-width:4.8636775px;stroke-linecap:butt;stroke-linejoin:miter;stroke-opacity:1" d="M -2531.5224,-908.25252 V 3955.4246 L 2522.9592,6873.6311 V 2009.9536 Z" id="path4984"/> <path id="path4986" d="M 2522.9592,2496.3207 -2531.5238,-421.88528 V -908.25302 L 2522.9592,2009.953 Z" style="fill:#999999;stroke:none;stroke-width:4.8636775px;stroke-linecap:butt;stroke-linejoin:miter;stroke-opacity:1"/> <path id="path4988" d="M 2944.1661,6144.0789 V 3225.8725 l 1263.6204,-729.5518 v 2918.2066 z" style="fill:#2ad4ff;stroke:none;stroke-width:4.8636775px;stroke-linecap:butt;stroke-linejoin:miter;stroke-opacity:1"/> <path id="path4990" d="M 4207.7865,2496.3207 4628.9931,2253.137 V 5657.7111 L 4207.7865,5414.5273 Z" style="fill:#b3b3b3;fill-opacity:1;stroke:none;stroke-width:4.8636775px;stroke-linecap:butt;stroke-linejoin:miter;stroke-opacity:1"/> <path id="path4992" d="m 4207.7865,4928.1598 421.2066,243.1838 v 486.3675 l -421.2066,-243.1838 z" style="fill:#16502d;fill-opacity:1;stroke:none;stroke-width:4.8636775px;stroke-linecap:butt;stroke-linejoin:miter;stroke-opacity:1"/> <path id="path4994" d="m 2944.1661,6144.0789 -421.2069,243.1838 v 486.3679 l 421.2069,-243.1836 z" style="fill:#37c871;fill-opacity:1;stroke:none;stroke-width:4.8636775px;stroke-linecap:butt;stroke-linejoin:miter;stroke-opacity:1"/> <path id="path4996" d="m 4628.9931,5171.3436 v 486.3675 L 7577.441,3955.4241 V 3469.057 Z" style="fill:#37c871;fill-opacity:1;stroke:none;stroke-width:4.8636775px;stroke-linecap:butt;stroke-linejoin:miter;stroke-opacity:1"/> <path id="path4998" d="m 2522.9592,6387.2627 -5054.483,-2918.2064 v 486.3678 l 5054.483,2918.2065 z" style="fill:#16502d;fill-opacity:1;stroke:none;stroke-width:4.8636775px;stroke-linecap:butt;stroke-linejoin:miter;stroke-opacity:1"/> <path id="path5000" d="M 5050.2004,2009.953 7156.2344,794.03417 V 2739.5047 l -2106.034,1215.9194 z" style="fill:#2ad4ff;fill-opacity:1;stroke:none;stroke-width:4.8636775px;stroke-linecap:butt;stroke-linejoin:miter;stroke-opacity:1"/> <path id="path5002" d="M 7156.2344,794.03417 6735.0275,1037.218 v 1459.1027 l 421.2069,243.184 z" style="fill:#b3b3b3;fill-opacity:1;stroke:none;stroke-width:4.8636775px;stroke-linecap:butt;stroke-linejoin:miter;stroke-opacity:1"/> <path id="path5004" d="m 5050.2004,3955.4241 2106.034,-1215.9194 -421.2069,-243.184 -1684.8271,972.7356 z" style="fill:#ffffff;stroke:none;stroke-width:4.8636775px;stroke-linecap:butt;stroke-linejoin:miter;stroke-opacity:1"/> <path id="path5018" d="M 10104.682,3955.4241 2522.9592,8332.7338 -5058.7645,3955.4241 -2531.5238,2496.3207 v 1459.1034 l 5054.483,2918.2065 421.2069,-243.1836 v -486.3681 l 1263.6204,-729.5516 421.2066,243.1838 2948.4481,-1702.287 V 2496.3207 Z" style="fill:#53536c;fill-opacity:1;stroke:none;stroke-width:4.8636775px;stroke-linecap:butt;stroke-linejoin:miter;stroke-opacity:1"/> <path id="path5020" d="M 10104.682,3955.4241 V 4441.792 L 2522.9592,8819.1019 v -486.3681 z" style="fill:#9090aa;fill-opacity:1;stroke:none;stroke-width:4.8636775px;stroke-linecap:butt;stroke-linejoin:miter;stroke-opacity:1"/> <path id="path5022" d="M -5058.7645,3955.4241 V 4441.792 L 2522.9592,8819.1019 V 8332.7338 Z" style="fill:#3a3a4e;fill-opacity:1;stroke:none;stroke-width:4.8636775px;stroke-linecap:butt;stroke-linejoin:miter;stroke-opacity:1"/> <path id="path5024" d="m 4207.7865,4928.1598 -1263.6204,729.5513 v 486.3678 l 1263.6204,-729.5516 z" style="fill:#3a3a4e;fill-opacity:1;stroke:none;stroke-width:4.8636775px;stroke-linecap:butt;stroke-linejoin:miter;stroke-opacity:1"/> <path id="path5034" d="M 7998.6481,-1637.8046 8841.0617,-178.70142 3365.3728,2982.6887 2522.9597,1523.5854 Z" style="fill:#37c871;fill-opacity:1;stroke:none;stroke-width:4.8636775px;stroke-linecap:butt;stroke-linejoin:miter;stroke-opacity:1"/> <path id="path5036" d="m 3365.3728,2982.6887 -842.4136,-486.368 v -972.7353 z" style="fill:#16502d;fill-opacity:1;stroke:none;stroke-width:4.8636775px;stroke-linecap:butt;stroke-linejoin:miter;stroke-opacity:1"/> <path id="path5038" d="M 8841.0615,-178.70142 V 307.66632 L 3365.3728,3469.0563 v -486.3676 z" style="fill:#217821;fill-opacity:1;stroke:none;stroke-width:4.8636775px;stroke-linecap:butt;stroke-linejoin:miter;stroke-opacity:1"/> <path id="path5040" d="m 2522.9592,2496.3207 v 486.368 l 842.4136,486.3676 v -486.3676 z" style="fill:#16502d;fill-opacity:1;stroke:none;stroke-width:4.8636775px;stroke-linecap:butt;stroke-linejoin:miter;stroke-opacity:1"/> <path id="path5042" d="M 7577.4412,-1394.6208 8419.8546,64.482449 7998.6478,307.66632 7156.2344,-1151.4369 Z" style="fill:#ffffff;stroke:none;stroke-width:4.8636775px;stroke-linecap:butt;stroke-linejoin:miter;stroke-opacity:1"/> <path id="path5044" d="M 7998.6478,794.03417 V 307.66632 L 8419.8546,64.482449 V 550.85018 Z" style="fill:#b3b3b3;stroke:none;stroke-width:4.8636775px;stroke-linecap:butt;stroke-linejoin:miter;stroke-opacity:1"/> <path style="fill:#ffffff;stroke:none;stroke-width:4.8636775px;stroke-linecap:butt;stroke-linejoin:miter;stroke-opacity:1" d="M 6735.0275,-908.25302 7577.4412,550.85018 7156.2344,794.03417 6313.8207,-665.06915 Z" id="path5046"/> <path style="fill:#b3b3b3;stroke:none;stroke-width:4.8636775px;stroke-linecap:butt;stroke-linejoin:miter;stroke-opacity:1" d="M 7156.2344,1280.402 V 794.03417 L 7577.4412,550.85018 V 1037.218 Z" id="path5048"/> <path id="path5050" d="M 5892.6139,-421.88528 6735.0275,1037.218 6313.8207,1280.402 5471.407,-178.70142 Z" style="fill:#ffffff;stroke:none;stroke-width:4.8636775px;stroke-linecap:butt;stroke-linejoin:miter;stroke-opacity:1"/> <path id="path5052" d="M 6313.8207,1766.7696 V 1280.402 l 421.2068,-243.184 v 486.3678 z" style="fill:#b3b3b3;stroke:none;stroke-width:4.8636775px;stroke-linecap:butt;stroke-linejoin:miter;stroke-opacity:1"/> <path style="fill:#ffffff;stroke:none;stroke-width:4.8636775px;stroke-linecap:butt;stroke-linejoin:miter;stroke-opacity:1" d="M 5892.6139,-421.88528 6735.0275,1037.218 6313.8207,1280.402 5471.407,-178.70142 Z" id="path5054"/> <path style="fill:#b3b3b3;stroke:none;stroke-width:4.8636775px;stroke-linecap:butt;stroke-linejoin:miter;stroke-opacity:1" d="m 5471.407,2253.1374 v -486.3678 l 421.2069,-243.1838 v 486.3678 z" id="path5056"/> <path id="path5058" d="M 5050.2004,64.482449 5892.6139,1523.5858 5471.407,1766.7696 4628.9931,307.66582 Z" style="fill:#ffffff;stroke:none;stroke-width:4.8636775px;stroke-linecap:butt;stroke-linejoin:miter;stroke-opacity:1"/> <path id="path5060" d="m 4628.9931,2739.5052 v -486.3678 l 421.2068,-243.1838 v 486.3678 z" style="fill:#b3b3b3;stroke:none;stroke-width:4.8636775px;stroke-linecap:butt;stroke-linejoin:miter;stroke-opacity:1"/> <path style="fill:#ffffff;stroke:none;stroke-width:4.8636775px;stroke-linecap:butt;stroke-linejoin:miter;stroke-opacity:1" d="M 4207.7865,550.85018 5050.1999,2009.9536 4628.9931,2253.1374 3786.5799,794.03417 Z" id="path5062"/> <path style="fill:#b3b3b3;stroke:none;stroke-width:4.8636775px;stroke-linecap:butt;stroke-linejoin:miter;stroke-opacity:1" d="m 3786.5794,3225.873 v -486.3678 l 421.2071,-243.1838 v 486.3676 z" id="path5064"/> <path id="path5066" d="M 3365.3728,1037.218 4207.7865,2496.3214 3786.5794,2739.5052 2944.1661,1280.402 Z" style="fill:#ffffff;stroke:none;stroke-width:4.8636775px;stroke-linecap:butt;stroke-linejoin:miter;stroke-opacity:1"/> <path id="path5068" d="m 7577.4412,1037.218 v 486.3674 L 3365.3728,3955.4241 2522.9592,3469.0563 v -486.3676 l 842.4136,486.3676 z" style="opacity:0.25200004;fill:#000000;stroke:none;stroke-width:4.8636775px;stroke-linecap:butt;stroke-linejoin:miter;stroke-opacity:1"/> <g id="g3864" transform="matrix(-18.382403,0,0,18.382403,20464.86,-3881.1059)"> <path id="path5006" d="m 1008.1979,365.54166 114.5679,-66.14581 v 105.83331 l -114.5679,66.14583 z" style="fill:#2ad4ff;fill-opacity:1;stroke:none;stroke-width:0.26458332px;stroke-linecap:butt;stroke-linejoin:miter;stroke-opacity:1"/> <path id="path5008" d="m 1122.7658,299.39585 -22.9135,13.22917 v 79.37497 l 22.9135,13.22917 z" style="fill:#999999;fill-opacity:1;stroke:none;stroke-width:0.26458332px;stroke-linecap:butt;stroke-linejoin:miter;stroke-opacity:1"/> <path id="path5010" d="m 1008.1979,471.37499 114.5679,-66.14583 -22.9135,-13.22917 -91.6544,52.91667 z" style="fill:#ffffff;stroke:none;stroke-width:0.26458332px;stroke-linecap:butt;stroke-linejoin:miter;stroke-opacity:1"/> <path style="fill:#2ad4ff;fill-opacity:1;stroke:none;stroke-width:0.26458332px;stroke-linecap:butt;stroke-linejoin:miter;stroke-opacity:1" d="m 1122.7658,299.39583 114.568,-66.14581 v 105.83331 l -114.568,66.1458 z" id="path5012"/> <path style="fill:#999999;fill-opacity:1;stroke:none;stroke-width:0.26458332px;stroke-linecap:butt;stroke-linejoin:miter;stroke-opacity:1" d="m 1237.3338,233.25002 -22.9136,13.22917 v 79.37497 l 22.9136,13.22917 z" id="path5014"/> <path style="fill:#ffffff;stroke:none;stroke-width:0.26458332px;stroke-linecap:butt;stroke-linejoin:miter;stroke-opacity:1" d="m 1122.7658,405.22913 114.568,-66.1458 -22.9136,-13.22917 -91.6544,52.91667 z" id="path5016"/> </g> </g> </svg>