<?xml version="1.0" encoding="utf-8"?>
<!-- Generator: Adobe Illustrator 24.0.2, SVG Export Plug-In . SVG Version: 6.00 Build 0)  -->
<svg version="1.1" id="Warstwa_2" xmlns="http://www.w3.org/2000/svg" xmlns:xlink="http://www.w3.org/1999/xlink" x="0px" y="0px"
	 viewBox="0 0 1909.3793945 2160" style="enable-background:new 0 0 1909.3793945 2160;" xml:space="preserve">
<style type="text/css">
	.st0{fill:#42BCED;stroke:#000000;stroke-width:5;stroke-miterlimit:10;}
</style>
<path class="st0" d="M1765.3319092,1475.2666016c-21.6799316-12.5266113-47.2670898-12.1323242-67.8791504-1.2285156
	l-121.6547852-70.2912598l116.6826172-53.8563232c18.4921875-8.5352783,26.5634766-30.4449463,18.0285645-48.9371338h-0.0002441
	c-8.5351563-18.4916992-30.4448242-26.5634766-48.9365234-18.0283203l-163.9299316,75.6640625l-131.4924316-75.9753418
	l139.3320313-64.3105469c21.1430664-9.7587891,30.371582-34.8093262,20.612793-55.9521484v-0.0001221
	c-9.7587891-21.1427002-34.8093262-30.37146-55.9521484-20.6126709l-193.3522949,89.2441406l-130.682373-75.5070801
	l-2.8852539-129.9787598l128.6623535-78.8999634l195.6206055,84.1558228
	c21.3908691,9.2021484,46.1914063-0.6784668,55.3935547-22.0695801h0.0002441
	c9.2021484-21.3908691-0.6787109-46.1914063-22.0693359-55.3936768l-140.9667969-60.6436157l129.4602051-79.3891602
	l165.8527832,71.3496704c18.7089844,8.048584,40.3999023-0.5934448,48.4484863-19.3021851
	c8.0483398-18.7091675-0.5935059-40.4002075-19.302002-48.4483643l-118.052002-50.7857666l119.7746582-73.449585
	c20.8901367,10.3607178,46.4787598,10.0856323,67.8237305-3.0037842
	c32.9912109-20.2312622,43.3349609-63.376709,23.1037598-96.3679199s-63.376709-43.335144-96.3679199-23.1038208
	c-21.3447266,13.0893555-33.192627,35.7715454-33.4304199,59.088623l-119.7746582,73.449585l8.2636719-128.2461548
	c1.3095703-20.3245239-14.1049805-37.8623657-34.4294434-39.1721802l-0.0002441,0.000061
	c-20.3242188-1.3095093-37.8623047,14.1049194-39.171875,34.4293213l-11.6096191,180.1756592l-129.4599609,79.3890381
	l9.8676758-153.1401367c1.4973145-23.2382202-16.1271973-43.2901611-39.3652344-44.7876587v0.000061
	c-23.2380371-1.4972534-43.2902832,16.1268921-44.7873535,39.3650513l-13.6933594,212.513855l-128.6623535,78.8999023
	l-109.6831665-94.2789917V716.902832l174.0046997-122.7681274c19.0268555-13.4245605,23.5688477-39.7317505,10.144043-58.7589722
	v-0.000061c-13.4245605-19.0270996-39.7316895-23.5689087-58.7587891-10.1444092L994.6687622,613.699707V461.8360596
	l147.5261841-104.0864868c16.6416016-11.741333,20.6137695-34.7501221,8.8725586-51.3916626v-0.000061
	c-11.7416992-16.6414795-34.7504883-20.6138306-51.3916016-8.8724976l-105.0071411,74.0872803V231.0707397
	c19.7529297-12.3920898,32.8953247-34.3496094,32.8953247-59.3883667c0-38.7004395-31.3731079-70.0733032-70.0735474-70.0733032
	s-70.0732422,31.3728638-70.0732422,70.0733032c0,25.0386963,13.142334,46.9962769,32.8952637,59.3883667v140.5018311
	l-105.0068359-74.0872192c-16.6416016-11.741333-39.6503906-7.7689819-51.3919678,8.8724976v0.000061
	c-11.7412109,16.6415405-7.769043,39.6503296,8.8724365,51.3916626L920.312561,461.8361206V613.699646l-125.3898926-88.4683838
	c-19.0273438-13.4244995-45.3344727-8.8826904-58.7591553,10.1444092v0.000061
	c-13.4244385,19.0272217-8.8828125,45.3344116,10.1444092,58.7589722L920.312561,716.9028931v150.9277954l-122.3967285,94.2789917
	L669.253479,883.2097778l-13.6933594-212.513855c-1.4973145-23.2381592-21.5493164-40.8623047-44.7873535-39.3650513
	l-0.0001221-0.000061c-23.2381592,1.4974976-40.8624268,21.5494385-39.3651123,44.7876587l9.8676758,153.1401367
	l-129.4602051-79.3890381l-11.6094971-180.1756592c-1.3095703-20.3244019-18.8475342-35.7388306-39.1719971-34.4293213v-0.000061
	c-20.324585,1.3098145-35.7391357,18.8476563-34.4295654,39.1721802l8.2635498,128.2461548l-119.7743988-73.449585
	c-0.237793-23.3170776-12.0856934-45.9992676-33.4306641-59.088623
	c-32.9912109-20.2313232-76.1364746-9.8873901-96.3676758,23.1038208
	c-20.2313232,32.9912109-9.8874512,76.1366577,23.1037598,96.3679199
	c21.3449707,13.0894165,46.9335938,13.364502,67.8237305,3.0037842l119.7743988,73.449585l-118.0517426,50.7857666
	c-18.7084961,8.0481567-27.3504639,29.7391968-19.302124,48.4483643h0.0001221
	c8.048584,18.7087402,29.739502,27.350769,48.4483643,19.3021851l165.85289-71.3496704l129.4602051,79.3891602
	L401.437561,953.2891846c-21.3908691,9.2022705-31.2714844,34.0028076-22.0693359,55.3936768
	c9.2023926,21.3911133,34.0029297,31.2717285,55.3936768,22.0695801l195.6206055-84.1558228l128.6624756,78.8999634
	l5.9128418,129.9787598l-130.682373,75.5070801l-193.3522949-89.2441406
	c-21.1428223-9.7587891-46.1932373-0.5300293-55.9520264,20.6126709l-0.0001221,0.0001221
	c-9.7585449,21.1428223-0.5300293,46.1933594,20.612793,55.9521484l139.3322754,64.3105469l-131.4925537,75.9753418
	l-163.9297943-75.6640625c-18.4919434-8.5351563-40.4016113-0.4633789-48.9367676,18.0283203
	c-8.5351563,18.4921875-0.463623,40.4018555,18.0283203,48.9371338l116.6826019,53.8563232l-121.6547699,70.2912598
	c-20.6119385-10.9038086-46.1990967-11.2980957-67.8791504,1.2285156
	c-33.5090332,19.3613281-44.9781494,62.2211914-25.6168213,95.7303467s62.2213135,44.9783936,95.7305908,25.6170654
	c21.6799316-12.5266113,34.1171875-34.8911133,34.9648438-58.1939697l121.654892-70.2912598l-11.6156006,127.9862061
	c-1.8409424,20.282959,13.1096191,38.2180176,33.3930664,40.0592041v-0.0001221
	c20.2832031,1.8408203,38.2182617-13.1096191,40.059082-33.3928223l16.3188477-179.8100586l131.4926758-75.9754639
	l-13.8703613,152.8297119c-2.1047363,23.190918,14.9890137,43.6968994,38.1799316,45.8017578
	c23.1911621,2.1048584,43.6972656-14.9890137,45.802124-38.1796875l19.2476807-212.0830078l130.682373-75.5072021
	l118.1550293,88.5985107v150.9277344l-174.0046387,122.7681885c-19.0268555,13.4245605-23.5688477,39.7318115-10.144043,58.7589111
	v0.0001221c13.4245605,19.0270996,39.7316895,23.5689697,58.7587891,10.1444092l125.3898926-88.4685059v151.8637695
	l-147.526123,104.0864258c-16.6416016,11.741333-20.6137695,34.7501221-8.8725586,51.3916016v0.0001221
	c11.7416992,16.6414795,34.7504883,20.6138916,51.3916016,8.8724365l105.0070801-74.0871582v140.5018311
	c-19.7529297,12.3920898-32.8952637,34.3496094-32.8952637,59.3883057c0,38.7004395,31.3730469,70.0732422,70.0734863,70.0732422
	s70.0733032-31.3728027,70.0733032-70.0732422c0-25.0385742-13.142395-46.9962158-32.8953247-59.3883057v-140.5018311
	l105.006897,74.0871582c16.6416016,11.7414551,39.6503906,7.769043,51.3920898-8.8724365v-0.0001221
	c11.7412109-16.6414795,7.769043-39.6502686-8.8725586-51.3916016l-147.5264282-104.0865479V1562.586792l125.3899536,88.4683838
	c19.0273438,13.4245605,45.3344727,8.8826904,58.7592773-10.1444092v-0.0001221
	c13.4243164-19.0270996,8.8828125-45.3343506-10.1445313-58.7589111l-174.0046997-122.7681885v-150.9277344l114.2402954-88.5985107
	l130.6821289,75.5072021l19.2478027,212.0830078c2.1049805,23.1906738,22.6108398,40.2845459,45.802002,38.1796875
	c23.190918-2.1048584,40.284668-22.6108398,38.1801758-45.8017578l-13.8703613-152.8297119l131.4924316,75.9754639
	l16.3188477,179.8100586c1.8408203,20.2832031,19.7758789,35.2336426,40.0593262,33.3928223v0.0001221
	c20.2834473-1.8411865,35.2338867-19.7762451,33.3928223-40.0592041l-11.6154785-127.9862061l121.6550293,70.2912598
	c0.8476563,23.3028564,13.284668,45.6673584,34.9648438,58.1939697
	c33.5090332,19.3613281,76.3691406,7.8920898,95.7304688-25.6170654S1798.8409424,1494.6279297,1765.3319092,1475.2666016z"/>
</svg>
