<?xml version="1.0" encoding="UTF-8"?>
<svg viewBox="0 0 48 48" xmlns="http://www.w3.org/2000/svg" xmlns:xlink="http://www.w3.org/1999/xlink">
 <defs>
  <linearGradient id="a">
   <stop stop-color="#fff" offset="0"/>
   <stop stop-color="#fff" stop-opacity="0" offset="1"/>
  </linearGradient>
  <linearGradient id="b" x1="284.8" x2="288.9" y1="-441.23" y2="-436.83" gradientUnits="userSpaceOnUse" xlink:href="#a"/>
  <linearGradient id="c" x1="286.67" x2="289.77" y1="-439.48" y2="-436.71" gradientUnits="userSpaceOnUse" xlink:href="#a"/>
  <linearGradient id="d" x1="275.94" x2="279.98" y1="-437.11" y2="-431.92" gradientUnits="userSpaceOnUse" xlink:href="#a"/>
  <linearGradient id="e" x1="285.94" x2="289.39" y1="-439.94" y2="-436.44" gradientUnits="userSpaceOnUse" xlink:href="#a"/>
  <linearGradient id="f" x1="286.51" x2="289.85" y1="-441.29" y2="-436.14" gradientUnits="userSpaceOnUse" xlink:href="#a"/>
  <linearGradient id="g" x1="287.52" x2="289.68" y1="-439.75" y2="-436.32" gradientUnits="userSpaceOnUse" xlink:href="#a"/>
  <linearGradient id="h" x1="271.02" x2="285.03" y1="-441.05" y2="-431.97" gradientUnits="userSpaceOnUse" xlink:href="#a"/>
  <linearGradient id="i" x1="-156.29" x2="-153.1" y1="-100.53" y2="-96.545" gradientUnits="userSpaceOnUse" xlink:href="#a"/>
  <linearGradient id="j" x1="238" x2="245.65" y1="-388.47" y2="-382.65" gradientUnits="userSpaceOnUse" xlink:href="#a"/>
  <linearGradient id="k" x1="230.88" x2="235.26" y1="-390.44" y2="-386.96" gradientUnits="userSpaceOnUse" xlink:href="#a"/>
  <linearGradient id="l" x1="246.74" x2="252.7" y1="-391.31" y2="-385.35" gradientUnits="userSpaceOnUse" xlink:href="#a"/>
  <linearGradient id="m" x1="240.07" x2="245.83" y1="-393.41" y2="-388.55" gradientUnits="userSpaceOnUse" xlink:href="#a"/>
  <linearGradient id="n" x1="350.53" x2="400.94" y1="-290.31" y2="-273.38" gradientUnits="userSpaceOnUse" xlink:href="#a"/>
 </defs>
 <g transform="translate(-340.05 298)">
  <path d="m364.523-296c-2.77242,0-5.10823,1.57371-6.40625,3.8125-.94436-.47504-1.96519-.8125-3.09375-.8125-3.864,0-7,3.136-7,7s3.136,7 7,7c2.41967,0 4.43009-1.31932 5.6875-3.1875 1.1342.68962 2.38898,1.1875 3.8125,1.1875 .91312,0 1.75295-.23202 2.5625-.53125 .50994.86773 1.17912,1.57972 2,2.15625-.00724.13038-.0625.24282-.0625.375 0,3.864 3.13599,7 7,7s7-3.136 7-7c0-2.36969-1.25898-4.35834-3.0625-5.625 .00724-.13038.0625-.24282.0625-.375 0-3.864-3.13599-7-7-7-.6227,0-1.17519.22219-1.75.375-1.19453-2.55884-3.74134-4.375-6.75-4.375z" fill="#888a85"/>
  <path d="m364.52-295c-2.7805 0-5.1345 1.7618-6.0625 4.2188-0.98542-0.70944-2.1314-1.2188-3.4375-1.2188-3.312 0-6 2.688-6 6s2.688 6 6 6c2.4278 0 4.4932-1.4556 5.4375-3.5312 1.1208 0.91756 2.5021 1.5312 4.0625 1.5312 1.0745 0 2.0443-0.31896 2.9375-0.78125 0.3984 0.99976 1.1011 1.7863 1.9375 2.4375-0.18001 0.59562-0.375 1.1896-0.375 1.8438 0 3.588 2.912 6.5 6.5 6.5s6.5-2.912 6.5-6.5c0-2.3608-1.3343-4.3302-3.2188-5.4688 0.06259-0.34723 0.21875-0.66608 0.21875-1.0312 0-3.312-2.688-6-6-6-0.85298 0-1.6713 0.17868-2.4062 0.5-0.85377-2.5939-3.2152-4.5-6.0938-4.5z" fill="url(#n)"/>
  <path transform="matrix(.96445 0 0 .96445 142.31 91.526)" d="m248.55-383.67a6.7396 6.7396 0 1 1 -13.479 0 6.7396 6.7396 0 1 1 13.479 0z" fill="#c4c5c2"/>
  <path transform="matrix(.88263 0 0 .88263 149.2 55.109)" d="m250.18-389.3a6.2314 6.2314 0 1 1 -12.463 0 6.2314 6.2314 0 1 1 12.463 0z" fill="#c4c5c2"/>
  <path transform="matrix(.88263 0 0 .88263 149.2 55.109)" d="m250.18-389.3a6.2314 6.2314 0 1 1 -12.463 0 6.2314 6.2314 0 1 1 12.463 0z" fill="url(#m)"/>
  <path transform="matrix(.91173 0 0 .91173 143.48 67.234)" d="m257.25-385.79a6.0325 6.0325 0 1 1 -12.065 0 6.0325 6.0325 0 1 1 12.065 0z" fill="#c4c5c2"/>
  <path transform="matrix(.91173 0 0 .91173 143.48 67.234)" d="m257.25-385.79a6.0325 6.0325 0 1 1 -12.065 0 6.0325 6.0325 0 1 1 12.065 0z" fill="url(#l)"/>
  <path transform="matrix(1.1428 0 0 1.1428 88.255 157.28)" d="m237.81-387.89a4.3752 4.3752 0 1 1 -8.7504 0 4.3752 4.3752 0 1 1 8.7504 0z" fill="#c4c5c2"/>
  <path transform="matrix(1.1428 0 0 1.1428 88.255 157.28)" d="m237.81-387.89a4.3752 4.3752 0 1 1 -8.7504 0 4.3752 4.3752 0 1 1 8.7504 0z" fill="url(#k)"/>
  <path transform="matrix(1.0386 0 0 1.0386 112.87 116.49)" d="m248.55-383.67a6.7396 6.7396 0 1 1 -13.479 0 6.7396 6.7396 0 1 1 13.479 0z" fill="#c4c5c2"/>
  <path transform="matrix(1.0386 0 0 1.0386 112.87 116.49)" d="m248.55-383.67a6.7396 6.7396 0 1 1 -13.479 0 6.7396 6.7396 0 1 1 13.479 0z" fill="url(#j)"/>
  <path transform="matrix(1.6248 0 0 1.6248 603.48 -122.09)" d="m-151.94-96.938a3.125 3.125 0 1 1 -6.25 0 3.125 3.125 0 1 1 6.25 0z" fill="#c4c5c2"/>
  <path transform="matrix(1.6248 0 0 1.6248 603.54 -122.15)" d="m-151.94-96.938a3.125 3.125 0 1 1 -6.25 0 3.125 3.125 0 1 1 6.25 0z" fill="url(#i)"/>
  <g transform="translate(91.023 162)">
   <path d="m280.5-445.5c-2.2708 0-4.1099 1.5503-4.7188 3.625-0.69323-0.36383-1.4445-0.625-2.2812-0.625-2.76 0-5 2.24-5 5 0 0.57893 0.16252 1.1077 0.34375 1.625-1.3735 0.77074-2.3438 2.189-2.3438 3.875 0 2.484 2.016 4.5 4.5 4.5h19c2.484 0 4.5-2.016 4.5-4.5 0-1.686-0.97028-3.1043-2.3438-3.875 0.18124-0.51729 0.34375-1.0461 0.34375-1.625 0-2.76-2.24-5-5-5-0.83674 0-1.588 0.26117-2.2812 0.625-0.60884-2.0747-2.4479-3.625-4.7188-3.625z" fill="#c4c5c2" stroke="#888a85" stroke-miterlimit="2"/>
   <path d="m280.5-445c-2.1897 0-3.7236 1.3358-4.3956 3.8435-0.66846-0.34362-1.5476-0.83335-2.3544-0.83335-2.7165 0-4.7551 1.9388-4.7551 4.5455 0 0.54677 0.26721 1.3334 0.44196 1.822-1.3244 0.72795-2.4368 1.8905-2.4368 3.3726 0 2.346 1.5462 4.2501 4.3393 4.2501h18.321c2.771 0 4.3393-1.904 4.3393-4.2501 0-1.5924-1.1124-2.6667-2.4368-3.3946 0.17476-0.48856 0.46407-1.2532 0.46407-1.7999 0-2.6067-2.1158-4.5676-4.7772-4.5676-0.80687 0-1.6418 0.48974-2.3103 0.83336-0.64885-2.4215-2.25-3.8214-4.4397-3.8214z" fill="url(#h)"/>
   <path transform="matrix(1.0566 0 0 1.0566 -24.198 21.863)" d="m291.69-437.59a3.3125 3.3125 0 1 1 -6.625 0 3.3125 3.3125 0 1 1 6.625 0z" fill="#c4c5c2"/>
   <path transform="matrix(1.0566 0 0 1.0566 -24.198 21.863)" d="m291.69-437.59a3.3125 3.3125 0 1 1 -6.625 0 3.3125 3.3125 0 1 1 6.625 0z" fill="url(#g)"/>
   <path d="m271-438h20v9h-20z" fill="#c4c5c2"/>
   <path transform="matrix(.90566 0 0 .90566 9.8302 -35.689)" d="m291.69-437.59a3.3125 3.3125 0 1 1 -6.625 0 3.3125 3.3125 0 1 1 6.625 0z" fill="#c4c5c2"/>
   <path transform="matrix(1.0566 0 0 1.0566 -17.198 24.863)" d="m291.69-437.59a3.3125 3.3125 0 1 1 -6.625 0 3.3125 3.3125 0 1 1 6.625 0z" fill="#c4c5c2"/>
   <path transform="matrix(1.0566 0 0 1.0566 -17.198 24.863)" d="m291.69-437.59a3.3125 3.3125 0 1 1 -6.625 0 3.3125 3.3125 0 1 1 6.625 0z" fill="url(#f)"/>
   <path transform="matrix(1.0566 0 0 1.0566 -31.198 24.863)" d="m291.69-437.59a3.3125 3.3125 0 1 1 -6.625 0 3.3125 3.3125 0 1 1 6.625 0z" fill="#c4c5c2"/>
   <path transform="matrix(1.0566 0 0 1.0566 -31.198 24.863)" d="m291.69-437.59a3.3125 3.3125 0 1 1 -6.625 0 3.3125 3.3125 0 1 1 6.625 0z" fill="url(#e)"/>
   <g transform="translate(-1)">
    <path d="m280.47-440.97c-3.5794 0-6.4688 2.9206-6.4688 6.5 0 2.3707 1.3494 4.3378 3.25 5.4688h6.4688c1.9006-1.131 3.25-3.1293 3.25-5.5 0-3.5794-2.9206-6.4688-6.5-6.4688z" fill="#c4c5c2"/>
    <path d="m280.5-441c-3.588 0-6.5 2.912-6.5 6.5 0 2.3764 1.3448 4.3663 3.25 5.5h6.5c1.9052-1.1337 3.25-3.1236 3.25-5.5 0-3.588-2.912-6.5-6.5-6.5z" fill="url(#d)"/>
   </g>
   <path transform="matrix(.90566 0 0 .90566 9.8303 -35.689)" d="m291.69-437.59a3.3125 3.3125 0 1 1 -6.625 0 3.3125 3.3125 0 1 1 6.625 0z" fill="url(#c)"/>
   <path d="m292.96-437.33c-0.00153 2.6846-3.2693 3.714-3.2693 3.714s2.3487-1.626 2.3368-3.705l0.93241-0.00894z" fill="#888a85" fill-rule="evenodd"/>
   <path transform="matrix(1.2076 0 0 1.2076 -64.226 95.415)" d="m291.69-437.59a3.3125 3.3125 0 1 1 -6.625 0 3.3125 3.3125 0 1 1 6.625 0z" fill="#c4c5c2"/>
   <path transform="matrix(1.2076 0 0 1.2076 -64.226 95.415)" d="m291.69-437.59a3.3125 3.3125 0 1 1 -6.625 0 3.3125 3.3125 0 1 1 6.625 0z" fill="url(#b)"/>
  </g>
  <g transform="translate(76.02 158)">
   <path d="m280.5-445.5c-2.2708 0-4.1099 1.5503-4.7188 3.625-0.69323-0.36383-1.4445-0.625-2.2812-0.625-2.76 0-5 2.24-5 5 0 0.57893 0.16252 1.1077 0.34375 1.625-1.3735 0.77074-2.3438 2.189-2.3438 3.875 0 2.484 2.016 4.5 4.5 4.5h19c2.484 0 4.5-2.016 4.5-4.5 0-1.686-0.97028-3.1043-2.3438-3.875 0.18124-0.51729 0.34375-1.0461 0.34375-1.625 0-2.76-2.24-5-5-5-0.83674 0-1.588 0.26117-2.2812 0.625-0.60884-2.0747-2.4479-3.625-4.7188-3.625z" fill="#c4c5c2" stroke="#888a85" stroke-miterlimit="2"/>
   <path d="m280.5-445c-2.1897 0-3.7236 1.3358-4.3956 3.8435-0.66846-0.34362-1.5476-0.83335-2.3544-0.83335-2.7165 0-4.7551 1.9388-4.7551 4.5455 0 0.54677 0.26721 1.3334 0.44196 1.822-1.3244 0.72795-2.4368 1.8905-2.4368 3.3726 0 2.346 1.5462 4.2501 4.3393 4.2501h18.321c2.771 0 4.3393-1.904 4.3393-4.2501 0-1.5924-1.1124-2.6667-2.4368-3.3946 0.17476-0.48856 0.46407-1.2532 0.46407-1.7999 0-2.6067-2.1158-4.5676-4.7772-4.5676-0.80687 0-1.6418 0.48974-2.3103 0.83336-0.64885-2.4215-2.25-3.8214-4.4397-3.8214z" fill="url(#h)"/>
   <path transform="matrix(1.0566 0 0 1.0566 -24.198 21.863)" d="m291.69-437.59a3.3125 3.3125 0 1 1 -6.625 0 3.3125 3.3125 0 1 1 6.625 0z" fill="#c4c5c2"/>
   <path transform="matrix(1.0566 0 0 1.0566 -24.198 21.863)" d="m291.69-437.59a3.3125 3.3125 0 1 1 -6.625 0 3.3125 3.3125 0 1 1 6.625 0z" fill="url(#g)"/>
   <path d="m271-438h20v9h-20z" fill="#c4c5c2"/>
   <path transform="matrix(.90566 0 0 .90566 9.8302 -35.689)" d="m291.69-437.59a3.3125 3.3125 0 1 1 -6.625 0 3.3125 3.3125 0 1 1 6.625 0z" fill="#c4c5c2"/>
   <path transform="matrix(1.0566 0 0 1.0566 -17.198 24.863)" d="m291.69-437.59a3.3125 3.3125 0 1 1 -6.625 0 3.3125 3.3125 0 1 1 6.625 0z" fill="#c4c5c2"/>
   <path transform="matrix(1.0566 0 0 1.0566 -17.198 24.863)" d="m291.69-437.59a3.3125 3.3125 0 1 1 -6.625 0 3.3125 3.3125 0 1 1 6.625 0z" fill="url(#f)"/>
   <path transform="matrix(1.0566 0 0 1.0566 -31.198 24.863)" d="m291.69-437.59a3.3125 3.3125 0 1 1 -6.625 0 3.3125 3.3125 0 1 1 6.625 0z" fill="#c4c5c2"/>
   <path transform="matrix(1.0566 0 0 1.0566 -31.198 24.863)" d="m291.69-437.59a3.3125 3.3125 0 1 1 -6.625 0 3.3125 3.3125 0 1 1 6.625 0z" fill="url(#e)"/>
   <g transform="translate(-1)">
    <path d="m280.47-440.97c-3.5794 0-6.4688 2.9206-6.4688 6.5 0 2.3707 1.3494 4.3378 3.25 5.4688h6.4688c1.9006-1.131 3.25-3.1293 3.25-5.5 0-3.5794-2.9206-6.4688-6.5-6.4688z" fill="#c4c5c2"/>
    <path d="m280.5-441c-3.588 0-6.5 2.912-6.5 6.5 0 2.3764 1.3448 4.3663 3.25 5.5h6.5c1.9052-1.1337 3.25-3.1236 3.25-5.5 0-3.588-2.912-6.5-6.5-6.5z" fill="url(#d)"/>
   </g>
   <path transform="matrix(.90566 0 0 .90566 9.8303 -35.689)" d="m291.69-437.59a3.3125 3.3125 0 1 1 -6.625 0 3.3125 3.3125 0 1 1 6.625 0z" fill="url(#c)"/>
   <path d="m292.96-437.33c-0.00153 2.6846-3.2693 3.714-3.2693 3.714s2.3487-1.626 2.3368-3.705l0.93241-0.00894z" fill="#888a85" fill-rule="evenodd"/>
   <path transform="matrix(1.2076 0 0 1.2076 -64.226 95.415)" d="m291.69-437.59a3.3125 3.3125 0 1 1 -6.625 0 3.3125 3.3125 0 1 1 6.625 0z" fill="#c4c5c2"/>
   <path transform="matrix(1.2076 0 0 1.2076 -64.226 95.415)" d="m291.69-437.59a3.3125 3.3125 0 1 1 -6.625 0 3.3125 3.3125 0 1 1 6.625 0z" fill="url(#b)"/>
  </g>
 </g>
 <path transform="matrix(.68552 0 0 .68552 -11.306 249.17)" d="m31.82-316.78a2.2097 2.2097 0 1 1 -4.4194 0 2.2097 2.2097 0 1 1 4.4194 0z" fill="#fff" stroke="#729fcf" stroke-miterlimit="0" stroke-width="1.4588"/>
 <path transform="matrix(.91557 0 0 .91559 -10.599 325.57)" d="m31.82-316.78a2.2097 2.2097 0 1 1 -4.4194 0 2.2097 2.2097 0 1 1 4.4194 0z" fill="#fff" stroke="#729fcf" stroke-miterlimit="0" stroke-width="1.0922"/>
 <path transform="matrix(.67241 0 0 .68374 -9.9369 256.64)" d="m31.82-316.78a2.2097 2.2097 0 1 1 -4.4194 0 2.2097 2.2097 0 1 1 4.4194 0z" fill="#fff" stroke="#729fcf" stroke-miterlimit="0" stroke-width="1.4748"/>
 <path transform="matrix(.6823 0 0 .68027 18.789 252.51)" d="m31.82-316.78a2.2097 2.2097 0 1 1 -4.4194 0 2.2097 2.2097 0 1 1 4.4194 0z" fill="#fff" stroke="#729fcf" stroke-miterlimit="0" stroke-width="1.4678"/>
 <path transform="matrix(1.1071 0 0 1.1172 -5.79 386.94)" d="m31.82-316.78a2.2097 2.2097 0 1 1 -4.4194 0 2.2097 2.2097 0 1 1 4.4194 0z" fill="#fff" stroke="#729fcf" stroke-miterlimit="0" stroke-width=".89917"/>
 <path transform="matrix(1.1276 0 0 1.0518 -1.3958 373.39)" d="m31.82-316.78a2.2097 2.2097 0 1 1 -4.4194 0 2.2097 2.2097 0 1 1 4.4194 0z" fill="#fff" stroke="#729fcf" stroke-miterlimit="0" stroke-width=".91823"/>
 <path transform="matrix(.68552 0 0 .68049 1.6792 256.58)" d="m31.82-316.78a2.2097 2.2097 0 1 1 -4.4194 0 2.2097 2.2097 0 1 1 4.4194 0z" fill="#fff" stroke="#729fcf" stroke-miterlimit="0" stroke-width="1.4641"/>
</svg>
