<?xml version="1.0" encoding="UTF-8"?>
<svg width="800" height="800" version="1.1" viewBox="0 0 800.00001 800.00001" xmlns="http://www.w3.org/2000/svg">
 <path d="m288.15 474.11c-73.531 27.556-99.192 100.59-98.111 199.03 3.765 48.887 34.507 84.454 63.072 98.111 85.85 28.801 159.96 16.01 236.87 14.016 106.04-9.571 158.67-51.846 155.58-148.57 2.09-120.6-46.262-120.14-78.489-158.38z" fill="#edf5f1" fill-rule="evenodd" stroke="#58aef4" stroke-opacity=".54217" stroke-width="6.6155px"/>
 <path d="m293.06 476.47c-7.9645 2.9371-15.87 5.5256-22.712 9.5118 15.182 27.574 35.694 48.458 58.833 60.608 76.555 36.688 138.6 24.817 198.83 11.062 35.287-17.986 42.61-35.97 53.216-53.955 0.9728-1.9917 1.8081-3.9612 2.6495-5.9343-6.4036-5.1663-12.722-10.532-18.47-17.244z" fill="#d9e0dd" fill-rule="evenodd"/>
 <path d="m281.82 386.74-60.492-58.124-10.62-66.58-18.675 2.4182 5.7272 44.229-98.258-64.226-10.995 15.415 55.981 38.721-38.24-2.0437 2.291 17.692 55.677-2.2129 101.79 83.756z" fill="#923b00" fill-rule="evenodd" stroke="#582000" stroke-width="4.6309"/>
 <path d="m349.82 273.68c-23.556 17.727-52.535 17.418-71.481 58.867-13.875 41.58-28.414 83.161-16.819 124.74 13.411 37.189 41.076 58.836 65.875 75.686 76.628 37.168 140.53 29.343 199.03 11.213 37.718-15.224 42.045-34.644 53.26-54.662 21.377-44.301 10.147-83.943 7.0079-124.74-4.5521-33.557-34.543-60.283-56.064-88.3z" fill="#edf5f1" fill-rule="evenodd" stroke="#58aef4" stroke-opacity=".54217" stroke-width="6.6155px"/>
 <path d="m719.65 277.62l-24.367 3.4961-0.02735 61.07-148.07 49.857 8.4531 12.855 161.73-44.32 22.686 16.256 12.275-6.3164-17.91-18.633 24.449-2.0957 8.418-12.414-45.678-0.9043-1.9531-58.852z" fill="#923b00" fill-rule="evenodd" stroke="#582000" stroke-width="4.6309"/>
 <path d="m353.02 272.63c-8.3456 6.4412-16.098 12.743-25.116 17.302 3.1263 4.5568 5.2018 6.8976 8.9201 11.58 47.264 31.026 91.475 32.533 135.04 27.695 24.829-5.0337 49.075-3.3077 76.099-26.955-7.2202-8.6695-14.044-17.93-20.725-26.85z" fill="#d9e0dd" fill-rule="evenodd"/>
 <path d="m333 290.02c40.368 36.481 94.947 32.928 140.16 28.032 30.729-5.0172 66.801-4.4456 92.505-40.646 31.461-55.879 55.092-113.54 5.6064-187.81-7.7418-8.2468-18.373-29.68-71.481-49.056-23.801-5.6415-45.992-12.38-78.489-5.6064-31.776 8.8839-66.444 17.122-88.3 42.048-34.03 43.372-69.556 127.64 0 213.04z" fill="#edf5f1" fill-rule="evenodd" stroke="#58aef4" stroke-opacity=".54217" stroke-width="6.6155px"/>
 <path d="m626.79 544.33c11.927 99.636-7.2484 193.33-117.03 235.44 90.514-13.542 135.84-54.386 132.99-143.78 0.77786-44.885-6.1881-72.08-15.952-91.664z" fill="#d9e0dd" fill-rule="evenodd" stroke-opacity="0"/>
 <path d="m392.73 138.78a15.386 14.687 0 0 0 -15.385 14.688 15.386 14.687 0 0 0 15.385 14.686 15.386 14.687 0 0 0 15.387 -14.686 15.386 14.687 0 0 0 -15.387 -14.688zm108.52 3.5137a19.548 17.154 0 0 0 -19.547 17.154 19.548 17.154 0 0 0 19.547 17.154 19.548 17.154 0 0 0 19.549 -17.154 19.548 17.154 0 0 0 -19.549 -17.154zm34.307 77.162a9.9692 9.5161 0 0 0 -9.9688 9.5156 9.9692 9.5161 0 0 0 9.9688 9.5156 9.9692 9.5161 0 0 0 9.9688 -9.5156 9.9692 9.5161 0 0 0 -9.9688 -9.5156zm-181.57 3.5957a9.9692 9.5161 0 0 0 -9.9688 9.5156 9.9692 9.5161 0 0 0 9.9688 9.5156 9.9692 9.5161 0 0 0 9.9688 -9.5156 9.9692 9.5161 0 0 0 -9.9688 -9.5156zm159.4 19.176a9.9692 9.5161 0 0 0 -9.9688 9.5156 9.9692 9.5161 0 0 0 9.9688 9.5156 9.9692 9.5161 0 0 0 9.9688 -9.5156 9.9692 9.5161 0 0 0 -9.9688 -9.5156zm-132.43 0.59961a9.9692 9.5161 0 0 0 -9.9688 9.5156 9.9692 9.5161 0 0 0 9.9688 9.5156 9.9692 9.5161 0 0 0 9.9707 -9.5156 9.9692 9.5161 0 0 0 -9.9707 -9.5156zm103.07 13.781a9.9692 9.5161 0 0 0 -9.9688 9.5156 9.9692 9.5161 0 0 0 9.9688 9.5176 9.9692 9.5161 0 0 0 9.9688 -9.5176 9.9692 9.5161 0 0 0 -9.9688 -9.5156zm-72.508 1.7988a9.9692 9.5161 0 0 0 -9.9688 9.5156 9.9692 9.5161 0 0 0 9.9688 9.5156 9.9692 9.5161 0 0 0 9.9688 -9.5156 9.9692 9.5161 0 0 0 -9.9688 -9.5156zm35.955 5.9922a9.9692 9.5161 0 0 0 -9.9707 9.5156 9.9692 9.5161 0 0 0 9.9707 9.5156 9.9692 9.5161 0 0 0 9.9688 -9.5156 9.9692 9.5161 0 0 0 -9.9688 -9.5156zm-17.693 91.086a14.911 14.233 0 0 0 -14.912 14.232 14.911 14.233 0 0 0 14.912 14.232 14.911 14.233 0 0 0 14.91 -14.232 14.911 14.233 0 0 0 -14.91 -14.232zm1.4004 43.449a14.911 14.233 0 0 0 -14.91 14.232 14.911 14.233 0 0 0 14.91 14.232 14.911 14.233 0 0 0 14.91 -14.232 14.911 14.233 0 0 0 -14.91 -14.232zm1.4023 49.057a14.911 14.233 0 0 0 -14.91 14.232 14.911 14.233 0 0 0 14.91 14.232 14.911 14.233 0 0 0 14.91 -14.232 14.911 14.233 0 0 0 -14.91 -14.232z" color="#000000" color-rendering="auto" fill="#696c6b" image-rendering="auto" shape-rendering="auto" solid-color="#000000" stroke="#545756" stroke-width="3.2679" style="isolation:auto;mix-blend-mode:normal"/>
 <path d="m449.17 184.21c15.745 1.4636 9.3338 39.628-5.1694 33.641-73.808-24.902-76.634-39.586 5.1694-33.641z" fill="#ff6f00" fill-rule="evenodd"/>
</svg>
