<?xml version='1.0' encoding='utf-8'?>
<svg xmlns="http://www.w3.org/2000/svg" width="489.729mm" height="505.21mm" version="1.1" style="shape-rendering:geometricPrecision; text-rendering:geometricPrecision; image-rendering:optimizeQuality; fill-rule:evenodd; clip-rule:evenodd" viewBox="0 0 150087 154831"> <defs> <style type="text/css">  .str1 {stroke:#B7372B;stroke-width:23.3529} .str0 {stroke:#E41E1D;stroke-width:23.3529} .str2 {stroke:white;stroke-width:23.3529} .fil6 {fill:none} .fil5 {fill:#242424} .fil3 {fill:#8C2A21} .fil2 {fill:#B7372B} .fil1 {fill:#B81616} .fil0 {fill:#E41E1D} .fil7 {fill:#FC3737} .fil4 {fill:white}  </style> </defs> <g id="Vrstva_x0020_1"> <metadata id="CorelCorpID_0Corel-Layer"/> <g id="_1548481768"> <path class="fil0 str0" d="M25810 46068c1057,373 1090,2014 1117,3440 28,1480 269,2393 324,3937 -752,-1175 -1387,-5952 -1441,-7377zm31456 -16386c-1890,2025 -1023,3331 -3673,5455 -2655,2128 -3725,3203 -6560,3163 -3169,-44 -8947,-1463 -12027,-4226 -4709,3672 -11849,9886 -16940,5532 -3157,-2701 -2042,-2475 -4356,-5322 -6676,5511 -1309,6181 421,17101 1256,7927 2979,17699 3580,25587 544,7143 -23,18160 -1817,25058l7569 759c1985,-2868 2212,-7979 4365,-9219 1764,1986 650,2089 -487,4350 -949,1887 -1068,2991 -1601,4553 1906,1254 5840,1134 7894,959 1599,-2679 968,-4664 4457,-9725 1313,1731 -393,2219 -1310,4602 -677,1759 -938,3532 -1435,5231 3169,1736 9078,918 13543,6985 2578,3502 3568,7322 2778,11309 -465,2345 -1015,1896 122,4286 630,-49 750,-94 1481,-306 1424,-414 39,-348 1719,-593 689,1382 370,2221 374,3514 -945,22 -1096,-113 -2173,-233 -3793,-425 -2328,189 -3495,4697 -521,2014 -1037,2936 -640,4750 964,129 1931,243 3009,322 2876,211 4110,-1486 4668,2801 -2103,406 -4801,-1034 -8200,-581 -1071,1431 -1818,5042 -2247,6913 4491,2946 15802,3995 21302,4204l66170 -1565c6644,190 8461,-290 11130,-8133l1188 -2704c849,-1280 865,-2093 698,-3559 -351,-3088 -1565,-5145 -3708,-8207 -7039,-10057 -16463,-7933 -27706,-10699 -5573,-1371 -9250,-4428 -13297,-7283 -5162,-3643 -6202,-10609 -6554,-15104 -810,-10339 908,-20089 1218,-28992 304,-8735 1030,-3649 431,-14357 -231,-4130 -1476,-11245 -3666,-15344 -3016,-436 -8445,-70 -12790,-4214 -9379,5031 -7995,4614 -14968,3553 -1999,-304 -1007,126 -2876,-1150 -1761,-1203 -3710,-2362 -5591,-4168zm-37382 13521c2517,2650 3929,14602 4353,18615 255,2411 1458,4257 -158,6097 -1456,-2493 -1001,-10845 -3802,-18791 -990,-2808 -2835,-4463 -393,-5921zm107146 93920c-326,550 -3930,1505 -4380,-1572 1554,-556 1380,-118 2896,428 612,221 2026,229 1484,1144zm-37057 -90305c-749,-2614 -1952,-2911 -224,-4770 1527,2291 2558,7627 1637,9351 -582,-1257 -992,-3110 -1413,-4581zm25245 93917c3713,632 8374,383 11361,1900l-266 2008c-1174,-52 -4975,-1373 -11119,-1548 -1314,-37 -2471,140 -3674,-64 -824,-1683 -729,-1139 -322,-2598 1091,-299 2984,126 4020,302z"/> <path class="fil1" d="M21931 61089c521,6534 2313,18024 3977,24757 1664,6733 3199,8709 5204,9005 2004,296 4479,-1088 4751,-5321 272,-4233 -1659,-11315 -2002,-18410 -343,-7095 901,-14202 -659,-17490 -1560,-3289 -5924,-2758 -8481,-1704 -2558,1054 -3310,2630 -2790,9163z"/> <path class="fil1" d="M95702 40819c-1189,1037 -3993,2256 -7529,1829 -3536,-426 -7803,-2499 -12009,-2834 -4206,-336 -8352,1066 -11522,1127 -3170,61 -5364,-1219 -7589,-945 -2226,275 -4481,2104 -7072,3109 -2591,1006 -5517,1189 -8351,549 -2835,-640 -5578,-2103 -8108,-1920 -2530,183 -4847,2012 -7590,3200 -2743,1189 -5913,1738 -7590,2804 -1676,1067 -1859,2652 -2255,4512 -397,1859 -1006,3992 -1402,4511 -397,518 -579,-580 -1402,-3688 -823,-3110 -2287,-8230 -3231,-11400 -945,-3170 -1372,-4389 -549,-5761 823,-1372 2896,-2896 4542,-2621 1646,274 2865,2347 4328,3718 1463,1372 3170,2042 5334,1951 2164,-91 4785,-945 6553,-2225 1768,-1280 2683,-2987 3536,-4054 853,-1067 1646,-1493 2195,-1067 548,427 853,1707 2164,2835 1310,1128 3627,2103 5761,2377 2133,275 4084,-152 5974,-1036 1889,-884 3718,-2225 4816,-3840 1097,-1616 1463,-3506 2042,-4390 579,-884 1371,-762 2621,244 1250,1006 2957,2896 4968,3871 2012,976 4329,1037 6340,945 2012,-91 3719,-335 5426,-1036 1707,-701 3414,-1860 5060,-1981 1645,-122 3231,792 4602,1707 1372,914 2530,1828 3841,2133 1310,305 2774,0 3871,671 1097,670 1829,2316 2408,3566 579,1250 1006,2103 -183,3139z"/> <path class="fil2 str1" d="M33490 106996l-8042 -899c-1285,2813 -73,3211 -1984,5346 -1261,-2107 -56,-2770 -184,-5253 -1891,-863 -5526,-1510 -7718,-529 -893,1649 -1509,9693 -853,12053l5756 13248c4269,6212 13604,12621 20483,14923 97,33 230,78 327,106l334 90c654,165 519,138 1039,184 69,-1203 -146,-1824 7,-3109 166,-1388 510,-1978 548,-3313l-3912 -608 -287 -2044c1711,-790 2916,369 5224,-407 183,-3217 1056,-6222 1305,-9424 -2655,-1673 -5653,282 -6368,-3527 1785,-562 4729,406 6309,922 2403,-2709 2872,-10352 1283,-12634 -1905,-2735 -8771,-5790 -12120,-4915 -647,2548 161,5434 -1081,7776 -458,-2038 -59,-5691 -66,-7986z"/> <path class="fil3" d="M46766 123406c-1478,-1935 -3399,-6050 -6462,-8550 -3063,-2499 -7270,-3383 -11202,-3825 -3932,-442 -7589,-442 -10317,183 -2728,625 -4527,1875 -5167,1280 -640,-594 -122,-3033 290,-4800 411,-1768 716,-2866 1585,-3475 869,-610 2301,-732 5547,-458 3247,275 8306,945 12848,1799 4542,853 8565,1889 11140,3246 2576,1356 3704,3033 4344,5761 640,2728 792,6507 350,8519 -441,2012 -1478,2256 -2956,320z"/> <path class="fil4 str2" d="M35592 30145c3133,4390 7197,5622 12061,4396 7342,-1849 5302,-4238 8901,-9235 2507,2963 7412,4692 11131,5699l1386 246c139,14 528,20 664,32 3020,281 4229,18 8612,-2423 3576,-1992 2124,-791 5632,898 1412,679 3866,2378 5134,2716 8530,2274 21203,-13357 12845,-14770 -2454,-415 -1017,718 -2374,867 -2238,246 -1237,-2513 -2415,-4740 -339,-643 -1460,-2341 -1889,-3019 -4747,-7493 -17922,-1829 -22006,1425 -1901,-2493 -724,-6783 -8038,-8412 -8427,-1877 -11859,2043 -16359,7220 -208,-121 -1069,-404 -1088,-412 -2637,-1139 -6326,-8733 -17311,-4643 -3671,1367 -6683,2261 -8978,6605 -3152,5968 -1,7042 -2514,8593 -380,-190 -8260,-8618 -12075,-3293 -762,1065 -1520,4659 -1379,6097 407,4142 2824,2106 2142,5658 -2636,587 -3409,-1458 -5602,1677 -536,1952 1845,3711 3415,4557 3765,-1230 5775,-2459 8584,-5538l4704 7034c10888,684 13182,-4962 16817,-7235z"/> <g> <path class="fil5" d="M56554 25306c-3599,4997 -1559,7386 -8900,9235 -4865,1226 -8929,-6 -12062,-4396 -3635,2273 -5929,7919 -16817,7235l-4704 -7034c-2809,3079 -4819,4308 -8584,5538 -1570,-846 -3951,-2605 -3415,-4557 2193,-3135 2966,-1090 5602,-1677 682,-3552 -1735,-1516 -2142,-5658 -141,-1438 617,-5032 1379,-6097 3815,-5325 11695,3103 12075,3294 2513,-1552 -638,-2626 2514,-8594 2295,-4344 5307,-5237 8978,-6605 10985,-4091 14674,3504 17311,4643 19,8 879,291 1088,412 4500,-5177 7932,-9097 16359,-7220 7314,1629 6137,5920 8038,8412 4084,-3255 17259,-8918 22006,-1425 429,678 1550,2376 1890,3019 1177,2227 176,4986 2414,4740 1357,-149 -80,-1282 2374,-867 8358,1413 -4315,17044 -12845,14770 -1268,-338 -3722,-2036 -5134,-2716 -3508,-1689 -2056,-2890 -5632,-898 -4382,2441 -5593,2704 -8612,2423 -136,-12 -525,-18 -664,-32l-1386 -246c-3719,-1007 -8624,-2736 -11131,-5699zm-9797 86815c1589,2282 1120,9925 -1283,12634 -1580,-516 -4524,-1484 -6308,-922 714,3809 3712,1854 6368,3527 -250,3202 -1123,6207 -1306,9424 -2309,776 -3513,-383 -5224,407l287 2044 3913 608c-39,1335 -383,1925 -549,3313 -153,1285 62,1906 -7,3109 -520,-46 -385,-19 -1039,-184 -94,-24 -236,-62 -334,-90 -96,-28 -230,-73 -327,-106 -6879,-2302 -16214,-8711 -20483,-14923l-5756 -13248c-656,-2360 -40,-10404 854,-12053 2191,-981 5826,-334 7717,529 128,2484 -1077,3146 184,5253 1911,-2135 699,-2533 1984,-5346l8042 899c7,2295 -392,5948 66,7986 1242,-2343 434,-5228 1080,-7776 3350,-875 10216,2180 12121,4915zm8232 13100c-1681,245 -295,179 -1720,593 -730,212 -850,257 -1480,306 -1137,-2390 -587,-1941 -122,-4286 790,-3987 -200,-7807 -2778,-11309 -4465,-6067 -10374,-5249 -13543,-6985 497,-1699 758,-3472 1435,-5231 917,-2383 2623,-2871 1310,-4603 -3489,5062 -2858,7047 -4457,9726 -2054,175 -5988,295 -7894,-960 533,-1561 652,-2665 1601,-4552 1137,-2261 2251,-2364 487,-4350 -2153,1240 -2380,6350 -4365,9219l-7569 -759c1794,-6898 2361,-17915 1817,-25059 -601,-7887 -2324,-17659 -3580,-25586 -1730,-10920 -7097,-11590 -421,-17101 2314,2847 1199,2621 4356,5322 5091,4354 12231,-1860 16940,-5532 3080,2763 8858,4182 12027,4226 2835,40 3905,-1035 6560,-3163 2650,-2124 1784,-3430 3673,-5455 1881,1806 3830,2965 5591,4168 1869,1276 877,846 2876,1150 6973,1061 5589,1478 14967,-3553 4346,4144 9775,3778 12791,4214 2190,4099 3435,11214 3666,15344 600,10708 -127,5622 -431,14357 -310,8903 -2028,18653 -1218,28992 352,4495 1392,11461 6554,15104 4047,2855 7724,5912 13297,7283 11243,2766 20667,643 27706,10699 2143,3062 3357,5119 3708,8207 167,1466 151,2279 -698,3559l-1188 2704c-2669,7843 -4485,8323 -11130,8133l-66170 1565c-5500,-209 -16811,-1258 -21302,-4204 429,-1871 1176,-5482 2247,-6913 3399,-453 6097,987 8200,581 -558,-4287 -1792,-2590 -4668,-2801 -1079,-79 -2045,-193 -3009,-322 -397,-1814 119,-2736 640,-4750 1167,-4509 -298,-5122 3495,-4697 1077,120 1228,255 2173,233 -4,-1293 315,-2132 -374,-3514zm40589 -90250c19441,-10112 10395,-21034 4829,-20303 -3484,-6786 -4814,-9767 -11477,-10943 -3059,-540 -3782,-76 -7256,475 -3808,604 -3795,555 -7687,2958 -2208,-4503 -6763,-6997 -11623,-7154 -3828,-124 -10715,2805 -14630,6350 -4251,-4462 -11233,-5267 -16642,-3709 -7510,2163 -12530,6953 -13307,13176 -3265,-969 -408,-1963 -6522,-2357 -2588,-167 -4560,-571 -5928,2623 -638,1489 -1645,5050 -1579,6586 179,4175 1236,2916 -3713,6358 -42,2585 -273,3187 1011,5952 1403,3023 1882,3146 4383,3684 4189,902 3540,1401 3979,3702 860,4509 3511,8520 4457,18186 228,2328 886,3670 951,5995 329,11622 2639,15703 56,29896 -2534,13920 -4655,23635 3830,35834 3104,4462 4157,5950 9503,9735 8582,6074 8481,4666 13353,6963 1695,800 1404,1288 2843,1553l6006 1153c8458,2202 19890,3093 29103,2712 2179,-90 3414,419 5786,213l12051 -43c5650,453 11817,267 17514,-123l20308 -259c2878,1 7264,-2222 9781,-3755 8026,-4889 5094,-15844 1549,-23359 -5413,-11477 -12475,-12012 -20779,-13118 -8331,-1110 -13869,-301 -22344,-7190 -8521,-6927 -5837,-17478 -5403,-24034 260,-3927 608,-7604 836,-11543 226,-3895 997,-8149 950,-11855 -70,-5451 -1467,-18749 -4189,-24359z"/> <path class="fil5" d="M19885 43203c-2443,1458 -598,3113 392,5921 2802,7946 2346,16298 3802,18791 1616,-1840 413,-3686 158,-6097 -424,-4013 -1836,-15965 -4352,-18615z"/> <path class="fil5" d="M126579 142635c-2987,-1517 -7648,-1268 -11361,-1900 -1036,-176 -2929,-601 -4019,-302 -408,1459 -503,915 321,2598 1202,203 2360,27 3674,64 6144,175 9945,1496 11119,1548l266 -2008z"/> <path class="fil5" d="M89749 42048c-1728,1859 -525,2155 224,4770 421,1471 831,3324 1413,4581 921,-1725 -110,-7060 -1637,-9351z"/> <path class="fil5" d="M122650 135551c450,3077 4054,2122 4380,1572 542,-915 -871,-923 -1484,-1144 -1516,-546 -1342,-984 -2896,-428z"/> <path class="fil5" d="M25810 46068c54,1425 689,6202 1441,7377 -55,-1544 -296,-2457 -324,-3937 -27,-1426 -60,-3067 -1117,-3440z"/> </g> <line class="fil6" x1="95854" y1="39356" x2="86710" y2="40271"/> <path class="fil1" d="M41477 73098c-488,5029 793,14173 2103,19294 1311,5121 2652,6218 3140,1189 487,-5029 122,-16185 -1189,-21306 -1311,-5121 -3566,-4206 -4054,823z"/> <path class="fil1" d="M113371 122453c3524,-748 8542,-1813 13664,-1009 5121,803 10346,3475 13298,6393 2953,2918 3634,6081 2919,7732 -716,1651 -2827,1790 -5952,-259 -3124,-2048 -7262,-6284 -12683,-8522 -5421,-2239 -12127,-2480 -14464,-2817 -2337,-337 -306,-769 3218,-1518z"/> <path class="fil7" d="M87235 56577c-1511,491 -2536,1229 -2959,4631 -423,3401 -245,9466 755,15531 1001,6065 2824,12131 3926,14316 1102,2185 1483,489 1994,-6067 511,-6556 1151,-17972 473,-23558 -679,-5587 -2677,-5343 -4189,-4853z"/> </g> </g> </svg>