<?xml version="1.0" encoding="UTF-8"?>
<svg enable-background="new 0 0 388.363 344.7" viewBox="0 0 388.363 344.7" xmlns="http://www.w3.org/2000/svg">
 <path d="m297.247,16.637c-3.459,3.625-9.021,1.212-13.468,1.584-9.567.805-18.062,4.271-19.018,15.055-4.82,2.574-7.141,7.647-8.714,13.471-4.409,3.664-9.034,10.795-12.677,16.637-2.562,4.108-7.473,15.55-8.717,22.185-1.497,7.99 1.704,15.579-2.375,22.185 3.224,4.121-.872,8.859 3.169,11.886-3.174,3.25.022,12.702-6.339,15.846-5.262-.285-8.286-2.806-11.886-4.754-.384-7.594 2.39-15.434 3.17-23.769 .48-5.125-.741-10.244 0-15.055 .713-4.634 3.987-10.246 6.338-15.846 5.63-13.403 11.594-23.514 19.809-34.861 6.629-9.158 15.996-19.248 24.561-26.147 7.273-3.093 15.683,1.45 26.147,1.583z" fill="#f4bb3a" fill-rule="evenodd"/>
 <path d="m33.408,110.131c2.803-3.404 7.541-1.884 14.261-2.378 3.148,3.222 7.261,2.067 11.092,3.169 9.146,2.629 16.23,8.758 25.356,11.092 .885,3.606 6.187,2.792 7.129,6.338 11.872,1.334 14.029,12.382 22.978,16.64 7.454,1.789 13.031,5.455 19.806,7.923-2.819,5.221-5.768,6.982-10.299,3.963-1.138-.759-2.638-2.962-3.962-3.963-4.335-3.272-12.201-6.237-15.053-8.714-1.407-1.222-2.493-5.249-4.754-6.339-1.313-.635-5.356.329-6.338-.793-2.868-4.529-7.674-7.116-10.301-11.886h-4.754c-6.938-9.347-19.993-7.852-29.316-14.262-6.979.362-9.751.42-15.845-.79z" fill="#f4bb3a" fill-rule="evenodd"/>
 <path d="m199.002,113.3c.224,1.279-.749,1.364-.793,2.376 .515.807 1.821.821 1.584,2.378-.92.665-2.122,1.044-3.96.792-1.03-1.966 2.323-3.287 0-3.96 .52-1.066 1.692-1.478 3.169-1.586z" fill-rule="evenodd"/>
 <path d="m194.25 134.69c2.606-0.188 3.56 4.363 0 3.96-0.088-1.97-1.486-2.451 0-3.96z" fill-rule="evenodd"/>
 <path d="m187.91,136.275c2.258.646 4.535,1.277 3.96,4.756-1.773-1.131-4.687-1.124-3.96-4.756z" fill-rule="evenodd"/>
 <path d="m263.971,136.275c-.949,1.042-.308,1.247 0,2.378 6.477-.366 11.982-.656 16.64,2.378 5.358-.888 14.002-.292 15.846,4.751-10.545,3.579-20.825-1.509-31.694-.791-4.337.287-7.603,3.139-11.883.791-1.631,2.647-6.442.106-10.302,0-4.958-.133-9.659.715-11.092-5.545 11.142-6.739 22.407.441 32.485-3.962z" fill="#f4bb3a" fill-rule="evenodd"/>
 <path d="m183.95 139.44c1.971-0.122 2.454 1.247 3.963 1.587-0.343 2.691-5.168 1.842-3.963-1.587z" fill-rule="evenodd"/>
 <path d="m181.572,141.823c1.159.69 2.509,1.187 2.375,3.169-3.751-.368-1.177.69-1.584,3.169-1.966.12-3.289-.409-3.96-1.584 .436-2.203 3.254-2.026 3.169-4.754z" fill-rule="evenodd"/>
 <path d="m370.933,191.739c-2.707-1.519-3.135-5.317-4.754-7.924-6.821-4.188-14.914-7.969-23.769-7.923-6.185-3.061-13.445-5.043-20.601-7.131 7.615,10.908 31.354,7.527 41.991,17.43 4.299,7.588 7.539,16.232 15.846,19.809 5.117,6.585 6.877,21.555-3.96,23.77 .319-3.376-.769-8.162.791-10.301-2.548-4.053-3.111-10.092-10.299-9.508-7.166-8.31-14.739-11.353-21.394-19.807-13.312,4.163-29.468-4.749-45.159-3.169-3.002.301-5.799,1.908-8.717,2.376-6.141.983-12.378.202-18.225.793-.901.09-2.069,1.516-3.169,1.585-1.29.08-2.02-1.507-3.169-1.585-.52-.037-2.261.708-3.169.791-2.763.258-8.296-.101-11.884.794-4.625-1.979-6.483-6.723-12.677-7.132-2.376,5.944 6.147,6.964 8.714,11.092 2.261,3.636.253,7.463 3.963,10.301-1.219,1.208-1.412,5.433 1.585,4.754-.012,1.573-2.162,1.008-1.585,3.169 3.271,8.128.658,20.628 4.754,30.899 .545,1.37 2.013,2.312 2.376,3.962 1.46,6.615-1.558,15.389 4.754,19.809-2.355,4.173 1.655,7.558 2.378,11.093 .223,1.095-.743,3.853 0,5.545 8.074,18.388 27.185-13.691 43.577,0-3.1,2.879-4.567-.957-8.716-.791-10.18.4-18.473,12.497-30.107,11.092-2.436-.294-4.735-2.159-7.923-3.169-5.893-21.577-6.831-48.104-20.601-61.802 .046-6.998-2.856-12.707-6.338-19.016-1.157-2.095-3.797-4.179-4.754-6.338-1.948-4.393-2.334-8.829-5.547-12.677 5.209-2.714 6.796-9.05 9.507-14.262 17.894,4.74 49.822,1.1 63.387-10.299 3.457.999 3.521.232 6.338-.793 4.52,1.428 12.602,5.48 16.638,2.378-4.438-3.484-13.654-2.192-18.222-5.547-20.214,8.887-38.812,16.423-65.763,11.885 .886-.975.69-1.628-.793-1.584-.49-4.453 1.03-6.893 3.169-8.717-3.454-5.034 1.757-10.096-2.376-15.053 7.054-.851 14.851.808 22.976-.793 2.535-.499 6.23-2.263 10.302-2.376 5.517-.154 9.204,4.068 18.224,3.169 2.519-.253 6.056-.29 8.714-.793 1.684-.317 2.208-1.601 3.963-1.585 11.736.106 20.535,8.006 31.692,8.717 .63,2.801 4.625,2.24 5.545,4.753h5.547c10.528,8.488 25.979,12.055 26.94,30.109zm-108.546-19.809c-.265-1.847-.812-3.413-2.379-3.96-1.54,1.527-.827,4.848 2.379,3.96zm-13.471,2.379c-.278-2.362-.458-4.825-2.376-5.547-1.545,1.777-.425,5.693 2.376,5.547zm4.754,0c1.729-1.962-.557-4.713-2.376-5.547-1.025,2.297-.761,5.358 2.376,5.547zm3.963-.794c1.187-1.173.073-4.094-2.378-3.96-.154,2.267-.097,4.323 2.378,3.96zm-17.431,0v-3.169h-2.378c.333,1.515.287,3.411 2.378,3.169zm3.96,0v-3.169h-2.376c-.221,2.07-.266,3.965 2.376,3.169z" fill="#f4bb3a" fill-rule="evenodd"/>
 <path d="m173.648,152.124c2.268-.156 4.324-.099 3.96,2.375-2.267.157-4.323.1-3.96-2.375z" fill-rule="evenodd"/>
 <path d="m172.064,156.084h3.96c-.308,4.25-3.45,3.473-.791,7.132h-3.963c.681-3.268 2.158-3.378.794-7.132z" fill-rule="evenodd"/>
 <path d="m170.479,164.801h3.96c.559,1.899-.143,3.429 1.584,5.545-.92.665-2.125,1.046-3.96.793-.042-2.691.468-3.001-1.584-6.338z" fill-rule="evenodd"/>
 <path d="m260.008,167.97c1.566.548 2.114,2.114 2.379,3.96-3.206.888-3.919-2.433-2.379-3.96z" fill-rule="evenodd"/>
 <path d="m246.54,168.761c1.918.722 2.098,3.185 2.376,5.547-2.801.147-3.921-3.769-2.376-5.547z" fill-rule="evenodd"/>
 <path d="m251.294,168.761c1.819.834 4.105,3.585 2.376,5.547-3.137-.188-3.401-3.249-2.376-5.547z" fill-rule="evenodd"/>
 <path d="m255.255,169.555c2.451-.134 3.564,2.787 2.378,3.96-2.475.363-2.532-1.693-2.378-3.96z" fill-rule="evenodd"/>
 <path d="m237.82 170.35h2.378v3.169c-2.091 0.242-2.045-1.654-2.378-3.169z" fill-rule="evenodd"/>
 <path d="m241.79 170.35h2.376v3.169c-2.642 0.796-2.597-1.099-2.376-3.169z" fill-rule="evenodd"/>
 <path d="m172.855,172.724h3.963c.543,2.656-1.329,2.896-3.169,3.169-.617-.706-.854-1.789-.794-3.169z" fill-rule="evenodd"/>
 <path d="m153.05 173.52c-4.167 5.185-9.767 6.935-15.052 11.886-2.452 2.296-5.504 4.457-7.132 6.339-1.916 2.215-3.905 7.789-9.508 7.129-0.982-4.15 3.215-3.123 4.754-4.754 7.769-8.077 13.74-17.953 26.938-20.6z" fill-rule="evenodd"/>
 <path d="m145.124,183.022c2.709-.331 4.515.239 3.963,3.169-2.584.207-3.814-.94-3.963-3.169z" fill-rule="evenodd"/>
 <path d="m141.954,185.4c1.656-.336 2.1.543 3.169.791-.191,1.394-1.361,1.808-3.169,1.585v-2.376z" fill-rule="evenodd"/>
 <path d="m308.34,289.193c-14.722,1.377-28.916,18.062-46.747,15.052-9.259-1.563-12.811-8.921-19.016-15.052-2.725-10.136-5.156-19.14-9.507-29.316-5.217-12.201-14.177-22.633-21.392-34.07-.979-10.112-6.446-15.738-7.132-26.145 3.559,1.012 7.417-.485 13.471-.794v-2.375h1.585c7.102,2.495 6.234,8.059 11.092,12.677 1.607,6.027 6.587,10.722 7.923,16.637 1.297,5.745 1.27,8.176 4.754,12.677 .479.619 2.047.996 2.376,1.585 1.152,2.054 1.214,5.508 2.378,7.925 .54,1.123 2.062,2.194 2.376,3.17 1.358,4.222.014,7.937 3.169,11.883 1.755,20.538 3.61,39.123 22.978,34.861 .304-.066 1.436-1.564 1.585-1.585 .586-.078 1.311,1.171 2.378.794 7.378-2.615 12.821-9.871 19.807-10.301 3.039-.187 5.366,2.364 7.922,2.377z" fill="#f4bb3a" fill-rule="evenodd"/>
 <path d="m146.708,218.677c-5.593-.312-5.727,4.837-11.883,3.961v-3.961c1.654-1.533 1.624,2.038 3.169,1.585 1.532-.451-.083-2.176.791-3.169-.729.828 5.874-2.359 4.754-2.378 1.75.027 3.314,1.018 3.169,3.962z" fill-rule="evenodd"/>
 <path d="m204.55 251.95c9.846 8.643 17.169 19.806 22.185 33.276-7.215-11.271-16.654-20.321-22.185-33.276z" fill="#f4bb3a" fill-rule="evenodd"/>
 <path d="m288.533,301.076c.051,2.647-3.505,3.719-5.547,4.754-4.885,2.478-10.54,4.107-17.431,3.963 2.672-3.811 8.907-2.977 13.468-4.754 2.79-1.088 5.922-2.804 7.926-4.754 .92-.129 1.409.175 1.584.791z" fill="#f4bb3a" fill-rule="evenodd"/>
 <path d="m130.862,322.47h3.169c-.331,3.629 1.021,8.944-1.584,10.299-2.749.387.722-6.047-2.376-7.13 .614-.706.851-1.789.791-3.169z" fill="#f4bb3a" fill-rule="evenodd"/>
 <path d="m235.448,19.807c-7.059,6.566-15.35,16.25-22.185,26.94-2.02,3.157-2.974,6.451-4.754,9.507-1.324,2.27-4.352,4.048-5.547,6.338-1.313,2.516-1.753,6.438-3.17,9.508-3.617,7.835-10.176,17.817-11.092,26.938-1.069,10.665.72,21.071-.791,30.899-5.182,1.688-9.243,4.491-13.47,7.132-.998-2.33-3.374-3.277-5.547-2.376-3.721-3.938-9.255-6.065-12.677-10.301-2.419.573-2.886-.81-4.754-.793-5.545-8.714-18.337-10.184-26.938-15.846-4.559,2.557-8.535-2.928-13.468,0-4.416-2.227-12.904-3.576-17.431-3.169-1.449-4.464-8.031-3.104-11.092-3.96-3.047-.851-5.239-4.841-7.923-2.378-6.417-4.554-14.595-7.436-22.978-7.129-1.622.058-1.666,1.439-2.378,1.584-1.265.255-1.423-1-2.375-.793-.814.179-1.157,1.467-1.585,1.584-1.26.352-1.412-1.002-2.378-.791-3.038.667-6.531,2.298-9.507,3.169-10.729,3.137-19.176,6.646-26.145,12.677-1.989,2.941-1.044,6.741-3.169,7.923-.886-5.018 2.617-9.905 5.545-12.677 7.587-7.183 21.692-9.896 30.107-15.846 7.162-.363 14.753-3.576 22.978-2.378 5.136.75 8.995,3.915 14.262,5.547 6.037,1.872 12.594.386 17.431,3.96 16.771.397 25.779,8.553 42.784,8.716 3.829,3.303 9.859,4.402 15.055,6.338 7.502,4.117 12.633,10.609 20.6,14.261 6.408-4.156 2.721-18.408 8.717-22.978-.736-7.941 4.968-16.104 7.923-22.976-1.249-12.605 9.13-13.581 10.298-23.769 1.401-.713 2.314-1.914 3.963-2.378 .541-3.42 2.139-5.782 3.169-8.714 7.831-3.263 10.888-11.297 18.223-15.055 .878-1.5 1.012-3.744 1.584-5.547 3.911-.049 6.587-1.332 8.715-3.167z" fill="#f4bb3a" fill-rule="evenodd"/>
 <path d="m265.556,0c.975.345 1.626,1.014 1.584,2.376 6.298-4.055 12.79,1.17 18.225-1.585 2.576,2.59 9.084,3.988 12.677,2.378 4.036,3.358 13.894.897 17.431,4.754 1.062,3.634.248,3.282 0,7.13-1.764,1.143-3.822,1.991-7.132,1.584-6.173,6.683-18.73,6.49-29.316,5.547-1.531,1.899-4.749,2.116-4.752,5.547-2.421-.572-2.888.81-4.756.792 .94,10.71-8.746,10.797-8.714,20.6-4.221-.274-2.307,3.229-3.169,4.754h-3.17c.067,1.255-.382,3.022.792,3.169-.203,1.646-3.48.216-3.961,1.584-.655,2.24 1.115,2.054.791,3.962h-3.169c-.019,2.093.74,4.963-2.376,3.96-.324,1.909 1.447,1.723.791,3.962-1.655-.335-2.097.543-3.169.792 2.378,2.799-2.521,3.871 0,7.132-5.404,2.792-2.479,9.5-6.338,14.261 2.35,1.083.881,5.986 2.378,7.923-.09,2.024-1.454,2.774-2.378,3.96 .321,8.836 1.922,12.962 2.378,19.809-2.802,2.261-1.093,4.147-3.17,7.13 7.774,3.22 17.148.37 25.354,1.584 1.309.195 1.932,1.522 2.375,1.587 .628.087 1.79-1.035 3.17-.793 3.334.584 6.625.389 11.092.793 2.077.187 3.157,1.856 5.547,2.376 6.824,1.485 13.698,1.166 19.016,7.132 6.485-.497 10.699,3.082 16.64.791 .917,1.173.917,1.996 0,3.169 .725,2.155 1.472-2.111 3.96-.791v3.169c2.442.591.966-2.732 3.963-1.584v3.169c2.408-.032 5.214-.462 4.754,2.375 2.438.591 1.522-2.175 3.96-1.584-.253,1.838.129,3.043.794,3.963 1.511-.338 1.433-2.266 3.96-1.585-.419.637-.825,1.286-.791,2.376 4.151-.249 5.4,1.787 10.299.793 .102,1.419-.969,1.669-.791,3.169 2.24.653 2.051-1.118 3.96-.793-.253,1.838.129,3.043.794,3.963 2.854.166 8.431,4.496 11.092,7.129 4.513,4.466 5.775,10.271 8.714,17.431-1.302,5.896-.043,10.209 6.339,10.301v3.169c7.442,4.567 6.529,12.015 7.132,20.6-.743,3.22-4.234,3.689-3.963,7.923-2.688.511-6.502,4.021-8.714,2.376-.771.023-.614.971-.794,1.585-3.307-.651-5.688-2.235-6.338-5.545 5.932-2.111 5.899-12.843.793-15.847-1.651-.973-4.519.398-6.338-.793-2.712-1.773-3.905-4.515-4.754-7.13-7.76-1.485-10.251-8.235-15.846-11.886-10.635,1.045-20.237.877-30.107-2.375-2.44-.592-1.522,2.173-3.963,1.584 .292-1.348-.619-1.494-1.585-1.584-2.13-.548-1.531,1.637-2.376,2.375-1.596-3.434-4.427.025-5.547,0-.862-.018-.538-1.557-1.585-1.584-2.405-.064-4.705,2.442-7.129,0-2.189-.338-.745,2.955-2.378,3.169-2.13.548-1.532-1.638-2.376-2.376-3.029,1.615-2.281,1.651-5.548.791-3.987-1.048-8.821-.756-9.507,1.585-5.762-.312-12.904.757-17.431-.791 1.212,6.359 1.207,3.726 1.584,10.299 1.03,1.435 2.142,3.578 2.376,5.547 .195,1.629-1.536,1.778-1.584,2.376-.076.95 1.479,1.334 1.584,2.378 .131,1.27-.929,1.407-.791,2.376 .099.701 2.371,7.033 2.376,9.508 .002,1.129-1.587,2.353-1.585,2.378 .511,4.02 4.255,7.525 2.378,11.883 1.113,1.794 3.206,2.606 3.961,4.754-.58,6.564-.72,7.902 2.378,13.471-.582.74-1.439,1.2-2.378,1.584 4.747,1.063 1.069,10.552 6.338,11.093-1.969,2.318-1.764,13.106 2.378,14.262 5.375.092 8.659-1.904 10.302-5.545 7.435-2.413 14.332-3.535 23.769-3.17 4.119,3.756 9.956,6.525 7.13,15.053-4.019,1.729-7.778,1.412-11.093,3.169-2.874,1.525-3.61,5.173-7.129,5.548-.129.92.175,1.409.791,1.584-7.794,2.22-23.613,14.17-39.615,10.299-9.818-2.373-21.472-8.392-23.769-17.431-1.729.506-2.521-2.244-2.379.794-2.4-4.136-4.357-8.763-7.923-12.677-2.237-2.459-3.312-3.026-5.545-6.339-4.42-6.555-12.219-14.089-15.846-22.978-.477-1.166-.311-3.342-.794-4.754-.567-1.663-2.1-2.909-2.375-3.963-.134-.501 1.11-1.345.791-2.376-1.661-5.352-3.854-10.479-8.714-14.261-.336-1.656.543-2.098.791-3.169-.92-.665-2.123-1.047-3.96-.794 1.706-3.691.023-8.351-2.378-10.299-1.175.674-1.704,1.994-1.584,3.961-4.862-1.59-4.572,4.953-7.923,2.378-.617.703-.851,1.789-.792,3.169-2.666-.851-6.214,1.522-7.925,3.96-11.623,2.374-18.502,9.494-26.145,15.847-2.146,6.044-4.301,12.076-7.923,16.639 3.498,2.174-1.493,2.778-1.585,4.754-.096,2.05 5.421,6.249 0,7.132 .78,2.958 2.608,7.67 0,9.508 .777,1.069 2.114,1.582 3.169,2.376-1.808,11.152 3.454,21.674 5.545,34.861-2.935,8.422-2.583,20.131-9.508,24.562-3.691.26-6.249-.619-8.714-1.585 1.311-2.651.273-7.649 1.584-10.301-3.376-2.771-1.288-12.987-5.547-13.468-1.371-2.593-1.886-6.037-6.338-5.548-1.396-4.413-5.885-5.733-8.714-8.714v-3.169c-10.315-13.39-19.473-34.822-18.224-54.67 .545-2.13-1.638-1.532-2.376-2.378 1.348-2.349 2.015-5.38 1.585-9.508 3.173-6.858 4.218-15.853 10.298-19.807-.554-2.44-.554-1.522 0-3.963 2.162-.071 1.596,1.32 3.169,0 .101-1.421-.971-1.669-.791-3.169 6.141-4.685 11.161-10.494 14.261-18.222 6.72-.411 7.856-6.405 13.468-7.923 3.889-5.356 6.709-11.78 14.262-13.47-1.937-2.21-7.059-3.011-9.508-2.376-1.559-4.517-7.405-4.742-9.507-8.716-.704.352-1.417.694-1.585,1.584-1.718.133-.358-2.811-.791-3.96-1.256.064-3.022-.382-3.169.792-1.718.133-.358-2.811-.793-3.96-3.795,1.438-1.419-.249-3.169-1.585-.644-.494-2.566.534-3.169,0-.678-.603.193-2.81-.791-3.169-.621-.228-1.886.566-1.584.791-.961-.717-.435-2.286-1.584-3.169-1.035-.793-5.313-.686-7.132-2.378-1.313-1.219-2.298-3.611-6.338-3.96 .335-1.656-.543-2.098-.792-3.169-.223-2.167-2.364-1.27-3.962-2.378-.669-.462-1.435-2.622-2.376-3.169-1.389-.805-4.057-.509-5.547-1.585-1.317-.95-1.102-2.811-2.375-3.96-2.969-2.679-10.867-4.174-16.64-6.338-5.188-1.945-7.589-3.76-15.055-3.169-10.177.807-21.019-3.733-29.314,2.375-1.934,1.424-2.293,3.795-4.754,4.754-4.195.499-4.873-2.521-7.132-3.96-1.695-17.805 13.404-18.817 21.394-26.938h3.96c7.063-5.616 19.972-5.384 26.938-11.092 4.294,1.743 7.336,1.214 11.094-.793v3.169c2.96.849 2.256-1.967 4.754-1.585 .34,1.244 2.491.679 1.584,3.169 2.96.849 2.256-1.966 4.754-1.584-.335,1.656.543,2.097.791,3.169 2.24.655 2.054-1.115 3.963-.791-.226,1.279.748,1.364.791,2.375 6.062-1.141 10.081,1.067 15.055,3.963 5.508-4.791 8.666,3.521 15.052.791 4.926,2.56 12.707,7.677 18.224,4.754 .929.129.667,1.444.791,2.378 3.282.239 8.845-.207 12.677,1.584 .267.125.453,2.137.793,2.376 .605.428 2.684-.531 3.169,0 2.433,2.679.469-.136 3.96.793 3.006.798 5.094,5.485 8.716,3.96 .614.706.851,1.789.791,3.169 6.697-.358 5.793,6.886 11.886,7.132-.74-6.414 5.294-10.165 2.378-15.846 4.034.904 1.842-3.188 1.585-4.754 2.85.002 3.923-2.773 1.584-3.963 .191-1.394 1.361-1.805 3.169-1.584-2.359-3.693 3.363-5.133.792-9.507h3.169c-1.375-3.983 3.482-7.969 1.585-15.053 4.459.234 2.748-5.704 7.132-5.547-.725-3.365 1.292-3.988 3.169-4.753-.173-4.133-.073-7.997 3.96-7.923 3.73-3.664 2.586-12.206 10.302-11.883 1.426-.913.708-2.187 1.584-3.169 2.314-2.597 7.395-4.361 9.508-7.132 .803-1.054.458-3.57 1.585-4.754 3.732-3.928 10.727-4.588 12.677-10.301 1.141.444 1.932,1.237 2.376,2.378 1.628-.221 1.582-2.116 2.378-3.169 3.312,2.994 5.133-4.31 7.129,0 4.596-3.544 10.38-9.397 16.64-8.716 .278-1.041 1.391-1.246 1.583-2.377zm-216.302,110.922c9.324,6.41 22.378,4.915 29.316,14.262h4.754c2.626,4.77 7.433,7.357 10.301,11.886 .982,1.122 5.025.158 6.338.793 2.261,1.09 3.347,5.117 4.754,6.339 2.852,2.477 10.717,5.441 15.053,8.714 1.325,1 2.824,3.204 3.962,3.963 4.531,3.02 7.479,1.258 10.299-3.963-6.775-2.468-12.353-6.134-19.806-7.923-8.949-4.257-11.106-15.306-22.978-16.64-.943-3.546-6.244-2.732-7.129-6.338-9.126-2.334-16.209-8.463-25.356-11.092-3.832-1.102-7.944.053-11.092-3.169-6.72.494-11.458-1.026-14.261,2.378 6.093,1.209 8.865,1.151 15.845.79zm80.817,49.125c6.037,6.237 16.276-1.405 20.6,6.338-4.678,4.347-11.235,2.645-12.677,7.923-1.249-.071-.621-2.022-2.378-1.585-1.187.925-1.936,2.288-3.96,2.376-.469,4.473-2.714,7.771-5.547,10.301-.446.398-1.875-.34-2.376,0-4.008,2.714-6.775,10.014-12.677,10.299-7.465,14.572-23.341,24.693-24.562,45.953-.154,2.698.009,5.278 0,7.132-.057,11.023 4.521,20.273 6.338,27.732 .543,2.229.136,4.722.793,6.338 1.757,4.328 6.318,7.261 8.714,11.093 1.707,2.725.72,5.859 3.962,7.129 2.204,6.178 8.915,8.362 12.677,13.471 2.757,3.744 5.427,9.618 6.338,14.261 .754,3.844-1.679,8.068 1.584,10.299 .945-2.387 2.783-6.402 2.375-9.507-.073-.566-1.513-.877-1.584-2.376-.051-1.108 1.212-1.451.793-3.169-1.98-8.14-11.232-12.974-12.677-21.394-6.247-1.412-6.681-8.636-11.092-11.884-1.175-7.806-6.541-11.419-7.132-19.809-1.053-.796-2.948-.749-3.169-2.376 .913-.938.897-2.801.793-4.753-6.608-13.834-6.822-36.354 5.545-44.371-.122-1.972 1.244-2.452 1.584-3.961 3.125-1.893 5.789-4.248 7.132-7.923 4.919-.64 6.692-8.608 11.883-6.338-1.343,4.271-6.881,5.404-10.299,8.714-2.521,2.44-4.864,7.672-7.923,11.092-3.231,3.611-6.723,5.352-7.923,8.717-3.701,10.358-.706,23.479 3.169,32.485v4.754c3.139,1.697 1.994,6.819 3.96,10.299 .538.952 1.847,1.195 2.378,2.378 .601,1.336.108,3.274.791,4.754 .777,1.684 3.308,3.836 4.754,6.338 2.783,4.807 9.641,15.637 11.886,15.847 .391.036 2.742-3.639 3.169-1.585 .188,1.129 1.304,1.336 1.584,2.376-2.491,5.729-.386,11.251 7.129,11.092-2.242-3.125-2.654-5.837-1.584-10.299-1.053-1.943-2.39,1.429-3.169-.793-1.485-1.512.472-1.433 0-3.961-5.223-5.156-9.905-12.893-12.677-19.809-1.78-4.443-3.946-6.248-2.375-10.299-2.695-.915-5.501-11.752-5.547-15.055-.214-15.788 13.114-31.151 23.769-37.239 .895.954 2.263,1.438 1.584,3.963-8.01.706-8.949,8.479-15.052,11.092-2.438,4.375-3.367,7.817-4.754,13.469-.384,1.565-2.235,2.787-2.378,3.962-1.063,8.815 4.979,18.493 7.132,25.354 1.909,6.091 6.235,18.51 11.092,17.431-3.201-1.888-2.32-6.979-2.378-9.507-.042-1.804-1.472-3.335-1.584-4.754-.934-11.808-.945-23.944 5.547-26.938 .177-1.497-.893-1.748-.793-3.169 2.635-2.383 4.958-5.078 5.547-9.508 3.65-1.884 4.662-6.143 7.923-8.717 2.424-1.913 5.149-1.757 7.923-3.169 8.44-4.294 16.708-10.978 25.354-14.262 4.678-5.356 8.666-11.404 11.092-19.015-2.231-1.61-3.25-1.419-6.338-.791-2.64-1.85-3.256-5.723-7.923-5.548-2.111,11.265-10.398,16.299-19.015,19.016 1.86,3.712-3.174,2.468-3.963,3.169-1.292,1.154-3.687,5.504-4.754,0-.828-3.985 1.723.433 3.169-.791 1.203-1.017.694-5.265 3.962-2.378 1.03-2.188.575-5.292 3.96-3.169 .136-1.185-.283-2.924.793-3.17 4.621,2.401 2.417-4.418 7.129-1.584-.92-3.238 1.097-5.256 3.169-3.17 1.573-6.494 3.954-10.815 1.587-17.431-6.502-1.536-3.903-9.271-8.716-11.092-2.755.363-6.681,5.467-8.717,1.584 2.946-2.866 6.306-5.315 11.886-5.545-1.504-2.339.235-4.906-.791-6.338-10.06-1.299-21.764-.95-27.732-6.338-3.09,1.13-5.204,3.243-6.333,6.339zm164.007-151.333c-.584-.108-.94-1.398-2.376-1.584-10.085-1.306-18.104-4.558-26.146,0-3.284-.214-3.087,1.042-5.548,0-3.53,4.393-8.568,7.277-15.052,8.716-3.338,6.436-10.465,9.08-15.847,13.468-.807,1.042-.777,2.921-1.584,3.962-5.414,3.936-8.391,9.303-11.886,15.055-2.413,3.967-4.453,9.31-6.339,11.883-3.346,4.57-6.076,9.204-7.129,15.846-11.628,10.152-10.916,32.649-9.508,52.292 2.833.433 4.068-1.911 6.338-3.96 2.558,4.045 10.862,2.344 11.884,7.923-4.547.209-9.282-2.413-16.637-1.585-4.37,4.347-12.854,4.577-17.431,8.714-.545,6.587-5.29,8.974-7.132,14.264-.133-.924-1.253-.86-2.376-.793 1.589-4.917 2.521-6.278 4.754-11.092-.011-1.575-2.162-1.007-1.584-3.169-5.989-2.199-10.653-5.722-14.264-10.301-9.74-2.456-14.558-10.83-23.769-14.261-7.284-2.711-15.103-2.433-23.769-3.96-4.915-.867-10.087-3.956-15.053-2.378-3.093-4.388-8.21-3.303-12.677-4.754-9.648-3.13-18.806-9.567-30.901-9.508-4.83,3.358-13.242,3.133-19.809,4.754-7.64,5.301-19.629,6.253-22.976,15.846 15.644-4.462 31.43-13.192 47.538-5.545 2.749.635 3.045-1.18 5.547-.793 1.026,3.422 4.813,2.132 7.129,3.169 .55.246 1.578,1.994 2.378,2.378 8.238,3.954 16.23,7.337 22.976,11.884h3.963c8.291,5.441 11.637,15.83 23.769,17.431 12.679,7.587 26.524,14.24 43.578,13.47 1.403-.708 1.01-3.215 3.96-2.376 1.961,6.099-1.978,10.913-.792,16.637 1.196,5.786 6.868,9.908 7.923,15.846 2.238.655 2.051-1.115 3.96-.791 1.684,4.443 4.317,8.31 10.301,6.339 1.147,1.492 1.164,4.116 3.169,4.754 1.833-1.656 3.714-.039 5.545,0 3.385.071 7.546-1.658 10.301-1.585 .025,0 2.755,1.679 3.169,1.585 1.436-.334 3.873-2.364 5.545-3.17 1.875-.903 3.574-2.893 6.339-2.378 1.095-2.122.867-5 3.963-3.169-1.675-5.326 3.817-9.038 5.545-13.468-2.749-3.827 1.053-6.247 1.584-8.717 .256-1.18-.071-4.078 0-5.545 .12-2.398.446-6.624 0-8.716-1.669-7.859-8.127-9.593-12.677-15.055-5.36-.448-8.378-3.24-10.299-7.129 .538-1.573 2.413-1.812 3.17-3.169 1.64-14.574.947-29.461 3.96-38.824 .161-.499-.143-2.909 0-3.169 .55-.996 2.638-1.111 3.169-2.376 2.488-5.915 2.427-12.95 7.132-16.639 .573-2.422-.81-2.887-.793-4.754 5.813-2.109 5.397-10.448 11.092-12.677 3.615-11.175 13.222-16.356 18.225-26.147 6.18-1.401 6.446-5.674 10.299-7.923 12.23-7.139 27.138,6.771 44.371-.791-2.582-6.313-11.695-2.735-18.222-3.965zm-22.977,6.339c-8.564,6.899-17.932,16.989-24.561,26.147-8.215,11.347-14.179,21.458-19.809,34.861-2.351,5.601-5.625,11.212-6.338,15.846-.741,4.812.48,9.931 0,15.055-.78,8.334-3.554,16.175-3.17,23.769 3.6,1.948 6.624,4.469 11.886,4.754 6.361-3.144 3.165-12.596 6.339-15.846-4.041-3.027.055-7.765-3.169-11.886 4.079-6.605.878-14.195 2.375-22.185 1.244-6.635 6.154-18.077 8.717-22.185 3.643-5.841 8.268-12.973 12.677-16.637 1.573-5.823 3.894-10.897 8.714-13.471 .955-10.784 9.45-14.25 19.018-15.055 4.446-.373 10.009,2.04 13.468-1.584-10.465-.132-18.875-4.675-26.147-1.583zm-44.37,7.923c-.572,1.803-.706,4.048-1.584,5.547-7.335,3.758-10.392,11.792-18.223,15.055-1.03,2.932-2.628,5.294-3.169,8.714-1.648.464-2.562,1.665-3.963,2.378-1.168,10.188-11.547,11.164-10.298,23.769-2.955,6.872-8.659,15.034-7.923,22.976-5.996,4.57-2.309,18.822-8.717,22.978-7.966-3.652-13.098-10.145-20.6-14.261-5.195-1.937-11.226-3.036-15.055-6.338-17.005-.164-26.014-8.319-42.784-8.716-4.837-3.574-11.394-2.088-17.431-3.96-5.267-1.633-9.126-4.797-14.262-5.547-8.224-1.198-15.816,2.015-22.978,2.378-8.416,5.95-22.521,8.664-30.107,15.846-2.928,2.771-6.431,7.659-5.545,12.677 2.125-1.182 1.18-4.981 3.169-7.923 6.969-6.03 15.416-9.54 26.145-12.677 2.976-.872 6.469-2.502 9.507-3.169 .966-.211 1.118,1.143 2.378.791 .428-.117.771-1.405 1.585-1.584 .952-.207 1.111,1.049 2.375.793 .713-.145.757-1.527 2.378-1.584 8.383-.306 16.561,2.576 22.978,7.129 2.684-2.463 4.876,1.527 7.923,2.378 3.061.856 9.643-.503 11.092,3.96 4.526-.407 13.015.943 17.431,3.169 4.933-2.928 8.91,2.557 13.468,0 8.601,5.662 21.393,7.132 26.938,15.846 1.868-.016 2.334,1.366 4.754.793 3.422,4.236 8.956,6.364 12.677,10.301 2.173-.901 4.549.046 5.547,2.376 4.227-2.641 8.289-5.444 13.47-7.132 1.511-9.828-.278-20.234.791-30.899 .916-9.121 7.475-19.103 11.092-26.938 1.417-3.07 1.856-6.992 3.17-9.508 1.195-2.291 4.223-4.068 5.547-6.338 1.78-3.056 2.734-6.35 4.754-9.507 6.835-10.69 15.126-20.375 22.185-26.94-2.126,1.833-4.802,3.116-8.715,3.167zm4.754,117.262c1.433,6.26 6.134,5.412 11.092,5.545 3.859.106 8.671,2.647 10.302,0 4.28,2.348 7.546-.504 11.883-.791 10.869-.718 21.149,4.37 31.694.791-1.844-5.043-10.487-5.639-15.846-4.751-4.657-3.034-10.163-2.744-16.64-2.378-.308-1.132-.949-1.336 0-2.378-10.077,4.402-21.342-2.778-32.485,3.962zm112.509,21.393h-5.547c-.92-2.514-4.915-1.953-5.545-4.753-11.157-.711-19.956-8.611-31.692-8.717-1.755-.016-2.279,1.268-3.963,1.585-2.658.503-6.195.54-8.714.793-9.02.899-12.707-3.323-18.224-3.169-4.071.113-7.767,1.877-10.302,2.376-8.125,1.601-15.922-.058-22.976.793 4.133,4.957-1.078,10.019 2.376,15.053-2.139,1.824-3.659,4.264-3.169,8.717 1.483-.044 1.679.609.793,1.584 26.95,4.538 45.549-2.999 65.763-11.885 4.567,3.355 13.783,2.063 18.222,5.547-4.036,3.103-12.118-.95-16.638-2.378-2.816,1.025-2.881,1.792-6.338.793-13.564,11.398-45.493,15.039-63.387,10.299-2.711,5.212-4.298,11.548-9.507,14.262 3.213,3.848 3.599,8.284 5.547,12.677 .957,2.159 3.597,4.243 4.754,6.338 3.481,6.309 6.384,12.018 6.338,19.016 13.77,13.698 14.708,40.225 20.601,61.802 3.188,1.01 5.487,2.875 7.923,3.169 11.635,1.405 19.928-10.691 30.107-11.092 4.148-.166 5.616,3.67 8.716.791-16.393-13.691-35.503,18.388-43.577,0-.743-1.692.223-4.45 0-5.545-.723-3.535-4.733-6.92-2.378-11.093-6.312-4.42-3.294-13.193-4.754-19.809-.363-1.65-1.831-2.592-2.376-3.962-4.096-10.271-1.483-22.771-4.754-30.899-.577-2.161 1.573-1.596 1.585-3.169-2.997.679-2.804-3.546-1.585-4.754-3.71-2.838-1.702-6.665-3.963-10.301-2.566-4.128-11.09-5.147-8.714-11.092 6.193.409 8.052,5.153 12.677,7.132 3.588-.895 9.121-.536 11.884-.794 .908-.083 2.649-.828 3.169-.791 1.149.078 1.879,1.665 3.169,1.585 1.1-.069 2.268-1.495 3.169-1.585 5.847-.591 12.084.19 18.225-.793 2.918-.468 5.715-2.075 8.717-2.376 15.691-1.58 31.848,7.332 45.159,3.169 6.654,8.454 14.228,11.497 21.394,19.807 7.188-.584 7.751,5.455 10.299,9.508-1.56,2.139-.472,6.925-.791,10.301 10.837-2.215 9.077-17.185 3.96-23.77-8.307-3.576-11.547-12.221-15.846-19.809-10.637-9.903-34.376-6.522-41.991-17.43 7.155,2.088 14.416,4.071 20.601,7.131 8.854-.046 16.947,3.735 23.769,7.923 1.619,2.606 2.047,6.405 4.754,7.924-.962-18.055-16.413-21.622-26.94-30.109zm-43.577,125.184c-6.985.43-12.429,7.686-19.807,10.301-1.067.377-1.792-.872-2.378-.794-.149.021-1.281,1.519-1.585,1.585-19.367,4.262-21.223-14.323-22.978-34.861-3.155-3.946-1.811-7.661-3.169-11.883-.313-.976-1.836-2.047-2.376-3.17-1.164-2.417-1.226-5.871-2.378-7.925-.329-.589-1.897-.966-2.376-1.585-3.484-4.501-3.457-6.932-4.754-12.677-1.336-5.915-6.315-10.609-7.923-16.637-4.857-4.618-3.99-10.182-11.092-12.677h-1.585v2.375c-6.054.309-9.912,1.806-13.471.794 .686,10.406 6.152,16.032 7.132,26.145 7.215,11.438 16.175,21.869 21.392,34.07 4.351,10.177 6.782,19.181 9.507,29.316 6.205,6.131 9.757,13.488 19.016,15.052 17.831,3.011 32.025-13.675 46.747-15.052-2.555-.012-4.882-2.563-7.922-2.377zm-111.716-72.892c1.646,4.163 3.933,7.687 5.547,11.884 1.474.759 2.647-2.371 3.169,0 .241,1.828-2.291.881-2.378,2.378 5.255,5.837 9.914,12.272 11.885,21.392 1.452.924 2.682,2.071 3.961,3.169-.177,1.499.893,1.75.793,3.169 4.382,4.646 9.021,8.91 12.677,15.055 5.925,9.959 7.977,24.245 15.847,30.901 4.542,3.841 10.082,3.615 15.053,7.923 3.641-1.193 8.176,3.142 9.507-2.378h-5.545c-8.509-2.76-13.693-9.905-18.224-15.847-1.444-1.895-3.026-5.372-3.961-7.923-1.219-3.323-3.127-8.125-3.962-11.883-1.69-7.622-4.545-11.254-5.545-17.431-1.638-.479-3.002-1.226-2.378-3.963-1.056-.793-2.39-1.307-3.17-2.376-2.417-7.564-9.491-12.392-12.677-19.809-.954-2.224-.593-5.048-1.584-7.923-1.99-5.772-6.187-10.998-5.545-18.224-.741-.845-2.924-.246-2.379-2.376-3.861,2.339-5.034-1.488-9.507-.794 .663,6.418-1.059,9.821-1.584,15.056zm38.03,71.307c-5.016-13.471-12.339-24.634-22.185-33.276 5.532,12.955 14.971,22.005 22.185,33.276zm60.218,15.055c-2.004,1.95-5.136,3.666-7.926,4.754-4.561,1.777-10.796.943-13.468,4.754 6.891.145 12.546-1.485 17.431-3.963 2.042-1.035 5.598-2.106 5.547-4.754-.175-.616-.664-.92-1.584-.791zm-156.878,25.354c3.098,1.083-.373,7.517 2.376,7.13 2.605-1.354 1.253-6.67 1.584-10.299h-3.169c.06,1.38-.177,2.463-.791,3.169z" fill-rule="evenodd"/>
 <path d="m154.631,177.478c2.53-.679 2.452,1.246 3.962,1.585-.188,3.716-9.167.689-6.338,3.169-.497,1.927-4.004.418-3.169-1.585 2.525-.379 4.83-.982 5.545-3.169z" fill-rule="evenodd"/>
 <path d="m312.303,12.677c-17.233,7.562-32.141-6.348-44.371.791-3.853,2.25-4.119,6.522-10.299,7.923-5.003,9.791-14.609,14.972-18.225,26.147-5.694,2.229-5.278,10.568-11.092,12.677-.017,1.867 1.366,2.332.793,4.754-4.705,3.689-4.644,10.724-7.132,16.639-.531,1.265-2.619,1.38-3.169,2.376-.143.26.161,2.67 0,3.169-3.013,9.363-2.32,24.25-3.96,38.824-.757,1.357-2.632,1.596-3.17,3.169 1.921,3.889 4.938,6.681 10.299,7.129 4.55,5.462 11.008,7.196 12.677,15.055 .446,2.093.12,6.318 0,8.716-.071,1.467.256,4.365 0,5.545-.531,2.47-4.333,4.89-1.584,8.717-1.728,4.43-7.22,8.142-5.545,13.468-3.096-1.831-2.868,1.047-3.963,3.169-2.765-.515-4.464,1.475-6.339,2.378-1.672.806-4.109,2.836-5.545,3.17-.414.094-3.144-1.585-3.169-1.585-2.755-.073-6.916,1.656-10.301,1.585-1.831-.039-3.712-1.656-5.545,0-2.006-.638-2.022-3.262-3.169-4.754-5.984,1.971-8.618-1.896-10.301-6.339-1.909-.324-1.722,1.446-3.96.791-1.056-5.938-6.727-10.06-7.923-15.846-1.187-5.725 2.753-10.538.792-16.637-2.951-.839-2.558,1.667-3.96,2.376-17.054.77-30.898-5.883-43.578-13.47-12.132-1.601-15.478-11.989-23.769-17.431h-3.963c-6.745-4.547-14.737-7.93-22.976-11.884-.8-.384-1.828-2.132-2.378-2.378-2.316-1.037-6.104.253-7.129-3.169-2.502-.387-2.799,1.428-5.547.793-16.108-7.647-31.895,1.083-47.538,5.545 3.346-9.593 15.335-10.545 22.976-15.846 6.566-1.621 14.979-1.396 19.809-4.754 12.095-.06 21.253,6.378 30.901,9.508 4.466,1.451 9.583.366 12.677,4.754 4.965-1.578 10.138,1.511 15.053,2.378 8.666,1.527 16.485,1.249 23.769,3.96 9.211,3.431 14.029,11.805 23.769,14.261 3.611,4.579 8.275,8.103 14.264,10.301-.577,2.162 1.573,1.594 1.584,3.169-2.233,4.814-3.165,6.175-4.754,11.092 1.123-.066 2.243-.131 2.376.793 1.842-5.29 6.587-7.677 7.132-14.264 4.577-4.137 13.061-4.368 17.431-8.714 7.355-.828 12.09,1.794 16.637,1.585-1.021-5.58-9.326-3.878-11.884-7.923-2.27,2.049-3.505,4.393-6.338,3.96-1.408-19.643-2.121-42.14 9.508-52.292 1.053-6.642 3.783-11.276 7.129-15.846 1.886-2.574 3.926-7.916 6.339-11.883 3.495-5.752 6.472-11.12 11.886-15.055 .807-1.042.777-2.92 1.584-3.962 5.382-4.388 12.509-7.033 15.847-13.468 6.483-1.439 11.521-4.323 15.052-8.716 2.461,1.042 2.264-.214 5.548,0 8.042-4.558 16.062-1.306 26.146,0 1.436.187 1.792,1.477 2.376,1.584 6.524,1.232 15.637-2.346 18.222,3.965zm-116.47,102.208c2.323.674-1.03,1.994 0,3.96 1.838.253 3.04-.126 3.96-.792 .237-1.557-1.069-1.571-1.584-2.378 .044-1.012 1.017-1.097.793-2.376-1.477.109-2.649.521-3.169,1.586zm-1.584,23.769c3.56.402 2.606-4.149 0-3.96-1.486,1.508-.088,1.989 0,3.96zm-2.378,2.378c.575-3.479-1.702-4.11-3.96-4.756-.728,3.631 2.186,3.624 3.96,4.756zm-3.961,0c-1.509-.34-1.992-1.709-3.963-1.587-1.205,3.429 3.62,4.278 3.963,1.587zm-9.508,5.545c.672,1.175 1.994,1.704 3.96,1.584 .407-2.479-2.167-3.537 1.584-3.169 .133-1.982-1.216-2.479-2.375-3.169 .086,2.728-2.732,2.551-3.169,4.754zm-.793,7.923c.363-2.475-1.692-2.532-3.96-2.375-.364,2.474 1.692,2.531 3.96,2.375zm-6.338,8.716h3.963c-2.659-3.659.483-2.882.791-7.132h-3.96c1.363,3.754-.114,3.864-.794,7.132zm.793,7.923c1.835.253 3.041-.129 3.96-.793-1.727-2.116-1.026-3.646-1.584-5.545h-3.96c2.051,3.337 1.541,3.647 1.584,6.338zm1.584,4.754c1.84-.273 3.712-.513 3.169-3.169h-3.963c-.059,1.38.178,2.463.794,3.169z" fill="#f4bb3a" fill-rule="evenodd"/>
 <path d="m136.409,153.708c5.968,5.389 17.672,5.039 27.732,6.338 1.026,1.433-.713,4 .791,6.338-5.58.23-8.939,2.679-11.886,5.545 2.036,3.882 5.961-1.221 8.717-1.584 4.813,1.821 2.214,9.556 8.716,11.092 2.367,6.615-.014,10.937-1.587,17.431-2.072-2.086-4.089-.068-3.169,3.17-4.712-2.834-2.509,3.985-7.129,1.584-1.076.246-.658,1.985-.793,3.17-3.385-2.123-2.93.981-3.96,3.169-3.268-2.887-2.76,1.361-3.962,2.378-1.447,1.224-3.997-3.194-3.169.791 1.067,5.504 3.461,1.154 4.754,0 .789-.701 5.823.543 3.963-3.169 8.617-2.717 16.904-7.751 19.015-19.016 4.667-.175 5.283,3.698 7.923,5.548 3.089-.628 4.107-.819 6.338.791-2.426,7.61-6.414,13.658-11.092,19.015-8.645,3.284-16.913,9.968-25.354,14.262-2.773,1.412-5.499,1.256-7.923,3.169-3.261,2.574-4.273,6.833-7.923,8.717-.588,4.43-2.912,7.125-5.547,9.508-.099,1.421.97,1.672.793,3.169-6.493,2.994-6.481,15.131-5.547,26.938 .113,1.419 1.543,2.95 1.584,4.754 .058,2.527-.823,7.619 2.378,9.507-4.857,1.079-9.183-11.34-11.092-17.431-2.153-6.86-8.195-16.538-7.132-25.354 .143-1.175 1.994-2.396 2.378-3.962 1.387-5.651 2.316-9.094 4.754-13.469 6.104-2.612 7.042-10.386 15.052-11.092 .679-2.525-.69-3.009-1.584-3.963-10.655,6.088-23.983,21.451-23.769,37.239 .046,3.303 2.852,14.14 5.547,15.055-1.571,4.051.596,5.855 2.375,10.299 2.771,6.916 7.454,14.652 12.677,19.809 .472,2.528-1.485,2.449 0,3.961 .78,2.222 2.116-1.15 3.169.793-1.069,4.462-.658,7.174 1.584,10.299-7.516.159-9.62-5.363-7.129-11.092-.281-1.04-1.396-1.247-1.584-2.376-.428-2.054-2.778,1.621-3.169,1.585-2.245-.21-9.103-11.04-11.886-15.847-1.446-2.502-3.977-4.654-4.754-6.338-.683-1.479-.19-3.418-.791-4.754-.531-1.183-1.84-1.426-2.378-2.378-1.966-3.479-.821-8.602-3.96-10.299v-4.754c-3.875-9.006-6.87-22.127-3.169-32.485 1.2-3.365 4.691-5.105 7.923-8.717 3.059-3.42 5.402-8.651 7.923-11.092 3.417-3.31 8.956-4.443 10.299-8.714-5.191-2.271-6.964,5.698-11.883,6.338-1.343,3.675-4.006,6.03-7.132,7.923-.34,1.509-1.707,1.989-1.584,3.961-12.367,8.017-12.153,30.537-5.545,44.371 .104,1.952.12,3.815-.793,4.753 .221,1.627 2.116,1.58 3.169,2.376 .591,8.39 5.957,12.003 7.132,19.809 4.411,3.248 4.846,10.472 11.092,11.884 1.444,8.42 10.697,13.254 12.677,21.394 .418,1.718-.844,2.061-.793,3.169 .071,1.499 1.511,1.81 1.584,2.376 .407,3.104-1.43,7.12-2.375,9.507-3.264-2.23-.831-6.455-1.584-10.299-.911-4.643-3.581-10.517-6.338-14.261-3.763-5.108-10.474-7.293-12.677-13.471-3.243-1.27-2.256-4.404-3.962-7.129-2.396-3.832-6.957-6.765-8.714-11.093-.658-1.616-.25-4.109-.793-6.338-1.817-7.459-6.396-16.709-6.338-27.732 .009-1.854-.154-4.434 0-7.132 1.221-21.26 17.097-31.381 24.562-45.953 5.901-.285 8.668-7.585 12.677-10.299 .501-.34 1.93.398 2.376,0 2.833-2.529 5.078-5.828 5.547-10.301 2.024-.088 2.773-1.451 3.96-2.376 1.757-.437 1.129,1.514 2.378,1.585 1.442-5.278 7.999-3.577 12.677-7.923-4.324-7.744-14.563-.101-20.6-6.338 1.124-3.096 3.238-5.209 6.333-6.339zm-10.301,40.406c-1.539,1.631-5.736.604-4.754,4.754 5.603.66 7.592-4.914 9.508-7.129 1.628-1.882 4.68-4.043 7.132-6.339 5.285-4.951 10.885-6.701 15.052-11.886-13.198,2.648-19.169,12.524-26.938,20.6zm22.978-13.468c-.835,2.003 2.672,3.512 3.169,1.585-2.829-2.479 6.15.547 6.338-3.169-1.511-.339-1.433-2.264-3.962-1.585-.715,2.188-3.02,2.791-5.545,3.169zm0,5.545c.552-2.93-1.253-3.5-3.963-3.169 .15,2.229 1.38,3.376 3.963,3.169zm-7.132,1.585c1.808.223 2.979-.191 3.169-1.585-1.069-.248-1.513-1.127-3.169-.791v2.376zm1.585,26.939c1.12.019-5.483,3.206-4.754,2.378-.874.993.741,2.718-.791,3.169-1.546.453-1.516-3.118-3.169-1.585v3.961c6.157.876 6.29-4.273 11.883-3.961 .145-2.944-1.419-3.935-3.169-3.962z" fill="#f4bb3a" fill-rule="evenodd"/>
 <path d="m190.286,198.868c4.473-.694 5.646,3.133 9.507.794-.545,2.13 1.638,1.531 2.379,2.376-.642,7.226 3.555,12.451 5.545,18.224 .991,2.875.63,5.699 1.584,7.923 3.186,7.417 10.26,12.244 12.677,19.809 .78,1.069 2.114,1.583 3.17,2.376-.624,2.737.74,3.484 2.378,3.963 1,6.177 3.854,9.809 5.545,17.431 .835,3.758 2.743,8.56 3.962,11.883 .935,2.551 2.517,6.028 3.961,7.923 4.53,5.941 9.715,13.087 18.224,15.847h5.545c-1.331,5.52-5.866,1.185-9.507,2.378-4.971-4.308-10.511-4.082-15.053-7.923-7.87-6.656-9.922-20.942-15.847-30.901-3.656-6.145-8.295-10.409-12.677-15.055 .1-1.419-.97-1.67-.793-3.169-1.279-1.098-2.509-2.245-3.961-3.169-1.971-9.119-6.63-15.555-11.885-21.392 .087-1.497 2.619-.55 2.378-2.378-.522-2.371-1.695.759-3.169,0-1.615-4.197-3.901-7.721-5.547-11.884 .524-5.236 2.246-8.639 1.584-15.056z" fill="#f4bb3a" fill-rule="evenodd"/>
</svg>
