<?xml version="1.0" encoding="UTF-8"?>
<svg viewBox="0 0 134.71875 134.625" xmlns="http://www.w3.org/2000/svg">
 <g transform="translate(-3048.4 2585.9)">
  <path d="m3083.8-2585.9-35.469 35.438v63.875l35.312 35.312h63.156l36.25-36.25v-63.219l-34.969-34.969-64.281-0.1875zm2.0313 4.3125 60.156 0.1875 32.75 32.719v59.156l-33.938 33.938h-59.094l-33.031-33.031v-59.781l33.156-33.188z" fill="#f00" fill-rule="evenodd"/>
  <path d="m3088-2577-30.767 30.767v55.431l30.639 30.639h54.795l31.466-31.466v-54.858l-30.353-30.353-55.78-0.159z" fill="#f00" fill-rule="evenodd"/>
  <path transform="scale(.86355 1.158)" d="m3546.44-2167.8654 6.5795-.7774c.7404,5.2007 3.1649,7.8011 7.2737,7.8011 2.0358,0 3.6367-.5321 4.8028-1.5963s1.7489-2.3829 1.7489-3.9561c0-.9254-.2036-1.7119-.6107-2.3597s-1.0272-1.1799-1.8601-1.5963-2.8502-1.1151-6.052-2.0961c-2.8688-.8698-4.9694-1.8137-6.302-2.8317s-2.3921-2.3551-3.1787-4.0115-1.1799-3.4379-1.1799-5.3442c0-2.2209.5043-4.2198 1.513-5.9966s2.4014-3.1185 4.1782-4.0254 3.9699-1.3603 6.5795-1.3604c3.9237.0001 6.9868,1.0643 9.1892,3.1926s3.3684,5.173 3.498,9.1337l-6.7461.3609c-.2962-2.1839-.9347-3.7108-1.9156-4.5807s-2.3783-1.3048-4.192-1.3048-3.2112.3794-4.1921,1.1382-1.4714,1.7028-1.4713,2.8317c-.0001,1.1105.4441,2.0452 1.3325,2.804s2.9335,1.5917 6.1354,2.4985c3.3869.981 5.8346,2.0128 7.343,3.0955s2.6605,2.4801 3.4564,4.192 1.1937,3.7895 1.1937,6.2326c0,3.535-1.0874,6.5055-3.262,8.9115s-5.5755,3.6091-10.2025,3.6091c-8.1805,0-12.7334-4.6548-13.6588-13.9642zm40.3102,13.2424v-33.814h-9.911v-6.8849h26.5126v6.8849h-9.8832v33.814h-6.7184zm19.6831-20.0996c0-4.8491.7172-8.8421 2.1516-11.9793s3.3083-5.4736 5.6218-7.0098 5.1174-2.3042 8.4118-2.3043c4.775.0001 8.6663,1.8231 11.6739,5.4691s4.5112,8.8376 4.5113,15.5744c-.0001,6.8109-1.5918,12.132-4.7751,15.9631-2.7947,3.3869-6.5888,5.0804-11.3823,5.0804-4.8306,0-8.6432-1.675-11.4379-5.0249-3.1834-3.8311-4.7751-9.0874-4.7751-15.7687zm6.9405-.2776c0,4.6825.8884,8.1943 2.6651,10.5356s3.9792,3.5119 6.6074,3.5119c2.6466,0 4.8398-1.1614 6.5795-3.4842s2.6096-5.8901 2.6096-10.7022c0-4.7194-.8467-8.2082-2.5402-10.4662s-3.9098-3.3869-6.6489-3.3869-4.9694,1.1383-6.6906,3.4147-2.5819,5.8022-2.5819,10.5773zm30.7046,20.3772v-40.6989h10.8271c4.0347,0 6.6721.1944 7.9122.583 1.9803.6293 3.6136,1.9711 4.8999,4.0254s1.9294,4.7011 1.9295,7.9399c-.0001,2.9428-.5553,5.409-1.6657,7.3986s-2.4986,3.3869-4.1643,4.192-4.5345,1.2077-8.6062,1.2077h-4.4141v15.3523h-6.7184zm6.7184-33.814v11.549h3.7201c2.4985,0 4.1966-.1759 5.0943-.5275s1.6333-.9855 2.207-1.9017 .8606-2.0405.8606-3.3731c0-1.351-.2961-2.4893-.8883-3.4147s-1.3234-1.5454-2.1932-1.86-2.7114-.4719-5.5246-.472h-3.2759z" fill="#fff"/>
 </g>
</svg>
