<?xml version="1.0" encoding="UTF-8"?>
<svg viewBox="0 0 282.10187 359.82928" xmlns="http://www.w3.org/2000/svg" xmlns:xlink="http://www.w3.org/1999/xlink">
 <defs>
  <filter id="o">
   <feGaussianBlur stdDeviation="4.74191"/>
  </filter>
  <linearGradient id="b">
   <stop stop-color="#55860d" offset="0"/>
   <stop stop-color="#96c622" offset="1"/>
  </linearGradient>
  <linearGradient id="c">
   <stop stop-color="#fff" stop-opacity=".72535" offset="0"/>
   <stop stop-color="#fff" stop-opacity="0" offset="1"/>
  </linearGradient>
  <linearGradient id="a" x1="427.24" x2="438.25" y1="606.38" y2="573.63" gradientUnits="userSpaceOnUse">
   <stop stop-color="#fff" offset="0"/>
   <stop stop-color="#b7230e" offset="1"/>
  </linearGradient>
  <linearGradient id="m" x1="594.42" x2="516.74" y1="292.04" y2="349.04" gradientUnits="userSpaceOnUse">
   <stop stop-color="#fff" offset="0"/>
   <stop stop-color="#fff" stop-opacity="0" offset="1"/>
  </linearGradient>
  <linearGradient id="k" x1="488.87" x2="502.13" gradientUnits="userSpaceOnUse">
   <stop stop-color="#3e6f05" offset="0"/>
   <stop stop-color="#3e6f05" stop-opacity="0" offset="1"/>
  </linearGradient>
  <linearGradient id="n" x1="594.13" x2="555.12" y1="384.15" y2="372.19" gradientUnits="userSpaceOnUse" xlink:href="#c"/>
  <linearGradient id="l" x1="501.24" x2="499.4" y1="262.88" y2="281.88" gradientUnits="userSpaceOnUse" xlink:href="#c"/>
  <radialGradient id="j" cx="457.41" cy="654.56" r="121.08" gradientTransform="matrix(1.0728 .19777 -.21697 1.177 79.371 -485.33)" gradientUnits="userSpaceOnUse">
   <stop stop-color="#9e230e" offset="0"/>
   <stop stop-color="#9e230e" stop-opacity="0" offset="1"/>
  </radialGradient>
  <radialGradient id="i" cx="484.7" cy="523.56" r="121.08" gradientTransform="matrix(.99422 -.10738 .084597 .78325 -46.33 177.61)" gradientUnits="userSpaceOnUse">
   <stop stop-opacity=".44014" offset="0"/>
   <stop stop-opacity="0" offset="1"/>
  </radialGradient>
  <radialGradient id="h" cx="426.44" cy="173.04" r="20.494" gradientTransform="matrix(.46955 -.25263 .73626 1.3685 154.72 112.03)" gradientUnits="userSpaceOnUse" xlink:href="#b"/>
  <radialGradient id="g" cx="426.44" cy="173.04" r="20.494" gradientTransform="matrix(.43361 .31029 -.90432 1.2637 448.99 -78.326)" gradientUnits="userSpaceOnUse" xlink:href="#b"/>
  <radialGradient id="f" cx="445.26" cy="232.68" r="78.92" gradientTransform="matrix(1.0286 -.051834 .0066596 .13215 -14.264 243.06)" gradientUnits="userSpaceOnUse" xlink:href="#b"/>
  <radialGradient id="e" cx="434.9" cy="172.51" r="20.494" gradientTransform="matrix(.3732 -.38763 1.3265 1.1827 148.28 236.06)" gradientUnits="userSpaceOnUse" xlink:href="#b"/>
  <radialGradient id="d" cx="536.46" cy="254.61" r="80.141" gradientTransform="matrix(1.1449 -.031137 .004227 .15543 -99.314 231.74)" gradientUnits="userSpaceOnUse" xlink:href="#b"/>
 </defs>
 <g transform="translate(-324.53 -161.24)">
  <path d="m440.47 173.25-6.4375 5.2188c-0.06532-0.08975-0.12166-0.19271-0.1875-0.28125l-5.4375 4.4375c0.0769 0.08819 0.14256 0.19148 0.21875 0.28125l-0.75 0.59375c10.631 12.191 14.397 39.546 15.75 57.125-28.376-23.573-18.041-10.379-31.938-6.9688 1.1915 13.641-13.163 10.55 5.875 31-9.0701 2.1905-23.048 6.3453-46.031 13.812-29.371 9.541-31.018-0.34495-47 12.375 14.127 1.1516 22.729 11.105 35.844 11.969-8.1821 10.645-14.639 23.736-17 34.812-4.3712 20.511 0.81023 50.681 10.906 69.062 0.72654 1.3228 1.5119 2.6168 2.375 3.9062 12.088 20.59 41.311 37.028 59.656 52 22.245 18.154 48.259 51.956 76.406 57.625 1.2639 0.25454 2.613 0.42129 4 0.53125 12.058 1.5488 29.02-2.7313 37.688-10.469 18.185-16.232 23.052-51.695 29.156-76.094 0.03863 0.1149 0.08668 0.22889 0.125 0.34375 0.2578-1.0395 0.51821-2.0956 0.78125-3.0938 8.7643-33.258 24.406-79.619 17.5-113.31-3.2477-15.844-13.367-36.922-26.562-48.312-2.3094-2.3069-4.7444-4.3169-7.25-5.9688l0.15625-0.0625c-0.63518-0.41667-1.2916-0.7889-1.9375-1.1562-1.0783-0.6133-2.2321-1.1488-3.4688-1.5938 26.054-7.5489 22.566-23.098 33.406-38.719-20.278-2.4543-9.9867 8.1045-40 15.375-18.14 4.3943-31.797 2.069-40.375 6.75-3.0039 1.6393-5.5989 3.1376-8.0312 4.5625-8.899-0.61436-15.607 6.7819-24.438 6.9375-0.01898 0.15314-0.01331 0.22695-0.03125 0.375l-1.75-0.1875-21.219-82.875z" fill="#babdb6" fill-rule="evenodd" filter="url(#o)"/>
  <g transform="matrix(.97308 -.23047 .23047 .97308 -63.745 124.1)">
   <path d="m490.83 164.94 14.617-7.0711 1.5386 85.56 31.542 11.314s6.1546 7.7782 2.308 6.364-86.165-4.2426-86.165-4.2426l35.389-16.971s12.309-53.033 0.76933-74.953z" fill="#96c622" fill-rule="evenodd"/>
   <path d="m551.69 260.19c-59.941 3.3864-96.911-19.609-134.76-5.3108-16.735 6.322-35.489 24.992-43.15 41.158-8.9806 18.952-10.899 49.49-5.3108 69.704 6.4339 23.274 31.783 46.553 46.469 65.721 17.462 22.792 34.991 61.684 61.074 73.687 11.218 5.1625 30.298 5.2152 41.158-0.66384 22.199-12.017 35.248-47.434 47.133-69.704 16.193-30.343 42.105-71.837 43.15-106.22 0.56819-18.696-6.2253-46.337-19.915-59.082-8.1314-7.5703-24.755-9.9205-35.848-9.2938z" fill="#d2230e" fill-rule="evenodd"/>
   <path d="m554.33 256.15c-59.941 3.3864-96.911-19.609-134.76-5.3108-16.735 6.322-35.489 24.992-43.15 41.158-8.9806 18.952-10.899 49.49-5.3108 69.704 6.4339 23.274 31.783 46.553 46.469 65.721 17.462 22.792 34.991 61.684 61.074 73.687 11.218 5.1625 30.298 5.2152 41.158-0.66384 22.199-12.017 35.248-47.434 47.133-69.704 16.193-30.343 42.105-71.837 43.15-106.22 0.56819-18.696-6.2253-46.337-19.915-59.082-8.1314-7.5703-24.755-9.9205-35.848-9.2938z" fill="url(#j)" fill-rule="evenodd"/>
   <path d="m552.5 264.78c-59.941 3.3864-96.911-19.609-134.76-5.3108-16.735 6.322-35.489 24.992-43.15 41.158-8.9806 18.952-10.899 49.49-5.3108 69.704 6.4339 23.274 31.783 46.553 46.469 65.721 17.462 22.792 34.991 61.684 61.074 73.687 11.218 5.1625 30.298 5.2152 41.158-0.66384 22.199-12.017 35.248-47.434 47.133-69.704 16.193-30.343 42.105-71.837 43.15-106.22 0.5682-18.696-6.2253-46.337-19.915-59.082-8.1313-7.5703-24.755-9.9205-35.848-9.2938z" fill="url(#n)" fill-rule="evenodd" opacity=".90141"/>
   <path transform="matrix(.56066 .13192 -.15685 .66658 313.68 -111.77)" d="m434 571.25c-2.2405 0-4.2172 1.0747-5.5938 2.4062s-2.3373 2.9495-3.125 4.75c-1.5754 3.6009-2.4062 8.0648-2.4062 12.969s0.83085 9.3678 2.4062 12.969c0.7877 1.8005 1.7485 3.4185 3.125 4.75s3.3532 2.4062 5.5938 2.4062 4.2172-1.0747 5.5938-2.4062 2.3373-2.9495 3.125-4.75c1.5754-3.6009 2.4062-8.0648 2.4062-12.969s-0.83085-9.3678-2.4062-12.969c-0.7877-1.8005-1.7485-3.4185-3.125-4.75s-3.3532-2.4062-5.5938-2.4062z" fill="url(#a)"/>
   <path transform="matrix(.56066 .13192 -.15685 .66658 313.53 -111.38)" d="m441 591.36a7 16 0 1 1 -14 0 7 16 0 1 1 14 0z" fill="#d2230e"/>
   <path transform="matrix(.49058 .11543 -.13724 .58326 332.52 -55.53)" d="m441 591.36a7 16 0 1 1 -14 0 7 16 0 1 1 14 0z" fill="#e2973a"/>
   <path transform="matrix(4.5877 -1.3487 .1004 .65826 -1949.7 636.36)" d="m513.97 590.85a0.21677 2.6013 0 1 1 -0.43355 0 0.21677 2.6013 0 1 1 0.43355 0z" fill="#fff"/>
   <path transform="matrix(4.2629 -3.2192 .23478 .75827 -1867.3 1552.1)" d="m513.97 590.85a0.21677 2.6013 0 1 1 -0.43355 0 0.21677 2.6013 0 1 1 0.43355 0z" fill="#ce5c00"/>
   <path transform="matrix(.70787 0 0 .70787 190.16 -35.521)" d="m434 571.25c-2.2405 0-4.2172 1.0747-5.5938 2.4062s-2.3373 2.9495-3.125 4.75c-1.5754 3.6009-2.4062 8.0648-2.4062 12.969s0.83085 9.3678 2.4062 12.969c0.7877 1.8005 1.7485 3.4185 3.125 4.75s3.3532 2.4062 5.5938 2.4062 4.2172-1.0747 5.5938-2.4062 2.3373-2.9495 3.125-4.75c1.5754-3.6009 2.4062-8.0648 2.4062-12.969s-0.83085-9.3678-2.4062-12.969c-0.7877-1.8005-1.7485-3.4185-3.125-4.75s-3.3532-2.4062-5.5938-2.4062z" fill="url(#a)"/>
   <path transform="matrix(.70787 0 0 .70787 190.09 -35.086)" d="m441 591.36a7 16 0 1 1 -14 0 7 16 0 1 1 14 0z" fill="#d2230e"/>
   <path transform="matrix(.61938 0 0 .61938 228.53 16.614)" d="m441 591.36a7 16 0 1 1 -14 0 7 16 0 1 1 14 0z" fill="#e2973a"/>
   <path transform="matrix(5.1087 -2.4433 .30541 .63859 -2307 1253.2)" d="m513.97 590.85a0.21677 2.6013 0 1 1 -0.43355 0 0.21677 2.6013 0 1 1 0.43355 0z" fill="#fff"/>
   <path transform="matrix(4.1936 -4.2485 .49432 .70741 -1950.6 2155.1)" d="m513.97 590.85a0.21677 2.6013 0 1 1 -0.43355 0 0.21677 2.6013 0 1 1 0.43355 0z" fill="#ce5c00"/>
   <path transform="matrix(.56783 -.11567 .13251 .65052 115.35 41.77)" d="m434 571.25c-2.2405 0-4.2172 1.0747-5.5938 2.4062s-2.3373 2.9495-3.125 4.75c-1.5754 3.6009-2.4062 8.0648-2.4062 12.969s0.83085 9.3678 2.4062 12.969c0.7877 1.8005 1.7485 3.4185 3.125 4.75s3.3532 2.4062 5.5938 2.4062 4.2172-1.0747 5.5938-2.4062 2.3373-2.9495 3.125-4.75c1.5754-3.6009 2.4062-8.0648 2.4062-12.969s-0.83085-9.3678-2.4062-12.969c-0.7877-1.8005-1.7485-3.4185-3.125-4.75s-3.3532-2.4062-5.5938-2.4062z" fill="url(#a)"/>
   <path transform="matrix(.56783 -.11567 .13251 .65052 115.38 42.18)" d="m441 591.36a7 16 0 1 1 -14 0 7 16 0 1 1 14 0z" fill="#d2230e"/>
   <path transform="matrix(.49685 -.10121 .11595 .5692 155.89 83.412)" d="m441 591.36a7 16 0 1 1 -14 0 7 16 0 1 1 14 0z" fill="#e2973a"/>
   <path transform="matrix(3.6406 -3.0801 .36453 .53695 -1646.5 1634.1)" d="m513.97 590.85a0.21677 2.6013 0 1 1 -0.43355 0 0.21677 2.6013 0 1 1 0.43355 0z" fill="#fff"/>
   <path transform="matrix(2.5686 -4.5896 .52895 .56932 -1191.8 2404.8)" d="m513.97 590.85a0.21677 2.6013 0 1 1 -0.43355 0 0.21677 2.6013 0 1 1 0.43355 0z" fill="#ce5c00"/>
   <path transform="matrix(.68381 -.12759 .13458 .64829 96.705 92.167)" d="m434 571.25c-2.2405 0-4.2172 1.0747-5.5938 2.4062s-2.3373 2.9495-3.125 4.75c-1.5754 3.6009-2.4062 8.0648-2.4062 12.969s0.83085 9.3678 2.4062 12.969c0.7877 1.8005 1.7485 3.4185 3.125 4.75s3.3532 2.4062 5.5938 2.4062 4.2172-1.0747 5.5938-2.4062 2.3373-2.9495 3.125-4.75c1.5754-3.6009 2.4062-8.0648 2.4062-12.969s-0.83085-9.3678-2.4062-12.969c-0.7877-1.8005-1.7485-3.4185-3.125-4.75s-3.3532-2.4062-5.5938-2.4062z" fill="url(#a)"/>
   <path transform="matrix(.68381 -.12759 .13458 .64829 96.729 92.576)" d="m441 591.36a7 16 0 1 1 -14 0 7 16 0 1 1 14 0z" fill="#d2230e"/>
   <path transform="matrix(.59833 -.11164 .11775 .56726 143.68 133)" d="m441 591.36a7 16 0 1 1 -14 0 7 16 0 1 1 14 0z" fill="#e2973a"/>
   <path transform="matrix(4.4706 -3.1585 .41644 .5298 -2070.6 1722.5)" d="m513.97 590.85a0.21677 2.6013 0 1 1 -0.43355 0 0.21677 2.6013 0 1 1 0.43355 0z" fill="#fff"/>
   <path transform="matrix(3.2434 -4.6468 .61201 .55878 -1554.8 2484.3)" d="m513.97 590.85a0.21677 2.6013 0 1 1 -0.43355 0 0.21677 2.6013 0 1 1 0.43355 0z" fill="#ce5c00"/>
   <path transform="matrix(.77528 0 0 .63908 161.75 89.227)" d="m434 571.25c-2.2405 0-4.2172 1.0747-5.5938 2.4062s-2.3373 2.9495-3.125 4.75c-1.5754 3.6009-2.4062 8.0648-2.4062 12.969s0.83085 9.3678 2.4062 12.969c0.7877 1.8005 1.7485 3.4185 3.125 4.75s3.3532 2.4062 5.5938 2.4062 4.2172-1.0747 5.5938-2.4062 2.3373-2.9495 3.125-4.75c1.5754-3.6009 2.4062-8.0648 2.4062-12.969s-0.83085-9.3678-2.4062-12.969c-0.7877-1.8005-1.7485-3.4185-3.125-4.75s-3.3532-2.4062-5.5938-2.4062z" fill="url(#a)"/>
   <path transform="matrix(.77528 0 0 .63908 161.68 89.62)" d="m441 591.36a7 16 0 1 1 -14 0 7 16 0 1 1 14 0z" fill="#d2230e"/>
   <path transform="matrix(.67837 0 0 .5592 203.77 136.3)" d="m441 591.36a7 16 0 1 1 -14 0 7 16 0 1 1 14 0z" fill="#e2973a"/>
   <path transform="matrix(5.5953 -2.2059 .3345 .57654 -2573.2 1252.7)" d="m513.97 590.85a0.21677 2.6013 0 1 1 -0.43355 0 0.21677 2.6013 0 1 1 0.43355 0z" fill="#fff"/>
   <path transform="matrix(4.593 -3.8357 .5414 .63867 -2182.9 2067)" d="m513.97 590.85a0.21677 2.6013 0 1 1 -0.43355 0 0.21677 2.6013 0 1 1 0.43355 0z" fill="#ce5c00"/>
   <path transform="matrix(.63662 .12664 -.14331 .56255 342.73 30.061)" d="m434 571.25c-2.2405 0-4.2172 1.0747-5.5938 2.4062s-2.3373 2.9495-3.125 4.75c-1.5754 3.6009-2.4062 8.0648-2.4062 12.969s0.83085 9.3678 2.4062 12.969c0.7877 1.8005 1.7485 3.4185 3.125 4.75s3.3532 2.4062 5.5938 2.4062 4.2172-1.0747 5.5938-2.4062 2.3373-2.9495 3.125-4.75c1.5754-3.6009 2.4062-8.0648 2.4062-12.969s-0.83085-9.3678-2.4062-12.969c-0.7877-1.8005-1.7485-3.4185-3.125-4.75s-3.3532-2.4062-5.5938-2.4062z" fill="url(#a)"/>
   <path transform="matrix(.63662 .12664 -.14331 .56255 342.59 30.395)" d="m441 591.36a7 16 0 1 1 -14 0 7 16 0 1 1 14 0z" fill="#d2230e"/>
   <path transform="matrix(.55704 .11081 -.1254 .49223 366.69 78.358)" d="m441 591.36a7 16 0 1 1 -14 0 7 16 0 1 1 14 0z" fill="#e2973a"/>
   <path transform="matrix(5.0892 -1.0278 .14538 .56213 -2164 607.44)" d="m513.97 590.85a0.21677 2.6013 0 1 1 -0.43355 0 0.21677 2.6013 0 1 1 0.43355 0z" fill="#fff"/>
   <path transform="matrix(4.6317 -2.6261 .30135 .65062 -2026.1 1388)" d="m513.97 590.85a0.21677 2.6013 0 1 1 -0.43355 0 0.21677 2.6013 0 1 1 0.43355 0z" fill="#ce5c00"/>
   <path transform="matrix(.62535 .21323 -.19314 .56645 400.14 -66.735)" d="m434 571.25c-2.2405 0-4.2172 1.0747-5.5938 2.4062s-2.3373 2.9495-3.125 4.75c-1.5754 3.6009-2.4062 8.0648-2.4062 12.969s0.83085 9.3678 2.4062 12.969c0.7877 1.8005 1.7485 3.4185 3.125 4.75s3.3532 2.4062 5.5938 2.4062 4.2172-1.0747 5.5938-2.4062 2.3373-2.9495 3.125-4.75c1.5754-3.6009 2.4062-8.0648 2.4062-12.969s-0.83085-9.3678-2.4062-12.969c-0.7877-1.8005-1.7485-3.4185-3.125-4.75s-3.3532-2.4062-5.5938-2.4062z" fill="url(#a)"/>
   <path transform="matrix(.62535 .21323 -.19314 .56645 399.97 -66.406)" d="m441 591.36a7 16 0 1 1 -14 0 7 16 0 1 1 14 0z" fill="#d2230e"/>
   <path transform="matrix(.54718 .18657 -.169 .49565 419.81 -13.457)" d="m441 591.36a7 16 0 1 1 -14 0 7 16 0 1 1 14 0z" fill="#e2973a"/>
   <path transform="matrix(5.1799 -.41633 .09557 .60301 -2157.5 212.3)" d="m513.97 590.85a0.21677 2.6013 0 1 1 -0.43355 0 0.21677 2.6013 0 1 1 0.43355 0z" fill="#fff"/>
   <path transform="matrix(4.864 -2.1366 .24369 .71499 -2088.8 1041.4)" d="m513.97 590.85a0.21677 2.6013 0 1 1 -0.43355 0 0.21677 2.6013 0 1 1 0.43355 0z" fill="#ce5c00"/>
   <path transform="matrix(.70787 0 0 .63325 195.17 -68.47)" d="m434 571.25c-2.2405 0-4.2172 1.0747-5.5938 2.4062s-2.3373 2.9495-3.125 4.75c-1.5754 3.6009-2.4062 8.0648-2.4062 12.969s0.83085 9.3678 2.4062 12.969c0.7877 1.8005 1.7485 3.4185 3.125 4.75s3.3532 2.4062 5.5938 2.4062 4.2172-1.0747 5.5938-2.4062 2.3373-2.9495 3.125-4.75c1.5754-3.6009 2.4062-8.0648 2.4062-12.969s-0.83085-9.3678-2.4062-12.969c-0.7877-1.8005-1.7485-3.4185-3.125-4.75s-3.3532-2.4062-5.5938-2.4062z" fill="url(#a)"/>
   <path transform="matrix(.70787 0 0 .63325 195.11 -68.081)" d="m441 591.36a7 16 0 1 1 -14 0 7 16 0 1 1 14 0z" fill="#d2230e"/>
   <path transform="matrix(.61938 0 0 .55409 233.54 -21.83)" d="m441 591.36a7 16 0 1 1 -14 0 7 16 0 1 1 14 0z" fill="#e2973a"/>
   <path transform="matrix(5.1087 -2.1858 .30541 .57128 -2302 1084.4)" d="m513.97 590.85a0.21677 2.6013 0 1 1 -0.43355 0 0.21677 2.6013 0 1 1 0.43355 0z" fill="#fff"/>
   <path transform="matrix(4.1936 -3.8007 .49432 .63284 -1945.6 1891.3)" d="m513.97 590.85a0.21677 2.6013 0 1 1 -0.43355 0 0.21677 2.6013 0 1 1 0.43355 0z" fill="#ce5c00"/>
   <path transform="matrix(.59776 0 0 .66074 158.81 -61.018)" d="m434 571.25c-2.2405 0-4.2172 1.0747-5.5938 2.4062s-2.3373 2.9495-3.125 4.75c-1.5754 3.6009-2.4062 8.0648-2.4062 12.969s0.83085 9.3678 2.4062 12.969c0.7877 1.8005 1.7485 3.4185 3.125 4.75s3.3532 2.4062 5.5938 2.4062 4.2172-1.0747 5.5938-2.4062 2.3373-2.9495 3.125-4.75c1.5754-3.6009 2.4062-8.0648 2.4062-12.969s-0.83085-9.3678-2.4062-12.969c-0.7877-1.8005-1.7485-3.4185-3.125-4.75s-3.3532-2.4062-5.5938-2.4062z" fill="url(#a)"/>
   <path transform="matrix(.59776 0 0 .66074 158.76 -60.613)" d="m441 591.36a7 16 0 1 1 -14 0 7 16 0 1 1 14 0z" fill="#d2230e"/>
   <path transform="matrix(.52304 0 0 .57815 191.22 -12.354)" d="m441 591.36a7 16 0 1 1 -14 0 7 16 0 1 1 14 0z" fill="#e2973a"/>
   <path transform="matrix(4.3141 -2.2806 .25791 .59608 -1949.9 1141.9)" d="m513.97 590.85a0.21677 2.6013 0 1 1 -0.43355 0 0.21677 2.6013 0 1 1 0.43355 0z" fill="#fff"/>
   <path transform="matrix(3.5413 -3.9657 .41744 .66031 -1649 1983.8)" d="m513.97 590.85a0.21677 2.6013 0 1 1 -0.43355 0 0.21677 2.6013 0 1 1 0.43355 0z" fill="#ce5c00"/>
   <path transform="matrix(.51931 -.13208 .18166 .57645 55.746 79.158)" d="m434 571.25c-2.2405 0-4.2172 1.0747-5.5938 2.4062s-2.3373 2.9495-3.125 4.75c-1.5754 3.6009-2.4062 8.0648-2.4062 12.969s0.83085 9.3678 2.4062 12.969c0.7877 1.8005 1.7485 3.4185 3.125 4.75s3.3532 2.4062 5.5938 2.4062 4.2172-1.0747 5.5938-2.4062 2.3373-2.9495 3.125-4.75c1.5754-3.6009 2.4062-8.0648 2.4062-12.969s-0.83085-9.3678-2.4062-12.969c-0.7877-1.8005-1.7485-3.4185-3.125-4.75s-3.3532-2.4062-5.5938-2.4062z" fill="url(#a)"/>
   <path transform="matrix(.51931 -.13208 .18166 .57645 55.813 79.524)" d="m441 591.36a7 16 0 1 1 -14 0 7 16 0 1 1 14 0z" fill="#d2230e"/>
   <path transform="matrix(.45439 -.11557 .15895 .50439 97.275 114.46)" d="m441 591.36a7 16 0 1 1 -14 0 7 16 0 1 1 14 0z" fill="#e2973a"/>
   <path transform="matrix(3.1209 -2.9429 .38794 .46305 -1445.5 1594.5)" d="m513.97 590.85a0.21677 2.6013 0 1 1 -0.43355 0 0.21677 2.6013 0 1 1 0.43355 0z" fill="#fff"/>
   <path transform="matrix(1.9862 -4.2423 .54419 .48384 -952.57 2262.6)" d="m513.97 590.85a0.21677 2.6013 0 1 1 -0.43355 0 0.21677 2.6013 0 1 1 0.43355 0z" fill="#ce5c00"/>
   <path transform="matrix(.48763 -.13257 .15279 .56197 267.44 30.707)" d="m434 571.25c-2.2405 0-4.2172 1.0747-5.5938 2.4062s-2.3373 2.9495-3.125 4.75c-1.5754 3.6009-2.4062 8.0648-2.4062 12.969s0.83085 9.3678 2.4062 12.969c0.7877 1.8005 1.7485 3.4185 3.125 4.75s3.3532 2.4062 5.5938 2.4062 4.2172-1.0747 5.5938-2.4062 2.3373-2.9495 3.125-4.75c1.5754-3.6009 2.4062-8.0648 2.4062-12.969s-0.83085-9.3678-2.4062-12.969c-0.7877-1.8005-1.7485-3.4185-3.125-4.75s-3.3532-2.4062-5.5938-2.4062z" fill="url(#a)"/>
   <path transform="matrix(.48763 -.13257 .15279 .56197 267.5 31.064)" d="m441 591.36a7 16 0 1 1 -14 0 7 16 0 1 1 14 0z" fill="#d2230e"/>
   <path transform="matrix(.42667 -.116 .13369 .49172 305.13 64.911)" d="m441 591.36a7 16 0 1 1 -14 0 7 16 0 1 1 14 0z" fill="#e2973a"/>
   <path transform="matrix(2.9919 -2.8965 .34822 .44977 -1174.6 1521.5)" d="m513.97 590.85a0.21677 2.6013 0 1 1 -0.43355 0 0.21677 2.6013 0 1 1 0.43355 0z" fill="#fff"/>
   <path transform="matrix(1.9718 -4.1583 .49321 .46903 -734.42 2170.8)" d="m513.97 590.85a0.21677 2.6013 0 1 1 -0.43355 0 0.21677 2.6013 0 1 1 0.43355 0z" fill="#ce5c00"/>
   <path transform="matrix(.49145 -.14627 .17191 .6384 121.54 113.43)" d="m434 571.25c-2.2405 0-4.2172 1.0747-5.5938 2.4062s-2.3373 2.9495-3.125 4.75c-1.5754 3.6009-2.4062 8.0648-2.4062 12.969s0.83085 9.3678 2.4062 12.969c0.7877 1.8005 1.7485 3.4185 3.125 4.75s3.3532 2.4062 5.5938 2.4062 4.2172-1.0747 5.5938-2.4062 2.3373-2.9495 3.125-4.75c1.5754-3.6009 2.4062-8.0648 2.4062-12.969s-0.83085-9.3678-2.4062-12.969c-0.7877-1.8005-1.7485-3.4185-3.125-4.75s-3.3532-2.4062-5.5938-2.4062z" fill="url(#a)"/>
   <path transform="matrix(.49145 -.14627 .17191 .6384 121.6 113.84)" d="m441 591.36a7 16 0 1 1 -14 0 7 16 0 1 1 14 0z" fill="#d2230e"/>
   <path transform="matrix(.43002 -.12799 .15042 .5586 160.84 152.52)" d="m441 591.36a7 16 0 1 1 -14 0 7 16 0 1 1 14 0z" fill="#e2973a"/>
   <path transform="matrix(2.9534 -3.2592 .36713 .51281 -1299.2 1791.6)" d="m513.97 590.85a0.21677 2.6013 0 1 1 -0.43355 0 0.21677 2.6013 0 1 1 0.43355 0z" fill="#fff"/>
   <path transform="matrix(1.8797 -4.6982 .51499 .53584 -832.69 2531.5)" d="m513.97 590.85a0.21677 2.6013 0 1 1 -0.43355 0 0.21677 2.6013 0 1 1 0.43355 0z" fill="#ce5c00"/>
   <path transform="matrix(.43359 .19801 -.1891 .55472 308.62 -111.51)" d="m434 571.25c-2.2405 0-4.2172 1.0747-5.5938 2.4062s-2.3373 2.9495-3.125 4.75c-1.5754 3.6009-2.4062 8.0648-2.4062 12.969s0.83085 9.3678 2.4062 12.969c0.7877 1.8005 1.7485 3.4185 3.125 4.75s3.3532 2.4062 5.5938 2.4062 4.2172-1.0747 5.5938-2.4062 2.3373-2.9495 3.125-4.75c1.5754-3.6009 2.4062-8.0648 2.4062-12.969s-0.83085-9.3678-2.4062-12.969c-0.7877-1.8005-1.7485-3.4185-3.125-4.75s-3.3532-2.4062-5.5938-2.4062z" fill="url(#a)"/>
   <path transform="matrix(.43359 .19801 -.1891 .55472 308.47 -111.19)" d="m441 591.36a7 16 0 1 1 -14 0 7 16 0 1 1 14 0z" fill="#d2230e"/>
   <path transform="matrix(.37939 .17326 -.16547 .48538 318.2 -59.919)" d="m441 591.36a7 16 0 1 1 -14 0 7 16 0 1 1 14 0z" fill="#e2973a"/>
   <path transform="matrix(3.782 -.48563 .01648 .58587 -1565.2 199.84)" d="m513.97 590.85a0.21677 2.6013 0 1 1 -0.43355 0 0.21677 2.6013 0 1 1 0.43355 0z" fill="#fff"/>
   <path transform="matrix(3.7037 -2.1563 .11381 .69264 -1587.9 1006.4)" d="m513.97 590.85a0.21677 2.6013 0 1 1 -0.43355 0 0.21677 2.6013 0 1 1 0.43355 0z" fill="#ce5c00"/>
   <path transform="matrix(.41291 .15638 -.1325 .64724 494.48 -108.7)" d="m434 571.25c-2.2405 0-4.2172 1.0747-5.5938 2.4062s-2.3373 2.9495-3.125 4.75c-1.5754 3.6009-2.4062 8.0648-2.4062 12.969s0.83085 9.3678 2.4062 12.969c0.7877 1.8005 1.7485 3.4185 3.125 4.75s3.3532 2.4062 5.5938 2.4062 4.2172-1.0747 5.5938-2.4062 2.3373-2.9495 3.125-4.75c1.5754-3.6009 2.4062-8.0648 2.4062-12.969s-0.83085-9.3678-2.4062-12.969c-0.7877-1.8005-1.7485-3.4185-3.125-4.75s-3.3532-2.4062-5.5938-2.4062z" fill="url(#a)"/>
   <path transform="matrix(.41291 .15638 -.1325 .64724 494.36 -108.31)" d="m441 591.36a7 16 0 1 1 -14 0 7 16 0 1 1 14 0z" fill="#d2230e"/>
   <path transform="matrix(.3613 .13683 -.11594 .56633 507.1 -52.552)" d="m441 591.36a7 16 0 1 1 -14 0 7 16 0 1 1 14 0z" fill="#e2973a"/>
   <path transform="matrix(3.4374 -1.1054 .05862 .65136 -1203.4 517.94)" d="m513.97 590.85a0.21677 2.6013 0 1 1 -0.43355 0 0.21677 2.6013 0 1 1 0.43355 0z" fill="#fff"/>
   <path transform="matrix(3.2415 -2.9582 .15593 .75602 -1164.3 1421.4)" d="m513.97 590.85a0.21677 2.6013 0 1 1 -0.43355 0 0.21677 2.6013 0 1 1 0.43355 0z" fill="#ce5c00"/>
   <path transform="matrix(.59292 .24323 -.21794 .59449 412.26 -1.2205)" d="m434 571.25c-2.2405 0-4.2172 1.0747-5.5938 2.4062s-2.3373 2.9495-3.125 4.75c-1.5754 3.6009-2.4062 8.0648-2.4062 12.969s0.83085 9.3678 2.4062 12.969c0.7877 1.8005 1.7485 3.4185 3.125 4.75s3.3532 2.4062 5.5938 2.4062 4.2172-1.0747 5.5938-2.4062 2.3373-2.9495 3.125-4.75c1.5754-3.6009 2.4062-8.0648 2.4062-12.969s-0.83085-9.3678-2.4062-12.969c-0.7877-1.8005-1.7485-3.4185-3.125-4.75s-3.3532-2.4062-5.5938-2.4062z" fill="url(#a)"/>
   <path transform="matrix(.59292 .24323 -.21794 .59449 412.08 -.87635)" d="m441 591.36a7 16 0 1 1 -14 0 7 16 0 1 1 14 0z" fill="#d2230e"/>
   <path transform="matrix(.51881 .21282 -.1907 .52018 428.35 55.749)" d="m441 591.36a7 16 0 1 1 -14 0 7 16 0 1 1 14 0z" fill="#e2973a"/>
   <path transform="matrix(5.0314 -.29661 .05921 .64125 -2076.1 223.04)" d="m513.97 590.85a0.21677 2.6013 0 1 1 -0.43355 0 0.21677 2.6013 0 1 1 0.43355 0z" fill="#fff"/>
   <path transform="matrix(4.8207 -2.1272 .19626 .76396 -2055.3 1103)" d="m513.97 590.85a0.21677 2.6013 0 1 1 -0.43355 0 0.21677 2.6013 0 1 1 0.43355 0z" fill="#ce5c00"/>
   <path transform="matrix(.51826 .17671 -.16007 .46945 434.68 43.477)" d="m434 571.25c-2.2405 0-4.2172 1.0747-5.5938 2.4062s-2.3373 2.9495-3.125 4.75c-1.5754 3.6009-2.4062 8.0648-2.4062 12.969s0.83085 9.3678 2.4062 12.969c0.7877 1.8005 1.7485 3.4185 3.125 4.75s3.3532 2.4062 5.5938 2.4062 4.2172-1.0747 5.5938-2.4062 2.3373-2.9495 3.125-4.75c1.5754-3.6009 2.4062-8.0648 2.4062-12.969s-0.83085-9.3678-2.4062-12.969c-0.7877-1.8005-1.7485-3.4185-3.125-4.75s-3.3532-2.4062-5.5938-2.4062z" fill="url(#a)"/>
   <path transform="matrix(.51826 .17671 -.16007 .46945 434.53 43.75)" d="m441 591.36a7 16 0 1 1 -14 0 7 16 0 1 1 14 0z" fill="#d2230e"/>
   <path transform="matrix(.45348 .15462 -.14006 .41077 450.98 87.631)" d="m441 591.36a7 16 0 1 1 -14 0 7 16 0 1 1 14 0z" fill="#e2973a"/>
   <path transform="matrix(4.2928 -.34503 .07921 .49975 -1685 274.73)" d="m513.97 590.85a0.21677 2.6013 0 1 1 -0.43355 0 0.21677 2.6013 0 1 1 0.43355 0z" fill="#fff"/>
   <path transform="matrix(4.031 -1.7707 .20196 .59255 -1628 961.88)" d="m513.97 590.85a0.21677 2.6013 0 1 1 -0.43355 0 0.21677 2.6013 0 1 1 0.43355 0z" fill="#ce5c00"/>
   <path transform="matrix(.37403 .26155 -.31096 .44469 473.26 -83.892)" d="m434 571.25c-2.2405 0-4.2172 1.0747-5.5938 2.4062s-2.3373 2.9495-3.125 4.75c-1.5754 3.6009-2.4062 8.0648-2.4062 12.969s0.83085 9.3678 2.4062 12.969c0.7877 1.8005 1.7485 3.4185 3.125 4.75s3.3532 2.4062 5.5938 2.4062 4.2172-1.0747 5.5938-2.4062 2.3373-2.9495 3.125-4.75c1.5754-3.6009 2.4062-8.0648 2.4062-12.969s-0.83085-9.3678-2.4062-12.969c-0.7877-1.8005-1.7485-3.4185-3.125-4.75s-3.3532-2.4062-5.5938-2.4062z" fill="url(#a)"/>
   <path transform="matrix(.37403 .26155 -.31096 .44469 473.04 -83.641)" d="m441 591.36a7 16 0 1 1 -14 0 7 16 0 1 1 14 0z" fill="#d2230e"/>
   <path transform="matrix(.32728 .22885 -.27209 .38911 470.64 -36.962)" d="m441 591.36a7 16 0 1 1 -14 0 7 16 0 1 1 14 0z" fill="#e2973a"/>
   <path transform="matrix(3.7727 .35268 -.11915 .51402 -1412.3 -196.98)" d="m513.97 590.85a0.21677 2.6013 0 1 1 -0.43355 0 0.21677 2.6013 0 1 1 0.43355 0z" fill="#fff"/>
   <path transform="matrix(4.0822 -1.1195 -.04956 .62705 -1620.2 501.33)" d="m513.97 590.85a0.21677 2.6013 0 1 1 -0.43355 0 0.21677 2.6013 0 1 1 0.43355 0z" fill="#ce5c00"/>
   <path transform="matrix(.47915 .27573 -.32955 .57269 402.68 -181.61)" d="m434 571.25c-2.2405 0-4.2172 1.0747-5.5938 2.4062s-2.3373 2.9495-3.125 4.75c-1.5754 3.6009-2.4062 8.0648-2.4062 12.969s0.83085 9.3678 2.4062 12.969c0.7877 1.8005 1.7485 3.4185 3.125 4.75s3.3532 2.4062 5.5938 2.4062 4.2172-1.0747 5.5938-2.4062 2.3373-2.9495 3.125-4.75c1.5754-3.6009 2.4062-8.0648 2.4062-12.969s-0.83085-9.3678-2.4062-12.969c-0.7877-1.8005-1.7485-3.4185-3.125-4.75s-3.3532-2.4062-5.5938-2.4062z" fill="url(#a)"/>
   <path transform="matrix(.47915 .27573 -.32955 .57269 402.44 -181.28)" d="m441 591.36a7 16 0 1 1 -14 0 7 16 0 1 1 14 0z" fill="#d2230e"/>
   <path transform="matrix(.41926 .24126 -.28836 .5011 404.38 -124.49)" d="m441 591.36a7 16 0 1 1 -14 0 7 16 0 1 1 14 0z" fill="#e2973a"/>
   <path transform="matrix(4.5956 .01321 -.09057 .63561 -1887.6 -111.7)" d="m513.97 590.85a0.21677 2.6013 0 1 1 -0.43355 0 0.21677 2.6013 0 1 1 0.43355 0z" fill="#fff"/>
   <path transform="matrix(4.8166 -1.8038 .00527 .76487 -2066.3 756.85)" d="m513.97 590.85a0.21677 2.6013 0 1 1 -0.43355 0 0.21677 2.6013 0 1 1 0.43355 0z" fill="#ce5c00"/>
   <path transform="matrix(.36924 -.13208 .12916 .57645 168.92 111.16)" d="m434 571.25c-2.2405 0-4.2172 1.0747-5.5938 2.4062s-2.3373 2.9495-3.125 4.75c-1.5754 3.6009-2.4062 8.0648-2.4062 12.969s0.83085 9.3678 2.4062 12.969c0.7877 1.8005 1.7485 3.4185 3.125 4.75s3.3532 2.4062 5.5938 2.4062 4.2172-1.0747 5.5938-2.4062 2.3373-2.9495 3.125-4.75c1.5754-3.6009 2.4062-8.0648 2.4062-12.969s-0.83085-9.3678-2.4062-12.969c-0.7877-1.8005-1.7485-3.4185-3.125-4.75s-3.3532-2.4062-5.5938-2.4062z" fill="url(#a)"/>
   <path transform="matrix(.36924 -.13208 .12916 .57645 168.97 111.52)" d="m441 591.36a7 16 0 1 1 -14 0 7 16 0 1 1 14 0z" fill="#d2230e"/>
   <path transform="matrix(.32308 -.11557 .11302 .50439 198.45 146.46)" d="m441 591.36a7 16 0 1 1 -14 0 7 16 0 1 1 14 0z" fill="#e2973a"/>
   <path transform="matrix(2.219 -2.9429 .27583 .46305 -898.49 1626.5)" d="m513.97 590.85a0.21677 2.6013 0 1 1 -0.43355 0 0.21677 2.6013 0 1 1 0.43355 0z" fill="#fff"/>
   <path transform="matrix(1.4122 -4.2423 .38693 .48384 -548.01 2294.6)" d="m513.97 590.85a0.21677 2.6013 0 1 1 -0.43355 0 0.21677 2.6013 0 1 1 0.43355 0z" fill="#ce5c00"/>
   <path transform="matrix(.42881 -.22596 .23105 .59829 128.09 212.89)" d="m434 571.25c-2.2405 0-4.2172 1.0747-5.5938 2.4062s-2.3373 2.9495-3.125 4.75c-1.5754 3.6009-2.4062 8.0648-2.4062 12.969s0.83085 9.3678 2.4062 12.969c0.7877 1.8005 1.7485 3.4185 3.125 4.75s3.3532 2.4062 5.5938 2.4062 4.2172-1.0747 5.5938-2.4062 2.3373-2.9495 3.125-4.75c1.5754-3.6009 2.4062-8.0648 2.4062-12.969s-0.83085-9.3678-2.4062-12.969c-0.7877-1.8005-1.7485-3.4185-3.125-4.75s-3.3532-2.4062-5.5938-2.4062z" fill="url(#a)"/>
   <path transform="matrix(.42881 -.22596 .23105 .59829 128.19 213.28)" d="m441 591.36a7 16 0 1 1 -14 0 7 16 0 1 1 14 0z" fill="#d2230e"/>
   <path transform="matrix(.37521 -.19771 .20217 .5235 168.35 244.71)" d="m441 591.36a7 16 0 1 1 -14 0 7 16 0 1 1 14 0z" fill="#e2973a"/>
   <path transform="matrix(2.2972 -3.6958 .39345 .44224 -963.99 2099.2)" d="m513.97 590.85a0.21677 2.6013 0 1 1 -0.43355 0 0.21677 2.6013 0 1 1 0.43355 0z" fill="#fff"/>
   <path transform="matrix(1.1537 -4.9295 .53035 .4401 -453.71 2747.8)" d="m513.97 590.85a0.21677 2.6013 0 1 1 -0.43355 0 0.21677 2.6013 0 1 1 0.43355 0z" fill="#ce5c00"/>
   <path d="m547.14 262.81c-59.941 3.3864-96.911-19.609-134.76-5.3108-16.735 6.322-35.489 24.992-43.15 41.158-8.9806 18.952-10.899 49.49-5.3108 69.704 6.4339 23.274 31.783 46.553 46.469 65.721 17.462 22.792 34.991 61.684 61.074 73.687 11.218 5.1625 30.298 5.2152 41.158-0.66384 22.199-12.017 35.248-47.434 47.133-69.704 16.193-30.343 42.105-71.837 43.15-106.22 0.56819-18.696-6.2253-46.337-19.915-59.082-8.1314-7.5703-24.755-9.9205-35.848-9.2938z" fill="url(#i)" fill-rule="evenodd" opacity=".54577"/>
   <path d="m445.77 249.31c-9.725-0.09222-19.132 1.1442-28.594 4.7188-2.2246 0.84039-4.4848 1.9144-6.75 3.1562 62.154 13.87 123.84 73.079 145.53 143.94 3.7645 12.297 6.1005 24.237 7.125 35.656 0.49044-0.95214 0.98275-1.9331 1.4688-2.8438 16.193-30.343 42.111-71.841 43.156-106.22 0.56819-18.696-6.2162-46.317-19.906-59.062-8.1313-7.5703-24.783-9.9392-35.875-9.3125-44.956 2.5398-76.981-9.7546-106.16-10.031z" fill="url(#m)" fill-rule="evenodd" opacity=".54577"/>
   <path d="m550.61 256.52c-59.941 3.3864-96.911-19.609-134.76-5.3108-16.735 6.322-35.489 24.992-43.15 41.158-8.9806 18.952-10.899 49.49-5.3108 69.704 6.4339 23.274 31.783 46.553 46.469 65.721 17.462 22.792 34.991 61.684 61.074 73.687 11.218 5.1625 30.298 5.2152 41.158-0.66384 22.199-12.017 35.248-47.434 47.133-69.704 16.193-30.343 42.105-71.837 43.15-106.22 0.5682-18.696-6.2254-46.337-19.915-59.082-8.1313-7.5703-24.755-9.9205-35.848-9.2938z" fill="url(#l)" fill-rule="evenodd" opacity=".54577"/>
   <path d="m445.88 249.94c-9.725-0.09222-19.132 1.1442-28.594 4.7188-7.2345 2.733-14.851 7.7579-21.781 13.906 5.1843 1.1942 11.603 1.5734 20.156 0.59375 23.073-2.6425 36.619-4.2273 45.188-5.5l-0.15625 0.25c-8.9208 14.079-1.8159 11.667 4.625 24.531 13.858-4.4488 20.601 4.8135 27.5-8.75 3.7665-7.4018 6.1517-12.429 7.5625-16.062 3.2005 2.784 10.119 7.2669 13.469 16.969 5.197 15.051 7.9014 8.3704 22.094 11.469 4.9108-11.439 14.673-12.118 12.375-21.562 7.1943 0.32226 15.633 0.62071 26.062 0.90625 5.773 0.15805 10.755-0.05214 15.125-0.5625-0.52205-0.55184-1.0499-1.0874-1.5938-1.5938-8.1314-7.5703-24.783-9.9079-35.875-9.2812-44.956 2.5398-76.981-9.7546-106.16-10.031z" fill="#2e3436" opacity=".54577"/>
   <path d="m489.05 253.16c2.1092-14.401 13.417-16.378 4.2785-28.546-22.62-30.128-15.445-14.713-29.831-14.596-2.1092 14.401-16.955 6.3781 1.5076 36.496 8.7109 14.21 9.6592 6.7628 24.045 6.646z" fill="url(#h)"/>
   <path d="m497.83 161.16-6.3125 3.0625c11.54 21.92-0.74999 74.969-0.75 74.969l-35.406 16.969s4.7899 0.17593 8.5938 0.3125l32.469-16.625c1e-5 -1e-5 11.831-54.493 1.4062-78.688z" fill="url(#k)" fill-rule="evenodd"/>
   <path d="m626.3 236.94c-19.167-7.0617-11.581 5.5636-42.462 5.7213-18.664 0.09529-31.416-5.3009-40.842-2.7228-20.547 5.6197-27.694 9.4154-42.182 15.55 19.167 7.0617 6.9442 9.5524 77.791 11.492 33.426 0.9151 32.528-16.424 47.695-30.041z" fill="url(#d)"/>
   <path d="m365.53 245.58c18.484-8.6942 17.798 1.3271 48.576-1.1881 76.2-6.2307 57.465-1.2759 77.263 5.1511-18.484 8.6942-18.844-1.4545-70.358 14.682-31.909 9.9956-35.683-12.218-55.481-18.646z" fill="url(#f)"/>
   <path d="m469.53 283.99c13.858-4.4488 20.614 4.8321 27.513-8.7314 17.086-33.578 6.4062-20.346-0.0347-33.211-13.858 4.4488-13.194-12.413-32.102 17.427-8.9208 14.079-1.8174 11.65 4.6235 24.515z" fill="url(#g)"/>
   <path d="m540.16 287.63c5.5018-12.816 17.106-12.121 11.002-25.383-15.106-32.838-28.208-15.516-42.401-18.614-2.6796 7.209-2.589 8.4741-5.6207 12.567-2.1404 2.8893 10.106 5.9838 14.925 19.941 5.1971 15.051 7.902 8.3921 22.094 11.49z" fill="url(#e)"/>
   <path transform="matrix(.5294 .29247 -.26814 .50943 449.38 -88.935)" d="m434 571.25c-2.2405 0-4.2172 1.0747-5.5938 2.4062s-2.3373 2.9495-3.125 4.75c-1.5754 3.6009-2.4062 8.0648-2.4062 12.969s0.83085 9.3678 2.4062 12.969c0.7877 1.8005 1.7485 3.4185 3.125 4.75s3.3532 2.4062 5.5938 2.4062 4.2172-1.0747 5.5938-2.4062 2.3373-2.9495 3.125-4.75c1.5754-3.6009 2.4062-8.0648 2.4062-12.969s-0.83085-9.3678-2.4062-12.969c-0.7877-1.8005-1.7485-3.4185-3.125-4.75s-3.3532-2.4062-5.5938-2.4062z" fill="url(#a)"/>
   <path transform="matrix(.5294 .29247 -.26814 .50943 449.17 -88.647)" d="m441 591.36a7 16 0 1 1 -14 0 7 16 0 1 1 14 0z" fill="#d2230e"/>
   <path transform="matrix(.46322 .25591 -.23463 .44575 458.33 -35.561)" d="m441 591.36a7 16 0 1 1 -14 0 7 16 0 1 1 14 0z" fill="#e2973a"/>
   <path transform="matrix(4.7462 .35242 -.01349 .58576 -1906.3 -193.27)" d="m513.97 590.85a0.21677 2.6013 0 1 1 -0.43355 0 0.21677 2.6013 0 1 1 0.43355 0z" fill="#fff"/>
   <path transform="matrix(4.7457 -1.3248 .10172 .71334 -1981.5 603.11)" d="m513.97 590.85a0.21677 2.6013 0 1 1 -0.43355 0 0.21677 2.6013 0 1 1 0.43355 0z" fill="#ce5c00"/>
  </g>
 </g>
</svg>
