<?xml version="1.0" encoding="UTF-8"?>
<svg viewBox="0 0 595.28 841.89" xmlns="http://www.w3.org/2000/svg">
 <g fill-rule="evenodd">
  <g fill="#007fff">
   <path d="m159.56 161.25c62.321-1.62 7.462 135.51 62.927 167.8-77.003 13.567-18.821-136.34-62.927-167.8z"/>
   <path d="m187.51 412.97c50.423 174.26 302.12-24.271 132.84-104.89 1.897-89.014 104.17-77.656 132.89-139.85 11.687 65.366-107.97 59.833-111.91 132.86 31.26 28.853 62.666 44.4 69.948 83.909 29.066 157.84-215.2 196.4-223.77 27.97z"/>
  </g>
  <g fill="#00f">
   <path d="m54.637 266.12c63.565-7.528 71.911 100.55 132.88 118.88-79.064 22.355-69.49-102.4-132.88-118.88z"/>
   <path d="m257.43 322.08c156.03-45.35 89.228 220.08-34.941 111.86 79.898 50.94 160.76-107.28 34.941-111.86z"/>
  </g>
  <g fill="#007fff">
   <path d="m593.08 426.96c-52.927 40.563-96.738-65.595-167.83-27.985-6.776-0.18002-5.417-8.543-6.973-13.977 69.342-52.045 103.91 49.179 174.8 41.962z"/>
   <path d="m180.54 440.95c-10.213 50.31-112.88-6.604-132.88-34.966-16.317-10.245-56.25 9.918-27.953-13.993 61.765 7.316 102.06 60.35 160.83 48.959z"/>
  </g>
  <g fill="#00f">
   <path d="m551.11 566.8c-65.577 16.563-79.473-116.2-132.84-111.88 68.362-41.905 68.935 102.97 132.84 111.88z"/>
   <path d="m201.5 489.88c9.181 2.488 11.013 12.309 20.98 13.978-19.001 66.38-147.41 5.466-174.82 48.967-11.717-56.137 149.22 0.065002 153.84-62.945z"/>
  </g>
  <path d="m257.43 524.84c5.646 3.699 11.374 7.3 20.98 7.005-5.613 82.943-109.4 67.723-132.86 132.86-14.451-70.471 113.84-58.622 111.88-139.86z" fill="#007fff"/>
  <g fill="#00f">
   <path d="m313.38 126.27c24.387 22.307-45.217 106.43-41.96 174.82-52.962-70.275 45.037-108.08 41.96-174.82z"/>
   <path d="m558.13 273.12c16.317 37.494-63.926 38.509-111.91 34.958-30.832-3.879-36.822 41.963-62.926 20.965 17.136-74.875 140.09-6.482 174.84-55.923z"/>
  </g>
  <g fill="#007fff">
   <path d="m236.45 419.96c20.489-9.836 51.928-8.658 41.961-48.951-2.094-10.359-29.408-30.081-34.941-13.976 42.978-60.489 85.61 97.272-7.02 62.927z"/>
   <path d="m383.3 496.89c55.35-0.263 34.368 90.568 34.974 139.86 0.409 34.859 36.955 50.309-6.988 20.981 13.96-73.221-20.736-131.81-27.986-160.84z"/>
  </g>
  <path d="m327.38 531.85c40.554 64.711-31.111 125.72-34.974 174.82-0.229 3.077-14.68-22.356-13.994-27.953 3.257-26.415 63.614-99.243 48.968-146.87z" fill="#00f"/>
 </g>
</svg>
