<?xml version="1.0" encoding="UTF-8"?>
<svg width="276.45" height="287.74" enable-background="new 0 0 276.453 287.744" viewBox="0 0 276.453 287.744" xmlns="http://www.w3.org/2000/svg">
 <g fill-rule="evenodd">
  <path d="m194.85,19.68c4.271,12.916-14.69,16.411-13.44,30.72 .36,4.122 2.848,8.199 3.36,12.48 1.183,9.878-2.759,15.626-10.08,21.6-1.17-.75-2.848-.992-3.84-1.92 1.866-4.433 4.487-6.553 5.76-10.56 2.656-8.361-2.226-17.763 0-26.88 2.74-11.214 16.2-13.556 18.24-25.44z" fill="#ffe292"/>
  <path d="m191.97,21.6c-3.196,9.99-12.979,8.94-17.76,20.16-3.265,7.66 1.174,17.957-.48,26.4-1.243,6.342-7.374,15.72-14.88,9.12 1.147-3.972 5.667-4.573 8.16-7.2 .972-4.25 2.828-6.572 2.399-11.52-.453-5.235-2.836-8.731-2.399-12.96 .802-7.771 7.909-13.847 12.96-16.8 3.809-2.227 8.972-2.711 10.56-7.2h1.44z" fill="#ffe292"/>
  <path d="m135.81,22.08c.558-.078.854.106.96.48 .027,16.157-.088,35.565-.48,51.84-2.443.718-7.191.734-9.12.48 3.53-16.331 5.07-37.016 8.64-52.8z" fill="#ffe292"/>
  <path d="m140.13,33.12c4.689,12.912 7.969,27.23 11.041,41.76-2.708,1.127-7.199.261-9.601-.48-2.01-11.355-1.63-27.16-1.44-41.28z" fill="#ffe292"/>
  <path d="m215.97,63.36c1.113,1.891-.987,1.293-1.92,2.4-1.148,1.361-1.573,3.823-2.881,5.28-.667.744-2.265.955-3.359,1.92-1.405,1.239-1.794,3.555-3.36,5.28-2.318,2.553-6.528,5.169-9.6,8.16-5.729,5.577-8.874,10.598-14.4,2.4 11.23-9.096 24.35-16.289 35.52-25.44z" fill="#ffe292"/>
  <path d="m213.09,72c.816-.177.905.374.96.96-5.384,11.256-12.465,20.815-18.721,31.2-2.504-1.176-3.631-3.729-4.8-6.24 6.84-9.318 15.44-16.878 22.56-25.92z" fill="#ffe292"/>
  <path d="m159.81,91.68c-9.291-2.715-20.158-2.239-31.68-3.84 .841-2.089 3.831-1.83 5.76-1.92 8.71-.406 21.96,1.15 25.92,5.76z"/>
  <path d="m266.85,89.76c-1.304,7.275-9,10.926-16.8,11.52-4.17.318-6.76-.881-10.08.48-7.781,3.19-8.372,13.074-13.92,19.2-5.125,5.658-10.957,6.592-19.681,8.64-1.135-1.756-2.802-4.411-1.92-6.72 3.114-1.414 4.619-.222 7.681-.96 10.756-2.594 12.682-15.703 21.119-21.12 5.484-3.156 15.917-1.364 22.08-3.84-.437-3.023-3.692-1.027-5.76-.96-3.547.115-7.548-.494-10.56,0-10.333,1.692-16.621,10.498-20.16,18.24-4.387,3.225-10.106,3.92-16.8,3.84-1.706-2.533-2.647-3.25-2.4-7.2 5.283-1.079 11.127,1.879 15.36-1.44 7.224-9.095 13.47-16.8 27.359-17.76 7.496-.518 18.562,3.384 23.521-1.92 .408-.088.452.187.479.48 .41.088.45-.187.48-.48zm-10.08,6.24c1.732.563 3.772.856 4.32-1.44-1.36-1.01-4.08-.173-4.32,1.44z" fill="#ffe292"/>
  <path d="m109.41 92.64c-2.054 3.386-5.166 5.714-9.6 6.72 1.83-3.614 4.91-5.974 9.6-6.72z"/>
  <path d="m261.09,94.56c-.548,2.296-2.588,2.003-4.32,1.44 .24-1.613 2.96-2.45 4.32-1.44z"/>
  <path d="m175.65,104.16c-2.916-.764-5.031-2.328-5.76-5.28 3.05-1.174 4.3,3.3 5.76,5.28z"/>
  <path d="m28.771,99.36c6.665,3.268 10.766,6.728 18.72,5.28 5.404-.983 9.641-3.884 15.36-3.36 5.271.483 7.836,3.732 12.96,4.8 1.349,3.313 1.904,6.974-.96,9.12-5.792-4.62-14.001-7.688-24.48-6.24-.918.202-2.066.174-1.92,1.44-9.814-.43-17.057-3.42-19.68-11.04z" fill="#ffe292"/>
  <path d="m178.53,99.36c3.333.423 6.229,3.587 5.76,6.24-2.29-1.71-4.34-3.66-5.76-6.24z"/>
  <path d="m90.211,105.6c-.494,1.906-1.213,3.587-3.84,3.36 .591-1.67 1.885-4.59 3.84-3.36z"/>
  <path d="m166.53,112.8c-.526,2.134 1.16,3.499 0,4.8-3.61-.22-5.38-7.06 0-4.8z" fill="#ffe292"/>
  <path d="m171.81,112.8c2.34.379 2.897,2.542 4.8,3.36 1.507.227 1.269-1.292 2.4-1.44 2.966.554 2.769,4.271 4.8,5.76 2.827.368.787-3.064 2.4-2.88-1.102,4.757 6.034,4.739 5.279,9.6-.559,3.595-6.094,4.062-9.12,1.92-.945-.669-1.41-2.965-2.399-4.32-2.771-3.793-6.393-7.067-10.08-7.2 .04-2.2 2.11-2.37 1.92-4.8z" fill="#ffe292"/>
  <path d="m120.45,118.56c.861-.061 1.012.588 1.92.48 .145,1.265-.665,1.576-1.92,1.44v-1.92z" fill="#ffe292"/>
  <path d="m167.97,122.88c-1.973.587-4.306.815-5.76,1.92-.99-1.22 5.64-4.8 5.76-1.92z" fill="#ffe292"/>
  <path d="m124.77 121.92c1.636 1.207-1.652 1.51-1.92 2.4-1.46-1.03 1.69-1.47 1.92-2.4z" fill="#ffe292"/>
  <path d="m149.73,125.28c-1.248-.192-1.447-1.433-2.88-1.44 .39-1.79 2.93-.09 2.88,1.44z" fill="#ffe292"/>
  <path d="m169.89,126.24c-1.828.765-3.867,1.172-3.36,5.28 2.954,3.12 7.312-.046 6.72-2.88 4.848,7.392-13.588,7.949-9.119-.96 1.5-.76 3.77-2.7 5.76-1.44z" fill="#ffe292"/>
  <path d="m119.49,130.08c.514,1.793-1.191,1.368-.96,2.88-.562-.078-.405-.875-.48-1.44-1.848.265.37,1.855-.96,2.88-1.393-.627-2.761-.39-3.36.96-1.667-1.466-5.677-.291-5.28-4.8 1.248-.192 1.447-1.432 2.88-1.44-.348,1.468.828,1.412.48,2.88 3.98,4.9 4.77-7.44 7.68-1.92z" fill="#ffe292"/>
  <path d="m159.81,130.56c-.24,1.51 1.046,1.876 0,2.88-1.366-.394-2.437-1.083-2.88-2.4 .57-.55 1.7-.54 2.88-.48z" fill="#ffe292"/>
  <path d="m69.091,132.96c-.098,4.222.517,9.156-1.44,11.52-12.971,2.437-30.481,1.89-46.08,2.4 2.279-3.696 6.257-2.542 9.6-3.36 12.293-3.01 23.908-9.22 37.92-10.56z" fill="#ffe292"/>
  <path d="m250.05,144c-11.802,2.431-30.598.832-42.721,0-.325-2.969-1.639-7.191-.479-10.08 14.91,3.37 28.41,6.24 43.2,10.08z" fill="#ffe292"/>
  <path d="m182.37,170.4c-1.77,1.271-2.969,3.111-5.76,3.359 .047-2.993 1.828-4.251 3.84-5.279 1.86-2.301 1.97-6.351 5.28-7.2 .129,3.809-1.756,5.604-2.88,8.16 6.089-3.19 8.345-10.216 10.08-17.76 2.133,3.729-.994,10.091-2.4,13.439 6.352-6.534 5.747-19.655 7.2-28.8 3.622,13.11-1.501,31.607-10.56,36.479-.348-1.466.49-1.749.479-2.88-1.89-.913-1.921,4.147-5.28,3.36-.66-.61-.66-2.27 0-2.88z"/>
  <path d="m127.65,142.56c.642,3.984-4.218,10.487-2.4,16.32-3.579-.101-4.768-2.592-4.32-6.72 3.4-2.04 5.21-5.67 6.72-9.6z" fill="#ffe292"/>
  <path d="m68.131,149.28c.576,2.719 2.132,6.698.96,9.6-16.403-1.393-31.158-6.328-45.12-8.64 13.624-2.74 30.946-1.18 44.16-.96z" fill="#ffe292"/>
  <path d="m150.21,149.28c2.072-.027 8.59,5.597 3.84,8.16-5.11.24-1.09-6.89-3.84-8.16z" fill="#ffe292"/>
  <path d="m89.251,164.16h1.44c.746,6.135 6.398,7.361 7.68,12.96-4.411-1.06-8.059-6.96-9.12-12.96z"/>
  <path d="m177.57,166.08c-1.298,3.022-2.221,6.419-5.76,7.2-.83-3.13 3.33-7.39 5.76-7.2z"/>
  <path d="m166.53,181.44c-3.689-2.092-7.126-1.591-11.04.479 3.175,12.15-16.114,16.411-23.52,10.08-2.774-2.371-3.92-7.354-7.2-9.6-3.084-2.112-6.571-2.49-11.04-2.4-2.347.053-1.513,3.287-3.36,3.84-4.643-1.39-1.9-10.739 1.44-11.52 2.715.701 3.826,3.125 9.12,2.4 3.811-.522 7.142-4.164 11.04-4.32 2.57-.104 5.251,2.021 7.68,1.92 1.714-.071 2.862-1.628 4.8-1.92 3.354-.506 9.811,3.399 13.92,2.88 2.076-.263 4.186-2.146 5.28-1.92 3.79.78 3.94,7.02 2.88,10.08zm-28.32-2.4c3.452.956 7.146-1.31 8.64-3.84-3.88-1.55-6.5,2.07-8.64,3.84zm-11.04-1.44c3.462-.849 6.314-.552 9.12.96-.03-4.28-8.03-4.38-9.12-.96zm9.6,6.24c-2.086-.079-3.636-2.018-5.76-.479 1.977,7.155 10.574,6.604 18.239,4.8 .699-1.56 2.415-4.06 1.44-5.76-3.22-2.28-8.33,1.65-13.92,1.44z"/>
  <path d="m99.331 170.88c1.887 1.153 3.88 2.2 4.32 4.801-2.56 1.52-5.601-2.48-4.319-4.8z"/>
  <path d="m146.85 175.2c-1.494 2.53-5.188 4.796-8.64 3.84 2.14-1.77 4.76-5.39 8.64-3.84z" fill="#ffe292"/>
  <path d="m136.29,178.56c-2.806-1.512-5.658-1.809-9.12-.96 1.09-3.42 9.09-3.32 9.12.96z" fill="#ffe292"/>
  <path d="m255.33,204c-7.669-1.931-9.291-9.909-14.88-13.92-8.667-4.795-18.129,4.666-27.359,3.84-7.55-.676-20.861-8.579-13.921-17.279 5.855,2.784 10.047,7.233 16.801,9.119 6.146-.396 11.467-2.236 16.8-1.92 12.49.74 17.06,11.66 22.56,20.16z" fill="#ffe292"/>
  <path d="m77.251,180.48c1.567.976 8.218,7.132 8.16,10.08-.054,2.754-4.06,4.951-7.2,8.64-2.944,3.458-4.052,7.686-6.24,9.6-2.876,2.518-7.472,7.402-10.08,10.561-2.107,2.551-4.212,5.724-7.2,7.68 5.172-15.95 16.087-30.31 22.56-46.56z" fill="#ffe292"/>
  <path d="m150.69,182.4c.975,1.7-.741,4.2-1.44,5.76-7.665,1.805-16.263,2.355-18.239-4.8 2.124-1.538 3.674.4 5.76.479 5.59.21 10.7-3.72 13.92-1.44z" fill="#ffe292"/>
  <path d="m88.771,181.92c3.984,2.097 5.344,6.816 8.64,9.601 2.803.717 5.365,1.675 6.24,4.319-2.992,1.56-4.596-2.012-7.2-2.399-2.026-4.09-7.463-7.21-7.679-11.52z"/>
  <path d="m180.93 182.4c-3.577 5.27-8.372 11.725-15.84 11.52 4.21-4.91 10.49-7.75 15.84-11.52z"/>
  <path d="m219.81 224.64c-3.513-1.737-7.674-4.554-10.561-7.681-2.858-3.098-4.197-6.441-7.68-9.6-4.504-4.085-9.721-8.666-13.92-13.44 1.55-2.77 2.855-5.784 5.76-7.199 9.79 11.66 17.89 24.99 26.4 37.92z" fill="#ffe292"/>
  <path d="m180.45,188.16c-3.29,7.749-11.95,10.13-18.239,14.88-6.175.731-11.871,4.414-18.24,3.36 .304-1.776 2.695-1.465 4.8-1.44 3.016-1.156 6.285-3.485 10.08-2.399 6.4-5.6 14.83-9.17 21.6-14.4z"/>
  <path d="m81.091,213.12c-7.824,3.216-12.647,9.433-20.64,12.48 8.867-11.133 18.637-21.363 28.8-31.2 2.456,2.206 7.194,3.203 6.72,6.72-.5,3.71-14.208,7.69-14.88,12z" fill="#ffe292"/>
  <path d="m110.37,195.36c1.136.464 2.358.842 1.92,2.88-2.37.76-3-1.66-1.92-2.88z"/>
  <path d="m113.25,202.56c-3.841-.159-5.661-2.34-7.68-4.32 2.77-2.36 7.04,1.42 7.68,4.32z"/>
  <path d="m217.41 228c-14.958-6.801-26.58-16.939-39.84-25.439 5.936-13.256 19.088 5.247 24.48 10.08 6.65 5.96 12.11 10.02 15.36 15.36z" fill="#ffe292"/>
  <path d="m260.13,202.56c2.263-.023 3.637.843 5.76.96-.435,3.05-4.477,2.382-7.2,1.92-.29-1.73 1.47-1.42 1.44-2.88z" fill="#ffe292"/>
  <path d="m171.81,206.4c2.178,4.05-.66,8.374 0,12.479 .931,5.791 5.948,9.148 10.08,11.521 2.554,3.986 5.42,6.734 6.72,11.52 1.662,6.121-.142,11.962-.479,18.721-.337,6.726 3.326,11.383 3.359,16.319-2.9-1.099-5.501-2.499-7.2-4.8-.044-2.123 2.405.597 2.881-1.44-.471-2.984-3.071-5.562-3.36-9.119-.349-4.287 1.712-8.802 1.439-12.96-.58-8.856-4.386-14.685-12.96-17.761-4.563-5.42-9.915-13.629-6.239-23.04 1.99-.53 3.52-2.58 5.76-1.44z" fill="#ffe292"/>
  <path d="m159.81,210.72c1.551,6.771 3.084,14.724 7.68,19.68 3.538,1.422 5.962,3.958 9.601,5.279 2.809,5.276 6.547,10.034 6.239,17.28-.211,4.995-4.231,10.438-.96,15.36-6.094-2.748-2.559-11.286-3.359-17.76-.551-4.449-2.897-10.018-6.721-12-1.569-.814-3.836-.457-5.279-.96-9.169-3.196-14.638-12.16-12.96-24.48 1.42-1.3 3.45-2 5.76-2.4z" fill="#ffe292"/>
  <path d="m133.89,214.56c2.778,13.314 1.262,31.792 3.36,46.56-5.826-13.374-7.763-33.196-11.04-47.52 2.09-.95 5.23.72 7.68.96z" fill="#ffe292"/>
  <path d="m149.25,213.6c1.102,2.776-.29,6.147-1.439,8.159-.393,8.088-1.793,15.168-4.8,20.641-.977,5.743-.791,12.648-3.84,16.319-.008-14.774-.268-29.445 0-43.68 2.49-1.35 6.4-1.28 10.08-1.44z" fill="#ffe292"/>
  <path d="m86.851,269.28c1.266-.146 1.238,1.002 1.44,1.92-1.602.48-1.574-.67-1.44-1.92z"/>
  <path d="m89.251,21.12c-2.685,2.731.288,7.074 0,12-.22,3.772-1.624,7.08-1.44,10.08 .406,6.637 3.907,14.545 8.16,17.28 1.27.816 3.253.499 4.32.96 6.641,2.869 10.116,9.727 11.04,17.28-2.139,1.701-3.413,4.267-7.68,3.84-.252-19.044-20.344-17.647-19.68-36.96 .193-5.633 2.598-10.047 2.88-15.36 .304-5.747-2.522-10.998-4.32-14.88 5.297,1.067 9.44,6.417 11.04,11.52 1.779,5.676.227,12.446 1.92,18.24 2.727,9.331 15.928,9.195 22.08,16.8 3.224,3.985 4.511,8.007 3.84,14.4-1.458.782-3.071,1.409-5.28,1.44-1.772-6.615-3.675-12.468-9.12-16.32-9.389-2.507-16.008-8.343-16.8-18.72-.468-6.129 2.581-13.012 0-19.68 .135-.775-.454-.827-.48-1.44 .089-.408-.186-.453-.479-.48z" fill="#ffe292"/>
  <path d="m56.611,63.36c9.438,4.002 15.436,11.445 25.92,14.4 1.459,4.568 13.312,5.981 13.44,10.56 .084,3.036-4.319,3.787-6.72,5.76-2.765.193-3.907-3.757-5.76-2.88-6.593-9.744-19.801-16.987-26.88-27.84z" fill="#ffe292"/>
  <path d="m52.291,65.76c12.342,8.346 23.427,21.445 32.64,32.16-.987,3.013-2.296,5.704-5.28,6.72-10.514-11.566-17.601-26.559-27.36-38.88z" fill="#ffe292"/>
  <path d="m70.531,124.8c-5.147-.716-5.771-6.389-12-7.2-3.243-.422-6.305.634-9.6.48-10.275-.478-17.169-4.238-23.04-11.04-.831-4.449-3.64-6.92-4.8-11.04-2.485-3.115-5.896-5.305-10.08-6.72 4.099-4.948 11.603.87 13.92,3.84-2.719,9.451 8.36,17.604 13.92,18.72 7.158,2.117 18.178-2.088 27.84,1.44 1.017,2.823 4.124,3.557 5.76,5.76 .988,2.61-.439,4.33-1.92,5.76z" fill="#ffe292"/>
  <path d="m104.61,132.96c-2.972-.697-.279-4.789-.48-5.76 7.95-2.04-.01.9.48,5.76z" fill="#ffe292"/>
  <path d="m132.45,209.76c-.448-2.271-1.235-4.204-3.84-4.319 .131-.989 2.125-.114 1.92-1.44-3.615-2.464-10.12-2.04-13.44-4.8-.786,3.513 6.638,2.957 8.64,5.28-1.68,1.412-4.47.905-6.24,0-1.512-.232-.359,2.2-1.44,2.399-18.273-5.406-29.438-17.921-38.88-32.159-5.176-14.334-8.034-25.439-6.24-40.32 1.29-10.7 7.276-20.564 12.48-28.8 8.071-12.774 25.868-23.792 44.64-26.4 3.492-.485 7.432.489 10.08-1.44 2.935,2.663 6.398,1.453 9.6,1.92 30.719,4.482 52.329,33.527 53.76,65.28-1.951,6.079-.902,12.099-2.88,17.76-.622,1.781-1.191,2.441-1.92,5.76-.876,3.991-5.415,11.752-8.16,15.359-3.468,4.557-9.906,9.619-14.88,13.44-9.93,7.63-23.54,13.66-43.2,12.48zm49.92-36.48c3.359.787 3.391-4.273 5.28-3.36 .011,1.131-.827,1.414-.479,2.88 9.059-4.872 14.182-23.369 10.56-36.479-1.453,9.145-.849,22.266-7.2,28.8 1.406-3.349 4.533-9.71 2.4-13.439-1.735,7.544-3.991,14.569-10.08,17.76 1.124-2.557 3.009-4.352 2.88-8.16-3.311.85-3.42,4.899-5.28,7.2-2.012,1.028-3.793,2.286-3.84,5.279 2.791-.248 3.99-2.089 5.76-3.359-.66.61-.66,2.27 0,2.88zm-11.52-83.04c-1.127-.153-1.802-.758-3.36-.48 .953-1.107-.12-.533-.479-1.44-10.533-5.119-25.119-8.069-39.36-6.72-7.529.714-13.629,3.661-19.68,5.76-.712.568-.747,1.813-1.44,2.4 .18-1.312-4.359.246-3.84,2.4 12.118-5.145 29.687-11.581 47.521-7.68 1.982.434 4.397,2.12 6.72,2.88 2.59.848 5.508,1.029 7.68,1.92 3.49,1.431 6.105,4.979 9.601,4.8-.15-2.251-2.86-1.942-3.36-3.84zm-36.96-4.32c-1.93.09-4.919-.169-5.76,1.92 11.522,1.601 22.389,1.125 31.68,3.84-3.96-4.61-17.21-6.166-25.92-5.76zm-34.079,13.44c4.434-1.006 7.546-3.334 9.6-6.72-4.69.746-7.77,3.106-9.599,6.72zm70.079-.48c.729,2.952 2.844,4.516 5.76,5.28-1.46-1.98-2.71-6.454-5.76-5.28zm14.4,6.72c.47-2.653-2.427-5.816-5.76-6.24 1.42,2.58 3.47,4.53 5.76,6.24zm-97.919,3.36c2.627.227 3.346-1.454 3.84-3.36-1.955-1.23-3.249,1.69-3.84,3.36zm30.719,0c-1.515-.235-1.695.865-3.36.48-1.045-1.035-2.227-1.934-3.84-2.4-10.32,2.939-23.305,3.467-24,14.88 2.559-.708 6.253-4.258 8.16-7.2 2.672,1.84 3.381-.185 5.28-1.44 4.267,2.84 4.989-3.638 9.6-1.44-.047,1.553-2.176,1.024-1.44,3.36 3.359-.996 4.137-.617 6.24.96 1.583-.945 4.748-2.399 5.76,0-.663,1.097-.525,2.995-2.4,2.88-.971.376-3.667-.934-4.8-1.92-7.637,1.23-17.059,3.785-19.2,12-1.509.571-2.54,1.621-4.32,1.92-.356-3.644-2.674-5.325-6.24-5.76-2.895,4.223 1.106,9.299 4.32,10.56 2.8,1.098 6.279-.532 10.56,0 2.31.287 4.451,2.395 6.72,2.88 9.424,2.015 18.173-4.375 23.04-5.76 .274,2.926 1.952,4.448 1.44,8.16-1.092-.233-2.452-.952-3.36,0-.107,5.907-9.227,8.464-8.16,15.84 .594,4.106 5.543,8.649 12,5.761 6.595,5.364 15.359,2.557 20.16-2.4 5.641,4.415 11.98.613 10.561-6.24-1.023-4.937-10.5-8.416-9.6-14.4-.979-.622-2.892-.309-2.881-1.92 1.115-1.925-.681-6.761 1.92-7.2 2.424.457 1.357,4.403 3.36,5.28 5.701.945 11.031,4.155 17.28,3.36 5.021-.639 8.492-3.969 12.479-5.28 5.852,2.525 11.868-1.468 12-7.68-2.242-1.662-1.735-4.752-2.88-6.72-4.115-7.078-13.27-8.216-22.08-10.56-1.477,2.039-3.286.398-4.8.48-6.085.326-10.183,4.818-15.84,6.24-.368-3.952-2.648-5.992-5.28-7.68-.184,2.933-1.784,6.105-1.92,8.64-.203,3.78 3.07,9.148 3.36,15.36 .243,5.212-1.51,9.92-.96,13.44 .576,3.689 2.977,6.015 2.399,9.12-1.474,7.933-16.94,6.228-17.28-1.44-.082-1.848 1.693-2.572 2.4-4.8 1.876-5.907-1.522-11.813-1.44-18.24 .045-3.487 2.386-5.826 2.4-8.64 .019-3.653-3.557-8.745-2.88-13.44-2.833,1.007-3.184,4.496-6.72,4.8-1.58-1.62-4.41-1.98-5.76-3.84zm-40.319,27.84c-3.776,11.044.878,28.742 5.76,37.44 1.403-1.216 1.742,2.717 3.84,2.4 1.107.146.533-1.387 1.44-1.44 1.461.459 1.931,1.909 4.32,1.44-4.838-6.387-9.636-14.748-9.12-24.96-4.453.531-1.347,5.646-.96,7.68 .963,5.071 2.49,10.725 3.84,13.92-7.74-7.041-8.858-23.414-8.16-36-1.114,1.42.937-1.11-.96-.48zm21.6,40.32c-1.282-5.599-6.935-6.825-7.68-12.96h-1.44c1.061,6 4.709,11.9 9.12,12.96zm73.439-3.84c3.539-.781 4.462-4.178 5.76-7.2-2.43-.19-6.59,4.07-5.76,7.2zm-8.16-1.92c-1.095-.227-3.204,1.657-5.28,1.92-4.109.52-10.565-3.386-13.92-2.88-1.938.292-3.086,1.849-4.8,1.92-2.429.101-5.11-2.023-7.68-1.92-3.898.156-7.229,3.798-11.04,4.32-5.294.725-6.405-1.699-9.12-2.4-3.34.78-6.083,10.13-1.44,11.52 1.847-.553 1.013-3.787 3.36-3.84 4.469-.09 7.956.288 11.04,2.4 3.28,2.246 4.426,7.229 7.2,9.6 7.405,6.331 26.694,2.07 23.52-10.08 3.914-2.07 7.351-2.571 11.04-.479 1.06-3.06.91-9.3-2.88-10.08zm-60,4.32c-.439-2.601-2.433-3.647-4.32-4.801-1.281,2.32 1.76,6.32 4.32,4.8zm-7.199,17.76c2.604.388 4.208,3.959 7.2,2.399-.875-2.645-3.437-3.603-6.24-4.319-3.296-2.784-4.656-7.504-8.64-9.601 .217,4.31 5.654,7.43 7.681,11.52zm68.639.48c7.468.205 12.263-6.25 15.84-11.52-5.35,3.77-11.63,6.61-15.84,11.52zm-6.24,8.64c-3.795-1.086-7.064,1.243-10.08,2.399-2.104-.024-4.496-.336-4.8,1.44 6.369,1.054 12.065-2.629 18.24-3.36 6.289-4.75 14.949-7.131 18.239-14.88-6.77,5.23-15.2,8.8-21.6,14.4zm-46.56-4.32c.438-2.038-.784-2.416-1.92-2.88-1.08,1.22-.45,3.64 1.92,2.88zm-6.72,0c2.02,1.98 3.839,4.161 7.68,4.32-.64-2.9-4.91-6.68-7.68-4.32z" fill="#ffe292"/>
  <path d="m77.731,137.28c-.698,12.586.42,28.959 8.16,36-1.35-3.195-2.877-8.849-3.84-13.92-.387-2.034-3.493-7.148.96-7.68-.516,10.212 4.282,18.573 9.12,24.96-2.389.469-2.859-.981-4.32-1.44-.907.054-.333,1.587-1.44,1.44-2.098.316-2.437-3.616-3.84-2.4-4.882-8.698-9.537-26.396-5.76-37.44 1.897-.63-.154,1.9.96.48z"/>
  <path d="m110.37,208.8c3.809-.129 5.604,1.757 8.16,2.88-1.258,3.062-4.356,4.284-6.72,6.24-1.268,3.849-2.25,7.542-2.4,12-.343,10.2-1.418,18.243-7.68,24.48-4.581,4.562-12.019,5.982-15.36,13.92 1.034.886 3.396.444 2.88,2.88-.79,1.247-3.947,1.292-3.36-1.44-1.525,1.355-1.228,4.532-2.88,5.761-10.544-17.409 12.872-25.011 13.92-39.36 .711-9.742-9.634-17.406-2.88-28.32 2.82-2.591 8.257-6.721 11.04-1.439-1.19,5.448-4.454,7.962-5.28,13.439-.93,6.165 2.111,11.938 1.44,17.761-.25,2.168-2.16,7.464-3.36,10.079-3.376,7.358-13.155,10.059-12.48,19.2h.96c6.946-12.77 20.605-20.64 18.24-38.88-.053-.906-1.587-.333-1.44-1.439 .16-8.16 2.42-14.22 7.2-17.76zm-22.079,62.4c-.202-.918-.174-2.066-1.44-1.92-.134,1.25-.162,2.4 1.44,1.92z" fill="#ffe292"/>
  <path d="m87.811,212.64c-3.436.724-5.386,2.934-7.2,5.279-14.038,7.241-23.318,19.242-38.4,25.44-2.193-5.314 3.559-7.952 5.76-12 2.516-4.627 3.274-10.416 5.76-15.36 1.175-2.338 3.428-4.406 4.8-6.72 4.062-6.848 7.566-15.817 11.52-23.04-14.31-4.696-15.533,10.344-23.04,14.88-2.941,1.777-7.843,2.666-11.04,2.88-5.125.344-10.99-2.354-16.32-1.439-2.849.488-3.223,3.419-6.24,1.439-3.458,1.663-4.013,6.228-6.72,8.641-4.901-4.223-3.412-16.573 0-20.641 2.747-3.273 7.39-6.209 11.04-7.2 5.569-1.512 16.768,1.575 20.16-4.319 1.459-10.062 8.912-14.128 14.88-19.681-1.763-2.394-4.372-1.477-6.72-1.92-11.815-2.229-24.242-5.378-35.52-7.199-3.051-.493-8.315.757-9.6-3.36 1.321-3.429 5.255-2.296 7.68-2.88 5.139-1.238 9.465-3.759 14.4-4.8 1.445-.305 2.806.265 4.32,0 5.959-1.043 12.269-4.457 18.72-6.24 6.467-1.788 12.994-2.62 19.2-5.28 .208-9.788-16.897-5.552-26.88-8.16-3.015-.788-7.143-2.234-9.12-3.84-1.3-1.057-1.56-3.339-2.4-4.32-.721-.841-2.183-1.083-2.88-1.92-2.794-3.353-4.254-7.805-6.72-12.96-2.901-2.264-5.955-4.884-11.04-4.32-2.374.263-3.398,2.333-5.76,1.44-1.917-2.689 2.836-6.231 3.84-9.12 4.338-1.144 6.662-3.518 11.04-3.36 8.892.32 14.841,10.281 19.68,15.36 9.972,5.873 23.643-4.003 33.6.48-.402-4.338-5.949-7.771-4.32-11.04-3.935-.386-3.531-5.109-6.72-6.24-2.735-5.621-6.849-11.019-10.56-16.32-3.457-4.938-9.262-9.932-7.68-16.8 7.203,1.917 12.026,6.214 16.8,10.56 14.597,7.323 26.244,17.596 41.28,24.48 5.82-10.902-9.952-15.215-14.4-22.08-3.604-8.592-2.797-15.062-3.36-24.48 5.046-7.893.427-18.513-5.76-22.08-1.677-.13-5.124-.556-5.28-2.88-.444-6.591 16.823-2.094 19.68,0 1.087,2.112 3.337,3.063 5.28,4.32 2.282,5.919 5.142,10.981 5.76,17.28 .231,2.355-.854,4.899-.48,7.2 2.101,12.925 20.815,11.278 25.44,23.04 4.162-10.792 3.923-28.51 6.24-40.32 1.166-5.944 2.74-12.358 5.28-17.28 5.078.67 5.2,7.155 6.24,11.04 4.576,17.087 7.722,37.569 13.92,54.24 4.744-3.397 8.044-2.639 9.12-8.16 1.009-5.177-2.258-9.063-1.92-15.36 .298-5.575 2.824-11.708 5.76-15.36 6.971-8.676 23.512-8.483 20.16-23.52-.696-3.121-4.495-5.971-1.92-8.64 9.067,2.041 14.254,11.952 13.92,21.6-.444,12.826-15.502,16.63-15.36,29.28 3.099,7.874 5.514,18.812 1.44,26.4 10.613-2.062 17.907-11.846 26.88-18.24 3.105-2.214 6.789-4.002 10.08-6.24 2.838-1.93 5.854-6.562 10.079-4.32 .848,4.549-3.346,7.401-5.76,10.56-7.232,9.465-13.261,21.027-19.68,31.68-3.527,3.993-6.185,8.856-8.16,14.4 9.775,7.057 17.232-4.688 21.12-11.04 6.728-2.53 12.104-6.106 19.68-6.72 5.928-.48 12.365,2.117 18.24.96 5.345-1.053 7.124-5.418 11.04-8.64 5.626,4.022.108,14.25-1.44,18.72-4.361,1.578-6.557,5.08-11.04,6.24-4.464,1.155-11.004-.377-15.359.96-8.565,2.631-9.14,12.955-14.4,19.2-3.477,1.963-7.095,3.785-10.08,6.24 7.526,5.694 21.404,5.873 32.641,8.16 3.198.651 5.822,2.324 8.64,2.88 3.633.717 11.728-1.594 11.04,5.28-19.378,4.782-39.904,8.415-59.04,13.439 2.627,3.235 3.462,9.53 7.68,11.521 5.789,2.73 12.531.302 19.681,1.439 12.248,1.951 16.627,11.296 20.64,22.561 3.496,4.437 10.979,2.281 16.8,2.88 .133,8.612-8.618,8.342-13.92,11.521-4.928-1.461-7.707-.542-11.04-2.4-4.964-2.768-6.548-9.594-10.56-12.48-2.798-2.013-8.889-2.732-13.44-1.92-5.525.987-13.808,7.436-21.12,1.92 4.943,12.338 14.711,19.85 19.681,32.16 2.567,4.816 8.481,8.767 8.64,14.4-4.348,1.422-8.28-2.314-11.521-4.8-10.007-7.679-22.686-14.272-33.6-21.12-3.305-3.256-6.826-6.295-12-7.681-1.45,2.644-2.456,4.65-2.399,7.2 .149,6.809 6.541,8.533 11.04,12.96 4.408,4.339 6.704,12.314 7.199,18.24 .672,8.026-2.553,18.649 1.92,24.96 1.407,3.489 7.921,3.181 8.16,6.72 .298,4.397-6.575,3.981-12.96,3.84-7.007-3.798-14.642-9.954-15.84-19.199-.689-5.317 1.274-7.423.48-12.48-1.745-11.114-10.417-7.588-17.28-13.439-2.383-2.032-2.544-5.549-6.24-7.681-2.565,2.463-1.438,6.526-2.4,10.08-.668,2.468-2.354,4.592-2.88,7.2-1.125,5.581.232,12.3-2.88,16.32 .608,4.8-1.416,7.929-2.88,14.399-.721,3.189-.641,7.809-3.84,7.681-4.871-.196-2.428-11.05-2.88-14.881-.21-1.783-1.43-3.375-1.92-5.279-1.053-4.087-1.011-8.734-1.92-12.96-2.814-13.075-6.206-25.683-8.16-35.521-2.701-.301-2.96,1.84-5.28,1.92-4.133,7.114-1.76,20.297-5.28,28.8-5.921,14.302-22.527,17.733-24,29.761-.592,4.836 1.951,8.9-1.44,10.08-5.854,2.035-6.858-10.462-9.12-12 .903-3.248-1.393-2.566-.96-8.641 .461-6.464 3.51-11.571 6.72-16.319 1.003-.276 1.37-1.19 2.88-.96 1.479-5.349 7.618-8.636 7.2-15.36-.413-6.67-8.035-13.22-4.799-21.6zm1.92-191.04c.026.613.615.665.48,1.44 2.581,6.667-.468,13.55 0,19.68 .792,10.377 7.411,16.213 16.8,18.72 5.445,3.852 7.348,9.705 9.12,16.32 2.209-.031 3.822-.658 5.28-1.44 .67-6.393-.616-10.415-3.84-14.4-6.151-7.605-19.353-7.469-22.08-16.8-1.693-5.794-.141-12.563-1.92-18.24-1.599-5.103-5.743-10.453-11.04-11.52 1.797,3.882 4.624,9.133 4.32,14.88-.282,5.313-2.687,9.728-2.88,15.36-.665,19.313 19.427,17.916 19.68,36.96 4.267.427 5.541-2.14 7.68-3.84-.924-7.553-4.399-14.411-11.04-17.28-1.067-.461-3.05-.144-4.32-.96-4.253-2.735-7.754-10.643-8.16-17.28-.184-3 1.22-6.308 1.44-10.08 .288-4.926-2.685-9.269 0-12 .294.027.569.072.481.48zm86.879,23.52c-2.226,9.117 2.656,18.519 0,26.88-1.272,4.007-3.894,6.127-5.76,10.56 .992.928 2.67,1.17 3.84,1.92 7.321-5.974 11.263-11.722 10.08-21.6-.513-4.281-3-8.358-3.36-12.48-1.25-14.31 17.712-17.805 13.44-30.72-2.04,11.884-15.5,14.226-18.24,25.44zm13.92-23.52c-1.588,4.489-6.751,4.973-10.56,7.2-5.051,2.953-12.158,9.029-12.96,16.8-.437,4.229 1.946,7.725 2.399,12.96 .429,4.948-1.428,7.27-2.399,11.52-2.493,2.627-7.013,3.228-8.16,7.2 7.506,6.6 13.637-2.778 14.88-9.12 1.654-8.443-2.784-18.74.48-26.4 4.78-11.219 14.563-10.17 17.76-20.16h-1.44zm-63.36,53.28c1.929.254 6.677.238 9.12-.48 .392-16.274.507-35.683.48-51.84-.106-.374-.402-.558-.96-.48-3.57,15.784-5.11,36.469-8.64,52.8zm14.4-.48c2.401.741 6.893,1.607 9.601.48-3.071-14.53-6.352-28.849-11.041-41.76-.19,14.12-.57,29.925 1.44,41.28zm-58.079,16.8c1.853-.877 2.995,3.073 5.76,2.88 2.401-1.973 6.805-2.724 6.72-5.76-.128-4.579-11.981-5.992-13.44-10.56-10.485-2.955-16.483-10.397-25.92-14.4 7.079,10.853 20.287,18.096 26.88,27.84zm96.959-2.4c5.526,8.198 8.672,3.177 14.4-2.4 3.071-2.991 7.281-5.607 9.6-8.16 1.566-1.725 1.955-4.041 3.36-5.28 1.095-.965 2.692-1.176 3.359-1.92 1.308-1.458 1.732-3.919 2.881-5.28 .933-1.106 3.033-.509 1.92-2.4-11.17,9.151-24.29,16.344-35.52,25.44zm-100.8,15.84c2.984-1.016 4.293-3.707 5.28-6.72-9.213-10.715-20.298-23.814-32.64-32.16 9.759,12.321 16.846,27.314 27.36,38.88zm110.88-6.72c1.169,2.511 2.296,5.064 4.8,6.24 6.256-10.384 13.337-19.944 18.721-31.2-.055-.586-.144-1.137-.96-.96-7.12,9.042-15.72,16.602-22.56,25.92zm-14.88,99.36c4.974-3.821 11.412-8.884 14.88-13.44 2.745-3.607 7.284-11.368 8.16-15.359 .729-3.318 1.298-3.979 1.92-5.76 1.978-5.661.929-11.682 2.88-17.76-1.431-31.753-23.041-60.798-53.76-65.28-3.202-.467-6.666.743-9.6-1.92-2.648,1.929-6.588.955-10.08,1.44-18.772,2.608-36.569,13.625-44.64,26.4-5.204,8.236-11.19,18.1-12.48,28.8-1.794,14.881 1.064,25.986 6.24,40.32 9.442,14.238 20.606,26.753 38.88,32.159 1.081-.199-.072-2.632 1.44-2.399 1.771.905 4.56,1.412 6.24,0-2.002-2.323-9.426-1.768-8.64-5.28 3.32,2.76 9.825,2.336 13.44,4.8 .206,1.326-1.789.451-1.92,1.44 2.605.115 3.393,2.048 3.84,4.319 19.66,1.18 33.27-4.85 43.2-12.48zm-103.2-78.24c-1.637-2.203-4.743-2.937-5.76-5.76-9.662-3.528-20.682.677-27.84-1.44-5.56-1.116-16.639-9.269-13.92-18.72-2.317-2.97-9.821-8.788-13.92-3.84 4.185,1.416 7.595,3.605 10.08,6.72 1.16,4.119 3.969,6.591 4.8,11.04 5.871,6.802 12.765,10.562 23.04,11.04 3.295.154 6.357-.902 9.6-.48 6.229.812 6.853,6.484 12,7.2 1.481-1.43 2.908-3.15 1.92-5.76zm193.92-28.8c-.027-.293-.071-.568-.479-.48-4.958,5.304-16.024,1.402-23.521,1.92-13.89.96-20.136,8.666-27.359,17.76-4.233,3.319-10.077.361-15.36,1.44-.247,3.95.694,4.667 2.4,7.2 6.693.08 12.413-.615 16.8-3.84 3.539-7.742 9.827-16.548 20.16-18.24 3.012-.494 7.013.115 10.56,0 2.067-.067 5.323-2.063 5.76.96-6.163,2.476-16.596.684-22.08,3.84-8.438,5.417-10.363,18.526-21.119,21.12-3.062.738-4.566-.454-7.681.96-.882,2.309.785,4.964 1.92,6.72 8.724-2.048 14.556-2.982 19.681-8.64 5.548-6.126 6.139-16.01 13.92-19.2 3.32-1.361 5.91-.162 10.08-.48 7.8-.594 15.496-4.245 16.8-11.52-.03.293-.07.568-.48.48zm-217.92,20.16c-.146-1.266 1.002-1.238 1.92-1.44 10.479-1.449 18.688,1.62 24.48,6.24 2.864-2.146 2.309-5.807.96-9.12-5.124-1.068-7.689-4.316-12.96-4.8-5.719-.524-9.956,2.376-15.36,3.36-7.955,1.448-12.055-2.012-18.72-5.28 2.623,7.62 9.866,10.61 19.68,11.04zm-17.28,33.12c-3.342.817-7.321-.336-9.6,3.36 15.599-.51 33.109.037 46.08-2.4 1.957-2.364 1.342-7.298 1.44-11.52-14.012,1.34-25.627,7.55-37.92,10.56zm175.68-9.6c-1.159,2.888.154,7.111.479,10.08 12.123.832 30.919,2.431 42.721,0-14.79-3.84-28.29-6.71-43.2-10.08zm.48,15.36c-1.164,2.207-2.333,5.278-1.439,8.16 7.044.093 8.554-2.378 15.359-2.4 7.104-3.616 18.529-2.911 24.96-7.2-12.21.01-26.46-.88-38.88,1.44zm-183.36.96c13.962,2.312 28.716,7.247 45.12,8.64 1.172-2.901-.384-6.881-.96-9.6-13.214-.22-30.536-1.78-44.16.96zm28.8,15.84c-4.075,3.728-7.321,5.685-9.12,9.12-1.802,3.443-1.389,7.429-4.8,10.56-4.899,4.497-11.487,1.676-18.24,2.881-5.515.983-12.805,6.588-12.96,12.479 4.913-.963 10.443-3.759 15.84-3.36 2.923.217 5.537,1.762 8.16,1.921 5.893.354 12.254-.915 16.32-5.28 3.356-3.604 4.44-9.102 9.6-11.521 3.252-1.524 7.165-.45 10.08-1.439 3.756-1.274 10.429-6.997 6.24-10.08-4.813,1.505-6.922.693-11.04,1.439-10.583,1.918-10.774,11.667-16.8,17.28-4.233,3.943-11.105,5.79-16.32,5.76-3.135-.018-6.414-1.735-10.56-.96-2.424.454-4.853,3.81-7.2,1.92 1.974-6.293 11.373-3.053 17.28-3.359 5.463-.284 12.486-3.245 15.84-7.2 3.617-4.266 4.33-9.999 8.16-13.44 5.406-4.857 11.968-1.236 18.24-7.199-4.035-6.34-13.646-1.61-18.72.48zm198.72,20.16c-3.143-3.043-7.308-6.93-12.96-8.16-7.604-1.655-18.421-.057-22.56-3.359-2.835-2.263-4.427-10.556-9.12-10.561-3.068-.003-5.114,4.443-4.8,6.72 .519,3.76 8.899,9.718 12.96,10.561 6.256,1.298 13.265-1.2 19.199-.48 6.236.757 11.059,4.505 14.4,8.16 2.985,3.266 4.075,8.179 8.64,10.08-2.84-3.4-4.19-8.29-5.76-12.96zm-18.72-2.4c-5.333-.316-10.653,1.524-16.8,1.92-6.754-1.886-10.945-6.335-16.801-9.119-6.94,8.7 6.371,16.604 13.921,17.279 9.23.826 18.692-8.635 27.359-3.84 5.589,4.011 7.211,11.989 14.88,13.92-5.5-8.5-10.07-19.42-22.56-20.16zm-178.08,43.2c2.988-1.956 5.093-5.129 7.2-7.68 2.608-3.158 7.204-8.043 10.08-10.561 2.188-1.914 3.295-6.142 6.24-9.6 3.141-3.688 7.146-5.886 7.2-8.64 .058-2.948-6.593-9.104-8.16-10.08-6.473,16.25-17.388,30.61-22.56,46.56zm138.72-40.32c-2.904,1.415-4.21,4.43-5.76,7.199 4.199,4.774 9.416,9.355 13.92,13.44 3.482,3.158 4.821,6.502 7.68,9.6 2.887,3.127 7.048,5.943 10.561,7.681-8.51-12.93-16.61-26.26-26.4-37.92zm-97.439,14.4c.474-3.517-4.264-4.514-6.72-6.72-10.163,9.837-19.933,20.067-28.8,31.2 7.993-3.048 12.816-9.265 20.64-12.48 .672-4.31 14.38-8.29 14.88-12zm106.08,11.52c-5.393-4.833-18.545-23.336-24.48-10.08 13.26,8.5 24.882,18.639 39.84,25.439-3.25-5.34-8.71-9.4-15.36-15.36zm56.64-7.2c2.724.462 6.766,1.13 7.2-1.92-2.123-.117-3.497-.983-5.76-.96 .03,1.46-1.73,1.15-1.44,2.88zm-155.52,21.12c-.147,1.106 1.387.533 1.44,1.439 2.366,18.24-11.294,26.11-18.24,38.88h-.96c-.675-9.142 9.104-11.842 12.48-19.2 1.2-2.615 3.11-7.911 3.36-10.079 .671-5.823-2.37-11.596-1.44-17.761 .826-5.478 4.09-7.991 5.28-13.439-2.783-5.281-8.22-1.151-11.04,1.439-6.754,10.914 3.591,18.578 2.88,28.32-1.048,14.35-24.464,21.951-13.92,39.36 1.652-1.229 1.354-4.405 2.88-5.761-.587,2.732 2.57,2.688 3.36,1.44 .516-2.436-1.846-1.994-2.88-2.88 3.341-7.938 10.779-9.357 15.36-13.92 6.262-6.237 7.337-14.28 7.68-24.48 .15-4.458 1.132-8.151 2.4-12 2.364-1.956 5.461-3.179 6.72-6.24-2.556-1.123-4.351-3.009-8.16-2.88-4.78,3.54-7.04,9.6-7.2,17.76zm62.88-18.72c-3.676,9.411 1.676,17.62 6.239,23.04 8.574,3.076 12.38,8.904 12.96,17.761 .272,4.158-1.788,8.673-1.439,12.96 .289,3.558 2.89,6.135 3.36,9.119-.476,2.037-2.925-.683-2.881,1.44 1.699,2.301 4.3,3.701 7.2,4.8-.033-4.937-3.696-9.594-3.359-16.319 .338-6.759 2.142-12.6.479-18.721-1.3-4.785-4.166-7.533-6.72-11.52-4.132-2.372-9.149-5.729-10.08-11.521-.66-4.105 2.178-8.43 0-12.479-2.24-1.14-3.77.91-5.76,1.44zm-12,5.28c-1.678,12.32 3.791,21.284 12.96,24.48 1.443.503 3.71.146 5.279.96 3.823,1.982 6.17,7.551 6.721,12 .801,6.474-2.734,15.012 3.359,17.76-3.271-4.923.749-10.365.96-15.36 .308-7.246-3.431-12.004-6.239-17.28-3.639-1.321-6.062-3.857-9.601-5.279-4.596-4.956-6.129-12.909-7.68-19.68-2.31.4-4.34,1.1-5.76,2.4zm-27.84.48c3.277,14.323 5.214,34.146 11.04,47.52-2.098-14.768-.582-33.245-3.36-46.56-2.45-.24-5.59-1.91-7.68-.96zm12.96,1.44c-.268,14.234-.008,28.905 0,43.68 3.049-3.671 2.863-10.576 3.84-16.319 3.007-5.473 4.407-12.553 4.8-20.641 1.149-2.012 2.541-5.383 1.439-8.159-3.68.16-7.59.09-10.08,1.44z"/>
  <path d="m174.21,94.08c-3.495.18-6.11-3.369-9.601-4.8-2.172-.891-5.09-1.072-7.68-1.92-2.322-.76-4.737-2.446-6.72-2.88-17.833-3.901-35.403,2.535-47.521,7.68-.52-2.154 4.02-3.712 3.84-2.4 .693-.587.729-1.832 1.44-2.4 6.05-2.1 12.151-5.046 19.68-5.76 14.241-1.349 28.827,1.601 39.36,6.72 .359.907 1.433.333.479,1.44 1.559-.278 2.233.327 3.36.48 .5,1.898 3.21,1.589 3.36,3.84z"/>
  <path d="m122.85,112.8c3.536-.304 3.887-3.793 6.72-4.8-.677,4.695 2.899,9.787 2.88,13.44-.015,2.813-2.355,5.153-2.4,8.64-.082,6.427 3.316,12.333 1.44,18.24-.707,2.228-2.481,2.952-2.4,4.8 .339,7.668 15.806,9.373 17.28,1.44 .577-3.105-1.823-5.431-2.399-9.12-.55-3.521 1.203-8.228.96-13.44-.29-6.212-3.563-11.58-3.36-15.36 .136-2.534 1.736-5.707 1.92-8.64 2.632,1.688 4.912,3.728 5.28,7.68 5.657-1.421 9.755-5.914 15.84-6.24 1.514-.082 3.323,1.559 4.8-.48 8.811,2.344 17.965,3.482 22.08,10.56 1.145,1.967.638,5.058 2.88,6.72-.132,6.212-6.148,10.205-12,7.68-3.987,1.311-7.459,4.641-12.479,5.28-6.249.795-11.579-2.415-17.28-3.36-2.003-.877-.937-4.824-3.36-5.28-2.601.439-.805,5.275-1.92,7.2-.011,1.611 1.902,1.298 2.881,1.92-.9,5.984 8.576,9.463 9.6,14.4 1.42,6.854-4.92,10.655-10.561,6.24-4.801,4.957-13.565,7.765-20.16,2.4-6.457,2.889-11.406-1.654-12-5.761-1.067-7.376 8.053-9.933 8.16-15.84 .908-.952 2.268-.233 3.36,0 .512-3.712-1.166-5.234-1.44-8.16-4.867,1.385-13.616,7.774-23.04,5.76-2.269-.485-4.41-2.593-6.72-2.88-4.281-.532-7.76,1.098-10.56,0-3.213-1.261-7.214-6.337-4.32-10.56 3.565.435 5.884,2.116 6.24,5.76 1.78-.299 2.811-1.349 4.32-1.92 2.142-8.215 11.563-10.77 19.2-12 1.133.986 3.829,2.296 4.8,1.92 1.875.115 1.737-1.783 2.4-2.88-1.012-2.399-4.176-.945-5.76,0-2.103-1.577-2.88-1.956-6.24-.96-.736-2.335 1.393-1.807 1.44-3.36-4.611-2.198-5.333,4.28-9.6,1.44-1.898,1.255-2.607,3.28-5.28,1.44-1.907,2.942-5.601,6.493-8.16,7.2 .695-11.414 13.68-11.941 24-14.88 1.613.467 2.794,1.366 3.84,2.4 1.665.385 1.845-.715 3.36-.48 1.35,1.86 4.18,2.22 5.76,3.84zm43.68,4.8c1.16-1.301-.526-2.666 0-4.8-5.38-2.26-3.61,4.58 0,4.8zm3.36,0c3.688.133 7.309,3.407 10.08,7.2 .989,1.354 1.454,3.65 2.399,4.32 3.026,2.143 8.562,1.675 9.12-1.92 .755-4.861-6.381-4.843-5.279-9.6-1.613-.184.427,3.248-2.4,2.88-2.031-1.489-1.834-5.206-4.8-5.76-1.132.148-.894,1.667-2.4,1.44-1.902-.817-2.46-2.98-4.8-3.36 .19,2.43-1.88,2.6-1.92,4.8zm-49.44,2.88c1.255.135 2.064-.175 1.92-1.44-.908.108-1.059-.541-1.92-.48v1.92zm41.76,4.32c1.454-1.105 3.787-1.333 5.76-1.92-.12-2.88-6.75.7-5.76,1.92zm-39.36-.48c.268-.89 3.556-1.193 1.92-2.4-.23.93-3.38,1.37-1.92,2.4zm24-.48c1.433.007 1.632,1.248 2.88,1.44 .05-1.53-2.49-3.23-2.88-1.44zm17.28,3.84c-4.469,8.909 13.967,8.352 9.119.96 .593,2.834-3.766,6-6.72,2.88-.507-4.108 1.532-4.515 3.36-5.28-1.99-1.26-4.26.68-5.76,1.44zm-60-.48c.201.971-2.492,5.063.48,5.76-.49-4.86 7.47-7.8-.48-5.76zm7.68,4.8c.348-1.468-.828-1.412-.48-2.88-1.433.008-1.632,1.248-2.88,1.44-.397,4.509 3.613,3.334 5.28,4.8 .599-1.35 1.967-1.587 3.36-.96 1.33-1.024-.888-2.615.96-2.88 .075.564-.083,1.362.48,1.44-.231-1.512 1.474-1.087.96-2.88-2.91-5.52-3.7,6.82-7.68,1.92zm45.12-.96c.443,1.317 1.514,2.007 2.88,2.4 1.046-1.004-.24-1.37 0-2.88-1.18-.06-2.31-.07-2.88.48zm-36,21.12c-.448,4.128.741,6.619 4.32,6.72-1.818-5.833 3.042-12.336 2.4-16.32-1.51,3.93-3.32,7.56-6.72,9.6zm33.12,5.28c4.75-2.563-1.768-8.188-3.84-8.16 2.75,1.27-1.27,8.4 3.84,8.16z"/>
  <path d="m246.21,147.84c-6.431,4.289-17.856,3.583-24.96,7.2-6.806.022-8.315,2.493-15.359,2.4-.894-2.882.275-5.953 1.439-8.16 12.42-2.32 26.67-1.43 38.88-1.44z" fill="#ffe292"/>
  <path d="m257.25,199.2c-4.564-1.901-5.654-6.814-8.64-10.08-3.342-3.655-8.164-7.403-14.4-8.16-5.935-.72-12.943,1.778-19.199.48-4.061-.843-12.441-6.801-12.96-10.561-.314-2.276 1.731-6.723 4.8-6.72 4.693.005 6.285,8.298 9.12,10.561 4.139,3.303 14.955,1.704 22.56,3.359 5.652,1.23 9.817,5.117 12.96,8.16 1.57,4.67 2.92,9.56 5.76,12.96z" fill="#ffe292"/>
  <path d="m71.491,165.6c-6.272,5.963-12.834,2.342-18.24,7.199-3.83,3.441-4.543,9.175-8.16,13.44-3.354,3.955-10.377,6.916-15.84,7.2-5.907.307-15.306-2.934-17.28,3.359 2.347,1.89 4.775-1.466 7.2-1.92 4.146-.775 7.425.942 10.56.96 5.215.03 12.087-1.816 16.32-5.76 6.026-5.613 6.217-15.362 16.8-17.28 4.118-.746 6.227.065 11.04-1.439 4.188,3.083-2.484,8.806-6.24,10.08-2.915.989-6.828-.085-10.08,1.439-5.16,2.419-6.243,7.917-9.6,11.521-4.066,4.365-10.428,5.635-16.32,5.28-2.623-.159-5.237-1.704-8.16-1.921-5.397-.398-10.927,2.397-15.84,3.36 .155-5.892 7.445-11.496 12.96-12.479 6.753-1.205 13.341,1.616 18.24-2.881 3.411-3.131 2.998-7.116 4.8-10.56s5.045-5.393 9.12-9.12c5.074-2.09 14.685-6.82 18.72-.48z" fill="#ffe292"/>
 </g>
</svg>
