<?xml version="1.0" encoding="UTF-8"?>
<svg viewBox="0 0 460.0303 507.73868" xmlns="http://www.w3.org/2000/svg" xmlns:xlink="http://www.w3.org/1999/xlink">
 <defs>
  <filter id="b"/>
  <filter id="g" x="-.13052" y="-.07592" width="1.261" height="1.1518">
   <feGaussianBlur stdDeviation="2.0903"/>
  </filter>
  <filter id="h" x="-.12016" y="-.07993" width="1.2403" height="1.1599">
   <feGaussianBlur stdDeviation=".2635"/>
  </filter>
  <linearGradient id="f" x1="154.65" x2="143.3" y1="60.363" y2="71.94" gradientUnits="userSpaceOnUse">
   <stop stop-color="#47001c" offset="0"/>
   <stop stop-color="#5e0000" offset="1"/>
  </linearGradient>
  <linearGradient id="a">
   <stop stop-color="#fff" offset="0"/>
   <stop stop-color="#9bad00" offset="1"/>
  </linearGradient>
  <radialGradient id="c" cx="140.3" cy="36.961" r="14.701" gradientTransform="matrix(.80482 .15909 -.10741 .54336 31.354 -5.4433)" gradientUnits="userSpaceOnUse">
   <stop stop-color="#785523" offset="0"/>
   <stop stop-color="#2e1800" offset="1"/>
  </radialGradient>
  <radialGradient id="e" cx="222.37" cy="33.077" r="4.7126" gradientTransform="matrix(.48326 .19168 -.29135 .73454 124.2 -34.093)" gradientUnits="userSpaceOnUse" xlink:href="#a"/>
  <radialGradient id="d" cx="143.52" cy="24.961" r="3.5872" gradientTransform="matrix(.70122 .28164 -.34779 .8659 51.769 -36.802)" gradientUnits="userSpaceOnUse" xlink:href="#a"/>
 </defs>
 <g transform="matrix(.77772 0 0 .77772 806.65 -951.09)">
  <path d="m-566.54 1482.7c-48.173-30.026-6.9108-83.301 13.734-26.933" fill="#dd8404" stroke="#000" stroke-linecap="square" stroke-width="3.149"/>
  <g transform="matrix(3.149 0 0 3.149 -1823.9 61.883)">
   <g transform="translate(191.3 365.81)">
    <path d="m148 168.5c22.086 10.313 42.213 41.563 67 25 22.198-14.833 14.759-52.248-5.125-57.625-8.1333-2.1994-18.312 3.0969-17.569 9.2512 0.49751 4.1209 5.1862 6.7835 9.194 7.3738 11.227 1.743 12.685 19.754 6.125 25.562-15.414 13.647-39.156-15.055-57.875-21.562z" fill="#dd8404" stroke="#000"/>
    <path d="m205.16 135.38c-6.8611 0.30723-13.447 4.7496-12.844 9.75 0.31791 2.6333 2.3461 4.6578 4.8125 5.9375-0.75977-5.5346 2.7279-10.374 9.0938-15.688-0.35313-8e-3 -0.71065-0.0158-1.0625 0z" stroke="#000" stroke-linecap="round" stroke-linejoin="round"/>
    <path d="m201.5 152.5 5.9375-7.1875-2.1445 8.5709z"/>
    <path d="m187.51 195.04 4.5605-7.7466 0.0652 9.5859z"/>
    <path d="m203.7 198.02 0.81898-8.6544 3.6973 7.5598z"/>
    <path d="m228.4 162.81-9.0906-2.0151 8.2495-3.3041z"/>
    <path d="m224.27 183.5-7.5928-6.1552 9.7727 1.4045z"/>
    <path d="m173.26 170.49-0.61076 9.4657 4.6393-6.7834z"/>
    <path d="m183.92 177.17 0.0148 10.054 4.4161-7.8775z"/>
    <path d="m199.72 181.62-0.15614 9.6236-4.0671-9.7443z"/>
    <path d="m207.62 178.06 7.6969 8.5957-11.694-6.0384z"/>
    <path d="m211.54 167.62 8.4529 0.31644-9.3159 5.1404z"/>
    <path d="m209.23 158.05 7.9997-4.2427-6.3438 8.3462z"/>
    <path d="m221.93 144.7-8.8668 3.8442 5.2291-7.9451z"/>
    <path d="m163.88 164.11-0.85909 8.217 5.9047-4.806z"/>
    <path d="m173.01 185.79 5.3159-5.0015-0.81973 8.2789z"/>
    <path d="m164.29 179.08 4.5345-5.2868-0.35333 8.5196z"/>
    <path d="m147.01 92.478c3.8956 1.4699 4.6128 0.9451 5.2408 9.9304 21.274-10.65 38.896-12 60.17-18.615l1.7868 17.408c-21.753 6.3823-39.498 16.918-61.787 16.336 0.52627 10.817-0.87194 29.544 2.085 38.335 2.4043 4.4003 4.1111 7.3318 4.4752 11.879 0.67528 8.3959 1.8867 18.271 8.3468 20.112 21.379 6.0924 28.541 9.4627 19.647 17.681-7.4862 6.9173-32.865-4.4675-34.785-13.594-0.68406-3.2512-3.0114-6.8139-4.9621-8.5392-4.6586-4.1204-3.0008-2.559-4.7839-4.1022-3.9502-3.4188-7.03-5.1897-10.607-5.4493-5.8403-0.42389-16.569 1.0072-24.081 7.7181-0.96089 0.85834-0.32323 4.2717-1.4245 4.8982-3.5579 2.0239-10.262 12.117-17.48 16.333-4.0513 2.3668-13.116-0.47149-15.24-1.5261-3.076-1.5276-7.1203-9.321-3.0702-13.116 2.6948-2.5249 9.4424-2.5559 14.87-2.8045 2.1868-0.10018 3.4891-0.60839 5.1823-2.0164l4.4371-4.1937c1.3928-1.3164 1.5103-2.251 1.6709-3.527 0.12008-2.9302-1.327-5.9953-0.14679-8.9527 1.573-3.9416 7.5215-7.7079 8.8879-11.773 4.8558-14.448 8.6733-29.52 13.349-44.076-5.8535 0.42248-35.691-27.932-34.945-30.672 0.83088-3.0512 9.4814-18.735 9.4814-18.735 9.7778 11.158 20.217 20.002 28.917 34.933l7.1532-8.8603z" fill="#dd8404" stroke="#000"/>
    <path d="m129.39 104.12c3.3884 2.1534 7.0546 3.5922 11.99 1.7662 4.0965-1.7871 3.543-2.6037 3.7464 2.4392 0 0 1.6734 7.7321 1.6878 11.876 0.0222 6.3805-0.8591 15.274-0.36149 22.954 0.6167 9.5178 0.21324 17.987 0.89807 20.335 0.97019 9.193-0.43024 5.7171-5.6318 2.7985-6.7915-3.792-14.272-6.2427-24.953-2.4597-6.508 1.6576-9.2444 7.9165-6.5127-1.6314 0 0 2.9609-10.29 6.5678-20.916 2.6855-7.9118 3.4907-13.77 4.9115-19.998 0.8533-3.7406 3.9964-13.177 3.9964-13.177 1.1882-3.4536 0.4257-6.121 3.6607-3.9859z" fill="#fff" filter="url(#g)"/>
    <path d="m162.75 184.21-3.4778 7.1208 6.9326-3.8882z"/>
    <path d="m155.38 182.94-4.3726 5.684-2.1611-3.4588z"/>
    <path d="m159.32 171.43-6.7992 4.522 7.4038-0.13768z"/>
    <path d="m105.95 174.94 2.3416 6.1725 3.397-2.4333z"/>
    <path d="m96.093 169.09 8.446 2.0966-8.0046 1.9999z"/>
    <path d="m95.033 179.15 4.0452 6.2862-7.6261-2.9017z"/>
    <path d="m117.18 89.154-4.6831 5.5619 7.4808-2.1821z"/>
    <path d="m107.95 77.453-5.303 4.955 8.4505-1.1527z"/>
    <path d="m103.17 100.19-4.9905-4.5705 7.9772-1.801z"/>
    <path d="m90.486 88.565-3.6519-4.305 8.4475-2.6188z"/>
    <path d="m100.4 161.54 3.7863 4.6882-6.5484-1.4766z"/>
    <path d="m155.67 100.79 2.5832 5.7352 1.0504-6.965z"/>
    <path d="m168.73 95.81 3.1828 5.5323 1.0504-6.965z"/>
    <path d="m184.26 91.131 3.2031 6.4638 1.0788-7.7438z"/>
    <path d="m164.73 116.88 1.0762-6.5778 3.1887 5.6643z"/>
    <path d="m181.12 112.57 0.60115-7.2277 3.3294 5.9713z"/>
    <path d="m149.46 161.91-11.716-15.174 4.8848 10.345z"/>
    <path d="m148.21 148.41-11.716-15.174 4.8848 10.345z"/>
    <path d="m147.96 136.66-11.716-15.174 4.8848 10.345z"/>
    <path d="m148.46 125.16-11.716-15.174 4.8848 10.345z"/>
    <path d="m115.49 160.91 13.489-15.174-5.624 10.345z"/>
    <path d="m116.93 147.41 13.489-15.174-5.624 10.345z"/>
    <path d="m117.22 135.66 13.489-15.174-5.624 10.345z"/>
    <path d="m116.64 124.16 13.489-15.174-5.624 10.345z"/>
    <path d="m113.14 170.87 14.212-5.8547-7.5337 5.2332z"/>
    <path d="m146.6 171.87-14.212-5.8547 7.5337 5.2332z"/>
    <path d="m108.4 158.6 12.176-9.3805-8.2989 3.9078z"/>
    <path d="m109.78 146.1 12.176-9.3805-8.2989 3.9078z"/>
    <path d="m114.53 131.47 12.176-9.3805-8.2989 3.9078z"/>
    <path d="m120.65 111.85 12.176-9.3805-8.2989 3.9078z"/>
    <path d="m153.33 156.85-12.176-9.3805 8.2989 3.9078z"/>
    <path d="m151.95 143.6-12.176-9.3805 8.2989 3.9078z"/>
    <path d="m151.2 131.72-12.176-9.3805 8.2989 3.9078z"/>
    <path d="m146.78 114.76-9.3335-12.212 7.0047 5.9225z"/>
    <path d="m196.72 88.035 3.2031 6.4638 1.0788-7.7438z"/>
    <path d="m195.25 107.33 0.60115-7.2277 3.3294 5.9713z"/>
    <path d="m96.493 65.45-3.382 5.8614 8.1492-0.68538z"/>
    <g transform="translate(-259.86 .35355)">
     <g transform="translate(260)">
      <path d="m149.29 50.631c-13.389 12.742-12.761 19.213-7.8356 25.257 9.2988 4.1901 17.086-10.251 24.829-19.395z" fill="url(#f)"/>
      <path d="m143.41 73.214c-1.4245-3.1183 7.3509-14.152 13.836-15.292" fill="none" filter="url(#h)" stroke="#640000" stroke-linecap="round" stroke-width="2.6"/>
      <path d="m140.06 62.092c-3.1965 18.509 7.9437 13.359 14.736 7.1463-2.2755 10.174-8.3124 13.22-15.736 10.606-5.2362-5.1537-6.7729-11.266 1-17.752z" fill="#fff" stroke="#000" stroke-width=".5"/>
      <path d="m146.66 74.476v3.3966" fill="none" stroke="#000" stroke-width=".5"/>
      <path d="m141.94 74.41-0.97842 2.9556" fill="none" stroke="#000" stroke-width=".5"/>
      <path d="m139.55 69.273-3.6928-2.343" fill="none" stroke="#000" stroke-width=".5"/>
      <path d="m140.1 71.999-4.9956 1.9237" fill="none" stroke="#000" stroke-width=".5"/>
      <g transform="translate(.29517,.29852)" stroke="#000">
       <path d="m131.12 50.75s-2.5511 11.477 10 11.875c14.312 0.45345 13.355-2.6498 12.625-10.75z" fill="#fff" stroke-width=".5"/>
       <path d="m134.27 60.602v-9.6954" fill="none" stroke-width=".5"/>
       <path d="m146.4 62.596v-11.086" fill="none" stroke-width=".53466"/>
       <path d="m140.2 62.668v-11.467" fill="none" stroke-width=".54375"/>
      </g>
     </g>
     <path d="m389.93 28.445s-3.1828-8.0082-0.53033-10.076c5.3039-4.1353 9.0156 4.5962 9.0156 4.5962 0.22997 4.6939-1.2268 7.8065-8.4853 5.4801z" fill="#dd8404" stroke="#000"/>
     <path d="m391.68 29.195s-3.8113-8.6182-0.78033-10.076c4.1789-2.0103 6.1406 7.3462 6.1406 7.3462 0.22997 4.6939 1.8982 5.0565-5.3603 2.7301z" fill="#854817" filter="url(#b)" stroke="#000" stroke-width=".5"/>
     <path d="m428.9 40.501s10.904-4.4949 10.966-7.8577c0.12264-6.7243-9.0885-4.4504-9.0885-4.4504-3.8918 2.6343-8.0953 7.9005-1.8772 12.308z" fill="#dd8404" stroke="#000"/>
     <path d="m427.43 38.748s11.591-3.5549 10.937-6.8542c-0.90134-4.5488-9.5616-0.50011-9.5616-0.50011-3.8918 2.6343-7.5941 2.9465-1.3757 7.3543z" fill="#854817" filter="url(#b)" stroke="#000" stroke-width=".5"/>
     <path d="m393 72.25c-13.698 1.3156-8.5861 27.154 6.9602 27.743 2.9823 0.11306 17.105-0.97925 15.79-24.243-0.54276-10.804 23.819-20.149 13.75-35.25-0.14243-20.44-5.1064-24.856-15.938-25.036-2.2004-0.12059-4.2146-0.33234-6.0944-1.0967-5.6349-2.2956-12.237-5.399-11.217 11.632-29.332 1.455-17.455 35.173 2 26 5.99 4.9682 13.351 8.0662 24.5 6-7.6275 6.1021-9.8374 18.004-14.26 19.405-9.8516 3.1201-11.527-5.5356-15.49-5.1551z" fill="#dd8404" stroke="#000"/>
     <path d="m405.66 16.866c0.76015-6.1366 0.40247-14.061-6.8943-11.932-5.6578 1.6507-5.1436 9.3821-1.6794 14.496 3.1208-8.9523 5.8522-6.8213 8.5737-2.5633z"/>
     <path d="m427.25 32.221c4.8767-3.8017 7.1508-14.006 0.48591-17.661-5.1679-2.8334-14.266 0.94455-15.432 7.01 7.6419-4.8254 16.818 2.6517 14.946 10.651z"/>
     <g transform="translate(200)">
      <path d="m211.25 32.865c-1.6126-4.9225 2.3482-10.433 7.7782-10.253 6.2856 0.20831 8.3392 11.602 6.1872 13.612-4.4429 4.1485-11.941 2.8207-13.965-3.3588z" fill="#fff" stroke="#000" stroke-width=".5"/>
      <path d="m225.34 28.906c0.97586 3.0781 0.93361 6.3301-0.12359 7.3172-1.1338 1.0586-2.4665 1.7607-3.8564 2.1164-4.5281-0.49613-5.1005-5.0028-3.2718-8.2474 1.8316-3.2496 6.0688-5.2337 7.2517-1.1862z" fill="url(#e)" stroke="#000" stroke-width=".5"/>
      <path d="m223.01 30.185c0.89806 0.32993 1.2036 1.7316 0.68515 3.1428s-1.6588 2.2817-2.5568 1.9518-1.2036-1.7316-0.68514-3.1428 1.6588-2.2817 2.5568-1.9518z"/>
     </g>
     <g transform="translate(260)">
      <path d="m141.36 14.186c2.3767-0.18916 4.6719 3.4163 5.1463 8.0841s-1.0569 8.5778-3.4336 8.767-4.6719-3.4164-5.1463-8.0841 1.0569-8.5778 3.4336-8.767z" fill="#fff" stroke="#000" stroke-width=".5"/>
      <path d="m146.32 20.926c0.0803 0.43598 0.14453 0.88484 0.1912 1.344 0.47443 4.6678-1.0569 8.5779-3.4336 8.767-0.61765 0.04916-1.2298-0.15798-1.8059-0.57344-4.6492-7.4713 4.1413-13.028 5.0483-9.5376z" fill="url(#d)" stroke="#000" stroke-width=".5"/>
      <path transform="matrix(.93759 0 0 .93759 8.9663 1.5821)" d="m144.61 22.804c0.89806 0.32993 1.2036 1.7316 0.68515 3.1428s-1.6588 2.2817-2.5568 1.9518-1.2036-1.7316-0.68514-3.1428 1.6588-2.2817 2.5568-1.9518z"/>
     </g>
     <g transform="translate(260)">
      <path d="m138.5 47.449c-8.9545-8.4696-10.839-12.865-12.404-18.957 9.6084-4.2479 21.186-3.8984 28.402 10.736-5.8335 1.6699-11.571 3.5033-15.998 8.2201z" fill="url(#c)" stroke="#000"/>
     </g>
     <path d="m422.75 58c5.5285-3.6339 6.435-8.8917 3.2433-15.59" fill="none" stroke="#000" stroke-linecap="round"/>
     <path d="m398.25 52c-0.0356-1.1959-0.36141-1.618 0.25454-4.5514" fill="none" stroke="#000"/>
     <path d="m383.27 45.416c-10.274-1.4568-16.105 2.4816-19.799 9.0156" fill="none" stroke="#000" stroke-linecap="round"/>
     <path d="m382.03 40.82c-6.0697-4.945-12.374-6.6044-18.915-4.9498" fill="none" stroke="#000" stroke-linecap="round"/>
     <path d="m381.32 35.339c-3.155-11.041-8.6905-14.587-16.087-12.905" fill="none" stroke="#000" stroke-linecap="round"/>
     <path d="m422.16 47.537c13.126 0.56248 27.538-0.01781 32.527 7.7782" fill="none" stroke="#000" stroke-linecap="round"/>
     <path d="m420.22 50.189c10.961 2.33 22.431 3.4224 30.229 13.435" fill="none" stroke="#000" stroke-linecap="round"/>
     <path d="m422.51 53.017c8.7443 8.2992 19.335 15.86 19.092 27.754" fill="none" stroke="#000" stroke-linecap="round"/>
     <path d="m382.34985,35.88276c.4155,0 .75.3345.75.75s-.3345.75-.75.75-.75-.3345-.75-.75 .3345-.75.75-.75z"/>
     <path d="m382.34985,41.88276c.4155,0 .75.3345.75.75s-.3345.75-.75.75-.75-.3345-.75-.75 .3345-.75.75-.75z"/>
     <path d="m384.34985,45.88276c.4155,0 .75.3345.75.75s-.3345.75-.75.75-.75-.3345-.75-.75 .3345-.75.75-.75z"/>
     <path d="m383.42788,38.68629c.4155,0 .75.3345.75.75s-.3345.75-.75.75-.75-.3345-.75-.75 .3345-.75.75-.75z"/>
     <path d="m384.97485,42.25776c.4155,0 .75.3345.75.75s-.3345.75-.75.75-.75-.3345-.75-.75 .3345-.75.75-.75z"/>
     <path d="m420.34985,45.88276c.4155,0 .75.3345.75.75s-.3345.75-.75.75-.75-.3345-.75-.75 .3345-.75.75-.75z"/>
     <path d="m420.34985,51.88276c.4155,0 .75.3345.75.75s-.3345.75-.75.75-.75-.3345-.75-.75 .3345-.75.75-.75z"/>
     <path d="m422.97485,48.25776c.4155,0 .75.3345.75.75s-.3345.75-.75.75-.75-.3345-.75-.75 .3345-.75.75-.75z"/>
     <path d="m423.97485,44.88276c.4155,0 .75.3345.75.75s-.3345.75-.75.75-.75-.3345-.75-.75 .3345-.75.75-.75z"/>
     <path d="m421.97485,54.88276c.4155,0 .75.3345.75.75s-.3345.75-.75.75-.75-.3345-.75-.75 .3345-.75.75-.75z"/>
    </g>
    <path d="m141.82 91.006-1.721 9.3404 4.6796-0.69204z"/>
    <path d="m135.43 89.198-7.3562 3.5681 3.4167 4.1021z"/>
    <path d="m133.69 82.698-8.4402-1.2478 0.44298 5.4658z"/>
    <path d="m147.64 87.152 2.7675 9.1074 3.2607-4.7328z"/>
    <path d="m140.89 49.305 19.799-8.1317-10.499 7.2762z"/>
    <path d="m143.89 53.868 14.212-5.8547-7.5337 5.2332z"/>
    <path d="m135.79 47.699-11.716-15.174 4.8848 10.345z"/>
    <path d="m135.37 52.038-11.101-7.6091 5.4958 5.8573z"/>
    <path d="m148.25,29.125 .625-7.625 2.5-3.875z"/>
   </g>
   <path d="m260.17 558.98c2.2454-1.5566 4.6701-2.6982 7.8332-2.8945" fill="none" stroke="#000" stroke-linecap="round"/>
   <path d="m262.11 564.28c1.9769-1.7336 3.9774-3.4374 8.0163-3.9109" fill="none" stroke="#000" stroke-linecap="round"/>
   <path d="m267.92 568.2c2.0531-1.6538 4.0932-3.4391 7.5148-4.2946" fill="none" stroke="#000" stroke-linecap="round"/>
   <path d="m381.82 566.6c-2.1334-2.477-4.4393-3.2801-6.6874-4.1498" fill="none" stroke="#000" stroke-linecap="round"/>
   <path d="m379.55 570.09c-1.4838-2.4032-4.223-3.3472-6.271-4.5091" fill="none" stroke="#000" stroke-linecap="round"/>
   <path d="m375.09 573.03c-1.3148-2.1287-3.6008-3.3784-5.961-4.5777" fill="none" stroke="#000" stroke-linecap="round"/>
  </g>
  <g transform="translate(-1124.5 1040.8)" fill="#dd8404" stroke="#000" stroke-linecap="square">
   <path d="m205.31 376.14c48.173-30.026 6.9108-83.301-13.734-26.933" stroke-width="3.149"/>
   <path d="m160.39 366.33c-46.349-17.478 6.951-76.22 20.571-19.286" stroke-width="3.149"/>
   <path d="m126.09 420.77c-67.834-11.773-5.7838-63.984 17-25" stroke-width="3.149"/>
   <path d="m144.13 394.26c-53.018-25.532-0.53597-71.437 17-25" stroke-width="3.149"/>
   <path d="m605.7 426.9c46.349-17.478-6.0581-77.113-19.679-20.179" stroke-width="3.149"/>
   <path d="m639.99 481.34c67.834-11.773 5.7838-63.984-17-25" stroke-width="3.149"/>
   <path d="m621.96 454.83c53.018-25.532 0.53597-71.437-17-25" stroke-width="3.149"/>
  </g>
  <path d="m-993.69 1469.5c-12.8-30.945 26.58-82.363 60.02-80.565 15.194 0.8171 23.995 24.125 23.188 39.319-1.0617 19.994-17.324 40.553-35.821 48.218-14.749 6.1126-41.284 7.7805-47.387-6.9728z" fill="#dd8404" stroke="#000" stroke-width="3.149"/>
  <path d="m-975 1442.7c-8.4796-17.694 0.87571-40.543 26.071-22.857 19.246-18.979 43.735 4.6912 20.714 24.643l-16.071 13.929c-24.415 21.16-52.337 6.3169-30.714-15.714z"/>
  <path d="m-548.99 1448.6c33.204-4.3546 72.677 46.992 62.285 78.827-4.7216 14.465-29.513 16.933-43.981 12.221-19.038-6.2005-34.687-27.229-37.304-47.08-2.087-15.829 3.1697-41.891 19-43.968z" fill="#dd8404" stroke="#000" stroke-width="3.149"/>
  <path d="m-528 1473.5c19.285-3.6112 38.935 11.339 15.331 31.099 13.351 23.502-15.851 41.031-29.164 13.63l-9.2944-19.129c-14.12-29.06 7.4441-52.189 23.128-25.601z"/>
 </g>
</svg>
