<?xml version="1.0" encoding="UTF-8"?>
<svg viewBox="0 0 48 48" xmlns="http://www.w3.org/2000/svg" xmlns:xlink="http://www.w3.org/1999/xlink">
 <defs>
  <linearGradient id="b">
   <stop stop-color="#fff" offset="0"/>
   <stop stop-color="#fff" stop-opacity="0" offset="1"/>
  </linearGradient>
  <linearGradient id="a">
   <stop offset="0"/>
   <stop stop-opacity="0" offset="1"/>
  </linearGradient>
  <linearGradient id="h" x1="19.794" x2="20.657" y1="42.078" y2="10.919" gradientUnits="userSpaceOnUse">
   <stop stop-color="#b6b6b6" offset="0"/>
   <stop stop-color="#f2f2f2" offset=".5"/>
   <stop stop-color="#fafafa" offset=".67613"/>
   <stop stop-color="#d8d8d8" offset=".84052"/>
   <stop stop-color="#f2f2f2" offset=".875"/>
   <stop stop-color="#dbdbdb" offset="1"/>
  </linearGradient>
  <linearGradient id="g" x1="50.153" x2="25.291" y1="-3.6324" y2="-4.3003" gradientTransform="matrix(.87827 -1.3759e-15 1.3759e-15 .87827 5.3283 1.6502)" gradientUnits="userSpaceOnUse">
   <stop stop-color="#fff" offset="0"/>
   <stop offset="1"/>
  </linearGradient>
  <linearGradient id="f" x1="36.422" x2="35.814" y1="17.535" y2="11.41" gradientUnits="userSpaceOnUse">
   <stop stop-color="#98a0a9" offset="0"/>
   <stop stop-color="#c3d0dd" offset="1"/>
  </linearGradient>
  <linearGradient id="e" x1="11.1" x2="17.393" y1="33.322" y2="39.609" gradientUnits="userSpaceOnUse">
   <stop stop-color="#3465a4" offset="0"/>
   <stop stop-color="#9fbce1" offset="0"/>
   <stop stop-color="#6b95ca" offset="0"/>
   <stop stop-color="#3d6aa5" offset=".75"/>
   <stop stop-color="#386eb4" offset="1"/>
  </linearGradient>
  <linearGradient id="j" x1="12.005" x2="10.651" y1="35.688" y2="33.195" gradientTransform="matrix(1.0072 -.026365 .026365 1.0072 1.5934 .079191)" gradientUnits="userSpaceOnUse" xlink:href="#b"/>
  <linearGradient id="i" x1="14.018" x2="15.416" y1="36.943" y2="38.268" gradientTransform="matrix(.8781 -.017324 .017324 .8781 2.1637 4.0679)" gradientUnits="userSpaceOnUse" xlink:href="#a"/>
  <linearGradient id="k" x1="31.177" x2="40.859" y1="19.822" y2="9.6568" gradientUnits="userSpaceOnUse" xlink:href="#b"/>
  <radialGradient id="c" cx="24.812" cy="39.125" r="17.688" gradientTransform="matrix(1 0 0 .37456 7.1943e-15 24.47)" gradientUnits="userSpaceOnUse" xlink:href="#a"/>
  <radialGradient id="d" cx="24.812" cy="39.125" r="17.688" gradientTransform="matrix(1 0 0 .37456 7.2728e-15 24.47)" gradientUnits="userSpaceOnUse" xlink:href="#a"/>
 </defs>
 <path transform="matrix(.75112 0 0 .5787 17.041 19.363)" d="m42.5 39.125a17.688 6.625 0 1 1 -35.375 0 17.688 6.625 0 1 1 35.375 0z" fill="url(#d)" opacity=".19886"/>
 <path transform="matrix(.83607 0 0 .68544 -7.9596 15.718)" d="m42.5 39.125a17.688 6.625 0 1 1 -35.375 0 17.688 6.625 0 1 1 35.375 0z" fill="url(#c)" opacity=".3125"/>
 <path d="m17.907 21.216 18.993 19.432c0.76849 0.87827 3.2035 1.5571 4.8305 0 1.5711-1.5036 1.2076-3.6229-0.32935-5.1598l-18.224-19.542c2.25-6.25-2.3039-11.5-8.1789-10.375l-1.2625 1.1527 3.9522 3.7326 0.21957 3.2935-2.9508 2.6936-3.5264-0.38814-3.6229-3.4033-1.2701 1.2549c-0.59076 5.6413 5.3077 10.683 11.37 7.3082z" fill="url(#h)" stroke="#888a85"/>
 <path d="m18.117 19.94 19.203 20.028c0.59491 0.67989 2.4799 1.2054 3.7394 0 1.2162-1.164 0.93485-2.8046-0.25496-3.9944l-18.492-19.621c1.5-6.5-1.8588-10.005-6.8588-9.8796l-0.27013 0.27338 3.6029 3.2363 0.13017 4.1818-3.6139 3.2985-4.2423-0.45821-3.1766-2.9915-0.35264 0.43006c-0.3125 5.9688 6.4917 8.6848 10.585 5.4973z" fill="none" opacity=".42614" stroke="#fff"/>
 <path transform="rotate(45.738)" d="m29.06922-2.61845h21.50051a.88388,.88388 0 0,1 .88388.88388v.28773a.88388,.88388 0 0,1 -.88388.88388h-21.50051a.88388,.88388 0 0,1 -.88388-.88388v-.28773a.88388,.88388 0 0,1 .88388-.88388" fill="none" opacity=".17045" stroke="url(#g)"/>
 <path d="m22.499 30.125c0.83354-0.71446 13.284-13.449 13.284-13.449l3.0739-0.21957 4.8305-6.6968-4.0243-3.5852-6.2577 5.3794v3.074l-12.735 13.229c-0.60381 0.60381 1.0602 2.9265 1.8286 2.2678z" fill="url(#f)" stroke="#878f9d"/>
 <path d="m22.402 29.085c0.64677-0.55438 13.024-13.23 13.024-13.23l2.9286-0.248 4.2139-5.6621-2.8897-2.549-5.4766 4.7175 0.15526 2.851-12.676 13.292c-0.46852 0.46852 0.12396 1.3392 0.72026 0.82811z" fill="none" opacity=".53977" stroke="url(#k)"/>
 <path d="m8.4653 43.612c1.3166 1.4652 4.9737 2.1282 6.5954-0.70991 0.70711-1.2374 2.0939-4.7028 8.2811-10.271 1.0392-0.93417 2.1399-3.0711 1.2068-4.2239l-2.4152-2.4152c-0.98805-1.0978-3.7344-0.58575-4.8612 0.95088-3.3588 4.5962-8.8461 8.2549-10.084 8.6968-2.3679 0.84568-2.1014 4.3362-0.53482 5.9965l1.8114 1.9761z" fill="url(#e)" stroke="#204a87"/>
 <path transform="matrix(.87827 0 0 .87827 2.4272 5.0775)" d="m43.25 37.5a1.375 1.375 0 1 1 -2.75 0 1.375 1.375 0 1 1 2.75 0z" fill="#fff" stroke="#a1a1a1" stroke-width="1.1386"/>
 <path transform="matrix(.57088 0 0 .57088 9.1548 11.251)" d="m20.771 28.201a1.7678 1.7678 0 1 1 -3.5355 0 1.7678 1.7678 0 1 1 3.5355 0z" fill="#fff" opacity=".60227"/>
 <path d="m18.679 29.625s-7.1699 7.2996-10.529 8.537" fill="none" stroke="url(#j)" stroke-linecap="round" stroke-linejoin="round" stroke-width="2.2945"/>
 <path d="m8.806 42.487c1.4413 1.7456 4.5995 2.1612 5.5912-0.37059 0.68131-1.7395 3.3336-5.6658 8.1976-10.043 0.81691-0.73438 1.6823-2.4143 0.94867-3.3205l-1.8987-1.8987c-0.77674-0.86305-2.9358-0.46048-3.8215 0.74752-2.6404 3.6132-8.4833 8.3396-9.8958 8.8056-2.1868 0.72161-1.777 3.2213-0.54544 4.5266l1.424 1.5535z" fill="none" opacity=".19886" stroke="#fff"/>
 <path d="m20.825 31.261s-7.3228 6.6174-8.9138 10.86" fill="none" opacity=".27841" stroke="url(#i)" stroke-linecap="round" stroke-linejoin="round" stroke-width="2.2945"/>
</svg>
