<?xml version="1.0" encoding="UTF-8"?>
<svg width="800" height="800" version="1.1" viewBox="0 0 800.00001 800.00001" xmlns="http://www.w3.org/2000/svg">
 <g transform="translate(0 -252.36)">
  <path d="m83.843 544.26c170.61-341.78 512.16-323.46 671.75 0-31.896 15.536-56.14 35.992-69.195 63.64-74.554-2.7078-106.66 27.425-139.4 57.074-85.976-37.029-170.04-52.445-247.99 1.5152-23.327-35.216-72.479-51.986-142.94-53.538-13.407-32.745-41.514-51.92-72.226-68.69z" fill="#c00" fill-rule="evenodd"/>
  <path transform="translate(0 252.36)" d="m412.22 379.05c-3.27-0.02-6.54 0.04-9.8 0.16v254.02c0.13 0 0.26-0.02 0.39-0.02h24.09c0.13 0 0.26 0.02 0.39 0.02v-253.56c-5.03-0.37-10.06-0.58-15.07-0.62z" color="#000000" color-rendering="auto" image-rendering="auto" shape-rendering="auto" solid-color="#000000" style="isolation:auto;mix-blend-mode:normal"/>
  <rect x="392.36" y="885.58" width="45" height="25" rx="10.456" color="#000000" color-rendering="auto" image-rendering="auto" shape-rendering="auto" solid-color="#000000" style="isolation:auto;mix-blend-mode:normal"/>
  <path transform="translate(0 252.36)" d="m323.46 641.65c-5.69 0.08-11.61 5.06-12.84 16.42-2.27 44.61 5.82 80.93 50.67 87.77 15.06 0.6 29.25-1.03 40.29-10.79 26.15-26.08 24.69-39.77 24.65-76.84h-23.42c-0.13 0-0.27-0.01-0.41-0.02-0.75 86.28-69.48 72.92-67.66-0.12 1.32-10.31-4.84-16.51-11.28-16.42z" fill-rule="evenodd"/>
  <path transform="translate(0 252.36)" d="m411.91 42.457c-1.09 0.025-2.18 0.072-3.27 0.109-115.01 44.634-210.77 135.33-250.66 318.07 69.02 1.8 117.32 18.4 140.6 52.87 2.4-191.69 42.97-310.15 113.33-371.05z" fill-opacity=".15868" fill-rule="evenodd"/>
  <path transform="translate(0 252.36)" d="m417.91 42.379c-2.01 5e-3 -4.01 0.044-6.02 0.094-68.91 59.667-109.23 174.57-113.11 359.41 0.02 4 0.04 8.01 0.1 12.06 0.04 0.06 0.09 0.12 0.13 0.18 77.94-53.96 162.01-38.54 247.99-1.51 0.16-0.15 0.32-0.29 0.48-0.44-29.72-119.06-5.98-221.41-129.54-369.79-0.01-1e-3 -0.02-1e-3 -0.03-1e-3z" fill-opacity=".23653" fill-rule="evenodd"/>
  <path transform="translate(0 252.36)" d="m410.92 15.238c-4.71 0-8.5 3.791-8.5 8.5v15.955c0 1.105 0.22 2.155 0.6 3.121 7.93-0.428 15.86-0.529 23.79-0.304 0.31-0.882 0.48-1.827 0.48-2.817v-15.955c0-4.709-3.79-8.5-8.5-8.5h-7.87z" color="#000000" color-rendering="auto" image-rendering="auto" shape-rendering="auto" solid-color="#000000" style="isolation:auto;mix-blend-mode:normal"/>
  <path transform="translate(0 252.36)" d="m426.27 42.494c169.88 76.246 216.23 193.28 261.25 310.74 13.3-26.48 37.07-46.24 68.07-61.34-79.28-160.7-203.49-246.07-329.32-249.4z" fill-opacity=".39216" fill-rule="evenodd"/>
  <path transform="translate(0 252.36)" d="m417.91 42.379c-0.42 1e-3 -0.85 0.013-1.28 0.016 0.01 1e-3 0 2e-3 0 3e-3 0.43-3e-3 0.86-0.018 1.28-0.019zm0.03 0c123.56 148.38 99.82 250.73 129.54 369.79 32.57-29.51 64.73-59.33 138.92-56.64 0.36-0.77 0.74-1.54 1.12-2.3-45.02-117.46-91.35-234.49-261.23-310.74-2.78-0.07-5.56-0.118-8.35-0.111z" fill-opacity=".31437" fill-rule="evenodd"/>
 </g>
</svg>
