<?xml version="1.0" encoding="UTF-8"?>
<svg viewBox="0 0 640 480" xmlns="http://www.w3.org/2000/svg">
 <g fill="#75b7f9">
  <path d="m502.12 385.31c-16.604 4.4525-34.322 5.8841-50.447 11.391 27.312-23.45 25.753-59.734 43.974-87.353 5.8046-7.8199 10.602-16.016 17.369-23.437-11.084 22.265-6.277 51.151-19.01 72.757-4.9017 8.5824-11.912 16.909-19.664 23.65 2.5328-0.09494 4.7497-2.2906 6.9769-3.757 20.682-20.667 47.702-26.446 70.075-43.238 8.9618-7.1508 17.17-16.521 21.11-26.656-4.2335 34.289-38.299 66.428-70.383 76.644z"/>
  <path d="m576.63 246.48c-10.119 14.419-22.36 27.842-31.709 42.496 1.043-11.602 2.4154-25.869-2.0979-36.86-7.8212-23.668-14.693-47.698-16.91-73.673l0.3056-9.9327c5.8857 26.526 31.908 44.761 30.266 74.516 0.59595 7.2111-1.6313 13.342-2.9798 19.683l0.447 0.4687 1.1724-1.3156c3.8588-14.595 5.8061-29.943 11.806-43.56 8.5271-19.596 19.175-39.372 14.836-63.032 12.97 27.895 9.0402 65.165-5.1364 91.21z"/>
  <path d="m560.66 96.196c17.063 23.156 20.803 60.057 8.3751 86.618-4.6323 11.256-7.904 23.25-9.7234 35.709-0.86841-2.149-1.067-5.0379-1.842-7.4326-6.7874-25.999-31.342-44.528-41.44-69.04-3.2025-8.0158-5.9326-16.298-7.4465-25 10.79 19.984 37.383 30.307 44.631 52.33 2.9692 5.5699 2.8022 12.529 4.6443 18.518 0.38678 0 0.77356-0.28784 0.77356-0.68117-3.1905-22.686-2.2169-46.43 0.85785-68.835-0.17761-12.136-1.3605-23.908-8.0936-33.302 4.3177 2.519 6.262 7.3572 9.2644 11.115z"/>
  <path d="m548.63 91.751c4.4817 20.291-2.0648 40.053 2.0527 60.539l-0.1535 0.1763c-11.024-21.707-34.427-31.952-50.53-49.325-9.3322-10.309-13.39-22.874-15.724-36.178 9.2268 22.275 34.125 27.183 48.419 45.954 4.7826 4.3274 6.3433 10.322 9.4269 15.23l0.5042-0.4875c-8.22-17.572-10.974-37.347-16.71-56.087-2.8715-8.1205-8.5706-16.099-16.217-21.22 18.764 3.8399 35.026 23.456 38.932 41.398z"/>
  <path d="m498.46 45.216c14.131 12.665 20.523 29.063 24.65 46.054l2.3341 5.3959c-20.511-14.772-39.144-34.629-52.241-55.6l-15.996-16.205c14.062 5.9708 29.223 9.5348 41.254 20.355z"/>
  <path d="m174.52 27.55c-14.178 12.446-24.011 28.187-34.53 42.865-9.4285 11.69-21.489 19.398-32.177 29.451 5.77-11.978 5.9806-26.285 14.165-37.288 11.645-20.345 33.24-27.502 52.542-35.028z"/>
  <path d="m96.984 70.891c6.8957-8.5839 15.638-14.549 25.476-17.068-19.102 13.14-17.859 36.689-23.915 56.265-1.9308 7.2389-5.2839 13.908-6.9544 21.329l0.4861 0.3873c3.1784-8.3888 8.7648-16.315 15.737-23.16 13.567-12.541 33.637-20.357 40.286-38.91-0.304 25.78-21.781 46.048-42.331 60.537-8.4744 7.4446-16.646 15.929-21.313 25.499-0.4575-6.5043 0.96015-13.035 0.49814-20.002-2.2348-22.505-3.8587-48.192 12.03-64.878z"/>
  <path d="m58.334 147.85c-0.57489-22.806 8.8777-41.422 22.198-58.414 0.38678-0.19365 0.66219-0.58095 1.1603-0.48751-14.663 22.312-2.5328 50.416-3.201 75.786l-1.9339 25.975c0.28744 0.18837 0.28744 0.96901 0.96767 0.66911 0.86686-2.895 1.055-5.9889 1.6344-8.9667 3.4539-20.952 21.625-35.819 37.496-50.298 3.3891-3.7871 6.3855-7.6323 8.1267-12.076-1.2958 10.432-4.5615 20.954-8.8837 30.602-12.353 24.123-35.172 43.916-39.341 71.533-2.0226-26.466-20.017-46.253-18.223-74.323z"/>
  <path d="m47.241 180.28c1.6419-7.1327 2.897-14.514 5.9972-21.059-5.8738 30.149 14.377 51.873 21.02 78.006 2.7796 9.7745 3.4599 20.272 7.4344 29.444 0.37021 0.20044 0.69227-0.18686 0.92103-0.48071-9.8905-27.761 4.3869-53.558 18.734-75.293 3.4885-5.8894 5.4991-12.448 7.2343-19.217 1.5245 12.564-1.6479 27.033-3.4704 40.077-3.4885 16.598-8.6956 32.339-13.228 48.444-2.9828 10.064-2.1987 21.418-0.66669 31.962l-1.4372-1.1498c-10.518-19.422-31.345-34.571-37.53-55.79-5.0897-16.916-8.4728-36.512-5.007-54.944z"/>
  <path d="m46.292 239.16c2.3161 31.956 36.633 48.842 52.541 75.298 3.7639 5.4132 7.0296 11.402 12.059 15.934-0.78558-3.4044-3.958-6.2692-5.1228-9.7564-5.5653-11.096-7.594-24.319-6.2561-37.73 1.5411-16.322 8.378-31.469 5.7685-48.637 13.978 30.179 9.7325 67.849 17.548 100.55 2.0467 7.1523 6.1808 13.539 8.8897 20.375-28.719-19.587-67.879-38.222-80.62-74.119-5.3696-12.377-5.9686-27.7-4.8068-41.914z"/>
  <path d="m63.447 312.55c16.013 36.274 56.116 39.279 83.005 61.367 4.9483 4.3914 10.133 8.1258 15.719 10.731l0.2874-0.2924c-6.1733-5.5895-13.314-11.955-17.636-19.199-15.737-21.912-10.202-52.607-21.993-76.173 10.714 12.834 20.457 26.174 26.925 40.733 9.6211 23.767 13.298 50.611 35.56 68.577-24.093-7.951-52.318-5.7296-73.583-20.585-23.218-14.29-43.94-38.527-48.285-65.159z"/>
  <path d="m104.6 380.22c25.674 29.24 67.626 19.483 101.83 27.136 4.8309 0.66006 9.2524 2.5981 14.372 1.8114-4.0769-2.583-9.734-2.3027-14.184-4.6506-26.808-9.4308-30.74-38.493-45.293-58.09 18.592 12.364 34.222 29.038 51.374 45.196 12.328 10.814 27.169 15.806 42.805 18.988-3.7579 1.3744-8.6836 0.99762-12.717 2.0555-28.091 6.9172-59.301 18.223-89.091 8.1017-19.367-6.1064-39.348-21.442-49.093-40.548z"/>
  <path d="m453.07 448.37c-28.931 10.811-59.125-0.49426-81.722-17.653-9.1485-5.8231-17.214-14.208-29.047-13.467-4.2921-0.08136-8.4307 0.12961-12.079 1.1845 21.953 10.23 42.345 24.332 60.99 42.368-3.1424 3.5927-7.2118 6.9534-11.045 10.052-17.968-19.386-37.866-38.046-60.145-48.945-4.3628 0.56662-8.5134 3.1949-12.447 5.3107-18.138 11.483-36.072 26.255-49.556 44.339l-11.587-9.5816c18.493-18.732 38.948-33.314 61.325-43.73-21.989-6.9744-36.342 11.471-53.033 20.854-19.45 13.599-47.422 19.986-70.928 10.603-12.642-4.8013-24.889-11.872-34.042-23.365 18.499 12.761 46.05 14.1 67.088 5.811 28.23-12.261 57.564-27.804 91.596-20.372 5.3109 0.093445 10.471 5.3891 15.489 0.8801 25.294-6.5766 53.93-2.0555 75.706 9.5213l22.445 9.0089c20.862 7.7249 47.833 5.588 65.715-7.1402-9.1937 11.459-21.752 19.67-34.722 24.32z"/>
  <path d="m484.07 418.44c-32.483 12.282-65.161-2.794-96.285-7.8304l-5.9927-0.7626v-0.18988c14.882-3.3817 29.328-7.8184 41.174-18.527 17.447-16.793 32.972-34.079 52.346-47.312-14.368 18.447-15.891 44.705-39.625 56.565-5.8738 3.8489-13.287 4.5301-19.349 7.4446 8.6444 0.18686 16.559-2.9146 25.119-3.7826 31.826-5.0033 68.236 0.12961 90.563-27.02-8.2892 18.918-29.048 34.76-47.951 41.415z"/>
  <path d="m543.09 326.92c-12.828 8.4076-25.831 16.205-38.158 25.764v-1.174c18.881-31.423 9.6512-74.589 21.284-109.17l4.3387-11.584c-2.4274 21.543 6.9168 39.791 6.2606 61.408-0.65619 13.058-4.9122 24.637-11.76 35.064h1.1603c9.2508-12.166 16.474-25.105 27.286-36.694 16.782-16.205 33.843-32.821 36.046-55.309 5.6992 37.541-15.337 70.444-46.459 91.697z"/>
  <g fill-rule="evenodd">
   <polygon points="315.23 245.1 321.05 245.1 321.05 391.43 315.23 391.43"/>
   <polygon points="283.63 230.73 287.75 234.86 184.34 338.25 180.23 334.12"/>
   <polygon points="273.75 200.25 273.74 206.08 127.61 205.9 127.62 200.07"/>
   <polygon points="287.62 172.03 283.51 176.15 180.19 72.663 184.31 68.543"/>
   <polygon points="320.99 160.01 315.17 160.01 315.3 13.675 321.12 13.681"/>
   <polygon points="350.23 173.97 346.12 169.84 449.59 66.511 453.7 70.637"/>
   <polygon points="361.52 206.54 361.51 200.71 507.64 200.52 507.65 206.35"/>
   <polygon points="344.64 236.32 348.76 232.19 452.17 335.58 448.06 339.7"/>
   <path d="m372.64 56.731c80.484 30.126 121.39 119.98 91.302 200.57-30.085 80.59-119.82 121.55-200.3 91.424-80.483-30.124-121.38-119.98-91.301-200.57 30.086-80.592 119.82-121.55 200.3-91.425zm-2.3552 6.3189c76.996 28.822 116.13 114.79 87.348 191.89-28.781 77.105-114.64 116.29-191.63 87.467-76.996-28.818-116.13-114.79-87.347-191.89 28.782-77.102 114.63-116.29 191.63-87.468z"/>
   <path d="m360.15 90.183c62.044 23.223 93.57 92.49 70.383 154.62-23.193 62.126-92.369 93.698-154.41 70.477-62.038-23.222-93.57-92.492-70.38-154.62 23.19-62.125 92.365-93.698 154.4-70.476zm-2.3673 6.3551c58.533 21.91 88.286 87.27 66.406 145.89-21.88 58.619-87.155 88.41-145.69 66.497-58.539-21.91-88.292-87.271-66.409-145.89s87.151-88.41 145.69-66.497z"/>
   <path d="m348.04 122.63c44.159 16.528 66.599 65.828 50.096 110.04-16.511 44.215-65.742 66.689-109.89 50.159-44.157-16.529-66.598-65.828-50.091-110.04 16.506-44.215 65.738-66.687 109.89-50.16zm-2.1693 5.8156c40.951 15.328 61.764 61.049 46.456 102.06-15.31 41.006-60.965 61.845-101.92 46.516-40.95-15.326-61.76-61.048-46.455-102.06 15.308-41.004 60.964-61.845 101.91-46.517z"/>
   <path d="m334.42 159.13c24.038 8.9976 36.255 35.834 27.269 59.905-8.9861 24.068-35.783 36.302-59.822 27.303-24.038-8.9961-36.253-35.832-27.269-59.904 8.9868-24.069 35.789-36.302 59.822-27.305zm-2.3499 6.291c20.574 7.6993 31.024 30.665 23.339 51.263-7.6925 20.597-30.623 31.064-51.191 23.365-20.572-7.6993-31.024-30.664-23.339-51.262 7.6918-20.598 30.628-31.066 51.191-23.365z"/>
   <path d="m408.93 33.619c94.136 51.875 129.87 169.74 79.749 263.08-50.112 93.35-167.19 127.01-261.32 75.136-94.134-51.874-129.87-169.74-79.748-263.09 50.115-93.349 167.19-127.01 261.32-75.134zm-3.2943 6.1418c90.718 49.99 125.15 163.57 76.85 253.53-48.292 89.957-161.12 122.4-251.83 72.406-90.72-49.994-125.15-163.58-76.853-253.53 48.292-89.959 161.12-122.4 251.84-72.404z"/>
  </g>
  <path d="m431.77 293.17c0.10989 1.0014-0.23328 3.4661 0.23328 4.032 0.48306 0.76782 2.286 0.60431 3.0671 0.33304 2.134-0.80322 4.2575-3.6266 5.2432-5.7432 0.69379-1.0745 1.1603-2.3328 1.0083-3.7404l-1.4929-4.5285c-0.37317-1.5884-0.87436-4.3801-2.5659-5.0395 0.15796-0.42047 0.69376-1.0775 0.63052-1.6796-0.3913-1.7896-3.377-1.3194-4.4441-0.00528-0.53726 0.65704-0.38525 2.0608-0.50113 2.8814-0.030121 1.6268-0.48459 4.9114-1.1317 6.389-0.64712 1.4746-2.4606 3.4631-2.4847 5.0892 0.12799 1.2026 1.4177 1.8981 2.438 2.0119zm-99.368-12.564l0.5305 1.1679c0.023346 0.2012 0.2626 0.58398 0.46652 0.56665 1.3529 1.2991 3.2484-1.7112 0.98581-2.1143-0.20398 0.017334-0.62381-0.1492-0.80444 0.070068-0.39658 0.037689-0.79913 0.07309-1.1784 0.30969zm1.4989-2.9726c-0.91577 0.89069-1.2484 1.5304 0.23932 2.207l-0.2393-2.207zm-24.132-17.7c-1.4696 1.3457-1.3582 0.5282-2.1107 1.0014-0.55988 0.45209-0.093323 1.0187-0.60651 1.877-0.15802 0.42044-0.74045 0.67514-0.69379 1.0775-0.13464 0.61938 0.5072 0.96674 1.131 1.1129 0.82245 0.12808 3.2251-0.085144 3.9768-0.55762 0.74118-0.67511 0.44922-1.4603 0.7879-2.1 0.1806-0.21854 0.53647-0.65631 0.71707-0.87561 0.08725-1.0217-2.0648-2.2484-3.2018-1.5356zm57.944-6.2195l0.2153 2.0059-0.2333 1.6441c2.1807-0.40012 3.5231-1.1272 5.4584-1.9101 0.57791-0.25394 1.7322-0.76482 2.1807-0.39935 0.64264 0.35034 0.30402 0.98633 0.146 1.4068-0.31454 0.83792-1.5621 2.3713-2.0994 3.0284-1.6269 1.7662-4.0287 1.9825-6.0589 3.7871-1.0911 1.1122-1.3816 2.1512-2.4787 3.2642-1.0896 1.1091-1.8721 1.3842-2.432 1.8393-0.53574 0.65704-0.087311 1.0217-1.2235 1.7316l0.6472-1.4746c-0.6185-0.14917-1.4237-0.07608-1.8902-0.64499-0.26184-0.58096-0.32657-1.186-0.19263-1.8046 0.27539-1.241 0.52524-4.5082 1.2431-5.3846 0.1806-0.21854 1.7382-0.76483 2.3146-1.0188l-0.2679 1.241c0.60046-0.052704 1.5983-0.14316 1.976-0.37973 0.98123-0.29163 1.9654-2.409 2.4786-3.2642l-2.7164 1.0542c0.47253-1.2583 1.8134-3.8105 2.9331-4.7215zm-53.716 6.0409c-0.40778 1.8634 0.72916 1.1506 1.4169 1.9011 0.44321 0.36472 0.5079 0.96674 0.57187 1.571l-1.5802 0.3444-0.6945 1.0745-0.8925 1.0948 2.7119 0.7708c-1.3583 0.52594-2.1807 0.3971-3.0498 1.6939l3.3997-0.3067c2.2221 0.003021 3.8903 0.46115 5.9837-0.74219l-0.4432-0.3647 0.6065-1.88-1.5102-0.8763-0.5313-1.1679-2.5426-3.0163-0.845-0.33c0.7171-0.87555 2.1633-2.4263 0.098633-2.8467l-1.0204-0.1107 0.8924-1.0949c-1.225-0.090393-2.2453-0.20194-3.1611 0.69174-1.073 1.3111-1.1024 2.9349 0.58917 3.5942zm-1.1836-26.045l-0.0467 1.4219-0.4666-0.5659 0.058 2.4263c0.35586 1.3895 1.9128 0.84392 2.2687 0.40538 0.37924-0.23584 0.4899-1.0594 0.44922-1.4595-0.040649-0.40012-0.28592-0.78514-0.50714-0.96675-0.42593-0.16652-0.62457-0.14844-1.0264-0.11378l-0.1287-1.2026-0.6004 0.055zm-164.95 12.792c-0.07901 3.0479 0.72238 2.9748 1.4019 5.5503 0.3529 1.3872-0.20392 1.8423 0.89845 4.5813 0.5305 1.1709 0.85707 2.3562 2.1227 2.8497-0.3642-3.4134-0.78182-5.4019-1.9248-8.5432-0.81642-1.9538-1.4402-2.0993-2.0994-4.4766l-0.3988 0.0384zm276.52-33.359c-0.95569 0.49052-1.2943 1.1295-1.1844 2.1309-0.093323 1.0248 0.79306 1.7549 1.7728 1.4633 1.359-0.52594 1.5922-3.9943-0.58841-3.5942zm-189.21-0.4385c-0.49286 1.0602-0.58623 2.0819 0.5011 2.7948-0.10754-1.0014 0.18361-2.0443-0.5011-2.7948zm59.116 0.9758l0.6674 0.5486c1.4696-1.3488 1.7849-2.1897 2.8579-3.5008 0.89166-1.0948 1.4929-1.1476 2.0498-1.6027 0.3551-0.43855 0.31149-0.84091 0.4454-1.4603 0.31534-0.84091 0.89545-1.0948 0.74646-2.4994 0.070709-1.2229-0.7254-2.9756-2.1047-2.6493l-0.3092-0.9856c-0.60052 0.053497-1.5802 0.34434-2.1371 0.79871-0.55676 0.45664-0.27164 1.2418-1.006 1.9162-0.89246 1.0926-2.4493 1.6381-2.8285 1.8747-0.58017 0.25694-0.31458 0.84091-1.2536 1.5334-1.3123 0.92833-2.1784 0.39711-2.9573 0.67139-0.97971 0.28934-2.4312 1.8393-3.1664 2.5137-1.0731 1.3111-1.3846 2.152-1.8338 3.6123-0.15729 0.41746-0.49289 1.0564-0.25061 1.4422 0.24158 0.38278 0.84283 0.32703 1.2243 0.090424 0.77881-0.27126 2.493-1.235 3.1175-1.0888 0.59741-0.055771 0.84204 0.32927 1.2649 0.49353 0.62152 0.14545 1.0212 0.11078 1.4432 0.27429 0.41992 0.16652 0.88641 0.73239 1.3296 1.0978 1.0648 0.51088 2.1378-0.8002 2.4523-1.6381 0.15729-0.42047 0.31235-0.84091 0.24835-1.4422zm1.1633-15.513l0.0234 0.2012-0.225-0.1824 0.2017-0.0188zm1.7728 1.4626c0.53052 1.1694 2.4839 2.412 3.5924 3.3275 0.37851-0.2366 0.55679-0.45586 0.71405-0.87482 0.49289-1.0587 0.27692-3.0675-0.79007-3.5799-0.64111-0.34735-1.4229-0.073822-2.0001 0.1801-0.023346-0.20042-0.28595-0.78441-0.50714-0.96825-1.575-1.4799-3.5456 2.7518-1.0091 1.9154zm-8.3712-2.693c1.35 1.2975 1.3732 1.4972 3.1755 1.3352-0.27472 1.241-1.8782 3.2107-3.1906 2.3155-0.86307-0.5312-0.95038-1.3344-1.3702-1.4995-0.64407-0.34737-0.69382 1.076-1.0497 1.513-0.85175 1.4957-2.274 1.4219-2.4139 3.867l0.7577-0.4762c0.76981 1.5537 2.1987-0.19516 3.1582-0.68721-0.17831 0.21927-0.5365 0.65857-0.69153 1.076-0.13995 0.62164 0.52826 1.171 1.1084 0.914 0.57715-0.25468 1.2709-1.3314 1.8255-1.7873 0.55988-0.45361 0.75772-0.4717 1.3379-0.72864 0.55679-0.45361 1.292-1.128 1.8518-1.5839 1.6735-1.3661 1.7578-0.56363 2.344-2.6441-0.046631-0.40086 0.13391-0.62013 0.090271-1.0217-0.79614-1.7534-3.6646-0.27879-3.8896-0.45966l-1.2453-0.2954c-0.41995-0.16501-1.201 0.1085-1.7985 0.16277zm9.2487-0.425l-1 0.0889 0.2656 0.584c1.1807-0.30818 1.9798-0.38127 2.0295-1.8046-1.0008 0.090424-1.2018 0.10774-1.295 1.1318zm-63.043 3.8376l-0.9278 4.5451 0.4146 1.9885 0.8337 3.9793c0.5132-0.85524 1.4343-3.5739 1.5275-4.5956l0.228-1.6441c0.069977-1.2214 0.2272-1.6404-0.30324-2.8098l-1.295 1.1295-0.079-2.6275-0.3988 0.0347zm65.116-5.2421c-0.1279-1.2049 0.093292-1.021 1.1136-0.91098l-0.0143-2.0262c-0.58014 0.25468-1.3793 0.32777-1.9392 0.78214-0.8924 1.0933-0.78104 2.0993 0.83978 2.155zm-5.9483-2.7081l0.6855 0.749c1.3793-0.32701 1.8225 0.037674 3.0671 0.33231l-0.4868-0.7678 0.5132-0.8567c1.2017-0.10625 1.295-1.1303 0.78784-2.0978-0.22198-0.18309-0.64487-0.34737-0.86606-0.53122-2.1551-1.2237-2.359 0.61862-2.8722 1.4754l-0.8285 1.6969zm5.1816-0.6691c0.39948-0.036179 0.80206-0.071579 1.1806-0.30742 0.73514-0.67516 0.32129-2.6659-0.3266-3.0125-0.62076-0.14693-0.95563 0.49054-0.91196 0.89215l-0.137 0.6224 0.1076 1.0029 0.0873 0.8025zm-64.338 4.9701c0.71416-0.87483 0.96243-2.317 1.0557-3.3395-1.3356 0.73015-1.207 1.9335-1.0557 3.3395zm7.0913-13.004c0.19264 1.8077-0.034561 3.4496-0.66443 5.1276-0.80514 1.8981-2.7473 4.5052-3.1551 6.3648l-0.4636-0.5666c-0.87212 1.2953-0.97145 4.1435-0.41687 5.5119 1.0903-1.1114 1.3409-2.5536 2.0114-3.8301 1.3213-2.7533 3.0852-5.1412 3.7617-8.2441 0.11658-0.82132 0.27988-3.0668-0.20995-3.8331-0.24234-0.38429-0.44325-0.36545-0.86313-0.53047zm182.25 5.3175c1.0504-1.5145 1.3303-4.5783 1.7322-6.4417 0.95114-4.3417 2.9572-6.346 2.3733-11.768-0.12787-1.2041-0.58838-3.5957-2.0287-3.873-2.2453-0.2027-1.3244 2.7548-1.4583 3.3749 0.064728 0.60356-0.093262 1.0225-0.25131 1.443-0.98425 2.1151-0.52371 4.5067-0.4891 6.7333l-0.4259 7.3369 0.5479 3.1949zm-32.412-34.594c0.040619 0.40086 0.26184 0.58472 0.5072 0.9675 0.22116 0.18385 0.44391 0.36621 0.66519 0.5493 1.2882 0.69473 1.9594-0.58095 1.4688-1.3495-0.23776-0.38354-1.0609-0.51239-1.4628-0.47546-0.39728 0.036179-0.79913 0.071579-1.1784 0.30818zm29.939-3.5015c0.19263 1.8077 0.91653 4.7848 1.6915 6.3362l1.7669 3.2876 2.0873 6.3c1.073-1.3126 0.50262-2.8836 0.15201-4.2709-0.90298-2.7571-2.2048-5.4787-3.2883-8.0158-0.7525-1.3518-1.3003-2.7232-2.4094-3.6372zm-11.063-3.2627l-0.1625 2.2439-2.7361-0.9713c-0.045135 1.4256 0.58994 3.598 1.7217 4.7117l2.1972 1.6276c1.7728 1.4633 3.5697 3.127 5.162 4.8074 1.3996 1.6999 1.4629 2.3027 1.9474 3.069 0.44388 0.3647 0.88635 0.73166 1.4643 0.47623 0.37924-0.2366 0.47256-1.2584 0.62912-1.6788l0.6712-1.2764c0.29193-1.0391-0.47861-2.5913-0.98575-3.5603l-1.3243-2.9213c-0.55386-1.3699-0.88638-2.5566-1.8135-3.6892-1.5742-1.4806-2.7751-1.3729-4.438-1.8325l-2.3327-1.0059zm-55.682 2.7721c-0.11737 0.82208-0.18662 2.0458-1.1663 2.3359-0.19864 0.018082-1.0204-0.11076-1.2431-0.29462l-0.763 2.2997c-0.33853 0.63747-0.96835 2.3163-0.89844 2.9198-0.093262 1.0202 1.3063 0.89441 2.0182 0.02034 0.74042-0.67438 0.83374-1.6969 1.3469-2.5536 0.82773-1.6961 2.3613-2.4436 2.5479-4.4864l-1.8421-0.2411zm62.032-7.6013c0.59592 1.7722 1.0143 1.9373 1.9895 3.4714 0.50711 0.96826 0.37317 1.5884 1.55 1.2802-0.70428-0.95018-2.6697-4.2204-3.5396-4.7516zm-83.925 10.784c-2.2453-0.20268-0.76376 2.2997-1.0557 3.3388-0.48981 1.0587-2.7404 2.6802-3.8308 1.9666-0.57785 0.25545-1.1783 0.30971-1.8021 0.162-0.61859-0.14768-1.0617-0.51238-1.6622-0.45812l-3.1898 2.314c-0.55984 0.45511-1.3123 0.92831-2.1167 0.99991-0.59522 0.054245-1.3996 0.12508-1.7555 0.56512-0.55984 0.45361-0.029327 1.623 0.23929 2.207l0.9504 1.3345c-1.9594 0.58095-1.8082 1.9855-1.6155 3.7946 0.11056 1.0029 0.49582 4.6175 0.78177 5.4026 0.3085 0.98709 1.6208 1.8822 2.6593 2.1927 0.6471 0.34961 1.6675 0.45888 2.268 0.40613l0.1399-2.4466 0.6013-0.0528 0.6178 1.9727c0.19867-0.019592 0.60043-0.054245 0.79913-0.07309l2.49 0.5885c0.22189 0.18236 0.22189 0.18236 0.44318 0.3647 0.26257 0.58397-0.22723 1.6426-0.16333 2.2454 0.34994 1.3864 1.7962 1.663 2.9979 1.5545-0.029388 1.6238 0.12787 1.2049 0.034637 2.2266 0.11056 1.0044-0.48993 1.0587 0.74637 3.1768 0.24533 0.38278 0.75247 1.3518 1.353 1.2975 0.60043-0.053497 1.8488-1.5854 3.1845-2.3132 0.30847 0.98482 0.33179 1.1868 1.1949 1.718l-0.2912 1.0391 2.2739-1.4204c-0.67648 3.1014-1.9647 2.406-3.3703 4.3568-0.49582 1.0594-0.18662 2.045-0.47855 3.0848l0.222 0.1823 0.7578-0.4732 0.5779-0.2539c1.7781-0.36395 0.39654 1.7881 0.43716 2.1897 0.064026 0.60355 0.48993 0.76631 0.90979 0.93283l-0.9391 0.691 0.5538 1.3706-3.6036 0.324c-1.7788 0.36244-3.2545 1.7112-4.7474 2.8588l0.0467 0.4016 0.6185 0.1469-3.4524 1.7301c1.0437 0.30969 2.4026-0.21626 3.4057-0.30667 0.97974-0.29161 0.79913-0.070084 1.9827-0.38203l0.6411 0.3504-0.1166 0.8206 4.3974 1.4279c1.0437 0.31195 1.8022-0.16126 2.4494 0.18687 0.86304 0.53122 0.57108 1.5703 2.0174 1.8446 1.6622 0.45889 2.9805-0.46942 4.3568-0.79645l-1.6276 1.7692 0.7525 1.3518 1.9594-0.5809c-1.4522 1.5477-1.3823 0.32701-4.1815 0.57794 0.64185 0.34737 2.5486 1.1883 2.9746 1.3548 1.0436 0.3127 1.5975-0.14618 3.067 0.33304 1.2423 0.29161 2.7525 1.171 3.1551-0.69246 0.24457 0.38579 0.48993 0.76857 0.71109 0.95242 0.64264 0.34737 1.0445 0.31195 1.6691 0.45813 0.82169 0.12886 2.769 1.3722 2.6817 2.3946-0.18051 0.21852-0.36112 0.43779-0.53574 0.65706-0.26941-0.58698-0.53122-1.1679-0.99774-1.7346-1.1482-1.3171-2.9106-0.75351-4.3561-1.0308l-2.9106-0.7505-2.2446-0.2042c-1.219-0.093414-1.9076-0.84091-3.1085-0.73315-0.40256 0.035431-0.97968 0.28935-0.93301 0.69173 0.040588 0.40012 0.4838 0.76857 0.70581 0.94942 1.2882 0.69473 0.82166 0.1281 2.7759 1.3721 1.0843 0.71281 1.4635 0.47621 2.5072 0.78816l1.067 0.5139c0.82245 0.12886 0.97971-0.29161 1.8022-0.16351 0.39658-0.034653 1.219 0.093445 1.6442 0.25996l-3.4749 1.5274-2.6653-0.3677c0.53049 1.1679 0.7525 1.3518-0.13995 2.4436l-0.4899-0.7648c-0.5365 0.65404-0.48981 1.0572-1.0264 1.7135l-0.8924 1.0926c-0.15726 0.42044-0.69379 1.0775-1.0963 1.1122-0.60049 0.055756-1.283-0.69473-1.7322-1.0594-0.8631-0.53198-1.2649-0.49657-2.2446-0.20496 0.73438 1.1506 1.1136 0.914 2.1746 1.4249 0.86908 0.53122 3.0851 2.3592 3.7736 3.1097-0.20462 0.017319-0.40256 0.0354-0.55981 0.45586-0.3559 0.43779 0.034607 2.2274 0.50113 2.791 0.44324 0.36771 0.86911 0.53122 1.4636 0.47923l-2.3845 2.2424c1.0437 0.30893 1.4228 0.07309 2.3093 0.8055l-2.0009 0.1778-2.6412-1.9908-2.7525-1.174c1.0263 0.11076 2.6472 0.16954 3.6035-0.32402 1.7149-0.96372 0.8985-2.9168-0.43115-4.0147-0.8631-0.53198-1.4643-0.47621-2.4847-0.58698-0.82245-0.12884-2.0873-0.62466-2.8925-0.55232l-2.1807 0.4001 0.14-0.6217c-0.62454-0.14616-0.84573-0.33003-1.4056 0.12584-0.66516-0.5493-0.68243-0.74747-1.5049-0.87631l0.1053 1.0014-0.9098-0.9313-0.0872 1.0217c-0.4899-0.76782-0.51321-0.96597-1.353-1.296l0.6765 2.5725-0.3326 0.639c-1.1137 0.91098-1.1024 2.9379-0.96844 4.1435 0.25659 2.409-0.27991 3.066-0.4838 4.9083-0.052734 1.4219 0.41382 1.9885 0.029297 4.0523-0.11063 0.82059-0.87509 3.1188-1.213 3.7585l-0.8924 1.0918-0.6705 1.2757c-0.33856 0.63974-0.89243 1.0948-1.2302 1.7346-0.31534 0.83791 0.12787 1.2056 0.37317 1.5884 0.33185 1.1853-0.51321 0.85521 0.88037 2.5574l-0.7118 0.8733 0.7991-0.0731c-0.44919 1.4603 0.46054 2.3947 1.8368 2.0676 0.97974-0.29237 2.0527-1.6034 2.3447-2.6456l0.4026-0.0354 2.6939 4.4208c0.46649 0.56662 0.57712 1.571 1.3996 1.6992 0.82248 0.12884 1.1318-0.70904 1.4696-1.3488 0.35593-0.43778 0.73523-0.67438 1.0904-1.1122 0.49582-1.0572-0.47781-2.5928-0.38458-3.6153 0.11063-0.81982 0.67044-1.2757 0.76376-2.2975-0.15118-1.4045-1.1956-1.7172-1.8834-2.4677-0.68854-0.74748-0.76974-1.55-0.8804-2.5544-0.23923-2.2108 0.89768-2.9198 1.1076-4.7621 0.069977-1.2237-0.61777-1.9712-0.70584-2.7767-0.063934-0.60205 0.070007-1.2207 0.67126-1.2764 1.3815-0.32701 1.5508 1.2817 1.6615 2.2839l-0.1866 2.0435c-0.11066 0.82356-0.44846 1.4603-0.33783 2.4639 0.28586 0.7859 0.75241 1.3526 1.0143 1.9365 0.46655 0.56589 0.53128 1.1709 0.97443 1.5356 0.41989 0.16348 0.64111 0.34434 1.0437 0.30969 0.41989 0.1665 0.83978 0.32927 1.2424 0.29462 0.97971-0.29237 1.988-2.2078 2.9211-2.8965 0.55978-0.45814 1.3822-0.32703 1.9827-0.38277-0.33786 0.63971-1.2302 1.7346-1.5862 2.1701-0.75772 0.47246-2.14 0.79945-2.21 2.0232-0.42584 1.6615 1.7728 1.4626 1.7262 2.8844-0.093231 1.0225-1.6441-0.25693-2.1167 1.0014-0.67044 1.2764 0.21597 2.0096 0.52448 2.996 0.064728 0.60202-0.26785 1.238-0.40784 1.8604-0.84576 1.495-1.5568 0.54553-2.6946 1.2553-0.95642 0.49353-2.0061 2.0058-2.9858 2.2982-0.77502 0.2713-1.4463-0.27802-2.0468-0.22528-0.79907 0.07312-1.4696 1.3518-2.7992 0.25394-1.3529-1.299 0.18662-2.0435-0.14597-3.2318l-0.8164-1.9538c-1.1369 0.70978-2.2506 1.6238-1.8774 3.2122 0.55383 1.3661 1.8834 2.464 1.1897 3.5384-0.55991 0.45587-1.7616 0.56363-2.6947 1.2561-1.1369 0.71207-2.3206 2.8438-2.6999 3.0833-0.55984 0.45511-1.1603 0.50784-1.7141 0.96295l-2.0121 2.0059c-0.17532 0.21924-0.17532 0.21924-0.35593 0.43851l-2.5072-0.7889 0.1513 1.4045c-1.003 0.090424-1.003 0.090424-1.8255-0.037659-0.61777-0.1492-1.8428-0.23966-2.1574 0.59827-0.33859 0.63974 1.3297 1.0979 1.7556 1.2614 2.5478 1.1913 3.0497 3.983 1.9594 5.0982-0.73511 0.67136-2.0008 0.17783-2.8225 0.049713-1.8488-0.23962-4.7586-0.99313-6.5781-1.0308-2.4034 0.21326-1.6329 1.7662-2.0993 3.0253-0.1174 0.82284-0.87518 1.296-1.0091 1.9154-0.18134 0.21854-0.15726 0.42047-0.13467 0.62164-0.022583-0.20117 0.65915 2.3735 0.63583 2.1724 0.28592 0.78516 1.6915 0.66006 2.514 0.78818 1.0377 0.30969 1.3063 0.89664 2.1686 1.4279 0.84573 0.327 1.225 0.090424 2.0061-0.18085 1.7969-0.16351 3.511 0.69775 6.1823-0.75952 0.57715-0.25394 1.137-0.70904 1.2943-1.1295 0.53647-0.65405 0.26868-1.241 1.003-1.9154 0.9158-0.89368 2.6946-1.2561 3.633-1.9478 0.73514-0.67438 0.20468-1.8423 1.5629-2.3705 0.97977-0.28937 2.0648 0.42343 3.4237-0.1055 1.1776-0.30969 2.4493-1.6381 3.6329-1.947 1.201-0.10852 1.9474 1.2433 3.6156 1.7022l6.6188 1.4302c0.20392-0.017334 0.62375 0.14917 0.84576 0.33304 1.7728 1.4603-0.7818 2.0962-1.7616 2.3886-0.78101 0.27124-0.97968 0.28857-1.7841 0.36169 0.2272 0.18158 0.24454 0.38275 0.46649 0.56662 0.8458 0.33002 2.8865 0.55234 3.627-0.12283 0.35593-0.43778 0.31528-0.84091 0.25131-1.4422 0.77506-0.27124 1.1543-0.50787 1.4696-1.3488-0.064697-0.60132-0.33255-1.1853 0.22723-1.6411 0.35599-0.43778 1.1543-0.5109 1.7608-0.56665-0.9331-1.1295-1.6908-0.65704-2.9159-0.75049-0.61774-0.14542-0.86304-0.53122-1.4869-0.67664-0.60046 0.055023-1.1543 0.51086-2 0.18082-0.62384-0.14917-1.289-0.69772-1.9067-0.8439-0.64789-0.34738-2.2921-0.60431-2.1988-1.6268 0.15729-0.42044 0.33786-0.63895 0.73444-0.67438 0.18134-0.21854 0.3793-0.2366 0.58322-0.25696l0.2859 0.7889c2.1348-0.80023 1.4402 0.27426 3.2891 0.51388 1.6622 0.45813 3.6217-0.12283 5.3125 0.53726 1.0444 0.30893 0.70578 0.94864 1.6155 1.88 1.1085 0.91702 2.6886 0.56967 4.0874 0.44382-0.17459 0.21927-0.37775 0.23962-0.35513 0.43778-0.33865 0.63974 0.10535 1.0045 0.53125 1.168 1.5034 0.8793 3.7382-0.94266 1.8255-1.7836l3.0731-1.4919c-1.4868-0.67743-2.2227-0.003021-4.1762-1.2471 1.0038-0.090424 1.2009-0.10776 1.9369-0.7829l0.1159-0.8228 3.2537-1.7112c-1.0309 1.7142 0.1294 1.2056 0.51923 2.996 1.0038-0.090424 2.2453 0.20117 3.2492 0.11377 0.78107-0.27426 2.9151-1.0745 3.4749-1.5304 0.55383-0.45511 0.69379-1.0745 1.2476-1.5296l2.3162-1.0195c0.93903-0.69168 1.6508-1.5673 2.3673-2.4436 0.3551-0.43778 0.71182-0.87555 1.3363-0.72714 0.83975 0.33005 1.055 2.3389 1.1422 3.1421 0.26794 0.58398 0.55383 1.3661 0.61859 1.9704-0.12338 2.6456-2.8986 3.0984-4.5721 4.4645-1.1136 0.91098-1.9654 2.4059-3.1258 2.9168-1.4929 1.1476-5.7685 2.748-7.7278 3.329l-4.1582 0.7791c-0.95566 0.49356-2.0693 1.4045-2.3839 2.2424-0.31604 0.84091 0.19116 1.8076-0.76453 2.2982-0.95715 0.49353-4.9392 1.0512-5.9603 0.94339-1.6442-0.25995-1.0903-0.71585-3.493-0.49957-2.1987 0.19891-4.578 0.61636-6.846 0.2102 0.35516-0.43778 1.0731-1.3141 1.2069-1.9327 0.15732-0.42047-0.063965-0.60431-0.1106-1.0045-0.018005-0.19888-0.064728-0.60126-0.28589-0.78513-0.46661-0.56662-2.0648-0.42349-2.6653-0.36847-1.3823 0.32703-1.137 0.70981-3.3358 0.90799l-7.3885 0.8673c-3.5983 0.32175-6.4735 1.7986-7.8731 1.9244-1.0031 0.090424-3.2484-0.11377-4.2922-0.42648-0.84503-0.33005-1.7314-1.0624-2.6886-0.56891-0.97974 0.29163-1.2942 1.1295-2.4486 1.6374-1.161 0.51163-3.359 0.70978-4.6774 1.6381-1.3123 0.92908-0.6268 1.6788-2.1634 2.424-0.77878 0.27429-3.4004 0.30591-4.4027 0.39636-2.222-0.002289-3.3365 0.90872-5.2748 1.6909l-2.1378 0.8002c-0.77802 0.27127-2.359 0.61639-2.6938 1.2553-0.33563 0.63672 0.15128 1.4045 0.21594 2.0088 0.063965 0.60129-0.070709 1.2207-0.20764 1.8423-1.0467 1.513-3.7436 2.7684-3.3034 4.9611 0.34992 1.3872 1.1724 1.5153 2.7233 2.794 2.0384 2.0473 3.5629 4.952 5.7587 6.5788 2.8375 1.9764 6.943 4.4464 10.453 5.1442l6.0943 0.263c3.2657 0.31271 5.7737 1.1039 9.2027 0.99616l7.5345-1.2847c1.6035-0.14316 3.9828-0.56061 5.6503-0.10248 1.6682 0.45813 1.9948 1.6464 4.9979 1.3752l4.1815-0.5779c0.97971-0.28937 1.7608-0.5636 2.8225-0.049713 2.5772 1.3902-1.7902 4.0117 0.20389 5.6588 1.1084 0.914 4.776 1.1913 6.2455 1.6668 1.0211 0.11151 4.2394 1.8484 4.9287 2.5988 0.44241 0.36468 0.48306 0.76782 0.94962 1.3344 0.46048 0.56665 1.511 0.87634 1.5742 1.4806 0.064697 0.60129-1.2295 1.7316-1.5862 2.1693-1.0956 1.1122-3.2183 3.9386-2.0226 5.6558 0.46649 0.56589 1.7322 1.0594 2.3793 1.4068l5.8376 1.7052c2.5299 0.99008 2.7466 2.9989 4.2801 4.0764 1.085 0.71509 2.8865 0.55158 4.3102 0.62766l6.0183 1.4859c2.0934 0.6254 1.2191 1.9184 2.8624 2.1754 3.4704 0.2984 8.7964-2.8174 11.624-4.6921l5.7444-2.9492c2.298-1.2199 4.3673-2.6244 6.4382-4.026 3.9249-2.9869 7.1379-6.9262 9.0854-11.358 0.67114-1.2757 2.5719-4.2867 2.6893-5.1065 0.26782-1.241-1.0219-1.9365-0.52527-2.9929 0.64719-1.4806 3.2597-3.5392 3.8843-5.215 0.5192-0.85825 0.36713-2.2628-0.50266-2.794-0.83981-0.33005-1.3997 0.12506-3.0671-0.33307 1.2596-3.3554 3.5397-6.6022 5.4359-9.6125 0.87436-1.293 2.4365-3.6643 2.4666-5.2874 0.006012-1.825-1.6223-1.8838-2.3041-2.6313-0.66513-0.54852-0.51315-0.96899-0.93298-1.1355-0.83978-0.32703-2.1807 0.40008-3.0024 0.27124-0.60196 0.052765-1.0444-0.31195-1.4643-0.47546-0.6471-0.34735-1.4236-0.07608-2.0241-0.023346-0.90298-2.7563 0.97971-7.7905 1.9023-10.508 1.7954-5.8374 4.1988-11.732 3.3289-17.937l-0.9211-4.7825c-0.26187-0.58698-0.74646-1.3518-1.5275-1.0805-1.1783 0.30969-2.2168 3.8489-2.7059 4.9053l-2.7059 4.9083c-0.69376 1.0745-1.1437 2.5348-2.0588 3.4277-0.7359 0.67514-1.8962 1.183-2.8518 1.6736-0.31-0.9841-0.88638-0.73013-1.6674-0.45587l-3.6284 1.9478c-0.75705 0.47321-2.25 1.6208-3.2537 1.7112-0.79913 0.07309-1.2657-0.49356-2.4426-0.18689-0.79907 0.07312-2.1581 0.60132-2.7826 0.45212-0.82175-0.12811-1.7082-0.85825-2.5314-0.98636-0.61697-0.1492-1.8014 0.16049-2.3793 0.41446-2.0015 0.18082-5.1333-0.75653-7.2027-1.177 0.37924-0.23657 0.78113-0.27124 0.74042-0.67438 0.29199-1.0391-1.3063-2.7209 0.65317-3.3026 0.19864-0.017334 0.60046-0.054993 0.79913-0.072327l3.4223-0.1055 1.985-0.3798c1.0203 0.11151 1.2882 0.6955 2.6878 0.56964l4.9167-1.2523c2.006-0.18158 2.8157 1.7753 4.8925 0.37073 1.6916-1.1649 3.2838-5.1623 3.8903-7.04l1.7487-4.4148 0.6772-3.1007c0.763-2.3012 1.4568-3.3757 1.1769-5.9858l-0.4079-3.8165c-0.17459-1.6057-0.50116-2.794-2.152-1.2259-1.2762 1.3314-1.7262 2.791-3.7669 2.5694-0.54178 2.482-0.19858 5.6935-2.6713 7.1334-0.93903 0.69171-1.982 0.379-2.9557 0.67136-0.58395 0.25391-1.3424 0.73016-1.7623 0.56363-0.60049 0.052002-1.0429-0.31271-1.1077-0.914 0.11139-0.82059 1.4703-1.3488 2.0528-1.6034 1.9369-0.78215 2.9166-1.0745 4.3448-2.8234 0.86835-1.296 0.96164-2.3185 1.6554-3.393 0.71185-0.87556 1.3364-0.7294 2.0482-1.6027 0.53577-0.65706 1.5216-2.7736 2.0347-3.6296l2.4486-7.3165c1.1844-2.1347 3.1679-2.5144 3.6871-5.1977l0.3085 0.9871c2.1174-1.0014 2.0994-3.0276 1.6855-5.0161 1.201-0.1085 3.645 0.076111 4.6247-0.21324l4.5419-2.8407c1.1378-0.71281 3.0099-2.097 3.2778-3.338 0.31451-0.83791-0.98575-3.5588-1.4523-4.1255-0.23926-0.38277-0.46054-0.56664-0.88638-0.73015-1.0445-0.31195-2.42 0.015076-3.1725-1.3375-0.93304-1.1325-1.9654-5.0944-2.7345-6.6482-1.6569-4.1081-1.7667-3.2875-2.5433-4.8398-0.50717-0.9675-0.41382-1.99-0.52521-2.9944-0.28445-0.78363-0.75098-1.3503-0.79156-1.7534-0.088867-0.80249 0.47101-1.2584 1.0083-1.9139 0.84573-1.4965 0.71634-2.7006 1.6328-3.5942 0.73441-0.67439 1.3815-0.32552 1.7141-0.96448 1.231-1.7316-1.7427-3.0864-0.74042-5.0018 0.51318-0.85748 1.9654-2.406 2.9678-2.4971 0.77652-0.27126 1.4236 0.0746 2.1987-0.19666 0.75854-0.47472 0.81119-1.8981 1.1258-2.7375 0.78101-2.0978 2.006-2.0043 2.304-4.8684 0.093292-1.0225 0.13998-2.4474-0.34457-3.2137-0.93314-1.134-2.2454-0.20419-2.56 0.63521-0.69376 1.0745-0.54175 2.482-0.41388 3.6861-0.070679 1.2222-0.29794 2.8641-0.99176 3.9401-0.8458 1.4965-2.578 0.43553-3.0671-0.33078-0.23929-0.38429-0.081268-0.80324-0.12793-1.2064 0.028595-1.6246-0.43793-2.1897-0.03009-4.0508 0.11139-0.82207 0.87442-3.1202 0.6366-3.5038-0.07074-0.6028-1.9082-2.6659-2.3688-3.234-0.909-0.93134-2.5479-3.0148-4.0633-2.0669-1.3365 0.72714-1.0565 3.3388-1.3063 4.7795-0.13538 0.62013-0.4093 1.8612-1.0098 1.9154-0.37317 0.2366-1.0429-0.3127-1.4809-0.6774-1.1317-1.1152-1.8195-1.8642-2.0121-3.6718 0.61853 0.14616 2.2861 0.6058 2.402-0.21628-0.087341-0.80246-1.0369-2.1369-1.842-2.0638-0.82178-0.12884-0.93308 0.69171-2.0242-0.02034-0.88644-0.73166-2.8519-4.0019-3.785-5.1351-1.1708-1.5168-2.9211-2.7782-4.6352-3.6379-1.0384-0.31046-4.4155-1.6306-5.3532-0.93736-0.37924 0.2366-0.31601 0.83791-0.47253 1.2568-0.22122-0.18083-0.44391-0.36468-0.83975-0.32927-1.4463-0.27504-1.8722 1.3849-1.9655 2.4074 0.04071 0.40086 0.12796 1.2056-0.44998 1.4595-0.5824 0.25392-1.0264-0.11078-1.4703-0.47697-1.085-0.71281-1.1076-0.914-2.5719-1.3902 0.28586 0.78516 0.57181 1.571 1.0564 2.3374 1.1769 1.5168 1.976 1.4437 1.7894 3.4895-1.6855-0.66006-3.5923-1.501-4.7466-2.8181l1.5577-0.5455-0.0421-0.4001c-0.64114-0.34888-2.8399-1.9757-2.9272-2.7782-0.064667-0.6028 0.73447-0.67587 0.67123-1.2779 0.13995-0.62015-0.5072-0.9675-0.19269-1.8069 0.53577-0.65706 1.6961-1.1664 1.6088-1.9697-0.046661-0.40161-0.48908-0.76631-0.90894-0.93132-0.86389-0.53122-2.3974-1.6087-3.3124-0.71658-0.73441 0.67438-0.1806 2.0435-0.58838 3.9047-0.62457-0.14543-1.6916-0.65933-2.3101-0.8055-0.82172-0.12886-1.7789 0.36166-2.8459-0.1492-1.4688-0.47696-1.994-1.6464-3.2597-2.1415-2.3326-1.0059-4.2921-0.42348-6.4728-0.024872-0.9978 0.088913-2.6021 0.2336-3.5576 0.72414-0.75854 0.4747-1.0972 1.1122-1.4298 1.7504-0.89093 1.0948-2.6532 1.657-2.4771 3.2627 0.34915 1.3887 1.5742 1.4822 2.0167 1.8453l1.2776 2.5227c-1.377 0.32552-2.0241-0.020355-3.219 0.086655l-4.7414 1.0331c-2.426 0.016571-3.1785-1.3352-4.6653-2.0126-0.83975-0.33003-1.4402-0.27654-2.0874-0.6239-0.66516-0.54704-0.72916-1.1499-0.95111-1.3345-0.46655-0.56438-2.5072-0.78816-3.1077-0.73392 0.040619 0.40312 0.063934 0.6028-0.29199 1.0391-0.33786 0.63972-2.0527 1.605-2.8518 1.6765-0.37851 0.23659-1.0031 0.090424-1.423-0.074585l0.1114-0.8221c0.093231-1.0202-0.50794-0.96675-1.283-0.69473-1.1844 0.30893-1.8954 1.1838-2.8345 1.8762 0.33859-0.63821 0.65311-1.4776 1.1896-2.1332 0.73511-0.67438 1.7149-0.96674 2.6712-1.4573l3.0264-1.8935c0.75781-0.47321 1.9188-0.98408 2.4727-1.4392 1.6735-1.3668 2.0234-5.6543 1.5862-7.8455-3.0964 1.29-2.2747 1.4188-4.3681 2.6214-0.75766 0.47321-1.1602 0.51013-1.7374 0.76405-0.55456 0.45662-0.69458 1.0775-0.82852 1.6961zm21.239-7.3813l1.9715 1.4452 1.5034 2.7021c1.1558-0.50937 1.3123-0.92833 2.0949-1.2011 0.37772-0.2366 2.8684 0.35037 2.2905-1.2192-0.22122-0.18385-0.44241-0.36621-0.66364-0.54855l-0.1339 0.6201c-0.66525-0.54854-1.5516-1.2802-2.3974-1.6102-0.8458-0.32852-3.669-0.27728-4.6653-0.18837zm6.7767 1.0135c2.7992-0.25093 2.3146-1.0195 3.9189-1.1627 0.77506-0.27428 2.0167 0.021103 2.8399 0.1492l-0.1114 0.8206c1.6856 0.66006 1.5802-0.34436 2.8233-0.051254 1.2657 0.49507 2.0407 2.0488 4.128 2.6704 0.83978 0.33154 1.2657 0.49506 2.0242 0.021866 0.48303 0.76782 0.68771 0.75049 1.4868 0.6774 0.093353-1.0218 0.66977-1.2772 0.40186-1.8612-0.26184-0.58548-2.3733-1.4091-2.5539 0.63596-0.71179-0.95168-0.33258-1.1883-0.59445-1.7707-0.71185-0.95168-2.134-1.0263-3.1152-0.73541-0.41388-1.99-0.15048-1.406-2.921-2.7782-0.86841-0.53047-2.7752-1.3729-3.8015-1.4837-1.219-0.093414-1.5335 0.74599-2.4907 1.238-0.53574 0.65706-1.1603 0.50935-1.7141 0.96524-0.53726 0.65555-0.40784 1.8612-0.32062 2.6644zm42.292-8.8695l2.5313 2.8151c0.95111 1.333 1.9007 2.6674 3.0325 3.7811 0.88635 0.73164 2.152 1.2267 3.3304 0.91852 0.78107-0.27353 3.1423-2.7156 1.213-3.7592-0.64258-0.34662-1.6043 0.14467-2.1987 0.19817 0.046631-1.4234-0.040649-2.2266-0.3913-3.6146-0.040619-0.40163-0.12787-1.2041-0.91049-0.93134-0.95563 0.49204 0.1701 3.4307-1.3409 2.5529l-0.6411-0.3474-0.6651-0.5486c-0.71637 0.87408 0.12784 1.2041 0.81714 1.9531 0.88644 0.73315 1.5682 1.4822 1.7021 2.6862-2.1746-1.4279-2.3026-2.6305-3.7022-4.3296-0.90442-0.93285-1.5696-1.4822-2.7766-1.3744zm8.6835-1.9953c0.54785 1.3691 2.6939 4.4208 4.1642 4.8963-0.99774-1.7346-2.28-4.2558-4.1642-4.8963zm-148.17 14.732c0.60046-0.053513 1.4026-0.12584 1.8014-0.16202l5.2199 1.5583c1.4462 0.27577 2.8692 0.35114 3.8195 1.6841-2.6013 0.23509-2.0467-0.22154-4.1115-0.64349-1.8427-0.23961-2.4026 0.21625-3.8255 0.14015-0.82242-0.12884-1.2423-0.29311-1.8662-0.4393l-5.3591 0.8861c-1.423-0.074585-1.7322-1.0602-2.578-1.3902-0.8631-0.53122-1.6442-0.25845-2.4027 0.21625-1.3529 0.52747-2.6705 1.4558-3.9858 2.3856-2.4524 1.6381-5.2801 3.5151-7.0447 5.9037-1.2273 1.7316-0.92104 2.7187-2.1491 4.4502-1.2476 1.5311-4.1228 3.0057-6.0649 5.6144-1.4078 1.9508-1.28 3.1549-1.8134 3.812-0.35895 0.43628-2.8315 1.8762-3.4117 2.1302-0.57715 0.25392-1.1776 0.30818-1.5568 0.54628-0.55682 0.45512-0.89244 1.0933-1.2303 1.7323l-1.9827 2.2048c-0.51321 0.85674-2.5953 4.0848-2.7089 4.9068-0.049667 1.4234 2.2423 2.0292 1.0324 3.962-0.17834 0.21776-0.35593 0.43703-0.53427 0.65704-1.3146 0.92831-1.6675-0.45964-2.6878-0.57039-1.2453-0.29388-3.0964 1.2915-4.2048 0.3775-0.68776-0.74899-0.39356-1.7881-0.47783-2.5921-0.30926-0.98558-0.75247-1.351-1.0384-2.1362-0.51019-0.96976-0.1046-2.8309-1.5222-4.7305-0.72841-1.1498-1.5712-1.4799-2.2213-7.48e-4l-0.4725 1.2569c-0.79311-1.7519-0.34464-3.2122-1.7909-3.4895-1.842-0.23811-2.4049 2.0427-3.4779 3.3546-2.6773 3.2823-3.1228 2.9168-5.1732 4.5188l-2.7202 2.8806-1.6968 1.1664c-0.91277 0.8929-1.5193 2.7722-1.9888 4.0305l-1.9624 8.0836c-0.42891 1.6585-1.149 4.362-2.9068 4.9226-0.5779 0.25394-2.4026 0.21626-3.0242 0.070084-0.64412-0.34738-1.1076-0.91325-1.7292-1.0624-0.60046 0.055771-2.204 0.19818-3.6909-0.47923-0.88641-0.72938-2.0588-2.2477-2.9046-2.5747-0.84277-0.33304-1.6442-0.25995-2.4433-0.18687-1.003 0.087418-2.4026 0.21552-3.2251 0.087418-2.0874-0.62314-3.435-3.7464-4.2281-5.4998-0.28519-0.78516-0.81644-1.9546-1.4606-2.302-0.88641-0.73164-1.9564 0.58095-3.0001 0.26976-0.82246-0.12961-2.6419-1.9923-3.7059-2.5062-0.22197-0.18309-0.88942-0.73015-1.2657-0.49355-0.39957 0.034668-0.51619 0.85825-0.6712 1.2757-0.028595 1.6253 0.41762 1.99 1.3447 3.124 0.22124 0.1816 0.90974 0.93208 0.3499 1.3872-0.93306 0.69171-2.28-2.4308-3.3297-0.91701-0.15804 0.42044-0.13469 0.62088-0.31529 0.83788l-0.3996 0.0369-0.9677-3.3591-0.149-1.406-1.3469-3.1225-1.6502 1.5673-0.3943-1.7896-0.5508-1.3691c-0.30925-0.98558-1.1076-0.91399-1.8661-0.44154-1.4929 1.1491-2.5253 2.8633-3.4584 3.555-1.137 0.71132-2.0031 0.1801-2.7811 0.45287-0.95639 0.49205-1.6276 1.7677-1.9218 2.8091l-1.5396 8.2471c-1.3326 6.4056-2.1837 7.9005-1.4493 14.727l0.8104 3.7788 0.7615 5.203 0.6795 2.5747 0.4018-0.0377c-0.27992-2.6101-0.19789-7.4838 0.54253-9.9824 0.72314-2.6983 1.8782-3.2092 1.9361-6.459l0.4786 2.5958c1.0933-1.1159 1.0083-1.9184 2.5426-2.6629 0.51018 0.966 0.7314 1.1506 1.061 2.3389 0.30926 0.98334 0.39354 1.7866 0.90373 2.7563 0.50792 0.96599 0.9278 1.1325 1.4146 1.9003 0.46654 0.56361 0.77278 1.5507 1.058 2.3359 0.55456 1.3699 0.99176 3.5626 2.6562 4.0207 0.65088-1.4776 0.45825-3.2845 0.48157-4.9106 0.15727-0.42044 0.23026-1.6411 0.60651-1.8777 0.97972-0.29236 1.3763 1.498 1.4402 2.0993 0.57187 1.571 0.98874 3.5626 1.9391 4.8933 0.99402 1.7376 1.7758 1.4633 3.0761 4.1842l0.2942-1.0391c0.55156 1.3691-0.14223 2.4466 1.368 3.323-0.08728-0.80324-0.25058-4.234 0.081268-4.8737 0.15802-0.42046 0.75848-0.47319 1.1611-0.50786l0.9331 6.8087c0.08429 0.80322 0.39053 1.7903 0.85709 2.357 1.131 1.1152 2.4463 0.18385 2.9534 1.1529l0.7901 3.5769c0.67947 2.5755 1.6276 5.7349 2.6826 8.0708 0.7961 1.7542 1.8548 4.093 3.2078 5.3898 0.46654 0.56665 1.152 1.3171 1.9301 1.0421 0.78183-0.27124 0.47256-1.2583 0.60651-1.877 0.11664-0.82057 0.49286-1.0572 0.62982-1.6788 0.093307-1.0225-0.23929-2.2108 0.2739-3.066-0.26787 1.241 0.15201 1.4045 0.28293 2.6101 0.17232 1.6057 0.56586 3.396 1.14 4.9641 0.85782 2.3592 1.4959 4.5286 2.9339 6.6308 0.95337 1.3345 3.1491 2.9605 4.4787 4.0584 1.8195 1.8627 3.6126 3.5272 5.8084 5.1532l2.6186 1.7933 2.1747 1.4279c1.9308 1.0421 2.1348-0.80322 3.3357-0.90872 0.62381 0.14618 2.8165 1.7722 3.4817 2.3216 3.3711 3.1444 2.2627 2.2311 4.5893 5.0628l5.2485 5.6091c1.353 1.2968 3.0325 3.7841 4.8783 4.0207l1.8458 0.2426c2.0648 0.42346 4.3741 1.2289 6.5314 0.62766 0.80214-0.07309 1.359-0.52594 1.7172-0.96372 0.53426-0.65707 0.84878-1.495 1.651-1.568 0.8217 0.12884 2.7322 0.96976 3.5742 1.302 2.1318 1.0226 5.15 2.7797 7.4156 3.1828 2.2679 0.40616 3.8956-1.3631 3.5224-2.9515-0.57193-1.5711-2.9685-3.1798-4.2485-5.6995-1.2393-2.1173-2.0964-4.4735-3.514-6.3747l-3.2537-3.9649-1.9481-3.069-0.9504-1.3337c-0.24449-0.38278-0.59441-1.77-0.65916-2.3743l-2.2273-5.6792c-1.0151-1.9357-3.0211-1.7549-4.3214-4.4758 0.93004 1.1325 2.7059 2.5958 3.9686 3.0894-0.57117-1.571-1.8518-4.0908-2.8052-5.4252l-2.0377-2.0465c1.1076 0.91327 1.9941 1.6464 3.4403 1.9207l0.4259-1.6615c0.62978-1.6788 1.207-1.9327 1.1926-3.9589-0.16629-3.4307-3.3304-8.4182-3.7819-12.634-0.19565-1.8077 0.20992-3.6673 0.41686-5.5096l0.0557-3.2499c-0.064667-0.60205 0.29121-1.0428 0.40788-1.8604l-0.0377-2.2274c0.27089-1.241 0.42816-1.6615 0.30028-2.8678l-0.9685-3.3576-0.0579-2.4293-0.3469-3.2114c-0.25961-2.409 1.0346-3.5392 1.2626-5.1804 0.11664-0.82282-0.92177-2.9605-1.368-3.3252-0.64414-0.34735-2.0204-0.020325-1.5306-1.0775 0.49287-1.0572 2.3093 0.8055 2.7758 1.3721 0.58318-2.0789 0.14002-2.4466-0.25357-4.2354l-0.7615-5.203c-0.3499-1.388-1.2363-2.1181-1.3033-2.7209 0.13693-0.6209 0.73741-0.67514 1.4492-1.5492 0.71713-0.87558 1.0091-1.9154 1.1024-2.9372l0.0346-3.4503c0.22499-1.6419 1.6095-3.7939 3.3711-4.3575 1.7789-0.36168 3.5954 1.501 4.5954 1.4121 1.003-0.091171 1.4929-1.1476 1.8308-1.7873l2.3094-6.6949 0.4026-0.0369c0.994 1.7376 2.0385 2.048 3.3884 3.3463l1.1542 1.3156c0.22198 0.18234 0.60123-0.054245 0.97974-0.29085 0.71187-0.87482 1.5689-4.1955 1.0618-5.1638-0.28598-0.78517-1.1724-1.5168-1.4816-2.5024-0.063965-0.6028 0.27159-1.241 0.60644-1.8785 0.47261-1.2599 0.72087-2.7013 1.6329-3.5942 1.8082-1.987 5.4118-2.3118 7.6074-0.68344 1.1114 0.914 0.97144 1.5341 1.438 2.1008 0.68776 0.74899 1.6878 0.66008 2.0174 1.8468 0.04364 0.40161-0.046661 1.4234-0.18359 2.0435 0.13092 1.2048 0.37021 1.5884-0.099335 2.8467-0.67044 1.2764-1.7841 2.1874-2.2364 3.647-0.6268 1.6788 0.39656 1.7903 0.14604 3.231-0.44928 1.4603-1.5426 2.5724-1.9918 4.032-0.51625 0.85748-0.42819 1.66-1.3612 2.3524-0.75853 0.47246-1.9828 0.38052-2.7819 0.4521-1.1806 0.30818-2.1167 1.0014-3.0731 1.4927 0.040634 0.40236 0.08429 0.80248 0.32657 1.1868 0.33189 1.1868 1.3326 1.0964 2.3094 0.8055 1.5802-0.34283 3.6736-1.5462 5.2282-0.26674 1.3499 1.2991 1.7608 5.114 2.9128 6.4289 1.1077 0.914 1.9098 0.84242 3.1544 1.1363 0.84277 0.33003 1.4877 0.6774 2.1521 1.2259 1.5516 1.2787 1.0617 2.3374 1.7669 3.2868 0.66513 0.54703 1.2453 0.29611 1.9308 1.0436l2.9414 4.8028 2.0272-1.8039c0.68774 0.74972 1.4899 0.67665 1.5802-0.34512-0.063965-0.60129-0.39047-1.7865-0.65912-2.3735 1.3529 1.2991 1.4612 2.3035 1.4553 4.1285 0.04361 0.4001-0.11371 0.82056 0.13092 1.2064 0.085022 0.79947 1.0587 2.3359 1.7231 2.8844 0.86615 0.52821 1.4432 0.27428 2.2018-0.19893 0.69376-1.0745 1.0994-2.9372 2.1693-4.2483 0.89545-1.0948 2.6736-1.4565 4.2809-3.4277-0.41995-0.16351-1.6856-0.65707-1.5517-1.2787 0.31458-0.83791 1.5163-0.9464 2.274-1.4204 1.1144-0.911 1.9654-2.4074 2.2138-3.8474l-2.447-0.1869-1.4432-0.2758-2.0031 0.1816-1.9707-1.446-2.8459-0.1499c0.4899-1.0572 0.8277-1.6969 2.0294-1.8047 0.60056-0.054245 1.4433 0.2773 1.8225 0.04071 0.77805-0.27428 0.69076-1.0775 1.2506-1.5326 1.0701-1.3126 2.6472-1.657 2.8782-3.2996 1.6442 0.25693 2.0031-0.17934 2.8225-0.051239 1.6878 0.65855 2.213 3.653 2.9858 5.206-2.0881-0.62314-1.6946 1.1657-1.7443 2.589 0.75854-0.47319 1.651-1.5665 2.429-1.8401l2.6246-0.0332c0.60046-0.054245 0.77805-0.272 1.359-0.52745 1.3785-0.32552 2.2882 0.60582 3.0174 1.7564 0.75854-0.47321 0.71484-0.87558 0.2272-1.6426l1.0008-0.0904-0.5718-1.5688c-1.0001 0.088913-1.225-0.09343-1.5162 0.94565-0.8631-0.52971-0.8631-0.52971-1.8864-0.64124l0.7374-0.6729-0.0466-0.4031c-1.7081-0.85977 0.25128-1.4407 0.54254-2.4813 0.13693-0.62088-0.10458-1.0029-0.34994-1.3872l2.5163-1.0376c1.07-1.3111 1.9798-0.37976 2.429-1.8401 2.0648 0.42346 1.3853-2.1513 2.9452-2.6975 0.37628-0.2366 0.9971-0.088913 1.3996-0.12584 0.57718-0.25392 1.1543-0.50787 1.7375-0.76331 0.79913-0.071579 1.2017-0.10623 1.9767-0.38127 0.75848-0.47244 1.4523-1.5485 1.9889-2.204 0.35586-0.44003 1.0903-1.1129 1.2483-1.5334 0.134-0.62013-0.12866-1.2026-0.23328-2.2085 0.82178 0.1281 1.4229 0.0746 1.9534-0.58095 0.55988-0.45587 0.47256-1.2591-0.37323-1.5884-0.19864 0.018845-0.79913 0.07309-0.99701 0.090424l2.7638-2.479 0.5425-2.482-0.7818 0.2728 0.2746-1.241-2.2047 0.1989c0.3559-0.43779 1.429-1.7504 1.7849-2.1882 0.93906-0.69247 1.9594-0.58095 2.432-1.8416-1.9774 0.38127-4.4087 2.2213-5.6571 3.7524l-1.9482 2.6071 0.1174-0.8206c-1.9594 0.58246-1.8315 1.7873-2.59 2.2605l-0.3785 0.2358c0.60049-0.053497-3.4229 0.1055-2.7992 0.25317-1.0233-0.11151-2.1317-1.0248-3.0182-1.7579-0.66739-0.54779-1.1287-1.1137-1.8864-0.63972l-3.7496-2.9063c0.35516-0.43779 0.53659-0.65706 0.093353-1.0232-0.44327-0.36545-1.4869-0.6774-2.353-1.2079-1.5546-1.2787-1.4816-2.5024-1.6772-4.3093-0.16855-1.6057-0.37317-1.5884-0.92102-2.9582-0.26562-0.58548-0.30926-0.98634-0.77576-1.553-0.46356-0.56664-1.5509-1.2787-2.2161-1.828-0.88635-0.73016-1.994-1.6449-3.0173-1.7564-1.4433-0.27428-2.5577 0.6367-3.8053 0.34209-1.0436-0.3112-2.3944-1.6087-3.6593-2.1038-0.82239-0.12884-1.8225-0.038437-2.6246 0.033157-0.04364-0.40161-0.13089-1.2041-0.55075-1.3691-0.64194-0.34737-1.8022 0.16202-2.6014 0.2336-0.80139 0.071579-1.067-0.51239-1.6878-0.66008-0.62155-0.14618-3.4471-0.094925-3.8053 0.34209-0.37924 0.23737-0.11136 0.82134-0.069946 1.223zm143.05-20.962c1.6389 2.0827 4.566 4.8609 7.0326 5.2482-0.72839-1.1521-1.353-1.2976-2.2394-2.0292-1.3063-0.89667-3.5275-2.7247-4.7932-3.219zm-16.026-8.0881l-0.5072-0.9683c0.84576 0.32853 1.6916 0.65856 2.1762 1.4264 0.26184 0.58397 0.3085 0.98559 0.37323 1.5884 0.12793 1.2049 2.2334 3.8542 3.4524 3.9461 0.42441 0.16502 0.40176-0.034653 0.80359-0.071579l-1.0324-3.9619c-0.46646-0.56664-1.0429-0.3112-1.7307-1.0602l-4.1642-4.8978c-0.24527-0.38428-1.1723-1.5168-1.0384-2.1362 0.35516-0.43778 1.359-0.52821 1.7607-0.56286l-3.8135-3.5098c-0.444-0.36621-1.1317-1.1152-1.9128-0.84243-0.77655 0.27277-1.0685 1.3126-1.4071 1.9501-0.33264 0.63972-0.86835 1.2953-0.80518 1.8981 0.28592 0.7859 1.1965 1.7172 1.6584 2.2831l3.5517 2.9244c0.90906 0.93283 1.3695 1.4995 2.6352 1.9945zm51.896-0.4061c-0.52521-2.9944-2.4501-5.8615-4.706-8.0911l-3.5517-2.9251c-1.371-1.498-2.8519-4.0004-4.87-5.8472-2.2153-1.828-3.8828-2.2861-5.8543-3.7314l-3.353-2.9432-5.9837-4.9362c-1.5516-1.2787-3.3936-3.3448-4.566-4.8601-1.1964-1.718-0.85785-2.3562-1.5456-3.1052-0.46646-0.56664-2.152-1.2267-2.9738-1.3548l0.3145-0.8394-1.4869-0.6774c0.82779-1.6961-0.33258-1.1868-1.5049-2.7021-0.46652-0.56663-0.54779-1.3714-1.2822-2.5212-1.1498-1.3156-2.6833-2.3946-4.1883-3.2717l-7.3005-4.0079c-2.3567-1.2071-5.5773-2.9462-8.2185-3.1135-2.0242-0.021103-3.3184 1.1092-5.302 1.4889-1.7773 0.36319-5.6209 0.30366-6.852 2.0352-1.2476 1.5311 1.8781 4.292 3.0099 5.4072l3.1664 3.1609c0.91052 0.93285 1.1723 1.5168 2.0994 2.6493 0.89243 0.73164 2.6186 1.7933 3.3304 2.742 0.70581 0.95016-0.47256 1.2599 0.47711 2.5928 0.72986 1.1506 2.5087 2.6132 3.04 3.7826 0.28592 0.78515 0.41385 1.99 1.079 2.5393 0.64111 0.34737 1.3996-0.12734 2.0001-0.1816 0.97968-0.2901 3.8556-1.7647 4.718-1.2335 0.8638 0.52971 3.8135 3.5083 4.5028 4.2588 0.44241 0.36469 1.3469 1.296 1.213 1.9184 0.10977 1.0029-3.0445-0.13338-2.2921 1.2184 0.24377 0.38428 2.1746 1.4264 2.8399 1.9757l2.4605 2.2115 2.8579 2.1754c0.66519 0.5493 1.3936 1.6992 2.0407 2.0473 1.2657 0.4943 1.9128-0.98257 3.0039-0.27051 2.128 1.0248 3.6555 3.9303 5.8722 5.7575 1.5049 0.87783 1.8828 0.64123 3.1484 1.1363 1.067 0.51238 1.7563 1.2614 2.8399 1.9749 1.7097 0.85975 1.8496 0.23962 3.8436 1.8853 2.6592 2.1927 4.9227 4.4231 7.2027 6.8539 0.909 0.93134 3.1484 2.9605 4.1928 3.2717 0.19858-0.017334 0.39575-0.034668 0.60046-0.053513l2.292-1.2192s0.20462-0.0196 0.18057-0.21928c0.13391-0.62013 0.046661-1.4234 0.1806-2.0443 0.13992-0.62013 0.51923-0.85674 0.63052-1.6788 0.13397-0.61862 0.006012-1.825 0.58246-2.0789 0.58392-0.25543 1.6916 0.65856 2.1114 0.82359zm-48.852-52.174c-0.08725-0.80324-0.30847-0.98558-0.59445-1.7707-1.1964-1.7172-2.5253-2.8136-4.4155-3.4563-0.617-0.14542-2.4832-0.58698-2.8218 0.051247-0.51315 0.85673 1.6615 2.2846 2.3026 2.632 0.66516 0.5478 1.511 0.87783 2.1762 1.4271 1.2882 0.69473 1.9068 0.84166 3.353 1.1167zm-78.408-16.877c2.648 0.16653 3.645 0.077614 6.1756 1.0655 2.3093 0.80625 3.6622 2.1038 6.3102 2.2718l-2.9686-3.1798 1.6916-1.1649c-0.8865-0.73166-1.283-0.69624-2.1521-1.226-0.44318-0.36545-0.48386-0.76782-0.92703-1.1333-0.40259 0.036922-1.4056 0.12584-1.8022 0.162-1.1836 0.30819-2.1581 0.60054-3.5163 1.1272-1.1844 0.30819-2.7586 0.65253-2.8112 2.0774zm12.136-5.5503c-0.29199 1.0391-1.2717 1.3299-2.21 2.0216 0.22128 0.18235 0.24454 0.38429 0.46655 0.56664 0.6471 0.34736 3.9362 0.86276 4.7586 0.99236 2.0234 0.021099 2.0934-1.2011 4.4727-1.6185l2.9798-0.4702c2.7991-0.25243 6.6247-0.39257 9.1207-1.6306-0.95044-1.333-1.5509-1.281-3.0152-1.7564-2.2913-0.60582-4.7353-0.79118-7.0732 0.026371-2.1581 0.59979-2.0708 1.403-4.8753 1.6554l-4.6247 0.2132zm-42.513 343.61c-46.747-9.9945 9.509 1.9832 0 0z"/>
 </g>
</svg>
