<?xml version="1.0" encoding="UTF-8"?>
<svg preserveAspectRatio="none" version="1.1" viewBox="0 0 1920 1080" xmlns="http://www.w3.org/2000/svg" xmlns:xlink="http://www.w3.org/1999/xlink">
 <defs>
  <radialGradient id="y" cx="0" cy="0" r="35.95" gradientTransform="translate(259.95 254.45)" gradientUnits="userSpaceOnUse">
   <stop stop-color="#fff" offset="0"/>
   <stop offset="1"/>
  </radialGradient>
  <radialGradient id="ai" cx="0" cy="0" r="52.6" gradientTransform="translate(-483.95 480.95)" gradientUnits="userSpaceOnUse">
   <stop stop-color="#fff" offset="0"/>
   <stop offset="1"/>
  </radialGradient>
  <radialGradient id="aj" cx="0" cy="0" r="66.55" gradientTransform="translate(-165.9 -155.9)" gradientUnits="userSpaceOnUse">
   <stop stop-color="#fff" offset="0"/>
   <stop offset="1"/>
  </radialGradient>
  <radialGradient id="ak" cx="0" cy="0" r="52.95" gradientTransform="translate(618.95 483.95)" gradientUnits="userSpaceOnUse">
   <stop stop-color="#fff" offset="0"/>
   <stop offset="1"/>
  </radialGradient>
  <radialGradient id="al" cx="0" cy="0" r="68.1" gradientTransform="translate(213.95 -143.9)" gradientUnits="userSpaceOnUse">
   <stop stop-color="#fff" offset="0"/>
   <stop offset="1"/>
  </radialGradient>
  <linearGradient id="am" x1="-163.29" x2="-137.51" y1="393.78" y2="438.72" gradientUnits="userSpaceOnUse">
   <stop stop-color="#fff" offset="0"/>
   <stop offset="1"/>
  </linearGradient>
  <linearGradient id="an" x1="-144.66" x2="-125.74" y1="330.54" y2="349.46" gradientUnits="userSpaceOnUse">
   <stop stop-color="#fff" offset="0"/>
   <stop offset="1"/>
  </linearGradient>
  <linearGradient id="ao" x1="-121.14" x2="-112.26" y1="363.2" y2="396.2" gradientUnits="userSpaceOnUse">
   <stop stop-color="#fff" offset="0"/>
   <stop offset="1"/>
  </linearGradient>
  <linearGradient id="ap" x1="-164.95" x2="-135.75" y1="301.12" y2="351.58" gradientUnits="userSpaceOnUse">
   <stop stop-color="#fff" offset="0"/>
   <stop offset="1"/>
  </linearGradient>
  <linearGradient id="z" x1="-157.99" x2="-98.812" y1="404.02" y2="419.68" gradientUnits="userSpaceOnUse">
   <stop stop-color="#fff" offset="0"/>
   <stop offset="1"/>
  </linearGradient>
  <linearGradient id="aa" x1="-136.04" x2="-95.262" y1="383.14" y2="342.36" gradientUnits="userSpaceOnUse">
   <stop stop-color="#fff" offset="0"/>
   <stop offset="1"/>
  </linearGradient>
  <linearGradient id="ab" x1="-200.8" x2="-200.8" y1="357.22" y2="384.38" gradientUnits="userSpaceOnUse">
   <stop stop-color="#fff" offset="0"/>
   <stop offset="1"/>
  </linearGradient>
  <linearGradient id="ac" x1="-185.18" x2="-159.52" y1="312.78" y2="357.52" gradientUnits="userSpaceOnUse">
   <stop stop-color="#fff" offset="0"/>
   <stop offset="1"/>
  </linearGradient>
  <linearGradient id="ad" x1="-212.58" x2="-183.02" y1="326.7" y2="377.8" gradientUnits="userSpaceOnUse">
   <stop stop-color="#fff" offset="0"/>
   <stop offset="1"/>
  </linearGradient>
  <linearGradient id="ae" x1="-183.28" x2="-166.72" y1="388.46" y2="450.04" gradientUnits="userSpaceOnUse">
   <stop stop-color="#fff" offset="0"/>
   <stop offset="1"/>
  </linearGradient>
  <linearGradient id="af" x1="-158" x2="-158" y1="359" y2="389" gradientUnits="userSpaceOnUse">
   <stop stop-color="#fff" offset="0"/>
   <stop offset="1"/>
  </linearGradient>
  <linearGradient id="ag" x1="-195.9" x2="-175" y1="402.01" y2="413.99" gradientUnits="userSpaceOnUse">
   <stop stop-color="#fff" offset="0"/>
   <stop offset="1"/>
  </linearGradient>
  <linearGradient id="ah" x1="-213.45" x2="-179.75" y1="362.26" y2="419.94" gradientUnits="userSpaceOnUse">
   <stop stop-color="#fff" offset="0"/>
   <stop offset="1"/>
  </linearGradient>
  <g id="ar">
   <path d="m205.65 243.45l-3.7-51.45-755.9-2q4.9611 27.157 10.6 53.45h749m369.35 0l6.95-48.5-380-2.95 3.7 51.45h50.75q1.7541 0 3.55 0 1.7957 0 3.55 0h311.5m67.95-48.5h-61l-6.95 48.5h84.75l-16.8-48.5z" fill="#960"/>
   <path d="m259.95 243.45q-1.7959 0-3.55 0-12.231 0.4-21.2 3.2-10.25 3.25-10.25 7.8t10.25 7.75q10.25 3.25 24.75 3.25t24.75-3.25q10.25-3.2 10.25-7.75t-10.25-7.8q-8.9688-2.8-21.2-3.2-1.7543 0-3.55 0z" fill="url(#y)"/>
   <path d="m641.5 321.4h0.05l18.2-77.95h-396.25q12.231 0.4 21.2 3.2 10.25 3.25 10.25 7.8t-10.25 7.75q-10.25 3.25-24.75 3.25t-24.75-3.25q-10.25-3.2-10.25-7.75t10.25-7.8q8.9688-2.8 21.2-3.2h-799.75l19.35 77.95h1165.5z" fill="#c63"/>
   <path d="m-519.1 341.25l-4.9-19.85h-0.6q2.7055 10.003 5.5 19.85m734.05 30.75l-3.65-50.6h-735.3l4.9 19.85q21.854 77.268 50.5 146.05l10.65 24.7h95l1.3-11.55 7.7-68.45q1-27.5 38-31 79.45-20.3 154.95-5 24.6 4.2 32 29l15.55 86.3 2.45 13.65 290 3.05 3.8-14.05 19.15-70.95q6.3-13.55 14-21.05l-1-49.95m-3.65-50.6l3.65 50.6 1 49.95q11.45-11.15 26-8.95 75-16 151-5 39.3-1.05 40 33l17.8 70.3 5.2 20.7 79-8 28.95-202.6h-352.6m430.2 0h-77.6l-28.95 202.6q47.65 6.75 68-41l3.45-14.4 12.85-53.95 22.25-93.25m-54.55 121.1q0-6 1.9-10.25t4.6-4.25 4.6 4.25 1.9 10.25-1.9 10.25-4.6 4.25-4.6-4.25-1.9-10.25m-385-250.5l12-310.65-691.9-15.35q-57.3 144.35-76 324l755.9 2m312.3-281.3q3.35-5.7 8.7-9.7v-11l-50-1.5 109 306.45h61l-14-33.95-17.65 1.75-15.25 1.45q-7-5.25-11.1-18.2l-75-195q-4.4-25.75 4.3-40.3m-225.25-27.7l-75.05-1.65-12 310.65 380 2.95-109-306.45-183.95-5.5m152.15 29.85l13.8 2.15q65.75 118.3 73 240h-290q-18.25-125 0-240 81.05-20.15 203.2-2.15m-257.4-77.65l-17.1-1.25q-162.4-11.7-324.65-6.8 15.25 23.05-7 34.85-20.7 5.7-22.65-10.9-2.5801-22.427 12.6-23.4l-14.85 0.55-15 0.65q-85.4 3.75-170.8 12.15l-92.25 8.95-10 16 691.9 15.35 75.05 1.65 183.95 5.5 50 1.5-7-12q-146.4-26.45-292.7-39.5 7.45 13.1 3.7 22.5-7.2 9.45-18 8-11.25 2.9-15-13-1.9-13.25 15.8-18.7l-26-2.1z" fill="#c30"/>
   <path d="m641.55 321.4h-0.05l-22.25 93.25q10.85 28.15 39.7 14.35l45-156q-0.85-22.1-17-25l-22.15-3.3v-1.25h-5.05l-18.2 77.95m-995.5 110.6l-7.7 68.45 248.2 10.85-15.55-86.3q-7.4-24.8-32-29-75.5-15.3-154.95 5-37 3.5-38 31m595.9-19q-14.55-2.2-26 8.95-7.7 7.5-14 21.05l-19.15 70.95 267.95-2.65-17.8-70.3q-0.7-34.05-40-33-76-11-151 5z"/>
   <path d="m-481.95 529.95q17.45 7.25 24-17.95l-10.65-24.7-25.35-34.3q-16.25-7.45-21 12l33 64.95z" fill="url(#ai)"/>
   <path d="m588.85 432.25q-1.9 4.25-1.9 10.25t1.9 10.25 4.6 4.25 4.6-4.25 1.9-10.25-1.9-10.25-4.6-4.25-4.6 4.25z" fill="#ff0"/>
   <path d="m505.95 155h11q-20.75-12-17.6-39.9l-26.65 22.45q29.3 8.7 33.25 17.45m-6.6-39.9l9.6-8.1v-12l-72 60h15l20.75-17.45 26.65-22.45z" fill="#999"/>
   <path d="m-174-172.35l-1.05 0.05q-15.18 0.97305-12.6 23.4 1.95 16.6 22.65 10.9 22.25-11.8 7-34.85v-49.15l-48 18 1.1 32.9 15-0.65v-23.25l17.9-10-2 32.65z" fill="url(#aj)"/>
   <path d="m606.4 468.6l-3.45 14.4-4 30v20l21-13 12-52-25.55 0.6z" fill="url(#ak)"/>
   <path d="m203.95-195l5.8 32.3q-17.7 5.45-15.8 18.7 3.75 15.9 15 13 10.8 1.45 18-8 3.75-9.4-3.7-22.5l-8.3-50.5-47 22-1.3 23.95 17.1 1.25v-18.2l20.2-12z" fill="url(#al)"/>
  </g>
  <g id="x">
   <path d="m-242.75 292.7q-35.2 35.25-35.2 85.05t35.2 85q35.25 35.25 85.05 35.25t85-35.25q35.25-35.2 35.25-85t-35.25-85.05q-35.2-35.2-85-35.2t-85.05 35.2m13.8 83.8l0.2-5.25q1.7-25.45 20.15-43.9 12.55-12.55 28.3-17.35 9.8-3 20.85-3 23.05 0 40.7 13.05 4.4 3.25 8.45 7.3 20.35 20.35 20.35 49.15l-0.25 6.7q-2.15 24.5-20.1 42.45-16.45 16.45-38.45 19.6l-10.7 0.75q-23.6 0-41.5-13.65h-0.05q-3.95-3.05-7.6-6.7-20.35-20.35-20.35-49.15z" fill="#666"/>
   <path d="m-153.85 388.45q-23.75 11.35 5.1 56.8 20.75-32-5.1-56.8z" fill="url(#am)"/>
   <path d="m-151.25 360.55q30.3 2.25 32.5-40.5-33.2-1-32.5 40.5z" fill="url(#an)"/>
   <path d="m-90.25 383.2q-28.2-34.6-52.85-7.15 8.4 40.5 52.85 7.15z" fill="url(#ao)"/>
   <path d="m-158 359q3.7 0 6.75 1.55-0.7-41.5 32.5-40.5-17.65-13.05-40.7-13.05-11.05 0-20.85 3 27.7 7.5 14.8 51 3.35-2 7.5-2z" fill="url(#ap)"/>
   <path d="m-143.1 376.05q-0.65 4.9-4.3 8.55-2.85 2.85-6.45 3.85 25.85 24.8 5.1 56.8 22-3.15 38.45-19.6 17.95-17.95 20.1-42.45h-0.05q-44.45 33.35-52.85-7.15z" fill="url(#z)"/>
   <path d="m-110.3 327.35q-4.05-4.05-8.45-7.3-2.2 42.75-32.5 40.5 2.05 1.05 3.85 2.85 4.4 4.4 4.4 10.6l-0.1 2.05q24.65-27.45 52.85 7.15h0.05l0.25-6.7q0-28.8-20.35-49.15z" fill="url(#aa)"/>
   <path d="m-172.85 371.95q-20.1-29.05-55.9-0.7 32.3 25.9 55.9 0.7z" fill="url(#ab)"/>
   <path d="m-180.3 310q-12.7 38.5 14.8 51 12.9-43.5-14.8-51z" fill="url(#ac)"/>
   <path d="m-168.6 363.4q1.45-1.45 3.1-2.4-27.5-12.5-14.8-51-15.75 4.8-28.3 17.35-18.45 18.45-20.15 43.9 35.8-28.35 55.9 0.7 0.6-4.9 4.25-8.55z" fill="url(#ad)"/>
   <path d="m-168.6 384.6l-0.3 0.05q5.55 31.75-32.05 47.7 17.9 13.65 41.5 13.65l10.7-0.75q-28.85-45.45-5.1-56.8l-4.15 0.55q-6.2 0-10.6-4.4z" fill="url(#ae)"/>
   <path d="m-169 384.2l0.4 0.4q4.4 4.4 10.6 4.4l4.15-0.55q3.6-1 6.45-3.85 3.65-3.65 4.3-8.55l0.1-2.05q0-6.2-4.4-10.6-1.8-1.8-3.85-2.85-3.05-1.55-6.75-1.55-4.15 0-7.5 2-1.65 0.95-3.1 2.4-3.65 3.65-4.25 8.55l-0.15 2.05q0 5.9 4 10.2z" fill="url(#af)"/>
   <path d="m-168.9 384.65l-0.1-0.45q-28.25-4.65-32 48.15h0.05q37.6-15.95 32.05-47.7z" fill="url(#ag)"/>
   <path d="m-228.75 371.25l-0.2 5.25q0 28.8 20.35 49.15 3.65 3.65 7.6 6.7 3.75-52.8 32-48.15-4-4.3-4-10.2l0.15-2.05q-23.6 25.2-55.9-0.7z" fill="url(#ah)"/>
  </g>
  <path id="aq" d="m183.75-164.8v-18.2l20.2-12 5.8 32.3q-17.7 5.45-15.8 18.7 3.75 15.9 15 13 10.8 1.45 18-8 3.75-9.4-3.7-22.5l-8.3-50.5-47 22-1.3 23.95 17.1 1.25 26 2.1m-687.7 28.7l691.9 15.35 75.05 1.65 183.95 5.5 50 1.5-7-12q-146.4-26.45-292.7-39.5m293.7 316.5h11q-7.25-121.7-73-240l-13.8-2.15q-122.15-18-203.2 2.15-18.25 115 0 240h199l72-60v12l-9.6 8.1q-3.15 27.9 17.6 39.9h-80m206 39.95l-14-33.95-17.65 1.75-15.25 1.45q-7-5.25-11.1-18.2l-75-195q-4.4-25.75 4.3-40.3 3.35-5.7 8.7-9.7v-11m120 304.95h-61l-6.925 48.5h84.725l-16.8-48.5zm-137-39.95q-3.95-8.75-33.25-17.45l-20.75 17.45m207.8 88.45l-18.2 77.95h-0.025l-22.275 93.25q10.85 28.15 39.7 14.35l45-156q-0.85-22.1-17-25l-22.15-3.275v-1.275h-5.05zm-18.225 77.95h-77.625l-28.95 202.6q47.65 6.75 68-41l3.45-14.4 12.85-53.95m-146.55-277.1l26.65-22.45m-242.95 128.38q1.7541-0.025 3.55-0.025 1.7957 0 3.55 0.025l311.52-0.025m-311.52 0.025q12.231 0.375 21.2 3.175 10.25 3.25 10.25 7.8t-10.25 7.75q-10.25 3.25-24.75 3.25t-24.75-3.25q-10.25-3.2-10.25-7.75t10.25-7.8q8.9688-2.8 21.2-3.175l-50.725-0.025h-749.02l19.375 77.95h1087.9m-347.95 100.55l-1-49.95-3.65-50.6m-5.625-77.95l-3.725-51.45-755.9-2q4.9611 27.157 10.6 53.45m994.1 267.85l-17.8-70.3q-0.7-34.05-40-33-76-11-151 5-14.55-2.2-26 8.95-7.7 7.5-14 21.05l-19.15 70.95 267.95-2.65 5.2 20.7 79-8m-648.4-12.7l2.45 13.65 290 3.05 3.8-14.05m406.05-81.7q1.9-4.25 4.6-4.25t4.6 4.25 1.9 10.25-1.9 10.25-4.6 4.25-4.6-4.25-1.9-10.25 1.9-10.25zm14.1 50.75l-4 30v20l21-13 12-52-25.55 0.6m-24.45-273.65l-380-2.95 12-310.65m259 7.15l109 306.45m-67.7-284.25l97.05 252.05m-816.2-333.85q-85.4 3.75-170.8 12.15l-92.25 8.95-10 16q-57.3 144.35-76 324m364.05-361.75v-23.25l17.9-10-2 32.65-1.025 0.05q-15.205 0.97305-12.625 23.4 1.95 16.6 22.65 10.9 22.25-11.8 7-34.85v-49.15l-48 18 1.1 32.9 15-0.65 14.875-0.55m-348.95 493.7l4.875 19.875q21.854 77.243 50.5 146.02l10.65 24.7h95l1.3-11.55 7.7-68.45q1-27.5 38-31 79.45-20.3 154.95-5 24.6 4.2 32 29l15.55 86.3-248.2-10.85m-162.32-179.05h-0.6q2.6805 10.003 5.475 19.875m61.15 170.72q-6.55 25.2-24 17.95l-33-64.95q4.75-19.45 21-12l25.35 34.3m310.6-660.15q162.25-4.9 324.65 6.8" fill="none" stroke="#000" stroke-linecap="round" stroke-linejoin="round"/>
  <path id="w" d="m-201 432.35q-3.95-3.05-7.6-6.7-20.35-20.35-20.35-49.15l0.2-5.25q1.7-25.45 20.15-43.9 12.55-12.55 28.3-17.35 9.8-3 20.85-3 23.05 0 40.7 13.05 4.4 3.25 8.45 7.3 20.35 20.35 20.35 49.15l-0.25 6.7q-2.15 24.5-20.1 42.45-16.45 16.45-38.45 19.6l-10.7 0.75q-23.6 0-41.5-13.65h-0.05q3.75-52.8 32-48.15-4-4.3-4-10.2l0.15-2.05q-23.6 25.2-55.9-0.7 35.8-28.35 55.9 0.7 0.6-4.9 4.25-8.55 1.45-1.45 3.1-2.4-27.5-12.5-14.8-51 27.7 7.5 14.8 51 3.35-2 7.5-2 3.7 0 6.75 1.55-0.7-41.5 32.5-40.5-2.2 42.75-32.5 40.5 2.05 1.05 3.85 2.85 4.4 4.4 4.4 10.6l-0.1 2.05q24.65-27.45 52.85 7.15m-78.65 1.45l-0.1-0.45 0.4 0.4q4.4 4.4 10.6 4.4l4.15-0.55q3.6-1 6.45-3.85 3.65-3.65 4.3-8.55 8.4 40.5 52.85 7.15m-78.65 1.45q5.55 31.75-32.05 47.7m-41.8-139.65q35.25-35.2 85.05-35.2t85 35.2q35.25 35.25 35.25 85.05t-35.25 85q-35.2 35.25-85 35.25t-85.05-35.25q-35.2-35.2-35.2-85t35.2-85.05zm88.9 95.75q-23.75 11.35 5.1 56.8 20.75-32-5.1-56.8z" fill="none" stroke="#000" stroke-linecap="round" stroke-linejoin="round"/>
 </defs>
 <g transform="translate(936.65 386.35)">
  <use xlink:href="#ar"/>
  <use xlink:href="#aq"/>
 </g>
 <g transform="translate(1413.2 537.95)">
  <use xlink:href="#x"/>
  <use xlink:href="#w"/>
 </g>
 <g transform="translate(859.5 537.95)">
  <use xlink:href="#x"/>
  <use xlink:href="#w"/>
 </g>
</svg>
