<?xml version="1.0" encoding="UTF-8"?>
<svg enable-background="new 0 0 264.087 273.762" viewBox="0 0 264.087 273.762" xmlns="http://www.w3.org/2000/svg">
 <path d="m101.431,56.439c3.715,3.604 8.547,5.822 12.575,9.101 4.04,3.289 6.592,9.969 11.253,4.467-5.627-7.172-13.169-10.917-20.021-16.547l.826.993c-1.61.399-3.023,1.59-4.633,1.986 1.336,1.672-.041.638 0,0" fill="#386666"/>
 <path d="m103.251,52.137c-.659-.924-1.678-1.678-2.482-2.482-.174,2.311-.09,4.608.663,6.785 4.547-.982 6.801-6.287 1.82-9.267 .661.923 1.677,1.677 2.482,2.482 .06-5.014-3.539-1.693-2.483,2.482" fill="#386666"/>
 <path d="m73.963 52.137h28.468c1.366 0 1.506-4.229 0.82-4.964-1.819-1.952-16.237 0-18.979 0-5.312-1e-3 -12.037-2.478-10.309 4.964" fill="#386666"/>
 <path d="m47.323,49.654c-.923.663-1.677,1.677-2.482,2.482h16.738c6.255,0 12.384,2.771 12.384-4.188 0-.598-28.527-3.36-31.604,1.706 .923-.661 1.677-1.677 2.482-2.482-5.014-.061-1.692,3.538 2.482,2.482" fill="#386666"/>
 <path d="m45.833,57.433c5.329-6.346-3.553-12.166-3.804-2.979l.826-.993c.869,1.757 2.41,3.368 3.477,3.475 .94-1.401-.352.471-.499.497" fill="#386666"/>
 <path d="m45.833,57.433-2.978-3.972c.869,1.757 2.41,3.368 3.477,3.475 .94-1.401-.352.471-.499.497" fill="#386666"/>
 <path d="m26.806,72.985c5.116-6.729 12.248-10.767 19.027-15.552-.506-1.162-1.999-3.169-2.978-3.972-6.852,5.63-14.395,9.375-20.021,16.547 1.229.921 2.571,2.365 3.972,2.977" fill="#386666"/>
 <path d="m20.021,101.28c.415-9.765-.039-20.594 6.784-28.295-9.017-10.791-11.542,23.42-11.749,28.295 1.592,0 3.4.263 4.965,0" fill="#386666"/>
 <path d="m20.849,184.677c-.153-15.386-.305-30.772-.458-46.158-.096-9.616-.191-19.233-.286-28.849-.051-5.098 1.912-9.982-5.048-8.389 .153,15.386.305,30.772.458,46.158 .096,9.616.191,19.232.286,28.849 .051,5.098-1.911,9.983 5.048,8.389" fill="#386666"/>
 <path d="m32.929,202.218c-4.181-1.463-7.698-4.912-9.763-8.771-2.433-4.545-.507-10.367-7.281-8.771 .23,9.938 6.309,17.869 15.057,22.173 .629-1.467 1.647-3.077 1.987-4.631" fill="#386666"/>
 <path d="m73.963,209.498c-7.979.151-15.987-.597-23.828-1.988-3.838-.682-7.435-1.479-11.085-2.812-4.187-1.527-7.073-4.145-8.109,2.151 7.698,3.185 15.389,5.336 23.662,6.452 4.071.549 8.142.836 12.245.995 4.651.182 8.547,1.525 7.115-4.798" fill="#386666"/>
 <path d="m115.164,202.218c-6.773,2.852-13.415,5.144-20.764,6.121-3.619.481-7.225.855-10.871,1.037-3.68.184-9.566-1.577-9.566,2.603 0,8.036 37.463-2.761 43.187-5.129-.612-1.428-1.06-3.396-1.986-4.632" fill="#386666"/>
 <path d="m127.08 184.68c-0.1 4.177-1.269 8.701-4.198 11.854-3.573 3.844-9.81 4.766-5.73 10.319 5.093-2.505 9.378-6.057 12.079-11.086 2.269-4.226 5.986-13.095-2.151-11.087" fill="#386666"/>
 <path d="m127.907,101.28c-.276,27.799-.552,55.598-.829,83.396 6.959,1.594 4.997-3.292 5.047-8.39 .096-9.616.191-19.232.286-28.849 .152-15.386.306-30.772.458-46.158-1.542.001-3.465-.34-4.962.001" fill="#386666"/>
 <path d="m121.287,72.985c3.564,4.646 5.028,8.897 5.792,14.728 .761,5.812-2.174,14.927 5.791,13.567-.211-4.945-2.588-38.884-11.583-28.295" fill="#386666"/>
 <path d="m129.56 184.68c0.681 25.147-36.977 27.302-54.654 27.302-18.698 0-55.885-1.521-56.54-27.302h111.19" fill="#70adbf" fill-rule="evenodd"/>
 <path d="m73.963,201.058c13.269-.299 51.161.477 55.598-16.381 2.694-10.234.243-24.506.347-35.022l.453-45.707c.082-8.304.35-18.275-3.034-25.998-4.055-9.255-12.713-14.919-20.684-20.435-7.901-5.467-23.979-2.497-33.509-2.39-12.825.143-25.209-2.27-35.928,5.096-13.194,9.066-18.75,19.42-19.423,35.299-.824,19.453.086,39.047.28,58.51 .131,13.21-4.898,31.6 8.411,39.252 13.771,7.917 32.101,7.776 47.489,7.776" fill="#c1dde5" fill-rule="evenodd"/>
 <path d="m73.963,49.654h16.833c3.985,0 12.455-2.27 12.455,2.482 0,6.626 8.27,10.62 13.32,13.651 5.893,3.537-7.708,8.342-9.833,8.901-10.481,2.76-21.288,3.26-32.086,3.26-5.88,0-48.286-1.636-43.544-11.914 .72-1.56 5.751-3.87 7.084-4.736 3.995-2.596 4.453-4.834 6.648-8.335 .722-1.152-1.123-3.31.815-3.31h9.436l18.872.001" fill="#c1dde5" fill-rule="evenodd"/>
 <path d="m47.819,62.23c-24.835.59-25.25,29.998-25.124,47.556 .094,12.949.189,25.897.287,38.845 .051,6.822-2.286,20.26 3.988,25.289 7.777,6.234 10.274-4.054 10.245-10.031-.077-15.424-.153-30.847-.23-46.27-.047-9.505-.842-19.521 1.072-28.915 1.002-4.919 13.556-24.017 9.762-26.474" fill="#fff" fill-rule="evenodd"/>
 <path d="m112.35 62.893c-2.786-1.719-6.09-3.591-7.942-6.371-0.539-0.809-1.703-6.867-1.371-6.867h-57.987s-0.502 5.312-0.873 6.123c-1.456 3.186-5.612 5.373-8.439 7.115 5.17-2.555 13.03-6.227 18.699-3.393 6.041 3.021 13.537 3.615 20.186 3.393 12.887-0.431 25.675-8.169 37.727 0" fill="#4293aa" fill-rule="evenodd"/>
 <path d="m97.791,59.417c8.279-.216 17.502,7.965 22.668,13.651 7.625,8.393 6.619,21.128 6.619,31.652 0,11.366-.155,22.733-.241,34.098-.068,9.071 2.681,23.641-1.745,31.959-4.731,8.892-12.613,4.054-12.57-4.491 .073-14.861.146-29.723.22-44.585 .053-10.598.736-21.366-.881-31.88-.783-5.092-2.686-9.425-5.575-13.676-2.291-3.371-8.953-9.739-9.324-13.75-.167-1.809-.425-1.718.829-2.978" fill="#8ec1ce" fill-rule="evenodd"/>
 <path d="m43.353,45.683c1.548-4.843 8.411-6.069 12.741-7.114 3.759-.908 7.552-1.553 11.417-1.82 1.96-.135 11.467-.284 6.619-5.13-2.438-2.438-17.385,1.472-20.353,2.4-5.979,1.869-14.641,4.14-15.388,11.665 1.556-.001 3.447.321 4.964-.001" fill="#386666"/>
 <path d="m74.129,54.122c-7.089.136-14.652-.427-21.512-2.316-5.45-1.5-9.212-7.089-14.229-6.123 .067,7.406 9.814,10.238 15.553,11.583 3.833.898 7.811,1.179 11.717,1.569 4.846.485 10.004,1.921 8.471-4.713" fill="#386666"/>
 <path d="m104.741,45.683c-1.022,5.008-8.013,6.037-12.162,6.867-3.571.715-7.203,1.179-10.84,1.407-2.12.132-12.498-.2-7.61,5.129 2.253,2.457 18.924-1.271 22.007-2.233 5.418-1.692 13.585-4.08 13.567-11.169-1.559-.001-3.44-.316-4.962-.001" fill="#386666"/>
 <path d="m74.129,36.583c7.227-.153 14.565.829 21.511,2.813 5.677,1.623 8.616,7.115 14.063,6.288-.759-7.646-10.301-10.513-16.545-12.079-3.779-.948-7.566-1.328-11.43-1.734-4.793-.506-8.968-1.635-7.599,4.712" fill="#386666"/>
 <path d="m74.129,34.1c-7.738-.156-31.679.434-33.177,11.004-1.627,11.48 26.603,11.493 33.177,11.5 7.8.007 31.431.683 33.011-10.342 1.601-11.171-26.351-12.293-33.011-12.162" fill="#c1dde5" fill-rule="evenodd"/>
 <path d="m73.633,54.122c5.021.168 30.798-.601 29.288-9.1-6.484,7.125-19.378,7.115-28.344,7.115-9.071,0-23.797.638-30.232-7.115-1.264,8.639 24.147,9.272 29.288,9.1" fill="#4293aa" fill-rule="evenodd"/>
 <path d="m103.251,41.878c-3.142,8.672-22.062,7.849-29.288,7.776-7.006-.071-26.252.854-29.123-7.776h58.411" fill="#164c4c" fill-rule="evenodd"/>
 <path d="m40.373,11.597c4.509-3.491 11.229-4.114 16.713-4.798 3.244-.405 6.499-.664 9.762-.827 2.118-.106 4.218-.166 6.337-.166 1.328,0 1.778-4.104.944-4.963-2.307-2.378-18.529.971-21.925,1.572-5.306.938-15.908,2.421-16.794,9.183 1.566-.001 3.434.307 4.963-.001" fill="#386666"/>
 <path d="m40.373 37.907v-17.468c0-1.645 1.141-14.256-4.962-8.842-1.758 1.559 0 15.029 0 17.468 0 5.086-2.069 10.553 4.962 8.842" fill="#386666"/>
 <path d="m74.129,43.864c-7.125.127-14.252-.503-21.263-1.738-5.62-.989-11.885-5.123-17.456-4.219 .965,7.373 13.331,8.621 18.973,9.56 3.806.634 7.667.977 11.521,1.152 4.823.219 9.744,1.958 8.225-4.755" fill="#386666"/>
 <path d="m107.884,37.907c-4.42,3.611-11.419,4.212-16.877,4.963-2.82.388-22.595.068-16.877,5.958 2.443,2.516 18.447-1.124 21.924-1.738 5.32-.939 15.899-2.384 16.794-9.183-1.565,0-3.435-.308-4.964,0" fill="#386666"/>
 <path d="m107.88 11.597v17.468c0 1.645-1.141 14.258 4.964 8.842 1.758-1.56 0-15.029 0-17.468 0-5.088 2.068-10.553-4.964-8.842" fill="#386666"/>
 <path d="m74.129,5.805c7.039-.126 14.325.35 21.263,1.572 5.918,1.043 11.615,4.735 17.456,4.219-.952-7.229-13.378-8.924-19.017-9.518-3.824-.402-7.637-.854-11.478-1.029-4.821-.218-9.742-1.954-8.224,4.756" fill="#386666"/>
 <path d="m110.37 37.907c-3.332 10.008-30.642 8.439-38.933 8.439-9.083 0-33.54 0.627-33.54-11.759 0-5.425-3.503-22.99 2.994-22.99h68.697c1.663 0 0.782 22.992 0.782 26.31" fill="#4293aa" fill-rule="evenodd"/>
 <path d="m73.138 46.346c3.699 0.363 1.819-28.564 1.819-33.256 0-1.662-1.819-2.328-1.819-0.81v34.066" fill="#bfc6d6" fill-rule="evenodd"/>
 <path d="m68.669 46.18c3.583 0.275 1.82-29.416 1.82-34.408 0-0.575-1.82-0.302-1.82 1.311v33.097" fill="#bfc6d6" fill-rule="evenodd"/>
 <path d="m64.366 46.014c3.58 0.254 1.82-29.25 1.82-34.243 0-0.569-1.82-0.307-1.82 1.305v32.938" fill="#bfc6d6" fill-rule="evenodd"/>
 <path d="m59.898,45.683c.658.082 1.177-.038 1.82.167 0-4.202.961-34.253-.91-34.253s-.91,29.9-.91,34.086" fill="#bfc6d6" fill-rule="evenodd"/>
 <path d="m55.595,45.021c.588.143 1.208.234 1.821.331 0-4.155.963-33.756-.911-33.756s-.91,29.301-.91,33.425" fill="#bfc6d6" fill-rule="evenodd"/>
 <path d="m51.129,44.359c.609.151 1.206.211 1.821.331v-15.468c0-3.008 1.956-15.295 0-17.625-1.966-2.341-1.821,13.025-1.821,14.154v18.608" fill="#bfc6d6" fill-rule="evenodd"/>
 <path d="m46.827,43.367c.561.179 1.088.265 1.655.497 0-3.925.874-32.267-.828-32.267s-.827,27.891-.827,31.77" fill="#bfc6d6" fill-rule="evenodd"/>
 <path d="m42.359,41.878c.596.247 1.198.481 1.82.661 0-3.892.967-30.943-.91-30.943s-.91,26.453-.91,30.282" fill="#bfc6d6" fill-rule="evenodd"/>
 <path d="m37.893,37.907c.496,1.115.723,1.946 1.817,2.647v-14.479c0-2.448 1.604-12.578 0-14.479-2.174-2.578-1.817,10.277-1.817,10.972v15.339" fill="#bfc6d6" fill-rule="evenodd"/>
 <path d="m79.589 46.18c-3.352 0.133-1.654-29.496-1.654-34.408 0-0.631 1.654-0.182 1.654 1.311v33.097" fill="#bfc6d6" fill-rule="evenodd"/>
 <path d="m84.058 46.014c-3.584 0.254-1.82-29.25-1.82-34.243 0-0.569 1.82-0.307 1.82 1.305v32.938" fill="#bfc6d6" fill-rule="evenodd"/>
 <path d="m88.524,45.683c-.653.085-1.196-.044-1.82.167 0-4.202-.961-34.253.91-34.253s.91,29.9.91,34.086" fill="#bfc6d6" fill-rule="evenodd"/>
 <path d="m92.827,45.021c-.587.143-1.208.234-1.82.331 0-4.155-.962-33.756.91-33.756s.91,29.301.91,33.425" fill="#bfc6d6" fill-rule="evenodd"/>
 <path d="m97.295,44.359c-.605.15-1.207.229-1.82.331v-15.468c0-3.007-1.956-15.296 0-17.625 1.965-2.339 1.82,13.025 1.82,14.154v18.608" fill="#bfc6d6" fill-rule="evenodd"/>
 <path d="m101.597,43.367c-.594.193-1.199.301-1.82.497 0-4.016-.965-32.267.91-32.267s.91,27.801.91,31.77" fill="#bfc6d6" fill-rule="evenodd"/>
 <path d="m106.063,41.878c-.596.246-1.206.457-1.82.661 0-3.891-.967-30.943.91-30.943s.91,26.453.91,30.282" fill="#bfc6d6" fill-rule="evenodd"/>
 <path d="m110.366,37.907c-.456,1.168-.486,1.933-1.654,2.647v-14.479c0-2.378-1.589-12.664 0-14.479 1.994-2.276 1.654,10.213 1.654,10.972v15.339" fill="#bfc6d6" fill-rule="evenodd"/>
 <path d="m74.129,3.323c-5.539-.099-36.235-.286-36.236,8.273-.001,8.606 30.68,8.439 36.236,8.439 5.585,0 36.238.211 36.236-8.439-.001-8.602-30.668-8.372-36.236-8.273" fill="#fff" fill-rule="evenodd"/>
 <path d="m182.841,64.216c3.755,3.259 8.582,5.216 12.412,8.438 4.141,3.484 6.37,12.148 11.912,7.116-4.933-8.727-12.627-13.263-20.684-18.697-.653.971-3.616,3.14-3.64,3.143" fill="#386666"/>
 <path d="m182.841,64.216c1.324-.883 2.648-1.766 3.973-2.647-1.633.703-4.066,2.66-3.973,2.647" fill="#386666"/>
 <path d="m183.501,58.921c-.636-.979-1.68-1.793-2.481-2.648-.3,2.834.407,5.481 1.821,7.943 4.354-1.594 4.966-7.624.66-10.259 .633.98 1.682,1.793 2.482,2.647 .11-.882.222-1.765.332-2.647-3.378-.569-3.618,1.902-2.814,4.964" fill="#386666"/>
 <path d="m126.58 56.273c-0.938 0.692-1.682 1.794-2.482 2.648h53.223c5.265 0 6.178 1.362 6.178-4.188 0 1.147-57.892-5.793-61.883 1.871 0.933-0.71 1.678-1.789 2.482-2.647h-2.814c-0.095 3.267 2.391 3.288 5.296 2.316" fill="#386666"/>
 <path d="m124.43,64.713c2.741-3.974 4.182-10.291-2.812-8.109-.008,2.046-.282,3.045-.829,4.964 1.117.121 3.681,3.241 3.641,3.145" fill="#386666"/>
 <path d="m103.085,83.41c5.142-9.009 13.516-12.642 21.345-18.697-3.501-6.107-8.586-.364-12.906,2.813-5.223,3.84-9.538,7.873-12.741,13.569 1.354.728 2.835,1.875 4.302,2.315" fill="#386666"/>
 <path d="m98.121,107.569c-.149-4.377-.12-8.764.829-13.072 1.13-5.133 7.059-11.563-.167-13.402-2.76,5.107-11.616,29.012-.662,26.474" fill="#386666"/>
 <path d="m97.791,194.272c.097-28.901.22-57.802.33-86.704-6.904-1.55-4.974,3.074-4.993,8.157-.039,10.214-.079,20.428-.118,30.643l-.183,47.737c1.283-.094 3.386.174 4.964.167" fill="#386666"/>
 <path d="m153.885,220.087c-12.366-.235-25.299-.771-37.065-4.964-5.732-2.044-11.502-4.921-15.308-9.764-3.617-4.603-1.951-12.531-8.686-11.417-2.029,28.521 41.973,30.746 61.059,31.109 0-1.579.283-3.414 0-4.964" fill="#386666"/>
 <path d="m208.983,196.589c-.636-.929-1.683-1.683-2.481-2.482-.879,11.524-8.926,19.191-19.995,22.049-6.108,1.577-12.213,2.717-18.502,3.275-5.821.517-15.556-2.273-14.119,5.621 13.394-.26 26.076-1.483 38.795-5.864 6.508-2.24 27.83-20.871 16.303-27.563 .66.923 1.677,1.677 2.482,2.481 .061-5.012-3.539-1.691-2.483,2.483" fill="#386666"/>
 <path d="m206.34,194.106c.668.945 1.789,1.823 2.643,2.482-.199-1.622.271-3.354 0-4.964 .289.216 1.813,1.749 2.315,2.481-4.174-1.056-7.486,2.545-2.477,2.482-.804-.804-1.558-1.82-2.481-2.481" fill="#386666"/>
 <path d="m208.491,105.914c-.717,29.397-1.434,58.795-2.15,88.193 7.145,1.565 5.054-3.903 5.183-9.172 .248-10.174.497-20.348.745-30.521 .396-16.167.79-32.333 1.186-48.5-1.554,0-3.454-.328-4.964,0" fill="#386666"/>
 <path d="m202.86,82.086c2.068,4.489 3.665,8.65 4.918,13.416 1.492,5.682-1.887,10.412 4.9,10.412 4.482,0-4.261-23.774-5.513-26.144-1.358.73-3.123,1.335-4.305,2.316" fill="#386666"/>
 <path d="m208.98 194.11c-1.044 22.764-26.494 26.557-44.521 28.125-19.511 1.697-44.329 0.678-60.769-11.184-2.898-2.091-13.322-16.941-6.422-16.941h111.71" fill="#70adbf" fill-rule="evenodd"/>
 <path d="m184.826,62.893c17.271,11.881 26.607,23.594 26.086,45.467l-2.049,86.018c-.372,15.63-37.432,16.672-48.03,16.939-17.926.453-49.749,1.951-63.042-12.989-3.554-3.994-2.465-8.695-2.445-13.801l.147-38.157c.064-16.785-1.653-34.842.846-51.511 1.083-7.229 5.014-14.8 10.057-20.052 3.013-3.138 12.858-11.913 17.286-11.913l61.144-.001" fill="#c1dde5" fill-rule="evenodd"/>
 <path d="m181.02,215.455c.733-1.276.918-3.211 1.324-4.635l-22.411-6.361c-5.124-1.455-5.864,3.773-3.402,7.355 3.529,5.135 20.409,9.633 24.489,3.641" fill="#ef7c00" fill-rule="evenodd"/>
 <path d="m170.761,202.711c2.259.623 12.63,3.952 11.255,7.945-1.396,4.058-11.457,1.421-14.066.66-2.509-.731-12.378-3.773-11.253-7.94 1.152-4.271 11.601-1.391 14.064-.665" fill="#ffd12d" fill-rule="evenodd"/>
 <path d="m147.27 206.19c-0.154-1.497-1.146-3.207-1.656-4.632l-25.149 9.432c2.974 7.688 6.479 8.053 14.478 5.378 4.336-1.451 12.576-4.529 12.327-10.178" fill="#ef7c00" fill-rule="evenodd"/>
 <path d="m131.381,201.886c2.392-.904 12.322-4.293 13.732-.166 1.357,3.976-8.544,7.878-10.92,8.771-2.421.91-12.236,4.256-13.733.329-1.585-4.157 8.529-8.069 10.921-8.934" fill="#ffd12d" fill-rule="evenodd"/>
 <path d="m135.68 212.97c1.711 7.293 11.094 9.334 17.373 7.114 8.569-3.029 8.973-9.493 7.612-17.209-4.683 1.405-25.825 4.742-24.985 10.095" fill="#ef7c00" fill-rule="evenodd"/>
 <path d="m146.44 197.09c16.271-2.063 19.631 17.016 3.311 19.855-16.215 2.823-19.42-17.176-3.311-19.855" fill="#ffd12d" fill-rule="evenodd"/>
 <path d="m180.69 206.52c3.777 6.465 13.111 5.689 18.529 1.819 7.458-5.327 5.923-11.748 2.482-18.862-4.014 2.696-23.405 12.339-21.011 17.043" fill="#ef7c00" fill-rule="evenodd"/>
 <path d="m186.32 188.15c14.738-7.083 23.569 10.674 8.938 18.035s-23.654-10.903-8.938-18.035" fill="#ffd12d" fill-rule="evenodd"/>
 <path d="m193.264,187.654c-.84-1.249-2.521-2.292-3.64-3.31l-15.47,17.642c-3.487,3.977.851,6.78 5.213,6.188 6.117-.831 17.651-14.37 13.897-20.52" fill="#ef7c00" fill-rule="evenodd"/>
 <path d="m177.21 191.46c1.509-1.757 9.032-9.678 12.083-6.784 3.227 3.061-3.662 10.909-5.462 12.906-1.659 1.842-8.829 9.679-12.08 6.785-3.083-2.745 3.826-11.081 5.459-12.907" fill="#fff" fill-rule="evenodd"/>
 <path d="m189.625,184.345c-4.748-2.023-9.969,3.577-12.74,6.786l.661.66c3.394-3.946 7.605-6.264 12.079-7.446"/>
 <path d="m184.33 197.91c2.523-2.864 7.923-9.061 5.293-13.568-0.38 3.019-5.868 12.758-5.293 13.568"/>
 <path d="m171.42 204.7c4.997 2.041 9.785-3.666 12.907-6.785l-0.996-0.659c-3.126 4.197-7.509 6.244-11.911 7.444"/>
 <path d="m176.88 191.13c-2.815 2.668-7.959 9.493-5.46 13.567 0.316-3.446 6.161-11.768 5.46-13.567"/>
 <path d="m124.76 212.64c5.032-5.035-0.929-6.277-5.137-8.919l-15.051-9.448c-4.449 7.169-2.477 9.946 4.55 14.81 3.642 2.519 11.515 7.356 15.638 3.557" fill="#ef7c00" fill-rule="evenodd"/>
 <path d="m118.31 197.42c2.225 1.394 10.835 7.135 8.604 10.757-2.26 3.669-11.383-1.771-13.569-3.146-2.201-1.386-11.114-7.184-8.603-10.921 2.337-3.477 11.388 1.952 13.568 3.31" fill="#ffd12d" fill-rule="evenodd"/>
 <path d="m123.106,172.431c.411-1.464.115-3.437.167-4.964l-26.64-.826c-.232,7.869 1.872,9.485 9.929,10.423 4.671.542 14.519.874 16.544-4.633" fill="#ef7c00" fill-rule="evenodd"/>
 <path d="m110.036,162.339c2.51.067 13.124.969 12.907,5.128-.221,4.241-11.075,4.057-13.569,3.973-2.586-.087-12.97-.628-12.741-4.965 .226-4.287 10.854-4.268 13.403-4.136" fill="#ffd12d" fill-rule="evenodd"/>
 <path d="m123.438,184.677c.403-1.409.115-3.326.166-4.799l-26.805-.826c-.249,8.163 3.031,9.98 11.416,10.506 4.724.296 13.148.494 15.223-4.881" fill="#ef7c00" fill-rule="evenodd"/>
 <path d="m110.202,174.748c2.609.062 13.039.668 12.904,4.964-.138,4.4-10.813,4.225-13.402,4.138-2.549-.086-13.111-.669-12.904-4.964 .206-4.281 10.869-4.27 13.402-4.138" fill="#ffd12d" fill-rule="evenodd"/>
 <path d="m165.96 104.09c16.06 3.153 11.856 23.096-4.136 19.69-16.018-3.41-11.864-22.957 4.136-19.69" fill="#ffd12d" fill-rule="evenodd"/>
 <path d="m158.683,111.209c-1.31,7.531 6.921,12.717 13.568,12.906 9.176.261 11.796-5.451 13.404-13.237-4.784-.366-25.942-4.766-26.972.331" fill="#ef7c00" fill-rule="evenodd"/>
 <path d="m174.4 100.29c16.179 3.169 12.022 23.081-4.137 19.855-16.064-3.206-11.921-23.128 4.137-19.855" fill="#ffd12d" fill-rule="evenodd"/>
 <path d="m165.14 108.56c5.929-6.525-8.23-10.33-13.062-13.09-3.991-2.281-12.301-7.292-10.6 2.336 1.15 6.498 18.308 15.834 23.662 10.754" fill="#ef7c00" fill-rule="evenodd"/>
 <path d="m158.19 93.669c2.283 1.161 11.068 6.785 8.935 10.424-2.161 3.687-11.545-1.392-13.733-2.647-2.074-1.189-11.481-6.926-9.1-10.59 2.328-3.581 11.611 1.349 13.898 2.813" fill="#ffd12d" fill-rule="evenodd"/>
 <path d="m183.5 56.439c-0.608 5.065 1.99 8.064 5.795 10.921 2.003 1.504 9.74 4.492 10.091 6.949 0.852 5.977-13.521 8.49-17.209 9.267-17.565 3.699-36.691 2.944-54.355 0.331-4.129-0.611-18.251-3.029-18.945-8.604-0.444-3.57 4.208-4.785 6.948-6.62 4.55-3.048 5.438-5.446 8.275-9.431 0.928-1.303-1.17-2.813 0.952-2.813h58.448" fill="#c1dde5" fill-rule="evenodd"/>
 <path d="m200.88 98.964c-3.541-16.081-17.297-34.766-35.08-33.921 4.828 5.917 7.644 13.424 8.691 20.973 0.958 6.896 2.645 5.902 9.36 7.896l17.029 5.052" fill="#8ec1ce" fill-rule="evenodd"/>
 <path d="m191.78 68.683c-0.745-0.567-11.312-12.41-8.493-12.41h-58.969c2.727 0-8.036 12.153-8.819 12.741 13.652-5.531 24.278-0.992 38.057-0.992 12.686 0 26.197-6.559 38.224 0.661" fill="#4293aa" fill-rule="evenodd"/>
 <path d="m135.85 88.871c1.082 7.562 10.243 10.138 16.714 8.438 8.836-2.321 9.78-8.426 9.101-16.381-4.707 1.009-26.179 2.756-25.815 7.943" fill="#ef7c00" fill-rule="evenodd"/>
 <path d="m147.93 73.979c16.244-1.311 18.021 18.685 1.654 20.021-16.567 1.353-17.882-17.891-1.654-20.021" fill="#ffd12d" fill-rule="evenodd"/>
 <path d="m99.445 92.179c-3.022 7.024 3.46 14.01 9.929 15.886 8.799 2.552 12.768-2.475 16.214-9.596-4.512-1.515-23.95-10.926-26.143-6.29" fill="#ef7c00" fill-rule="evenodd"/>
 <path d="m117.32 85.562c14.885 6.975 5.946 25.106-8.771 18.036-14.829-7.124-5.925-25.135 8.771-18.036" fill="#ffd12d" fill-rule="evenodd"/>
 <path d="m96.633 115.02c-2.863 6.951 3.756 13.892 10.093 15.719 8.781 2.532 12.775-2.485 16.217-9.597-4.56-1.52-24.293-11.01-26.31-6.122" fill="#ef7c00" fill-rule="evenodd"/>
 <path d="m114.5 108.23c14.857 7.196 6.041 25.403-8.771 18.203-14.775-7.183-6.011-25.329 8.771-18.203" fill="#ffd12d" fill-rule="evenodd"/>
 <path d="m96.633 136.2c-2.816 7.005 3.651 14.026 10.093 15.884 8.781 2.532 12.775-2.485 16.217-9.597-4.537-1.512-24.111-10.932-26.31-6.287" fill="#ef7c00" fill-rule="evenodd"/>
 <path d="m114.5 129.58c14.858 7.195 6.04 25.402-8.771 18.202-14.775-7.183-6.012-25.327 8.771-18.202" fill="#ffd12d" fill-rule="evenodd"/>
 <path d="m97.295 150.09c-3.061 6.961 3.598 13.718 9.928 15.554 8.725 2.53 12.768-2.308 16.215-9.432-4.521-1.487-23.956-10.765-26.143-6.122" fill="#ef7c00" fill-rule="evenodd"/>
 <path d="m115.16 143.31c14.902 6.979 5.95 25.033-8.769 18.036-14.85-7.06-5.834-25.093 8.769-18.036" fill="#ffd12d" fill-rule="evenodd"/>
 <path d="m134.69 103.76c15.773 4.258 11.625 23.414-4.466 19.691-16.05-3.713-11.529-22.708 4.466-19.691" fill="#ef7c00" fill-rule="evenodd"/>
 <path d="m101.927,107.734c-1.156,7.617 6.446,12.577 13.237,13.072 9.305.679 11.935-5.036 13.735-12.907-4.758-.454-25.942-5.238-26.972-.165" fill="#ef7c00" fill-rule="evenodd"/>
 <path d="m117.81 97.309c15.907 3.942 11.642 23.254-4.469 19.525-16.046-3.714-11.578-22.546 4.469-19.525" fill="#ffd12d" fill-rule="evenodd"/>
 <path d="m119.63 102.44c3.822 6.523 13.084 5.809 18.534 1.82 7.461-5.46 5.873-11.744 2.315-18.863-3.97 2.667-23.541 12.514-20.849 17.043" fill="#ef7c00" fill-rule="evenodd"/>
 <path d="m125.26 84.237c14.717-7.138 23.613 10.802 8.935 18.036-14.666 7.229-23.777-11.074-8.935-18.036" fill="#ffd12d" fill-rule="evenodd"/>
 <path d="m135.02 116.01c2.246 7.471 11.817 8.138 17.87 5.296 8.301-3.897 8.237-10.119 5.958-17.871-4.408 1.854-25.198 7.606-23.828 12.575" fill="#ef7c00" fill-rule="evenodd"/>
 <path d="m144.12 99.295c15.95-4.271 21.218 15.05 5.294 19.36-16.038 4.341-20.855-14.248-5.294-19.36" fill="#ffd12d" fill-rule="evenodd"/>
 <path d="m176.222,98.469c-1.321,7.601 6.943,12.497 13.568,12.74 9.264.34 11.817-5.316 13.403-13.238-4.793-.336-25.942-4.608-26.971.498" fill="#ef7c00" fill-rule="evenodd"/>
 <path d="m191.94 87.546c16.15 3.168 12.044 23.136-4.134 19.691-16.017-3.409-11.867-22.953 4.134-19.691" fill="#ffd12d" fill-rule="evenodd"/>
 <path d="m209.98 109.55c-0.154-1.498-1.147-3.208-1.657-4.633l-25.149 9.432c2.975 7.693 6.476 8.045 14.479 5.378 4.462-1.489 12.534-4.356 12.327-10.177" fill="#ef7c00" fill-rule="evenodd"/>
 <path d="m194.094,105.252c2.39-.841 12.34-4.182 13.731-.166 1.417,4.087-8.541,7.894-10.921,8.77-2.261.833-12.465,4.382-13.73.331-1.305-4.176 8.327-7.996 10.92-8.935" fill="#ffd12d" fill-rule="evenodd"/>
 <path d="m157.03 85.23c-2.866 6.954 3.758 13.887 10.092 15.719 8.794 2.543 12.833-2.382 16.214-9.596-4.649-1.56-24.003-11.099-26.306-6.123" fill="#ef7c00" fill-rule="evenodd"/>
 <path d="m175.06 78.446c14.658 7.104 5.969 25.291-8.771 18.202-14.885-7.159-6.085-25.369 8.771-18.202" fill="#ffd12d" fill-rule="evenodd"/>
 <path d="m100.769,110.547-.309,81.422c-.013,3.411-.939,4.992 2.129,6.522 4.389,2.189 9.086,3.57 13.765,4.974 10.45,3.135 21.626,3.98 32.483,4.294 19.794.57 43.227-.086 59.319-12.991 1.87-1.499.952-6.255 1.002-8.468 .175-7.746.35-15.492.523-23.238 .371-16.447.741-32.896 1.112-49.343 .059-2.602.117-5.204.176-7.806-12.456,14.476-37.835,13.403-55.112,13.403-17.511,0-39.382-.016-55.088-8.769" fill="#007cff" fill-rule="evenodd"/>
 <path d="m209.316,111.541c-13.316,12.119-36.234,11.416-53.043,11.416-16.559,0-37.083.184-52.359-7.115v78.155c0,10.694 46.438,10.649 54.107,10.537 8.614-.126 49.229-1.047 49.519-13.964l1.776-79.029" fill="#56ff3d" fill-rule="evenodd"/>
 <path d="m207,116.172c-14.352,9.89-33.717,9.763-50.469,9.763-16.471,0-34.437-.505-50.136-5.956v72.78c0,8.644 44.521,9.198 50.85,8.987 9.649-.323 19.062-1.204 28.587-2.712 3.849-.609 19.254-4.041 19.376-9.053 .597-24.603 1.195-49.206 1.792-73.809" fill="#fff" fill-rule="evenodd"/>
 <path d="m118.64,142.813c-.999-3.792-.323-14.994-5.626-14.893 .668,2.844 2.511,18.863 4.632,19.69 3.58,1.396 2.917-3.313 3.807-6.205 .859-2.792 4.466-10.289 1.985-11.334-3.472-1.461-4.385,10.387-4.798,12.742" fill-rule="evenodd"/>
 <path d="m130.553,131.23c-.917-.393-2.302-.389-3.309-.497 0,4.576-2.769,19.825 3.143,19.029 0-6.183.139-12.366.166-18.532" fill-rule="evenodd"/>
 <path d="m141.31,135.036c1.783.096 3.549.123 5.294.331 1.157-5.03-10.118-3.521-13.898-3.971-.931,4.25 2.218,1.441 3.64,3.31 2.038,2.679.686,7.119 1.158,11.582 .43,4.061 1.766,6.511 3.641,2.317 1.406-3.148-.016-10.017.165-13.569" fill-rule="evenodd"/>
 <path d="m152.231,146.95c1.912,0 6.271-.788 6.709,1.115 .657,2.846 1.544,3.793 4.707,3.021-.992-4.174-3.357-18.573-7.941-18.533-4.806.042-7.413,14.363-8.771,18.533 3.175.924 5.288-.337 5.296-4.136" fill-rule="evenodd"/>
 <path d="m155.54,136.36c.802,2.341 1.531,4.719 2.151,7.116-1.155.236-3.322.237-4.469,0 .697-2.398 1.572-4.735 2.318-7.116" fill="#fff" fill-rule="evenodd"/>
 <path d="m180.854,130.899c-7.377-.317-6.36,9.075-7.61,15.057-.643-3.392-2.732-19.878-7.775-12.575-2.043,2.958-.103,13.827-.333,17.54 5.77,1.302 3.477-11.903 3.477-16.05 1.151,3.317.975,15.516 4.303,15.554 3.633.042 4.229-13.076 4.963-16.547 0,5.33.054,10.743-.332,16.05 5.319.615 3.428-14.638 3.307-19.029" fill-rule="evenodd"/>
 <path d="m187.806,129.741c-5.253-.284-3.427,14.788-3.313,19.194 5.446.354 2.875-14.773 3.313-19.194" fill-rule="evenodd"/>
 <path d="m197.569,139.669c-.723-2.183-2.869-10.89-4.964-10.921-1.393-.021-2.15.519-2.15,1.986 0,5.642.202,11.433-.332,17.043 4.438.122 2.604-10.7 2.813-14.396 1.678,4.093 2.974,8.358 4.301,12.575 4.347-.688 2.229-15.147 2.648-19.358-3.641.585-2.445,9.492-2.316,13.071" fill-rule="evenodd"/>
 <path d="m161.662,187.654c.765-4.681-1.184-9.076-5.295-11.417 10.351-7.811 2.688-19.972-7.612-21.18-5.38-.631-10.977-.583-16.382-.992 0,9.377-.33,18.752-.33,28.129 0,2.896-1.292,9.349-.165,11.912 1.221,2.775.799,1.756 4.054,2.4 8.871,1.759 24.186,2.758 25.73-8.852" fill="#006b33" fill-rule="evenodd"/>
 <path d="m154.215,186.496c-.169,5.583-6.05,4.781-9.927,4.635-4.104-.155-4.223.264-5.297-2.814-.748-2.146 0-5.975 0-8.272 4.575.405 16.312-1.272 15.224,6.451" fill="#fff" fill-rule="evenodd"/>
 <path d="m153.552,168.791c-.459,4.868-5.995,4.501-9.596,4.139-3.274-.33-3.63.273-4.799-2.152-.863-1.792 0-6.251 0-8.273 4.612.369 15.477-1.273 14.395,6.286" fill="#fff" fill-rule="evenodd"/>
 <path d="m171.754,175.906c0-2.66 1.66-18.5 0-19.358-1.742-.9-6.077,3.949-6.12,5.46-.064,2.256 2.094-.035 2.479.827 .485,1.085.885,2.602.994,4.964 .141,3.018-2.097,9.558 2.647,8.107" fill="#006b33" fill-rule="evenodd"/>
 <path d="m184.494,174.088c.296-.993.128-2.256.166-3.311-1.839.452-3.763.669-5.624.994 2.567-4.261 6.503-7.114 5.707-12.66-1.075-7.492-8.62-1.404-8.687,3.888 3.157.222 3.663-5.51 5.628-3.97 3.36,2.633-5.868,13.13-5.957,16.383 2.952-.275 5.859-.705 8.767-1.324" fill="#006b33" fill-rule="evenodd"/>
 <path d="m122.444,52.799c1.427-5.144 9.912-6.688 14.398-7.529 3.186-.598 6.385-1.147 9.608-1.486 5.15-.542 7.601,1.486 7.601-4.44 0-1.708-35.318.812-36.569,13.455 1.556,0 3.446.322 4.962,0" fill="#386666"/>
 <path d="m154.051,61.403c-7.57.142-14.952-.815-22.34-2.399-6.112-1.311-8.626-6.961-14.229-6.205 .257,8.244 10.834,10.592 17.207,11.914 3.816.792 7.664,1.251 11.553,1.446 4.783.239 9.263,1.813 7.809-4.756" fill="#386666"/>
 <path d="m185.49,52.799c-.774,5.275-8.438,6.525-12.741,7.28-3.632.637-7.422.923-11.101,1.116-5.154.27-7.597-1.365-7.597,4.396 0,.908 36.208,1.688 36.403-12.792-1.543,0-3.465-.34-4.964,0" fill="#386666"/>
 <path d="m154.051,43.532c6.851-.147 14.231.624 20.847,2.482 5.832,1.638 10.241,7.594 15.557,6.785-.771-7.69-11.168-11.293-17.652-12.373-5.595-.932-20.717-5.772-18.752,3.106" fill="#386666"/>
 <path d="m154.051,41.05c-7.427-.14-33.868.671-34.087,11.749-.225,11.395 26.827,11.09 34.087,11.086 7.303-.004 34.441.749 33.921-11.086-.488-11.096-26.337-11.902-33.921-11.749" fill="#c1dde5" fill-rule="evenodd"/>
 <path d="m153.552,61.403c5-.181 32.883-.651 30.779-10.093-6.651,7.691-20.312,7.942-29.792,7.942-9.943,0-24.93.387-31.929-7.942-1.992,9.43 25.737,9.914 30.942,10.093" fill="#4293aa" fill-rule="evenodd"/>
 <path d="m184.66,48c.746,13.715-46.547,8.092-53.94,5.626-1.417-.472-7.266-2.738-6.618-5.13 .415-1.534 12.948-.496 14.529-.496h46.029" fill="#164c4c" fill-rule="evenodd"/>
 <path d="m119.632,18.051c3.672-3.442 11.686-4.543 17.043-5.296 3.335-.468 6.735-.662 10.096-.827 2.043-.1 12.579.139 7.61-5.13-2.333-2.474-18.526,1.047-21.952,1.618-5.725.954-16.696,2.449-17.762,9.635 1.558,0 3.448.322 4.965,0" fill="#386666"/>
 <path d="m119.63 45.021v-26.137c0-1.383-4.214-1.53-4.964-0.833-1.708 1.586 0 14.271 0 16.653 0 5.296-2.477 12.06 4.964 10.317" fill="#386666"/>
 <path d="m154.381,51.31c-10.251.187-26.63-.104-34.916-6.785-.618.443-3.083.741-4.798.496 1.538,6.91 12.881,8.413 18.534,9.432 4.146.747 8.311,1.17 12.501,1.569 4.88.465 10.229,1.997 8.679-4.712" fill="#386666"/>
 <path d="m189.13,45.021c-3.588,1.314-11.021,3.961-16.561,4.836-3.617.57-7.25,1.064-10.908,1.287-2.072.126-12.153-.041-7.28,5.129 2.401,2.548 18.516-1.376 21.951-1.948 5.487-.915 16.29-2.692 17.762-9.303-1.561-.001-3.44-.314-4.964-.001" fill="#386666"/>
 <path d="m189.13,44.856c1.253.111 3.7.237 4.964,0-1.653,0-3.311-.042-4.964,0" fill="#386666"/>
 <path d="m189.13 18.051v17.796c0 1.674-1.202 14.41 4.964 9.009 1.78-1.56 0-15.335 0-17.796 0-5.097 2.116-10.747-4.964-9.009" fill="#386666"/>
 <path d="m154.381,11.763c7.28-.132 14.683.397 21.84,1.737 6.202,1.161 12.15,5.301 17.873,4.551-1.098-7.435-12.67-8.782-18.533-9.763-4.207-.704-8.487-1.096-12.746-1.281-4.822-.21-10-2.025-8.434,4.756" fill="#386666"/>
 <path d="m191.61 45.021c-4.784 9.97-31.818 9.07-41.038 8.77-7.971-0.259-16.034-1.251-23.745-3.31-9.236-2.465-9.68-4.683-9.68-13.745v-17.852c0-1.699 3.734-0.833 5.109-0.833h69.006c0.712 0 0.348 24.032 0.348 26.97" fill="#4293aa" fill-rule="evenodd"/>
 <path d="m153.22 53.46c4.02 0.47 1.987-29.32 1.987-34.206 0-1.761-1.987-2.392-1.987-0.833v35.039" fill="#bfc6d6" fill-rule="evenodd"/>
 <path d="m148.75 53.46c3.719 0.223 1.82-8.488 1.82-11.309v-24.251c0-0.615-1.82-0.269-1.82 1.354v34.206" fill="#bfc6d6" fill-rule="evenodd"/>
 <path d="m144.289,53.13c.603.093 1.218.072 1.819.166 0-4.325.959-35.576-.91-35.576s-.909,31.1-.909,35.41" fill="#bfc6d6" fill-rule="evenodd"/>
 <path d="m139.654,52.799c.605.098 1.219.036 1.82.165 0-4.295.96-35.245-.91-35.245s-.91,30.801-.91,35.08" fill="#bfc6d6" fill-rule="evenodd"/>
 <path d="m135.187,52.137c.608.157 1.205.209 1.82.332 0-4.249.961-34.749-.91-34.749s-.91,30.199-.91,34.417" fill="#bfc6d6" fill-rule="evenodd"/>
 <path d="m130.718,51.475c.603.14 1.214.167 1.82.331 0-4.186.962-34.086-.91-34.086s-.91,29.599-.91,33.755" fill="#bfc6d6" fill-rule="evenodd"/>
 <path d="m126.087,50.317c.625.214 1.19.258 1.82.496v-15.468c0-2.993 1.954-15.314 0-17.625-1.982-2.345-1.82,12.962-1.82,14.083v18.514" fill="#bfc6d6" fill-rule="evenodd"/>
 <path d="m121.619,48.828c.589.258 1.199.482 1.82.662v-15.885c0-2.652 1.753-13.843 0-15.885-2.138-2.49-1.82,11.389-1.82,12.244v18.864" fill="#bfc6d6" fill-rule="evenodd"/>
 <path d="m116.984,44.69c.524,1.062.929,1.94 1.986,2.648v-14.81c0-2.307 1.595-13.108 0-14.81-2.623-2.797-1.986,9.666-1.986,10.318v16.654" fill="#bfc6d6" fill-rule="evenodd"/>
 <path d="m160.01 53.46c-3.976 0.357-1.986-8.381-1.986-11.309v-24.251c0-0.558 1.986-0.385 1.986 1.354v34.206" fill="#bfc6d6" fill-rule="evenodd"/>
 <path d="m164.473,53.13c-.604.093-1.218.066-1.819.166 0-4.325-.959-35.576.909-35.576s.91,31.1.91,35.41" fill="#bfc6d6" fill-rule="evenodd"/>
 <path d="m168.942,52.799c-.602.095-1.219.072-1.82.165 0-4.295-.96-35.245.91-35.245s.91,30.801.91,35.08" fill="#bfc6d6" fill-rule="evenodd"/>
 <path d="m173.574,52.137c-.608.16-1.224.208-1.819.332 0-4.248-.96-34.749.91-34.749s.909,30.2.909,34.417" fill="#bfc6d6" fill-rule="evenodd"/>
 <path d="m178.043,51.475c-.604.14-1.215.167-1.821.331 0-4.187-.963-34.086.911-34.086s.91,29.599.91,33.755" fill="#bfc6d6" fill-rule="evenodd"/>
 <path d="m182.675,50.317c-.652.227-1.312.274-1.983.496v-15.468c0-3.06-1.965-15.231 0-17.625 2.182-2.658 1.983,13.033 1.983,14.083v18.514" fill="#bfc6d6" fill-rule="evenodd"/>
 <path d="m187.142,48.828c-.588.256-1.209.457-1.818.662v-15.885c0-2.652-1.753-13.844 0-15.885 2.137-2.488 1.818,11.388 1.818,12.244v18.864" fill="#bfc6d6" fill-rule="evenodd"/>
 <path d="m191.613,44.69c-.499,1.115-.727,1.947-1.822,2.648v-14.81c0-2.219-1.569-13.215 0-14.81 2.463-2.501 1.822,9.604 1.822,10.318v16.654" fill="#bfc6d6" fill-rule="evenodd"/>
 <path d="m154.381,9.281c-5.77-.099-37.232-.265-37.231,8.77 .001,9.106 31.451,8.771 37.231,8.769 5.813-.002 37.23.332 37.231-8.769 .002-9.022-31.43-8.876-37.231-8.77" fill="#fff" fill-rule="evenodd"/>
 <path d="m109.21 76.46c5.136-2.763 12.995 2.265 17.953 3.723 8.604 2.531 17.758 3.562 26.725 3.393 6.962-0.131 13.285-1.075 19.688-3.64 5.549-2.223 16.225-5.502 20.189 1.82 4.34 8.015-10.081 15.581-15.886 17.539-8.427 2.843-18.004 3.904-26.807 2.647-9.531-1.361-16.824-5.521-24.654-10.838-3.259-2.213-21.463-10.354-17.208-14.644" fill="#fff" fill-rule="evenodd"/>
 <path d="m193.43 87.877c-6.913-1.701-20.078 1.861-15.885 11.583 6.35-2.324 12.344-5.545 15.885-11.583" fill="#ffe282" fill-rule="evenodd"/>
 <path d="m158.52 83.41c-7.3 6.696 3.388 16.956 10.341 17.953 7.577 1.087 11.725-4.136 14.478-10.01-8.001-2.63-16.524-6.704-24.819-7.943" fill="#f4af5b" fill-rule="evenodd"/>
 <path d="m175.892,78.943c-4.558,2.467-9.867,3.754-15.009,4.222-7.45.677.754,10.972 4.336,12.903 14.175,7.645 25.646-9.331 10.673-17.125" fill="#ffe282" fill-rule="evenodd"/>
 <path d="m149.25,83.576c-4.311.927-12.73.583-13.403,5.294-.627,4.392 5.577,7.799 8.937,8.604 9.734,2.334 18.664-4.409 17.044-14.396-4.158.435-8.391.583-12.578.498" fill="#f4af5b" fill-rule="evenodd"/>
 <path d="m163.81 102.27c-3.822-2.203-23.254-17.577-22.501-5.625 0.461 7.326 17.579 5.993 22.501 5.625" fill="#f4af5b" fill-rule="evenodd"/>
 <path d="m158.19 93.669c-5.497-3.519-19.996-6.213-10.757 3.476 5.947 6.236 11.905 5.416 19.691 4.633-2.006-3.445-5.441-6.244-8.934-8.109" fill="#ffe282" fill-rule="evenodd"/>
 <path d="m147.596,83.41c-4.831-.013-18.34-2.976-10.011,6.288 6.771,7.531 23.98,5.054 24.242-6.619-4.677.594-9.531.718-14.231.331" fill="#ffe282" fill-rule="evenodd"/>
 <path d="m143.127,90.69-2.646-5.294c-3.751,2.537-7.502,5.075-11.253,7.612 2.682,1.855 6.215,4.869 9.433,5.625 3.152.741 2.667,1.956 4.632-.993 1.26-1.89.81-5.082-.166-6.95" fill="#f4af5b" fill-rule="evenodd"/>
 <path d="m128.733,92.677c1.915,1.503 5.056,4.099 7.446,4.632 2.692.601 2.242,2.085 4.284-.637 1.679-2.238 2.205-5.235 1.425-7.884-2.797-9.502-15.63-6.628-21.098-1.407 2.774,1.546 5.404,3.392 7.943,5.296" fill="#ffe282" fill-rule="evenodd"/>
 <path d="m95.971,89.037-1.49-.498c8.249,4.941 15.88,10.446 21.155,18.601 2.524,3.902 3.909,8.429 4.659,13.004 .837,5.107-1.547,11.074 5.626,9.598-.291-19.891-10.877-38.007-29.95-45.669l1.49.496c-.609-.255-.727-.628-1.49-.496 0,1.614-.211,3.365 0,4.964" fill="#386666"/>
 <path d="m93.654,87.877c.683.496 1.546.94 2.316,1.159-.248-1.598.356-3.391 0-4.965-1.262-.597 1.88,1.359 1.654,1.159-1.44.598-2.526,2.057-3.97,2.647 1.07.853.707.788 1.987,1.159l-1.987-1.159" fill="#386666"/>
 <path d="m94.317,82.583c-.646-.977-1.678-1.79-2.482-2.647-.561,2.802.199,5.603 1.819,7.941 4.136-1.613 4.915-7.678.663-10.259 .646.977 1.678,1.79 2.482,2.647 .054-.882.109-1.765.163-2.647-3.271-.497-3.409,2.004-2.645,4.965" fill="#386666"/>
 <path d="m62.876 82.583h29.846c2.049 0 3.042-3.507 1.594-4.964-2.094-2.106-16.941 0-19.96 0-5.5 0-13.167-2.756-11.48 4.964" fill="#386666"/>
 <path d="m34.086,80.101c-.923.661-1.677,1.677-2.482,2.482h18.964c6.255,0 12.308,2.759 12.308-4.188 0-.455-30.579-3.552-33.754,1.706 .923-.661 1.677-1.677 2.482-2.482-5.014-.062-1.692,3.537 2.482,2.482" fill="#386666"/>
 <path d="m30.28,89.037c5.109-2.355 6.167-10.298-1.158-8.936-.197,2.016-.341,3.171-.829,5.13l1.987-1.159c-.273,1.605.303,3.366 0,4.965 1.165-.47.966-.182 1.986-1.159l-1.986,1.159" fill="#386666"/>
 <path d="m31.272,88.539c-.259.15-2.348.413-.992.498 .221-1.456.221-3.509 0-4.965-.595-.161-1.45.297-1.987.496l1.491-.496c-.626.157-.981-.08-1.491.496 .969,1.292 1.851,2.819 2.979,3.971" fill="#386666"/>
 <path d="m4.964,129.741c.302-20.211 10.076-30.611 26.308-41.202-.507-1.161-1.999-3.168-2.979-3.971-7.187,5.707-14.718,9.666-20.413,17.111-6.049,7.908-7.739,18.355-7.88,28.063 1.558-.001 3.445.319 4.964-.001" fill="#386666"/>
 <path d="m6.123,224.059c-.181-16.482-.403-32.965-.606-49.447-.136-11.108-.273-22.217-.41-33.325-.069-5.569 2.615-13.167-5.107-11.546l1.158,94.152c1.279-.098 3.385.15 4.965.166" fill="#386666"/>
 <path d="m15.387,240.936c-3.56-2.183-6.219-5.781-7.777-9.68-1.815-4.542-.039-8.459-6.452-7.529-.396,8.078 4.921,17.344 11.749,21.511 .42-.933 2.009-2.942 2.48-4.302" fill="#386666"/>
 <path d="m62.876,251.359c-15.668.269-34.144-1.435-47.49-10.424-.944.983-2.176,3.021-2.646,4.302 7.841,4.335 16.081,7.501 24.935,9.106 5.055.917 10.153,1.306 15.274,1.649 5.097.343 11.437,2.617 9.927-4.633" fill="#386666"/>
 <path d="m110.532,240.936c-6.574,4.012-13.788,6.507-21.357,8.102-3.152.664-26.298,2.489-26.298,3.098 0,6.396 4.588,4.224 10.095,3.858 5.079-.337 10.144-.698 15.148-1.649 8.655-1.644 17.397-4.4 24.895-9.106-.825-1.173-1.482-3.124-2.483-4.303" fill="#386666"/>
 <path d="m119.8 223.89c-0.22 4.003-1.476 7.722-3.64 11.087-2.562 3.983-7.712 5.597-3.31 10.257 7.042-4.3 11.679-13.205 11.915-21.344-1.537 0-3.476-0.35-4.965 0" fill="#386666"/>
 <path d="m120.956,129.741-1.158,94.152c7.4,1.555 5.021-4.644 5.088-10.076 .133-10.864.267-21.729.401-32.593l.633-51.483c-1.559,0-3.443-.318-4.964,0" fill="#386666"/>
 <path d="m62.876,86.555c10.603,0 25.509-2.822 35.081,1.323 8.578,3.714 17.865,12.622 21.566,21.253 3.558,8.297 3.962,16.797 3.853,25.673-.19,15.474-.38,30.948-.571,46.421-.168,13.679-.336,27.356-.505,41.035-.102,8.282-3.749,16.036-10.61,20.826-15.729,10.979-39.43,11.785-57.853,10.478-16.041-1.14-39.014-3.338-47.495-19.344-3.572-6.741-2.753-14.483-2.844-21.871-.199-16.205-.398-32.411-.598-48.617-.219-17.781-4.475-42.586 5.539-58.646 5.029-8.065 12.985-12.455 20.436-17.871 3.378-2.456 12.375-.661 16.377-.661l17.624.001" fill="#c1dde5" fill-rule="evenodd"/>
 <path d="m122.28,223.894c-.646,21.564-26.68,27.817-43.935,29.202-20.104,1.613-41.884,1.448-60.31-7.775-6.669-3.339-16.638-12.777-14.396-21.427 1.996-7.697 16.619-8.34 22.975-9.304 21.884-3.319 45.672-3.066 67.702-1.288 6.83.551 26.966,1.349 27.964,10.592" fill="#70adbf" fill-rule="evenodd"/>
 <path d="m62.876,80.101h31.44c-1.419,7.229 6.902,12.214 12.024,15.628 7.689,5.125-.665,8.384-6.786,10.424-15.636,5.212-33.65,5.209-49.916,4.063-7.795-.549-15.836-1.583-23.275-4.063-2.573-.858-7.817-2.343-9.321-4.873-2.289-3.85.095-3.952 3.865-6.537 3.112-2.134 6.185-4.557 8.628-7.445 .499-.59 3.041-7.198 2.274-7.198l31.067.001" fill="#c1dde5" fill-rule="evenodd"/>
 <path d="m76.445,89.202c10.891,12.764 10.65,32.228 10.424,47.985l23.721-10.97c5.12-2.368.25-10.802-2.045-15.008-6.287-11.523-18.789-22.613-32.1-22.007" fill="#8ec1ce" fill-rule="evenodd"/>
 <path d="m102.921,93.338c-4.186-3.137-9.84-7.299-8.604-13.237h-62.712c1.134,5.995-4.756,10.373-9.101,13.403 14.326-5.597 25.652-.993 40.126-.993 13.984,0 26.835-6.432 40.291.827" fill="#4293aa" fill-rule="evenodd"/>
 <path d="m13.899,101.446c-4.975,4.148-7.248,16.812-.3,20.285 7.269,3.634 16.631,3.012 24.458,1.722 8.553-1.41 16.609-4.755 25.152-6.287 7.907-1.418 16.189-1.446 23.992-3.31 4.252-1.016 9.823-2.999 11.335-7.529 1.915-5.735-3.779-6-7.776-4.964-8.394,2.175-16.904,3.265-25.563,3.557-8.94.302-18.574.249-27.302-1.985-8.629-2.208-15.408-8.195-23.996-1.489" fill="#fff" fill-rule="evenodd"/>
 <path d="m59.236,140.662c1.511,7.808-7.452,13.353-14.229,13.568-9.686.308-12.471-5.702-14.065-13.899 4.912-.387 27.483-5.003 28.294.331" fill="#ff4000" fill-rule="evenodd"/>
 <path d="m42.691 129.24c-16.317 4.649-12.913 24.333 4.302 20.85 17.067-3.453 12.68-23.53-4.302-20.85" fill="#ff7f00" fill-rule="evenodd"/>
 <path d="m52.618 138.02c-0.982-1.466-1.771-3.101-2.646-4.634l24.487-13.899c4.103 7.236 2.691 9.721-4.302 14.562-4.196 2.903-12.676 7.927-17.539 3.971" fill="#ff4000" fill-rule="evenodd"/>
 <path d="m59.898 122.13c-2.261 1.323-11.906 7.17-9.596 11.085 2.255 3.823 12.307-1.493 14.561-2.812 2.326-1.361 11.828-7.229 9.433-11.087-2.367-3.812-11.992 1.421-14.398 2.814" fill="#ff7f00" fill-rule="evenodd"/>
 <path d="m83.229 117.17c-1.242 7.924-10.467 10.72-17.373 8.935-9.368-2.421-10.506-8.99-9.599-17.375 4.779 1.033 27.85 3.182 26.972 8.44" fill="#ff4000" fill-rule="evenodd"/>
 <path d="m70.655 101.45c-17.2-1.054-19.063 19.586-1.82 21.179 17.326 1.602 18.87-19.046 1.82-21.179" fill="#ff7f00" fill-rule="evenodd"/>
 <path d="m59.072,104.92c-3.567,3.258-4.794,14.01 1.997,12.582 6.902-1.452 14.014-1.945 21.003-2.819 4.155-.52-.262-7.88-2.069-9.431-3.664-3.142-15.901-.332-20.931-.332" fill="#ff7266" fill-rule="evenodd"/>
 <path d="m121.78 120.64c3.324 7.256-4.132 14.655-10.591 16.546-9.339 2.736-13.504-2.289-17.209-9.928 4.756-1.595 25.525-11.636 27.8-6.618" fill="#ff4000" fill-rule="evenodd"/>
 <path d="m102.92 113.69c-15.797 6.826-6.508 26.776 9.1 19.029 15.519-7.703 6.833-25.702-9.1-19.029" fill="#ff7f00" fill-rule="evenodd"/>
 <path d="m100.94 148.77c-2.307 7.634-12.632 8.523-18.864 5.627-8.784-4.082-8.532-10.783-6.288-18.864 4.582 1.916 26.696 8.051 25.152 13.237" fill="#ff4000" fill-rule="evenodd"/>
 <path d="m91.338 131.23c-16.773-4.411-22.307 15.812-5.626 20.353 16.897 4.601 21.908-14.897 5.626-20.353" fill="#ff4000" fill-rule="evenodd"/>
 <path d="m118.97,137.022c1.385,7.813-6.938,13.484-13.899,13.899-9.586.571-12.595-5.47-14.395-13.568 4.88-.503 27.489-5.636 28.294-.331" fill="#ff4000" fill-rule="evenodd"/>
 <path d="m102.26 125.94c-16.678 4.148-12.047 24.629 4.798 20.684 16.955-3.972 12.009-23.341-4.798-20.684" fill="#ff7f00" fill-rule="evenodd"/>
 <path d="m100.44 131.4c-3.605 7.283-14.015 5.731-19.526 1.82-7.949-5.642-6.232-12.186-2.482-19.69 4.069 2.761 24.454 13.18 22.008 17.87" fill="#ff4000" fill-rule="evenodd"/>
 <path d="m94.48 112.2c-15.676-6.49-24.993 11.286-9.431 19.03 15.675 7.799 24.714-10.929 9.431-19.03" fill="#ff7f00" fill-rule="evenodd"/>
 <path d="m87.2,113.856c2.148-.441 4.175-1.152 6.123-2.151-5.233-2.179-12.499-1.827-15.719,3.476 3.209-.356 6.415-.767 9.596-1.325" fill="#ff7266" fill-rule="evenodd"/>
 <path d="m31.934 187.98c-2.438 7.728-12.547 8.369-18.864 5.463-8.738-4.021-8.587-10.648-6.286-18.699 4.581 1.916 26.694 8.051 25.15 13.236" fill="#ff4000" fill-rule="evenodd"/>
 <path d="m22.337 170.28c-16.739-4.407-22.332 15.805-5.627 20.352 16.918 4.604 21.907-14.913 5.627-20.352" fill="#ff7f00" fill-rule="evenodd"/>
 <path d="m33.092 200.4c2.048 7.785-5.349 14.03-12.409 15.223-9.622 1.625-13.139-4.069-15.885-12.078 4.865-0.986 26.742-8.334 28.294-3.145" fill="#ff4000" fill-rule="evenodd"/>
 <path d="m15.223 191.13c-16.081 6.108-9.642 25.829 6.784 20.186 16.431-5.646 9.733-25.047-6.784-20.186" fill="#ff7f00" fill-rule="evenodd"/>
 <path d="m45.007 201.22c-3.569 7.187-14.184 5.47-19.525 1.654-7.851-5.607-6.322-12.066-2.483-19.525 4.161 2.793 24.556 12.955 22.008 17.871" fill="#ff4000" fill-rule="evenodd"/>
 <path d="m39.051 181.86c-15.82-6.55-25.17 11.208-9.433 19.031 15.776 7.843 23.846-10.31 9.433-19.031" fill="#ff7f00" fill-rule="evenodd"/>
 <path d="m33.92,246.231c-.612-1.601-.998-3.322-1.49-4.965l22.489-6.444c3.714-1.064 4.333-2.407 5.476,1.48 .645,2.191 1.397,3.555-.165,5.379-4.186,4.887-21.888,11.842-26.31,4.55" fill="#ff4000" fill-rule="evenodd"/>
 <path d="m44.675,232.661c-2.578.682-12.96,4.174-11.746,8.441 1.194,4.199 12.249,1.367 14.725.66 2.575-.735 13.09-4.144 11.915-8.439-1.196-4.367-12.35-1.291-14.894-.662" fill="#ff7f00" fill-rule="evenodd"/>
 <path d="m69.331,236.468c.871-2.728.887-5.38 3.747-4.301 4.828,1.822 9.655,3.645 14.483,5.466l9.854,3.719c.364.138-1.419,6.001-2.85,6.615-6.586,2.827-25.284-2.887-25.234-11.499" fill="#ff4000" fill-rule="evenodd"/>
 <path d="m86.208,231.833c-2.517-.896-13.079-4.362-14.561-.163-1.515,4.292 9.103,8.373 11.583,9.266 2.536.912 12.854,4.588 14.396.331 1.516-4.189-8.918-8.643-11.418-9.434" fill="#ff7f00" fill-rule="evenodd"/>
 <path d="m81.576 243.58c-1.914 7.639-11.559 9.721-18.202 7.444-9.228-3.161-9.434-10.017-8.108-18.2 4.856 1.475 27.328 5.17 26.31 10.756" fill="#ff4000" fill-rule="evenodd"/>
 <path d="m70.323 226.87c-17.059-3.015-20.782 17.864-3.64 20.851 17.138 2.985 20.508-17.392 3.64-20.851" fill="#ff7f00" fill-rule="evenodd"/>
 <path d="m84.222 145.79c-2.348 7.698-12.629 8.536-18.863 5.625-8.845-4.13-8.546-10.736-6.287-18.863 4.582 1.917 26.694 8.05 25.15 13.238" fill="#ff4000" fill-rule="evenodd"/>
 <path d="m74.625 128.09c-16.712-3.613-22.507 15.92-5.626 20.518 16.797 4.576 21.923-15.067 5.626-20.518" fill="#ff7f00" fill-rule="evenodd"/>
 <path d="m40.871,127.259c1.522,7.91-7.482,13.097-14.23,13.403-9.755.441-12.404-5.679-14.231-13.899 4.943-.358 27.637-4.854 28.461.496" fill="#ff4000" fill-rule="evenodd"/>
 <path d="m24.323 115.84c-16.339 4.65-12.84 24.179 4.303 20.683 17.062-3.479 12.661-23.357-4.303-20.683" fill="#ff7f00" fill-rule="evenodd"/>
 <path d="m14.229,122.295c8.058,3.121 17.298,2.322 25.648.828-3.607-11.234-20.019-8.899-25.648-.828" fill="#ff7266" fill-rule="evenodd"/>
 <path d="m12.079,178.72c-1.018-2.663-2.568-4.619.304-5.541l14.757-4.736c3.595-1.154 16.117-6.283 11.827,3.742-2.81,6.566-21.99,13.389-26.888,6.535" fill="#ff4000" fill-rule="evenodd"/>
 <path d="m22.503,164.82c-2.576.867-12.963,4.376-11.583,8.769 1.376,4.379 12.394.982 14.891.166 2.519-.823 13.03-4.431 11.583-8.769-1.403-4.207-12.446-1.035-14.891-.166" fill="#ff7f00" fill-rule="evenodd"/>
 <path d="m32.1,156.712c1.013,7.978-7.266,13.157-14.395,13.403-9.568.33-12.422-5.517-14.065-13.733 4.998-.363 27.156-4.918 28.46.33" fill="#ff4000" fill-rule="evenodd"/>
 <path d="m15.553 145.3c-16.863 3.85-12.752 24.125 4.136 20.684 17.029-3.471 12.761-23.709-4.136-20.684" fill="#ff7f00" fill-rule="evenodd"/>
 <path d="m5.294,139.007c.482-1.68 1.218-3.321 1.82-4.963l21.803,8.227c3.589,1.354 4.888.653 3.514,4.431-.821,2.259-.914,3.621-3.309,4.221-6.551,1.636-23.877-3.414-23.828-11.916" fill="#ff4000" fill-rule="evenodd"/>
 <path d="m22.007,134.54c-2.545-.856-13.04-4.636-14.561-.331-1.514,4.283 9.101,8.513 11.583,9.432 2.503.927 13.083,4.345 14.561.166 1.504-4.253-9.09-8.432-11.583-9.267" fill="#ff7f00" fill-rule="evenodd"/>
 <path d="m34.253 236.63c-3.603 7.272-14.047 5.767-19.526 1.822-7.851-5.653-6.337-12.213-2.482-19.691 4.069 2.762 24.45 13.175 22.008 17.869" fill="#ff4000" fill-rule="evenodd"/>
 <path d="m28.293 217.44c-15.771-6.53-25.031 11.271-9.43 19.029 15.581 7.749 24.577-10.991 9.43-19.029" fill="#ff7f00" fill-rule="evenodd"/>
 <path d="m20.849 216.94c1.227-1.241 2.657-2.326 3.971-3.477l15.358 17.554c2.508 2.866 4.015 2.886 1.023 5.531-1.598 1.414-2.729 2.989-4.965 2.151-6.492-2.431-19.484-13.771-15.387-21.759" fill="#ff4000" fill-rule="evenodd"/>
 <path d="m37.893 220.91c-1.896-1.946-9.347-10.191-12.743-7.115-3.33 3.016 3.847 11.585 5.626 13.569 1.808 2.018 9.4 10.143 12.741 7.114 3.326-3.014-3.837-11.586-5.624-13.568" fill="#ff7f00" fill-rule="evenodd"/>
 <path d="m93.159 243.25c-1.035-1.406-1.883-2.989-2.814-4.468l19.884-12.34c3.288-2.04 3.512-3.496 5.683-0.068 1.294 2.044 2.366 3.042 1.241 5.294-3.087 6.174-17.023 16.845-23.994 11.582" fill="#ff4000" fill-rule="evenodd"/>
 <path d="m99.943 227.2c-2.229 1.611-11.671 7.43-9.103 11.419 2.475 3.845 12.144-1.997 14.397-3.476 2.27-1.488 11.425-7.585 8.935-11.418-2.464-3.793-11.921 2.002-14.229 3.475" fill="#ff7f00" fill-rule="evenodd"/>
 <path d="m60.892 113.36c3.236 7.354-3.843 14.742-10.59 16.546-9.288 2.482-13.386-2.551-17.044-10.094 4.65-1.53 25.662-11.367 27.634-6.452" fill="#ff4000" fill-rule="evenodd"/>
 <path d="m61.718,117.497c.985-12.482-22.383.316-28.46,2.316 1.419,6.872 11.56,2.301 16.381.828 4.053-1.239 7.957-2.197 12.079-3.144" fill="#af6666" fill-rule="evenodd"/>
 <path d="m42.193 106.24c-15.883 6.858-6.507 26.727 9.101 19.029 15.574-7.682 6.773-25.6-9.101-19.029" fill="#ff7f00" fill-rule="evenodd"/>
 <path d="m58.906 117.99c6.859-13.423-12.851-16.245-20.188-9.513-3.538 3.246-6.475 7.296-4.797 12.327 1.41 4.225 5.09 2.659 8.769 1.738 5.462-1.368 10.682-3.543 16.216-4.552" fill="#ff7568" fill-rule="evenodd"/>
 <path d="m122.611,222.236c-4.304,11.147-29.806,13.354-39.782,14.939-14.171,2.252-30.189,1.883-44.328-.471-9.473-1.576-9.37-.286-9.434-9.193l-.228-31.569c-.126-17.488-.252-34.978-.379-52.467 15.575,2.893 32.092,3.795 47.873,2.403 14.133-1.247 37.617-1.556 47.106-13.986-.276,30.115-.552,60.23-.828,90.344" fill="#007cff" fill-rule="evenodd"/>
 <path d="m32.43,147.942c15.45,2.292 30.881,2.638 46.445,1.603 13.679-.909 35.494-1.957 44.563-13.847-.252,25.204-.505,50.407-.758,75.61-.089,8.855-2.463,11.578-11.332,14.994-9.55,3.68-19.387,5.94-29.554,7.071-10.315,1.147-20.829,1.492-31.179.567-5.541-.495-10.951-1.123-16.448-1.976-3.276-.508-1.895-4.104-1.889-7.122 .052-25.632.102-51.266.152-76.9" fill="#56ff3d" fill-rule="evenodd"/>
 <path d="m35.74,151.087c15.295,2.116 30.972,2.558 46.332.909 13.097-1.405 32.682-2.27 41.367-13.65l-.762,70.979c-.09,8.409-3.047,10.896-11.231,14.169-9.087,3.634-19.022,5.852-28.735,6.978-9.563,1.109-19.649,1.877-29.264.985-5.307-.492-10.581-1.05-15.869-1.711-3.099-.387-1.837-3.385-1.837-6.246-.001-24.138-.001-48.275-.001-72.413" fill="#fff" fill-rule="evenodd"/>
 <path d="m56.753,172.1c-1.025-4.723-1.232-15.873-7.776-14.726 1.543,4.274 3.813,19.22 7.613,19.856 3.475.582 6.671-15.57 7.942-19.36-6.692-1.636-6.605,9.552-7.779,14.23" fill-rule="evenodd"/>
 <path d="m71.151 157.71c-6.737-1.278-3.806 14.801-3.806 19.689 6.755 1.264 3.806-14.63 3.806-19.689" fill-rule="evenodd"/>
 <path d="m82.734,160.021c4.651-.751 8.187-2.432 1.654-3.31-3.487-.469-11.845-.536-10.754,3.972 1.792-.153 3.672-.324 5.46-.496v16.546c6.26,1.087 3.64-12.12 3.64-16.712" fill-rule="evenodd"/>
 <path d="m93.322,170.611c1.926-.374 3.889-.649 5.793-1.158-.136,1.396.952,2.905.828,4.302 .474.009 3.159-.487 3.308-.825 .565-1.28-3.567-17.236-4.964-18.038-5.551-3.185-8.837,17.859-9.763,20.851 3.313.393 4.671-1.578 4.798-5.132" fill-rule="evenodd"/>
 <path d="m96.303,158.863 1.984,7.28c-.987.403-2.866.754-3.97.662 .697-2.638 1.304-5.298 1.986-7.942" fill="#fff" fill-rule="evenodd"/>
 <path d="m115.33,149.597c-5.536,1.174-4.3,11.911-4.964,16.714-.75-4.616-1.333-9.269-1.984-13.9-6.724.119-3.973,14.973-3.973,20.354 4.488-.369 2.648-13.142 2.648-17.209 .841,5.223 1.512,10.449 1.987,15.719 4.836-.647 3.633-14.132 4.466-18.036-.273,5.439-.166,10.921-.166,16.382 3.604-.794 1.986-15.993 1.986-20.024" fill-rule="evenodd"/>
 <path d="m119.14 147.61c-3.403 1.381-1.654 16.046-1.654 20.021 3.424-2.015 1.654-15.711 1.654-20.021" fill-rule="evenodd"/>
 <path d="m122.943,156.382c-.439-3.653-.627-7.299-1.324-10.922-3.294,3.027-1.324,15.292-1.324,20.188 2.329-1.776 1.158-11.257 1.158-15.058 .716,4.014.85,8.062 1.49,12.08 1.868-5.996.005-13.648.662-20.022-1.334,3.581-.662,9.537-.662,13.734" fill-rule="evenodd"/>
 <path d="m105.24 193.61c6.269-1.899 6.257-4.725 2.73-11.501-5.671-10.898-19.648 0.834-22.132 8.497-3 9.259-6.097 25.047 3.269 31.794 11.681 8.416 19.953-5.557 21.262-15.388-3.254 1.061-3.82 1.331-5.625 3.641-2.399 3.071-8.945 13.363-12.503 3.769-2.91-7.844-2.085-14.682 1.132-22.292 3.064-7.245 11.192-6.413 11.867 1.48" fill="#006b33" fill-rule="evenodd"/>
 <path d="m29.784,75.467c1.568-5.125 9.112-6.691 13.733-7.776 3.786-.889 7.624-1.593 11.51-1.778 5.181-.246 7.85,1.083 7.85-4.562 0-1.286-37.332.385-38.057,14.116 1.556,0 3.447.322 4.964,0" fill="#386666"/>
 <path d="m62.876,85.23c-7.676.156-15.821-.766-23.165-3.061-5.842-1.826-9.44-7.421-14.892-6.702 .429,8.129 12.099,11.396 18.52,12.748 3.75.789 7.541,1.364 11.355,1.728 4.825.46 9.668,1.853 8.182-4.713" fill="#386666"/>
 <path d="m96.137,75.467c-1.317,5.007-9.37,6.587-13.735,7.612-3.845.903-7.742,1.526-11.674,1.9-5.188.494-7.851-1.513-7.851,4.44 0,1.363 37.492-.383 38.225-13.952-1.558,0-3.448-.321-4.965,0" fill="#386666"/>
 <path d="m62.876,65.54c7.61-.307 16.065.791 23.332,3.061 5.916,1.848 9.319,7.601 14.893,6.867-.444-8.221-12.01-11.54-18.521-12.912-3.803-.801-7.639-1.42-11.522-1.606-4.781-.23-9.734-2.27-8.182,4.59" fill="#386666"/>
 <path d="m62.876,63.058c-7.569-.287-35.575.963-35.575,12.41 0,11.482 28.083,12.246 35.575,12.246s35.742-.717 35.742-12.246c.001-11.495-28.171-12.697-35.742-12.41" fill="#c1dde5" fill-rule="evenodd"/>
 <path d="m62.712,85.562c5.352-.178 34.703-.825 32.596-10.756-8.242,7.969-21.648,8.439-32.596,8.439-10.106,0-25.479-.024-32.432-8.439-2.093,9.921 27.064,10.577 32.432,10.756" fill="#4293aa" fill-rule="evenodd"/>
 <path d="m94.317,71.496c-4.371,9.667-22.844,9.269-31.44,9.267-8.47-.002-27.15.458-31.272-9.267h62.712" fill="#164c4c" fill-rule="evenodd"/>
 <path d="m26.474,39.064c4.291-4.238 11.743-4.772 17.386-5.662 3.735-.589 7.631-.901 11.406-1.122 2.072-.121 12.75.219 7.776-5.13-2.371-2.549-19.425,1.223-22.986,1.784-5.621.886-17.811,2.874-18.546,10.129 1.549.001 3.459.335 4.964.001" fill="#386666"/>
 <path d="m26.474 67.36v-17.471c0-1.506 1.502-16.636-4.964-10.825-1.767 1.587 0 15.034 0 17.471 0 5.303-2.599 12.639 4.964 10.825" fill="#386666"/>
 <path d="m63.042,74.309c-7.628.132-15.406-.578-22.916-1.903-5.921-1.045-12.878-6.044-18.616-5.046 .764,7.53 13.594,9.34 19.361,10.259 4.425.705 8.903,1.031 13.366,1.403 4.855.404 10.403,2.078 8.805-4.713" fill="#386666"/>
 <path d="m99.611,67.36c-4.291,4.24-11.742,4.771-17.386,5.663-3.735.59-7.631.901-11.406,1.122-2.072.121-12.751-.22-7.777,5.129 2.369,2.547 19.429-1.222 22.989-1.783 5.622-.886 17.807-2.875 18.544-10.13-1.549-.001-3.458-.334-4.964-.001" fill="#386666"/>
 <path d="m99.611 39.064v17.471c0 1.506-1.502 16.636 4.964 10.825 1.767-1.587 0-15.034 0-17.471 0-5.303 2.599-12.639-4.964-10.825" fill="#386666"/>
 <path d="m63.042,32.115c7.627-.132 15.409.576 22.918,1.903 5.92,1.046 12.877,6.043 18.615,5.046-.764-7.529-13.593-9.339-19.359-10.258-4.426-.705-8.904-1.033-13.368-1.404-4.855-.404-10.405-2.078-8.806,4.713" fill="#386666"/>
 <path d="m102.09 67.36c-3.182 10.951-34.376 9.703-43.021 9.432-8.299-0.261-16.862-0.999-24.903-3.144-8.728-2.328-10.178-4.4-10.178-12.971v-19.719c0-3.03 1.979-1.894 4.801-1.894h72.578c1.526 0 0.723 24.857 0.723 28.296" fill="#4293aa" fill-rule="evenodd"/>
 <path d="m61.884 76.792c3.842 0.529 1.987-31.29 1.987-36.336 0-1.674-1.987-2.159-1.987-0.756v37.092" fill="#bfc6d6" fill-rule="evenodd"/>
 <path d="m57.086 76.625c4.014 0.482 1.986-9.53 1.986-12.395v-25.003c0-1.036-1.986 0.458-1.986 2.231v35.167" fill="#bfc6d6" fill-rule="evenodd"/>
 <path d="m52.454 76.46c3.445 0.326 1.82-32.015 1.82-37.234 0-1.058-1.82 0.597-1.82 2.221v35.013" fill="#bfc6d6" fill-rule="evenodd"/>
 <path d="m47.653 75.964c4.027 0.83 1.986-10.019 1.986-12.881v-23.845c0-1.12-1.986 0.585-1.986 2.358v34.368" fill="#bfc6d6" fill-rule="evenodd"/>
 <path d="m42.855,75.467c.64.123 1.34.06 1.986.166 0-4.509 1.048-36.569-.993-36.569s-.993,31.91-.993,36.403" fill="#bfc6d6" fill-rule="evenodd"/>
 <path d="m38.222,74.641c.648.185 1.325.22 1.987.331v-16.877c0-2.23 1.722-17.772 0-19.03-2.999-2.191-1.987,14.009-1.987,15.57v20.006" fill="#bfc6d6" fill-rule="evenodd"/>
 <path d="m33.424,73.482c.65.231 1.315.277 1.986.497 0-4.354 1.051-34.914-.993-34.914s-.993,30.109-.993,34.417" fill="#bfc6d6" fill-rule="evenodd"/>
 <path d="m28.79,71.827c.582.322 1.216.56 1.82.827v-15.7c0-2.996 1.975-15.596 0-17.89-2.011-2.335-1.82,13.021-1.82,14.154v18.609" fill="#bfc6d6" fill-rule="evenodd"/>
 <path d="m23.992,67.525c.521,1.063.929,1.941 1.986,2.648v-14.444c0-2.646 1.806-14.706 0-16.665-2.521-2.734-1.986,11.252-1.986,12.103v16.358" fill="#bfc6d6" fill-rule="evenodd"/>
 <path d="m23.992,67.525c.521,1.063.929,1.941 1.986,2.648v-14.444c0-2.646 1.806-14.706 0-16.665-2.521-2.734-1.986,11.252-1.986,12.103v16.358" fill="#bfc6d6" fill-rule="evenodd"/>
 <path d="m68.835 76.625c-4.015 0.483-1.987-9.53-1.987-12.395v-25.003c0-1.036 1.987 0.458 1.987 2.231v35.167" fill="#bfc6d6" fill-rule="evenodd"/>
 <path d="m73.467 76.46c-3.439 0.32-1.82-32.011-1.82-37.234 0-1.059 1.82 0.597 1.82 2.221v35.013" fill="#bfc6d6" fill-rule="evenodd"/>
 <path d="m78.265 75.964c-4.027 0.83-1.986-10.018-1.986-12.881v-23.845c0-1.12 1.986 0.585 1.986 2.358v34.368" fill="#bfc6d6" fill-rule="evenodd"/>
 <path d="m83.063,75.467c-.64.123-1.34.061-1.986.166 0-4.509-1.048-36.569.993-36.569s.993,31.91.993,36.403" fill="#bfc6d6" fill-rule="evenodd"/>
 <path d="m87.698,74.641c-.602.164-1.209.228-1.82.331v-16.877c0-2.06-1.603-17.983 0-19.03 2.835-1.851 1.82,13.924 1.82,15.57v20.006" fill="#bfc6d6" fill-rule="evenodd"/>
 <path d="m92.497,73.482c-.65.231-1.314.276-1.986.497 0-4.354-1.051-34.914.993-34.914s.993,30.11.993,34.417" fill="#bfc6d6" fill-rule="evenodd"/>
 <path d="m97.128,71.827c-.582.322-1.215.561-1.82.827v-15.7c0-2.996-1.975-15.596 0-17.89 2.011-2.335 1.82,13.021 1.82,14.154v18.609" fill="#bfc6d6" fill-rule="evenodd"/>
 <path d="m101.927,67.525c-.521,1.063-.929,1.94-1.984,2.648v-14.444c0-2.646-1.806-14.708 0-16.665 2.519-2.73 1.984,11.252 1.984,12.103v16.358" fill="#bfc6d6" fill-rule="evenodd"/>
 <path d="m63.042,29.633c-5.957-.104-39.017-.049-39.05,9.432-.033,9.569 33.103,9.432 39.05,9.432s39.084.139 39.051-9.432c-.033-9.482-33.093-9.536-39.051-9.432" fill="#fff" fill-rule="evenodd"/>
 <path d="m97.791,261.121c-2.063-8.81 11.202-5.329 17.063-5.434l10.35-.186c.353-.006.893,6.106-.192,7.191-4.99,4.988-24.422,6.768-27.221-1.571" fill="#ff4000" fill-rule="evenodd"/>
 <path d="m111.36,250.864c-2.772.058-13.723.571-13.569,5.129 .157,4.634 11.353,4.4 14.065,4.303 2.755-.099 13.604-.525 13.569-4.965-.035-4.443-11.489-4.573-14.065-4.467" fill="#ff7f00" fill-rule="evenodd"/>
 <path d="m4.964,268.568c-.179-1.743-.111-3.543-.166-5.295l27.798-.495c0,8.921-3.124,10.307-12.161,10.837-4.78.281-13.686.756-15.471-5.047" fill="#ff4000" fill-rule="evenodd"/>
 <path d="m18.367,258.146c-2.773.056-13.665.616-13.569,5.127 .096,4.497 11.431,4.51 14.065,4.47 2.787-.042 13.864-.529 13.733-5.132-.128-4.5-11.563-4.575-14.229-4.465" fill="#ff7f00" fill-rule="evenodd"/>
 <path d="m122.777,249.043c-.409-1.529-.115-3.541-.166-5.131l27.8-.493c0,8.782-3.248,10.308-12.163,10.837-4.491.266-14.073.51-15.471-5.213" fill="#ff4000" fill-rule="evenodd"/>
 <path d="m136.179,238.784c-2.794.061-13.693.564-13.568,5.128 .124,4.507 11.406,4.511 14.064,4.471 2.685-.04 13.805-.551 13.735-5.131-.067-4.489-11.615-4.576-14.231-4.468" fill="#ff7f00" fill-rule="evenodd"/>
 <path d="m196.079,250.367c-4.962-7.27-20.245-6.352-24.24,1.654-2.008,4.021-.433,10.239 4.331,8.887l21.399-6.075c-.459-1.376-.724-3.243-1.49-4.466" fill="#ffd12d" fill-rule="evenodd"/>
 <path d="m187.64 265.76c-14.878 2.769-20.763-12.535-4.305-15.555 14.81-2.717 20.459 12.074 4.305 15.555" fill="#ef7c00" fill-rule="evenodd"/>
 <path d="m177.877,267.41c-2.063-8.813 11.198-5.331 17.062-5.436l10.35-.185c.356-.006.893,6.105-.191,7.192-5.002,5.02-24.42,6.748-27.221-1.571" fill="#ff4000" fill-rule="evenodd"/>
 <path d="m191.447,257.151c-2.794.057-13.696.566-13.569,5.128 .128,4.596 11.389,4.401 14.063,4.306 2.747-.099 13.666-.45 13.57-4.965-.094-4.454-11.44-4.577-14.064-4.469" fill="#ff7f00" fill-rule="evenodd"/>
 <path d="m141.47 262.12c-1.668 7.362-11.572 8.593-17.54 6.286-8.597-3.322-8.548-9.779-6.951-17.537 4.596 1.615 25.651 5.984 24.491 11.251" fill="#ff4000" fill-rule="evenodd"/>
 <path d="m131.55 245.73c-16.07-3.29-20.426 16.156-4.303 19.692 16.252 3.565 20.092-15.433 4.303-19.692" fill="#ff7f00" fill-rule="evenodd"/>
 <path d="m209.81 214.79c-2.112-8.644 11.819-5.187 17.466-5.292 4.581-0.086 14.314-0.262 8.017 7.279-4.33 5.184-22.803 4.816-25.483-1.987" fill="#ef7c00" fill-rule="evenodd"/>
 <path d="m222.717,205.027c-2.572.063-13.044.522-12.903,4.799 .145,4.41 10.847,4.225 13.404,4.139 2.572-.087 13.048-.505 12.903-4.799-.148-4.409-10.848-4.225-13.404-4.139" fill="#ffd12d" fill-rule="evenodd"/>
 <path d="m189.458,234.315c-.407-1.467-.112-3.435-.162-4.964l21.348-.4c3.791-.071 4.929-1.253 5.044,2.719 .067,2.338.468,3.646-1.489,5.047-5.006,3.581-22.403,5.188-24.741-2.402" fill="#ef7c00" fill-rule="evenodd"/>
 <path d="m202.202,224.553c-2.531.068-12.998.514-12.905,4.799s10.905,4.355 13.402,4.304c2.564-.054 13.089-.685 12.907-4.964-.183-4.291-10.848-4.272-13.404-4.139" fill="#ffd12d" fill-rule="evenodd"/>
 <path d="m247.21 213.63c-1.673 7.359-11.57 8.595-17.542 6.287-8.682-3.355-8.509-9.89-6.948-17.702 4.599 1.646 25.649 6.137 24.49 11.415" fill="#ef7c00" fill-rule="evenodd"/>
 <path d="m237.28 197.25c-16.064-3.293-20.448 16.251-4.299 19.688 16.063 3.419 19.909-15.49 4.299-19.688" fill="#ffd12d" fill-rule="evenodd"/>
 <path d="m237.943,234.813c-1.701-6.979 3.696-5.035 8.786-5.132l17.357-.33c0,8.342-3.146,9.817-11.582,10.344-4.671.29-12.499.283-14.561-4.882" fill="#ef7c00" fill-rule="evenodd"/>
 <path d="m250.682,224.885c-2.547.069-12.938.708-12.739,4.964 .197,4.206 10.71,4.204 13.237,4.138 2.571-.068 13.05-.519 12.906-4.799-.143-4.293-10.87-4.376-13.404-4.303" fill="#ffd12d" fill-rule="evenodd"/>
</svg>
