<?xml version="1.0" encoding="UTF-8"?>
<svg version="1.1" viewBox="0 0 31 31" xmlns="http://www.w3.org/2000/svg">
 <defs>
  <filter id="c" x="-.36" y="-.36" width="1.72" height="1.72" color-interpolation-filters="sRGB">
   <feGaussianBlur stdDeviation="2.46429"/>
  </filter>
  <linearGradient id="d" x1="159.34" x2="184.48" y1="727.36" y2="749.89" gradientTransform="matrix(.77002 0 0 .77002 -111.53 -549.68)" gradientUnits="userSpaceOnUse">
   <stop stop-color="#ebf0ed" offset="0"/>
   <stop stop-color="#fafafa" offset="1"/>
  </linearGradient>
 </defs>
 <path d="m15.437 2.6951 14.506 24.476h-28.656l14.15-24.476z" fill="url(#d)" stroke="#f00" stroke-linecap="square" stroke-linejoin="round" stroke-width="2"/>
 <path transform="matrix(.83197 0 0 .55466 -78.583 -383.51)" d="m111.31 731.2c-3.283-3.925-3.5949-6.1477-2.0238-10.438 3.3358-6.1448 4.4954-8.0682 5.41-9.4048 1.9008 5.1616 2.1257 19.14-3.3862 19.843z" fill="#fff" fill-opacity=".87619" fill-rule="evenodd" filter="url(#c)"/>
 <g transform="matrix(.98059 0 0 .98059 -.014017 .022874)">
  <path d="m15.617 8.8684c0.6875 1.63e-5 1.2539 0.27345 1.6992 0.82031 0.44531 0.54689 0.66796 1.2422 0.66797 2.0859-6e-6 0.35158-0.04297 0.71876-0.12891 1.1016-0.08594 0.37501-0.25391 0.94923-0.50391 1.7227-0.35938 1.0938-0.61329 1.9688-0.76172 2.625-0.14063 0.64844-0.22657 1.2852-0.25781 1.9102-0.01563 0.32032-0.07813 0.54688-0.1875 0.67969-0.10157 0.13282-0.26954 0.19922-0.50391 0.19922-0.20313 5e-6 -0.35547-0.05468-0.45703-0.16406-0.09375-0.11718-0.14844-0.30468-0.16406-0.5625-0.04688-0.52343-0.08594-0.89062-0.11719-1.1016-0.03125-0.21874-0.10547-0.55468-0.22266-1.0078-0.1875-0.73437-0.42969-1.5234-0.72656-2.3672-0.35156-0.99218-0.57422-1.6719-0.66797-2.0391-0.08594-0.36718-0.12891-0.76952-0.12891-1.207-2e-6 -0.70311 0.21484-1.3203 0.64453-1.8516 0.44531-0.56248 1.0508-0.84373 1.8164-0.84375m-0.05859 12.082c0.625 4e-6 1.1602 0.22266 1.6055 0.66797 0.44531 0.44532 0.66796 0.98047 0.66797 1.6055-6e-6 0.63281-0.22266 1.1719-0.66797 1.6172-0.44532 0.44531-0.98047 0.66797-1.6055 0.66797-0.63282 0-1.1719-0.22266-1.6172-0.66797-0.44531-0.44531-0.66797-0.98437-0.66797-1.6172-1e-6 -0.625 0.22266-1.1602 0.66797-1.6055 0.44531-0.44531 0.98437-0.66796 1.6172-0.66797" fill="#fffffe" fill-opacity=".48571"/>
  <path d="m15.916 9.167c0.6875 1.63e-5 1.2539 0.27345 1.6992 0.82031 0.44531 0.54689 0.66796 1.2422 0.66797 2.0859-6e-6 0.35158-0.04297 0.71876-0.12891 1.1016-0.08594 0.37501-0.25391 0.94923-0.50391 1.7227-0.35938 1.0938-0.61329 1.9688-0.76172 2.625-0.14063 0.64844-0.22657 1.2852-0.25781 1.9102-0.01563 0.32032-0.07813 0.54688-0.1875 0.67969-0.10157 0.13282-0.26954 0.19922-0.50391 0.19922-0.20313 5e-6 -0.35547-0.05468-0.45703-0.16406-0.09375-0.11718-0.14844-0.30468-0.16406-0.5625-0.04688-0.52343-0.08594-0.89062-0.11719-1.1016-0.03125-0.21874-0.10547-0.55468-0.22266-1.0078-0.1875-0.73437-0.42969-1.5234-0.72656-2.3672-0.35156-0.99218-0.57422-1.6719-0.66797-2.0391-0.08594-0.36718-0.12891-0.76952-0.12891-1.207-2e-6 -0.70311 0.21484-1.3203 0.64453-1.8516 0.44531-0.56248 1.0508-0.84373 1.8164-0.84375m-0.05859 12.082c0.625 4e-6 1.1602 0.22266 1.6055 0.66797 0.44531 0.44532 0.66796 0.98047 0.66797 1.6055-6e-6 0.63281-0.22266 1.1719-0.66797 1.6172-0.44532 0.44531-0.98047 0.66797-1.6055 0.66797-0.63282 0-1.1719-0.22266-1.6172-0.66797-0.44531-0.44531-0.66797-0.98437-0.66797-1.6172-1e-6 -0.625 0.22266-1.1602 0.66797-1.6055 0.44531-0.44531 0.98437-0.66796 1.6172-0.66797" fill-opacity=".81905"/>
 </g>
</svg>
