<?xml version="1.0" encoding="utf-8"?>
<!-- Generator: Adobe Illustrator 18.1.1, SVG Export Plug-In . SVG Version: 6.00 Build 0)  -->
<svg version="1.1" id="Layer_1" xmlns="http://www.w3.org/2000/svg" xmlns:xlink="http://www.w3.org/1999/xlink" x="0px" y="0px"
	 viewBox="0 0 3000 3000" enable-background="new 0 0 3000 3000" xml:space="preserve">
<g>
	<path fill="#CFAE44" d="M2139.1,1556.9h-153.6c-16.4,0-29.7-13.3-29.7-29.7v-54.4c0-16.4,13.3-29.7,29.7-29.7h153.6
		c16.4,0,29.7,13.3,29.7,29.7v54.4C2168.8,1543.6,2155.5,1556.9,2139.1,1556.9z"/>
	<g>
		<polygon fill="#726250" points="1883.7,1500 1116.3,1500 1232.2,426 1767.8,426 		"/>
		<polygon fill="#726250" points="1883.7,1500 1116.3,1500 1232.2,2574 1767.8,2574 		"/>
	</g>
	<path fill="#CFAE44" d="M1789.4,2169.2h-578.7c-52.1,0-94.4-42.3-94.4-94.4V925.1c0-52.1,42.3-94.4,94.4-94.4h578.7
		c52.1,0,94.4,42.3,94.4,94.4v1149.8C1883.7,2127,1841.5,2169.2,1789.4,2169.2z"/>
	<circle fill="#FBD353" cx="1500" cy="1500" r="582.5"/>
	<circle fill="#FBE18D" stroke="#B39536" stroke-width="20" stroke-miterlimit="10" cx="1500" cy="1500" r="483.7"/>
	
		<polyline fill="none" stroke="#726658" stroke-width="25" stroke-linecap="round" stroke-linejoin="round" stroke-miterlimit="10" points="
		1500,1160.6 1500,1500 1739,1500 	"/>
	<g>
		
			<line fill="none" stroke="#726250" stroke-width="30" stroke-linecap="round" stroke-linejoin="round" stroke-miterlimit="10" x1="1500" y1="1068.1" x2="1500" y2="1106.8"/>
		
			<line fill="none" stroke="#726250" stroke-width="30" stroke-linecap="round" stroke-linejoin="round" stroke-miterlimit="10" x1="1281.4" y1="1126.1" x2="1300.8" y2="1159.6"/>
		
			<line fill="none" stroke="#726250" stroke-width="30" stroke-linecap="round" stroke-linejoin="round" stroke-miterlimit="10" x1="1121.1" y1="1285.7" x2="1154.6" y2="1305"/>
		
			<line fill="none" stroke="#726250" stroke-width="30" stroke-linecap="round" stroke-linejoin="round" stroke-miterlimit="10" x1="1062.1" y1="1504" x2="1100.8" y2="1504"/>
		
			<line fill="none" stroke="#726250" stroke-width="30" stroke-linecap="round" stroke-linejoin="round" stroke-miterlimit="10" x1="1120.1" y1="1722.6" x2="1153.6" y2="1703.2"/>
		
			<line fill="none" stroke="#726250" stroke-width="30" stroke-linecap="round" stroke-linejoin="round" stroke-miterlimit="10" x1="1279.7" y1="1882.9" x2="1299" y2="1849.4"/>
		
			<line fill="none" stroke="#726250" stroke-width="30" stroke-linecap="round" stroke-linejoin="round" stroke-miterlimit="10" x1="1498" y1="1941.9" x2="1498" y2="1903.2"/>
		
			<line fill="none" stroke="#726250" stroke-width="30" stroke-linecap="round" stroke-linejoin="round" stroke-miterlimit="10" x1="1716.6" y1="1883.9" x2="1697.2" y2="1850.4"/>
		
			<line fill="none" stroke="#726250" stroke-width="30" stroke-linecap="round" stroke-linejoin="round" stroke-miterlimit="10" x1="1876.9" y1="1724.3" x2="1843.4" y2="1705"/>
		
			<line fill="none" stroke="#726250" stroke-width="30" stroke-linecap="round" stroke-linejoin="round" stroke-miterlimit="10" x1="1935.9" y1="1506" x2="1897.2" y2="1506"/>
		
			<line fill="none" stroke="#726250" stroke-width="30" stroke-linecap="round" stroke-linejoin="round" stroke-miterlimit="10" x1="1877.9" y1="1287.4" x2="1844.4" y2="1306.8"/>
		
			<line fill="none" stroke="#726250" stroke-width="30" stroke-linecap="round" stroke-linejoin="round" stroke-miterlimit="10" x1="1718.3" y1="1127.1" x2="1699" y2="1160.6"/>
	</g>
	<circle fill="#726658" cx="1500" cy="1500" r="19.6"/>
</g>
</svg>
