<?xml version="1.0" encoding="UTF-8"?>
<!DOCTYPE svg  PUBLIC '-//W3C//DTD SVG 1.1//EN'  'http://www.w3.org/Graphics/SVG/1.1/DTD/svg11.dtd'>
<svg enable-background="new 0 0 100 100" version="1.1" viewBox="0 0 100 100" xml:space="preserve" xmlns="http://www.w3.org/2000/svg">
<path d="m60.997 30.714l-1.655-20.663c0-1.104-0.671-2-1.5-2h-14.44c-0.828 0-1.5 0.896-1.5 2l-1.949 20.5c-6.329 3.622-10.612 10.427-10.612 18.227 0 7.738 4.218 14.495 10.465 18.138l2.096 22.042c0 1.105 0.671 2 1.5 2h14.439c0.829 0 1.5-0.895 1.5-2l1.777-22.189c6.111-3.677 10.223-10.354 10.223-17.991 1e-3 -7.687-4.164-14.404-10.344-18.064zm0.323 33.545c-3.104 2.208-6.888 3.521-10.979 3.521-3.999 0-7.708-1.248-10.773-3.367-4.963-3.431-8.227-9.155-8.227-15.633 0-6.544 3.326-12.326 8.376-15.744 3.035-2.055 6.691-3.256 10.624-3.256 4.036 0 7.774 1.274 10.854 3.428 4.917 3.438 8.146 9.131 8.146 15.572 1e-3 6.385-3.176 12.032-8.021 15.479z" fill="#231F20"/>
<path d="m61.369 35.362c-3.002-2.472-6.844-3.958-11.027-3.958-4.096 0-7.858 1.433-10.832 3.813-3.982 3.187-6.543 8.078-6.543 13.563 0 5.418 2.496 10.262 6.395 13.452 2.996 2.449 6.818 3.924 10.98 3.924 4.243 0 8.132-1.533 11.152-4.069 3.8-3.19 6.223-7.969 6.223-13.306 0-5.4-2.475-10.229-6.348-13.419zm0.213 25.631c-2.963 2.729-6.904 4.411-11.24 4.411-4.261 0-8.139-1.625-11.084-4.27-3.391-3.046-5.541-7.449-5.541-12.356 0-4.979 2.212-9.443 5.692-12.493 2.926-2.564 6.746-4.132 10.933-4.132 4.275 0 8.166 1.636 11.114 4.297 3.374 3.044 5.511 7.436 5.511 12.328 0 4.832-2.084 9.175-5.385 12.215z" fill="#231F20"/>
<path d="m61.205 41.969c-0.315-0.455-0.938-0.57-1.392-0.254l-9.486 6.55-6.656-4.533c-0.457-0.311-1.078-0.192-1.39 0.264-0.311 0.457-0.193 1.079 0.264 1.39l6.05 4.121 1.173 0.799c0.024 0.016 0.05 0.021 0.075 0.035 0.028 0.016 0.054 0.027 0.083 0.039 0.131 0.059 0.267 0.098 0.405 0.098h9e-3c0.087-2e-3 0.173-0.016 0.257-0.039 0.027-8e-3 0.053-0.02 0.08-0.029 0.063-0.023 0.121-0.051 0.178-0.088 0.015-8e-3 0.031-0.012 0.045-0.02l1.151-0.795 8.898-6.145c0.455-0.315 0.57-0.938 0.256-1.393z"/>
</svg>
