<?xml version="1.0" encoding="utf-8"?>
<svg xmlns="http://www.w3.org/2000/svg" xmlns:xlink="http://www.w3.org/1999/xlink" version= "1.1" width="1272px" height="1273px" viewBox="-276 75 1272 1273">
<g id="layer1">
<g style="fill:rgb(34,43,50); fill-opacity:1.0; stroke-linejoin: miter">
<path d="M881.1465,729.94556L876.55945,798.1298Q843.94763,1004.18787,685.71497,1127.7317Q526.3874,1251.1753,310.47696,1227.8438Q104.41857,1195.2319,-19.124802,1036.9995Q-58.709454,985.8517,-84.33615,925.53564L-105.87469,863.52625Q-123.6244,799.52386,-123.82398,729.94574Q-118.435715,516.42114,23.3505,374.63477Q165.13666,232.84846,378.6612,227.46013Q592.1857,232.8484,733.97205,374.6347Q875.7583,516.4209,881.1465,729.94556"/>
</g>
<g>
<g style="fill:rgb(253,217,8); fill-opacity:1.0; stroke-linejoin: miter">
<path d="M288.69012,348.0797C258.43164,348.6819,215.27403,350.97403,212.01903,352.1775C209.12584,353.26184,207.8002,358.20566,210.331,358.20566C212.01903,358.20566,211.89862,366.16153,210.09027,369.05612C208.88472,370.8632,209.00543,371.70663,210.57298,373.51532C212.26071,375.32327,212.62215,378.94095,212.98376,391.71866C213.22449,400.3974,213.10411,407.6317,212.74236,407.6317C212.38092,407.6317,211.05469,405.0999,209.84915,402.0857C205.50905,391.3577,189.59708,379.0604,175.97441,375.80643C168.37967,373.8758,153.67221,373.03427,146.80154,374.11847C122.93233,377.6139,99.90686,400.75952,91.2265,429.93668C81.94502,461.1572,87.851456,501.9041,106.777596,536.0221C120.641525,561.09375,154.75835,596.77734,183.20798,615.9447C192.85152,622.4549,198.87965,625.8325,226.72652,641.0194C230.70433,643.1901,236.2504,647.40814,239.02292,650.42474C244.68823,656.5714,246.01492,660.67053,240.71054,655.48645C232.15128,647.4088,215.87692,651.75024,210.93423,663.5618C204.30391,679.5966,218.76994,695.5103,237.45547,692.6151C247.94382,691.04865,253.36887,685.5037,254.81448,675.0144C255.53827,669.95306,256.0197,669.1084,256.74426,671.0368C257.346,672.3633,261.80643,682.6127,266.7487,693.94293C273.25888,708.5287,275.91107,716.00336,276.03183,719.8602C276.15176,722.8744,276.63455,726.12994,277.11597,727.33453C277.59866,728.42004,277.4776,732.3952,276.75516,736.2554C274.46463,748.5506,274.9468,751.68524,279.64832,755.9054C282.05908,757.95404,286.27823,760.729,289.0514,762.17523C291.82385,763.6222,297.00702,766.63446,300.50323,769.04425C310.3885,775.55493,313.16125,783.7512,306.04855,785.4412C301.34705,786.6459,297.1286,791.46704,297.12756,795.8075C297.12756,802.3171,301.82935,809.069,318.34482,825.9458C336.54825,844.511,337.75388,846.6786,338.95895,863.3159L339.68317,873.8059L333.05243,874.52905C318.2244,876.3355,309.78638,881.5193,304.3617,892.24835C301.3475,898.1552,300.14255,899.36145,296.8869,900.0851C276.51343,904.0639,269.15997,908.8852,265.66498,920.21826C263.4947,927.33167,263.37427,927.33167,252.5242,930.3428C242.75998,932.876,235.40625,936.97345,232.03067,941.67535C228.29321,946.86115,223.95335,966.50995,222.50671,984.4732C221.78291,993.0324,220.69861,1007.4976,219.97551,1016.41986C218.16676,1038.7208,216.96117,1040.7694,202.85757,1046.0729C184.41273,1052.8251,176.45616,1059.5776,170.91121,1072.956C163.31642,1091.6428,170.79047,1102.009,198.51736,1110.931C221.90402,1118.5255,250.35437,1123.4669,295.31943,1127.4462C318.82648,1129.4952,333.29288,1130.099,371.86905,1130.0968C419.8487,1130.2167,441.065,1129.0104,480.24435,1124.3068C520.7488,1119.3673,554.14185,1109.8429,564.5093,1100.3185C571.3806,1094.0502,572.58655,1085.3705,567.885,1074.0377C562.33887,1060.4169,553.5386,1053.1844,534.8541,1046.5531C525.6924,1043.2955,522.7986,1040.4047,520.87036,1032.9313C520.50867,1031.1234,519.3031,1017.2608,518.33887,1002.1901C516.2887,971.5712,515.20447,963.49347,511.70822,952.1629C507.72992,939.2641,504.476,936.48834,486.5136,930.82294L476.3869,927.68933L474.21686,920.6991C473.13245,916.83984,470.9625,912.37994,469.51584,910.9337C466.01984,907.19696,457.58157,903.699,447.57538,901.6514L439.4981,900.0839L435.52048,892.2479C430.33685,882.2411,422.98337,877.4199,409.48184,875.13116L400.44012,873.68164L401.28345,863.6767C402.48923,847.0431,404.4183,843.6663,423.46494,824.25696C442.1506,805.2095,445.8873,799.18286,442.7531,792.5521C441.90964,790.6225,439.13742,788.2126,436.12286,786.7647C432.0244,784.8364,431.05984,783.7509,430.9395,781.21924C430.93958,776.15625,435.0381,772.30054,449.14246,764.2243C466.14072,754.57697,466.74356,753.49347,464.69342,738.9087C463.48785,730.95123,463.4879,727.9391,464.5731,726.73285C465.29654,725.7674,465.53726,723.4772,465.1762,721.4285C464.4524,717.8124,465.8994,713.83136,476.14615,691.5288C478.19586,686.8287,480.96808,680.4388,482.17365,677.3036C483.3789,674.17053,484.70514,671.27844,485.18756,671.0371C485.66907,670.6743,486.39276,673.0857,486.87488,676.3388C488.0808,685.7437,493.6255,690.9271,503.75244,692.49396C521.9552,695.3878,537.0244,679.2319,530.515,664.0441C527.38,656.8114,518.7003,651.1461,510.6238,651.1461C507.7303,651.1477,506.4037,651.7489,499.6535,655.84625L496.8806,657.4126L499.53308,653.79645C503.8728,647.6491,509.41824,643.79144,529.30896,633.06335C561.0138,616.06525,575.35925,605.33435,598.14343,582.18933C625.98987,553.8578,638.6476,534.6932,647.0863,508.29126C652.5104,490.92957,654.3192,479.47916,654.3198,461.27493C654.1992,446.6885,653.71643,442.9514,650.9441,433.5497C643.7117,408.83588,628.7638,389.54788,610.1986,380.7461C593.6837,372.91388,573.7926,373.27423,555.7101,381.59238C545.3424,386.41425,538.22986,392.802,533.28735,401.60507L529.67053,408.23438L530.3939,391.95963C530.8766,379.6632,531.4791,375.44388,532.8053,374.72162C535.0952,373.51532,535.0952,370.98425,532.80493,369.05692C530.876,367.48718,531.23804,363.5096,533.7698,358.32626C536.66284,352.41913,532.4435,351.69635,482.1738,349.76633C450.3488,348.56052,322.4445,347.47455,288.69012,348.0797 Z M168.62065,398.59015C172.47905,399.55725,178.02344,401.84668,180.91702,403.53268C186.9448,407.0283,196.95065,417.63858,201.28983,424.87027C205.26822,431.86386,209.12558,446.569,209.12552,455.0073L209.12659,462.1205L204.90611,458.3846C200.08487,454.16446,192.36938,451.75406,187.18575,452.8383C177.90263,454.88937,171.87544,465.37778,174.04556,475.2617C176.45665,485.7494,182.96655,491.174,193.3335,491.17316C203.45943,491.17395,209.24623,487.31482,212.62189,478.15384C214.06888,474.41574,215.15343,470.6804,215.15343,469.715C215.15343,468.75143,215.6358,467.9086,216.23824,467.9086C216.72102,467.90854,217.56482,473.33328,218.04655,479.96402C218.89035,491.65637,221.0604,510.70526,223.47162,527.5798C232.03072,585.6873,236.85254,610.0381,246.01486,640.53796C246.37631,641.6222,242.63922,638.609,237.81705,633.785C232.39206,628.48175,221.78331,620.1629,210.33148,612.56934C187.18613,597.13904,177.90276,589.6662,163.19566,574.2347C132.45549,542.29083,112.68511,500.9406,112.68522,468.5118C112.68522,441.0245,132.81717,404.01544,150.8996,398.34967C157.16815,396.42206,160.42342,396.5424,168.62065,398.59015 Z M592.7189,400.8804C601.27783,404.49768,611.40393,417.03336,618.99854,433.30978C633.9464,465.7358,629.12427,499.0064,603.32654,541.44293C585.96704,569.8912,563.7864,591.2305,524.96936,616.7866C517.9769,621.3697,508.69485,628.7219,504.23438,633.0617C499.6535,637.3998,496.03674,640.4148,496.03674,639.57227C496.03674,638.84753,497.00134,635.2315,498.3269,631.6157C505.92206,609.5571,519.5443,532.76306,524.3661,485.38684C524.7283,481.40814,525.4518,475.98337,525.8135,473.33115L526.537,468.5093L528.10315,475.0189C531.2377,486.9541,537.26587,492.0185,548.5969,492.01837C559.4464,492.01825,566.4385,485.86804,567.8854,474.8967C570.4169,456.2128,550.28467,446.4501,536.90344,459.8303L533.04614,463.68765L533.76917,453.44034C534.131,447.77457,535.4573,440.42166,536.5415,437.1677C540.6405,425.47067,548.959,413.9007,558.0001,407.26917C568.12646,400.0354,583.6771,397.1445,592.7189,400.8804 Z M195.86469,460.6768C197.91438,460.6768,200.68735,464.53354,200.6873,467.30606C200.6873,468.99374,202.01389,471.04147,203.94193,472.49008C205.99164,473.93668,206.83548,475.50174,206.3531,476.7092C205.14781,479.96402,199.60236,482.73676,194.05666,482.85645C184.53384,483.09784,177.90263,473.45468,181.88203,465.61856C183.81042,462.0018,189.83789,459.10776,193.21284,460.19138C194.17706,460.43442,195.26285,460.6768,195.86469,460.6768 Z M558.4823,465.0142C561.6167,468.51144,561.8579,472.60953,559.3259,477.5521C556.91565,482.13293,554.1428,483.57782,547.39185,483.57782C543.052,483.57782,541.12305,482.854,538.109,480.20193L534.25195,476.7089L538.10974,474.0557C540.3999,472.3657,541.8468,470.317,541.8468,468.63095C541.8467,460.6744,552.5758,458.26236,558.4823,465.0142 Z M238.42014,663.2023C242.51889,667.78424,242.63956,672.00195,238.6608,675.8604C234.92404,679.71643,229.61967,679.83746,226.3651,676.1004C223.47159,672.9651,222.50714,661.03046,225.15926,659.34393C227.93144,657.41394,234.9241,659.34393,238.42014,663.2023 Z M515.6865,658.9805C516.8917,659.46216,517.254,661.63257,517.0127,667.05774C516.8916,673.0841,516.2894,675.01306,514.1196,676.7008C506.52533,682.85095,496.8805,674.41064,501.4618,665.61084C504.2343,660.3064,510.8649,657.17285,515.6865,658.9805 Z"/>
</g>
<g style="fill:rgb(255,183,13); fill-opacity:1.0; stroke-linejoin: miter">
<path d="M339.09592,865.302L339.68317,873.8059L333.05243,874.52905C318.2244,876.3355,309.78638,881.5193,304.3617,892.24835C301.3475,898.1552,300.14255,899.36145,296.8869,900.0851C280.94016,903.2007,272.97037,906.83014,268.58344,913.69574Q369.9732,913.6944,471.36197,913.6935C470.7208,912.47046,470.06653,911.4843,469.51584,910.9337C466.01984,907.19696,457.58157,903.699,447.57538,901.6514L439.4981,900.0839L435.52048,892.2479C430.33685,882.2411,422.98337,877.4199,409.48184,875.13116L400.44012,873.68164L401.1471,865.30164L339.09592,865.302 Z"/>
</g>
<g style="fill:rgb(255,183,13); fill-opacity:1.0; stroke-linejoin: miter">
<path d="M299.7434,768.51794L299.7434,768.5197C299.99472,768.6968,300.25327,768.87256,300.50323,769.04425C310.3885,775.55493,313.16125,783.7512,306.04855,785.4412C301.34705,786.6459,297.1286,791.46704,297.12756,795.8075C297.12756,802.3171,301.82935,809.069,318.34482,825.9458C321.26593,828.9241,323.74866,831.4805,325.86398,833.7428Q370.1166,833.7412,414.3705,833.7412C416.8771,831.02,419.86545,827.92596,423.46494,824.25696C442.1506,805.2095,445.8873,799.18286,442.7531,792.5521C441.90964,790.6225,439.13742,788.2126,436.12286,786.7647C432.0244,784.8364,431.05984,783.7509,430.9395,781.21924C430.93958,777.14575,433.59213,773.8542,441.97336,768.5177L389.6366,768.5177L299.7609,768.51794 Z"/>
</g>
<g style="fill:rgb(255,255,255); fill-opacity:0.60784316; stroke-linejoin: miter">
<path d="M272.6791,958.9151L467.42633,958.9151L467.42642,1044.1283L272.67896,1044.1295L272.6791,958.9151"/>
</g>
<g style="fill:rgb(255,255,255); fill-opacity:0.60784316; stroke-linejoin: miter">
<path d="M473.7844,558.86884L472.82794,584.1753Q466.02963,660.65173,433.0419,706.50275Q399.8265,752.3171,354.81537,743.658Q311.85806,731.55444,286.10242,672.82916Q277.85025,653.84674,272.5074,631.4607L268.01807,608.44666Q264.3173,584.69366,264.27518,558.86993Q265.39914,479.6243,294.95837,427.00113Q324.51678,374.37985,369.0307,372.37878Q413.5443,374.3794,443.10272,427.00058Q472.66122,479.62332,473.7844,558.86884"/>
</g>
<g style="fill:rgb(255,183,13); fill-opacity:1.0; stroke-linejoin: miter">
<path d="M410.07562,562.29785L430.8544,629.9026L372.20862,590.3685L314.3327,631.0233L333.80893,563.0293L277.26105,520.5497L347.9449,518.06177L370.86993,451.15384L395.0782,517.60986L465.79694,518.73865L410.07562,562.29785 Z M427.38663,624.6907L407.8707,561.1998L373.72043,548.5097L373.7018,548.5353L373.7018,548.53754L373.70087,548.53687L427.09653,624.49585L427.38663,624.68976 Z M373.53702,548.76575L318.0144,625.5352L372.16745,587.4947L373.53702,548.764 Z M283.46487,521.7463L282.82025,521.76843L336.04532,561.74994L335.99026,561.9468L373.54834,548.5296L373.55035,548.434L283.46695,521.7463 Z M393.98004,519.00366L373.76117,548.3708L373.76117,548.3458L373.66705,548.23975L370.9738,456.5679L370.9297,456.4468L349.3491,519.42456L348.91437,520.41724L373.66806,548.2391L373.67096,548.3957L373.67633,548.4839L373.76553,548.45044L373.76224,548.3892L459.7525,520.4694L460.2751,520.0596L393.97803,519.001 Z M373.7453,548.39716L373.76224,548.37146L373.76224,548.39L373.7453,548.39716 Z"/>
</g>
<g style="fill:rgb(255,183,13); fill-opacity:1.0; stroke-linejoin: miter">
<path d="M373.71902,548.36505C373.67432,548.36505,373.63022,548.38666,373.6024,548.4254L373.58316,548.4526L373.58316,548.45337C373.547,548.5014,373.5464,548.5697,373.58215,548.6205L426.97888,624.5791L427.016,624.6151L427.30542,624.8128C427.3309,624.82947,427.35846,624.83765,427.3883,624.83673C427.41116,624.83673,427.43442,624.8304,427.4546,624.8182C427.5017,624.79425,427.5315,624.7453,427.5315,624.6907L427.5315,624.6891L427.52518,624.64795L408.01,561.15656L407.92178,561.06354L373.77145,548.374C373.75424,548.36743,373.7363,548.36505,373.71902,548.36505 Z"/>
</g>
<g style="fill:rgb(255,183,13); fill-opacity:1.0; stroke-linejoin: miter">
<path d="M373.53577,548.62103C373.48996,548.62103,373.4472,548.6426,373.41904,548.68036L317.89795,625.45013C317.85687,625.50726,317.86346,625.58685,317.9123,625.63715C317.9408,625.6661,317.97852,625.6806,318.0167,625.6806C318.0452,625.6806,318.0737,625.671,318.0983,625.6546L372.25037,587.6152L372.31134,587.50116L373.68097,548.7703C373.68427,548.70764,373.6442,548.6493,373.58417,548.6284C373.56747,548.6217,373.55264,548.6205,373.53577,548.62103 Z"/>
</g>
<g style="fill:rgb(255,183,13); fill-opacity:1.0; stroke-linejoin: miter">
<path d="M283.46225,521.60236L283.4589,521.604L282.8146,521.6232C282.75507,521.62494,282.70026,521.66614,282.68204,521.7243C282.66275,521.7836,282.68466,521.84644,282.73346,521.8842L335.87878,561.80707L335.85104,561.90656C335.83636,561.95795,335.85104,562.0156,335.89075,562.05084C335.9186,562.07733,335.9541,562.09094,335.99026,562.09094C336.0068,562.0896,336.02307,562.08795,336.03934,562.083L373.5974,548.6662L373.69287,548.5336L373.6969,548.4398C373.69757,548.37244,373.65543,548.3138,373.5921,548.2939L283.50702,521.60736L283.46454,521.601 Z"/>
</g>
<g style="fill:rgb(255,183,13); fill-opacity:1.0; stroke-linejoin: miter">
<path d="M370.92902,456.30167C370.86664,456.30234,370.81097,456.34244,370.79208,456.3987L349.2145,519.37317L348.7798,520.358L348.80466,520.51355L373.55862,548.33466C373.58713,548.36584,373.62558,548.3844,373.6684,548.3844C373.68555,548.3844,373.7018,548.38104,373.71808,548.3747C373.77414,548.3531,373.81125,548.2978,373.81125,548.2374L373.81125,548.2369L373.81125,548.2335L371.11835,456.56485L371.11002,456.51974L371.06488,456.39713C371.0444,456.3395,370.9887,456.30167,370.92902,456.30167 Z"/>
</g>
<g style="fill:rgb(255,183,13); fill-opacity:1.0; stroke-linejoin: miter">
<path d="M393.97568,518.8569C393.93164,518.8569,393.88654,518.879,393.86133,518.9168C393.85004,518.93146,393.84406,518.9473,393.8384,518.96484L393.8308,518.9659L373.75357,548.1261C373.7297,548.1074,373.69617,548.09784,373.66537,548.09784C373.6485,548.09784,373.63055,548.10175,373.61368,548.10913C373.55762,548.13,373.5215,548.1854,373.5222,548.2455L373.52673,548.3996L373.52673,548.40295L373.5318,548.48956C373.5327,548.5353,373.55762,548.57776,373.59506,548.6025C373.6196,548.61945,373.6485,548.6274,373.67767,548.6274C373.6936,548.6274,373.7088,548.62506,373.7244,548.61945L373.81464,548.5866C373.85638,548.57196,373.88818,548.5385,373.9021,548.4984L373.89456,548.50006L459.7976,520.60767L459.84308,520.5829L460.3653,520.175C460.41296,520.1358,460.43185,520.0722,460.41296,520.0145C460.39407,519.95514,460.33942,519.91583,460.27744,519.9149L393.98105,518.8569C393.98004,518.8569,393.97803,518.8569,393.97568,518.8569 Z"/>
</g>
<g style="fill:rgb(61,83,96); fill-opacity:0.99607843; stroke-linejoin: miter">
<path d="M132.46085,959.8477L132.46085,959.8493L132.46147,959.8477L132.46085,959.8477"/>
</g>
<g style="fill:rgb(61,83,96); fill-opacity:0.99607843; stroke-linejoin: miter">
<path d="M492.4381,951.491L492.4381,951.49274L492.4381,951.491L492.4381,951.49274"/>
</g>
<g style="fill:rgb(60,83,96); fill-opacity:0.99607843; stroke-linejoin: miter">
<path d="M675.3772,999.9454L675.37744,999.9454L675.37744,999.946L675.37744,999.9454L675.3772,999.9454L675.37744,999.9454L675.37744,999.946Q675.37744,999.9454,675.3772,999.9454"/>
</g>
<g style="fill:rgb(255,183,13); fill-opacity:0.99607843; stroke-linejoin: miter">
<path d="M166.42584,1059.8071L370.21536,1059.808L574.0054,1059.8087Q574.00525,1095.4823,574.0051,1131.1571Q370.2152,1131.1595,166.42569,1131.1609Q166.42583,1095.4844,166.42584,1059.8071"/>
</g>
</g>
</g>
</svg>