<?xml version="1.0" encoding="UTF-8"?>
<svg viewBox="0 0 159.5 161.53624" xmlns="http://www.w3.org/2000/svg">
 <defs>
  <linearGradient id="d" x2="0" y1="458.66" y2="701.42" gradientUnits="userSpaceOnUse">
   <stop stop-color="#fff" offset="0"/>
   <stop stop-color="#fff" stop-opacity="0" offset="1"/>
  </linearGradient>
  <radialGradient id="c" cx="179.86" cy="727.57" r="79.75" gradientTransform="matrix(1 0 0 .19749 0 583.51)" gradientUnits="userSpaceOnUse">
   <stop stop-opacity=".678" offset="0"/>
   <stop stop-opacity=".67917" offset=".50964"/>
   <stop stop-opacity="0" offset="1"/>
  </radialGradient>
  <radialGradient id="b" cx="118.19" cy="529.55" r="266.79" gradientUnits="userSpaceOnUse">
   <stop stop-color="#d5f6ff" offset="0"/>
   <stop stop-color="#0cf" offset=".79233"/>
   <stop stop-color="#045" offset="1"/>
  </radialGradient>
  <radialGradient id="a" cx="152.35" cy="592.7" r="133.4" gradientUnits="userSpaceOnUse">
   <stop stop-color="#adcfad" offset="0"/>
   <stop stop-color="#00cf00" offset=".79233"/>
   <stop stop-color="#040" offset="1"/>
  </radialGradient>
 </defs>
 <g transform="translate(-103.43 -580.98)" fill-rule="evenodd">
  <path transform="translate(2.9289 -.34315)" d="m260 727.11c0 8.6985-35.705 15.75-79.75 15.75s-79.75-7.0515-79.75-15.75 35.705-15.75 79.75-15.75 79.75 7.0515 79.75 15.75z" fill="url(#c)"/>
  <path transform="matrix(.51463 0 0 .51463 87.311 327.33)" d="m338 638.36c0 80.081-64.919 145-145 145s-145-64.919-145-145 64.919-145 145-145 145 64.919 145 145z" fill="url(#b)" stroke="#008080"/>
  <path d="m186.25963,581.61491c-2.99818,0-5.95381.1713-8.85937.51563l.82812.10937c0,0 1.73061.76107 2.01563,1.04688s.20757,1.15996.10937,1.64062-.38158.57899-.76562,1.15625c-.38646.57888.76562.28125.76562.28125l1.34375.67188c0,0-.38907.01-.96875.10937s-1.34375.28125-1.34375.28125l-.0937,1.0625 1.92188-.39062-.1875.67187-1.34375.29688-1.35938,1.625-.0937,3.07812 .29688,2.60938 .76562,2.10937 1.25.20313 1.4375.85937 1.9375-.0937 1.92188-2.59375 2.01562-1.9375 .57813-1.04687 .96875-.57813 2.10937-.48437 2.6875-.57813 2.79688-1.82812c.28582-.1916 7.21875-2.3125 7.21875-2.3125l1.53125.0937c0,0 .39763-1.91696.10937-2.10938s1.14063-1.34375 1.14063-1.34375l.26562-.125c-6.66204-1.95408-13.70586-3-21-3zm-22.26562,3.375c-3.60011,1.12586-7.07966,2.52172-10.42188,4.15625l-.10937.25-1.0625.57813-1.29688.96875-1.10937.42187-.0781-.29687c-3.68206,2.06204-7.17535,4.42718-10.4375,7.0625 1.65539-.8244 4.5-2.28125 4.5-2.28125l.67188-.71875 1.10937-.10938 2.40625-1.09375 1.82813-1.25 .1875.0937-1.39063,1.29688-.375.48437-1.10937.53125 1,.14063-.14063.57812 1.10938-.20312 1.10937-.90625 .85938.29687 .39062.42188 1.20313-.0469-.0469-.90625-1.875-1.35937-.4375-.42188-.1875-.48437 .8125.0937 .67188.57812 .71875-.71875 1.45312-.1875 1.4375-1.01562-.0937-.625 1.10938-1.0625-.73438-.76563 1.9375-.0469 1.67188.0469c0,0 .82383-.38046.96875-.14062s1.39062,1.15625 1.39062,1.15625l-.48437.42187-1.96875.25-.48438.95313 1.45313.20312 1.09375-1.15625 1.20312-.0937 .20313,1.14063c0,0-1.35528.78063-1.54688.82812s-1,.42188-1,.42188l-.0625.875-1.29687.14062-1.34375-.23437-.625.0469-1.01563.8125 .82813.71875c0,0 1.199-.4817 1.39062-.625s.82545-.42986.96875-.1875 .95313.90625.95313.90625l.67187,1.3125 .625.1875 1.92188.625c0,0 1.35937.3433 1.35937.4375 0,.0966-.14062-.82812-.14062-.82812l-1.01563-1.20313c0,0-.0514-.32779.28125-.23437 .34058.0958 1.15625.8125 1.15625.8125 .1416.0482 1.10938.625 1.10938.625l.39062-1.04688 .85938-.53125-.32813-.625-.48437-.53125-.53125-.625 .0469-.71875c0,0 .13723-.11052.28125-.20312 .1434-.095.59008-.42358.6875-.23438 .0942.1924 1.04688,1.4375 1.04688,1.4375l.92187.20313 .42188-.73438c0,0 1.20312-.14295 1.20312-.0937s.0937-.57812.0937-.57812l1.10938-.28125-1.57813-1.40625-.875-.42188-.67187.1875-.625-.71875 .67187-.625 .29688-.875-.76563-.76562-1.20312-.23438-.29688-.625c0,0-1.01133-.14127-1.15625-.0469-.1458.0998-.85937-.875-.85937-.875l-.53125-.70313zm39.54687,7.15625-1.73437.96875c0,0 .86803.3709 1.15625.5625s.85937-.1875.85937-.1875v.875c0,0 1.53861.84997 1.34375,1.14063s2.51563-.28125 2.51563-.28125l2.6875-.875 .57812-1.04688-1.0625-.875-4.90625.57813-1.4375-.85938zm25.96875,3.29688-.89062.29687-1.28125,1.21875c0,0-.32623.60541-.39063.76563-.0668.1618.0937,1.85937.0937,1.85937s.77232.0106.54688.23438-.1875,1.25-.1875,1.25l.89062.59375c0,0 1.19434.39317 1.35938.35937 .1538-.0314.72992-.41997.82812-.48437 .0894-.0628.79179-.76336 1.01563-.73438 .2238.0354.80822-.60366.875-.375 .0628.22462.18604,1.02631.3125,1.21875s.58961.53754.78125.98438 .44266.90822.375,1c-.0668.0998-.51563.53125-.51563.53125s-.9477.13276-1.07812.26562-.29401.1886-.39063.125 .32528-.51744.42188-.64062c.0974-.1312-.23056-.64078-.35938-.60938s-.24982-.2792-.125-.375c.1304-.0966.0937-.71875.0937-.71875s-.18623-.0963-.28125-.0625-1.21875.48438-1.21875.48438-.60842.6384-.64062.76562-.30489.80221-.14063,1.28125 .54688,1.26563.54688,1.26563 .42262.27661.26562.40625-.48437.60937-.48437.60937l-.76563.0312c0,0-1.38514.17314-1.51562.23438-.1264.066-1.46659.47895-1.40625.60937 .0678.128-.29688,1.5-.29688,1.5-.062.0322-1.40308,1-1.5625,1s-1.15625.25-1.15625.25-.45383,1.19022-.48437,1.125-1.5.70313-1.5.70313-1.12405-.32351-1.15625-.45313-.42251-.40912-.45313-.3125 .39063,1.08883.39063,1.28125 .0663.57873-.0625.45313-.77901-.32541-.90625-.39063c-.1312-.0628-1.21875-.0312-1.21875-.0312h-.45313c0,0-.54592.48805-.57812.39063-.0244.0682-.0625.40625-.0625.40625l.32812.32812 1.15625.48438 1.09375.67187 .40625,1.01563 .48438.96875c0,0-.31544,1.97908-.375,2.07812-.071.0942-.75.54688-.75.54688l-2.07813-.0312c0,0-1.0292-.2178-1.125-.25s-1.54992.1905-1.57812.0625-.48438-.0937-.48438-.0937l-.21875-.26563h-.57812l-.48438.54688-.70312.0312v.57812c0,0 .29782,1.31455.26562,1.21875s-.14062,1.54688-.14062,1.54688-.67992,1.39372-.75,1.5c.016.0418-.0469.9375-.0469.9375l.42188.67187 .0625.79688c0,0-.31634.73547-.1875.67187 .1296-.0652 1.14369.0335 1.17187-.0937s.65658-.41054.75-.1875c.095.22382.447-.0131.54688.375 .0892.38402.44975.93623.48437,1.03125s.28125.1875.28125.1875l.0937.26563-.1875.15625-.79687,1.79687-1.78125,1.25-1.04688.67188-.29687.79687-.4375.51563-.14063,1c0,0 .1293,1.24648.0625,1.3125l-2.39062,2.28125-1.29688.28125-.70312,1.21875c0,0-.95365.89826-1.01563,1.0625-.0668.1578-.54687.76562-.54687.76562s.0322,1.28457 0,1.09375-1.39063,1.0625-1.39063,1.0625-.2489,1.46521-.3125,1.53125c-.0636.0612-.69783,1.18845-.79687,1.15625s-.20313.77743-.20313.90625 .32813.5.32813.5 .45377.87787.48437.78125c.0164.0432.0312.28125.0312.28125l-.45312.45313c0,0 .48437.73232.48437.82812v1.98438l-.51562,1.09375-.26563,1.42187-.76562.60938 .0312.375 .67187.54687 .10938.60938-.20313.67187v.67188l.48438,1.125c0,0 .4823.39349.57812.29687s1.05708.60511 1.1875.82813 1.3125,1.6371 1.3125,1.70312c0,.0628.1875.375.1875.375l.57813,1.96875c0,0 2.79497,2.29813 2.85937,2.20313 .0644-.0934 2.98438,2.09375 2.98438,2.09375s2.3439-1.1599 2.3125-1.0625c-.0346.0942 1.98437-.0937 1.98437-.0937l1.21875.1875 .89063.42187 3.28125-1.5 .64062-.5 2.53125-.0937 1.21875.48438c0,0 .79688,1.18258.79688,1.375s.48163,1.06632.54687.9375c.062-.1248 2.85491-.24935 2.95313-.21875 .0926.0314 1.3125,1.21875 1.3125,1.21875l-.0625,1.125-.1875,1.98437-.39063.95313-.375.875-.10937.60937c0,0 2.89062,4.23423 2.89062,4.26563s.73438,1.76562.73438,1.76562l.875,2.20313 .51562,1.25-.51562.70312 .82812,2.15625-.28125,2.10938-1.25,2.73437-.54687,2.01563 .15625,2.70312 1.5,3.10938 1.57812,3.5625 .15625,3.90625 .71875,1.34375c14.30609-13.57554 23.21875-32.76797 23.21875-54.04688 0-3.58205-.26126-7.1154-.75-10.5625l-1.0625-1.9375c0,0-1.21493-3.01165-1.34375-3.17187s-.61172-.9689-.45312-.9375 1.3125-.125 1.3125-.125l.54687.65625c-.41361-1.8802-.8848-3.73852-1.4375-5.5625-.0694.15248-.15013.29875-.29687.39062-.38404.24234-.95952.56805-1.29688.32813-.3341-.24154-1.69561-.18883-1.84375-.14063-.1426.0484-1.77469-.053-1.96875.28125-.1916.33816-1.4261.0982-1.625,0-.1916-.095-2.55836-1.04785-2.75-1.09375s-1.39969-.57465-1.59375-.71875c-.1916-.1458-1.39082-.29422-1.4375-.4375s.10205-.34517-.0937-.29687c-.1884.0444-1.58961.4841-1.78125.625-.1956.1498-.625.53125-.625.53125s-.57953.58326-.53125,1.01562 .58221.77571.39063,1.01563-.85938.51562-.85938.51562-.73207-.66982-.96875-.76562-2.5-.4375-2.5-.4375l-.92187-1.04688c0,0-1.43325-.96732-1.57813-1.01562-.1458-.0476-1.74127.004-1.98437-.1875-.24158-.1956-1.00741-1.20535-1.39063-1.15625-.38568.0476-.23791-.57606-.0937-.67188s.57869-.91838.53125-1.0625c-.05-.1458.24553-.96318-.23437-1.20312-.4806-.24636-.15625-1.0625-.15625-1.0625s.48933-.0937.29687-.0937-.91537.0525-1.10937-.1875-.2507-.345-.4375-.25c-.1964.0974-1.38873.2983-1.53125.25-.1458-.0474-1.30758.0937-1.5.0937s.0525.049-.1875,0-1.20332.38892-1.25.57812c-.044.1924-1.01053-.0442-1.15625,0-.1466.0484-1.54688.0469-1.54688.0469l-2.29687.39062c0,0-1.54625.77571-1.59375,1.01563s-.52858.62537-.67188.71875c-.1426.0974-1.00938-.0128-1.0625-.15625-.045-.144-1.59375.0625-1.59375.0625s-.6201-.34887-.8125-.20313c-.1916.1442-.1875-.625-.1875-.625l.23438-.57812 .875-.57813 2.0625-.375 1.01562-.67187 .625-.25 .375-1c0,0 .72016-.15024.67188-.29688-.0474-.1442-.23438-.8125-.23438-.8125l1.39063-2.17187 1.98437-.95313 .32813-.6875c0,0-.18868-.85346-.0469-1 .1434-.145 1.4375-.4375 1.4375-.4375l1.64063.53125c0,0 .87086-.57525 1.0625-.67187s1.10937-.625 1.10937-.625 .088-.43815.28125-.39063 1.01116-.13492 1.10938.25 .8125,1.57813.8125,1.57813l1.10937,1.15625 1.0625.82812 1.29688.46875c0,0 .76295.67043.90625.71875s.875.875.875.875l.375.67188c0,0-.22942.5241-.42188.76562s-.77693.86404-.92187.8125c-.145-.0442-1.25-.23437-1.25-.23437l-1.20313.14062c0,0-.19517.29131.14063.53125s.72756.19899 1.0625.39063c.34216.1916 1.20312.57812 1.20312.57812s.57813.0911.57813.23438 .18902-.38301.14062-.71875-.0873-.76196.25-.85938 .85938-.0104.85938-.15625c0-.1432.15625-.32812.15625-.32812l.42187-.53125-.0469-.32813 .4375-.34375-.4375-.53125c-.19-.24154-.38928-.38426-.25-.625 .1474-.23912.6294-.58386.875-.39062 .23908.1916.97021.28891.92187.53125s-.004.57982.0937.39062c.0924-.194.0469-.96875.0469-.96875s-.38145-.5298-.71875-.57812c-.33334-.0498-1.21481-.48231-1.45313-.57813s-.67187-.32812-.67187-.32812 .19045-.53268-.0937-.48438c-.29144.0474-1.15625-.0927-1.15625-.23437 0-.1474-.86199-.82787-.90625-.96875-.0484-.1474-.82813-1.20313-.82813-1.20313s-.42289-.43402-.46875-.57812-.10652-.38241-.20312-.76563 .96937-1.34642.92187-1.20312 .24266.33328.4375.76562 .95026,1.1649 1.04688,1.45313 1.15394,1.09409 1.39062,1.1875c.24476.095.39192.3865.875.57812s.43854.28749 1.0625.57813 .71992.39035.8125.53125c.0998.1466.47768.10381.625.34375 .1434.23912.34375.29133.34375.53125s.19515.23729.0937.71875c-.0942.48066-.2366.62295-.1875.71875s.91266,1.875 1.25,1.875 1.33162.39391 1.1875.96875c-.1434.57646.625,1.34375.625,1.34375s.64937.0352 1.09375.10937c.018-.33572-.0523-.87442.3125-1.07812 .4283-.24072 1.05055-.48125.95313-.71875s-.19489-.66651-.57813-.95313-.76359-.44605-.85937-.92187c-.0942-.48224-.24484-1.1159.1875-.92188s.81914,1.114 1.01562.48438c.1892-.62396.66428-1.05117 1-.90625s.97022.3857.92188.57812 .4375,1.73438.4375,1.73438 .18543.13967.28125.85937 .71918.91553.625,1.15625c-.0974.23832-.38232.38616.39062.48438s1.48438.22945 1.48438.42187 .63775.29582.73437.4375c.0942.145.66819.42799.76563.14063s.29336-.86227.4375-.76563 1.34006.0979 1.4375.48438c.0748.28441.54718.36096.78125.42187-.85539-2.20579-1.8214-4.35484-2.875-6.45312l-1.70313-.42188-1.0625-.53125-.57812-.625h.53125l-.1875-.76562 .0937-.53125 .46875-.28125 .23437-.92188c-2.73204-4.68754-5.97109-9.03525-9.625-13-.20744.11419-.6007.39328-.75.45313-.1602.0636-.63693.25507-.73437.0312-.0942-.22544-.29688-.57813-.29688-.57813s-.15191-.31455-.21875-.21875c-.057.0926-.42187.125-.42187.125l-.82813.3125c0,0-.45269.32621-.54687.39063-.099.0636-.57323.0605-.76563.15625s-.77888.58399-.9375.35937-.25506.14948-.45312-.20312c-.1876-.35184-.11753-.73788-.34375-.67188-.22142.0644-.73648.20009-.79688.32813-.0668.128-.14164.12198-.26562.25-.1288.1272-1.0625.23437-1.0625.23437v-.0781l1.0625-.89063 .23437-.875c0,0 .98587.16884 1.01563.29688s.26364-.28874.51562-.0625c.25924.22382.5764.19658.60938.39062s.21856.41009.25.28125 .0312-.54687.0312-.54687-.27488-.15016-.4375-.25-.12975-.39177.0312-.48438c.1578-.0958.60477-.36382.73437-.26562 .1288.0934.70313-.125.70313-.125s.0934-.18941.15625-.28125c.0668-.0998.39062-.96875.39062-.96875s-.23405-.10078-.29687-.39063c-.0124-.0553-.002-.13231.0156-.21875-2.5409-2.41968-5.26262-4.6586-8.125-6.70312zm-71.85937.9375-.4375.4375-3.17188-.29688-1.10937,1.92188-.23438,1.01562c0,0-1.74056,1.74054-1.95312,1.875 .1272-.037.9375.76563.9375.76563l-.71875,1.73437-2.75,1.59375-1.34375.1875c0,0-.81395,2.98106-.76563,3.17188s-1.10937.71875-1.10937.71875l-.8125.57812-.34375-1.04687c0,0-.36909-.81113-.51563-1.01563 .21498.0886 1,.1875 1,.1875l.14063-.67187-.76563.0469 .32813-1.10937 .73437-1.20313-2.51562-.1875-.5625-.67187-1.26563-.1875-.0937-.53125-.85937-.53125-1.0625-.48438-1.15625.14063-.0469-1 .28125-.96875-1-.17188c-14.86867,13.36288-24.32719,32.63424-24.70312,54.10938l1.17187.28125 1.89063-.57813 1.20312.57813 1.82813,2.10937 1.875.48438 1.92187.67187h.90625l.25,1.10938c0,0 .87008,1.10588 1.0625,1.25s.0469,1.39062.0469,1.39062l.8125.4375 .95312,1.01563 .625.57812 .6875.76563 .42188-.29688 .875.25 1.25,1.15625 .8125-.48437-.23438-.92188 .76563-.76562h.67187l.71875.57812-.0469.67188 .875,1.39062 .0469,3.90625-.78125,1.25-1.04687.71875-.0469,1.15625-1.10937.4375-.4375,1.53125-.67188,1.34375 .14063,1.15625 .96875.875-.875.90625-.625.92188 .57812,1.82812c0,0 .28125.90992.28125.8125s.92188.625.92188.625l1.6875,3.35938 1.625,2.375c0,0 2.3892,4.77466 2.4375,4.8125 .71736.52736 5.9375,4.29687 5.9375,4.29687l.90625,4.6875 .25,9.875 .76562,2.82813-.0781,1.29687c4.04624,2.79274 8.38155,5.19762 12.95312,7.15625 .39252.00054 1.10938.0781 1.10938.0781l2.1875-.57813c0,0 .82924-1.47833.76562-1.73437s-.0625-1.09375-.0625-1.09375-.004-.57219-.51562-.64063c-.51608-.062-.51261-.24632-.64063-.76562-.1304-.51124-.51562-1.09375-.51562-1.09375l-.64063.125 .57813-.5625 1.28125.95312 1.92187.32813 1.48438-1.48438 1.01562-2.5 .45313-1.85937h.96875l1.01562-1.85938 .39063-1.73437-.32813-2.125 .45313-.76563 3.34375-2.23437 2.5-.84375 .82812-.64063c0,0 1.28125-1.72945 1.28125-1.92187s.51563-2.6875.51563-2.6875 .58162-2.94901.51562-3.14063c-.062-.1956.1304-2.76372 0-2.82812s.0625-.76563.0625-.76563l2.4375-3.46875 1.15625-2.625c0,0 .83277-1.35333.70313-1.60937s-.82813-2.4375-.82813-2.4375-1.54253-.32319-1.60937-.51563c-.0636-.1916-2.68962-2.50192-2.75-2.4375-.0684.0628-1.08995-1.02756-1.21875-.70312s-2.125.32812-2.125.32812l-2.10938-.51562c0,0-.89392.63506-.70312.375s.0636-1.78969 0-1.53125c-.0636.25362-3.21875-1.34375-3.21875-1.34375l-1.09375.95312v-1.21875l-1.65625-1.01562 .1875-1.35938-.76563-.64062c0,0-.1231.1897-.1875.0625s-.51562-2.6875-.51562-2.6875l-2.4375-1.98438-2.95313-.14062-2.70312-1.46875-.57813-1.34375c0,0-1.53125-.71301-1.53125-.90625s-.44608-.0582-.57812-.125c-.1248-.062-.0625-.70313-.0625-.70313l-.70313-.57812-.26562-.17188-.625-.1875-.375-.54687c0,0 1.39412-.61243 1.25-.5625s-3.125.46875-3.125.46875l-.29688.57812-1.39062-.71875-2.35938-.14062c0,0-1.68892-.66776-1.64062-.85938s-.53125-.92187-.53125-.92187-.37215.9198-.46875,1.01562-1.29688,1.09375-1.29688,1.09375l.0937,1.54688-.82812-.85938 .57812-.82812v-1.15625c0-.1474.73438-.46875.73438-.46875l-.29688-.625c0,0-.85937.23008-.85937.375s-1.15625.82812-1.15625.82812l-1.40625.51563h-.60938c0,0-.63229,1.01178-.78125,1.0625-.1424.049-.0937.96875-.0937.96875s-1.544,1.72287-1.64062,1.53125-1.71875-1.53125-1.71875-1.53125l-1.9375.23437-1.09375.57813-1.35938-.90625-1.04687-1.64063 .0937-1.92187 .57812-2.125 .23438-1.39063-1.4375-1.0625c0,0-2.9375.23789-2.9375.0937s-1.5968.0536-1.54688-.0937c.046-.1424.57813-1.05658.57813-1.20312 0-.145.39062-1.25.39062-1.25l.625-1.25 .8125-2.39063 .48438-.82812-2.40625-.14063-1.4375.57813-.8125,2.40625-4.09375,1.09375-1.01563-.76563c0,0-.0985.4439-.0469.20313 .045-.23994-1.25-1.9375-1.25-1.9375l-.625-2.34375c0,0 1.64529-4.86465 1.59375-4.76563-.0476.0942.0469-1.78125.0469-1.78125l5.14063-3.375 1.96875.29688 .48437.46875 1.20313-.1875 1.20312-1.20313 1.54688.1875 1.48437-.28125 .92188,1.01563 1.34375-.53125 .71875.76562 .4375.48438v.8125l-.34375.78125 .34375,1.71875 .95312,1.35937 .625.23438 .76563-2.10938-.14063-1.98437-.32812-1.57813v-1.15625l1.96875-2.40625 2.54687-1.82812 2.01563-1.15625 1.78125-1.92188-.0937-1.82812 .78125-.14063 .75-1.64062 .78125.0937 1.48437-1.875 2.5-.85938 1.54688-.29687 .48437-.51563-.57812-.48437 1.20312-1.78125 3.79688-1.5 2.3125-.67188-1.875,1.20313 .375.92187 1.40625-.39062 1-.625 2.65625-.71875c0,0 .41802-.70419.51562-.82813-.0926.23992 1.35938-.23437 1.35938-.23437l-.29688-.57813 .10938-.76562-.78125.28125-1.15625,1.25-1.875-.0937-.85938-1.29688 .8125-1.10937 .76563-1.53125c-.0492.0934-1.29688-.39063-1.29688-.39063l-1.875.67188c-.1916,0-1.96857,1.06516-1.92187.92187s-.90625.53125-.90625.53125l2.4375-1.96875 1.01562-.15625 1.15625-1.0625h5.53125l1.875-.375 2.5-1.34375 .20313.23438-1.0625,1.01562-1.29688,1.34375-1.25,1.34375-.625.8125 1.96875.0937c0,0 1.54098.0388 1.6875,0 .1924-.0482.23438.67188.23438.67188l.8125-.5625 .4375,1.09375 1.45312-1.09375-.4375-1.25 .39063-1.17188-1.6875.0625v-.625c0,0-.62276-.72-.67188-.625-.0498.0974.95537-.81457.90625-.71875s-.4375-.48437-.4375-.48437l1.15625-1.45313-.5625-1.625-.20312-.82812-1.48438-.71875-.53125-.71875-.6875-.53125 .53125-1.25-.23437-.90625c0,0-.43608-2.98563-.48438-2.89063s-2.01562,1.64063-2.01562,1.64063l-2.01563,1-1.0625-.90625 .0937-1.20313 .92188-.875-1.5-.46875-.0937-.39062c0,0-1.3425-1.345-1.4375-1.25zm62.375,3.90625-.45313.1875-.42187.625c0,0-.38986.0958-.54688,0s-.48137.00095-.60937-.0312c-.128-.0362-.42188.375-.42188.375s-.4329.48422-.5625.51562-.57907.54673-.54687.57813 .0625.45312.0625.45312-.0898.15529-.25.1875 .125.57813.125.57813l.39062.1875c0,0-.23215.23292-.35937.20312-.1304-.0354-.42701.31205-.20313.40625 .22536.0934.32832.23393.29688.32813-.028.0998.48437.15625.48437.15625l.40625-.0937-.28125.45312c0,0 .0613.27743.15625.40625 .099.128.42188,0 .42188,0s.76275-.12595.85937-.0937c.0934.0306-.0312.32813-.0312.32813l.29688.4375c0,0 .1553.65293.1875.84375 .0346.1956-.25.125-.25.125s-.61556.0907-.75.0625-.36991.22915-.59375.48437c-.22622.26166.0312.15625.0312.15625h.46875c0,0 .0329.32029.0625.45313s-.37442.25095-.5.21875-.71875.26562-.71875.26562l.0312.46875 .71875.0781 .70312.0937 .125.21875c0,0-.4525.0966-.57812,0s-.51563.51562-.51563.51562l-.34375.375-.75.57813 .42188.20312 .25-.32812 .65625.0312 .6875-.0937c0,0 .43463-.51563.53125-.51563l1.07812-.0312c0,0 .81041-.15815.90625-.0937s.72827.18813.82813.21875c.0942.0314 1.34375-.34375 1.34375-.34375s.26452-.41887.32812-.54687c.0668-.128-.35726-.24713-.45312-.34375s.3216-.23231.51562-.32813 .26194-.45077.35938-.60937c.0926-.1586-.13968-.48473-.17188-.57813-.0308-.099-.48221-.0639-.60937-.0937s-.67188.0312-.67188.0312l.0312-.64062c0,0-1.50097-2.06043-1.46875-2.15625 .032-.0934-.35538-.7046-.51562-.73438s-.35448-.16579-.54688-.42187c-.1908-.25442.26563-.57813.26563-.57813s.52857-.57592.59375-.70312c.0644-.1288-.062-.51468-.15625-.54688-.0974-.0314-1.21875.0312-1.21875.0312s-.31105-.24795-.28125-.34375 .35572-.125.45312-.125c.091,0 .66888-1.12403.79688-1.15625s-.0937-.32812-.0937-.32812zm-5.20313,4.6875-.51562.15625-.28125.42187c0,0-.48483.50527-.39063.40625 .099-.0926.35728-.0813.29688.0781-.0668.1594-.32813.3125-.32813.3125h-.375l-.32812-.1875-.48438.0625-.15625.28125 .1875.45312-.3125.32813 .375.3125 .39063.0937-.0625.45312-.42188.1875-.54687.35938-.15625.60937 .48437.28125 .76563.17188 .79687-.20313 .6875-.375 .1875-.1875 1.125-.0781 .125-.46875 .25-.48438v-1.39062l.60938-.34375-.1875-.89063-.96875-.23437-.76563-.125zm-86.09375,40.71875c0-.1006-1.64062,1.29687-1.64062,1.29687v.14063c0,0 .14832.66758.20312.8125 .045.1432 1.10733-.77301 1.20313-1.15625s.85525-.48153 1.04687-.57813c.1956-.0934.29114.39063.48438.39063s1.0625.29687 1.0625.29687l1.73437.5625 .67188.625c0,0 .28125,1.53874.28125,1.73438 0,.194 1.3125.0937 1.3125.0937l2.54687-.23438c-.00046-.00044.81715-.48008.76563-.625-.0442-.1426-.77221-.375-1.15625-.375s-1.78162-1.35158-1.875-1.64062c-.0998-.28904-3.21875-1.0625-3.21875-1.0625s-3.42188-.18703-3.42188-.28125zm10.96875,3.89062c-.38164,0 0,.4375 0,.4375l-.14062,1.39063h-1.59375l-.0469.14062c0,0-.4375.14854-.4375.4375s.58499.18543.82813.28125 .61766-.0469.8125-.0469 .82812-.14063.82812-.14063 .1875.43321.1875.57813 1-.0427 1-.1875 .25-.53125.25-.53125l1.20313-.25c0,0 1.63793.0469 1.78125.0469s.24444-.28354-.0469-.8125-1.12008-.62996-1.3125-1.01562c-.1924-.38162-1.10221-.1376-1.34375,0-.23992.1458-1.58149-.32813-1.96875-.32813z" fill="url(#a)" stroke="#050" stroke-width=".5"/>
  <path transform="matrix(.56111 0 0 .63107 93.176 265.56)" d="m255 557.86c0 28.443-40.294 51.5-90 51.5s-90-23.057-90-51.5 40.294-51.5 90-51.5 90 23.057 90 51.5z" fill="url(#d)"/>
 </g>
</svg>
