<?xml version="1.0" encoding="UTF-8"?>
<svg enable-background="new 0 0 1691.807 1691.807" version="1.1" viewBox="0 0 1691.807 1691.807" xmlns="http://www.w3.org/2000/svg">
 <path d="m845.9 45.904c220.8 0 400 179.2 400 400s-179.2 400-400 400-400 179.2-400 400 179.2 400 400 400c441.6 0 800-358.4 800-800s-358.4-800-800-800zm0 1075c69 0 125 56 125 125s-56 125-125 125-125-56-125-125 56-125 125-125z"/>
 <path d="m970.9 445.9c0 69.036-55.964 125-125 125s-125-55.964-125-125 55.964-125 125-125 125 55.964 125 125z"/>
 <path d="m845.9 1645.9c-220.8 0-400-179.2-400-400s179.2-400 400-400 400-179.2 400-400-179.2-400-400-400c-441.6 0-800 358.4-800 800s358.4 800 800 800zm0-1075c-69 0-125-56-125-125s56-125 125-125 125 56 125 125-56 125-125 125z" fill="#fff"/>
 <path d="m720.9 1245.9c0 69.036 55.964 125 125 125s125-55.964 125-125-55.964-125-125-125-125 55.964-125 125z" fill="#fff"/>
 <path d="m1069.7 941.98c-21.964 48.374-56.688 100.68-83.357 131.75-11.685 13.596-15.357 36.829-5.055 56.312 70.932 133.92 71.042 150.14 108.02 150.54 25.866 0.286 189.11-48.756 361.92-191.11 33.319-27.813 17.934-67.61-8.362-67.66-17.723-0.08-28.063 12.542-58.714 38.114-91.753 75.834-207.81 135.73-191.69 119.07 15.023-15.377 34.267-38.472 47.837-55.09 50.96-65.645 30.776-27.392 131.06-110.93 50.005-40.682 114.91-105.78 160.57-163.59 16.174-20.205 10.098-39.834-3.102-45.379-68.145-28.682-61.328-21.365-55.862-41.881 21.433-80.151 32.406-148.67 37.952-216.59 1.284-16.9-9.221-31.393-23.787-33.703-96.961-13.394-30.982-3.19-152.71 203.64-4.219 7.17-6.902 3.804-63.603-20.061-10.851-4.559-22.469-0.658-27.922 7.287-4.804 6.882-2.211 6.949-8.461 50.654-12.285 83.292-34.039 155.77-57.474 209.31-10.788 25.249-12.674 31.705-60.711 62.75-80.538 51.323-6.019 14.196 52.496-167.88 5.471-33.719-34.04-47.866-51.296-35.138-14.665 10.387-5.505 26.993-47.752 119.59z" fill="#fff"/>
 <path d="m542.77 847.56c-8.425-11.403-5.591-23.331-2.658-33.044 17.009-58.218 41.844-110.23 72.526-155.92 1.852-2.764-1.602-6.096-4.312-4.083-79.723 59.067-93.816 89.736-115.52 130.3-60.019 111.85-81.689 262.14-62.362 380.13 1.769 10.833-4.321 22.468-22.381 24.583-3.199 1.3-40.919 5.159-51.318 4.566-3.826-0.211-7.898-1.623-11.294-4.059-9.445-6.722-10.006-16.759-10.724-21.839-19.445-149.96 10.204-309.89 87.139-445.82-77.01 84.675-130.82 184.4-163.5 293.69-41.597 137.85-18.24 169.54-47.098 189.88-4.869 3.182-4.809 2.924-7.221 3.354-1.749 0.281-41.457 4.103-46.246 4.255-6.025-1.425-13.348-7.73-17.656-14.412-11.182-17.078-8.005-33.82-4.686-60.121 22.841-185.62 110.3-381.04 257.8-518.7 4.172-3.884 47.662-56.86 104.21-103.94 3.272-2.718 0.968-6.97-2.864-5.228-124.64 56.571-209.18 139.48-214.91 143.2-31.559 20.706-45.803-0.61-45.056-18.627 1.52-28.627 26.806-47.223 61.825-75.996 83-67.638 184.63-123.34 310.51-161.34 15.081-4.472 33.05-4.859 47.555 0.69 27.758 10.366 26.421 18.452 87.212 145.18 8.946 18.687 7.859 40.633-1.286 58.636-12.11 23.904-93.144 84.301-140.45 218.08-6.601 17.777-6.228 24.858-12.374 31.387-13.444 14.477-36.301 6.81-44.871-4.809z"/>
</svg>
